G04 EAGLE Gerber RS-274X export*
G75*
%MOMM*%
%FSLAX34Y34*%
%LPD*%
%INBottom Copper*%
%IPPOS*%
%AMOC8*
5,1,8,0,0,1.08239X$1,22.5*%
G01*
%ADD10C,0.177800*%
%ADD11C,1.422400*%
%ADD12P,1.677704X8X292.500000*%
%ADD13C,1.524000*%
%ADD14P,1.732040X8X112.500000*%
%ADD15C,1.600200*%
%ADD16P,1.429621X8X202.500000*%
%ADD17P,1.429621X8X22.500000*%
%ADD18P,1.429621X8X292.500000*%
%ADD19C,1.320800*%
%ADD20C,1.700000*%
%ADD21P,1.429621X8X112.500000*%
%ADD22P,1.649562X8X22.500000*%
%ADD23C,2.000000*%
%ADD24C,1.016000*%
%ADD25C,0.406400*%
%ADD26R,1.650000X1.650000*%
%ADD27C,0.609600*%
%ADD28C,0.654800*%

G36*
X130691Y5347D02*
X130691Y5347D01*
X130777Y5349D01*
X130831Y5367D01*
X130888Y5375D01*
X130966Y5410D01*
X131048Y5436D01*
X131095Y5468D01*
X131147Y5491D01*
X131213Y5546D01*
X131284Y5594D01*
X131321Y5638D01*
X131364Y5674D01*
X131412Y5746D01*
X131467Y5812D01*
X131490Y5864D01*
X131522Y5911D01*
X131548Y5993D01*
X131582Y6072D01*
X131590Y6128D01*
X131607Y6182D01*
X131610Y6268D01*
X131621Y6353D01*
X131613Y6409D01*
X131615Y6466D01*
X131593Y6549D01*
X131581Y6634D01*
X131557Y6686D01*
X131543Y6741D01*
X131499Y6815D01*
X131464Y6894D01*
X131427Y6937D01*
X131398Y6986D01*
X131335Y7045D01*
X131279Y7110D01*
X131237Y7136D01*
X131190Y7180D01*
X131061Y7246D01*
X130995Y7288D01*
X128334Y8390D01*
X122690Y14034D01*
X119635Y21409D01*
X119635Y29391D01*
X122690Y36766D01*
X128334Y42410D01*
X135709Y45465D01*
X143691Y45465D01*
X151066Y42410D01*
X156710Y36766D01*
X159765Y29391D01*
X159765Y21409D01*
X156710Y14034D01*
X151066Y8390D01*
X148405Y7288D01*
X148331Y7244D01*
X148253Y7209D01*
X148210Y7172D01*
X148161Y7143D01*
X148102Y7081D01*
X148036Y7025D01*
X148004Y6978D01*
X147965Y6937D01*
X147926Y6860D01*
X147878Y6789D01*
X147861Y6735D01*
X147835Y6684D01*
X147819Y6600D01*
X147793Y6518D01*
X147791Y6461D01*
X147780Y6405D01*
X147788Y6320D01*
X147785Y6234D01*
X147800Y6179D01*
X147805Y6122D01*
X147835Y6042D01*
X147857Y5959D01*
X147886Y5910D01*
X147907Y5857D01*
X147958Y5788D01*
X148002Y5714D01*
X148044Y5675D01*
X148078Y5630D01*
X148147Y5579D01*
X148210Y5520D01*
X148260Y5494D01*
X148306Y5460D01*
X148386Y5429D01*
X148463Y5390D01*
X148512Y5382D01*
X148572Y5359D01*
X148717Y5348D01*
X148794Y5335D01*
X344272Y5335D01*
X344301Y5339D01*
X344330Y5336D01*
X344441Y5359D01*
X344554Y5375D01*
X344580Y5387D01*
X344609Y5392D01*
X344710Y5444D01*
X344813Y5491D01*
X344835Y5510D01*
X344861Y5523D01*
X344944Y5601D01*
X345030Y5674D01*
X345046Y5699D01*
X345068Y5719D01*
X345125Y5817D01*
X345188Y5911D01*
X345197Y5939D01*
X345211Y5964D01*
X345239Y6074D01*
X345273Y6182D01*
X345274Y6212D01*
X345281Y6240D01*
X345278Y6353D01*
X345281Y6466D01*
X345273Y6495D01*
X345272Y6524D01*
X345237Y6632D01*
X345209Y6741D01*
X345194Y6767D01*
X345185Y6795D01*
X345139Y6858D01*
X345064Y6986D01*
X345018Y7029D01*
X344990Y7068D01*
X338828Y13230D01*
X338781Y13265D01*
X338741Y13307D01*
X338668Y13350D01*
X338601Y13401D01*
X338546Y13422D01*
X338496Y13451D01*
X338414Y13472D01*
X338335Y13502D01*
X338277Y13507D01*
X338220Y13521D01*
X338136Y13519D01*
X338052Y13526D01*
X337995Y13514D01*
X337936Y13512D01*
X337856Y13486D01*
X337773Y13470D01*
X337721Y13443D01*
X337666Y13425D01*
X337609Y13385D01*
X337521Y13339D01*
X337448Y13270D01*
X337392Y13230D01*
X336531Y12369D01*
X332423Y10667D01*
X327977Y10667D01*
X323869Y12369D01*
X320725Y15513D01*
X319023Y19621D01*
X319023Y31179D01*
X319940Y33393D01*
X319969Y33505D01*
X320004Y33614D01*
X320005Y33642D01*
X320011Y33669D01*
X320008Y33783D01*
X320011Y33898D01*
X320004Y33925D01*
X320003Y33953D01*
X319968Y34062D01*
X319939Y34173D01*
X319925Y34197D01*
X319917Y34224D01*
X319853Y34319D01*
X319794Y34418D01*
X319774Y34437D01*
X319758Y34460D01*
X319671Y34534D01*
X319587Y34612D01*
X319562Y34625D01*
X319541Y34643D01*
X319436Y34689D01*
X319334Y34742D01*
X319309Y34746D01*
X319281Y34758D01*
X319017Y34795D01*
X319003Y34797D01*
X315997Y34797D01*
X315884Y34781D01*
X315769Y34771D01*
X315743Y34761D01*
X315716Y34757D01*
X315611Y34710D01*
X315504Y34669D01*
X315482Y34653D01*
X315457Y34641D01*
X315369Y34567D01*
X315277Y34498D01*
X315261Y34475D01*
X315240Y34458D01*
X315176Y34362D01*
X315107Y34270D01*
X315097Y34244D01*
X315082Y34221D01*
X315047Y34111D01*
X315007Y34004D01*
X315005Y33976D01*
X314996Y33950D01*
X314993Y33835D01*
X314984Y33721D01*
X314990Y33696D01*
X314989Y33666D01*
X315056Y33409D01*
X315060Y33393D01*
X315977Y31179D01*
X315977Y19621D01*
X314275Y15513D01*
X311131Y12369D01*
X307023Y10667D01*
X302577Y10667D01*
X298469Y12369D01*
X295325Y15513D01*
X293623Y19621D01*
X293623Y24333D01*
X293611Y24420D01*
X293608Y24507D01*
X293591Y24560D01*
X293583Y24614D01*
X293548Y24694D01*
X293521Y24778D01*
X293493Y24817D01*
X293467Y24874D01*
X293371Y24987D01*
X293326Y25051D01*
X292310Y26067D01*
X292286Y26084D01*
X292267Y26107D01*
X292173Y26170D01*
X292083Y26238D01*
X292055Y26248D01*
X292031Y26265D01*
X291923Y26299D01*
X291817Y26339D01*
X291788Y26341D01*
X291760Y26350D01*
X291646Y26353D01*
X291534Y26363D01*
X291505Y26357D01*
X291476Y26358D01*
X291366Y26329D01*
X291255Y26307D01*
X291229Y26293D01*
X291201Y26286D01*
X291103Y26228D01*
X291003Y26176D01*
X290981Y26156D01*
X290956Y26141D01*
X290879Y26058D01*
X290797Y25980D01*
X290782Y25955D01*
X290762Y25933D01*
X290710Y25832D01*
X290653Y25735D01*
X290646Y25706D01*
X290632Y25680D01*
X290619Y25603D01*
X290583Y25459D01*
X290585Y25397D01*
X290577Y25349D01*
X290577Y19621D01*
X288875Y15513D01*
X285731Y12369D01*
X281623Y10667D01*
X277177Y10667D01*
X273069Y12369D01*
X269925Y15513D01*
X268223Y19621D01*
X268223Y21801D01*
X268211Y21886D01*
X268209Y21972D01*
X268191Y22026D01*
X268183Y22082D01*
X268148Y22161D01*
X268122Y22243D01*
X268090Y22290D01*
X268067Y22342D01*
X268012Y22407D01*
X267964Y22479D01*
X267920Y22515D01*
X267884Y22559D01*
X267812Y22606D01*
X267746Y22662D01*
X267694Y22685D01*
X267647Y22716D01*
X267565Y22742D01*
X267486Y22777D01*
X267430Y22785D01*
X267376Y22802D01*
X267290Y22804D01*
X267205Y22816D01*
X267149Y22808D01*
X267092Y22809D01*
X267009Y22788D01*
X266924Y22775D01*
X266872Y22752D01*
X266817Y22738D01*
X266743Y22694D01*
X266664Y22658D01*
X266621Y22621D01*
X266572Y22592D01*
X266513Y22530D01*
X266448Y22474D01*
X266422Y22432D01*
X266378Y22385D01*
X266312Y22256D01*
X266270Y22189D01*
X264652Y18283D01*
X261117Y14748D01*
X256499Y12835D01*
X251501Y12835D01*
X246883Y14748D01*
X243348Y18283D01*
X241435Y22901D01*
X241435Y25882D01*
X241423Y25968D01*
X241420Y26056D01*
X241403Y26108D01*
X241395Y26163D01*
X241360Y26243D01*
X241333Y26326D01*
X241305Y26365D01*
X241279Y26423D01*
X241183Y26536D01*
X241138Y26600D01*
X227649Y40088D01*
X227580Y40140D01*
X227516Y40200D01*
X227466Y40226D01*
X227422Y40259D01*
X227341Y40290D01*
X227263Y40330D01*
X227215Y40338D01*
X227157Y40360D01*
X227009Y40372D01*
X226932Y40385D01*
X172171Y40385D01*
X168810Y41777D01*
X166095Y44493D01*
X155513Y55074D01*
X155444Y55126D01*
X155380Y55186D01*
X155330Y55212D01*
X155286Y55245D01*
X155205Y55276D01*
X155127Y55316D01*
X155079Y55324D01*
X155021Y55346D01*
X154873Y55358D01*
X154796Y55371D01*
X153061Y55371D01*
X146811Y61621D01*
X146811Y70459D01*
X153061Y76709D01*
X161899Y76709D01*
X168149Y70459D01*
X168149Y68724D01*
X168161Y68638D01*
X168164Y68550D01*
X168181Y68498D01*
X168189Y68443D01*
X168224Y68363D01*
X168251Y68280D01*
X168279Y68241D01*
X168305Y68183D01*
X168401Y68070D01*
X168446Y68007D01*
X177481Y58972D01*
X177550Y58920D01*
X177614Y58860D01*
X177664Y58834D01*
X177708Y58801D01*
X177789Y58770D01*
X177867Y58730D01*
X177915Y58722D01*
X177973Y58700D01*
X178121Y58688D01*
X178198Y58675D01*
X179942Y58675D01*
X179971Y58679D01*
X180000Y58676D01*
X180111Y58699D01*
X180223Y58715D01*
X180250Y58727D01*
X180279Y58732D01*
X180379Y58785D01*
X180483Y58831D01*
X180505Y58850D01*
X180531Y58863D01*
X180613Y58941D01*
X180700Y59014D01*
X180716Y59039D01*
X180737Y59059D01*
X180794Y59157D01*
X180857Y59251D01*
X180866Y59279D01*
X180881Y59304D01*
X180909Y59414D01*
X180943Y59522D01*
X180944Y59552D01*
X180951Y59580D01*
X180947Y59693D01*
X180950Y59806D01*
X180943Y59835D01*
X180942Y59864D01*
X180907Y59972D01*
X180878Y60081D01*
X180863Y60107D01*
X180854Y60135D01*
X180809Y60198D01*
X180733Y60326D01*
X180688Y60369D01*
X180660Y60408D01*
X178815Y62252D01*
X178815Y64009D01*
X186944Y64009D01*
X187002Y64017D01*
X187060Y64015D01*
X187142Y64037D01*
X187225Y64049D01*
X187279Y64073D01*
X187335Y64087D01*
X187408Y64130D01*
X187485Y64165D01*
X187529Y64203D01*
X187580Y64233D01*
X187637Y64294D01*
X187702Y64349D01*
X187734Y64397D01*
X187774Y64440D01*
X187813Y64515D01*
X187859Y64585D01*
X187877Y64641D01*
X187904Y64693D01*
X187915Y64761D01*
X187945Y64856D01*
X187948Y64956D01*
X187959Y65024D01*
X187959Y66041D01*
X187961Y66041D01*
X187961Y65024D01*
X187969Y64966D01*
X187968Y64908D01*
X187989Y64826D01*
X188001Y64743D01*
X188025Y64689D01*
X188039Y64633D01*
X188082Y64560D01*
X188117Y64483D01*
X188155Y64438D01*
X188185Y64388D01*
X188246Y64330D01*
X188301Y64266D01*
X188349Y64234D01*
X188392Y64194D01*
X188467Y64155D01*
X188537Y64109D01*
X188593Y64091D01*
X188645Y64064D01*
X188713Y64053D01*
X188808Y64023D01*
X188908Y64020D01*
X188976Y64009D01*
X197105Y64009D01*
X197105Y62252D01*
X195260Y60408D01*
X195243Y60384D01*
X195220Y60365D01*
X195158Y60271D01*
X195090Y60181D01*
X195079Y60153D01*
X195063Y60129D01*
X195029Y60021D01*
X194988Y59915D01*
X194986Y59886D01*
X194977Y59858D01*
X194974Y59744D01*
X194965Y59632D01*
X194971Y59603D01*
X194970Y59574D01*
X194998Y59464D01*
X195021Y59353D01*
X195034Y59327D01*
X195042Y59299D01*
X195099Y59201D01*
X195152Y59101D01*
X195172Y59079D01*
X195187Y59054D01*
X195269Y58977D01*
X195347Y58895D01*
X195373Y58880D01*
X195394Y58860D01*
X195495Y58808D01*
X195593Y58751D01*
X195621Y58744D01*
X195647Y58730D01*
X195725Y58717D01*
X195868Y58681D01*
X195931Y58683D01*
X195978Y58675D01*
X220355Y58675D01*
X220357Y58675D01*
X220359Y58675D01*
X220499Y58695D01*
X220637Y58715D01*
X220638Y58715D01*
X220640Y58715D01*
X220766Y58772D01*
X220896Y58831D01*
X220898Y58832D01*
X220899Y58833D01*
X221006Y58924D01*
X221113Y59014D01*
X221114Y59016D01*
X221115Y59017D01*
X221124Y59030D01*
X221271Y59251D01*
X221280Y59280D01*
X221293Y59301D01*
X222181Y61445D01*
X225575Y64839D01*
X230010Y66676D01*
X234810Y66676D01*
X239245Y64839D01*
X242639Y61445D01*
X244476Y57010D01*
X244476Y52210D01*
X243832Y50657D01*
X243832Y50655D01*
X243831Y50654D01*
X243797Y50521D01*
X243761Y50381D01*
X243761Y50380D01*
X243761Y50378D01*
X243765Y50237D01*
X243770Y50097D01*
X243770Y50096D01*
X243770Y50094D01*
X243813Y49960D01*
X243856Y49826D01*
X243857Y49825D01*
X243858Y49824D01*
X243866Y49811D01*
X244014Y49590D01*
X244038Y49571D01*
X244052Y49550D01*
X255341Y38262D01*
X255410Y38210D01*
X255474Y38150D01*
X255524Y38124D01*
X255568Y38091D01*
X255649Y38060D01*
X255727Y38020D01*
X255775Y38012D01*
X255833Y37990D01*
X255981Y37978D01*
X256058Y37965D01*
X256499Y37965D01*
X261117Y36052D01*
X264652Y32517D01*
X266270Y28611D01*
X266314Y28537D01*
X266349Y28458D01*
X266386Y28415D01*
X266415Y28366D01*
X266477Y28307D01*
X266533Y28241D01*
X266580Y28210D01*
X266621Y28171D01*
X266698Y28131D01*
X266769Y28084D01*
X266823Y28066D01*
X266874Y28040D01*
X266958Y28024D01*
X267040Y27998D01*
X267097Y27996D01*
X267153Y27985D01*
X267238Y27993D01*
X267324Y27991D01*
X267379Y28005D01*
X267436Y28010D01*
X267516Y28041D01*
X267599Y28062D01*
X267648Y28091D01*
X267701Y28112D01*
X267770Y28164D01*
X267844Y28208D01*
X267883Y28249D01*
X267928Y28284D01*
X267980Y28352D01*
X268038Y28415D01*
X268064Y28466D01*
X268098Y28511D01*
X268129Y28592D01*
X268168Y28668D01*
X268176Y28717D01*
X268199Y28777D01*
X268210Y28922D01*
X268223Y28999D01*
X268223Y31179D01*
X269925Y35287D01*
X273069Y38431D01*
X276528Y39864D01*
X276627Y39922D01*
X276728Y39975D01*
X276749Y39994D01*
X276773Y40008D01*
X276851Y40092D01*
X276935Y40171D01*
X276949Y40195D01*
X276968Y40215D01*
X277020Y40317D01*
X277078Y40416D01*
X277085Y40443D01*
X277098Y40468D01*
X277120Y40581D01*
X277148Y40692D01*
X277148Y40719D01*
X277153Y40747D01*
X277143Y40861D01*
X277139Y40976D01*
X277131Y41002D01*
X277128Y41030D01*
X277087Y41137D01*
X277052Y41246D01*
X277037Y41267D01*
X277026Y41295D01*
X276866Y41507D01*
X276857Y41520D01*
X243560Y74816D01*
X243514Y74851D01*
X243473Y74894D01*
X243400Y74937D01*
X243333Y74987D01*
X243279Y75008D01*
X243228Y75038D01*
X243146Y75058D01*
X243068Y75088D01*
X243009Y75093D01*
X242953Y75108D01*
X242868Y75105D01*
X242784Y75112D01*
X242727Y75101D01*
X242668Y75099D01*
X242588Y75073D01*
X242506Y75056D01*
X242454Y75029D01*
X242398Y75011D01*
X242342Y74971D01*
X242253Y74925D01*
X242181Y74856D01*
X242125Y74816D01*
X236777Y69468D01*
X234441Y69468D01*
X234441Y78994D01*
X234433Y79052D01*
X234435Y79110D01*
X234413Y79192D01*
X234401Y79275D01*
X234377Y79329D01*
X234363Y79385D01*
X234320Y79458D01*
X234285Y79535D01*
X234247Y79579D01*
X234217Y79630D01*
X234156Y79687D01*
X234101Y79752D01*
X234053Y79784D01*
X234010Y79824D01*
X233935Y79863D01*
X233865Y79909D01*
X233809Y79927D01*
X233757Y79954D01*
X233689Y79965D01*
X233594Y79995D01*
X233494Y79998D01*
X233426Y80009D01*
X232409Y80009D01*
X232409Y80011D01*
X233426Y80011D01*
X233484Y80019D01*
X233542Y80018D01*
X233624Y80039D01*
X233707Y80051D01*
X233761Y80075D01*
X233817Y80089D01*
X233890Y80132D01*
X233967Y80167D01*
X234012Y80205D01*
X234062Y80235D01*
X234120Y80296D01*
X234184Y80351D01*
X234216Y80399D01*
X234256Y80442D01*
X234295Y80517D01*
X234341Y80587D01*
X234359Y80643D01*
X234386Y80695D01*
X234397Y80763D01*
X234427Y80858D01*
X234430Y80958D01*
X234441Y81026D01*
X234441Y90026D01*
X234429Y90112D01*
X234426Y90200D01*
X234409Y90252D01*
X234401Y90307D01*
X234366Y90387D01*
X234339Y90470D01*
X234311Y90509D01*
X234285Y90567D01*
X234189Y90680D01*
X234144Y90744D01*
X224657Y100230D01*
X223265Y103591D01*
X223265Y105961D01*
X223253Y106047D01*
X223250Y106135D01*
X223233Y106187D01*
X223225Y106242D01*
X223190Y106322D01*
X223163Y106405D01*
X223135Y106445D01*
X223109Y106502D01*
X223013Y106615D01*
X222968Y106679D01*
X222181Y107465D01*
X220344Y111900D01*
X220344Y116700D01*
X222181Y121135D01*
X225575Y124529D01*
X230010Y126366D01*
X234810Y126366D01*
X239006Y124627D01*
X239118Y124599D01*
X239227Y124564D01*
X239255Y124563D01*
X239282Y124557D01*
X239396Y124560D01*
X239511Y124557D01*
X239538Y124564D01*
X239566Y124565D01*
X239675Y124600D01*
X239786Y124629D01*
X239810Y124643D01*
X239837Y124651D01*
X239932Y124715D01*
X240031Y124774D01*
X240050Y124794D01*
X240073Y124810D01*
X240147Y124897D01*
X240225Y124981D01*
X240238Y125006D01*
X240256Y125027D01*
X240302Y125132D01*
X240355Y125234D01*
X240359Y125259D01*
X240371Y125287D01*
X240408Y125551D01*
X240410Y125565D01*
X240410Y130341D01*
X240406Y130370D01*
X240409Y130399D01*
X240386Y130510D01*
X240370Y130623D01*
X240358Y130649D01*
X240353Y130678D01*
X240300Y130779D01*
X240254Y130882D01*
X240235Y130904D01*
X240222Y130930D01*
X240144Y131013D01*
X240071Y131099D01*
X240046Y131115D01*
X240026Y131136D01*
X239928Y131194D01*
X239834Y131257D01*
X239806Y131265D01*
X239781Y131280D01*
X239671Y131308D01*
X239563Y131342D01*
X239533Y131343D01*
X239505Y131350D01*
X239392Y131347D01*
X239279Y131350D01*
X239250Y131342D01*
X239221Y131341D01*
X239113Y131306D01*
X239004Y131278D01*
X238978Y131263D01*
X238950Y131254D01*
X238887Y131208D01*
X238759Y131133D01*
X238716Y131087D01*
X238677Y131059D01*
X236777Y129158D01*
X234441Y129158D01*
X234441Y138684D01*
X234433Y138742D01*
X234435Y138800D01*
X234413Y138882D01*
X234401Y138965D01*
X234377Y139019D01*
X234363Y139075D01*
X234320Y139148D01*
X234285Y139225D01*
X234247Y139269D01*
X234217Y139320D01*
X234156Y139377D01*
X234101Y139442D01*
X234053Y139474D01*
X234010Y139514D01*
X233935Y139553D01*
X233865Y139599D01*
X233809Y139617D01*
X233757Y139644D01*
X233689Y139655D01*
X233594Y139685D01*
X233494Y139688D01*
X233426Y139699D01*
X232409Y139699D01*
X232409Y139701D01*
X233426Y139701D01*
X233484Y139709D01*
X233542Y139708D01*
X233624Y139729D01*
X233707Y139741D01*
X233761Y139765D01*
X233817Y139779D01*
X233890Y139822D01*
X233967Y139857D01*
X234012Y139895D01*
X234062Y139925D01*
X234120Y139986D01*
X234184Y140041D01*
X234216Y140089D01*
X234256Y140132D01*
X234295Y140207D01*
X234341Y140277D01*
X234359Y140333D01*
X234386Y140385D01*
X234397Y140453D01*
X234427Y140548D01*
X234430Y140648D01*
X234441Y140716D01*
X234441Y149716D01*
X234429Y149802D01*
X234426Y149890D01*
X234409Y149942D01*
X234401Y149997D01*
X234366Y150077D01*
X234339Y150160D01*
X234311Y150199D01*
X234285Y150257D01*
X234189Y150370D01*
X234144Y150434D01*
X227373Y157205D01*
X224657Y159920D01*
X223265Y163281D01*
X223265Y163830D01*
X223257Y163888D01*
X223259Y163946D01*
X223237Y164028D01*
X223225Y164112D01*
X223202Y164165D01*
X223187Y164221D01*
X223144Y164294D01*
X223109Y164371D01*
X223071Y164416D01*
X223042Y164466D01*
X222980Y164524D01*
X222926Y164588D01*
X222877Y164620D01*
X222834Y164660D01*
X222759Y164699D01*
X222689Y164746D01*
X222633Y164763D01*
X222581Y164790D01*
X222513Y164801D01*
X222418Y164831D01*
X222318Y164834D01*
X222250Y164845D01*
X217891Y164845D01*
X214530Y166237D01*
X211815Y168953D01*
X148038Y232730D01*
X148014Y232747D01*
X147995Y232770D01*
X147901Y232832D01*
X147811Y232900D01*
X147783Y232911D01*
X147759Y232927D01*
X147651Y232961D01*
X147545Y233002D01*
X147516Y233004D01*
X147488Y233013D01*
X147374Y233016D01*
X147262Y233025D01*
X147233Y233019D01*
X147204Y233020D01*
X147094Y232992D01*
X146983Y232969D01*
X146957Y232956D01*
X146929Y232948D01*
X146831Y232891D01*
X146731Y232838D01*
X146709Y232818D01*
X146684Y232803D01*
X146607Y232721D01*
X146525Y232643D01*
X146510Y232617D01*
X146490Y232596D01*
X146438Y232495D01*
X146381Y232397D01*
X146374Y232369D01*
X146360Y232343D01*
X146347Y232265D01*
X146311Y232122D01*
X146313Y232059D01*
X146305Y232012D01*
X146305Y228840D01*
X139460Y221995D01*
X129780Y221995D01*
X122935Y228840D01*
X122935Y238520D01*
X129780Y245365D01*
X132952Y245365D01*
X132981Y245369D01*
X133010Y245366D01*
X133121Y245389D01*
X133233Y245405D01*
X133260Y245417D01*
X133289Y245422D01*
X133389Y245474D01*
X133493Y245521D01*
X133515Y245540D01*
X133541Y245553D01*
X133623Y245631D01*
X133710Y245704D01*
X133726Y245729D01*
X133747Y245749D01*
X133804Y245847D01*
X133867Y245941D01*
X133876Y245969D01*
X133891Y245994D01*
X133919Y246104D01*
X133953Y246212D01*
X133954Y246242D01*
X133961Y246270D01*
X133957Y246383D01*
X133960Y246496D01*
X133953Y246525D01*
X133952Y246554D01*
X133917Y246662D01*
X133888Y246771D01*
X133873Y246797D01*
X133864Y246825D01*
X133819Y246888D01*
X133743Y247016D01*
X133697Y247059D01*
X133670Y247098D01*
X123102Y257665D01*
X123101Y257666D01*
X123100Y257667D01*
X122986Y257753D01*
X122875Y257836D01*
X122874Y257837D01*
X122872Y257838D01*
X122739Y257888D01*
X122609Y257937D01*
X122608Y257937D01*
X122606Y257938D01*
X122462Y257950D01*
X122326Y257961D01*
X122325Y257961D01*
X122323Y257961D01*
X122307Y257957D01*
X122047Y257905D01*
X122020Y257891D01*
X121996Y257885D01*
X121199Y257555D01*
X108671Y257555D01*
X105310Y258947D01*
X102737Y261520D01*
X101345Y264881D01*
X101345Y268519D01*
X102535Y271391D01*
X102557Y271476D01*
X102588Y271558D01*
X102592Y271613D01*
X102606Y271667D01*
X102604Y271754D01*
X102611Y271841D01*
X102600Y271889D01*
X102598Y271951D01*
X102553Y272092D01*
X102535Y272169D01*
X101345Y275041D01*
X101345Y278679D01*
X102737Y282040D01*
X105310Y284613D01*
X108671Y286005D01*
X121199Y286005D01*
X124560Y284613D01*
X127133Y282040D01*
X128525Y278679D01*
X128525Y278528D01*
X128537Y278442D01*
X128540Y278354D01*
X128557Y278302D01*
X128565Y278247D01*
X128600Y278167D01*
X128627Y278084D01*
X128655Y278045D01*
X128681Y277988D01*
X128777Y277874D01*
X128822Y277811D01*
X169462Y237170D01*
X169486Y237153D01*
X169505Y237130D01*
X169599Y237068D01*
X169689Y237000D01*
X169717Y236989D01*
X169741Y236973D01*
X169849Y236939D01*
X169955Y236898D01*
X169984Y236896D01*
X170012Y236887D01*
X170126Y236884D01*
X170238Y236875D01*
X170267Y236881D01*
X170296Y236880D01*
X170406Y236908D01*
X170517Y236931D01*
X170543Y236944D01*
X170571Y236952D01*
X170669Y237009D01*
X170769Y237062D01*
X170791Y237082D01*
X170816Y237097D01*
X170893Y237179D01*
X170975Y237257D01*
X170990Y237283D01*
X171010Y237304D01*
X171062Y237405D01*
X171119Y237503D01*
X171126Y237531D01*
X171140Y237557D01*
X171153Y237635D01*
X171189Y237778D01*
X171187Y237841D01*
X171195Y237888D01*
X171195Y238520D01*
X178040Y245365D01*
X187720Y245365D01*
X194565Y238520D01*
X194565Y234964D01*
X194569Y234935D01*
X194566Y234905D01*
X194589Y234794D01*
X194605Y234682D01*
X194617Y234655D01*
X194622Y234627D01*
X194674Y234526D01*
X194721Y234423D01*
X194740Y234400D01*
X194753Y234374D01*
X194831Y234292D01*
X194904Y234206D01*
X194929Y234189D01*
X194949Y234168D01*
X195047Y234111D01*
X195141Y234048D01*
X195169Y234039D01*
X195194Y234024D01*
X195304Y233997D01*
X195412Y233962D01*
X195442Y233962D01*
X195470Y233954D01*
X195583Y233958D01*
X195696Y233955D01*
X195725Y233962D01*
X195754Y233963D01*
X195862Y233998D01*
X195971Y234027D01*
X195997Y234042D01*
X196025Y234051D01*
X196088Y234096D01*
X196216Y234172D01*
X196259Y234218D01*
X196298Y234246D01*
X201321Y239269D01*
X210159Y239269D01*
X216409Y233019D01*
X216409Y224181D01*
X210159Y217931D01*
X201321Y217931D01*
X195071Y224181D01*
X195071Y226896D01*
X195067Y226925D01*
X195070Y226954D01*
X195047Y227065D01*
X195031Y227177D01*
X195019Y227204D01*
X195014Y227233D01*
X194962Y227333D01*
X194915Y227436D01*
X194896Y227459D01*
X194883Y227485D01*
X194805Y227567D01*
X194732Y227653D01*
X194707Y227670D01*
X194687Y227691D01*
X194589Y227748D01*
X194495Y227811D01*
X194467Y227820D01*
X194442Y227835D01*
X194332Y227863D01*
X194224Y227897D01*
X194194Y227898D01*
X194166Y227905D01*
X194053Y227901D01*
X193940Y227904D01*
X193911Y227897D01*
X193882Y227896D01*
X193774Y227861D01*
X193665Y227832D01*
X193639Y227817D01*
X193611Y227808D01*
X193548Y227763D01*
X193420Y227687D01*
X193377Y227641D01*
X193338Y227613D01*
X187720Y221995D01*
X187088Y221995D01*
X187059Y221991D01*
X187030Y221994D01*
X186919Y221971D01*
X186807Y221955D01*
X186780Y221943D01*
X186751Y221938D01*
X186651Y221886D01*
X186547Y221839D01*
X186525Y221820D01*
X186499Y221807D01*
X186417Y221729D01*
X186330Y221656D01*
X186314Y221631D01*
X186293Y221611D01*
X186236Y221513D01*
X186173Y221419D01*
X186164Y221391D01*
X186149Y221366D01*
X186121Y221256D01*
X186087Y221148D01*
X186086Y221118D01*
X186079Y221090D01*
X186083Y220977D01*
X186080Y220864D01*
X186087Y220835D01*
X186088Y220806D01*
X186123Y220698D01*
X186152Y220589D01*
X186167Y220563D01*
X186176Y220535D01*
X186221Y220472D01*
X186297Y220344D01*
X186343Y220301D01*
X186370Y220262D01*
X223201Y183432D01*
X223270Y183380D01*
X223334Y183320D01*
X223384Y183294D01*
X223428Y183261D01*
X223509Y183230D01*
X223587Y183190D01*
X223635Y183182D01*
X223693Y183160D01*
X223841Y183148D01*
X223918Y183135D01*
X224071Y183135D01*
X224157Y183147D01*
X224245Y183150D01*
X224297Y183167D01*
X224352Y183175D01*
X224432Y183210D01*
X224515Y183237D01*
X224554Y183265D01*
X224612Y183291D01*
X224725Y183387D01*
X224789Y183432D01*
X225575Y184219D01*
X230010Y186056D01*
X234810Y186056D01*
X239245Y184219D01*
X242639Y180825D01*
X244476Y176390D01*
X244476Y171590D01*
X243088Y168241D01*
X243088Y168239D01*
X243087Y168238D01*
X243053Y168103D01*
X243017Y167965D01*
X243017Y167964D01*
X243017Y167962D01*
X243022Y167822D01*
X243026Y167681D01*
X243026Y167680D01*
X243026Y167678D01*
X243069Y167545D01*
X243112Y167410D01*
X243113Y167409D01*
X243114Y167408D01*
X243122Y167395D01*
X243271Y167174D01*
X243294Y167154D01*
X243308Y167134D01*
X254592Y155850D01*
X257308Y153135D01*
X258700Y149774D01*
X258700Y111523D01*
X258712Y111437D01*
X258715Y111349D01*
X258732Y111297D01*
X258740Y111242D01*
X258775Y111162D01*
X258802Y111079D01*
X258830Y111040D01*
X258856Y110983D01*
X258952Y110869D01*
X258997Y110806D01*
X269373Y100430D01*
X270765Y97069D01*
X270765Y93269D01*
X270777Y93182D01*
X270780Y93095D01*
X270797Y93042D01*
X270805Y92988D01*
X270840Y92908D01*
X270867Y92825D01*
X270895Y92785D01*
X270921Y92728D01*
X271017Y92615D01*
X271062Y92551D01*
X310229Y53384D01*
X310299Y53332D01*
X310363Y53272D01*
X310412Y53246D01*
X310456Y53213D01*
X310538Y53182D01*
X310616Y53142D01*
X310664Y53134D01*
X310722Y53112D01*
X310870Y53100D01*
X310947Y53087D01*
X350307Y53087D01*
X353668Y51695D01*
X360470Y44892D01*
X360494Y44875D01*
X360513Y44852D01*
X360607Y44790D01*
X360697Y44722D01*
X360725Y44711D01*
X360749Y44695D01*
X360857Y44661D01*
X360963Y44620D01*
X360992Y44618D01*
X361020Y44609D01*
X361134Y44606D01*
X361246Y44597D01*
X361275Y44603D01*
X361304Y44602D01*
X361414Y44630D01*
X361525Y44653D01*
X361551Y44666D01*
X361579Y44674D01*
X361677Y44731D01*
X361777Y44784D01*
X361799Y44804D01*
X361824Y44819D01*
X361901Y44901D01*
X361983Y44979D01*
X361998Y45005D01*
X362018Y45026D01*
X362070Y45127D01*
X362127Y45225D01*
X362134Y45253D01*
X362148Y45279D01*
X362161Y45357D01*
X362197Y45500D01*
X362195Y45563D01*
X362203Y45610D01*
X362203Y66381D01*
X363131Y68622D01*
X374307Y79797D01*
X374376Y79889D01*
X374450Y79977D01*
X374461Y80002D01*
X374478Y80025D01*
X374518Y80132D01*
X374565Y80237D01*
X374569Y80264D01*
X374579Y80290D01*
X374588Y80405D01*
X374604Y80518D01*
X374600Y80546D01*
X374602Y80573D01*
X374580Y80686D01*
X374563Y80800D01*
X374552Y80825D01*
X374547Y80852D01*
X374494Y80954D01*
X374446Y81059D01*
X374428Y81080D01*
X374416Y81105D01*
X374337Y81188D01*
X374262Y81275D01*
X374241Y81288D01*
X374220Y81311D01*
X373990Y81445D01*
X373977Y81453D01*
X372129Y82219D01*
X368985Y85363D01*
X367283Y89471D01*
X367283Y101029D01*
X368985Y105137D01*
X370796Y106948D01*
X370848Y107018D01*
X370908Y107082D01*
X370934Y107131D01*
X370967Y107175D01*
X370998Y107257D01*
X371038Y107335D01*
X371046Y107382D01*
X371068Y107441D01*
X371080Y107589D01*
X371093Y107666D01*
X371093Y135040D01*
X371089Y135070D01*
X371091Y135101D01*
X371074Y135178D01*
X371053Y135321D01*
X371027Y135380D01*
X371016Y135428D01*
X369851Y138240D01*
X369851Y141160D01*
X370969Y143857D01*
X373033Y145921D01*
X375730Y147039D01*
X378650Y147039D01*
X381347Y145921D01*
X383411Y143857D01*
X384529Y141160D01*
X384529Y138240D01*
X383878Y136669D01*
X383856Y136585D01*
X383826Y136505D01*
X383821Y136448D01*
X383807Y136393D01*
X383809Y136307D01*
X383802Y136222D01*
X383813Y136166D01*
X383815Y136109D01*
X383841Y136027D01*
X383858Y135943D01*
X383884Y135893D01*
X383902Y135838D01*
X383949Y135767D01*
X383989Y135691D01*
X384028Y135649D01*
X384060Y135602D01*
X384126Y135547D01*
X384185Y135485D01*
X384234Y135456D01*
X384277Y135419D01*
X384356Y135384D01*
X384430Y135341D01*
X384485Y135327D01*
X384537Y135304D01*
X384622Y135292D01*
X384706Y135271D01*
X384762Y135273D01*
X384819Y135265D01*
X384904Y135277D01*
X384990Y135280D01*
X385044Y135297D01*
X385100Y135305D01*
X385178Y135341D01*
X385260Y135367D01*
X385300Y135396D01*
X385359Y135423D01*
X385470Y135517D01*
X385534Y135562D01*
X387003Y137031D01*
X389700Y138149D01*
X392620Y138149D01*
X395317Y137031D01*
X397381Y134967D01*
X398499Y132270D01*
X398499Y129350D01*
X397334Y126538D01*
X397326Y126508D01*
X397312Y126481D01*
X397301Y126412D01*
X397271Y126317D01*
X397270Y126290D01*
X397263Y126263D01*
X397265Y126199D01*
X397257Y126150D01*
X397257Y109688D01*
X397273Y109574D01*
X397283Y109460D01*
X397293Y109434D01*
X397297Y109406D01*
X397344Y109301D01*
X397385Y109194D01*
X397401Y109172D01*
X397413Y109147D01*
X397487Y109059D01*
X397556Y108968D01*
X397579Y108951D01*
X397596Y108930D01*
X397692Y108866D01*
X397784Y108798D01*
X397810Y108788D01*
X397833Y108772D01*
X397943Y108738D01*
X398050Y108697D01*
X398078Y108695D01*
X398104Y108687D01*
X398219Y108684D01*
X398333Y108674D01*
X398358Y108680D01*
X398388Y108679D01*
X398645Y108746D01*
X398661Y108750D01*
X401637Y109983D01*
X406083Y109983D01*
X410191Y108281D01*
X413335Y105137D01*
X415037Y101029D01*
X415037Y89471D01*
X413335Y85363D01*
X412510Y84538D01*
X412492Y84514D01*
X412470Y84495D01*
X412407Y84401D01*
X412339Y84311D01*
X412329Y84283D01*
X412313Y84259D01*
X412278Y84151D01*
X412238Y84045D01*
X412236Y84016D01*
X412227Y83988D01*
X412224Y83874D01*
X412214Y83762D01*
X412220Y83733D01*
X412219Y83704D01*
X412248Y83594D01*
X412270Y83483D01*
X412284Y83457D01*
X412291Y83429D01*
X412349Y83331D01*
X412401Y83231D01*
X412422Y83209D01*
X412437Y83184D01*
X412519Y83107D01*
X412597Y83025D01*
X412622Y83010D01*
X412644Y82990D01*
X412745Y82938D01*
X412842Y82881D01*
X412871Y82874D01*
X412897Y82860D01*
X412974Y82847D01*
X413118Y82811D01*
X413180Y82813D01*
X413228Y82805D01*
X419100Y82805D01*
X419158Y82813D01*
X419216Y82811D01*
X419298Y82833D01*
X419382Y82845D01*
X419435Y82868D01*
X419491Y82883D01*
X419564Y82926D01*
X419641Y82961D01*
X419686Y82999D01*
X419736Y83028D01*
X419794Y83090D01*
X419858Y83144D01*
X419890Y83193D01*
X419930Y83236D01*
X419969Y83311D01*
X420016Y83381D01*
X420033Y83437D01*
X420060Y83489D01*
X420071Y83557D01*
X420101Y83652D01*
X420104Y83752D01*
X420115Y83820D01*
X420115Y84612D01*
X420103Y84698D01*
X420100Y84786D01*
X420083Y84839D01*
X420075Y84893D01*
X420040Y84973D01*
X420013Y85057D01*
X419985Y85096D01*
X419959Y85153D01*
X419863Y85266D01*
X419818Y85330D01*
X419785Y85363D01*
X418083Y89471D01*
X418083Y101029D01*
X419785Y105137D01*
X419818Y105170D01*
X419870Y105240D01*
X419930Y105304D01*
X419956Y105353D01*
X419989Y105397D01*
X420020Y105479D01*
X420060Y105557D01*
X420068Y105605D01*
X420090Y105663D01*
X420102Y105811D01*
X420115Y105888D01*
X420115Y111039D01*
X421507Y114400D01*
X424223Y117115D01*
X469544Y162437D01*
X469545Y162438D01*
X469547Y162439D01*
X469635Y162558D01*
X469715Y162664D01*
X469716Y162666D01*
X469717Y162667D01*
X469766Y162798D01*
X469817Y162930D01*
X469817Y162931D01*
X469817Y162933D01*
X469829Y163074D01*
X469840Y163213D01*
X469840Y163215D01*
X469840Y163216D01*
X469836Y163232D01*
X469784Y163492D01*
X469770Y163519D01*
X469764Y163543D01*
X468883Y165671D01*
X468883Y177229D01*
X470585Y181337D01*
X473729Y184481D01*
X477837Y186183D01*
X482283Y186183D01*
X486391Y184481D01*
X489535Y181337D01*
X491237Y177229D01*
X491237Y165671D01*
X489535Y161563D01*
X489502Y161530D01*
X489450Y161460D01*
X489390Y161396D01*
X489364Y161347D01*
X489331Y161303D01*
X489300Y161221D01*
X489260Y161143D01*
X489252Y161095D01*
X489230Y161037D01*
X489218Y160889D01*
X489205Y160812D01*
X489205Y158242D01*
X489213Y158184D01*
X489211Y158126D01*
X489233Y158044D01*
X489245Y157960D01*
X489268Y157907D01*
X489283Y157851D01*
X489326Y157778D01*
X489361Y157701D01*
X489399Y157656D01*
X489428Y157606D01*
X489490Y157548D01*
X489544Y157484D01*
X489593Y157452D01*
X489636Y157412D01*
X489711Y157373D01*
X489781Y157326D01*
X489837Y157309D01*
X489889Y157282D01*
X489957Y157271D01*
X490052Y157241D01*
X490152Y157238D01*
X490220Y157227D01*
X497870Y157227D01*
X497899Y157231D01*
X497928Y157228D01*
X498039Y157251D01*
X498151Y157267D01*
X498178Y157279D01*
X498207Y157284D01*
X498308Y157337D01*
X498411Y157383D01*
X498433Y157402D01*
X498459Y157415D01*
X498541Y157493D01*
X498628Y157566D01*
X498644Y157591D01*
X498665Y157611D01*
X498723Y157709D01*
X498785Y157803D01*
X498794Y157831D01*
X498809Y157856D01*
X498837Y157966D01*
X498871Y158074D01*
X498872Y158104D01*
X498879Y158132D01*
X498876Y158245D01*
X498879Y158358D01*
X498871Y158387D01*
X498870Y158416D01*
X498835Y158524D01*
X498807Y158633D01*
X498792Y158659D01*
X498783Y158687D01*
X498737Y158750D01*
X498661Y158878D01*
X498616Y158921D01*
X498588Y158960D01*
X495985Y161563D01*
X494283Y165671D01*
X494283Y177229D01*
X495985Y181337D01*
X499129Y184481D01*
X501584Y185498D01*
X501658Y185542D01*
X501736Y185577D01*
X501780Y185614D01*
X501829Y185643D01*
X501888Y185705D01*
X501953Y185761D01*
X501985Y185808D01*
X502024Y185849D01*
X502063Y185926D01*
X502111Y185997D01*
X502128Y186051D01*
X502154Y186102D01*
X502171Y186186D01*
X502197Y186268D01*
X502198Y186325D01*
X502209Y186381D01*
X502202Y186466D01*
X502204Y186552D01*
X502190Y186607D01*
X502185Y186664D01*
X502154Y186744D01*
X502132Y186827D01*
X502103Y186876D01*
X502083Y186929D01*
X502031Y186998D01*
X501987Y187072D01*
X501945Y187111D01*
X501911Y187156D01*
X501842Y187208D01*
X501780Y187266D01*
X501729Y187292D01*
X501683Y187326D01*
X501603Y187357D01*
X501526Y187396D01*
X501478Y187404D01*
X501417Y187427D01*
X501273Y187438D01*
X501195Y187451D01*
X493421Y187451D01*
X488590Y192282D01*
X488543Y192317D01*
X488503Y192359D01*
X488431Y192402D01*
X488363Y192453D01*
X488308Y192474D01*
X488258Y192503D01*
X488176Y192524D01*
X488097Y192554D01*
X488039Y192559D01*
X487982Y192573D01*
X487898Y192571D01*
X487814Y192578D01*
X487757Y192566D01*
X487698Y192564D01*
X487618Y192538D01*
X487535Y192522D01*
X487483Y192495D01*
X487428Y192477D01*
X487372Y192437D01*
X487283Y192391D01*
X487211Y192322D01*
X487154Y192282D01*
X483848Y188975D01*
X482091Y188975D01*
X482091Y197104D01*
X482083Y197162D01*
X482085Y197220D01*
X482063Y197302D01*
X482051Y197385D01*
X482027Y197439D01*
X482013Y197495D01*
X481970Y197568D01*
X481935Y197645D01*
X481897Y197689D01*
X481867Y197740D01*
X481806Y197797D01*
X481751Y197862D01*
X481703Y197894D01*
X481660Y197934D01*
X481585Y197973D01*
X481515Y198019D01*
X481459Y198037D01*
X481407Y198064D01*
X481339Y198075D01*
X481244Y198105D01*
X481144Y198108D01*
X481076Y198119D01*
X480059Y198119D01*
X480059Y198121D01*
X481076Y198121D01*
X481134Y198129D01*
X481192Y198128D01*
X481274Y198149D01*
X481357Y198161D01*
X481411Y198185D01*
X481467Y198199D01*
X481540Y198242D01*
X481617Y198277D01*
X481662Y198315D01*
X481712Y198345D01*
X481770Y198406D01*
X481834Y198461D01*
X481866Y198509D01*
X481906Y198552D01*
X481945Y198627D01*
X481991Y198697D01*
X482009Y198753D01*
X482036Y198805D01*
X482047Y198873D01*
X482077Y198968D01*
X482080Y199068D01*
X482091Y199136D01*
X482091Y207265D01*
X483848Y207265D01*
X487154Y203958D01*
X487201Y203923D01*
X487241Y203881D01*
X487314Y203838D01*
X487382Y203787D01*
X487436Y203766D01*
X487487Y203737D01*
X487568Y203716D01*
X487647Y203686D01*
X487706Y203681D01*
X487762Y203667D01*
X487847Y203669D01*
X487931Y203662D01*
X487988Y203674D01*
X488046Y203676D01*
X488127Y203702D01*
X488209Y203718D01*
X488261Y203745D01*
X488317Y203763D01*
X488373Y203803D01*
X488462Y203849D01*
X488534Y203918D01*
X488590Y203958D01*
X493421Y208789D01*
X502259Y208789D01*
X508509Y202539D01*
X508509Y193701D01*
X502724Y187916D01*
X502706Y187892D01*
X502684Y187873D01*
X502621Y187779D01*
X502553Y187689D01*
X502542Y187661D01*
X502526Y187637D01*
X502492Y187529D01*
X502452Y187423D01*
X502449Y187394D01*
X502440Y187366D01*
X502437Y187252D01*
X502428Y187140D01*
X502434Y187111D01*
X502433Y187082D01*
X502462Y186972D01*
X502484Y186861D01*
X502497Y186835D01*
X502505Y186807D01*
X502563Y186709D01*
X502615Y186609D01*
X502635Y186587D01*
X502650Y186562D01*
X502733Y186485D01*
X502811Y186403D01*
X502836Y186388D01*
X502857Y186368D01*
X502958Y186316D01*
X503056Y186259D01*
X503084Y186252D01*
X503111Y186238D01*
X503188Y186225D01*
X503332Y186189D01*
X503394Y186191D01*
X503442Y186183D01*
X507683Y186183D01*
X509805Y185304D01*
X509807Y185303D01*
X509808Y185303D01*
X509941Y185269D01*
X510081Y185233D01*
X510082Y185233D01*
X510084Y185232D01*
X510224Y185237D01*
X510365Y185241D01*
X510366Y185241D01*
X510368Y185241D01*
X510501Y185284D01*
X510636Y185328D01*
X510637Y185328D01*
X510638Y185329D01*
X510650Y185338D01*
X510872Y185486D01*
X510891Y185509D01*
X510912Y185524D01*
X515389Y190001D01*
X516190Y190802D01*
X516225Y190849D01*
X516267Y190889D01*
X516310Y190962D01*
X516361Y191029D01*
X516381Y191084D01*
X516411Y191134D01*
X516432Y191216D01*
X516462Y191295D01*
X516467Y191353D01*
X516481Y191410D01*
X516478Y191494D01*
X516485Y191578D01*
X516474Y191635D01*
X516472Y191694D01*
X516446Y191774D01*
X516430Y191857D01*
X516403Y191909D01*
X516385Y191964D01*
X516345Y192021D01*
X516299Y192109D01*
X516230Y192181D01*
X516190Y192238D01*
X514095Y194332D01*
X514095Y196089D01*
X522224Y196089D01*
X522282Y196097D01*
X522340Y196095D01*
X522422Y196117D01*
X522505Y196129D01*
X522559Y196153D01*
X522615Y196167D01*
X522688Y196210D01*
X522765Y196245D01*
X522809Y196283D01*
X522860Y196313D01*
X522917Y196374D01*
X522982Y196429D01*
X523014Y196477D01*
X523054Y196520D01*
X523093Y196595D01*
X523139Y196665D01*
X523157Y196721D01*
X523184Y196773D01*
X523195Y196841D01*
X523225Y196936D01*
X523228Y197036D01*
X523239Y197104D01*
X523239Y199136D01*
X523231Y199194D01*
X523232Y199252D01*
X523211Y199334D01*
X523199Y199417D01*
X523175Y199471D01*
X523161Y199527D01*
X523118Y199600D01*
X523083Y199677D01*
X523045Y199722D01*
X523015Y199772D01*
X522954Y199830D01*
X522899Y199894D01*
X522851Y199926D01*
X522808Y199966D01*
X522733Y200005D01*
X522663Y200051D01*
X522607Y200069D01*
X522555Y200096D01*
X522487Y200107D01*
X522392Y200137D01*
X522292Y200140D01*
X522224Y200151D01*
X514095Y200151D01*
X514095Y201908D01*
X519452Y207265D01*
X521208Y207265D01*
X521266Y207273D01*
X521324Y207271D01*
X521406Y207293D01*
X521490Y207305D01*
X521543Y207328D01*
X521599Y207343D01*
X521672Y207386D01*
X521749Y207421D01*
X521794Y207459D01*
X521844Y207488D01*
X521902Y207550D01*
X521966Y207604D01*
X521998Y207653D01*
X522038Y207696D01*
X522077Y207771D01*
X522124Y207841D01*
X522141Y207897D01*
X522168Y207949D01*
X522179Y208017D01*
X522209Y208112D01*
X522212Y208212D01*
X522223Y208280D01*
X522223Y251054D01*
X522216Y251108D01*
X522217Y251142D01*
X522210Y251166D01*
X522208Y251228D01*
X522191Y251281D01*
X522183Y251336D01*
X522148Y251415D01*
X522121Y251499D01*
X522093Y251538D01*
X522067Y251595D01*
X521971Y251708D01*
X521926Y251772D01*
X507356Y266342D01*
X507331Y266360D01*
X507311Y266384D01*
X507245Y266426D01*
X507129Y266513D01*
X507069Y266536D01*
X507027Y266562D01*
X506383Y266829D01*
X504319Y268893D01*
X503201Y271590D01*
X503201Y274510D01*
X503698Y275709D01*
X503727Y275821D01*
X503762Y275930D01*
X503762Y275958D01*
X503769Y275985D01*
X503766Y276099D01*
X503769Y276214D01*
X503762Y276241D01*
X503761Y276269D01*
X503726Y276378D01*
X503697Y276489D01*
X503683Y276513D01*
X503674Y276540D01*
X503610Y276635D01*
X503552Y276734D01*
X503532Y276753D01*
X503516Y276776D01*
X503428Y276850D01*
X503344Y276928D01*
X503320Y276941D01*
X503299Y276959D01*
X503194Y277005D01*
X503091Y277058D01*
X503067Y277062D01*
X503039Y277074D01*
X502775Y277111D01*
X502760Y277113D01*
X301047Y277113D01*
X298806Y278041D01*
X296949Y279899D01*
X278340Y298508D01*
X278316Y298526D01*
X278297Y298548D01*
X278203Y298611D01*
X278113Y298679D01*
X278085Y298689D01*
X278061Y298706D01*
X277953Y298740D01*
X277847Y298780D01*
X277818Y298783D01*
X277790Y298791D01*
X277676Y298794D01*
X277564Y298804D01*
X277535Y298798D01*
X277506Y298799D01*
X277396Y298770D01*
X277285Y298748D01*
X277259Y298734D01*
X277231Y298727D01*
X277133Y298669D01*
X277033Y298617D01*
X277011Y298597D01*
X276986Y298582D01*
X276909Y298499D01*
X276827Y298421D01*
X276812Y298396D01*
X276792Y298374D01*
X276740Y298274D01*
X276683Y298176D01*
X276676Y298147D01*
X276662Y298121D01*
X276649Y298044D01*
X276613Y297900D01*
X276615Y297838D01*
X276607Y297790D01*
X276607Y293624D01*
X276614Y293573D01*
X276613Y293549D01*
X276614Y293546D01*
X276613Y293508D01*
X276635Y293426D01*
X276647Y293342D01*
X276670Y293289D01*
X276685Y293233D01*
X276728Y293160D01*
X276763Y293083D01*
X276801Y293038D01*
X276830Y292988D01*
X276892Y292930D01*
X276946Y292866D01*
X276995Y292834D01*
X277038Y292794D01*
X277113Y292755D01*
X277183Y292708D01*
X277239Y292691D01*
X277291Y292664D01*
X277359Y292653D01*
X277454Y292623D01*
X277554Y292620D01*
X277622Y292609D01*
X278739Y292609D01*
X284989Y286359D01*
X284989Y277521D01*
X278739Y271271D01*
X276352Y271271D01*
X276294Y271263D01*
X276236Y271265D01*
X276154Y271243D01*
X276070Y271231D01*
X276017Y271208D01*
X275961Y271193D01*
X275888Y271150D01*
X275811Y271115D01*
X275766Y271077D01*
X275716Y271048D01*
X275658Y270986D01*
X275594Y270932D01*
X275562Y270883D01*
X275522Y270840D01*
X275483Y270765D01*
X275436Y270695D01*
X275419Y270639D01*
X275392Y270587D01*
X275381Y270519D01*
X275351Y270424D01*
X275348Y270324D01*
X275337Y270256D01*
X275337Y266206D01*
X275341Y266177D01*
X275338Y266147D01*
X275361Y266036D01*
X275377Y265924D01*
X275389Y265897D01*
X275394Y265869D01*
X275447Y265768D01*
X275493Y265665D01*
X275512Y265642D01*
X275525Y265616D01*
X275603Y265534D01*
X275676Y265448D01*
X275701Y265431D01*
X275721Y265410D01*
X275819Y265353D01*
X275913Y265290D01*
X275941Y265281D01*
X275966Y265266D01*
X276076Y265239D01*
X276184Y265204D01*
X276214Y265204D01*
X276242Y265196D01*
X276355Y265200D01*
X276468Y265197D01*
X276497Y265204D01*
X276526Y265205D01*
X276634Y265240D01*
X276743Y265269D01*
X276769Y265284D01*
X276797Y265293D01*
X276861Y265338D01*
X276988Y265414D01*
X277031Y265460D01*
X277070Y265488D01*
X277521Y265939D01*
X286359Y265939D01*
X290112Y262186D01*
X290136Y262168D01*
X290155Y262146D01*
X290249Y262083D01*
X290339Y262015D01*
X290367Y262004D01*
X290391Y261988D01*
X290499Y261954D01*
X290605Y261914D01*
X290634Y261911D01*
X290662Y261902D01*
X290776Y261899D01*
X290888Y261890D01*
X290917Y261896D01*
X290946Y261895D01*
X291056Y261924D01*
X291167Y261946D01*
X291193Y261959D01*
X291221Y261967D01*
X291319Y262025D01*
X291419Y262077D01*
X291441Y262097D01*
X291466Y262112D01*
X291543Y262195D01*
X291625Y262273D01*
X291640Y262298D01*
X291660Y262319D01*
X291712Y262420D01*
X291769Y262518D01*
X291776Y262546D01*
X291790Y262573D01*
X291803Y262650D01*
X291839Y262794D01*
X291837Y262856D01*
X291838Y262861D01*
X297202Y268225D01*
X298959Y268225D01*
X298959Y260096D01*
X298966Y260048D01*
X298965Y260046D01*
X298966Y260043D01*
X298967Y260038D01*
X298965Y259980D01*
X298987Y259898D01*
X298999Y259815D01*
X299023Y259761D01*
X299037Y259705D01*
X299080Y259632D01*
X299115Y259555D01*
X299153Y259511D01*
X299183Y259460D01*
X299244Y259403D01*
X299299Y259338D01*
X299347Y259306D01*
X299390Y259266D01*
X299465Y259227D01*
X299535Y259181D01*
X299591Y259163D01*
X299643Y259136D01*
X299711Y259125D01*
X299806Y259095D01*
X299906Y259092D01*
X299974Y259081D01*
X300991Y259081D01*
X300991Y259079D01*
X299974Y259079D01*
X299916Y259071D01*
X299858Y259072D01*
X299776Y259051D01*
X299693Y259039D01*
X299639Y259015D01*
X299583Y259001D01*
X299510Y258958D01*
X299433Y258923D01*
X299388Y258885D01*
X299338Y258855D01*
X299280Y258794D01*
X299216Y258739D01*
X299184Y258691D01*
X299144Y258648D01*
X299105Y258573D01*
X299059Y258503D01*
X299041Y258447D01*
X299014Y258395D01*
X299003Y258327D01*
X298973Y258232D01*
X298970Y258132D01*
X298959Y258064D01*
X298959Y249935D01*
X297202Y249935D01*
X294342Y252796D01*
X294318Y252813D01*
X294299Y252836D01*
X294205Y252898D01*
X294115Y252966D01*
X294087Y252977D01*
X294063Y252993D01*
X293955Y253027D01*
X293849Y253068D01*
X293820Y253070D01*
X293792Y253079D01*
X293678Y253082D01*
X293566Y253091D01*
X293537Y253085D01*
X293508Y253086D01*
X293398Y253058D01*
X293287Y253035D01*
X293261Y253022D01*
X293233Y253014D01*
X293135Y252957D01*
X293035Y252904D01*
X293013Y252884D01*
X292988Y252869D01*
X292911Y252787D01*
X292829Y252709D01*
X292814Y252683D01*
X292794Y252662D01*
X292742Y252561D01*
X292685Y252463D01*
X292678Y252435D01*
X292664Y252409D01*
X292651Y252331D01*
X292615Y252188D01*
X292617Y252125D01*
X292609Y252078D01*
X292609Y250851D01*
X286359Y244601D01*
X277521Y244601D01*
X277070Y245052D01*
X277046Y245070D01*
X277027Y245092D01*
X276933Y245155D01*
X276843Y245223D01*
X276815Y245234D01*
X276791Y245250D01*
X276683Y245284D01*
X276577Y245324D01*
X276548Y245327D01*
X276520Y245336D01*
X276406Y245339D01*
X276294Y245348D01*
X276265Y245342D01*
X276236Y245343D01*
X276126Y245314D01*
X276015Y245292D01*
X275989Y245279D01*
X275961Y245271D01*
X275863Y245213D01*
X275763Y245161D01*
X275741Y245141D01*
X275716Y245126D01*
X275639Y245043D01*
X275557Y244965D01*
X275542Y244940D01*
X275522Y244919D01*
X275470Y244818D01*
X275413Y244720D01*
X275406Y244692D01*
X275392Y244665D01*
X275379Y244588D01*
X275343Y244445D01*
X275345Y244382D01*
X275337Y244334D01*
X275337Y239536D01*
X275341Y239507D01*
X275338Y239477D01*
X275361Y239366D01*
X275377Y239254D01*
X275389Y239227D01*
X275394Y239199D01*
X275447Y239098D01*
X275493Y238995D01*
X275512Y238972D01*
X275525Y238946D01*
X275603Y238864D01*
X275676Y238778D01*
X275701Y238761D01*
X275721Y238740D01*
X275819Y238683D01*
X275913Y238620D01*
X275941Y238611D01*
X275966Y238596D01*
X276076Y238569D01*
X276184Y238534D01*
X276214Y238534D01*
X276242Y238526D01*
X276355Y238530D01*
X276468Y238527D01*
X276497Y238534D01*
X276526Y238535D01*
X276634Y238570D01*
X276743Y238599D01*
X276769Y238614D01*
X276797Y238623D01*
X276861Y238668D01*
X276988Y238744D01*
X277031Y238790D01*
X277070Y238818D01*
X277521Y239269D01*
X286359Y239269D01*
X290634Y234994D01*
X290704Y234942D01*
X290767Y234882D01*
X290817Y234856D01*
X290861Y234823D01*
X290943Y234792D01*
X291021Y234752D01*
X291068Y234744D01*
X291127Y234722D01*
X291274Y234710D01*
X291352Y234697D01*
X309823Y234697D01*
X312064Y233769D01*
X324046Y221786D01*
X324116Y221734D01*
X324180Y221674D01*
X324229Y221648D01*
X324273Y221615D01*
X324355Y221584D01*
X324433Y221544D01*
X324480Y221536D01*
X324539Y221514D01*
X324687Y221502D01*
X324764Y221489D01*
X330809Y221489D01*
X337059Y215239D01*
X337059Y206401D01*
X330809Y200151D01*
X321971Y200151D01*
X315721Y206401D01*
X315721Y212446D01*
X315713Y212504D01*
X315715Y212562D01*
X315707Y212590D01*
X315706Y212620D01*
X315689Y212673D01*
X315681Y212728D01*
X315657Y212782D01*
X315643Y212837D01*
X315628Y212862D01*
X315619Y212891D01*
X315591Y212930D01*
X315565Y212987D01*
X315527Y213033D01*
X315498Y213082D01*
X315453Y213124D01*
X315424Y213164D01*
X306382Y222206D01*
X306312Y222258D01*
X306248Y222318D01*
X306199Y222344D01*
X306155Y222377D01*
X306073Y222408D01*
X305995Y222448D01*
X305948Y222456D01*
X305889Y222478D01*
X305741Y222490D01*
X305664Y222503D01*
X291352Y222503D01*
X291265Y222491D01*
X291178Y222488D01*
X291125Y222471D01*
X291070Y222463D01*
X290990Y222428D01*
X290907Y222401D01*
X290868Y222373D01*
X290811Y222347D01*
X290698Y222251D01*
X290634Y222206D01*
X286359Y217931D01*
X277521Y217931D01*
X277070Y218382D01*
X277046Y218400D01*
X277027Y218422D01*
X276933Y218485D01*
X276843Y218553D01*
X276815Y218564D01*
X276791Y218580D01*
X276683Y218614D01*
X276577Y218654D01*
X276548Y218657D01*
X276520Y218666D01*
X276406Y218669D01*
X276294Y218678D01*
X276265Y218672D01*
X276236Y218673D01*
X276126Y218644D01*
X276015Y218622D01*
X275989Y218609D01*
X275961Y218601D01*
X275863Y218543D01*
X275763Y218491D01*
X275741Y218471D01*
X275716Y218456D01*
X275639Y218373D01*
X275557Y218295D01*
X275542Y218270D01*
X275522Y218249D01*
X275470Y218148D01*
X275413Y218050D01*
X275406Y218022D01*
X275392Y217995D01*
X275379Y217918D01*
X275343Y217775D01*
X275345Y217712D01*
X275337Y217664D01*
X275337Y179476D01*
X275349Y179389D01*
X275352Y179302D01*
X275369Y179249D01*
X275377Y179194D01*
X275412Y179115D01*
X275439Y179031D01*
X275467Y178992D01*
X275493Y178935D01*
X275589Y178822D01*
X275634Y178758D01*
X289350Y165042D01*
X289374Y165024D01*
X289393Y165002D01*
X289487Y164939D01*
X289577Y164871D01*
X289605Y164861D01*
X289629Y164844D01*
X289737Y164810D01*
X289843Y164770D01*
X289872Y164767D01*
X289900Y164759D01*
X290014Y164756D01*
X290126Y164746D01*
X290155Y164752D01*
X290184Y164751D01*
X290294Y164780D01*
X290405Y164802D01*
X290431Y164816D01*
X290459Y164823D01*
X290557Y164881D01*
X290657Y164933D01*
X290679Y164953D01*
X290704Y164968D01*
X290781Y165051D01*
X290863Y165129D01*
X290878Y165154D01*
X290898Y165176D01*
X290950Y165276D01*
X291007Y165374D01*
X291014Y165403D01*
X291028Y165429D01*
X291041Y165506D01*
X291077Y165650D01*
X291075Y165712D01*
X291083Y165760D01*
X291083Y177229D01*
X292785Y181337D01*
X295929Y184481D01*
X300037Y186183D01*
X304483Y186183D01*
X308591Y184481D01*
X311735Y181337D01*
X313437Y177229D01*
X313437Y165671D01*
X312625Y163711D01*
X312596Y163599D01*
X312561Y163490D01*
X312561Y163462D01*
X312554Y163435D01*
X312557Y163321D01*
X312554Y163206D01*
X312561Y163179D01*
X312562Y163151D01*
X312597Y163042D01*
X312626Y162931D01*
X312640Y162907D01*
X312649Y162880D01*
X312713Y162785D01*
X312771Y162686D01*
X312791Y162667D01*
X312807Y162644D01*
X312895Y162570D01*
X312979Y162492D01*
X313003Y162479D01*
X313024Y162461D01*
X313129Y162415D01*
X313232Y162362D01*
X313256Y162358D01*
X313284Y162346D01*
X313548Y162309D01*
X313563Y162307D01*
X316357Y162307D01*
X316471Y162323D01*
X316585Y162333D01*
X316611Y162343D01*
X316639Y162347D01*
X316744Y162394D01*
X316851Y162435D01*
X316873Y162451D01*
X316898Y162463D01*
X316986Y162537D01*
X317077Y162606D01*
X317094Y162629D01*
X317115Y162646D01*
X317179Y162742D01*
X317248Y162834D01*
X317257Y162860D01*
X317273Y162883D01*
X317307Y162993D01*
X317348Y163100D01*
X317350Y163128D01*
X317359Y163154D01*
X317362Y163269D01*
X317371Y163383D01*
X317365Y163408D01*
X317366Y163438D01*
X317299Y163695D01*
X317295Y163711D01*
X316483Y165671D01*
X316483Y177229D01*
X318185Y181337D01*
X321329Y184481D01*
X325437Y186183D01*
X329883Y186183D01*
X333991Y184481D01*
X337135Y181337D01*
X338837Y177229D01*
X338837Y165671D01*
X338539Y164953D01*
X338511Y164841D01*
X338476Y164732D01*
X338475Y164704D01*
X338468Y164677D01*
X338472Y164563D01*
X338469Y164448D01*
X338476Y164421D01*
X338476Y164393D01*
X338511Y164284D01*
X338540Y164173D01*
X338555Y164149D01*
X338563Y164122D01*
X338627Y164027D01*
X338686Y163928D01*
X338706Y163909D01*
X338721Y163886D01*
X338809Y163812D01*
X338893Y163734D01*
X338918Y163721D01*
X338939Y163703D01*
X339044Y163656D01*
X339146Y163604D01*
X339171Y163600D01*
X339199Y163588D01*
X339462Y163551D01*
X339477Y163549D01*
X341243Y163549D01*
X341357Y163565D01*
X341471Y163575D01*
X341497Y163585D01*
X341524Y163589D01*
X341629Y163636D01*
X341736Y163677D01*
X341758Y163693D01*
X341784Y163705D01*
X341871Y163779D01*
X341963Y163848D01*
X341980Y163871D01*
X342001Y163888D01*
X342064Y163984D01*
X342133Y164076D01*
X342143Y164102D01*
X342158Y164125D01*
X342193Y164235D01*
X342234Y164342D01*
X342236Y164370D01*
X342244Y164396D01*
X342247Y164511D01*
X342256Y164625D01*
X342251Y164650D01*
X342251Y164680D01*
X342184Y164937D01*
X342181Y164953D01*
X341883Y165671D01*
X341883Y177229D01*
X343585Y181337D01*
X346729Y184481D01*
X350837Y186183D01*
X355283Y186183D01*
X359391Y184481D01*
X362535Y181337D01*
X364237Y177229D01*
X364237Y165671D01*
X362535Y161563D01*
X359391Y158419D01*
X355283Y156717D01*
X350837Y156717D01*
X349103Y157436D01*
X348991Y157464D01*
X348882Y157499D01*
X348854Y157500D01*
X348827Y157507D01*
X348713Y157503D01*
X348598Y157506D01*
X348571Y157499D01*
X348543Y157498D01*
X348434Y157463D01*
X348323Y157434D01*
X348299Y157420D01*
X348272Y157412D01*
X348177Y157348D01*
X348078Y157289D01*
X348059Y157269D01*
X348036Y157254D01*
X347962Y157166D01*
X347884Y157082D01*
X347871Y157057D01*
X347853Y157036D01*
X347807Y156931D01*
X347754Y156829D01*
X347750Y156804D01*
X347738Y156776D01*
X347701Y156512D01*
X347699Y156498D01*
X347699Y154750D01*
X346581Y152053D01*
X344517Y149989D01*
X341820Y148871D01*
X338900Y148871D01*
X336088Y150036D01*
X336058Y150044D01*
X336031Y150058D01*
X335953Y150071D01*
X335813Y150107D01*
X335749Y150105D01*
X335700Y150113D01*
X327124Y150113D01*
X327066Y150105D01*
X327008Y150107D01*
X326926Y150085D01*
X326842Y150073D01*
X326789Y150050D01*
X326733Y150035D01*
X326660Y149992D01*
X326583Y149957D01*
X326538Y149919D01*
X326488Y149890D01*
X326430Y149828D01*
X326366Y149774D01*
X326334Y149725D01*
X326294Y149682D01*
X326255Y149607D01*
X326208Y149537D01*
X326191Y149481D01*
X326164Y149429D01*
X326153Y149361D01*
X326123Y149266D01*
X326120Y149166D01*
X326109Y149098D01*
X326109Y147130D01*
X324991Y144433D01*
X322927Y142369D01*
X320230Y141251D01*
X317310Y141251D01*
X314498Y142416D01*
X314468Y142424D01*
X314441Y142438D01*
X314363Y142451D01*
X314223Y142487D01*
X314159Y142485D01*
X314110Y142493D01*
X310614Y142493D01*
X310556Y142485D01*
X310498Y142487D01*
X310416Y142465D01*
X310332Y142453D01*
X310279Y142430D01*
X310223Y142415D01*
X310150Y142372D01*
X310073Y142337D01*
X310028Y142299D01*
X309978Y142270D01*
X309920Y142208D01*
X309856Y142154D01*
X309824Y142105D01*
X309784Y142062D01*
X309745Y141987D01*
X309698Y141917D01*
X309681Y141861D01*
X309654Y141809D01*
X309643Y141741D01*
X309613Y141646D01*
X309610Y141546D01*
X309599Y141478D01*
X309599Y139510D01*
X308434Y136698D01*
X308426Y136668D01*
X308412Y136641D01*
X308399Y136563D01*
X308395Y136545D01*
X308371Y136470D01*
X308370Y136451D01*
X308363Y136423D01*
X308365Y136359D01*
X308357Y136310D01*
X308357Y108936D01*
X308369Y108849D01*
X308372Y108762D01*
X308389Y108709D01*
X308397Y108655D01*
X308432Y108575D01*
X308459Y108492D01*
X308487Y108452D01*
X308513Y108395D01*
X308609Y108282D01*
X308617Y108271D01*
X308626Y108254D01*
X308632Y108249D01*
X308654Y108218D01*
X311735Y105137D01*
X313437Y101029D01*
X313437Y89471D01*
X311735Y85363D01*
X308591Y82219D01*
X304483Y80517D01*
X300037Y80517D01*
X295929Y82219D01*
X292785Y85363D01*
X291083Y89471D01*
X291083Y101029D01*
X292785Y105137D01*
X295866Y108218D01*
X295918Y108288D01*
X295978Y108352D01*
X296004Y108401D01*
X296037Y108445D01*
X296068Y108527D01*
X296108Y108605D01*
X296116Y108653D01*
X296138Y108711D01*
X296150Y108859D01*
X296163Y108936D01*
X296163Y136310D01*
X296159Y136340D01*
X296161Y136371D01*
X296156Y136395D01*
X296157Y136418D01*
X296138Y136491D01*
X296123Y136591D01*
X296097Y136650D01*
X296086Y136698D01*
X294921Y139510D01*
X294921Y141478D01*
X294913Y141536D01*
X294915Y141594D01*
X294893Y141676D01*
X294881Y141760D01*
X294858Y141813D01*
X294843Y141869D01*
X294800Y141942D01*
X294765Y142019D01*
X294727Y142064D01*
X294698Y142114D01*
X294636Y142172D01*
X294582Y142236D01*
X294533Y142268D01*
X294490Y142308D01*
X294415Y142347D01*
X294345Y142394D01*
X294289Y142411D01*
X294237Y142438D01*
X294169Y142449D01*
X294074Y142479D01*
X293974Y142482D01*
X293906Y142493D01*
X285807Y142493D01*
X283566Y143421D01*
X256451Y170536D01*
X255523Y172777D01*
X255523Y268834D01*
X255511Y268921D01*
X255508Y269008D01*
X255491Y269061D01*
X255483Y269116D01*
X255448Y269195D01*
X255421Y269279D01*
X255393Y269318D01*
X255367Y269375D01*
X255271Y269488D01*
X255226Y269552D01*
X253506Y271272D01*
X253459Y271307D01*
X253419Y271350D01*
X253346Y271392D01*
X253279Y271443D01*
X253224Y271464D01*
X253173Y271493D01*
X253092Y271514D01*
X253013Y271544D01*
X252955Y271549D01*
X252898Y271564D01*
X252814Y271561D01*
X252730Y271568D01*
X252672Y271556D01*
X252614Y271554D01*
X252534Y271529D01*
X252451Y271512D01*
X252399Y271485D01*
X252343Y271467D01*
X252287Y271427D01*
X252199Y271381D01*
X252126Y271312D01*
X252070Y271272D01*
X252069Y271271D01*
X243231Y271271D01*
X236981Y277521D01*
X236981Y286359D01*
X243231Y292609D01*
X252069Y292609D01*
X258319Y286359D01*
X258319Y284124D01*
X258331Y284037D01*
X258334Y283950D01*
X258351Y283897D01*
X258359Y283842D01*
X258394Y283763D01*
X258421Y283679D01*
X258449Y283640D01*
X258475Y283583D01*
X258571Y283470D01*
X258616Y283406D01*
X259311Y282711D01*
X261918Y280104D01*
X261942Y280086D01*
X261961Y280064D01*
X262055Y280001D01*
X262145Y279933D01*
X262173Y279923D01*
X262197Y279906D01*
X262305Y279872D01*
X262411Y279832D01*
X262440Y279829D01*
X262468Y279821D01*
X262582Y279818D01*
X262694Y279808D01*
X262723Y279814D01*
X262752Y279813D01*
X262862Y279842D01*
X262973Y279864D01*
X262999Y279878D01*
X263027Y279885D01*
X263125Y279943D01*
X263225Y279995D01*
X263247Y280015D01*
X263272Y280030D01*
X263349Y280113D01*
X263431Y280191D01*
X263446Y280216D01*
X263466Y280238D01*
X263518Y280338D01*
X263575Y280436D01*
X263582Y280465D01*
X263596Y280491D01*
X263609Y280568D01*
X263645Y280712D01*
X263643Y280774D01*
X263651Y280822D01*
X263651Y286359D01*
X264116Y286824D01*
X264168Y286894D01*
X264228Y286957D01*
X264254Y287007D01*
X264287Y287051D01*
X264318Y287133D01*
X264358Y287211D01*
X264366Y287258D01*
X264388Y287317D01*
X264394Y287390D01*
X264399Y287406D01*
X264401Y287468D01*
X264413Y287542D01*
X264413Y312363D01*
X265341Y314604D01*
X272136Y321399D01*
X274377Y322327D01*
X292043Y322327D01*
X294284Y321399D01*
X298646Y317036D01*
X298716Y316984D01*
X298780Y316924D01*
X298829Y316898D01*
X298873Y316865D01*
X298955Y316834D01*
X299033Y316794D01*
X299080Y316786D01*
X299139Y316764D01*
X299287Y316752D01*
X299364Y316739D01*
X305409Y316739D01*
X311659Y310489D01*
X311659Y301651D01*
X305409Y295401D01*
X301142Y295401D01*
X301113Y295397D01*
X301084Y295400D01*
X300973Y295377D01*
X300860Y295361D01*
X300834Y295349D01*
X300805Y295344D01*
X300704Y295292D01*
X300601Y295245D01*
X300578Y295226D01*
X300553Y295213D01*
X300470Y295135D01*
X300384Y295062D01*
X300368Y295037D01*
X300346Y295017D01*
X300289Y294919D01*
X300226Y294825D01*
X300217Y294797D01*
X300203Y294772D01*
X300175Y294662D01*
X300141Y294554D01*
X300140Y294524D01*
X300133Y294496D01*
X300136Y294383D01*
X300133Y294270D01*
X300141Y294241D01*
X300142Y294212D01*
X300176Y294104D01*
X300205Y293995D01*
X300220Y293969D01*
X300229Y293941D01*
X300275Y293878D01*
X300350Y293750D01*
X300396Y293707D01*
X300424Y293668D01*
X304488Y289604D01*
X304558Y289552D01*
X304622Y289492D01*
X304671Y289466D01*
X304715Y289433D01*
X304797Y289402D01*
X304875Y289362D01*
X304922Y289354D01*
X304981Y289332D01*
X305129Y289320D01*
X305206Y289307D01*
X515563Y289307D01*
X517804Y288379D01*
X519661Y286521D01*
X520896Y285286D01*
X520966Y285234D01*
X521030Y285174D01*
X521079Y285148D01*
X521123Y285115D01*
X521205Y285084D01*
X521283Y285044D01*
X521330Y285036D01*
X521389Y285014D01*
X521537Y285002D01*
X521614Y284989D01*
X527659Y284989D01*
X531934Y280714D01*
X532004Y280662D01*
X532067Y280602D01*
X532117Y280576D01*
X532161Y280543D01*
X532243Y280512D01*
X532321Y280472D01*
X532368Y280464D01*
X532427Y280442D01*
X532574Y280430D01*
X532652Y280417D01*
X535418Y280417D01*
X535505Y280429D01*
X535592Y280432D01*
X535645Y280449D01*
X535700Y280457D01*
X535780Y280492D01*
X535863Y280519D01*
X535902Y280547D01*
X535959Y280573D01*
X536073Y280669D01*
X536136Y280714D01*
X540411Y284989D01*
X543408Y284989D01*
X543437Y284993D01*
X543466Y284990D01*
X543577Y285013D01*
X543690Y285029D01*
X543716Y285041D01*
X543745Y285046D01*
X543846Y285099D01*
X543949Y285145D01*
X543971Y285164D01*
X543998Y285177D01*
X544080Y285255D01*
X544166Y285328D01*
X544182Y285353D01*
X544204Y285373D01*
X544261Y285471D01*
X544324Y285565D01*
X544333Y285593D01*
X544347Y285618D01*
X544375Y285728D01*
X544409Y285836D01*
X544410Y285866D01*
X544417Y285894D01*
X544414Y286007D01*
X544417Y286120D01*
X544409Y286149D01*
X544408Y286178D01*
X544374Y286286D01*
X544345Y286395D01*
X544330Y286421D01*
X544321Y286449D01*
X544275Y286512D01*
X544200Y286640D01*
X544154Y286683D01*
X544126Y286722D01*
X540931Y289916D01*
X540127Y291859D01*
X540126Y291860D01*
X540126Y291861D01*
X540054Y291982D01*
X539983Y292103D01*
X539981Y292104D01*
X539981Y292106D01*
X539877Y292203D01*
X539776Y292299D01*
X539774Y292299D01*
X539773Y292300D01*
X539648Y292365D01*
X539523Y292429D01*
X539522Y292429D01*
X539520Y292430D01*
X539505Y292432D01*
X539244Y292484D01*
X539214Y292481D01*
X539189Y292485D01*
X523466Y292485D01*
X521418Y294534D01*
X521371Y294569D01*
X521331Y294611D01*
X521258Y294654D01*
X521191Y294705D01*
X521136Y294725D01*
X521086Y294755D01*
X521004Y294776D01*
X520925Y294806D01*
X520867Y294811D01*
X520810Y294825D01*
X520726Y294822D01*
X520642Y294829D01*
X520584Y294818D01*
X520526Y294816D01*
X520446Y294790D01*
X520363Y294774D01*
X520311Y294747D01*
X520255Y294729D01*
X520199Y294688D01*
X520111Y294643D01*
X520038Y294574D01*
X519982Y294534D01*
X517934Y292485D01*
X498066Y292485D01*
X496018Y294534D01*
X495971Y294569D01*
X495931Y294611D01*
X495858Y294654D01*
X495791Y294705D01*
X495736Y294725D01*
X495686Y294755D01*
X495604Y294776D01*
X495525Y294806D01*
X495467Y294811D01*
X495410Y294825D01*
X495326Y294822D01*
X495242Y294829D01*
X495184Y294818D01*
X495126Y294816D01*
X495046Y294790D01*
X494963Y294774D01*
X494911Y294747D01*
X494855Y294729D01*
X494799Y294688D01*
X494711Y294643D01*
X494638Y294574D01*
X494582Y294534D01*
X492534Y292485D01*
X472666Y292485D01*
X470618Y294534D01*
X470571Y294569D01*
X470531Y294611D01*
X470458Y294654D01*
X470391Y294705D01*
X470336Y294725D01*
X470286Y294755D01*
X470204Y294776D01*
X470125Y294806D01*
X470067Y294811D01*
X470010Y294825D01*
X469926Y294822D01*
X469842Y294829D01*
X469784Y294818D01*
X469726Y294816D01*
X469646Y294790D01*
X469563Y294774D01*
X469511Y294747D01*
X469455Y294729D01*
X469399Y294688D01*
X469311Y294643D01*
X469238Y294574D01*
X469182Y294534D01*
X467134Y292485D01*
X447266Y292485D01*
X445218Y294534D01*
X445171Y294569D01*
X445131Y294611D01*
X445058Y294654D01*
X444991Y294705D01*
X444936Y294725D01*
X444886Y294755D01*
X444804Y294776D01*
X444725Y294806D01*
X444667Y294811D01*
X444610Y294825D01*
X444526Y294822D01*
X444442Y294829D01*
X444384Y294818D01*
X444326Y294816D01*
X444246Y294790D01*
X444163Y294774D01*
X444111Y294747D01*
X444055Y294729D01*
X443999Y294688D01*
X443911Y294643D01*
X443838Y294574D01*
X443782Y294534D01*
X441734Y292485D01*
X421866Y292485D01*
X419818Y294534D01*
X419771Y294569D01*
X419731Y294611D01*
X419658Y294654D01*
X419591Y294705D01*
X419536Y294725D01*
X419486Y294755D01*
X419404Y294776D01*
X419325Y294806D01*
X419267Y294811D01*
X419210Y294825D01*
X419126Y294822D01*
X419042Y294829D01*
X418984Y294818D01*
X418926Y294816D01*
X418846Y294790D01*
X418763Y294774D01*
X418711Y294747D01*
X418655Y294729D01*
X418599Y294688D01*
X418511Y294643D01*
X418438Y294574D01*
X418382Y294534D01*
X416334Y292485D01*
X396466Y292485D01*
X394418Y294534D01*
X394371Y294569D01*
X394331Y294611D01*
X394258Y294654D01*
X394191Y294705D01*
X394136Y294725D01*
X394086Y294755D01*
X394004Y294776D01*
X393925Y294806D01*
X393867Y294811D01*
X393810Y294825D01*
X393726Y294822D01*
X393642Y294829D01*
X393584Y294818D01*
X393526Y294816D01*
X393446Y294790D01*
X393363Y294774D01*
X393311Y294747D01*
X393255Y294729D01*
X393199Y294688D01*
X393111Y294643D01*
X393038Y294574D01*
X392982Y294534D01*
X390934Y292485D01*
X371066Y292485D01*
X368685Y294866D01*
X368685Y314734D01*
X370734Y316782D01*
X370769Y316829D01*
X370811Y316869D01*
X370854Y316942D01*
X370905Y317009D01*
X370925Y317064D01*
X370955Y317114D01*
X370976Y317196D01*
X371006Y317275D01*
X371011Y317333D01*
X371025Y317390D01*
X371022Y317474D01*
X371029Y317558D01*
X371018Y317616D01*
X371016Y317674D01*
X370990Y317754D01*
X370974Y317837D01*
X370947Y317889D01*
X370929Y317945D01*
X370888Y318001D01*
X370843Y318089D01*
X370774Y318162D01*
X370734Y318218D01*
X368685Y320266D01*
X368685Y340134D01*
X370734Y342182D01*
X370769Y342229D01*
X370811Y342269D01*
X370854Y342342D01*
X370905Y342409D01*
X370925Y342464D01*
X370955Y342514D01*
X370976Y342596D01*
X371006Y342675D01*
X371011Y342733D01*
X371025Y342790D01*
X371022Y342874D01*
X371029Y342958D01*
X371018Y343016D01*
X371016Y343074D01*
X370990Y343154D01*
X370974Y343237D01*
X370947Y343289D01*
X370929Y343345D01*
X370888Y343401D01*
X370843Y343489D01*
X370774Y343562D01*
X370734Y343618D01*
X368685Y345666D01*
X368685Y365534D01*
X370734Y367582D01*
X370769Y367629D01*
X370811Y367669D01*
X370854Y367742D01*
X370905Y367809D01*
X370925Y367864D01*
X370955Y367914D01*
X370976Y367996D01*
X371006Y368075D01*
X371011Y368133D01*
X371025Y368190D01*
X371022Y368274D01*
X371029Y368358D01*
X371018Y368416D01*
X371016Y368474D01*
X370990Y368554D01*
X370974Y368637D01*
X370947Y368689D01*
X370929Y368745D01*
X370888Y368801D01*
X370843Y368889D01*
X370774Y368962D01*
X370734Y369018D01*
X369018Y370734D01*
X368971Y370769D01*
X368931Y370811D01*
X368858Y370854D01*
X368791Y370905D01*
X368736Y370925D01*
X368686Y370955D01*
X368604Y370976D01*
X368525Y371006D01*
X368467Y371011D01*
X368410Y371025D01*
X368326Y371022D01*
X368242Y371029D01*
X368184Y371018D01*
X368126Y371016D01*
X368046Y370990D01*
X367963Y370974D01*
X367911Y370947D01*
X367855Y370929D01*
X367799Y370889D01*
X367711Y370843D01*
X367638Y370774D01*
X367582Y370734D01*
X365534Y368685D01*
X345666Y368685D01*
X343285Y371066D01*
X343285Y390934D01*
X345334Y392982D01*
X345369Y393029D01*
X345411Y393069D01*
X345454Y393142D01*
X345505Y393209D01*
X345525Y393264D01*
X345555Y393314D01*
X345576Y393396D01*
X345606Y393475D01*
X345611Y393533D01*
X345625Y393590D01*
X345622Y393674D01*
X345629Y393758D01*
X345618Y393816D01*
X345616Y393874D01*
X345590Y393954D01*
X345574Y394037D01*
X345547Y394089D01*
X345529Y394145D01*
X345488Y394201D01*
X345443Y394289D01*
X345374Y394362D01*
X345334Y394418D01*
X343285Y396466D01*
X343285Y416334D01*
X345666Y418715D01*
X365534Y418715D01*
X367582Y416666D01*
X367629Y416631D01*
X367669Y416589D01*
X367742Y416546D01*
X367809Y416495D01*
X367864Y416475D01*
X367914Y416445D01*
X367996Y416424D01*
X368075Y416394D01*
X368133Y416389D01*
X368190Y416375D01*
X368274Y416378D01*
X368358Y416371D01*
X368416Y416382D01*
X368474Y416384D01*
X368554Y416410D01*
X368637Y416426D01*
X368689Y416453D01*
X368745Y416471D01*
X368801Y416512D01*
X368889Y416557D01*
X368962Y416626D01*
X369018Y416666D01*
X370734Y418382D01*
X370769Y418429D01*
X370811Y418469D01*
X370854Y418542D01*
X370905Y418609D01*
X370925Y418664D01*
X370955Y418714D01*
X370976Y418796D01*
X371006Y418875D01*
X371011Y418933D01*
X371025Y418990D01*
X371022Y419074D01*
X371029Y419158D01*
X371018Y419216D01*
X371016Y419274D01*
X370990Y419354D01*
X370974Y419437D01*
X370947Y419489D01*
X370929Y419545D01*
X370888Y419601D01*
X370843Y419689D01*
X370774Y419762D01*
X370734Y419818D01*
X368685Y421866D01*
X368685Y441734D01*
X370734Y443782D01*
X370769Y443829D01*
X370811Y443869D01*
X370854Y443942D01*
X370905Y444009D01*
X370925Y444064D01*
X370955Y444114D01*
X370976Y444196D01*
X371006Y444275D01*
X371011Y444333D01*
X371025Y444390D01*
X371022Y444474D01*
X371029Y444558D01*
X371018Y444616D01*
X371016Y444674D01*
X370990Y444754D01*
X370974Y444837D01*
X370947Y444889D01*
X370929Y444945D01*
X370888Y445001D01*
X370843Y445089D01*
X370774Y445162D01*
X370734Y445218D01*
X368685Y447266D01*
X368685Y456692D01*
X368677Y456750D01*
X368679Y456808D01*
X368657Y456890D01*
X368645Y456974D01*
X368622Y457027D01*
X368607Y457083D01*
X368564Y457156D01*
X368529Y457233D01*
X368491Y457278D01*
X368462Y457328D01*
X368400Y457386D01*
X368346Y457450D01*
X368297Y457482D01*
X368254Y457522D01*
X368179Y457561D01*
X368109Y457608D01*
X368053Y457625D01*
X368001Y457652D01*
X367933Y457663D01*
X367838Y457693D01*
X367738Y457696D01*
X367670Y457707D01*
X339344Y457707D01*
X339286Y457699D01*
X339228Y457701D01*
X339146Y457679D01*
X339062Y457667D01*
X339009Y457644D01*
X338953Y457629D01*
X338880Y457586D01*
X338803Y457551D01*
X338758Y457513D01*
X338708Y457484D01*
X338650Y457422D01*
X338586Y457368D01*
X338554Y457319D01*
X338514Y457276D01*
X338475Y457201D01*
X338428Y457131D01*
X338411Y457075D01*
X338384Y457023D01*
X338373Y456955D01*
X338343Y456860D01*
X338340Y456760D01*
X338329Y456692D01*
X338329Y455321D01*
X332079Y449071D01*
X323241Y449071D01*
X318966Y453346D01*
X318896Y453398D01*
X318833Y453458D01*
X318783Y453484D01*
X318739Y453517D01*
X318657Y453548D01*
X318579Y453588D01*
X318532Y453596D01*
X318473Y453618D01*
X318326Y453630D01*
X318248Y453643D01*
X311672Y453643D01*
X311585Y453631D01*
X311498Y453628D01*
X311445Y453611D01*
X311390Y453603D01*
X311310Y453568D01*
X311227Y453541D01*
X311188Y453513D01*
X311131Y453487D01*
X311017Y453391D01*
X310954Y453346D01*
X307384Y449776D01*
X307332Y449706D01*
X307272Y449643D01*
X307246Y449593D01*
X307213Y449549D01*
X307182Y449467D01*
X307142Y449389D01*
X307134Y449342D01*
X307112Y449283D01*
X307103Y449174D01*
X307101Y449167D01*
X307100Y449139D01*
X307100Y449136D01*
X307087Y449058D01*
X307087Y400107D01*
X306159Y397866D01*
X304301Y396009D01*
X304234Y395942D01*
X304216Y395918D01*
X304194Y395899D01*
X304131Y395805D01*
X304063Y395715D01*
X304053Y395687D01*
X304036Y395663D01*
X304002Y395555D01*
X303962Y395449D01*
X303959Y395420D01*
X303951Y395392D01*
X303948Y395279D01*
X303938Y395166D01*
X303944Y395137D01*
X303943Y395108D01*
X303972Y394998D01*
X303994Y394887D01*
X304008Y394861D01*
X304015Y394833D01*
X304073Y394735D01*
X304125Y394635D01*
X304145Y394613D01*
X304160Y394588D01*
X304243Y394511D01*
X304321Y394429D01*
X304346Y394414D01*
X304368Y394394D01*
X304469Y394342D01*
X304566Y394285D01*
X304595Y394278D01*
X304621Y394264D01*
X304698Y394251D01*
X304841Y394215D01*
X304904Y394217D01*
X304952Y394209D01*
X306679Y394209D01*
X312929Y387959D01*
X312929Y379121D01*
X311658Y377850D01*
X311623Y377803D01*
X311580Y377763D01*
X311538Y377690D01*
X311487Y377623D01*
X311466Y377568D01*
X311437Y377518D01*
X311416Y377436D01*
X311386Y377357D01*
X311381Y377299D01*
X311366Y377242D01*
X311369Y377158D01*
X311362Y377074D01*
X311374Y377017D01*
X311376Y376958D01*
X311401Y376878D01*
X311418Y376795D01*
X311445Y376743D01*
X311463Y376688D01*
X311503Y376631D01*
X311549Y376543D01*
X311618Y376470D01*
X311658Y376414D01*
X320159Y367913D01*
X320228Y367861D01*
X320290Y367802D01*
X320341Y367776D01*
X320387Y367742D01*
X320467Y367711D01*
X320543Y367672D01*
X320599Y367661D01*
X320652Y367641D01*
X320738Y367634D01*
X320822Y367617D01*
X320879Y367622D01*
X320935Y367617D01*
X321020Y367634D01*
X321105Y367641D01*
X321158Y367662D01*
X321214Y367673D01*
X321290Y367713D01*
X321371Y367743D01*
X321416Y367778D01*
X321467Y367804D01*
X321529Y367863D01*
X321597Y367915D01*
X321631Y367961D01*
X321673Y368000D01*
X321716Y368074D01*
X321768Y368143D01*
X321788Y368196D01*
X321816Y368245D01*
X321838Y368328D01*
X321868Y368409D01*
X321872Y368465D01*
X321886Y368521D01*
X321884Y368606D01*
X321891Y368692D01*
X321879Y368740D01*
X321877Y368805D01*
X321833Y368943D01*
X321815Y369019D01*
X321563Y369627D01*
X321563Y374128D01*
X321551Y374215D01*
X321548Y374302D01*
X321531Y374355D01*
X321523Y374410D01*
X321488Y374490D01*
X321461Y374573D01*
X321433Y374612D01*
X321407Y374669D01*
X321311Y374783D01*
X321266Y374846D01*
X316991Y379121D01*
X316991Y387959D01*
X323241Y394209D01*
X332079Y394209D01*
X338329Y387959D01*
X338329Y379121D01*
X334054Y374846D01*
X334002Y374776D01*
X333942Y374713D01*
X333916Y374663D01*
X333883Y374619D01*
X333852Y374537D01*
X333812Y374459D01*
X333804Y374412D01*
X333782Y374353D01*
X333770Y374206D01*
X333757Y374128D01*
X333757Y373786D01*
X333769Y373699D01*
X333772Y373612D01*
X333789Y373559D01*
X333797Y373504D01*
X333832Y373425D01*
X333859Y373341D01*
X333887Y373302D01*
X333913Y373245D01*
X334009Y373132D01*
X334054Y373068D01*
X345529Y361594D01*
X346457Y359353D01*
X346457Y318827D01*
X345529Y316586D01*
X337356Y308414D01*
X337304Y308344D01*
X337244Y308280D01*
X337218Y308231D01*
X337185Y308187D01*
X337154Y308105D01*
X337114Y308027D01*
X337106Y307980D01*
X337084Y307921D01*
X337072Y307773D01*
X337059Y307696D01*
X337059Y301651D01*
X330809Y295401D01*
X321971Y295401D01*
X315721Y301651D01*
X315721Y310489D01*
X321971Y316739D01*
X328016Y316739D01*
X328103Y316751D01*
X328190Y316754D01*
X328243Y316771D01*
X328298Y316779D01*
X328377Y316814D01*
X328461Y316841D01*
X328500Y316869D01*
X328557Y316895D01*
X328670Y316991D01*
X328734Y317036D01*
X333966Y322268D01*
X334018Y322338D01*
X334078Y322402D01*
X334104Y322451D01*
X334137Y322495D01*
X334168Y322577D01*
X334208Y322655D01*
X334216Y322702D01*
X334238Y322761D01*
X334250Y322909D01*
X334263Y322986D01*
X334263Y343394D01*
X334259Y343423D01*
X334262Y343453D01*
X334239Y343564D01*
X334223Y343676D01*
X334211Y343703D01*
X334206Y343731D01*
X334153Y343832D01*
X334107Y343935D01*
X334088Y343958D01*
X334075Y343984D01*
X333997Y344066D01*
X333924Y344152D01*
X333899Y344169D01*
X333879Y344190D01*
X333781Y344247D01*
X333687Y344310D01*
X333659Y344319D01*
X333634Y344334D01*
X333524Y344361D01*
X333416Y344396D01*
X333386Y344396D01*
X333358Y344404D01*
X333245Y344400D01*
X333132Y344403D01*
X333103Y344396D01*
X333074Y344395D01*
X332966Y344360D01*
X332857Y344331D01*
X332831Y344316D01*
X332803Y344307D01*
X332740Y344262D01*
X332612Y344186D01*
X332569Y344140D01*
X332530Y344112D01*
X330809Y342391D01*
X321971Y342391D01*
X315721Y348641D01*
X315721Y354686D01*
X315709Y354773D01*
X315706Y354860D01*
X315689Y354913D01*
X315681Y354968D01*
X315646Y355047D01*
X315619Y355131D01*
X315591Y355170D01*
X315565Y355227D01*
X315469Y355340D01*
X315424Y355404D01*
X313392Y357436D01*
X313368Y357454D01*
X313349Y357476D01*
X313255Y357539D01*
X313165Y357607D01*
X313137Y357617D01*
X313113Y357634D01*
X313005Y357668D01*
X312899Y357708D01*
X312870Y357711D01*
X312842Y357719D01*
X312728Y357722D01*
X312616Y357732D01*
X312587Y357726D01*
X312558Y357727D01*
X312448Y357698D01*
X312337Y357676D01*
X312311Y357662D01*
X312283Y357655D01*
X312185Y357597D01*
X312085Y357545D01*
X312063Y357525D01*
X312038Y357510D01*
X311961Y357427D01*
X311879Y357349D01*
X311864Y357324D01*
X311844Y357302D01*
X311792Y357202D01*
X311735Y357104D01*
X311728Y357075D01*
X311714Y357049D01*
X311701Y356972D01*
X311665Y356828D01*
X311667Y356766D01*
X311659Y356718D01*
X311659Y348641D01*
X305409Y342391D01*
X296571Y342391D01*
X290321Y348641D01*
X290321Y354686D01*
X290309Y354773D01*
X290306Y354860D01*
X290289Y354913D01*
X290281Y354968D01*
X290246Y355047D01*
X290219Y355131D01*
X290191Y355170D01*
X290165Y355227D01*
X290069Y355340D01*
X290024Y355404D01*
X286722Y358706D01*
X286698Y358724D01*
X286679Y358746D01*
X286585Y358809D01*
X286495Y358877D01*
X286467Y358887D01*
X286443Y358904D01*
X286335Y358938D01*
X286229Y358978D01*
X286200Y358981D01*
X286172Y358989D01*
X286058Y358992D01*
X285946Y359002D01*
X285917Y358996D01*
X285888Y358997D01*
X285778Y358968D01*
X285667Y358946D01*
X285641Y358932D01*
X285613Y358925D01*
X285515Y358867D01*
X285415Y358815D01*
X285393Y358795D01*
X285368Y358780D01*
X285291Y358697D01*
X285209Y358619D01*
X285194Y358594D01*
X285174Y358572D01*
X285122Y358472D01*
X285065Y358374D01*
X285058Y358345D01*
X285044Y358319D01*
X285031Y358242D01*
X284995Y358098D01*
X284997Y358036D01*
X284989Y357988D01*
X284989Y353721D01*
X278739Y347471D01*
X269901Y347471D01*
X263651Y353721D01*
X263651Y362559D01*
X264102Y363010D01*
X264117Y363029D01*
X264132Y363042D01*
X264135Y363046D01*
X264142Y363053D01*
X264205Y363147D01*
X264273Y363237D01*
X264284Y363265D01*
X264300Y363289D01*
X264334Y363397D01*
X264374Y363503D01*
X264377Y363532D01*
X264386Y363560D01*
X264389Y363674D01*
X264398Y363786D01*
X264392Y363815D01*
X264393Y363844D01*
X264364Y363954D01*
X264342Y364065D01*
X264329Y364091D01*
X264321Y364119D01*
X264263Y364217D01*
X264211Y364317D01*
X264191Y364339D01*
X264176Y364364D01*
X264093Y364441D01*
X264015Y364523D01*
X263990Y364538D01*
X263969Y364558D01*
X263868Y364610D01*
X263770Y364667D01*
X263742Y364674D01*
X263715Y364688D01*
X263638Y364701D01*
X263495Y364737D01*
X263432Y364735D01*
X263384Y364743D01*
X258586Y364743D01*
X258557Y364739D01*
X258527Y364742D01*
X258416Y364719D01*
X258304Y364703D01*
X258277Y364691D01*
X258249Y364686D01*
X258148Y364633D01*
X258045Y364587D01*
X258022Y364568D01*
X257996Y364555D01*
X257914Y364477D01*
X257828Y364404D01*
X257811Y364379D01*
X257790Y364359D01*
X257733Y364261D01*
X257670Y364167D01*
X257661Y364139D01*
X257646Y364114D01*
X257619Y364004D01*
X257584Y363896D01*
X257584Y363866D01*
X257576Y363838D01*
X257580Y363725D01*
X257577Y363612D01*
X257584Y363583D01*
X257585Y363554D01*
X257620Y363446D01*
X257649Y363337D01*
X257664Y363311D01*
X257673Y363283D01*
X257718Y363219D01*
X257794Y363092D01*
X257803Y363084D01*
X257804Y363082D01*
X257841Y363048D01*
X257868Y363010D01*
X258319Y362559D01*
X258319Y353721D01*
X252069Y347471D01*
X243231Y347471D01*
X236981Y353721D01*
X236981Y357988D01*
X236977Y358017D01*
X236980Y358046D01*
X236957Y358157D01*
X236941Y358270D01*
X236929Y358296D01*
X236924Y358325D01*
X236872Y358426D01*
X236825Y358529D01*
X236806Y358552D01*
X236793Y358577D01*
X236715Y358660D01*
X236642Y358746D01*
X236617Y358762D01*
X236597Y358784D01*
X236499Y358841D01*
X236405Y358904D01*
X236377Y358913D01*
X236352Y358927D01*
X236242Y358955D01*
X236134Y358989D01*
X236104Y358990D01*
X236076Y358997D01*
X235963Y358994D01*
X235850Y358997D01*
X235821Y358989D01*
X235792Y358988D01*
X235684Y358954D01*
X235575Y358925D01*
X235549Y358910D01*
X235521Y358901D01*
X235458Y358855D01*
X235330Y358780D01*
X235287Y358734D01*
X235248Y358706D01*
X223564Y347022D01*
X223512Y346952D01*
X223452Y346888D01*
X223426Y346839D01*
X223393Y346795D01*
X223362Y346713D01*
X223322Y346635D01*
X223314Y346588D01*
X223292Y346529D01*
X223280Y346381D01*
X223267Y346304D01*
X223267Y265487D01*
X222339Y263246D01*
X220481Y261389D01*
X216706Y257614D01*
X216654Y257544D01*
X216594Y257480D01*
X216568Y257431D01*
X216535Y257387D01*
X216504Y257305D01*
X216464Y257227D01*
X216456Y257180D01*
X216434Y257121D01*
X216422Y256973D01*
X216409Y256896D01*
X216409Y250851D01*
X210159Y244601D01*
X201321Y244601D01*
X195071Y250851D01*
X195071Y259689D01*
X201321Y265939D01*
X207366Y265939D01*
X207453Y265951D01*
X207540Y265954D01*
X207593Y265971D01*
X207648Y265979D01*
X207727Y266014D01*
X207811Y266041D01*
X207850Y266069D01*
X207907Y266095D01*
X208020Y266191D01*
X208084Y266236D01*
X210776Y268928D01*
X210828Y268998D01*
X210888Y269062D01*
X210914Y269111D01*
X210947Y269155D01*
X210978Y269237D01*
X211018Y269315D01*
X211026Y269362D01*
X211048Y269421D01*
X211060Y269569D01*
X211073Y269646D01*
X211073Y350463D01*
X212001Y352704D01*
X231960Y372662D01*
X231978Y372686D01*
X232000Y372705D01*
X232063Y372799D01*
X232131Y372889D01*
X232141Y372917D01*
X232158Y372941D01*
X232192Y373049D01*
X232232Y373155D01*
X232235Y373184D01*
X232243Y373212D01*
X232246Y373326D01*
X232256Y373438D01*
X232250Y373467D01*
X232251Y373496D01*
X232222Y373606D01*
X232200Y373717D01*
X232186Y373743D01*
X232179Y373771D01*
X232121Y373869D01*
X232069Y373969D01*
X232049Y373991D01*
X232034Y374016D01*
X231951Y374093D01*
X231873Y374175D01*
X231848Y374190D01*
X231826Y374210D01*
X231726Y374262D01*
X231628Y374319D01*
X231599Y374326D01*
X231573Y374340D01*
X231496Y374353D01*
X231352Y374389D01*
X231290Y374387D01*
X231242Y374395D01*
X229892Y374395D01*
X224535Y379752D01*
X224535Y381509D01*
X232664Y381509D01*
X232722Y381517D01*
X232780Y381515D01*
X232862Y381537D01*
X232945Y381549D01*
X232999Y381573D01*
X233055Y381587D01*
X233128Y381630D01*
X233205Y381665D01*
X233249Y381703D01*
X233300Y381733D01*
X233357Y381794D01*
X233422Y381849D01*
X233454Y381897D01*
X233494Y381940D01*
X233533Y382015D01*
X233579Y382085D01*
X233597Y382141D01*
X233624Y382193D01*
X233635Y382261D01*
X233665Y382356D01*
X233668Y382456D01*
X233679Y382524D01*
X233679Y383541D01*
X234696Y383541D01*
X234754Y383549D01*
X234812Y383548D01*
X234894Y383569D01*
X234977Y383581D01*
X235031Y383605D01*
X235087Y383619D01*
X235160Y383662D01*
X235237Y383697D01*
X235282Y383735D01*
X235332Y383765D01*
X235390Y383826D01*
X235454Y383881D01*
X235486Y383929D01*
X235526Y383972D01*
X235565Y384047D01*
X235611Y384117D01*
X235629Y384173D01*
X235656Y384225D01*
X235667Y384293D01*
X235697Y384388D01*
X235700Y384488D01*
X235711Y384556D01*
X235711Y392685D01*
X237468Y392685D01*
X242825Y387328D01*
X242825Y385106D01*
X242841Y384992D01*
X242851Y384878D01*
X242861Y384852D01*
X242865Y384824D01*
X242912Y384720D01*
X242953Y384612D01*
X242969Y384590D01*
X242981Y384565D01*
X243055Y384477D01*
X243124Y384386D01*
X243147Y384369D01*
X243164Y384348D01*
X243260Y384284D01*
X243352Y384216D01*
X243378Y384206D01*
X243401Y384190D01*
X243511Y384156D01*
X243618Y384115D01*
X243646Y384113D01*
X243672Y384105D01*
X243787Y384102D01*
X243901Y384092D01*
X243926Y384098D01*
X243956Y384097D01*
X244213Y384164D01*
X244229Y384168D01*
X245167Y384557D01*
X275184Y384557D01*
X275271Y384569D01*
X275358Y384572D01*
X275411Y384589D01*
X275466Y384597D01*
X275545Y384632D01*
X275629Y384659D01*
X275668Y384687D01*
X275725Y384713D01*
X275838Y384809D01*
X275902Y384854D01*
X277680Y386632D01*
X277698Y386656D01*
X277720Y386675D01*
X277783Y386769D01*
X277851Y386859D01*
X277861Y386887D01*
X277878Y386911D01*
X277912Y387019D01*
X277952Y387125D01*
X277955Y387154D01*
X277963Y387182D01*
X277966Y387296D01*
X277976Y387408D01*
X277970Y387437D01*
X277971Y387466D01*
X277942Y387576D01*
X277920Y387687D01*
X277906Y387713D01*
X277899Y387741D01*
X277841Y387839D01*
X277789Y387939D01*
X277769Y387961D01*
X277754Y387986D01*
X277671Y388063D01*
X277593Y388145D01*
X277568Y388160D01*
X277546Y388180D01*
X277446Y388232D01*
X277348Y388289D01*
X277319Y388296D01*
X277293Y388310D01*
X277216Y388323D01*
X277072Y388359D01*
X277010Y388357D01*
X276962Y388365D01*
X275081Y388365D01*
X275081Y395479D01*
X282195Y395479D01*
X282195Y393598D01*
X282199Y393569D01*
X282196Y393540D01*
X282219Y393429D01*
X282235Y393316D01*
X282247Y393290D01*
X282252Y393261D01*
X282305Y393160D01*
X282351Y393057D01*
X282370Y393034D01*
X282383Y393009D01*
X282461Y392926D01*
X282534Y392840D01*
X282559Y392824D01*
X282579Y392802D01*
X282677Y392745D01*
X282771Y392682D01*
X282799Y392673D01*
X282824Y392659D01*
X282934Y392631D01*
X283042Y392597D01*
X283072Y392596D01*
X283100Y392589D01*
X283213Y392592D01*
X283326Y392589D01*
X283355Y392597D01*
X283384Y392598D01*
X283492Y392632D01*
X283601Y392661D01*
X283627Y392676D01*
X283655Y392685D01*
X283718Y392731D01*
X283846Y392806D01*
X283889Y392852D01*
X283928Y392880D01*
X294596Y403548D01*
X294648Y403618D01*
X294708Y403682D01*
X294734Y403731D01*
X294767Y403775D01*
X294798Y403857D01*
X294838Y403935D01*
X294846Y403982D01*
X294868Y404041D01*
X294877Y404154D01*
X294879Y404160D01*
X294880Y404184D01*
X294880Y404189D01*
X294893Y404266D01*
X294893Y451598D01*
X294881Y451685D01*
X294878Y451772D01*
X294861Y451825D01*
X294853Y451880D01*
X294818Y451960D01*
X294791Y452043D01*
X294763Y452082D01*
X294737Y452139D01*
X294641Y452253D01*
X294596Y452316D01*
X291591Y455321D01*
X291591Y464573D01*
X291579Y464660D01*
X291576Y464748D01*
X291559Y464800D01*
X291551Y464855D01*
X291516Y464935D01*
X291489Y465018D01*
X291461Y465057D01*
X291435Y465114D01*
X291339Y465228D01*
X291294Y465291D01*
X290539Y466046D01*
X290470Y466098D01*
X290406Y466158D01*
X290356Y466184D01*
X290312Y466217D01*
X290230Y466248D01*
X290153Y466288D01*
X290105Y466296D01*
X290047Y466318D01*
X289899Y466330D01*
X289821Y466343D01*
X284535Y466343D01*
X284533Y466343D01*
X284531Y466343D01*
X284392Y466323D01*
X284253Y466303D01*
X284252Y466303D01*
X284250Y466303D01*
X284124Y466246D01*
X283994Y466187D01*
X283992Y466186D01*
X283991Y466185D01*
X283883Y466093D01*
X283777Y466004D01*
X283776Y466002D01*
X283775Y466001D01*
X283766Y465988D01*
X283619Y465767D01*
X283610Y465738D01*
X283597Y465717D01*
X283081Y464473D01*
X281017Y462409D01*
X278320Y461291D01*
X275400Y461291D01*
X272703Y462409D01*
X270639Y464473D01*
X269521Y467170D01*
X269521Y469392D01*
X269513Y469450D01*
X269515Y469508D01*
X269493Y469590D01*
X269481Y469674D01*
X269458Y469727D01*
X269443Y469783D01*
X269400Y469856D01*
X269365Y469933D01*
X269327Y469978D01*
X269298Y470028D01*
X269236Y470086D01*
X269182Y470150D01*
X269133Y470182D01*
X269090Y470222D01*
X269015Y470261D01*
X268945Y470308D01*
X268889Y470325D01*
X268837Y470352D01*
X268769Y470363D01*
X268674Y470393D01*
X268574Y470396D01*
X268506Y470407D01*
X258238Y470407D01*
X253709Y474936D01*
X253640Y474988D01*
X253576Y475048D01*
X253526Y475074D01*
X253482Y475107D01*
X253400Y475138D01*
X253323Y475178D01*
X253275Y475186D01*
X253217Y475208D01*
X253069Y475220D01*
X252991Y475233D01*
X228180Y475233D01*
X228150Y475229D01*
X228119Y475231D01*
X228042Y475214D01*
X227899Y475193D01*
X227840Y475167D01*
X227792Y475156D01*
X224980Y473991D01*
X222060Y473991D01*
X219363Y475109D01*
X217299Y477173D01*
X216181Y479870D01*
X216181Y482832D01*
X216215Y482940D01*
X216216Y482968D01*
X216223Y482995D01*
X216220Y483110D01*
X216223Y483224D01*
X216216Y483251D01*
X216215Y483279D01*
X216180Y483388D01*
X216151Y483499D01*
X216137Y483523D01*
X216128Y483550D01*
X216064Y483645D01*
X216006Y483744D01*
X215986Y483763D01*
X215970Y483786D01*
X215882Y483860D01*
X215798Y483938D01*
X215774Y483951D01*
X215753Y483969D01*
X215647Y484016D01*
X215545Y484068D01*
X215521Y484072D01*
X215493Y484084D01*
X215228Y484121D01*
X215214Y484123D01*
X201987Y484123D01*
X199746Y485051D01*
X193098Y491700D01*
X193028Y491752D01*
X192964Y491812D01*
X192915Y491838D01*
X192871Y491871D01*
X192789Y491902D01*
X192711Y491942D01*
X192664Y491950D01*
X192605Y491972D01*
X192457Y491984D01*
X192380Y491997D01*
X183640Y491997D01*
X183639Y491997D01*
X183637Y491997D01*
X183496Y491977D01*
X183359Y491957D01*
X183357Y491957D01*
X183356Y491957D01*
X183228Y491899D01*
X183099Y491841D01*
X183098Y491840D01*
X183097Y491839D01*
X182990Y491748D01*
X182882Y491658D01*
X182881Y491656D01*
X182880Y491655D01*
X182872Y491642D01*
X182725Y491421D01*
X182716Y491392D01*
X182702Y491371D01*
X181953Y489560D01*
X163474Y471081D01*
X161233Y470153D01*
X123755Y470153D01*
X121514Y471081D01*
X119657Y472939D01*
X87942Y504654D01*
X87872Y504706D01*
X87808Y504766D01*
X87759Y504792D01*
X87715Y504825D01*
X87633Y504856D01*
X87555Y504896D01*
X87508Y504904D01*
X87449Y504926D01*
X87301Y504938D01*
X87224Y504951D01*
X78448Y504951D01*
X74153Y506730D01*
X70821Y510062D01*
X70765Y510157D01*
X70764Y510159D01*
X70763Y510160D01*
X70662Y510255D01*
X70558Y510353D01*
X70557Y510353D01*
X70556Y510354D01*
X70428Y510420D01*
X70306Y510483D01*
X70304Y510483D01*
X70303Y510484D01*
X70287Y510486D01*
X70027Y510538D01*
X69996Y510535D01*
X69972Y510539D01*
X34168Y510539D01*
X34167Y510539D01*
X34165Y510539D01*
X34022Y510519D01*
X33887Y510499D01*
X33885Y510499D01*
X33884Y510499D01*
X33755Y510440D01*
X33628Y510383D01*
X33626Y510382D01*
X33625Y510381D01*
X33518Y510290D01*
X33411Y510200D01*
X33410Y510198D01*
X33408Y510197D01*
X33400Y510183D01*
X33319Y510063D01*
X29987Y506730D01*
X25692Y504951D01*
X13424Y504951D01*
X9129Y506730D01*
X7068Y508791D01*
X7044Y508809D01*
X7026Y508831D01*
X6931Y508894D01*
X6841Y508962D01*
X6813Y508973D01*
X6789Y508989D01*
X6681Y509023D01*
X6575Y509064D01*
X6546Y509066D01*
X6518Y509075D01*
X6404Y509078D01*
X6292Y509087D01*
X6263Y509081D01*
X6234Y509082D01*
X6124Y509053D01*
X6013Y509031D01*
X5987Y509018D01*
X5959Y509010D01*
X5861Y508952D01*
X5761Y508900D01*
X5739Y508880D01*
X5714Y508865D01*
X5637Y508782D01*
X5555Y508704D01*
X5540Y508679D01*
X5520Y508658D01*
X5468Y508557D01*
X5411Y508459D01*
X5404Y508431D01*
X5390Y508405D01*
X5377Y508327D01*
X5341Y508184D01*
X5343Y508121D01*
X5335Y508074D01*
X5335Y477502D01*
X5350Y477395D01*
X5358Y477286D01*
X5370Y477254D01*
X5375Y477221D01*
X5419Y477122D01*
X5457Y477020D01*
X5477Y476992D01*
X5491Y476962D01*
X5561Y476879D01*
X5626Y476791D01*
X5653Y476770D01*
X5675Y476745D01*
X5765Y476684D01*
X5851Y476618D01*
X5883Y476606D01*
X5911Y476587D01*
X6015Y476554D01*
X6116Y476514D01*
X6150Y476511D01*
X6182Y476501D01*
X6291Y476498D01*
X6399Y476488D01*
X6432Y476495D01*
X6466Y476494D01*
X6572Y476521D01*
X6678Y476542D01*
X6709Y476557D01*
X6741Y476566D01*
X6835Y476621D01*
X6932Y476670D01*
X6954Y476692D01*
X6986Y476711D01*
X7136Y476871D01*
X7171Y476906D01*
X7998Y478043D01*
X9129Y479174D01*
X10423Y480114D01*
X11848Y480840D01*
X13369Y481335D01*
X14948Y481585D01*
X17527Y481585D01*
X17527Y473455D01*
X6350Y473455D01*
X6292Y473447D01*
X6234Y473449D01*
X6152Y473427D01*
X6069Y473415D01*
X6015Y473391D01*
X5959Y473377D01*
X5886Y473334D01*
X5809Y473299D01*
X5764Y473261D01*
X5714Y473231D01*
X5656Y473170D01*
X5592Y473115D01*
X5560Y473067D01*
X5520Y473024D01*
X5481Y472949D01*
X5435Y472879D01*
X5417Y472823D01*
X5390Y472771D01*
X5379Y472703D01*
X5349Y472608D01*
X5346Y472508D01*
X5335Y472440D01*
X5335Y470408D01*
X5343Y470350D01*
X5341Y470292D01*
X5363Y470210D01*
X5375Y470127D01*
X5399Y470073D01*
X5413Y470017D01*
X5456Y469944D01*
X5491Y469867D01*
X5529Y469822D01*
X5559Y469772D01*
X5620Y469714D01*
X5675Y469650D01*
X5723Y469618D01*
X5766Y469578D01*
X5841Y469539D01*
X5911Y469493D01*
X5967Y469475D01*
X6019Y469448D01*
X6087Y469437D01*
X6182Y469407D01*
X6282Y469404D01*
X6350Y469393D01*
X17527Y469393D01*
X17527Y461263D01*
X14948Y461263D01*
X13369Y461513D01*
X11848Y462008D01*
X10423Y462734D01*
X9129Y463674D01*
X7998Y464805D01*
X7171Y465942D01*
X7096Y466020D01*
X7026Y466103D01*
X6997Y466122D01*
X6974Y466147D01*
X6879Y466201D01*
X6789Y466261D01*
X6757Y466271D01*
X6727Y466288D01*
X6621Y466314D01*
X6518Y466347D01*
X6484Y466348D01*
X6451Y466356D01*
X6342Y466351D01*
X6234Y466354D01*
X6201Y466346D01*
X6167Y466344D01*
X6064Y466310D01*
X5959Y466282D01*
X5930Y466265D01*
X5897Y466254D01*
X5808Y466193D01*
X5714Y466137D01*
X5691Y466112D01*
X5663Y466093D01*
X5594Y466009D01*
X5520Y465930D01*
X5504Y465900D01*
X5483Y465873D01*
X5440Y465774D01*
X5390Y465677D01*
X5385Y465647D01*
X5370Y465612D01*
X5343Y465395D01*
X5335Y465346D01*
X5335Y10000D01*
X5343Y9944D01*
X5340Y9900D01*
X5410Y9188D01*
X5477Y8912D01*
X5481Y8906D01*
X5482Y8899D01*
X5813Y8100D01*
X5829Y8074D01*
X5838Y8044D01*
X5884Y7980D01*
X5958Y7856D01*
X6004Y7811D01*
X6033Y7771D01*
X7771Y6033D01*
X7796Y6015D01*
X7816Y5991D01*
X7883Y5949D01*
X7998Y5862D01*
X8058Y5839D01*
X8100Y5813D01*
X8899Y5482D01*
X9175Y5411D01*
X9182Y5411D01*
X9188Y5410D01*
X9900Y5340D01*
X9956Y5342D01*
X10000Y5335D01*
X130606Y5335D01*
X130691Y5347D01*
G37*
G36*
X650456Y5343D02*
X650456Y5343D01*
X650500Y5340D01*
X651212Y5410D01*
X651488Y5477D01*
X651494Y5481D01*
X651501Y5482D01*
X652816Y6027D01*
X652843Y6043D01*
X652872Y6052D01*
X652936Y6098D01*
X653061Y6172D01*
X653106Y6219D01*
X653146Y6247D01*
X654153Y7254D01*
X654171Y7279D01*
X654195Y7299D01*
X654236Y7366D01*
X654324Y7481D01*
X654347Y7542D01*
X654373Y7584D01*
X654918Y8899D01*
X654989Y9175D01*
X654989Y9182D01*
X654990Y9188D01*
X655060Y9900D01*
X655058Y9957D01*
X655065Y10000D01*
X655065Y26461D01*
X655877Y28422D01*
X657521Y30065D01*
X680168Y52712D01*
X680220Y52782D01*
X680280Y52846D01*
X680306Y52895D01*
X680339Y52940D01*
X680370Y53021D01*
X680410Y53099D01*
X680418Y53147D01*
X680440Y53205D01*
X680452Y53353D01*
X680465Y53430D01*
X680465Y67106D01*
X680453Y67191D01*
X680451Y67277D01*
X680433Y67331D01*
X680425Y67388D01*
X680390Y67466D01*
X680364Y67548D01*
X680332Y67595D01*
X680309Y67647D01*
X680254Y67713D01*
X680206Y67784D01*
X680162Y67821D01*
X680126Y67864D01*
X680054Y67912D01*
X679988Y67967D01*
X679936Y67990D01*
X679889Y68022D01*
X679807Y68048D01*
X679728Y68082D01*
X679672Y68090D01*
X679618Y68107D01*
X679532Y68110D01*
X679447Y68121D01*
X679391Y68113D01*
X679334Y68115D01*
X679251Y68093D01*
X679166Y68081D01*
X679114Y68057D01*
X679059Y68043D01*
X678985Y67999D01*
X678906Y67964D01*
X678863Y67927D01*
X678814Y67898D01*
X678755Y67835D01*
X678690Y67779D01*
X678664Y67737D01*
X678620Y67690D01*
X678554Y67561D01*
X678512Y67495D01*
X677410Y64834D01*
X671766Y59190D01*
X664391Y56135D01*
X656409Y56135D01*
X649034Y59190D01*
X643390Y64834D01*
X640510Y71787D01*
X640466Y71861D01*
X640431Y71940D01*
X640394Y71983D01*
X640365Y72032D01*
X640303Y72091D01*
X640247Y72157D01*
X640200Y72188D01*
X640159Y72227D01*
X640082Y72267D01*
X640011Y72314D01*
X639957Y72331D01*
X639906Y72357D01*
X639822Y72374D01*
X639740Y72400D01*
X639683Y72401D01*
X639627Y72412D01*
X639542Y72405D01*
X639456Y72407D01*
X639401Y72393D01*
X639344Y72388D01*
X639264Y72357D01*
X639181Y72335D01*
X639132Y72306D01*
X639079Y72286D01*
X639010Y72234D01*
X638936Y72190D01*
X638897Y72149D01*
X638852Y72114D01*
X638800Y72046D01*
X638742Y71983D01*
X638716Y71932D01*
X638682Y71887D01*
X638651Y71806D01*
X638612Y71730D01*
X638604Y71681D01*
X638581Y71621D01*
X638571Y71496D01*
X638571Y71494D01*
X638571Y71486D01*
X638570Y71476D01*
X638557Y71399D01*
X638557Y40259D01*
X638557Y40257D01*
X638557Y40256D01*
X638577Y40116D01*
X638597Y39977D01*
X638597Y39976D01*
X638597Y39974D01*
X638654Y39848D01*
X638713Y39718D01*
X638714Y39717D01*
X638715Y39715D01*
X638806Y39608D01*
X638896Y39501D01*
X638898Y39500D01*
X638899Y39499D01*
X638912Y39491D01*
X639133Y39343D01*
X639162Y39334D01*
X639183Y39321D01*
X641331Y38431D01*
X644475Y35287D01*
X646177Y31179D01*
X646177Y19621D01*
X644475Y15513D01*
X641331Y12369D01*
X637223Y10667D01*
X632777Y10667D01*
X628669Y12369D01*
X625525Y15513D01*
X623823Y19621D01*
X623823Y31179D01*
X625525Y35287D01*
X626066Y35828D01*
X626118Y35898D01*
X626178Y35962D01*
X626204Y36011D01*
X626237Y36055D01*
X626268Y36137D01*
X626308Y36215D01*
X626316Y36263D01*
X626338Y36321D01*
X626350Y36469D01*
X626363Y36546D01*
X626363Y81564D01*
X626351Y81651D01*
X626348Y81738D01*
X626331Y81791D01*
X626323Y81845D01*
X626288Y81925D01*
X626261Y82008D01*
X626233Y82048D01*
X626207Y82105D01*
X626111Y82218D01*
X626066Y82282D01*
X622985Y85363D01*
X621283Y89471D01*
X621283Y101029D01*
X622985Y105137D01*
X626066Y108218D01*
X626118Y108288D01*
X626178Y108352D01*
X626204Y108401D01*
X626237Y108445D01*
X626268Y108527D01*
X626308Y108605D01*
X626316Y108653D01*
X626338Y108711D01*
X626350Y108859D01*
X626363Y108936D01*
X626363Y135484D01*
X626351Y135571D01*
X626348Y135658D01*
X626331Y135711D01*
X626323Y135766D01*
X626288Y135845D01*
X626261Y135929D01*
X626233Y135968D01*
X626207Y136025D01*
X626111Y136138D01*
X626066Y136202D01*
X614591Y147676D01*
X613663Y149917D01*
X613663Y157012D01*
X613647Y157126D01*
X613637Y157240D01*
X613627Y157266D01*
X613623Y157294D01*
X613576Y157398D01*
X613535Y157506D01*
X613519Y157528D01*
X613507Y157553D01*
X613433Y157641D01*
X613364Y157732D01*
X613341Y157749D01*
X613324Y157770D01*
X613228Y157834D01*
X613136Y157902D01*
X613110Y157912D01*
X613087Y157928D01*
X612977Y157962D01*
X612870Y158003D01*
X612842Y158005D01*
X612816Y158013D01*
X612701Y158016D01*
X612587Y158026D01*
X612562Y158020D01*
X612532Y158021D01*
X612275Y157954D01*
X612259Y157950D01*
X609283Y156717D01*
X604837Y156717D01*
X600729Y158419D01*
X597585Y161563D01*
X595883Y165671D01*
X595883Y177229D01*
X597585Y181337D01*
X600666Y184418D01*
X600718Y184488D01*
X600778Y184552D01*
X600804Y184601D01*
X600837Y184645D01*
X600868Y184727D01*
X600908Y184805D01*
X600916Y184853D01*
X600938Y184911D01*
X600950Y185059D01*
X600963Y185136D01*
X600963Y186284D01*
X600951Y186371D01*
X600948Y186458D01*
X600931Y186511D01*
X600923Y186566D01*
X600888Y186645D01*
X600861Y186729D01*
X600833Y186768D01*
X600807Y186825D01*
X600711Y186938D01*
X600666Y187002D01*
X589490Y198178D01*
X589466Y198196D01*
X589447Y198218D01*
X589353Y198281D01*
X589263Y198349D01*
X589235Y198359D01*
X589211Y198376D01*
X589103Y198410D01*
X588997Y198450D01*
X588968Y198453D01*
X588940Y198461D01*
X588826Y198464D01*
X588714Y198474D01*
X588685Y198468D01*
X588656Y198469D01*
X588546Y198440D01*
X588435Y198418D01*
X588409Y198404D01*
X588381Y198397D01*
X588283Y198339D01*
X588183Y198287D01*
X588161Y198267D01*
X588136Y198252D01*
X588059Y198169D01*
X587977Y198091D01*
X587962Y198066D01*
X587942Y198044D01*
X587890Y197944D01*
X587833Y197846D01*
X587826Y197817D01*
X587812Y197791D01*
X587799Y197714D01*
X587763Y197570D01*
X587765Y197508D01*
X587757Y197460D01*
X587757Y185136D01*
X587769Y185049D01*
X587772Y184962D01*
X587789Y184909D01*
X587797Y184855D01*
X587832Y184775D01*
X587859Y184692D01*
X587887Y184652D01*
X587913Y184595D01*
X588009Y184482D01*
X588054Y184418D01*
X591135Y181337D01*
X592837Y177229D01*
X592837Y165671D01*
X591135Y161563D01*
X587991Y158419D01*
X584065Y156793D01*
X583966Y156734D01*
X583864Y156681D01*
X583844Y156662D01*
X583820Y156648D01*
X583741Y156565D01*
X583658Y156485D01*
X583644Y156461D01*
X583625Y156441D01*
X583572Y156339D01*
X583514Y156240D01*
X583507Y156213D01*
X583495Y156189D01*
X583472Y156076D01*
X583444Y155965D01*
X583445Y155937D01*
X583440Y155910D01*
X583449Y155795D01*
X583453Y155681D01*
X583462Y155654D01*
X583464Y155626D01*
X583505Y155519D01*
X583541Y155410D01*
X583555Y155390D01*
X583566Y155361D01*
X583727Y155149D01*
X583735Y155137D01*
X612229Y126644D01*
X613157Y124403D01*
X613157Y108936D01*
X613169Y108849D01*
X613172Y108762D01*
X613189Y108709D01*
X613197Y108655D01*
X613232Y108575D01*
X613259Y108492D01*
X613287Y108452D01*
X613313Y108395D01*
X613409Y108282D01*
X613417Y108271D01*
X613426Y108254D01*
X613432Y108249D01*
X613454Y108218D01*
X616535Y105137D01*
X618237Y101029D01*
X618237Y89471D01*
X616535Y85363D01*
X615994Y84822D01*
X615942Y84752D01*
X615882Y84688D01*
X615856Y84639D01*
X615823Y84595D01*
X615792Y84513D01*
X615752Y84435D01*
X615744Y84387D01*
X615722Y84329D01*
X615710Y84181D01*
X615697Y84104D01*
X615697Y39086D01*
X615709Y38999D01*
X615712Y38912D01*
X615729Y38859D01*
X615737Y38805D01*
X615772Y38725D01*
X615799Y38642D01*
X615827Y38602D01*
X615853Y38545D01*
X615949Y38432D01*
X615994Y38368D01*
X619075Y35287D01*
X620777Y31179D01*
X620777Y19621D01*
X619075Y15513D01*
X615931Y12369D01*
X611823Y10667D01*
X607377Y10667D01*
X603269Y12369D01*
X600125Y15513D01*
X598423Y19621D01*
X598423Y31179D01*
X600125Y35287D01*
X603206Y38368D01*
X603258Y38438D01*
X603318Y38502D01*
X603344Y38551D01*
X603377Y38595D01*
X603408Y38677D01*
X603448Y38755D01*
X603456Y38803D01*
X603478Y38861D01*
X603490Y39009D01*
X603503Y39086D01*
X603503Y80391D01*
X603503Y80393D01*
X603503Y80394D01*
X603483Y80531D01*
X603463Y80673D01*
X603463Y80674D01*
X603463Y80676D01*
X603408Y80796D01*
X603347Y80932D01*
X603346Y80933D01*
X603345Y80935D01*
X603254Y81042D01*
X603164Y81149D01*
X603162Y81150D01*
X603161Y81151D01*
X603148Y81159D01*
X602927Y81307D01*
X602898Y81316D01*
X602877Y81329D01*
X600729Y82219D01*
X597585Y85363D01*
X595883Y89471D01*
X595883Y101029D01*
X597585Y105137D01*
X600666Y108218D01*
X600718Y108288D01*
X600778Y108352D01*
X600804Y108401D01*
X600837Y108445D01*
X600868Y108527D01*
X600908Y108605D01*
X600916Y108653D01*
X600938Y108711D01*
X600950Y108859D01*
X600963Y108936D01*
X600963Y120244D01*
X600951Y120331D01*
X600948Y120418D01*
X600931Y120471D01*
X600923Y120526D01*
X600888Y120605D01*
X600861Y120689D01*
X600833Y120728D01*
X600807Y120785D01*
X600711Y120898D01*
X600666Y120962D01*
X563784Y157844D01*
X563769Y157870D01*
X563748Y157925D01*
X563697Y157992D01*
X563654Y158065D01*
X563611Y158105D01*
X563576Y158152D01*
X563508Y158202D01*
X563447Y158260D01*
X563395Y158287D01*
X563348Y158322D01*
X563269Y158352D01*
X563194Y158390D01*
X563137Y158401D01*
X563082Y158422D01*
X562998Y158429D01*
X562915Y158445D01*
X562857Y158440D01*
X562799Y158445D01*
X562732Y158429D01*
X562632Y158421D01*
X562539Y158385D01*
X562472Y158369D01*
X558483Y156717D01*
X554037Y156717D01*
X549895Y158433D01*
X549874Y158453D01*
X549825Y158478D01*
X549780Y158511D01*
X549726Y158532D01*
X549675Y158562D01*
X549646Y158569D01*
X549621Y158582D01*
X549574Y158590D01*
X549515Y158613D01*
X549456Y158617D01*
X549399Y158632D01*
X549335Y158630D01*
X549290Y158637D01*
X549289Y158637D01*
X549262Y158634D01*
X549231Y158636D01*
X549174Y158625D01*
X549115Y158623D01*
X549061Y158605D01*
X549007Y158598D01*
X548982Y158586D01*
X548953Y158580D01*
X548901Y158553D01*
X548845Y158535D01*
X548805Y158507D01*
X548748Y158481D01*
X548726Y158463D01*
X548700Y158449D01*
X548628Y158381D01*
X548571Y158340D01*
X536192Y145961D01*
X533952Y145033D01*
X491896Y145033D01*
X491809Y145021D01*
X491722Y145018D01*
X491669Y145001D01*
X491614Y144993D01*
X491535Y144958D01*
X491451Y144931D01*
X491412Y144903D01*
X491355Y144877D01*
X491242Y144781D01*
X491178Y144736D01*
X461054Y114612D01*
X461002Y114542D01*
X460942Y114478D01*
X460916Y114429D01*
X460883Y114385D01*
X460852Y114303D01*
X460812Y114225D01*
X460804Y114178D01*
X460782Y114119D01*
X460770Y113971D01*
X460757Y113894D01*
X460757Y108936D01*
X460769Y108849D01*
X460772Y108762D01*
X460789Y108709D01*
X460797Y108655D01*
X460832Y108575D01*
X460859Y108492D01*
X460887Y108452D01*
X460913Y108395D01*
X461009Y108282D01*
X461017Y108271D01*
X461026Y108254D01*
X461032Y108249D01*
X461054Y108218D01*
X464135Y105137D01*
X465837Y101029D01*
X465837Y89471D01*
X464135Y85363D01*
X460991Y82219D01*
X458536Y81202D01*
X458462Y81158D01*
X458384Y81123D01*
X458340Y81086D01*
X458291Y81057D01*
X458232Y80995D01*
X458167Y80939D01*
X458135Y80892D01*
X458096Y80851D01*
X458057Y80774D01*
X458009Y80703D01*
X457992Y80649D01*
X457966Y80598D01*
X457949Y80514D01*
X457923Y80432D01*
X457922Y80375D01*
X457911Y80319D01*
X457918Y80234D01*
X457916Y80148D01*
X457930Y80093D01*
X457935Y80036D01*
X457966Y79956D01*
X457988Y79873D01*
X458017Y79824D01*
X458037Y79771D01*
X458089Y79702D01*
X458133Y79628D01*
X458175Y79589D01*
X458209Y79544D01*
X458278Y79492D01*
X458340Y79434D01*
X458391Y79408D01*
X458437Y79374D01*
X458517Y79343D01*
X458594Y79304D01*
X458642Y79296D01*
X458703Y79273D01*
X458847Y79262D01*
X458925Y79249D01*
X464159Y79249D01*
X470409Y72999D01*
X470409Y64161D01*
X464159Y57911D01*
X455321Y57911D01*
X449663Y63569D01*
X449616Y63604D01*
X449576Y63647D01*
X449503Y63689D01*
X449436Y63740D01*
X449381Y63761D01*
X449331Y63791D01*
X449249Y63811D01*
X449170Y63841D01*
X449112Y63846D01*
X449055Y63861D01*
X448971Y63858D01*
X448887Y63865D01*
X448829Y63853D01*
X448771Y63852D01*
X448691Y63826D01*
X448608Y63809D01*
X448556Y63782D01*
X448500Y63764D01*
X448444Y63724D01*
X448356Y63678D01*
X448283Y63609D01*
X448227Y63569D01*
X442569Y57911D01*
X433731Y57911D01*
X427424Y64218D01*
X427354Y64270D01*
X427291Y64330D01*
X427241Y64356D01*
X427197Y64389D01*
X427115Y64420D01*
X427037Y64460D01*
X426990Y64468D01*
X426931Y64490D01*
X426784Y64502D01*
X426706Y64515D01*
X416958Y64515D01*
X416872Y64503D01*
X416784Y64500D01*
X416732Y64483D01*
X416677Y64475D01*
X416597Y64440D01*
X416514Y64413D01*
X416475Y64385D01*
X416418Y64359D01*
X416304Y64263D01*
X416241Y64218D01*
X406080Y54058D01*
X406063Y54034D01*
X406040Y54015D01*
X405978Y53921D01*
X405910Y53831D01*
X405899Y53803D01*
X405883Y53779D01*
X405849Y53671D01*
X405808Y53565D01*
X405806Y53536D01*
X405797Y53508D01*
X405794Y53394D01*
X405785Y53282D01*
X405791Y53253D01*
X405790Y53224D01*
X405818Y53114D01*
X405841Y53003D01*
X405854Y52977D01*
X405862Y52949D01*
X405919Y52851D01*
X405972Y52751D01*
X405992Y52729D01*
X406007Y52704D01*
X406089Y52627D01*
X406167Y52545D01*
X406193Y52530D01*
X406214Y52510D01*
X406315Y52458D01*
X406413Y52401D01*
X406441Y52394D01*
X406467Y52380D01*
X406545Y52367D01*
X406688Y52331D01*
X406751Y52333D01*
X406798Y52325D01*
X453939Y52325D01*
X457300Y50933D01*
X460015Y48217D01*
X464953Y43280D01*
X466345Y39919D01*
X466345Y36038D01*
X466357Y35951D01*
X466360Y35864D01*
X466377Y35811D01*
X466385Y35757D01*
X466420Y35677D01*
X466447Y35594D01*
X466475Y35554D01*
X466501Y35497D01*
X466597Y35384D01*
X466642Y35320D01*
X466675Y35287D01*
X468377Y31179D01*
X468377Y19621D01*
X466675Y15513D01*
X463531Y12369D01*
X459423Y10667D01*
X454977Y10667D01*
X450869Y12369D01*
X447725Y15513D01*
X446023Y19621D01*
X446023Y31179D01*
X446625Y32631D01*
X446653Y32743D01*
X446688Y32852D01*
X446689Y32880D01*
X446696Y32907D01*
X446693Y33021D01*
X446695Y33136D01*
X446688Y33163D01*
X446688Y33191D01*
X446653Y33300D01*
X446624Y33411D01*
X446609Y33435D01*
X446601Y33462D01*
X446537Y33557D01*
X446478Y33656D01*
X446458Y33675D01*
X446443Y33698D01*
X446355Y33772D01*
X446271Y33850D01*
X446246Y33863D01*
X446225Y33881D01*
X446120Y33927D01*
X446018Y33980D01*
X445993Y33984D01*
X445965Y33996D01*
X445702Y34033D01*
X445687Y34035D01*
X441697Y34035D01*
X441622Y34025D01*
X441547Y34024D01*
X441482Y34005D01*
X441415Y33995D01*
X441346Y33965D01*
X441274Y33943D01*
X441217Y33907D01*
X441156Y33879D01*
X441098Y33831D01*
X441035Y33790D01*
X440990Y33739D01*
X440939Y33696D01*
X440897Y33633D01*
X440847Y33576D01*
X440818Y33515D01*
X440781Y33459D01*
X440758Y33387D01*
X440726Y33319D01*
X440716Y33252D01*
X440695Y33188D01*
X440693Y33113D01*
X440681Y33038D01*
X440690Y32981D01*
X440688Y32904D01*
X440720Y32783D01*
X440731Y32706D01*
X441215Y31216D01*
X441453Y29716D01*
X441453Y27431D01*
X432816Y27431D01*
X432758Y27423D01*
X432700Y27425D01*
X432618Y27403D01*
X432535Y27391D01*
X432481Y27367D01*
X432425Y27353D01*
X432352Y27310D01*
X432275Y27275D01*
X432231Y27237D01*
X432180Y27207D01*
X432123Y27146D01*
X432058Y27091D01*
X432026Y27043D01*
X431986Y27000D01*
X431947Y26925D01*
X431901Y26855D01*
X431883Y26799D01*
X431856Y26747D01*
X431845Y26679D01*
X431815Y26584D01*
X431812Y26484D01*
X431801Y26416D01*
X431801Y25399D01*
X431799Y25399D01*
X431799Y26416D01*
X431791Y26474D01*
X431792Y26532D01*
X431771Y26614D01*
X431759Y26697D01*
X431735Y26751D01*
X431721Y26807D01*
X431678Y26880D01*
X431643Y26957D01*
X431605Y27002D01*
X431575Y27052D01*
X431514Y27110D01*
X431459Y27174D01*
X431411Y27206D01*
X431368Y27246D01*
X431293Y27285D01*
X431223Y27331D01*
X431167Y27349D01*
X431115Y27376D01*
X431047Y27387D01*
X430952Y27417D01*
X430852Y27420D01*
X430784Y27431D01*
X422147Y27431D01*
X422147Y29716D01*
X422385Y31216D01*
X422869Y32706D01*
X422882Y32780D01*
X422905Y32852D01*
X422906Y32920D01*
X422918Y32986D01*
X422910Y33061D01*
X422912Y33136D01*
X422895Y33202D01*
X422888Y33269D01*
X422859Y33339D01*
X422840Y33411D01*
X422806Y33469D01*
X422780Y33532D01*
X422733Y33591D01*
X422695Y33656D01*
X422646Y33702D01*
X422604Y33755D01*
X422543Y33799D01*
X422488Y33850D01*
X422427Y33881D01*
X422373Y33920D01*
X422302Y33946D01*
X422235Y33980D01*
X422178Y33989D01*
X422104Y34015D01*
X421979Y34023D01*
X421903Y34035D01*
X416297Y34035D01*
X416222Y34025D01*
X416147Y34024D01*
X416082Y34005D01*
X416015Y33995D01*
X415946Y33965D01*
X415874Y33943D01*
X415817Y33907D01*
X415756Y33879D01*
X415698Y33831D01*
X415635Y33790D01*
X415590Y33739D01*
X415539Y33696D01*
X415497Y33633D01*
X415447Y33576D01*
X415418Y33515D01*
X415381Y33459D01*
X415358Y33387D01*
X415326Y33319D01*
X415316Y33252D01*
X415295Y33188D01*
X415293Y33113D01*
X415281Y33038D01*
X415290Y32981D01*
X415288Y32904D01*
X415320Y32783D01*
X415331Y32706D01*
X415815Y31216D01*
X416053Y29716D01*
X416053Y27431D01*
X407416Y27431D01*
X407358Y27423D01*
X407300Y27425D01*
X407218Y27403D01*
X407135Y27391D01*
X407081Y27367D01*
X407025Y27353D01*
X406952Y27310D01*
X406875Y27275D01*
X406831Y27237D01*
X406780Y27207D01*
X406723Y27146D01*
X406658Y27091D01*
X406626Y27043D01*
X406586Y27000D01*
X406547Y26925D01*
X406501Y26855D01*
X406483Y26799D01*
X406456Y26747D01*
X406445Y26679D01*
X406415Y26584D01*
X406412Y26484D01*
X406401Y26416D01*
X406401Y25399D01*
X406399Y25399D01*
X406399Y26416D01*
X406391Y26474D01*
X406392Y26532D01*
X406371Y26614D01*
X406359Y26697D01*
X406335Y26751D01*
X406321Y26807D01*
X406278Y26880D01*
X406243Y26957D01*
X406205Y27002D01*
X406175Y27052D01*
X406114Y27110D01*
X406059Y27174D01*
X406011Y27206D01*
X405968Y27246D01*
X405893Y27285D01*
X405823Y27331D01*
X405767Y27349D01*
X405715Y27376D01*
X405647Y27387D01*
X405552Y27417D01*
X405452Y27420D01*
X405384Y27431D01*
X396747Y27431D01*
X396747Y29716D01*
X396985Y31216D01*
X397454Y32661D01*
X397669Y33083D01*
X397701Y33176D01*
X397741Y33265D01*
X397747Y33310D01*
X397762Y33352D01*
X397766Y33450D01*
X397780Y33547D01*
X397773Y33591D01*
X397776Y33636D01*
X397753Y33731D01*
X397739Y33828D01*
X397721Y33869D01*
X397711Y33912D01*
X397662Y33998D01*
X397622Y34087D01*
X397593Y34121D01*
X397571Y34160D01*
X397501Y34229D01*
X397438Y34304D01*
X397404Y34325D01*
X397369Y34360D01*
X397215Y34443D01*
X397153Y34482D01*
X394870Y35427D01*
X392297Y38000D01*
X392213Y38205D01*
X392154Y38304D01*
X392101Y38406D01*
X392082Y38426D01*
X392068Y38450D01*
X391985Y38528D01*
X391905Y38612D01*
X391881Y38626D01*
X391861Y38645D01*
X391759Y38697D01*
X391660Y38755D01*
X391633Y38762D01*
X391609Y38775D01*
X391496Y38797D01*
X391385Y38826D01*
X391357Y38825D01*
X391330Y38830D01*
X391215Y38820D01*
X391100Y38816D01*
X391074Y38808D01*
X391047Y38806D01*
X390939Y38764D01*
X390830Y38729D01*
X390810Y38715D01*
X390781Y38704D01*
X390568Y38542D01*
X390557Y38534D01*
X390442Y38419D01*
X390389Y38350D01*
X390330Y38286D01*
X390304Y38236D01*
X390271Y38192D01*
X390240Y38110D01*
X390200Y38033D01*
X390192Y37985D01*
X390170Y37926D01*
X390158Y37779D01*
X390145Y37702D01*
X390145Y36038D01*
X390157Y35951D01*
X390160Y35864D01*
X390177Y35811D01*
X390185Y35757D01*
X390220Y35677D01*
X390247Y35594D01*
X390275Y35554D01*
X390301Y35497D01*
X390397Y35384D01*
X390442Y35320D01*
X390475Y35287D01*
X392177Y31179D01*
X392177Y19621D01*
X390475Y15513D01*
X387331Y12369D01*
X383223Y10667D01*
X378777Y10667D01*
X374669Y12369D01*
X373808Y13230D01*
X373761Y13265D01*
X373721Y13307D01*
X373648Y13350D01*
X373581Y13401D01*
X373526Y13422D01*
X373476Y13451D01*
X373394Y13472D01*
X373315Y13502D01*
X373257Y13507D01*
X373200Y13521D01*
X373116Y13519D01*
X373032Y13526D01*
X372974Y13514D01*
X372916Y13512D01*
X372836Y13486D01*
X372753Y13470D01*
X372701Y13443D01*
X372645Y13425D01*
X372589Y13385D01*
X372501Y13339D01*
X372428Y13270D01*
X372372Y13230D01*
X371611Y12469D01*
X366210Y7068D01*
X366192Y7044D01*
X366170Y7026D01*
X366107Y6931D01*
X366039Y6841D01*
X366029Y6813D01*
X366012Y6789D01*
X365978Y6681D01*
X365938Y6575D01*
X365935Y6546D01*
X365927Y6518D01*
X365924Y6404D01*
X365914Y6292D01*
X365920Y6263D01*
X365919Y6234D01*
X365948Y6124D01*
X365970Y6013D01*
X365984Y5987D01*
X365991Y5959D01*
X366049Y5861D01*
X366101Y5761D01*
X366121Y5739D01*
X366136Y5714D01*
X366219Y5637D01*
X366297Y5555D01*
X366322Y5540D01*
X366344Y5520D01*
X366445Y5468D01*
X366542Y5411D01*
X366571Y5404D01*
X366597Y5390D01*
X366674Y5377D01*
X366818Y5341D01*
X366880Y5343D01*
X366928Y5335D01*
X650400Y5335D01*
X650456Y5343D01*
G37*
G36*
X679480Y84288D02*
X679480Y84288D01*
X679566Y84285D01*
X679621Y84300D01*
X679678Y84305D01*
X679758Y84335D01*
X679841Y84357D01*
X679890Y84386D01*
X679943Y84407D01*
X680012Y84458D01*
X680086Y84502D01*
X680125Y84544D01*
X680170Y84578D01*
X680221Y84647D01*
X680280Y84710D01*
X680306Y84760D01*
X680340Y84806D01*
X680371Y84886D01*
X680410Y84963D01*
X680418Y85012D01*
X680441Y85072D01*
X680452Y85217D01*
X680465Y85294D01*
X680465Y346506D01*
X680458Y346557D01*
X680459Y346575D01*
X680453Y346596D01*
X680451Y346677D01*
X680433Y346731D01*
X680425Y346788D01*
X680390Y346866D01*
X680364Y346948D01*
X680332Y346995D01*
X680309Y347047D01*
X680254Y347113D01*
X680206Y347184D01*
X680162Y347221D01*
X680126Y347264D01*
X680054Y347312D01*
X679988Y347367D01*
X679936Y347390D01*
X679889Y347422D01*
X679807Y347448D01*
X679728Y347482D01*
X679672Y347490D01*
X679618Y347507D01*
X679532Y347510D01*
X679447Y347521D01*
X679391Y347513D01*
X679334Y347515D01*
X679251Y347493D01*
X679166Y347481D01*
X679114Y347457D01*
X679059Y347443D01*
X678985Y347399D01*
X678906Y347364D01*
X678863Y347327D01*
X678814Y347298D01*
X678755Y347235D01*
X678690Y347179D01*
X678664Y347137D01*
X678620Y347090D01*
X678554Y346961D01*
X678512Y346895D01*
X677410Y344234D01*
X673012Y339836D01*
X672960Y339766D01*
X672900Y339703D01*
X672874Y339653D01*
X672841Y339609D01*
X672810Y339527D01*
X672770Y339449D01*
X672762Y339402D01*
X672740Y339343D01*
X672728Y339196D01*
X672715Y339118D01*
X672715Y320266D01*
X670666Y318218D01*
X670631Y318171D01*
X670589Y318131D01*
X670546Y318058D01*
X670495Y317991D01*
X670475Y317936D01*
X670445Y317886D01*
X670424Y317804D01*
X670394Y317725D01*
X670389Y317667D01*
X670375Y317610D01*
X670378Y317526D01*
X670371Y317442D01*
X670382Y317384D01*
X670384Y317326D01*
X670410Y317246D01*
X670426Y317163D01*
X670453Y317111D01*
X670471Y317055D01*
X670512Y316999D01*
X670557Y316911D01*
X670626Y316838D01*
X670666Y316782D01*
X672715Y314734D01*
X672715Y294866D01*
X670334Y292485D01*
X654812Y292485D01*
X654754Y292477D01*
X654696Y292479D01*
X654614Y292457D01*
X654530Y292445D01*
X654477Y292422D01*
X654421Y292407D01*
X654348Y292364D01*
X654271Y292329D01*
X654226Y292291D01*
X654176Y292262D01*
X654118Y292200D01*
X654054Y292146D01*
X654022Y292097D01*
X653982Y292054D01*
X653943Y291979D01*
X653896Y291909D01*
X653879Y291853D01*
X653852Y291801D01*
X653841Y291733D01*
X653811Y291638D01*
X653808Y291538D01*
X653797Y291470D01*
X653797Y289416D01*
X653801Y289387D01*
X653798Y289358D01*
X653821Y289247D01*
X653837Y289135D01*
X653849Y289108D01*
X653854Y289079D01*
X653906Y288979D01*
X653953Y288875D01*
X653972Y288853D01*
X653985Y288827D01*
X654063Y288745D01*
X654136Y288658D01*
X654161Y288642D01*
X654181Y288621D01*
X654279Y288564D01*
X654373Y288501D01*
X654401Y288492D01*
X654426Y288477D01*
X654536Y288449D01*
X654644Y288415D01*
X654673Y288414D01*
X654702Y288407D01*
X654815Y288411D01*
X654928Y288408D01*
X654957Y288415D01*
X654986Y288416D01*
X655094Y288451D01*
X655203Y288480D01*
X655229Y288495D01*
X655257Y288504D01*
X655320Y288549D01*
X655448Y288625D01*
X655491Y288670D01*
X655497Y288675D01*
X665294Y288675D01*
X672215Y281754D01*
X672215Y271966D01*
X665126Y264878D01*
X665091Y264831D01*
X665049Y264791D01*
X665006Y264718D01*
X664956Y264651D01*
X664935Y264596D01*
X664905Y264546D01*
X664884Y264464D01*
X664854Y264385D01*
X664849Y264327D01*
X664835Y264270D01*
X664838Y264186D01*
X664831Y264102D01*
X664842Y264044D01*
X664844Y263986D01*
X664870Y263906D01*
X664887Y263823D01*
X664914Y263771D01*
X664932Y263715D01*
X664972Y263659D01*
X665018Y263571D01*
X665086Y263498D01*
X665126Y263442D01*
X672215Y256354D01*
X672215Y246566D01*
X665294Y239645D01*
X655506Y239645D01*
X654498Y240653D01*
X654407Y240722D01*
X654319Y240796D01*
X654293Y240807D01*
X654271Y240824D01*
X654164Y240865D01*
X654059Y240911D01*
X654031Y240915D01*
X654006Y240925D01*
X653891Y240935D01*
X653777Y240950D01*
X653750Y240946D01*
X653722Y240949D01*
X653610Y240926D01*
X653496Y240910D01*
X653471Y240898D01*
X653444Y240893D01*
X653342Y240840D01*
X653237Y240793D01*
X653216Y240775D01*
X653191Y240762D01*
X653108Y240683D01*
X653020Y240608D01*
X653007Y240587D01*
X652985Y240566D01*
X652896Y240414D01*
X651011Y238529D01*
X645843Y233361D01*
X645808Y233314D01*
X645766Y233274D01*
X645723Y233201D01*
X645672Y233134D01*
X645651Y233079D01*
X645622Y233029D01*
X645601Y232947D01*
X645571Y232868D01*
X645566Y232810D01*
X645552Y232753D01*
X645555Y232669D01*
X645548Y232585D01*
X645559Y232528D01*
X645561Y232469D01*
X645587Y232389D01*
X645603Y232306D01*
X645630Y232254D01*
X645648Y232199D01*
X645688Y232142D01*
X645734Y232054D01*
X645803Y231982D01*
X645843Y231925D01*
X646815Y230954D01*
X646815Y221166D01*
X642033Y216385D01*
X641998Y216338D01*
X641956Y216298D01*
X641913Y216225D01*
X641862Y216157D01*
X641841Y216103D01*
X641812Y216052D01*
X641791Y215971D01*
X641761Y215892D01*
X641756Y215833D01*
X641742Y215777D01*
X641745Y215693D01*
X641738Y215608D01*
X641749Y215551D01*
X641751Y215493D01*
X641777Y215412D01*
X641793Y215330D01*
X641820Y215278D01*
X641838Y215222D01*
X641878Y215166D01*
X641924Y215077D01*
X641993Y215005D01*
X642033Y214949D01*
X645356Y211626D01*
X645426Y211574D01*
X645490Y211514D01*
X645539Y211488D01*
X645583Y211455D01*
X645665Y211424D01*
X645743Y211384D01*
X645790Y211376D01*
X645849Y211354D01*
X645997Y211342D01*
X646074Y211329D01*
X651002Y211329D01*
X651060Y211337D01*
X651118Y211335D01*
X651200Y211357D01*
X651284Y211369D01*
X651337Y211392D01*
X651393Y211407D01*
X651466Y211450D01*
X651543Y211485D01*
X651588Y211523D01*
X651638Y211552D01*
X651696Y211614D01*
X651760Y211668D01*
X651792Y211717D01*
X651832Y211760D01*
X651871Y211835D01*
X651918Y211905D01*
X651935Y211961D01*
X651962Y212013D01*
X651973Y212081D01*
X652003Y212176D01*
X652006Y212276D01*
X652017Y212344D01*
X652017Y212932D01*
X653505Y214420D01*
X654260Y215175D01*
X654313Y215245D01*
X654372Y215308D01*
X654398Y215358D01*
X654431Y215402D01*
X654462Y215484D01*
X654502Y215561D01*
X654510Y215609D01*
X654532Y215667D01*
X654544Y215815D01*
X654557Y215893D01*
X654557Y216929D01*
X654545Y217016D01*
X654542Y217103D01*
X654525Y217156D01*
X654517Y217210D01*
X654482Y217290D01*
X654455Y217373D01*
X654427Y217413D01*
X654401Y217470D01*
X654305Y217583D01*
X654260Y217647D01*
X650109Y221797D01*
X650109Y224029D01*
X659384Y224029D01*
X659442Y224037D01*
X659500Y224035D01*
X659582Y224057D01*
X659665Y224069D01*
X659719Y224093D01*
X659775Y224107D01*
X659848Y224150D01*
X659925Y224185D01*
X659969Y224223D01*
X660020Y224253D01*
X660077Y224314D01*
X660142Y224369D01*
X660174Y224417D01*
X660214Y224460D01*
X660253Y224535D01*
X660299Y224605D01*
X660317Y224661D01*
X660344Y224713D01*
X660355Y224781D01*
X660385Y224876D01*
X660388Y224976D01*
X660399Y225044D01*
X660399Y226061D01*
X660401Y226061D01*
X660401Y225044D01*
X660409Y224986D01*
X660408Y224928D01*
X660429Y224846D01*
X660441Y224763D01*
X660465Y224709D01*
X660479Y224653D01*
X660522Y224580D01*
X660557Y224503D01*
X660595Y224458D01*
X660625Y224408D01*
X660686Y224350D01*
X660741Y224286D01*
X660789Y224254D01*
X660832Y224214D01*
X660907Y224175D01*
X660977Y224129D01*
X661033Y224111D01*
X661085Y224084D01*
X661153Y224073D01*
X661248Y224043D01*
X661348Y224040D01*
X661416Y224029D01*
X670691Y224029D01*
X670691Y221797D01*
X664663Y215769D01*
X664586Y215769D01*
X664557Y215765D01*
X664528Y215768D01*
X664417Y215745D01*
X664305Y215729D01*
X664278Y215717D01*
X664249Y215712D01*
X664149Y215659D01*
X664046Y215613D01*
X664023Y215594D01*
X663997Y215581D01*
X663915Y215503D01*
X663829Y215430D01*
X663812Y215405D01*
X663791Y215385D01*
X663734Y215287D01*
X663671Y215193D01*
X663662Y215165D01*
X663647Y215140D01*
X663619Y215030D01*
X663585Y214922D01*
X663584Y214892D01*
X663577Y214864D01*
X663581Y214751D01*
X663578Y214638D01*
X663585Y214609D01*
X663586Y214580D01*
X663621Y214472D01*
X663650Y214363D01*
X663665Y214337D01*
X663674Y214309D01*
X663703Y214269D01*
X663703Y211248D01*
X662512Y210057D01*
X655842Y210057D01*
X655813Y210053D01*
X655783Y210056D01*
X655672Y210033D01*
X655560Y210017D01*
X655533Y210005D01*
X655505Y210000D01*
X655404Y209948D01*
X655301Y209901D01*
X655278Y209882D01*
X655252Y209869D01*
X655170Y209791D01*
X655084Y209718D01*
X655067Y209693D01*
X655046Y209673D01*
X654989Y209575D01*
X654926Y209481D01*
X654917Y209453D01*
X654902Y209428D01*
X654875Y209318D01*
X654840Y209210D01*
X654840Y209180D01*
X654832Y209152D01*
X654836Y209039D01*
X654833Y208926D01*
X654840Y208897D01*
X654841Y208868D01*
X654876Y208760D01*
X654905Y208651D01*
X654920Y208625D01*
X654929Y208597D01*
X654974Y208534D01*
X655050Y208406D01*
X655096Y208363D01*
X655124Y208324D01*
X658369Y205079D01*
X658369Y196241D01*
X652119Y189991D01*
X646074Y189991D01*
X645987Y189979D01*
X645900Y189976D01*
X645847Y189959D01*
X645792Y189951D01*
X645713Y189916D01*
X645629Y189889D01*
X645590Y189861D01*
X645533Y189835D01*
X645420Y189739D01*
X645356Y189694D01*
X640185Y184523D01*
X640150Y184476D01*
X640108Y184436D01*
X640065Y184363D01*
X640014Y184296D01*
X639993Y184241D01*
X639964Y184191D01*
X639943Y184109D01*
X639913Y184030D01*
X639908Y183972D01*
X639894Y183915D01*
X639896Y183831D01*
X639889Y183747D01*
X639901Y183690D01*
X639903Y183631D01*
X639929Y183551D01*
X639945Y183468D01*
X639972Y183416D01*
X639990Y183361D01*
X640030Y183304D01*
X640076Y183216D01*
X640145Y183143D01*
X640185Y183087D01*
X641935Y181337D01*
X643637Y177229D01*
X643637Y165671D01*
X641935Y161563D01*
X638791Y158419D01*
X634683Y156717D01*
X630237Y156717D01*
X627261Y157950D01*
X627149Y157979D01*
X627040Y158013D01*
X627012Y158014D01*
X626985Y158021D01*
X626871Y158018D01*
X626756Y158021D01*
X626729Y158014D01*
X626701Y158013D01*
X626592Y157978D01*
X626481Y157949D01*
X626457Y157935D01*
X626430Y157926D01*
X626335Y157862D01*
X626236Y157804D01*
X626217Y157783D01*
X626194Y157768D01*
X626120Y157680D01*
X626042Y157596D01*
X626029Y157572D01*
X626011Y157550D01*
X625965Y157446D01*
X625912Y157343D01*
X625908Y157319D01*
X625896Y157291D01*
X625859Y157027D01*
X625857Y157012D01*
X625857Y154076D01*
X625869Y153989D01*
X625872Y153902D01*
X625889Y153849D01*
X625897Y153794D01*
X625932Y153715D01*
X625959Y153631D01*
X625987Y153592D01*
X626013Y153535D01*
X626109Y153422D01*
X626154Y153358D01*
X637629Y141884D01*
X638557Y139643D01*
X638557Y108936D01*
X638569Y108849D01*
X638572Y108762D01*
X638589Y108709D01*
X638597Y108655D01*
X638632Y108575D01*
X638659Y108492D01*
X638687Y108452D01*
X638713Y108395D01*
X638809Y108282D01*
X638817Y108271D01*
X638826Y108254D01*
X638832Y108249D01*
X638854Y108218D01*
X641935Y105137D01*
X643637Y101029D01*
X643637Y90264D01*
X643641Y90234D01*
X643638Y90205D01*
X643661Y90094D01*
X643677Y89982D01*
X643689Y89955D01*
X643694Y89927D01*
X643746Y89826D01*
X643793Y89723D01*
X643812Y89700D01*
X643825Y89674D01*
X643903Y89592D01*
X643976Y89506D01*
X644001Y89489D01*
X644021Y89468D01*
X644119Y89411D01*
X644213Y89348D01*
X644241Y89339D01*
X644266Y89324D01*
X644376Y89297D01*
X644484Y89262D01*
X644514Y89262D01*
X644542Y89254D01*
X644655Y89258D01*
X644768Y89255D01*
X644797Y89262D01*
X644826Y89263D01*
X644934Y89298D01*
X645043Y89327D01*
X645069Y89342D01*
X645097Y89351D01*
X645160Y89396D01*
X645288Y89472D01*
X645331Y89518D01*
X645370Y89546D01*
X649034Y93210D01*
X656409Y96265D01*
X664391Y96265D01*
X671766Y93210D01*
X677410Y87566D01*
X678512Y84905D01*
X678556Y84831D01*
X678591Y84753D01*
X678628Y84710D01*
X678657Y84661D01*
X678719Y84602D01*
X678775Y84536D01*
X678822Y84504D01*
X678863Y84465D01*
X678940Y84426D01*
X679011Y84378D01*
X679065Y84361D01*
X679116Y84335D01*
X679200Y84319D01*
X679282Y84293D01*
X679339Y84291D01*
X679395Y84280D01*
X679480Y84288D01*
G37*
%LPC*%
G36*
X152640Y265175D02*
X152640Y265175D01*
X145795Y272020D01*
X145795Y281700D01*
X148038Y283943D01*
X148090Y284012D01*
X148150Y284076D01*
X148176Y284126D01*
X148209Y284170D01*
X148240Y284251D01*
X148280Y284329D01*
X148288Y284377D01*
X148310Y284435D01*
X148322Y284583D01*
X148335Y284660D01*
X148335Y378062D01*
X148323Y378148D01*
X148320Y378236D01*
X148303Y378288D01*
X148295Y378343D01*
X148260Y378423D01*
X148233Y378506D01*
X148205Y378545D01*
X148179Y378602D01*
X148083Y378716D01*
X148038Y378779D01*
X141688Y385130D01*
X141664Y385147D01*
X141645Y385170D01*
X141551Y385232D01*
X141461Y385300D01*
X141433Y385311D01*
X141409Y385327D01*
X141301Y385361D01*
X141195Y385402D01*
X141166Y385404D01*
X141138Y385413D01*
X141024Y385416D01*
X140912Y385425D01*
X140883Y385419D01*
X140854Y385420D01*
X140744Y385392D01*
X140633Y385369D01*
X140607Y385356D01*
X140579Y385348D01*
X140481Y385291D01*
X140381Y385238D01*
X140359Y385218D01*
X140334Y385203D01*
X140257Y385121D01*
X140175Y385043D01*
X140160Y385017D01*
X140140Y384996D01*
X140088Y384895D01*
X140031Y384797D01*
X140024Y384769D01*
X140010Y384743D01*
X139997Y384665D01*
X139961Y384522D01*
X139963Y384459D01*
X139955Y384412D01*
X139955Y384301D01*
X132841Y384301D01*
X132841Y391415D01*
X132952Y391415D01*
X132981Y391419D01*
X133010Y391416D01*
X133121Y391439D01*
X133233Y391455D01*
X133260Y391467D01*
X133289Y391472D01*
X133389Y391524D01*
X133493Y391571D01*
X133515Y391590D01*
X133541Y391603D01*
X133623Y391681D01*
X133710Y391754D01*
X133726Y391779D01*
X133747Y391799D01*
X133804Y391897D01*
X133867Y391991D01*
X133876Y392019D01*
X133891Y392044D01*
X133919Y392154D01*
X133953Y392262D01*
X133954Y392292D01*
X133961Y392320D01*
X133957Y392433D01*
X133960Y392546D01*
X133953Y392575D01*
X133952Y392604D01*
X133917Y392712D01*
X133888Y392821D01*
X133873Y392847D01*
X133864Y392875D01*
X133819Y392938D01*
X133743Y393066D01*
X133698Y393109D01*
X133670Y393148D01*
X129859Y396958D01*
X129790Y397010D01*
X129726Y397070D01*
X129676Y397096D01*
X129632Y397129D01*
X129551Y397160D01*
X129473Y397200D01*
X129425Y397208D01*
X129367Y397230D01*
X129219Y397242D01*
X129142Y397255D01*
X112481Y397255D01*
X109120Y398647D01*
X106547Y401220D01*
X105155Y404581D01*
X105155Y408219D01*
X106547Y411580D01*
X109120Y414153D01*
X112481Y415545D01*
X135169Y415545D01*
X138530Y414153D01*
X165233Y387450D01*
X166625Y384089D01*
X166625Y284660D01*
X166637Y284574D01*
X166640Y284486D01*
X166657Y284434D01*
X166665Y284379D01*
X166700Y284299D01*
X166727Y284216D01*
X166755Y284177D01*
X166781Y284120D01*
X166877Y284006D01*
X166922Y283943D01*
X169165Y281700D01*
X169165Y272020D01*
X162320Y265175D01*
X152640Y265175D01*
G37*
%LPD*%
%LPC*%
G36*
X47224Y234441D02*
X47224Y234441D01*
X44322Y237343D01*
X44322Y241447D01*
X44963Y242087D01*
X44998Y242134D01*
X45040Y242174D01*
X45083Y242247D01*
X45134Y242315D01*
X45154Y242369D01*
X45184Y242420D01*
X45205Y242501D01*
X45235Y242580D01*
X45240Y242639D01*
X45254Y242695D01*
X45251Y242779D01*
X45258Y242863D01*
X45247Y242921D01*
X45245Y242979D01*
X45219Y243060D01*
X45203Y243142D01*
X45176Y243194D01*
X45158Y243250D01*
X45118Y243306D01*
X45072Y243395D01*
X45003Y243467D01*
X44963Y243523D01*
X44322Y244164D01*
X44322Y248267D01*
X44519Y248465D01*
X44555Y248511D01*
X44597Y248552D01*
X44640Y248624D01*
X44690Y248692D01*
X44711Y248746D01*
X44741Y248797D01*
X44762Y248878D01*
X44792Y248957D01*
X44796Y249016D01*
X44811Y249072D01*
X44808Y249156D01*
X44815Y249241D01*
X44804Y249298D01*
X44802Y249357D01*
X44776Y249437D01*
X44759Y249519D01*
X44732Y249571D01*
X44714Y249627D01*
X44674Y249683D01*
X44628Y249772D01*
X44559Y249844D01*
X44519Y249900D01*
X44322Y250098D01*
X44322Y257612D01*
X44520Y257809D01*
X44555Y257856D01*
X44597Y257896D01*
X44640Y257969D01*
X44690Y258036D01*
X44711Y258091D01*
X44741Y258141D01*
X44762Y258223D01*
X44792Y258302D01*
X44797Y258360D01*
X44811Y258417D01*
X44808Y258501D01*
X44815Y258585D01*
X44804Y258643D01*
X44802Y258701D01*
X44776Y258781D01*
X44759Y258864D01*
X44732Y258916D01*
X44714Y258971D01*
X44674Y259028D01*
X44628Y259116D01*
X44560Y259189D01*
X44520Y259245D01*
X44322Y259442D01*
X44322Y263546D01*
X44963Y264186D01*
X44998Y264233D01*
X45040Y264273D01*
X45083Y264346D01*
X45134Y264413D01*
X45154Y264468D01*
X45184Y264519D01*
X45205Y264600D01*
X45235Y264679D01*
X45240Y264737D01*
X45254Y264794D01*
X45251Y264878D01*
X45258Y264962D01*
X45247Y265020D01*
X45245Y265078D01*
X45219Y265158D01*
X45203Y265241D01*
X45176Y265293D01*
X45158Y265349D01*
X45118Y265405D01*
X45072Y265493D01*
X45003Y265566D01*
X44963Y265622D01*
X44322Y266262D01*
X44322Y270366D01*
X44519Y270563D01*
X44555Y270610D01*
X44597Y270650D01*
X44640Y270723D01*
X44690Y270791D01*
X44711Y270845D01*
X44741Y270896D01*
X44762Y270977D01*
X44792Y271056D01*
X44796Y271115D01*
X44811Y271171D01*
X44808Y271255D01*
X44815Y271340D01*
X44804Y271397D01*
X44802Y271455D01*
X44776Y271536D01*
X44759Y271618D01*
X44732Y271670D01*
X44714Y271726D01*
X44674Y271782D01*
X44628Y271871D01*
X44559Y271943D01*
X44550Y271957D01*
X44544Y271966D01*
X44541Y271969D01*
X44519Y271999D01*
X44322Y272196D01*
X44322Y285645D01*
X44963Y286285D01*
X44998Y286332D01*
X45040Y286372D01*
X45083Y286445D01*
X45134Y286512D01*
X45154Y286567D01*
X45184Y286617D01*
X45205Y286699D01*
X45235Y286778D01*
X45240Y286836D01*
X45254Y286893D01*
X45251Y286977D01*
X45258Y287061D01*
X45247Y287119D01*
X45245Y287177D01*
X45219Y287257D01*
X45203Y287340D01*
X45176Y287392D01*
X45158Y287448D01*
X45118Y287504D01*
X45072Y287592D01*
X45003Y287665D01*
X44963Y287721D01*
X44322Y288361D01*
X44322Y304060D01*
X44359Y304097D01*
X44420Y304178D01*
X44487Y304253D01*
X44505Y304291D01*
X44530Y304324D01*
X44566Y304418D01*
X44609Y304509D01*
X44616Y304551D01*
X44631Y304590D01*
X44640Y304690D01*
X44656Y304790D01*
X44651Y304831D01*
X44655Y304873D01*
X44635Y304972D01*
X44624Y305072D01*
X44608Y305106D01*
X44599Y305152D01*
X44570Y305207D01*
X44566Y305225D01*
X44529Y305286D01*
X44514Y305315D01*
X44486Y305378D01*
X44016Y306083D01*
X44821Y310107D01*
X48235Y312384D01*
X52487Y311533D01*
X52519Y311532D01*
X52550Y311523D01*
X52628Y311525D01*
X52771Y311517D01*
X52835Y311532D01*
X52885Y311533D01*
X57137Y312384D01*
X60552Y310107D01*
X60630Y309715D01*
X60654Y309647D01*
X60668Y309577D01*
X60701Y309514D01*
X60724Y309447D01*
X60766Y309388D01*
X60799Y309325D01*
X60848Y309273D01*
X60889Y309215D01*
X60945Y309170D01*
X60995Y309118D01*
X61056Y309082D01*
X61112Y309038D01*
X61178Y309011D01*
X61240Y308975D01*
X61309Y308957D01*
X61375Y308930D01*
X61446Y308922D01*
X61516Y308905D01*
X61587Y308907D01*
X61657Y308899D01*
X61728Y308911D01*
X61800Y308914D01*
X61867Y308936D01*
X61938Y308948D01*
X62002Y308979D01*
X62070Y309001D01*
X62119Y309036D01*
X62193Y309072D01*
X62282Y309152D01*
X62344Y309196D01*
X63499Y310352D01*
X63534Y310398D01*
X63577Y310439D01*
X63619Y310511D01*
X63670Y310579D01*
X63691Y310633D01*
X63720Y310684D01*
X63741Y310765D01*
X63771Y310844D01*
X63776Y310903D01*
X63790Y310959D01*
X63788Y311044D01*
X63795Y311128D01*
X63783Y311185D01*
X63781Y311243D01*
X63755Y311324D01*
X63739Y311406D01*
X63712Y311458D01*
X63694Y311514D01*
X63654Y311570D01*
X63608Y311659D01*
X63539Y311731D01*
X63499Y311787D01*
X62449Y312837D01*
X62449Y322056D01*
X65351Y324958D01*
X79686Y324958D01*
X82587Y322056D01*
X82587Y317952D01*
X79475Y314840D01*
X79422Y314770D01*
X79362Y314706D01*
X79337Y314657D01*
X79304Y314612D01*
X79273Y314531D01*
X79233Y314453D01*
X79225Y314405D01*
X79202Y314347D01*
X79190Y314199D01*
X79177Y314122D01*
X79177Y312837D01*
X78127Y311787D01*
X78092Y311741D01*
X78050Y311700D01*
X78007Y311627D01*
X77957Y311560D01*
X77936Y311505D01*
X77906Y311455D01*
X77885Y311373D01*
X77855Y311294D01*
X77850Y311236D01*
X77836Y311179D01*
X77839Y311095D01*
X77832Y311011D01*
X77843Y310954D01*
X77845Y310895D01*
X77871Y310815D01*
X77888Y310732D01*
X77915Y310681D01*
X77933Y310625D01*
X77973Y310569D01*
X78019Y310480D01*
X78087Y310408D01*
X78127Y310351D01*
X79177Y309302D01*
X79177Y306312D01*
X79177Y303865D01*
X79177Y301788D01*
X78127Y300738D01*
X78092Y300691D01*
X78050Y300651D01*
X78007Y300578D01*
X77957Y300511D01*
X77936Y300456D01*
X77906Y300406D01*
X77885Y300324D01*
X77855Y300245D01*
X77850Y300187D01*
X77836Y300130D01*
X77839Y300046D01*
X77832Y299962D01*
X77843Y299904D01*
X77845Y299846D01*
X77871Y299766D01*
X77888Y299683D01*
X77915Y299631D01*
X77933Y299575D01*
X77973Y299519D01*
X78019Y299431D01*
X78087Y299358D01*
X78127Y299302D01*
X79177Y298252D01*
X79177Y284213D01*
X79177Y281715D01*
X79177Y280343D01*
X79185Y280286D01*
X79184Y280227D01*
X79205Y280145D01*
X79217Y280062D01*
X79241Y280009D01*
X79256Y279952D01*
X79299Y279880D01*
X79333Y279802D01*
X79371Y279758D01*
X79401Y279708D01*
X79462Y279650D01*
X79517Y279585D01*
X79566Y279553D01*
X79608Y279513D01*
X79683Y279475D01*
X79754Y279428D01*
X79809Y279410D01*
X79861Y279384D01*
X79929Y279372D01*
X80025Y279342D01*
X80124Y279340D01*
X80192Y279328D01*
X81391Y279328D01*
X84293Y276426D01*
X84293Y272322D01*
X81391Y269421D01*
X80192Y269421D01*
X80135Y269412D01*
X80076Y269414D01*
X79994Y269393D01*
X79911Y269381D01*
X79858Y269357D01*
X79801Y269342D01*
X79729Y269299D01*
X79652Y269265D01*
X79607Y269227D01*
X79557Y269197D01*
X79499Y269135D01*
X79435Y269081D01*
X79402Y269032D01*
X79362Y268990D01*
X79324Y268915D01*
X79277Y268844D01*
X79259Y268788D01*
X79233Y268736D01*
X79221Y268668D01*
X79191Y268573D01*
X79189Y268473D01*
X79177Y268405D01*
X79177Y265797D01*
X79177Y263350D01*
X79177Y261273D01*
X78127Y260223D01*
X78092Y260177D01*
X78050Y260136D01*
X78007Y260063D01*
X77957Y259996D01*
X77936Y259941D01*
X77906Y259891D01*
X77885Y259809D01*
X77855Y259730D01*
X77850Y259672D01*
X77836Y259615D01*
X77839Y259531D01*
X77832Y259447D01*
X77843Y259390D01*
X77845Y259331D01*
X77871Y259251D01*
X77888Y259168D01*
X77915Y259116D01*
X77933Y259061D01*
X77973Y259004D01*
X78019Y258916D01*
X78087Y258844D01*
X78127Y258787D01*
X79177Y257738D01*
X79177Y254748D01*
X79177Y252301D01*
X79177Y252224D01*
X79189Y252138D01*
X79192Y252050D01*
X79209Y251997D01*
X79217Y251943D01*
X79253Y251863D01*
X79280Y251780D01*
X79308Y251740D01*
X79333Y251683D01*
X79429Y251570D01*
X79475Y251506D01*
X82587Y248393D01*
X82587Y244290D01*
X79475Y241177D01*
X79422Y241107D01*
X79362Y241043D01*
X79337Y240994D01*
X79304Y240949D01*
X79273Y240868D01*
X79233Y240790D01*
X79225Y240742D01*
X79202Y240684D01*
X79190Y240536D01*
X79177Y240459D01*
X79177Y239174D01*
X75978Y235975D01*
X74570Y234567D01*
X73407Y234567D01*
X67056Y234567D01*
X65088Y236535D01*
X65042Y236570D01*
X65001Y236613D01*
X64928Y236655D01*
X64861Y236706D01*
X64807Y236727D01*
X64756Y236756D01*
X64674Y236777D01*
X64595Y236807D01*
X64537Y236812D01*
X64480Y236827D01*
X64396Y236824D01*
X64312Y236831D01*
X64255Y236819D01*
X64196Y236817D01*
X64116Y236792D01*
X64033Y236775D01*
X63982Y236748D01*
X63926Y236730D01*
X63870Y236690D01*
X63781Y236644D01*
X63709Y236575D01*
X63652Y236535D01*
X63035Y235918D01*
X61559Y234441D01*
X47224Y234441D01*
G37*
%LPD*%
%LPC*%
G36*
X505777Y10667D02*
X505777Y10667D01*
X501669Y12369D01*
X498525Y15513D01*
X496823Y19621D01*
X496823Y27534D01*
X496811Y27621D01*
X496808Y27708D01*
X496791Y27761D01*
X496783Y27816D01*
X496748Y27895D01*
X496721Y27979D01*
X496693Y28018D01*
X496667Y28075D01*
X496571Y28188D01*
X496526Y28252D01*
X486909Y37869D01*
X485051Y39726D01*
X484123Y41967D01*
X484123Y81298D01*
X484135Y81340D01*
X484135Y81350D01*
X484137Y81361D01*
X484134Y81492D01*
X484133Y81624D01*
X484130Y81634D01*
X484129Y81645D01*
X484089Y81771D01*
X484052Y81896D01*
X484046Y81905D01*
X484043Y81915D01*
X483969Y82025D01*
X483898Y82136D01*
X483890Y82143D01*
X483884Y82152D01*
X483784Y82236D01*
X483685Y82323D01*
X483675Y82328D01*
X483667Y82335D01*
X483547Y82388D01*
X483427Y82444D01*
X483417Y82446D01*
X483407Y82450D01*
X483277Y82468D01*
X483147Y82489D01*
X483137Y82488D01*
X483126Y82489D01*
X482844Y82449D01*
X482829Y82442D01*
X482815Y82440D01*
X482320Y82279D01*
X482091Y82243D01*
X482091Y93219D01*
X489713Y93219D01*
X489713Y90934D01*
X489673Y90682D01*
X489671Y90573D01*
X489662Y90465D01*
X489669Y90432D01*
X489668Y90398D01*
X489696Y90293D01*
X489718Y90186D01*
X489733Y90156D01*
X489742Y90124D01*
X489799Y90031D01*
X489849Y89934D01*
X489872Y89909D01*
X489890Y89881D01*
X489970Y89807D01*
X490045Y89728D01*
X490074Y89711D01*
X490099Y89688D01*
X490196Y89639D01*
X490290Y89584D01*
X490323Y89576D01*
X490353Y89561D01*
X490460Y89541D01*
X490565Y89514D01*
X490599Y89515D01*
X490633Y89509D01*
X490741Y89520D01*
X490850Y89523D01*
X490882Y89534D01*
X490916Y89537D01*
X491017Y89577D01*
X491120Y89611D01*
X491145Y89628D01*
X491180Y89642D01*
X491353Y89777D01*
X491393Y89806D01*
X493986Y92398D01*
X494038Y92468D01*
X494098Y92532D01*
X494124Y92581D01*
X494157Y92625D01*
X494188Y92707D01*
X494228Y92785D01*
X494236Y92832D01*
X494258Y92891D01*
X494270Y93039D01*
X494283Y93116D01*
X494283Y101029D01*
X495985Y105137D01*
X499129Y108281D01*
X503237Y109983D01*
X507683Y109983D01*
X511791Y108281D01*
X514935Y105137D01*
X516637Y101029D01*
X516637Y89471D01*
X514935Y85363D01*
X511791Y82219D01*
X507683Y80517D01*
X503237Y80517D01*
X501115Y81396D01*
X501113Y81397D01*
X501112Y81397D01*
X500979Y81431D01*
X500839Y81467D01*
X500838Y81467D01*
X500836Y81468D01*
X500696Y81463D01*
X500555Y81459D01*
X500554Y81459D01*
X500552Y81459D01*
X500419Y81416D01*
X500284Y81372D01*
X500283Y81372D01*
X500282Y81371D01*
X500270Y81362D01*
X500048Y81214D01*
X500029Y81191D01*
X500008Y81176D01*
X496614Y77782D01*
X496562Y77712D01*
X496502Y77648D01*
X496476Y77599D01*
X496443Y77555D01*
X496412Y77473D01*
X496372Y77395D01*
X496364Y77348D01*
X496342Y77289D01*
X496330Y77141D01*
X496317Y77064D01*
X496317Y46126D01*
X496329Y46039D01*
X496332Y45952D01*
X496349Y45899D01*
X496357Y45844D01*
X496392Y45765D01*
X496419Y45681D01*
X496447Y45642D01*
X496473Y45585D01*
X496569Y45472D01*
X496614Y45408D01*
X502548Y39474D01*
X502550Y39473D01*
X502551Y39472D01*
X502664Y39387D01*
X502775Y39303D01*
X502777Y39302D01*
X502778Y39301D01*
X502910Y39252D01*
X503041Y39202D01*
X503043Y39202D01*
X503044Y39201D01*
X503189Y39189D01*
X503324Y39178D01*
X503326Y39178D01*
X503328Y39178D01*
X503343Y39182D01*
X503603Y39234D01*
X503630Y39248D01*
X503655Y39254D01*
X505777Y40133D01*
X510223Y40133D01*
X514331Y38431D01*
X517475Y35287D01*
X519177Y31179D01*
X519177Y19621D01*
X517475Y15513D01*
X514331Y12369D01*
X510223Y10667D01*
X505777Y10667D01*
G37*
%LPD*%
%LPC*%
G36*
X401637Y156717D02*
X401637Y156717D01*
X397529Y158419D01*
X394385Y161563D01*
X392683Y165671D01*
X392683Y177229D01*
X394385Y181337D01*
X397529Y184481D01*
X401637Y186183D01*
X404608Y186183D01*
X404637Y186187D01*
X404667Y186184D01*
X404778Y186207D01*
X404890Y186223D01*
X404917Y186235D01*
X404945Y186240D01*
X405046Y186292D01*
X405149Y186339D01*
X405172Y186358D01*
X405198Y186371D01*
X405280Y186449D01*
X405366Y186522D01*
X405383Y186547D01*
X405404Y186567D01*
X405461Y186665D01*
X405524Y186759D01*
X405533Y186787D01*
X405548Y186812D01*
X405575Y186922D01*
X405610Y187030D01*
X405610Y187060D01*
X405618Y187088D01*
X405614Y187201D01*
X405617Y187314D01*
X405610Y187343D01*
X405609Y187372D01*
X405574Y187480D01*
X405545Y187589D01*
X405530Y187615D01*
X405521Y187643D01*
X405476Y187706D01*
X405400Y187834D01*
X405354Y187877D01*
X405326Y187916D01*
X399541Y193701D01*
X399541Y202539D01*
X405791Y208789D01*
X414629Y208789D01*
X419017Y204401D01*
X419064Y204366D01*
X419104Y204323D01*
X419177Y204281D01*
X419244Y204230D01*
X419299Y204209D01*
X419349Y204179D01*
X419431Y204159D01*
X419510Y204129D01*
X419568Y204124D01*
X419625Y204109D01*
X419709Y204112D01*
X419793Y204105D01*
X419851Y204117D01*
X419909Y204118D01*
X419989Y204144D01*
X420072Y204161D01*
X420124Y204188D01*
X420180Y204206D01*
X420236Y204246D01*
X420324Y204292D01*
X420397Y204361D01*
X420453Y204401D01*
X424841Y208789D01*
X433679Y208789D01*
X439929Y202539D01*
X439929Y193701D01*
X433679Y187451D01*
X433525Y187451D01*
X433440Y187439D01*
X433354Y187437D01*
X433299Y187419D01*
X433243Y187411D01*
X433165Y187376D01*
X433083Y187350D01*
X433036Y187318D01*
X432984Y187295D01*
X432918Y187240D01*
X432847Y187192D01*
X432810Y187148D01*
X432767Y187112D01*
X432719Y187040D01*
X432664Y186974D01*
X432641Y186922D01*
X432609Y186875D01*
X432583Y186793D01*
X432548Y186714D01*
X432541Y186658D01*
X432523Y186604D01*
X432521Y186518D01*
X432509Y186433D01*
X432518Y186377D01*
X432516Y186320D01*
X432538Y186237D01*
X432550Y186152D01*
X432574Y186100D01*
X432588Y186045D01*
X432632Y185971D01*
X432667Y185892D01*
X432704Y185849D01*
X432733Y185800D01*
X432796Y185741D01*
X432851Y185676D01*
X432893Y185650D01*
X432940Y185606D01*
X433070Y185540D01*
X433136Y185498D01*
X435591Y184481D01*
X438735Y181337D01*
X440437Y177229D01*
X440437Y165671D01*
X438735Y161563D01*
X435591Y158419D01*
X431483Y156717D01*
X427037Y156717D01*
X422929Y158419D01*
X419785Y161563D01*
X418083Y165671D01*
X418083Y177229D01*
X419785Y181337D01*
X422929Y184481D01*
X425384Y185498D01*
X425458Y185542D01*
X425536Y185577D01*
X425580Y185614D01*
X425629Y185643D01*
X425688Y185705D01*
X425753Y185761D01*
X425785Y185808D01*
X425824Y185849D01*
X425863Y185926D01*
X425911Y185997D01*
X425928Y186051D01*
X425954Y186102D01*
X425971Y186186D01*
X425997Y186268D01*
X425998Y186325D01*
X426009Y186381D01*
X426002Y186466D01*
X426004Y186552D01*
X425990Y186607D01*
X425985Y186664D01*
X425954Y186744D01*
X425932Y186827D01*
X425903Y186876D01*
X425883Y186929D01*
X425831Y186998D01*
X425787Y187072D01*
X425745Y187111D01*
X425711Y187156D01*
X425642Y187208D01*
X425580Y187266D01*
X425529Y187292D01*
X425483Y187326D01*
X425403Y187357D01*
X425326Y187396D01*
X425278Y187404D01*
X425217Y187427D01*
X425073Y187438D01*
X424995Y187451D01*
X424841Y187451D01*
X420453Y191839D01*
X420406Y191874D01*
X420366Y191917D01*
X420293Y191959D01*
X420226Y192010D01*
X420171Y192031D01*
X420121Y192061D01*
X420039Y192081D01*
X419960Y192111D01*
X419902Y192116D01*
X419845Y192131D01*
X419761Y192128D01*
X419677Y192135D01*
X419619Y192123D01*
X419561Y192122D01*
X419481Y192096D01*
X419398Y192079D01*
X419346Y192052D01*
X419290Y192034D01*
X419234Y191994D01*
X419146Y191948D01*
X419073Y191879D01*
X419017Y191839D01*
X414629Y187451D01*
X408125Y187451D01*
X408040Y187439D01*
X407954Y187437D01*
X407899Y187419D01*
X407843Y187411D01*
X407765Y187376D01*
X407683Y187350D01*
X407636Y187318D01*
X407584Y187295D01*
X407518Y187240D01*
X407447Y187192D01*
X407410Y187148D01*
X407367Y187112D01*
X407319Y187040D01*
X407264Y186974D01*
X407241Y186922D01*
X407209Y186875D01*
X407183Y186793D01*
X407148Y186714D01*
X407141Y186658D01*
X407123Y186604D01*
X407121Y186518D01*
X407109Y186433D01*
X407118Y186377D01*
X407116Y186320D01*
X407138Y186237D01*
X407150Y186152D01*
X407173Y186100D01*
X407188Y186045D01*
X407232Y185971D01*
X407267Y185892D01*
X407304Y185849D01*
X407333Y185800D01*
X407396Y185741D01*
X407451Y185676D01*
X407493Y185650D01*
X407540Y185606D01*
X407670Y185540D01*
X407736Y185498D01*
X410191Y184481D01*
X413335Y181337D01*
X415037Y177229D01*
X415037Y165671D01*
X413335Y161563D01*
X410191Y158419D01*
X406083Y156717D01*
X401637Y156717D01*
G37*
%LPD*%
%LPC*%
G36*
X556577Y10667D02*
X556577Y10667D01*
X552469Y12369D01*
X549325Y15513D01*
X547623Y19621D01*
X547623Y31179D01*
X549325Y35287D01*
X552406Y38368D01*
X552458Y38438D01*
X552518Y38502D01*
X552544Y38551D01*
X552577Y38595D01*
X552608Y38677D01*
X552648Y38755D01*
X552656Y38803D01*
X552678Y38861D01*
X552690Y39009D01*
X552703Y39086D01*
X552703Y80391D01*
X552703Y80393D01*
X552703Y80394D01*
X552683Y80531D01*
X552663Y80673D01*
X552663Y80674D01*
X552663Y80676D01*
X552608Y80796D01*
X552547Y80932D01*
X552546Y80933D01*
X552545Y80935D01*
X552454Y81042D01*
X552364Y81149D01*
X552362Y81150D01*
X552361Y81151D01*
X552348Y81159D01*
X552127Y81307D01*
X552098Y81316D01*
X552077Y81329D01*
X549929Y82219D01*
X546785Y85363D01*
X545083Y89471D01*
X545083Y101029D01*
X546785Y105137D01*
X549929Y108281D01*
X554037Y109983D01*
X558483Y109983D01*
X562591Y108281D01*
X565735Y105137D01*
X567437Y101029D01*
X567437Y89471D01*
X565735Y85363D01*
X565194Y84822D01*
X565142Y84752D01*
X565082Y84688D01*
X565056Y84639D01*
X565023Y84595D01*
X564992Y84513D01*
X564952Y84435D01*
X564944Y84387D01*
X564922Y84329D01*
X564910Y84181D01*
X564897Y84104D01*
X564897Y39086D01*
X564909Y38999D01*
X564912Y38912D01*
X564929Y38859D01*
X564937Y38805D01*
X564972Y38725D01*
X564999Y38642D01*
X565027Y38602D01*
X565053Y38545D01*
X565149Y38432D01*
X565194Y38368D01*
X568275Y35287D01*
X569977Y31179D01*
X569977Y19621D01*
X568275Y15513D01*
X565131Y12369D01*
X561023Y10667D01*
X556577Y10667D01*
G37*
%LPD*%
%LPC*%
G36*
X581977Y10667D02*
X581977Y10667D01*
X577869Y12369D01*
X574725Y15513D01*
X573023Y19621D01*
X573023Y31179D01*
X574725Y35287D01*
X577806Y38368D01*
X577858Y38438D01*
X577918Y38502D01*
X577944Y38551D01*
X577977Y38595D01*
X578008Y38677D01*
X578048Y38755D01*
X578056Y38803D01*
X578078Y38861D01*
X578090Y39009D01*
X578103Y39086D01*
X578103Y80391D01*
X578103Y80393D01*
X578103Y80394D01*
X578083Y80531D01*
X578063Y80673D01*
X578063Y80674D01*
X578063Y80676D01*
X578008Y80796D01*
X577947Y80932D01*
X577946Y80933D01*
X577945Y80935D01*
X577854Y81042D01*
X577764Y81149D01*
X577762Y81150D01*
X577761Y81151D01*
X577748Y81159D01*
X577527Y81307D01*
X577498Y81316D01*
X577477Y81329D01*
X575329Y82219D01*
X572185Y85363D01*
X570483Y89471D01*
X570483Y101029D01*
X572185Y105137D01*
X575329Y108281D01*
X579437Y109983D01*
X583883Y109983D01*
X587991Y108281D01*
X591135Y105137D01*
X592837Y101029D01*
X592837Y89471D01*
X591135Y85363D01*
X590594Y84822D01*
X590542Y84752D01*
X590482Y84688D01*
X590456Y84639D01*
X590423Y84595D01*
X590392Y84513D01*
X590352Y84435D01*
X590344Y84387D01*
X590322Y84329D01*
X590310Y84181D01*
X590297Y84104D01*
X590297Y39086D01*
X590309Y38999D01*
X590312Y38912D01*
X590329Y38859D01*
X590337Y38805D01*
X590372Y38725D01*
X590399Y38642D01*
X590427Y38602D01*
X590453Y38545D01*
X590549Y38432D01*
X590594Y38368D01*
X593675Y35287D01*
X595377Y31179D01*
X595377Y19621D01*
X593675Y15513D01*
X590531Y12369D01*
X586423Y10667D01*
X581977Y10667D01*
G37*
%LPD*%
%LPC*%
G36*
X531177Y10667D02*
X531177Y10667D01*
X527069Y12369D01*
X523925Y15513D01*
X522223Y19621D01*
X522223Y31179D01*
X523925Y35287D01*
X527006Y38368D01*
X527058Y38438D01*
X527118Y38502D01*
X527144Y38551D01*
X527177Y38595D01*
X527208Y38677D01*
X527248Y38755D01*
X527256Y38803D01*
X527278Y38861D01*
X527290Y39009D01*
X527303Y39086D01*
X527303Y80391D01*
X527303Y80393D01*
X527303Y80394D01*
X527283Y80531D01*
X527263Y80673D01*
X527263Y80674D01*
X527263Y80676D01*
X527208Y80796D01*
X527147Y80932D01*
X527146Y80933D01*
X527145Y80935D01*
X527054Y81042D01*
X526964Y81149D01*
X526962Y81150D01*
X526961Y81151D01*
X526948Y81159D01*
X526727Y81307D01*
X526698Y81316D01*
X526677Y81329D01*
X524529Y82219D01*
X521385Y85363D01*
X519683Y89471D01*
X519683Y101029D01*
X521385Y105137D01*
X524529Y108281D01*
X528637Y109983D01*
X533083Y109983D01*
X537191Y108281D01*
X540335Y105137D01*
X542037Y101029D01*
X542037Y89471D01*
X540335Y85363D01*
X539794Y84822D01*
X539742Y84752D01*
X539682Y84688D01*
X539656Y84639D01*
X539623Y84595D01*
X539592Y84513D01*
X539552Y84435D01*
X539544Y84387D01*
X539522Y84329D01*
X539510Y84181D01*
X539497Y84104D01*
X539497Y39086D01*
X539509Y38999D01*
X539512Y38912D01*
X539529Y38859D01*
X539537Y38805D01*
X539572Y38725D01*
X539599Y38642D01*
X539627Y38602D01*
X539653Y38545D01*
X539749Y38432D01*
X539794Y38368D01*
X542875Y35287D01*
X544577Y31179D01*
X544577Y19621D01*
X542875Y15513D01*
X539731Y12369D01*
X535623Y10667D01*
X531177Y10667D01*
G37*
%LPD*%
%LPC*%
G36*
X115312Y54985D02*
X115312Y54985D01*
X110143Y57127D01*
X106187Y61083D01*
X104045Y66252D01*
X104045Y98848D01*
X106187Y104017D01*
X110143Y107973D01*
X115312Y110115D01*
X120908Y110115D01*
X126077Y107973D01*
X130033Y104017D01*
X132175Y98848D01*
X132175Y66252D01*
X130033Y61083D01*
X126077Y57127D01*
X120908Y54985D01*
X115312Y54985D01*
G37*
%LPD*%
%LPC*%
G36*
X72562Y18955D02*
X72562Y18955D01*
X67393Y21097D01*
X63437Y25053D01*
X61295Y30222D01*
X61295Y35818D01*
X63437Y40987D01*
X67393Y44943D01*
X72562Y47085D01*
X100158Y47085D01*
X105327Y44943D01*
X109283Y40987D01*
X111425Y35818D01*
X111425Y30222D01*
X109283Y25053D01*
X105327Y21097D01*
X100158Y18955D01*
X72562Y18955D01*
G37*
%LPD*%
%LPC*%
G36*
X53082Y57485D02*
X53082Y57485D01*
X47913Y59627D01*
X43957Y63583D01*
X41815Y68752D01*
X41815Y96348D01*
X43957Y101517D01*
X47913Y105473D01*
X53082Y107615D01*
X58678Y107615D01*
X63847Y105473D01*
X67803Y101517D01*
X69945Y96348D01*
X69945Y68752D01*
X67803Y63583D01*
X63847Y59627D01*
X58678Y57485D01*
X53082Y57485D01*
G37*
%LPD*%
%LPC*%
G36*
X223938Y413511D02*
X223938Y413511D01*
X220017Y415136D01*
X217016Y418137D01*
X215391Y422058D01*
X215391Y426302D01*
X217016Y430223D01*
X220017Y433224D01*
X223938Y434849D01*
X227686Y434849D01*
X227773Y434861D01*
X227860Y434864D01*
X227913Y434881D01*
X227968Y434889D01*
X228047Y434924D01*
X228131Y434951D01*
X228170Y434979D01*
X228227Y435005D01*
X228340Y435101D01*
X228404Y435146D01*
X244879Y451621D01*
X246736Y453479D01*
X248977Y454407D01*
X263638Y454407D01*
X263725Y454419D01*
X263812Y454422D01*
X263865Y454439D01*
X263920Y454447D01*
X264000Y454482D01*
X264083Y454509D01*
X264122Y454537D01*
X264179Y454563D01*
X264292Y454659D01*
X264356Y454704D01*
X268631Y458979D01*
X277469Y458979D01*
X283719Y452729D01*
X283719Y443891D01*
X277469Y437641D01*
X268631Y437641D01*
X264356Y441916D01*
X264286Y441968D01*
X264223Y442028D01*
X264173Y442054D01*
X264129Y442087D01*
X264047Y442118D01*
X263969Y442158D01*
X263922Y442166D01*
X263863Y442188D01*
X263716Y442200D01*
X263638Y442213D01*
X253136Y442213D01*
X253049Y442201D01*
X252962Y442198D01*
X252909Y442181D01*
X252854Y442173D01*
X252775Y442138D01*
X252691Y442111D01*
X252652Y442083D01*
X252595Y442057D01*
X252482Y441961D01*
X252418Y441916D01*
X237026Y426524D01*
X236974Y426454D01*
X236914Y426390D01*
X236888Y426341D01*
X236855Y426297D01*
X236824Y426215D01*
X236784Y426137D01*
X236776Y426090D01*
X236754Y426031D01*
X236742Y425883D01*
X236729Y425806D01*
X236729Y422058D01*
X235104Y418137D01*
X232103Y415136D01*
X228182Y413511D01*
X223938Y413511D01*
G37*
%LPD*%
%LPC*%
G36*
X325437Y80517D02*
X325437Y80517D01*
X321329Y82219D01*
X318185Y85363D01*
X316483Y89471D01*
X316483Y101029D01*
X318185Y105137D01*
X321266Y108218D01*
X321318Y108288D01*
X321378Y108352D01*
X321404Y108401D01*
X321437Y108445D01*
X321468Y108527D01*
X321508Y108605D01*
X321516Y108653D01*
X321538Y108711D01*
X321550Y108859D01*
X321563Y108936D01*
X321563Y128690D01*
X321559Y128720D01*
X321561Y128751D01*
X321544Y128828D01*
X321523Y128971D01*
X321497Y129030D01*
X321486Y129078D01*
X320321Y131890D01*
X320321Y134810D01*
X321439Y137507D01*
X323503Y139571D01*
X326200Y140689D01*
X329120Y140689D01*
X331817Y139571D01*
X333881Y137507D01*
X334999Y134810D01*
X334999Y131890D01*
X333834Y129078D01*
X333826Y129048D01*
X333812Y129021D01*
X333799Y128943D01*
X333763Y128803D01*
X333765Y128739D01*
X333757Y128690D01*
X333757Y108936D01*
X333769Y108849D01*
X333772Y108762D01*
X333789Y108709D01*
X333797Y108655D01*
X333832Y108575D01*
X333859Y108492D01*
X333887Y108452D01*
X333913Y108395D01*
X334009Y108282D01*
X334017Y108271D01*
X334026Y108254D01*
X334032Y108249D01*
X334054Y108218D01*
X337135Y105137D01*
X338837Y101029D01*
X338837Y89471D01*
X337135Y85363D01*
X333991Y82219D01*
X329883Y80517D01*
X325437Y80517D01*
G37*
%LPD*%
%LPC*%
G36*
X350837Y80517D02*
X350837Y80517D01*
X346729Y82219D01*
X343585Y85363D01*
X341883Y89471D01*
X341883Y101029D01*
X343585Y105137D01*
X346666Y108218D01*
X346718Y108288D01*
X346778Y108352D01*
X346804Y108401D01*
X346837Y108445D01*
X346868Y108527D01*
X346908Y108605D01*
X346916Y108653D01*
X346938Y108711D01*
X346950Y108859D01*
X346963Y108936D01*
X346963Y114720D01*
X346959Y114750D01*
X346961Y114781D01*
X346944Y114858D01*
X346923Y115001D01*
X346897Y115060D01*
X346886Y115108D01*
X345721Y117920D01*
X345721Y120840D01*
X346839Y123537D01*
X348903Y125601D01*
X351600Y126719D01*
X354520Y126719D01*
X357217Y125601D01*
X359281Y123537D01*
X360399Y120840D01*
X360399Y117920D01*
X359234Y115108D01*
X359226Y115078D01*
X359212Y115051D01*
X359199Y114973D01*
X359163Y114833D01*
X359165Y114769D01*
X359157Y114720D01*
X359157Y108936D01*
X359169Y108849D01*
X359172Y108762D01*
X359189Y108709D01*
X359197Y108655D01*
X359232Y108575D01*
X359259Y108492D01*
X359287Y108452D01*
X359313Y108395D01*
X359409Y108282D01*
X359417Y108271D01*
X359426Y108254D01*
X359432Y108249D01*
X359454Y108218D01*
X362535Y105137D01*
X364237Y101029D01*
X364237Y89471D01*
X362535Y85363D01*
X359391Y82219D01*
X355283Y80517D01*
X350837Y80517D01*
G37*
%LPD*%
%LPC*%
G36*
X376237Y156717D02*
X376237Y156717D01*
X372129Y158419D01*
X368985Y161563D01*
X367283Y165671D01*
X367283Y177229D01*
X368985Y181337D01*
X372129Y184481D01*
X376237Y186183D01*
X380683Y186183D01*
X384791Y184481D01*
X387935Y181337D01*
X389637Y177229D01*
X389637Y165671D01*
X387935Y161563D01*
X384791Y158419D01*
X380683Y156717D01*
X376237Y156717D01*
G37*
%LPD*%
%LPC*%
G36*
X65351Y330329D02*
X65351Y330329D01*
X62449Y333231D01*
X62449Y340373D01*
X62449Y342450D01*
X63055Y343056D01*
X63072Y343079D01*
X63095Y343098D01*
X63158Y343192D01*
X63226Y343283D01*
X63236Y343310D01*
X63252Y343335D01*
X63287Y343443D01*
X63327Y343548D01*
X63329Y343578D01*
X63338Y343606D01*
X63341Y343719D01*
X63350Y343832D01*
X63345Y343860D01*
X63345Y343890D01*
X63317Y343999D01*
X63295Y344110D01*
X63281Y344137D01*
X63274Y344165D01*
X63216Y344262D01*
X63164Y344363D01*
X63143Y344384D01*
X63128Y344409D01*
X63046Y344487D01*
X62968Y344569D01*
X62943Y344584D01*
X62921Y344604D01*
X62820Y344655D01*
X62723Y344713D01*
X62694Y344720D01*
X62668Y344733D01*
X62591Y344746D01*
X62447Y344783D01*
X62385Y344781D01*
X62337Y344789D01*
X61941Y344789D01*
X59039Y347690D01*
X59039Y353500D01*
X63646Y358106D01*
X76275Y358106D01*
X79177Y355205D01*
X79177Y351101D01*
X78537Y350460D01*
X78502Y350414D01*
X78459Y350373D01*
X78417Y350301D01*
X78366Y350233D01*
X78345Y350179D01*
X78315Y350128D01*
X78295Y350046D01*
X78265Y349968D01*
X78260Y349909D01*
X78245Y349853D01*
X78248Y349768D01*
X78241Y349684D01*
X78253Y349627D01*
X78254Y349568D01*
X78280Y349488D01*
X78297Y349405D01*
X78324Y349354D01*
X78342Y349298D01*
X78382Y349242D01*
X78428Y349153D01*
X78497Y349081D01*
X78537Y349025D01*
X79177Y348384D01*
X79177Y344280D01*
X78980Y344083D01*
X78945Y344036D01*
X78902Y343996D01*
X78860Y343923D01*
X78809Y343856D01*
X78788Y343801D01*
X78759Y343751D01*
X78738Y343669D01*
X78708Y343590D01*
X78703Y343532D01*
X78689Y343475D01*
X78691Y343391D01*
X78684Y343307D01*
X78696Y343249D01*
X78698Y343191D01*
X78724Y343111D01*
X78740Y343028D01*
X78767Y342976D01*
X78785Y342921D01*
X78825Y342864D01*
X78871Y342776D01*
X78940Y342703D01*
X78980Y342647D01*
X79177Y342450D01*
X79177Y341165D01*
X79189Y341079D01*
X79192Y340991D01*
X79209Y340939D01*
X79217Y340884D01*
X79253Y340804D01*
X79280Y340721D01*
X79308Y340682D01*
X79333Y340625D01*
X79429Y340511D01*
X79475Y340448D01*
X82587Y337335D01*
X82587Y333231D01*
X79686Y330329D01*
X65351Y330329D01*
G37*
%LPD*%
%LPC*%
G36*
X175301Y12835D02*
X175301Y12835D01*
X170683Y14748D01*
X167148Y18283D01*
X165235Y22901D01*
X165235Y27899D01*
X167148Y32517D01*
X170683Y36052D01*
X175301Y37965D01*
X180299Y37965D01*
X184917Y36052D01*
X188452Y32517D01*
X190365Y27899D01*
X190365Y22901D01*
X188452Y18283D01*
X184917Y14748D01*
X180299Y12835D01*
X175301Y12835D01*
G37*
%LPD*%
%LPC*%
G36*
X178461Y372871D02*
X178461Y372871D01*
X172211Y379121D01*
X172211Y387959D01*
X178461Y394209D01*
X187299Y394209D01*
X193549Y387959D01*
X193549Y379121D01*
X187299Y372871D01*
X178461Y372871D01*
G37*
%LPD*%
%LPC*%
G36*
X321971Y248411D02*
X321971Y248411D01*
X315721Y254661D01*
X315721Y263499D01*
X321971Y269749D01*
X330809Y269749D01*
X337059Y263499D01*
X337059Y254661D01*
X330809Y248411D01*
X321971Y248411D01*
G37*
%LPD*%
%LPC*%
G36*
X183541Y131571D02*
X183541Y131571D01*
X177291Y137821D01*
X177291Y146659D01*
X183541Y152909D01*
X192379Y152909D01*
X198629Y146659D01*
X198629Y137821D01*
X192379Y131571D01*
X183541Y131571D01*
G37*
%LPD*%
%LPC*%
G36*
X153061Y131571D02*
X153061Y131571D01*
X146811Y137821D01*
X146811Y146659D01*
X153061Y152909D01*
X161899Y152909D01*
X168149Y146659D01*
X168149Y137821D01*
X161899Y131571D01*
X153061Y131571D01*
G37*
%LPD*%
%LPC*%
G36*
X126391Y422401D02*
X126391Y422401D01*
X120141Y428651D01*
X120141Y437489D01*
X126391Y443739D01*
X135229Y443739D01*
X141479Y437489D01*
X141479Y428651D01*
X135229Y422401D01*
X126391Y422401D01*
G37*
%LPD*%
%LPC*%
G36*
X175678Y413511D02*
X175678Y413511D01*
X171757Y415136D01*
X168756Y418137D01*
X167131Y422058D01*
X167131Y426302D01*
X168756Y430223D01*
X171757Y433224D01*
X175678Y434849D01*
X179922Y434849D01*
X183843Y433224D01*
X186844Y430223D01*
X188469Y426302D01*
X188469Y422058D01*
X186844Y418137D01*
X183843Y415136D01*
X179922Y413511D01*
X175678Y413511D01*
G37*
%LPD*%
%LPC*%
G36*
X404278Y225551D02*
X404278Y225551D01*
X400357Y227176D01*
X397356Y230177D01*
X395731Y234098D01*
X395731Y238342D01*
X397356Y242263D01*
X400357Y245264D01*
X404278Y246889D01*
X408522Y246889D01*
X412443Y245264D01*
X415444Y242263D01*
X417069Y238342D01*
X417069Y234098D01*
X415444Y230177D01*
X412443Y227176D01*
X408522Y225551D01*
X404278Y225551D01*
G37*
%LPD*%
%LPC*%
G36*
X452538Y225551D02*
X452538Y225551D01*
X448617Y227176D01*
X445616Y230177D01*
X443991Y234098D01*
X443991Y238342D01*
X445616Y242263D01*
X448617Y245264D01*
X452538Y246889D01*
X456782Y246889D01*
X460703Y245264D01*
X463704Y242263D01*
X465329Y238342D01*
X465329Y234098D01*
X463704Y230177D01*
X460703Y227176D01*
X456782Y225551D01*
X452538Y225551D01*
G37*
%LPD*%
%LPC*%
G36*
X54176Y359325D02*
X54176Y359325D01*
X51028Y360629D01*
X48619Y363038D01*
X47315Y366186D01*
X47315Y369594D01*
X48619Y372742D01*
X51028Y375151D01*
X54176Y376455D01*
X57584Y376455D01*
X60732Y375151D01*
X63141Y372742D01*
X64445Y369594D01*
X64445Y366186D01*
X63141Y363038D01*
X60732Y360629D01*
X57584Y359325D01*
X54176Y359325D01*
G37*
%LPD*%
%LPC*%
G36*
X54176Y403325D02*
X54176Y403325D01*
X51028Y404629D01*
X48619Y407038D01*
X47315Y410186D01*
X47315Y413594D01*
X48619Y416742D01*
X51028Y419151D01*
X54176Y420455D01*
X57584Y420455D01*
X60732Y419151D01*
X63141Y416742D01*
X64445Y413594D01*
X64445Y410186D01*
X63141Y407038D01*
X60732Y404629D01*
X57584Y403325D01*
X54176Y403325D01*
G37*
%LPD*%
%LPC*%
G36*
X86613Y473455D02*
X86613Y473455D01*
X86613Y481585D01*
X89192Y481585D01*
X90771Y481335D01*
X92292Y480840D01*
X93717Y480114D01*
X95011Y479174D01*
X96142Y478043D01*
X97082Y476749D01*
X97808Y475324D01*
X98303Y473803D01*
X98358Y473455D01*
X86613Y473455D01*
G37*
%LPD*%
%LPC*%
G36*
X21589Y473455D02*
X21589Y473455D01*
X21589Y481585D01*
X24168Y481585D01*
X25747Y481335D01*
X27268Y480840D01*
X28693Y480114D01*
X29987Y479174D01*
X31118Y478043D01*
X32058Y476749D01*
X32784Y475324D01*
X33279Y473803D01*
X33334Y473455D01*
X21589Y473455D01*
G37*
%LPD*%
%LPC*%
G36*
X70806Y473455D02*
X70806Y473455D01*
X70861Y473803D01*
X71356Y475324D01*
X72082Y476749D01*
X73022Y478043D01*
X74153Y479174D01*
X75447Y480114D01*
X76872Y480840D01*
X78393Y481335D01*
X79972Y481585D01*
X82551Y481585D01*
X82551Y473455D01*
X70806Y473455D01*
G37*
%LPD*%
%LPC*%
G36*
X86613Y461263D02*
X86613Y461263D01*
X86613Y469393D01*
X98358Y469393D01*
X98303Y469045D01*
X97808Y467524D01*
X97082Y466099D01*
X96142Y464805D01*
X95011Y463674D01*
X93717Y462734D01*
X92292Y462008D01*
X90771Y461513D01*
X89192Y461263D01*
X86613Y461263D01*
G37*
%LPD*%
%LPC*%
G36*
X21589Y461263D02*
X21589Y461263D01*
X21589Y469393D01*
X33334Y469393D01*
X33279Y469045D01*
X32784Y467524D01*
X32058Y466099D01*
X31118Y464805D01*
X29987Y463674D01*
X28693Y462734D01*
X27268Y462008D01*
X25747Y461513D01*
X24168Y461263D01*
X21589Y461263D01*
G37*
%LPD*%
%LPC*%
G36*
X79972Y461263D02*
X79972Y461263D01*
X78393Y461513D01*
X76872Y462008D01*
X75447Y462734D01*
X74153Y463674D01*
X73022Y464805D01*
X72082Y466099D01*
X71356Y467524D01*
X70861Y469045D01*
X70806Y469393D01*
X82551Y469393D01*
X82551Y461263D01*
X79972Y461263D01*
G37*
%LPD*%
%LPC*%
G36*
X456691Y173481D02*
X456691Y173481D01*
X456691Y184457D01*
X456920Y184421D01*
X458365Y183952D01*
X459719Y183262D01*
X460948Y182369D01*
X462023Y181294D01*
X462916Y180065D01*
X463606Y178711D01*
X464075Y177266D01*
X464313Y175766D01*
X464313Y173481D01*
X456691Y173481D01*
G37*
%LPD*%
%LPC*%
G36*
X482091Y97281D02*
X482091Y97281D01*
X482091Y108257D01*
X482320Y108221D01*
X483765Y107752D01*
X485119Y107062D01*
X486348Y106169D01*
X487423Y105094D01*
X488316Y103865D01*
X489006Y102511D01*
X489475Y101066D01*
X489713Y99566D01*
X489713Y97281D01*
X482091Y97281D01*
G37*
%LPD*%
%LPC*%
G36*
X433831Y23369D02*
X433831Y23369D01*
X441453Y23369D01*
X441453Y21084D01*
X441215Y19584D01*
X440746Y18139D01*
X440056Y16785D01*
X439163Y15556D01*
X438088Y14481D01*
X436859Y13588D01*
X435505Y12898D01*
X434060Y12429D01*
X433831Y12393D01*
X433831Y23369D01*
G37*
%LPD*%
%LPC*%
G36*
X408431Y23369D02*
X408431Y23369D01*
X416053Y23369D01*
X416053Y21084D01*
X415815Y19584D01*
X415346Y18139D01*
X414656Y16785D01*
X413763Y15556D01*
X412688Y14481D01*
X411459Y13588D01*
X410105Y12898D01*
X408660Y12429D01*
X408431Y12393D01*
X408431Y23369D01*
G37*
%LPD*%
%LPC*%
G36*
X456691Y169419D02*
X456691Y169419D01*
X464313Y169419D01*
X464313Y167134D01*
X464075Y165634D01*
X463606Y164189D01*
X462916Y162835D01*
X462023Y161606D01*
X460948Y160531D01*
X459719Y159638D01*
X458365Y158948D01*
X456920Y158479D01*
X456691Y158443D01*
X456691Y169419D01*
G37*
%LPD*%
%LPC*%
G36*
X445007Y173481D02*
X445007Y173481D01*
X445007Y175766D01*
X445245Y177266D01*
X445714Y178711D01*
X446404Y180065D01*
X447297Y181294D01*
X448372Y182369D01*
X449601Y183262D01*
X450955Y183952D01*
X452400Y184421D01*
X452629Y184457D01*
X452629Y173481D01*
X445007Y173481D01*
G37*
%LPD*%
%LPC*%
G36*
X470407Y97281D02*
X470407Y97281D01*
X470407Y99566D01*
X470645Y101066D01*
X471114Y102511D01*
X471804Y103865D01*
X472697Y105094D01*
X473772Y106169D01*
X475001Y107062D01*
X476355Y107752D01*
X477800Y108221D01*
X478029Y108257D01*
X478029Y97281D01*
X470407Y97281D01*
G37*
%LPD*%
%LPC*%
G36*
X429540Y12429D02*
X429540Y12429D01*
X428095Y12898D01*
X426741Y13588D01*
X425512Y14481D01*
X424437Y15556D01*
X423544Y16785D01*
X422854Y18139D01*
X422385Y19584D01*
X422147Y21084D01*
X422147Y23369D01*
X429769Y23369D01*
X429769Y12393D01*
X429540Y12429D01*
G37*
%LPD*%
%LPC*%
G36*
X404140Y12429D02*
X404140Y12429D01*
X402695Y12898D01*
X401341Y13588D01*
X400112Y14481D01*
X399037Y15556D01*
X398144Y16785D01*
X397454Y18139D01*
X396985Y19584D01*
X396747Y21084D01*
X396747Y23369D01*
X404369Y23369D01*
X404369Y12393D01*
X404140Y12429D01*
G37*
%LPD*%
%LPC*%
G36*
X452400Y158479D02*
X452400Y158479D01*
X450955Y158948D01*
X449601Y159638D01*
X448372Y160531D01*
X447297Y161606D01*
X446404Y162835D01*
X445714Y164189D01*
X445245Y165634D01*
X445007Y167134D01*
X445007Y169419D01*
X452629Y169419D01*
X452629Y158443D01*
X452400Y158479D01*
G37*
%LPD*%
%LPC*%
G36*
X477800Y82279D02*
X477800Y82279D01*
X476355Y82748D01*
X475001Y83438D01*
X473772Y84331D01*
X472697Y85406D01*
X471804Y86635D01*
X471114Y87989D01*
X470645Y89434D01*
X470407Y90934D01*
X470407Y93219D01*
X478029Y93219D01*
X478029Y82243D01*
X477800Y82279D01*
G37*
%LPD*%
%LPC*%
G36*
X234441Y201421D02*
X234441Y201421D01*
X234441Y209932D01*
X236777Y209932D01*
X242952Y203757D01*
X242952Y201421D01*
X234441Y201421D01*
G37*
%LPD*%
%LPC*%
G36*
X221868Y141731D02*
X221868Y141731D01*
X221868Y144067D01*
X228043Y150242D01*
X230379Y150242D01*
X230379Y141731D01*
X221868Y141731D01*
G37*
%LPD*%
%LPC*%
G36*
X221868Y201421D02*
X221868Y201421D01*
X221868Y203757D01*
X228043Y209932D01*
X230379Y209932D01*
X230379Y201421D01*
X221868Y201421D01*
G37*
%LPD*%
%LPC*%
G36*
X221868Y82041D02*
X221868Y82041D01*
X221868Y84377D01*
X228043Y90552D01*
X230379Y90552D01*
X230379Y82041D01*
X221868Y82041D01*
G37*
%LPD*%
%LPC*%
G36*
X234441Y188848D02*
X234441Y188848D01*
X234441Y197359D01*
X242952Y197359D01*
X242952Y195023D01*
X236777Y188848D01*
X234441Y188848D01*
G37*
%LPD*%
%LPC*%
G36*
X228043Y69468D02*
X228043Y69468D01*
X221868Y75643D01*
X221868Y77979D01*
X230379Y77979D01*
X230379Y69468D01*
X228043Y69468D01*
G37*
%LPD*%
%LPC*%
G36*
X228043Y129158D02*
X228043Y129158D01*
X221868Y135333D01*
X221868Y137669D01*
X230379Y137669D01*
X230379Y129158D01*
X228043Y129158D01*
G37*
%LPD*%
%LPC*%
G36*
X228043Y188848D02*
X228043Y188848D01*
X221868Y195023D01*
X221868Y197359D01*
X230379Y197359D01*
X230379Y188848D01*
X228043Y188848D01*
G37*
%LPD*%
%LPC*%
G36*
X662431Y228091D02*
X662431Y228091D01*
X662431Y236351D01*
X664663Y236351D01*
X670691Y230323D01*
X670691Y228091D01*
X662431Y228091D01*
G37*
%LPD*%
%LPC*%
G36*
X650109Y228091D02*
X650109Y228091D01*
X650109Y230323D01*
X656137Y236351D01*
X658369Y236351D01*
X658369Y228091D01*
X650109Y228091D01*
G37*
%LPD*%
%LPC*%
G36*
X512571Y70611D02*
X512571Y70611D01*
X512571Y77725D01*
X514328Y77725D01*
X519685Y72368D01*
X519685Y70611D01*
X512571Y70611D01*
G37*
%LPD*%
%LPC*%
G36*
X189991Y68071D02*
X189991Y68071D01*
X189991Y75185D01*
X191748Y75185D01*
X197105Y69828D01*
X197105Y68071D01*
X189991Y68071D01*
G37*
%LPD*%
%LPC*%
G36*
X303021Y261111D02*
X303021Y261111D01*
X303021Y268225D01*
X304778Y268225D01*
X310135Y262868D01*
X310135Y261111D01*
X303021Y261111D01*
G37*
%LPD*%
%LPC*%
G36*
X361441Y200151D02*
X361441Y200151D01*
X361441Y207265D01*
X363198Y207265D01*
X368555Y201908D01*
X368555Y200151D01*
X361441Y200151D01*
G37*
%LPD*%
%LPC*%
G36*
X275081Y399541D02*
X275081Y399541D01*
X275081Y406655D01*
X276838Y406655D01*
X282195Y401298D01*
X282195Y399541D01*
X275081Y399541D01*
G37*
%LPD*%
%LPC*%
G36*
X499871Y250951D02*
X499871Y250951D01*
X499871Y258065D01*
X501628Y258065D01*
X506985Y252708D01*
X506985Y250951D01*
X499871Y250951D01*
G37*
%LPD*%
%LPC*%
G36*
X303021Y212851D02*
X303021Y212851D01*
X303021Y219965D01*
X304778Y219965D01*
X310135Y214608D01*
X310135Y212851D01*
X303021Y212851D01*
G37*
%LPD*%
%LPC*%
G36*
X291845Y212851D02*
X291845Y212851D01*
X291845Y214608D01*
X297202Y219965D01*
X298959Y219965D01*
X298959Y212851D01*
X291845Y212851D01*
G37*
%LPD*%
%LPC*%
G36*
X501395Y70611D02*
X501395Y70611D01*
X501395Y72368D01*
X506752Y77725D01*
X508509Y77725D01*
X508509Y70611D01*
X501395Y70611D01*
G37*
%LPD*%
%LPC*%
G36*
X224535Y385571D02*
X224535Y385571D01*
X224535Y387328D01*
X229892Y392685D01*
X231649Y392685D01*
X231649Y385571D01*
X224535Y385571D01*
G37*
%LPD*%
%LPC*%
G36*
X470915Y200151D02*
X470915Y200151D01*
X470915Y201908D01*
X476272Y207265D01*
X478029Y207265D01*
X478029Y200151D01*
X470915Y200151D01*
G37*
%LPD*%
%LPC*%
G36*
X350265Y200151D02*
X350265Y200151D01*
X350265Y201908D01*
X355622Y207265D01*
X357379Y207265D01*
X357379Y200151D01*
X350265Y200151D01*
G37*
%LPD*%
%LPC*%
G36*
X303021Y249935D02*
X303021Y249935D01*
X303021Y257049D01*
X310135Y257049D01*
X310135Y255292D01*
X304778Y249935D01*
X303021Y249935D01*
G37*
%LPD*%
%LPC*%
G36*
X303021Y201675D02*
X303021Y201675D01*
X303021Y208789D01*
X310135Y208789D01*
X310135Y207032D01*
X304778Y201675D01*
X303021Y201675D01*
G37*
%LPD*%
%LPC*%
G36*
X263905Y399541D02*
X263905Y399541D01*
X263905Y401298D01*
X269262Y406655D01*
X271019Y406655D01*
X271019Y399541D01*
X263905Y399541D01*
G37*
%LPD*%
%LPC*%
G36*
X512571Y59435D02*
X512571Y59435D01*
X512571Y66549D01*
X519685Y66549D01*
X519685Y64792D01*
X514328Y59435D01*
X512571Y59435D01*
G37*
%LPD*%
%LPC*%
G36*
X178815Y68071D02*
X178815Y68071D01*
X178815Y69828D01*
X184172Y75185D01*
X185929Y75185D01*
X185929Y68071D01*
X178815Y68071D01*
G37*
%LPD*%
%LPC*%
G36*
X361441Y188975D02*
X361441Y188975D01*
X361441Y196089D01*
X368555Y196089D01*
X368555Y194332D01*
X363198Y188975D01*
X361441Y188975D01*
G37*
%LPD*%
%LPC*%
G36*
X499871Y239775D02*
X499871Y239775D01*
X499871Y246889D01*
X506985Y246889D01*
X506985Y245132D01*
X501628Y239775D01*
X499871Y239775D01*
G37*
%LPD*%
%LPC*%
G36*
X121665Y384301D02*
X121665Y384301D01*
X121665Y386058D01*
X127022Y391415D01*
X128779Y391415D01*
X128779Y384301D01*
X121665Y384301D01*
G37*
%LPD*%
%LPC*%
G36*
X488695Y250951D02*
X488695Y250951D01*
X488695Y252708D01*
X494052Y258065D01*
X495809Y258065D01*
X495809Y250951D01*
X488695Y250951D01*
G37*
%LPD*%
%LPC*%
G36*
X132841Y373125D02*
X132841Y373125D01*
X132841Y380239D01*
X139955Y380239D01*
X139955Y378482D01*
X134598Y373125D01*
X132841Y373125D01*
G37*
%LPD*%
%LPC*%
G36*
X269262Y388365D02*
X269262Y388365D01*
X263905Y393722D01*
X263905Y395479D01*
X271019Y395479D01*
X271019Y388365D01*
X269262Y388365D01*
G37*
%LPD*%
%LPC*%
G36*
X494052Y239775D02*
X494052Y239775D01*
X488695Y245132D01*
X488695Y246889D01*
X495809Y246889D01*
X495809Y239775D01*
X494052Y239775D01*
G37*
%LPD*%
%LPC*%
G36*
X127022Y373125D02*
X127022Y373125D01*
X121665Y378482D01*
X121665Y380239D01*
X128779Y380239D01*
X128779Y373125D01*
X127022Y373125D01*
G37*
%LPD*%
%LPC*%
G36*
X355622Y188975D02*
X355622Y188975D01*
X350265Y194332D01*
X350265Y196089D01*
X357379Y196089D01*
X357379Y188975D01*
X355622Y188975D01*
G37*
%LPD*%
%LPC*%
G36*
X506752Y59435D02*
X506752Y59435D01*
X501395Y64792D01*
X501395Y66549D01*
X508509Y66549D01*
X508509Y59435D01*
X506752Y59435D01*
G37*
%LPD*%
%LPC*%
G36*
X476272Y188975D02*
X476272Y188975D01*
X470915Y194332D01*
X470915Y196089D01*
X478029Y196089D01*
X478029Y188975D01*
X476272Y188975D01*
G37*
%LPD*%
%LPC*%
G36*
X297202Y201675D02*
X297202Y201675D01*
X291845Y207032D01*
X291845Y208789D01*
X298959Y208789D01*
X298959Y201675D01*
X297202Y201675D01*
G37*
%LPD*%
%LPC*%
G36*
X130809Y382269D02*
X130809Y382269D01*
X130809Y382271D01*
X130811Y382271D01*
X130811Y382269D01*
X130809Y382269D01*
G37*
%LPD*%
%LPC*%
G36*
X359409Y198119D02*
X359409Y198119D01*
X359409Y198121D01*
X359411Y198121D01*
X359411Y198119D01*
X359409Y198119D01*
G37*
%LPD*%
%LPC*%
G36*
X232409Y199389D02*
X232409Y199389D01*
X232409Y199391D01*
X232411Y199391D01*
X232411Y199389D01*
X232409Y199389D01*
G37*
%LPD*%
%LPC*%
G36*
X480059Y95249D02*
X480059Y95249D01*
X480059Y95251D01*
X480061Y95251D01*
X480061Y95249D01*
X480059Y95249D01*
G37*
%LPD*%
%LPC*%
G36*
X273049Y397509D02*
X273049Y397509D01*
X273049Y397511D01*
X273051Y397511D01*
X273051Y397509D01*
X273049Y397509D01*
G37*
%LPD*%
%LPC*%
G36*
X510539Y68579D02*
X510539Y68579D01*
X510539Y68581D01*
X510541Y68581D01*
X510541Y68579D01*
X510539Y68579D01*
G37*
%LPD*%
%LPC*%
G36*
X454659Y171449D02*
X454659Y171449D01*
X454659Y171451D01*
X454661Y171451D01*
X454661Y171449D01*
X454659Y171449D01*
G37*
%LPD*%
%LPC*%
G36*
X497839Y248919D02*
X497839Y248919D01*
X497839Y248921D01*
X497841Y248921D01*
X497841Y248919D01*
X497839Y248919D01*
G37*
%LPD*%
%LPC*%
G36*
X19557Y471423D02*
X19557Y471423D01*
X19557Y471425D01*
X19559Y471425D01*
X19559Y471423D01*
X19557Y471423D01*
G37*
%LPD*%
%LPC*%
G36*
X300989Y210819D02*
X300989Y210819D01*
X300989Y210821D01*
X300991Y210821D01*
X300991Y210819D01*
X300989Y210819D01*
G37*
%LPD*%
%LPC*%
G36*
X84581Y471423D02*
X84581Y471423D01*
X84581Y471425D01*
X84583Y471425D01*
X84583Y471423D01*
X84581Y471423D01*
G37*
%LPD*%
D10*
X49276Y239395D02*
X59507Y239395D01*
X56096Y242805D01*
X59507Y246215D01*
X49276Y246215D01*
X49276Y252150D02*
X49276Y255560D01*
X49276Y252150D02*
X50981Y250444D01*
X54391Y250444D01*
X56096Y252150D01*
X56096Y255560D01*
X54391Y257265D01*
X52686Y257265D01*
X52686Y250444D01*
X49276Y261494D02*
X59507Y261494D01*
X56096Y263199D02*
X54391Y261494D01*
X56096Y263199D02*
X56096Y266609D01*
X54391Y268314D01*
X49276Y268314D01*
X56096Y274248D02*
X56096Y277659D01*
X54391Y279364D01*
X49276Y279364D01*
X49276Y274248D01*
X50981Y272543D01*
X52686Y274248D01*
X52686Y279364D01*
X49276Y283593D02*
X56096Y283593D01*
X56096Y288708D01*
X54391Y290413D01*
X49276Y290413D01*
X56096Y294642D02*
X56096Y296347D01*
X49276Y296347D01*
X49276Y294642D02*
X49276Y298052D01*
X59507Y296347D02*
X61212Y296347D01*
X59507Y302008D02*
X49276Y302008D01*
X52686Y302008D02*
X49276Y307124D01*
X52686Y302008D02*
X56096Y307124D01*
X67403Y246341D02*
X77634Y246341D01*
X67403Y246341D02*
X67403Y241226D01*
X69108Y239521D01*
X72518Y239521D01*
X74223Y241226D01*
X74223Y246341D01*
X67403Y252276D02*
X67403Y255686D01*
X67403Y252276D02*
X69108Y250570D01*
X72518Y250570D01*
X74223Y252276D01*
X74223Y255686D01*
X72518Y257391D01*
X70813Y257391D01*
X70813Y250570D01*
X67403Y261620D02*
X67403Y266735D01*
X69108Y268440D01*
X70813Y266735D01*
X70813Y263325D01*
X72518Y261620D01*
X74223Y263325D01*
X74223Y268440D01*
X74223Y272669D02*
X74223Y274374D01*
X67403Y274374D01*
X67403Y272669D02*
X67403Y276080D01*
X77634Y274374D02*
X79339Y274374D01*
X63993Y283446D02*
X63993Y285151D01*
X65698Y286856D01*
X74223Y286856D01*
X74223Y281741D01*
X72518Y280036D01*
X69108Y280036D01*
X67403Y281741D01*
X67403Y286856D01*
X67403Y291085D02*
X74223Y291085D01*
X74223Y296200D01*
X72518Y297906D01*
X67403Y297906D01*
X67403Y303840D02*
X67403Y307250D01*
X67403Y303840D02*
X69108Y302134D01*
X72518Y302134D01*
X74223Y303840D01*
X74223Y307250D01*
X72518Y308955D01*
X70813Y308955D01*
X70813Y302134D01*
X67403Y320004D02*
X77634Y320004D01*
X67403Y320004D02*
X67403Y314889D01*
X69108Y313184D01*
X72518Y313184D01*
X74223Y314889D01*
X74223Y320004D01*
X77634Y335283D02*
X67403Y335283D01*
X67403Y340398D01*
X69108Y342103D01*
X72518Y342103D01*
X74223Y340398D01*
X74223Y335283D01*
X74223Y346332D02*
X69108Y346332D01*
X67403Y348037D01*
X67403Y353153D01*
X65698Y353153D02*
X74223Y353153D01*
X65698Y353153D02*
X63993Y351448D01*
X63993Y349742D01*
D11*
X632460Y175006D02*
X632460Y167894D01*
X607060Y167894D02*
X607060Y175006D01*
X581660Y175006D02*
X581660Y167894D01*
X556260Y167894D02*
X556260Y175006D01*
X530860Y175006D02*
X530860Y167894D01*
X505460Y167894D02*
X505460Y175006D01*
X480060Y175006D02*
X480060Y167894D01*
X454660Y167894D02*
X454660Y175006D01*
X429260Y175006D02*
X429260Y167894D01*
X403860Y167894D02*
X403860Y175006D01*
X378460Y175006D02*
X378460Y167894D01*
X353060Y167894D02*
X353060Y175006D01*
X327660Y175006D02*
X327660Y167894D01*
X302260Y167894D02*
X302260Y175006D01*
X302260Y98806D02*
X302260Y91694D01*
X327660Y91694D02*
X327660Y98806D01*
X353060Y98806D02*
X353060Y91694D01*
X378460Y91694D02*
X378460Y98806D01*
X403860Y98806D02*
X403860Y91694D01*
X429260Y91694D02*
X429260Y98806D01*
X454660Y98806D02*
X454660Y91694D01*
X480060Y91694D02*
X480060Y98806D01*
X505460Y98806D02*
X505460Y91694D01*
X530860Y91694D02*
X530860Y98806D01*
X556260Y98806D02*
X556260Y91694D01*
X581660Y91694D02*
X581660Y98806D01*
X607060Y98806D02*
X607060Y91694D01*
X632460Y91694D02*
X632460Y98806D01*
D12*
X635000Y276860D03*
X660400Y276860D03*
X635000Y251460D03*
X660400Y251460D03*
X635000Y226060D03*
X660400Y226060D03*
D11*
X635000Y504444D02*
X635000Y511556D01*
X609600Y511556D02*
X609600Y504444D01*
X584200Y504444D02*
X584200Y511556D01*
X558800Y511556D02*
X558800Y504444D01*
X533400Y504444D02*
X533400Y511556D01*
X508000Y511556D02*
X508000Y504444D01*
X482600Y504444D02*
X482600Y511556D01*
X457200Y511556D02*
X457200Y504444D01*
D13*
X416560Y504190D02*
X416560Y511810D01*
X391160Y511810D02*
X391160Y504190D01*
X365760Y504190D02*
X365760Y511810D01*
X340360Y511810D02*
X340360Y504190D01*
X314960Y504190D02*
X314960Y511810D01*
X289560Y511810D02*
X289560Y504190D01*
X264160Y504190D02*
X264160Y511810D01*
X238760Y511810D02*
X238760Y504190D01*
X213360Y504190D02*
X213360Y511810D01*
X187960Y511810D02*
X187960Y504190D01*
D11*
X508000Y28956D02*
X508000Y21844D01*
X533400Y21844D02*
X533400Y28956D01*
X558800Y28956D02*
X558800Y21844D01*
X584200Y21844D02*
X584200Y28956D01*
X609600Y28956D02*
X609600Y21844D01*
X635000Y21844D02*
X635000Y28956D01*
D14*
X232410Y80010D03*
D15*
X232410Y54610D03*
D14*
X232410Y139700D03*
D15*
X232410Y114300D03*
D16*
X326390Y259080D03*
X300990Y259080D03*
X326390Y306070D03*
X300990Y306070D03*
X326390Y353060D03*
X300990Y353060D03*
X510540Y68580D03*
X459740Y68580D03*
D17*
X182880Y383540D03*
X233680Y383540D03*
D16*
X326390Y210820D03*
X300990Y210820D03*
D18*
X497840Y248920D03*
X497840Y198120D03*
D17*
X544830Y274320D03*
X595630Y274320D03*
X387350Y68580D03*
X438150Y68580D03*
D13*
X23368Y516636D02*
X15748Y516636D01*
X15748Y471424D02*
X23368Y471424D01*
X80772Y516636D02*
X88392Y516636D01*
X88392Y471424D02*
X80772Y471424D01*
D11*
X279400Y28956D02*
X279400Y21844D01*
X304800Y21844D02*
X304800Y28956D01*
X330200Y28956D02*
X330200Y21844D01*
X355600Y21844D02*
X355600Y28956D01*
X381000Y28956D02*
X381000Y21844D01*
X406400Y21844D02*
X406400Y28956D01*
X431800Y28956D02*
X431800Y21844D01*
X457200Y21844D02*
X457200Y28956D01*
D19*
X454660Y236220D03*
X406400Y236220D03*
D17*
X359410Y198120D03*
X410210Y198120D03*
D16*
X480060Y198120D03*
X429260Y198120D03*
D19*
X177800Y424180D03*
X226060Y424180D03*
D13*
X603250Y238760D02*
X603250Y231140D01*
X577850Y231140D02*
X577850Y238760D01*
D20*
X254000Y25400D03*
X177800Y25400D03*
D14*
X232410Y199390D03*
D15*
X232410Y173990D03*
D18*
X157480Y142240D03*
X157480Y66040D03*
D21*
X187960Y66040D03*
X187960Y142240D03*
D17*
X205740Y255270D03*
X281940Y255270D03*
D16*
X281940Y228600D03*
X205740Y228600D03*
D18*
X273050Y448310D03*
X273050Y397510D03*
X130810Y433070D03*
X130810Y382270D03*
D21*
X302260Y383540D03*
X302260Y459740D03*
X327660Y383540D03*
X327660Y459740D03*
D18*
X247650Y358140D03*
X247650Y281940D03*
X274320Y358140D03*
X274320Y281940D03*
X523240Y274320D03*
X523240Y198120D03*
D22*
X157480Y276860D03*
X182880Y233680D03*
X134620Y233680D03*
D23*
X55880Y93550D02*
X55880Y71550D01*
X118110Y69050D02*
X118110Y96050D01*
X97360Y33020D02*
X75360Y33020D01*
D16*
X647700Y200660D03*
X571500Y200660D03*
D24*
X480060Y171450D02*
X480060Y160020D01*
X429260Y109220D01*
X429260Y95250D01*
D25*
X327660Y459740D02*
X302260Y459740D01*
X217170Y266700D02*
X205740Y255270D01*
X217170Y266700D02*
X217170Y349250D01*
X300990Y458470D02*
X302260Y459740D01*
X278130Y378460D02*
X246380Y378460D01*
X217170Y349250D01*
D24*
X248920Y88900D02*
X248920Y82389D01*
X304800Y26509D02*
X304800Y25400D01*
X304800Y26509D02*
X248920Y82389D01*
X248920Y88900D02*
X232410Y105410D01*
X232410Y114300D01*
D26*
X660400Y304800D03*
X635000Y304800D03*
D24*
X429260Y95250D02*
X429260Y86360D01*
D25*
X278130Y378460D02*
X300990Y401320D01*
X300990Y458470D01*
D24*
X429260Y77470D02*
X438150Y68580D01*
X429260Y73660D02*
X429260Y77470D01*
X429260Y95250D01*
X381000Y41910D02*
X381000Y25400D01*
X412750Y73660D02*
X429260Y73660D01*
X412750Y73660D02*
X381000Y41910D01*
D27*
X109220Y360680D03*
D25*
X109220Y353060D01*
D27*
X109220Y353060D03*
X109220Y345440D03*
D25*
X109220Y337820D01*
D27*
X109220Y337820D03*
X111760Y137160D03*
D24*
X121920Y137160D01*
D27*
X121920Y137160D03*
X111760Y147320D03*
D24*
X121920Y137160D01*
X121920Y147320D01*
D27*
X121920Y147320D03*
X140970Y166370D03*
X90170Y236220D03*
X102870Y236220D03*
X90170Y223520D03*
X102870Y223520D03*
X33020Y218440D03*
X34290Y316230D03*
X200660Y274320D03*
X247650Y302260D03*
X187960Y334010D03*
X139700Y323850D03*
X124460Y248920D03*
X232410Y241300D03*
X151130Y195580D03*
D25*
X661670Y199390D02*
X661670Y180340D01*
D26*
X355600Y457200D03*
X355600Y431800D03*
D28*
X420370Y58420D03*
X482600Y24130D03*
X596900Y59690D03*
X621030Y59690D03*
X619760Y113030D03*
X342900Y72390D03*
D25*
X546100Y293370D02*
X546100Y467360D01*
X541020Y472440D02*
X276860Y472440D01*
X276860Y468630D01*
D28*
X276860Y468630D03*
D25*
X541020Y472440D02*
X546100Y467360D01*
X546100Y293370D02*
X556260Y283210D01*
X454660Y116840D02*
X454660Y95250D01*
X454660Y116840D02*
X488950Y151130D01*
X543560Y184456D02*
X547116Y188012D01*
X543560Y161951D02*
X532739Y151130D01*
X543560Y161951D02*
X543560Y184456D01*
X532739Y151130D02*
X488950Y151130D01*
X541020Y214204D02*
X541020Y256142D01*
X547116Y208108D02*
X547116Y188012D01*
X547116Y208108D02*
X541020Y214204D01*
X556260Y271382D02*
X556260Y283210D01*
X556260Y271382D02*
X541020Y256142D01*
X84582Y516636D02*
X19558Y516636D01*
X84582Y516636D02*
X124968Y476250D01*
X614984Y524814D02*
X622300Y517499D01*
X181349Y524814D02*
X176784Y520249D01*
X181349Y524814D02*
X614984Y524814D01*
X176784Y493014D02*
X160020Y476250D01*
X124968Y476250D01*
X176784Y493014D02*
X176784Y520249D01*
X632460Y185420D02*
X632460Y171450D01*
X632460Y185420D02*
X647700Y200660D01*
X635000Y213360D02*
X635000Y226060D01*
X635000Y213360D02*
X647700Y200660D01*
X635000Y226060D02*
X626110Y234950D01*
X603250Y234950D01*
X350520Y10160D02*
X335280Y25400D01*
X330200Y25400D01*
X360680Y10160D02*
X368300Y17780D01*
X360680Y10160D02*
X350520Y10160D01*
X368300Y65168D02*
X391160Y88028D01*
X368300Y65168D02*
X368300Y17780D01*
X391160Y88028D02*
X391160Y130810D01*
D28*
X391160Y130810D03*
D25*
X603250Y234950D02*
X603250Y238760D01*
X635000Y231140D02*
X635000Y226060D01*
X635000Y231140D02*
X647700Y243840D01*
X647700Y313690D01*
X643890Y317500D01*
X624840Y317500D02*
X622300Y320040D01*
X622300Y517499D01*
X624840Y317500D02*
X643890Y317500D01*
X327660Y381000D02*
X327660Y383540D01*
X327660Y370840D01*
X340360Y358140D01*
X340360Y320040D01*
X326390Y306070D01*
X302260Y377190D02*
X302260Y383540D01*
X302260Y377190D02*
X326390Y353060D01*
D27*
X110490Y276860D03*
D24*
X119380Y276860D01*
D27*
X119380Y276860D03*
D24*
X119380Y274320D02*
X219710Y173990D01*
X119380Y274320D02*
X119380Y276860D01*
X219710Y173990D02*
X232410Y173990D01*
X232410Y165100D02*
X249555Y147955D01*
X232410Y165100D02*
X232410Y173990D01*
X355600Y36830D02*
X355600Y25400D01*
X348488Y43942D02*
X306739Y43942D01*
X348488Y43942D02*
X355600Y36830D01*
X306739Y43942D02*
X261620Y89061D01*
X261620Y95250D01*
X249555Y107315D01*
X249555Y147955D01*
D28*
X110490Y266700D03*
D24*
X119380Y266700D01*
D28*
X119380Y266700D03*
D25*
X377190Y139700D02*
X377190Y96520D01*
X378460Y95250D01*
D28*
X377190Y139700D03*
D25*
X353060Y119380D02*
X353060Y95250D01*
D28*
X353060Y119380D03*
D25*
X327660Y95250D02*
X326390Y96520D01*
X327660Y95250D02*
X327660Y133350D01*
D28*
X327660Y133350D03*
D25*
X302260Y283210D02*
X514350Y283210D01*
D27*
X278130Y307340D03*
D25*
X302260Y283210D01*
X514350Y283210D02*
X523240Y274320D01*
X544830Y274320D01*
D27*
X133350Y406400D03*
D24*
X124460Y406400D01*
X115570Y406400D01*
X114300Y406400D01*
X157480Y382270D02*
X157480Y276860D01*
D27*
X124460Y406400D03*
X115570Y406400D03*
D24*
X133350Y406400D02*
X157480Y382270D01*
D25*
X226060Y424180D02*
X250190Y448310D01*
X273050Y448310D01*
X490220Y43180D02*
X508000Y25400D01*
X490220Y80010D02*
X505460Y95250D01*
X490220Y80010D02*
X490220Y43180D01*
X533400Y25400D02*
X533400Y92710D01*
X530860Y95250D01*
X558800Y92710D02*
X558800Y25400D01*
X558800Y92710D02*
X556260Y95250D01*
X584200Y92710D02*
X584200Y25400D01*
X584200Y92710D02*
X581660Y95250D01*
X571500Y474980D02*
X565150Y481330D01*
D28*
X223520Y481330D03*
D25*
X565150Y481330D01*
X609600Y92710D02*
X609600Y25400D01*
X609600Y92710D02*
X607060Y95250D01*
X607060Y123190D02*
X568960Y161290D01*
X568960Y187299D01*
X607060Y123190D02*
X607060Y95250D01*
X568960Y187299D02*
X560832Y195427D01*
X553974Y220218D02*
X553974Y249480D01*
X560832Y213360D02*
X560832Y195427D01*
X560832Y213360D02*
X553974Y220218D01*
X553974Y249480D02*
X571500Y267006D01*
X571500Y474980D01*
X596900Y477520D02*
X596900Y294640D01*
X596900Y477520D02*
X584200Y490220D01*
X203200Y490220D01*
X187960Y505460D01*
X187960Y508000D01*
X619760Y188243D02*
X619760Y151130D01*
X632460Y138430D01*
X632460Y95250D01*
X632460Y27940D02*
X635000Y25400D01*
X632460Y27940D02*
X632460Y95250D01*
X590550Y247650D02*
X612902Y270002D01*
X612902Y285750D01*
X590550Y247650D02*
X590550Y217453D01*
X619760Y188243D01*
X599440Y292100D02*
X596900Y294640D01*
X606552Y292100D02*
X612902Y285750D01*
X606552Y292100D02*
X599440Y292100D01*
D28*
X563880Y285750D03*
D25*
X556260Y176530D02*
X556260Y171450D01*
X556260Y176530D02*
X553974Y178816D01*
X553974Y210820D01*
X547742Y217052D02*
X547742Y252421D01*
X547742Y217052D02*
X553974Y210820D01*
X547742Y252421D02*
X563880Y268559D01*
X563880Y285750D01*
X269240Y276860D02*
X269240Y176530D01*
X300990Y306070D02*
X290830Y316230D01*
X275590Y316230D01*
X270510Y311150D01*
X270510Y285750D01*
X274320Y281940D01*
X269240Y276860D01*
X269240Y176530D02*
X289560Y156210D01*
X340360Y156210D01*
D28*
X340360Y156210D03*
D25*
X581660Y171450D02*
X581660Y205175D01*
D28*
X581660Y288290D03*
D25*
X559816Y224196D02*
X573192Y210820D01*
X576015Y210820D02*
X581660Y205175D01*
X576015Y210820D02*
X573192Y210820D01*
X559816Y224196D02*
X559816Y246150D01*
X578612Y264946D01*
X578612Y282985D01*
X581660Y286033D01*
X581660Y288290D01*
X261620Y271780D02*
X254000Y279400D01*
X250190Y279400D01*
X261620Y271780D02*
X261620Y173990D01*
X287020Y148590D01*
X318770Y148590D01*
D28*
X318770Y148590D03*
D25*
X607060Y171450D02*
X607060Y189230D01*
X574237Y218948D02*
X566674Y226511D01*
X577342Y218948D02*
X607060Y189230D01*
X577342Y218948D02*
X574237Y218948D01*
X566674Y243835D02*
X585470Y262631D01*
X585470Y279798D01*
X566674Y243835D02*
X566674Y226511D01*
D28*
X605790Y281940D03*
D25*
X592184Y286512D02*
X585470Y279798D01*
X601218Y286512D02*
X605790Y281940D01*
X601218Y286512D02*
X592184Y286512D01*
X250190Y279400D02*
X247650Y281940D01*
D28*
X534670Y264160D03*
D25*
X530860Y180929D02*
X530860Y171450D01*
X530860Y180929D02*
X540258Y190327D01*
X540258Y205740D01*
X534670Y211328D01*
X534670Y264160D01*
X520700Y186690D02*
X505460Y171450D01*
X520700Y186690D02*
X527448Y186690D01*
X533400Y192642D01*
D28*
X510540Y273050D03*
D25*
X533400Y203200D02*
X533400Y192642D01*
X528320Y254000D02*
X510540Y271780D01*
X510540Y273050D01*
X528320Y254000D02*
X528320Y208280D01*
X533400Y203200D01*
D28*
X302260Y140970D03*
D25*
X302260Y95250D01*
X308610Y228600D02*
X281940Y228600D01*
X308610Y228600D02*
X326390Y210820D01*
X577850Y234950D02*
X577850Y245110D01*
X595630Y262890D01*
X595630Y274320D01*
D26*
X381000Y431800D03*
X406400Y431800D03*
X431800Y431800D03*
X457200Y431800D03*
X482600Y431800D03*
X508000Y431800D03*
X533400Y431800D03*
X558800Y431800D03*
X584200Y431800D03*
X406400Y457200D03*
X431800Y457200D03*
X457200Y457200D03*
X482600Y457200D03*
X508000Y457200D03*
X533400Y457200D03*
X558800Y457200D03*
X584200Y457200D03*
X355600Y406400D03*
X381000Y406400D03*
X406400Y406400D03*
X431800Y406400D03*
X457200Y406400D03*
X482600Y406400D03*
X508000Y406400D03*
X533400Y406400D03*
X558800Y406400D03*
X584200Y406400D03*
X609600Y406400D03*
X635000Y406400D03*
X355600Y381000D03*
X381000Y381000D03*
X406400Y381000D03*
X431800Y381000D03*
X457200Y381000D03*
X482600Y381000D03*
X508000Y381000D03*
X533400Y381000D03*
X558800Y381000D03*
X584200Y381000D03*
X609600Y381000D03*
X635000Y381000D03*
X381000Y355600D03*
X406400Y355600D03*
X431800Y355600D03*
X457200Y355600D03*
X482600Y355600D03*
X508000Y355600D03*
X533400Y355600D03*
X558800Y355600D03*
X584200Y355600D03*
X609600Y355600D03*
X635000Y355600D03*
X381000Y330200D03*
X406400Y330200D03*
X431800Y330200D03*
X457200Y330200D03*
X482600Y330200D03*
X508000Y330200D03*
X533400Y330200D03*
X558800Y330200D03*
X584200Y330200D03*
X609600Y330200D03*
X635000Y330200D03*
X381000Y304800D03*
X406400Y304800D03*
X431800Y304800D03*
X457200Y304800D03*
X482600Y304800D03*
X508000Y304800D03*
X533400Y304800D03*
X558800Y304800D03*
X584200Y304800D03*
X609600Y304800D03*
X660400Y330200D03*
X381000Y457200D03*
X609600Y431800D03*
X635000Y431800D03*
X660400Y381000D03*
D25*
X247650Y365760D02*
X247650Y358140D01*
X247650Y365760D02*
X252730Y370840D01*
X283210Y370840D01*
X300990Y353060D01*
D24*
X457200Y38100D02*
X457200Y25400D01*
X457200Y38100D02*
X452120Y43180D01*
X173990Y49530D02*
X157480Y66040D01*
D28*
X407670Y43180D03*
D24*
X415290Y43180D02*
X452120Y43180D01*
X415290Y43180D02*
X407670Y43180D01*
X254000Y26670D02*
X254000Y25400D01*
X254000Y26670D02*
X232410Y48260D01*
X232410Y54610D01*
X227330Y49530D01*
X173990Y49530D01*
X400050Y43180D02*
X407670Y43180D01*
D28*
X400050Y43180D03*
X415290Y43180D03*
M02*
