G04 EAGLE Gerber RS-274X export*
G75*
%MOMM*%
%FSLAX34Y34*%
%LPD*%
%INTop Copper*%
%IPPOS*%
%AMOC8*
5,1,8,0,0,1.08239X$1,22.5*%
G01*
%ADD10C,1.422400*%
%ADD11P,1.677704X8X292.500000*%
%ADD12C,1.524000*%
%ADD13P,1.732040X8X112.500000*%
%ADD14C,1.600200*%
%ADD15P,1.429621X8X202.500000*%
%ADD16P,1.429621X8X22.500000*%
%ADD17R,0.787400X0.889000*%
%ADD18P,1.429621X8X292.500000*%
%ADD19R,2.200000X0.600000*%
%ADD20R,2.006600X1.498600*%
%ADD21R,2.006600X3.810000*%
%ADD22R,2.500000X2.000000*%
%ADD23R,3.300000X2.000000*%
%ADD24R,3.100000X0.500000*%
%ADD25C,1.320800*%
%ADD26R,0.635000X1.524000*%
%ADD27C,1.700000*%
%ADD28P,1.429621X8X112.500000*%
%ADD29P,1.649562X8X22.500000*%
%ADD30C,2.000000*%
%ADD31C,0.406400*%
%ADD32C,1.016000*%
%ADD33R,1.650000X1.650000*%
%ADD34C,0.812800*%
%ADD35C,0.609600*%
%ADD36C,0.654800*%
%ADD37C,0.500000*%

G36*
X130691Y5347D02*
X130691Y5347D01*
X130777Y5349D01*
X130831Y5367D01*
X130888Y5375D01*
X130966Y5410D01*
X131048Y5436D01*
X131095Y5468D01*
X131147Y5491D01*
X131213Y5546D01*
X131284Y5594D01*
X131321Y5638D01*
X131364Y5675D01*
X131412Y5746D01*
X131467Y5812D01*
X131490Y5864D01*
X131522Y5911D01*
X131548Y5993D01*
X131582Y6072D01*
X131590Y6128D01*
X131607Y6182D01*
X131610Y6268D01*
X131621Y6353D01*
X131613Y6409D01*
X131615Y6466D01*
X131593Y6549D01*
X131581Y6635D01*
X131557Y6686D01*
X131543Y6741D01*
X131499Y6815D01*
X131464Y6894D01*
X131427Y6937D01*
X131398Y6986D01*
X131335Y7045D01*
X131279Y7110D01*
X131237Y7136D01*
X131190Y7180D01*
X131061Y7246D01*
X130995Y7288D01*
X128334Y8390D01*
X122690Y14034D01*
X119635Y21409D01*
X119635Y29391D01*
X122690Y36766D01*
X128334Y42410D01*
X135709Y45465D01*
X141082Y45465D01*
X141111Y45469D01*
X141140Y45466D01*
X141251Y45489D01*
X141363Y45505D01*
X141390Y45517D01*
X141419Y45522D01*
X141519Y45574D01*
X141623Y45621D01*
X141645Y45640D01*
X141671Y45653D01*
X141753Y45731D01*
X141840Y45804D01*
X141856Y45829D01*
X141877Y45849D01*
X141934Y45947D01*
X141997Y46041D01*
X142006Y46069D01*
X142021Y46094D01*
X142049Y46204D01*
X142083Y46312D01*
X142084Y46342D01*
X142091Y46370D01*
X142087Y46483D01*
X142090Y46596D01*
X142083Y46625D01*
X142082Y46654D01*
X142047Y46762D01*
X142018Y46871D01*
X142003Y46897D01*
X141994Y46925D01*
X141949Y46988D01*
X141873Y47116D01*
X141828Y47159D01*
X141800Y47198D01*
X129692Y59306D01*
X129645Y59341D01*
X129605Y59383D01*
X129532Y59426D01*
X129465Y59476D01*
X129410Y59497D01*
X129360Y59527D01*
X129278Y59548D01*
X129199Y59578D01*
X129141Y59582D01*
X129084Y59597D01*
X129000Y59594D01*
X128916Y59601D01*
X128858Y59590D01*
X128800Y59588D01*
X128720Y59562D01*
X128637Y59545D01*
X128585Y59518D01*
X128529Y59500D01*
X128473Y59460D01*
X128385Y59414D01*
X128312Y59346D01*
X128256Y59306D01*
X126077Y57126D01*
X120908Y54985D01*
X115312Y54985D01*
X110143Y57127D01*
X106187Y61083D01*
X104045Y66252D01*
X104045Y98848D01*
X106186Y104017D01*
X109402Y107232D01*
X109419Y107256D01*
X109442Y107275D01*
X109504Y107369D01*
X109572Y107459D01*
X109583Y107487D01*
X109599Y107511D01*
X109633Y107619D01*
X109674Y107725D01*
X109676Y107754D01*
X109685Y107782D01*
X109688Y107896D01*
X109697Y108008D01*
X109692Y108037D01*
X109692Y108066D01*
X109664Y108176D01*
X109641Y108287D01*
X109628Y108313D01*
X109620Y108341D01*
X109563Y108439D01*
X109510Y108539D01*
X109490Y108561D01*
X109475Y108586D01*
X109393Y108663D01*
X109315Y108745D01*
X109289Y108760D01*
X109268Y108780D01*
X109167Y108832D01*
X109069Y108889D01*
X109041Y108896D01*
X109015Y108910D01*
X108937Y108923D01*
X108794Y108959D01*
X108731Y108957D01*
X108684Y108965D01*
X82001Y108965D01*
X78640Y110357D01*
X65907Y123090D01*
X64515Y126451D01*
X64515Y179619D01*
X65907Y182980D01*
X76354Y193427D01*
X77996Y194107D01*
X78094Y194165D01*
X78196Y194218D01*
X78217Y194237D01*
X78240Y194251D01*
X78319Y194334D01*
X78403Y194414D01*
X78417Y194438D01*
X78436Y194458D01*
X78488Y194560D01*
X78546Y194659D01*
X78553Y194686D01*
X78566Y194710D01*
X78588Y194823D01*
X78616Y194934D01*
X78615Y194962D01*
X78621Y194989D01*
X78611Y195104D01*
X78607Y195219D01*
X78599Y195245D01*
X78596Y195273D01*
X78555Y195380D01*
X78520Y195489D01*
X78505Y195509D01*
X78494Y195538D01*
X78334Y195750D01*
X78325Y195762D01*
X75925Y198163D01*
X67177Y206910D01*
X65785Y210271D01*
X65785Y291379D01*
X67177Y294740D01*
X69893Y297455D01*
X77449Y305011D01*
X80164Y307727D01*
X80272Y307771D01*
X80273Y307772D01*
X80274Y307772D01*
X80393Y307843D01*
X80516Y307916D01*
X80517Y307917D01*
X80519Y307918D01*
X80617Y308022D01*
X80712Y308122D01*
X80712Y308124D01*
X80713Y308125D01*
X80777Y308249D01*
X80842Y308375D01*
X80842Y308377D01*
X80843Y308378D01*
X80845Y308393D01*
X80897Y308654D01*
X80894Y308684D01*
X80898Y308709D01*
X80898Y309151D01*
X83279Y311532D01*
X106713Y311532D01*
X109094Y309151D01*
X109094Y290797D01*
X107558Y289262D01*
X107523Y289215D01*
X107481Y289175D01*
X107438Y289102D01*
X107387Y289035D01*
X107367Y288980D01*
X107337Y288930D01*
X107316Y288848D01*
X107286Y288769D01*
X107281Y288711D01*
X107267Y288654D01*
X107270Y288570D01*
X107263Y288486D01*
X107274Y288428D01*
X107276Y288370D01*
X107302Y288290D01*
X107318Y288207D01*
X107345Y288155D01*
X107363Y288099D01*
X107404Y288043D01*
X107449Y287955D01*
X107518Y287882D01*
X107558Y287826D01*
X108828Y286556D01*
X108898Y286504D01*
X108962Y286444D01*
X109011Y286418D01*
X109055Y286385D01*
X109137Y286354D01*
X109215Y286314D01*
X109263Y286306D01*
X109321Y286284D01*
X109469Y286272D01*
X109546Y286259D01*
X112055Y286259D01*
X112482Y286082D01*
X112512Y286074D01*
X112539Y286060D01*
X112617Y286047D01*
X112757Y286011D01*
X112821Y286013D01*
X112870Y286005D01*
X121199Y286005D01*
X124560Y284613D01*
X127133Y282040D01*
X128525Y278679D01*
X128525Y275041D01*
X127335Y272169D01*
X127313Y272084D01*
X127282Y272002D01*
X127278Y271947D01*
X127264Y271893D01*
X127266Y271806D01*
X127259Y271719D01*
X127270Y271671D01*
X127272Y271609D01*
X127317Y271468D01*
X127335Y271391D01*
X128525Y268519D01*
X128525Y264881D01*
X127133Y261520D01*
X124560Y258947D01*
X122293Y258009D01*
X122292Y258008D01*
X122291Y258007D01*
X122170Y257936D01*
X122049Y257864D01*
X122048Y257863D01*
X122046Y257862D01*
X121949Y257758D01*
X121853Y257657D01*
X121853Y257656D01*
X121852Y257655D01*
X121787Y257529D01*
X121723Y257405D01*
X121723Y257403D01*
X121722Y257402D01*
X121720Y257387D01*
X121668Y257126D01*
X121671Y257095D01*
X121667Y257071D01*
X121667Y239702D01*
X121671Y239673D01*
X121668Y239644D01*
X121691Y239533D01*
X121707Y239421D01*
X121719Y239394D01*
X121724Y239365D01*
X121776Y239265D01*
X121823Y239162D01*
X121842Y239139D01*
X121855Y239113D01*
X121933Y239031D01*
X122006Y238945D01*
X122031Y238928D01*
X122051Y238907D01*
X122149Y238850D01*
X122243Y238787D01*
X122271Y238778D01*
X122296Y238763D01*
X122406Y238735D01*
X122514Y238701D01*
X122544Y238700D01*
X122572Y238693D01*
X122685Y238697D01*
X122798Y238694D01*
X122827Y238701D01*
X122856Y238702D01*
X122964Y238737D01*
X123073Y238766D01*
X123099Y238781D01*
X123127Y238790D01*
X123190Y238835D01*
X123318Y238911D01*
X123361Y238957D01*
X123400Y238985D01*
X129780Y245365D01*
X139827Y245365D01*
X139885Y245373D01*
X139943Y245371D01*
X140025Y245393D01*
X140109Y245405D01*
X140162Y245428D01*
X140218Y245443D01*
X140291Y245486D01*
X140368Y245521D01*
X140413Y245559D01*
X140463Y245588D01*
X140521Y245650D01*
X140585Y245704D01*
X140617Y245753D01*
X140657Y245796D01*
X140696Y245871D01*
X140743Y245941D01*
X140760Y245997D01*
X140787Y246049D01*
X140798Y246117D01*
X140828Y246212D01*
X140831Y246312D01*
X140842Y246380D01*
X140842Y247429D01*
X143223Y249810D01*
X154465Y249810D01*
X156846Y247429D01*
X156846Y235171D01*
X154465Y232790D01*
X149377Y232790D01*
X149290Y232778D01*
X149203Y232775D01*
X149150Y232758D01*
X149095Y232750D01*
X149016Y232715D01*
X148932Y232688D01*
X148893Y232660D01*
X148836Y232634D01*
X148723Y232538D01*
X148659Y232493D01*
X146602Y230436D01*
X146550Y230366D01*
X146490Y230302D01*
X146464Y230253D01*
X146431Y230209D01*
X146409Y230151D01*
X146404Y230144D01*
X146398Y230122D01*
X146360Y230049D01*
X146352Y230002D01*
X146330Y229943D01*
X146326Y229896D01*
X146319Y229873D01*
X146317Y229789D01*
X146305Y229718D01*
X146305Y228840D01*
X141014Y223549D01*
X140962Y223480D01*
X140902Y223416D01*
X140876Y223366D01*
X140843Y223322D01*
X140812Y223240D01*
X140772Y223163D01*
X140764Y223115D01*
X140742Y223057D01*
X140730Y222909D01*
X140717Y222832D01*
X140717Y222710D01*
X140725Y222652D01*
X140723Y222594D01*
X140745Y222512D01*
X140757Y222428D01*
X140780Y222375D01*
X140795Y222319D01*
X140838Y222246D01*
X140873Y222169D01*
X140911Y222124D01*
X140940Y222074D01*
X141002Y222016D01*
X141056Y221952D01*
X141105Y221920D01*
X141148Y221880D01*
X141223Y221841D01*
X141293Y221794D01*
X141349Y221777D01*
X141401Y221750D01*
X141469Y221739D01*
X141564Y221709D01*
X141664Y221706D01*
X141732Y221695D01*
X145434Y221695D01*
X147815Y219314D01*
X147815Y209946D01*
X146866Y208998D01*
X146831Y208951D01*
X146789Y208911D01*
X146746Y208838D01*
X146695Y208771D01*
X146675Y208716D01*
X146645Y208666D01*
X146624Y208584D01*
X146594Y208505D01*
X146589Y208447D01*
X146575Y208390D01*
X146578Y208306D01*
X146571Y208222D01*
X146582Y208164D01*
X146584Y208106D01*
X146610Y208026D01*
X146626Y207943D01*
X146653Y207891D01*
X146671Y207835D01*
X146712Y207779D01*
X146757Y207691D01*
X146826Y207618D01*
X146866Y207562D01*
X147815Y206614D01*
X147815Y197246D01*
X146866Y196298D01*
X146831Y196251D01*
X146789Y196211D01*
X146746Y196138D01*
X146695Y196071D01*
X146675Y196016D01*
X146645Y195966D01*
X146624Y195884D01*
X146594Y195805D01*
X146589Y195747D01*
X146575Y195690D01*
X146578Y195606D01*
X146571Y195522D01*
X146582Y195464D01*
X146584Y195406D01*
X146610Y195326D01*
X146626Y195243D01*
X146653Y195191D01*
X146671Y195135D01*
X146711Y195079D01*
X146757Y194991D01*
X146826Y194918D01*
X146866Y194862D01*
X147824Y193905D01*
X147827Y193881D01*
X147830Y193794D01*
X147847Y193741D01*
X147855Y193686D01*
X147890Y193607D01*
X147917Y193523D01*
X147945Y193484D01*
X147971Y193427D01*
X148067Y193314D01*
X148112Y193250D01*
X152952Y188410D01*
X152976Y188392D01*
X152995Y188370D01*
X153089Y188307D01*
X153179Y188239D01*
X153207Y188229D01*
X153231Y188212D01*
X153339Y188178D01*
X153445Y188138D01*
X153474Y188135D01*
X153502Y188127D01*
X153616Y188124D01*
X153728Y188114D01*
X153757Y188120D01*
X153786Y188119D01*
X153896Y188148D01*
X154007Y188170D01*
X154033Y188184D01*
X154061Y188191D01*
X154159Y188249D01*
X154259Y188301D01*
X154281Y188321D01*
X154306Y188336D01*
X154383Y188419D01*
X154465Y188497D01*
X154480Y188522D01*
X154500Y188544D01*
X154552Y188644D01*
X154609Y188742D01*
X154616Y188771D01*
X154630Y188797D01*
X154643Y188874D01*
X154679Y189018D01*
X154677Y189080D01*
X154685Y189128D01*
X154685Y222799D01*
X156077Y226160D01*
X161900Y231982D01*
X161935Y232029D01*
X161977Y232069D01*
X162020Y232142D01*
X162071Y232209D01*
X162091Y232264D01*
X162121Y232315D01*
X162142Y232396D01*
X162172Y232475D01*
X162177Y232533D01*
X162191Y232590D01*
X162188Y232674D01*
X162195Y232758D01*
X162184Y232816D01*
X162182Y232874D01*
X162156Y232954D01*
X162139Y233037D01*
X162112Y233089D01*
X162094Y233145D01*
X162054Y233201D01*
X162008Y233289D01*
X161940Y233362D01*
X161925Y233382D01*
X161923Y233387D01*
X161921Y233388D01*
X161900Y233418D01*
X160146Y235171D01*
X160146Y247429D01*
X162527Y249810D01*
X173769Y249810D01*
X176150Y247429D01*
X176150Y245925D01*
X176154Y245896D01*
X176151Y245867D01*
X176157Y245841D01*
X176156Y245833D01*
X176165Y245801D01*
X176174Y245756D01*
X176190Y245644D01*
X176202Y245617D01*
X176207Y245588D01*
X176259Y245488D01*
X176306Y245385D01*
X176325Y245362D01*
X176338Y245336D01*
X176416Y245254D01*
X176489Y245168D01*
X176514Y245151D01*
X176534Y245130D01*
X176632Y245073D01*
X176726Y245010D01*
X176754Y245001D01*
X176779Y244986D01*
X176889Y244958D01*
X176997Y244924D01*
X177026Y244923D01*
X177055Y244916D01*
X177168Y244920D01*
X177281Y244917D01*
X177310Y244924D01*
X177339Y244925D01*
X177447Y244960D01*
X177556Y244989D01*
X177582Y245004D01*
X177610Y245013D01*
X177674Y245058D01*
X177718Y245085D01*
X177729Y245090D01*
X177736Y245096D01*
X177801Y245134D01*
X177844Y245180D01*
X177883Y245208D01*
X178040Y245365D01*
X185522Y245365D01*
X185609Y245377D01*
X185696Y245380D01*
X185749Y245397D01*
X185804Y245405D01*
X185883Y245440D01*
X185967Y245467D01*
X186006Y245495D01*
X186063Y245521D01*
X186176Y245617D01*
X186240Y245662D01*
X194774Y254196D01*
X194826Y254266D01*
X194886Y254330D01*
X194912Y254379D01*
X194945Y254423D01*
X194976Y254505D01*
X195016Y254583D01*
X195024Y254630D01*
X195046Y254689D01*
X195058Y254837D01*
X195071Y254914D01*
X195071Y259689D01*
X201321Y265939D01*
X210159Y265939D01*
X216409Y259689D01*
X216409Y250851D01*
X210159Y244601D01*
X202844Y244601D01*
X202757Y244589D01*
X202670Y244586D01*
X202617Y244569D01*
X202562Y244561D01*
X202483Y244526D01*
X202399Y244499D01*
X202360Y244471D01*
X202303Y244445D01*
X202190Y244349D01*
X202126Y244304D01*
X194862Y237040D01*
X194810Y236970D01*
X194750Y236906D01*
X194724Y236857D01*
X194691Y236813D01*
X194660Y236731D01*
X194620Y236653D01*
X194612Y236606D01*
X194590Y236547D01*
X194578Y236399D01*
X194565Y236322D01*
X194565Y234964D01*
X194569Y234935D01*
X194566Y234905D01*
X194589Y234794D01*
X194605Y234682D01*
X194617Y234655D01*
X194622Y234627D01*
X194675Y234526D01*
X194721Y234423D01*
X194740Y234400D01*
X194753Y234374D01*
X194831Y234292D01*
X194904Y234206D01*
X194929Y234189D01*
X194949Y234168D01*
X195047Y234111D01*
X195141Y234048D01*
X195169Y234039D01*
X195194Y234024D01*
X195304Y233997D01*
X195412Y233962D01*
X195442Y233962D01*
X195470Y233954D01*
X195583Y233958D01*
X195696Y233955D01*
X195725Y233962D01*
X195754Y233963D01*
X195862Y233998D01*
X195971Y234027D01*
X195997Y234042D01*
X196025Y234051D01*
X196088Y234096D01*
X196216Y234172D01*
X196259Y234218D01*
X196298Y234246D01*
X201321Y239269D01*
X210159Y239269D01*
X216409Y233019D01*
X216409Y224181D01*
X212134Y219906D01*
X212082Y219836D01*
X212022Y219773D01*
X211996Y219723D01*
X211963Y219679D01*
X211932Y219597D01*
X211892Y219519D01*
X211884Y219472D01*
X211862Y219413D01*
X211850Y219266D01*
X211837Y219188D01*
X211837Y207067D01*
X210909Y204826D01*
X205784Y199702D01*
X205732Y199632D01*
X205672Y199568D01*
X205646Y199519D01*
X205613Y199475D01*
X205582Y199393D01*
X205542Y199315D01*
X205534Y199268D01*
X205512Y199209D01*
X205500Y199061D01*
X205487Y198984D01*
X205487Y189287D01*
X204559Y187046D01*
X201574Y184061D01*
X199720Y183294D01*
X199621Y183235D01*
X199519Y183182D01*
X199499Y183163D01*
X199475Y183149D01*
X199396Y183066D01*
X199313Y182987D01*
X199299Y182963D01*
X199280Y182942D01*
X199227Y182840D01*
X199169Y182741D01*
X199162Y182714D01*
X199150Y182690D01*
X199127Y182577D01*
X199099Y182466D01*
X199100Y182438D01*
X199095Y182411D01*
X199105Y182296D01*
X199108Y182182D01*
X199117Y182155D01*
X199119Y182128D01*
X199160Y182021D01*
X199196Y181911D01*
X199210Y181891D01*
X199221Y181862D01*
X199382Y181650D01*
X199391Y181638D01*
X199829Y181200D01*
X199830Y181164D01*
X199847Y181111D01*
X199855Y181056D01*
X199890Y180977D01*
X199917Y180893D01*
X199945Y180854D01*
X199971Y180797D01*
X200067Y180684D01*
X200112Y180620D01*
X216858Y163874D01*
X216928Y163822D01*
X216992Y163762D01*
X217041Y163736D01*
X217085Y163703D01*
X217167Y163672D01*
X217245Y163632D01*
X217292Y163624D01*
X217351Y163602D01*
X217499Y163590D01*
X217576Y163577D01*
X223309Y163577D01*
X223338Y163581D01*
X223367Y163578D01*
X223478Y163601D01*
X223590Y163617D01*
X223617Y163629D01*
X223646Y163634D01*
X223746Y163687D01*
X223850Y163733D01*
X223872Y163752D01*
X223898Y163765D01*
X223980Y163843D01*
X224067Y163916D01*
X224083Y163941D01*
X224104Y163961D01*
X224161Y164059D01*
X224224Y164153D01*
X224233Y164181D01*
X224248Y164206D01*
X224276Y164316D01*
X224310Y164424D01*
X224311Y164454D01*
X224318Y164482D01*
X224314Y164595D01*
X224317Y164708D01*
X224310Y164737D01*
X224309Y164766D01*
X224274Y164874D01*
X224245Y164983D01*
X224231Y165009D01*
X224221Y165037D01*
X224176Y165100D01*
X224100Y165228D01*
X224055Y165271D01*
X224027Y165310D01*
X222181Y167155D01*
X220344Y171590D01*
X220344Y176390D01*
X222181Y180825D01*
X225575Y184219D01*
X230010Y186056D01*
X234810Y186056D01*
X239245Y184219D01*
X242639Y180825D01*
X244476Y176390D01*
X244476Y171590D01*
X242639Y167155D01*
X240793Y165310D01*
X240776Y165286D01*
X240753Y165267D01*
X240691Y165173D01*
X240622Y165083D01*
X240612Y165055D01*
X240596Y165031D01*
X240562Y164923D01*
X240521Y164817D01*
X240519Y164788D01*
X240510Y164760D01*
X240507Y164646D01*
X240498Y164534D01*
X240503Y164505D01*
X240503Y164476D01*
X240531Y164366D01*
X240554Y164255D01*
X240567Y164229D01*
X240575Y164201D01*
X240632Y164103D01*
X240685Y164003D01*
X240705Y163981D01*
X240720Y163956D01*
X240802Y163879D01*
X240880Y163797D01*
X240906Y163782D01*
X240927Y163762D01*
X241028Y163710D01*
X241126Y163653D01*
X241154Y163646D01*
X241180Y163632D01*
X241258Y163619D01*
X241401Y163583D01*
X241464Y163585D01*
X241511Y163577D01*
X254508Y163577D01*
X254566Y163585D01*
X254624Y163583D01*
X254706Y163605D01*
X254790Y163617D01*
X254843Y163640D01*
X254899Y163655D01*
X254972Y163698D01*
X255049Y163733D01*
X255094Y163771D01*
X255144Y163800D01*
X255202Y163862D01*
X255266Y163916D01*
X255298Y163965D01*
X255338Y164008D01*
X255377Y164083D01*
X255424Y164153D01*
X255441Y164209D01*
X255468Y164261D01*
X255479Y164329D01*
X255509Y164424D01*
X255512Y164524D01*
X255523Y164592D01*
X255523Y252673D01*
X256451Y254914D01*
X271076Y269538D01*
X271094Y269562D01*
X271116Y269581D01*
X271179Y269675D01*
X271247Y269765D01*
X271257Y269793D01*
X271274Y269817D01*
X271308Y269925D01*
X271348Y270031D01*
X271351Y270060D01*
X271359Y270088D01*
X271362Y270202D01*
X271372Y270314D01*
X271366Y270343D01*
X271367Y270372D01*
X271338Y270482D01*
X271316Y270593D01*
X271302Y270619D01*
X271295Y270647D01*
X271237Y270745D01*
X271185Y270845D01*
X271165Y270867D01*
X271150Y270892D01*
X271067Y270969D01*
X270989Y271051D01*
X270964Y271066D01*
X270942Y271086D01*
X270842Y271138D01*
X270744Y271195D01*
X270715Y271202D01*
X270689Y271216D01*
X270612Y271229D01*
X270468Y271265D01*
X270406Y271263D01*
X270358Y271271D01*
X269901Y271271D01*
X263651Y277521D01*
X263651Y286359D01*
X269901Y292609D01*
X278739Y292609D01*
X284989Y286359D01*
X284989Y285902D01*
X284993Y285873D01*
X284990Y285844D01*
X285013Y285733D01*
X285029Y285620D01*
X285041Y285594D01*
X285046Y285565D01*
X285098Y285464D01*
X285145Y285361D01*
X285164Y285338D01*
X285177Y285313D01*
X285255Y285230D01*
X285328Y285144D01*
X285353Y285128D01*
X285373Y285106D01*
X285471Y285049D01*
X285565Y284986D01*
X285593Y284977D01*
X285618Y284963D01*
X285728Y284935D01*
X285836Y284901D01*
X285866Y284900D01*
X285894Y284893D01*
X286007Y284896D01*
X286120Y284893D01*
X286149Y284901D01*
X286178Y284902D01*
X286286Y284936D01*
X286395Y284965D01*
X286421Y284980D01*
X286449Y284989D01*
X286512Y285035D01*
X286640Y285110D01*
X286683Y285156D01*
X286722Y285184D01*
X296037Y294499D01*
X296072Y294546D01*
X296115Y294586D01*
X296157Y294659D01*
X296208Y294726D01*
X296229Y294781D01*
X296258Y294831D01*
X296279Y294913D01*
X296309Y294992D01*
X296314Y295050D01*
X296329Y295107D01*
X296326Y295191D01*
X296333Y295275D01*
X296321Y295333D01*
X296319Y295391D01*
X296294Y295471D01*
X296277Y295554D01*
X296250Y295606D01*
X296232Y295662D01*
X296192Y295718D01*
X296146Y295806D01*
X296077Y295879D01*
X296037Y295935D01*
X290321Y301651D01*
X290321Y310489D01*
X296571Y316739D01*
X305409Y316739D01*
X305860Y316288D01*
X305884Y316270D01*
X305903Y316248D01*
X305954Y316214D01*
X305983Y316186D01*
X306021Y316167D01*
X306087Y316117D01*
X306115Y316106D01*
X306139Y316090D01*
X306222Y316064D01*
X306236Y316057D01*
X306252Y316054D01*
X306353Y316016D01*
X306382Y316013D01*
X306410Y316004D01*
X306524Y316001D01*
X306636Y315992D01*
X306665Y315998D01*
X306694Y315997D01*
X306804Y316026D01*
X306915Y316048D01*
X306941Y316061D01*
X306969Y316069D01*
X307067Y316127D01*
X307167Y316179D01*
X307189Y316199D01*
X307214Y316214D01*
X307291Y316297D01*
X307373Y316375D01*
X307388Y316400D01*
X307408Y316421D01*
X307460Y316522D01*
X307484Y316563D01*
X307494Y316578D01*
X307495Y316582D01*
X307517Y316620D01*
X307524Y316648D01*
X307538Y316675D01*
X307551Y316752D01*
X307559Y316785D01*
X307579Y316849D01*
X307580Y316866D01*
X307587Y316895D01*
X307585Y316958D01*
X307593Y317006D01*
X307593Y342124D01*
X307589Y342153D01*
X307592Y342183D01*
X307569Y342294D01*
X307553Y342406D01*
X307541Y342433D01*
X307536Y342461D01*
X307483Y342562D01*
X307437Y342665D01*
X307418Y342688D01*
X307405Y342714D01*
X307327Y342796D01*
X307254Y342882D01*
X307229Y342899D01*
X307209Y342920D01*
X307111Y342977D01*
X307017Y343040D01*
X306989Y343049D01*
X306964Y343064D01*
X306854Y343091D01*
X306746Y343126D01*
X306716Y343126D01*
X306688Y343134D01*
X306575Y343130D01*
X306462Y343133D01*
X306433Y343126D01*
X306404Y343125D01*
X306296Y343090D01*
X306187Y343061D01*
X306161Y343046D01*
X306133Y343037D01*
X306069Y342992D01*
X305942Y342916D01*
X305899Y342870D01*
X305860Y342842D01*
X305409Y342391D01*
X296571Y342391D01*
X290321Y348641D01*
X290321Y357479D01*
X296037Y363195D01*
X296072Y363242D01*
X296115Y363282D01*
X296157Y363355D01*
X296208Y363422D01*
X296229Y363477D01*
X296258Y363527D01*
X296279Y363609D01*
X296309Y363688D01*
X296314Y363746D01*
X296329Y363803D01*
X296326Y363887D01*
X296333Y363971D01*
X296321Y364028D01*
X296319Y364087D01*
X296294Y364167D01*
X296277Y364250D01*
X296250Y364302D01*
X296232Y364357D01*
X296192Y364414D01*
X296146Y364502D01*
X296077Y364575D01*
X296037Y364631D01*
X284979Y375689D01*
X283121Y377546D01*
X282193Y379787D01*
X282193Y391270D01*
X282189Y391299D01*
X282192Y391328D01*
X282169Y391439D01*
X282153Y391551D01*
X282141Y391578D01*
X282136Y391607D01*
X282084Y391707D01*
X282037Y391811D01*
X282018Y391833D01*
X282005Y391859D01*
X281927Y391941D01*
X281854Y392028D01*
X281829Y392044D01*
X281809Y392065D01*
X281711Y392122D01*
X281617Y392185D01*
X281589Y392194D01*
X281564Y392209D01*
X281454Y392237D01*
X281346Y392271D01*
X281316Y392272D01*
X281288Y392279D01*
X281175Y392275D01*
X281062Y392278D01*
X281033Y392271D01*
X281004Y392270D01*
X280896Y392235D01*
X280787Y392206D01*
X280761Y392191D01*
X280733Y392182D01*
X280670Y392137D01*
X280542Y392061D01*
X280499Y392016D01*
X280460Y391988D01*
X276838Y388365D01*
X275081Y388365D01*
X275081Y396494D01*
X275073Y396552D01*
X275075Y396610D01*
X275053Y396692D01*
X275041Y396775D01*
X275017Y396829D01*
X275003Y396885D01*
X274960Y396958D01*
X274925Y397035D01*
X274887Y397079D01*
X274857Y397130D01*
X274796Y397187D01*
X274741Y397252D01*
X274693Y397284D01*
X274650Y397324D01*
X274575Y397363D01*
X274505Y397409D01*
X274449Y397427D01*
X274397Y397454D01*
X274329Y397465D01*
X274234Y397495D01*
X274134Y397498D01*
X274066Y397509D01*
X273049Y397509D01*
X273049Y397511D01*
X274066Y397511D01*
X274124Y397519D01*
X274182Y397518D01*
X274264Y397539D01*
X274347Y397551D01*
X274401Y397575D01*
X274457Y397589D01*
X274530Y397632D01*
X274607Y397667D01*
X274652Y397705D01*
X274702Y397735D01*
X274760Y397796D01*
X274824Y397851D01*
X274856Y397899D01*
X274896Y397942D01*
X274935Y398017D01*
X274981Y398087D01*
X274999Y398143D01*
X275026Y398195D01*
X275037Y398263D01*
X275067Y398358D01*
X275070Y398458D01*
X275081Y398526D01*
X275081Y406655D01*
X276838Y406655D01*
X280460Y403032D01*
X280484Y403015D01*
X280503Y402992D01*
X280597Y402930D01*
X280687Y402862D01*
X280715Y402851D01*
X280739Y402835D01*
X280847Y402801D01*
X280953Y402760D01*
X280982Y402758D01*
X281010Y402749D01*
X281124Y402746D01*
X281236Y402737D01*
X281265Y402743D01*
X281294Y402742D01*
X281404Y402770D01*
X281515Y402793D01*
X281541Y402806D01*
X281569Y402814D01*
X281667Y402871D01*
X281767Y402924D01*
X281789Y402944D01*
X281814Y402959D01*
X281891Y403041D01*
X281973Y403119D01*
X281988Y403145D01*
X282008Y403166D01*
X282060Y403267D01*
X282117Y403365D01*
X282124Y403393D01*
X282138Y403419D01*
X282151Y403497D01*
X282187Y403640D01*
X282185Y403703D01*
X282193Y403750D01*
X282193Y439914D01*
X282189Y439943D01*
X282192Y439973D01*
X282169Y440084D01*
X282153Y440196D01*
X282141Y440223D01*
X282136Y440251D01*
X282083Y440352D01*
X282037Y440455D01*
X282018Y440478D01*
X282005Y440504D01*
X281927Y440586D01*
X281854Y440672D01*
X281829Y440689D01*
X281809Y440710D01*
X281711Y440767D01*
X281617Y440830D01*
X281589Y440839D01*
X281564Y440854D01*
X281454Y440881D01*
X281346Y440916D01*
X281316Y440916D01*
X281288Y440924D01*
X281175Y440920D01*
X281062Y440923D01*
X281033Y440916D01*
X281004Y440915D01*
X280896Y440880D01*
X280787Y440851D01*
X280761Y440836D01*
X280733Y440827D01*
X280670Y440782D01*
X280542Y440706D01*
X280499Y440660D01*
X280460Y440632D01*
X277469Y437641D01*
X268631Y437641D01*
X262381Y443891D01*
X262381Y452729D01*
X268631Y458979D01*
X277469Y458979D01*
X280460Y455988D01*
X280484Y455970D01*
X280503Y455948D01*
X280597Y455885D01*
X280687Y455817D01*
X280715Y455806D01*
X280739Y455790D01*
X280847Y455756D01*
X280953Y455716D01*
X280982Y455713D01*
X281010Y455704D01*
X281124Y455701D01*
X281236Y455692D01*
X281265Y455698D01*
X281294Y455697D01*
X281404Y455726D01*
X281515Y455748D01*
X281541Y455761D01*
X281569Y455769D01*
X281667Y455827D01*
X281767Y455879D01*
X281789Y455899D01*
X281814Y455914D01*
X281891Y455997D01*
X281973Y456075D01*
X281988Y456100D01*
X282008Y456121D01*
X282060Y456222D01*
X282117Y456320D01*
X282124Y456348D01*
X282138Y456375D01*
X282151Y456452D01*
X282187Y456596D01*
X282185Y456658D01*
X282193Y456706D01*
X282193Y461376D01*
X282177Y461490D01*
X282167Y461604D01*
X282157Y461630D01*
X282153Y461658D01*
X282106Y461763D01*
X282065Y461870D01*
X282049Y461892D01*
X282037Y461917D01*
X281963Y462005D01*
X281894Y462096D01*
X281871Y462113D01*
X281854Y462134D01*
X281758Y462198D01*
X281666Y462267D01*
X281640Y462276D01*
X281617Y462292D01*
X281507Y462326D01*
X281400Y462367D01*
X281372Y462369D01*
X281346Y462378D01*
X281231Y462381D01*
X281117Y462390D01*
X281092Y462384D01*
X281062Y462385D01*
X280805Y462318D01*
X280789Y462314D01*
X278320Y461291D01*
X275400Y461291D01*
X272703Y462409D01*
X270639Y464473D01*
X269521Y467170D01*
X269521Y470090D01*
X270686Y472902D01*
X270694Y472932D01*
X270708Y472959D01*
X270721Y473037D01*
X270757Y473177D01*
X270755Y473241D01*
X270763Y473290D01*
X270763Y494494D01*
X270762Y494507D01*
X270763Y494519D01*
X270742Y494647D01*
X270723Y494776D01*
X270718Y494787D01*
X270716Y494799D01*
X270660Y494917D01*
X270607Y495035D01*
X270599Y495045D01*
X270594Y495056D01*
X270508Y495153D01*
X270424Y495252D01*
X270413Y495259D01*
X270405Y495268D01*
X270295Y495338D01*
X270187Y495410D01*
X270175Y495413D01*
X270165Y495420D01*
X270040Y495456D01*
X269916Y495495D01*
X269903Y495496D01*
X269892Y495499D01*
X269762Y495499D01*
X269632Y495503D01*
X269620Y495500D01*
X269607Y495500D01*
X269547Y495481D01*
X269357Y495431D01*
X269320Y495409D01*
X269287Y495399D01*
X268060Y494774D01*
X266539Y494279D01*
X266191Y494224D01*
X266191Y506984D01*
X266183Y507042D01*
X266185Y507100D01*
X266163Y507182D01*
X266151Y507265D01*
X266127Y507319D01*
X266113Y507375D01*
X266070Y507448D01*
X266035Y507525D01*
X265997Y507569D01*
X265967Y507620D01*
X265906Y507677D01*
X265851Y507742D01*
X265803Y507774D01*
X265760Y507814D01*
X265685Y507853D01*
X265615Y507899D01*
X265559Y507917D01*
X265507Y507944D01*
X265439Y507955D01*
X265344Y507985D01*
X265244Y507988D01*
X265176Y507999D01*
X264159Y507999D01*
X264159Y509016D01*
X264151Y509074D01*
X264152Y509132D01*
X264131Y509214D01*
X264119Y509297D01*
X264095Y509351D01*
X264081Y509407D01*
X264038Y509480D01*
X264003Y509557D01*
X263965Y509602D01*
X263935Y509652D01*
X263874Y509710D01*
X263819Y509774D01*
X263771Y509806D01*
X263728Y509846D01*
X263653Y509885D01*
X263583Y509931D01*
X263527Y509949D01*
X263475Y509976D01*
X263407Y509987D01*
X263312Y510017D01*
X263212Y510020D01*
X263144Y510031D01*
X253944Y510031D01*
X253940Y510041D01*
X253929Y510087D01*
X253882Y510170D01*
X253843Y510256D01*
X253812Y510293D01*
X253788Y510335D01*
X253721Y510401D01*
X253660Y510473D01*
X253619Y510500D01*
X253585Y510533D01*
X253502Y510578D01*
X253423Y510631D01*
X253377Y510645D01*
X253335Y510668D01*
X253261Y510682D01*
X253152Y510716D01*
X253066Y510719D01*
X253005Y510730D01*
X251481Y510761D01*
X251412Y510753D01*
X251344Y510755D01*
X251272Y510736D01*
X251198Y510727D01*
X251135Y510700D01*
X251069Y510683D01*
X251005Y510645D01*
X250937Y510616D01*
X250883Y510573D01*
X250824Y510538D01*
X250773Y510484D01*
X250716Y510437D01*
X250677Y510381D01*
X250630Y510330D01*
X250596Y510265D01*
X250554Y510204D01*
X250532Y510139D01*
X250500Y510077D01*
X250490Y510016D01*
X250462Y509935D01*
X250457Y509820D01*
X250445Y509746D01*
X250445Y501866D01*
X248666Y497571D01*
X245379Y494284D01*
X241084Y492505D01*
X239261Y492505D01*
X239174Y492493D01*
X239086Y492490D01*
X239034Y492473D01*
X238979Y492465D01*
X238899Y492430D01*
X238816Y492403D01*
X238777Y492375D01*
X238720Y492349D01*
X238606Y492253D01*
X238543Y492208D01*
X238332Y491997D01*
X223926Y491997D01*
X223897Y491993D01*
X223868Y491996D01*
X223757Y491973D01*
X223644Y491957D01*
X223618Y491945D01*
X223589Y491940D01*
X223488Y491888D01*
X223385Y491841D01*
X223362Y491822D01*
X223337Y491809D01*
X223254Y491731D01*
X223168Y491658D01*
X223152Y491633D01*
X223130Y491613D01*
X223073Y491515D01*
X223010Y491421D01*
X223001Y491393D01*
X222987Y491368D01*
X222959Y491258D01*
X222925Y491150D01*
X222924Y491120D01*
X222917Y491092D01*
X222920Y490979D01*
X222917Y490866D01*
X222925Y490837D01*
X222926Y490808D01*
X222960Y490700D01*
X222989Y490591D01*
X223004Y490565D01*
X223013Y490537D01*
X223059Y490474D01*
X223134Y490346D01*
X223180Y490303D01*
X223208Y490264D01*
X224536Y488936D01*
X224560Y488918D01*
X224581Y488894D01*
X224647Y488852D01*
X224763Y488765D01*
X224823Y488742D01*
X224865Y488716D01*
X227677Y487551D01*
X229741Y485487D01*
X230859Y482790D01*
X230859Y479870D01*
X229741Y477173D01*
X227677Y475109D01*
X224980Y473991D01*
X222060Y473991D01*
X219363Y475109D01*
X217299Y477173D01*
X216134Y479985D01*
X216118Y480011D01*
X216109Y480041D01*
X216063Y480105D01*
X215989Y480230D01*
X215942Y480274D01*
X215914Y480314D01*
X208191Y488036D01*
X207263Y490277D01*
X207263Y490982D01*
X207255Y491040D01*
X207257Y491098D01*
X207235Y491180D01*
X207223Y491264D01*
X207200Y491317D01*
X207185Y491373D01*
X207142Y491446D01*
X207107Y491523D01*
X207069Y491568D01*
X207040Y491618D01*
X206978Y491676D01*
X206924Y491740D01*
X206875Y491772D01*
X206832Y491812D01*
X206757Y491851D01*
X206687Y491898D01*
X206631Y491915D01*
X206579Y491942D01*
X206511Y491953D01*
X206416Y491983D01*
X206316Y491986D01*
X206248Y491997D01*
X165194Y491997D01*
X165107Y491985D01*
X165020Y491982D01*
X164967Y491965D01*
X164912Y491957D01*
X164832Y491922D01*
X164749Y491895D01*
X164710Y491867D01*
X164653Y491841D01*
X164539Y491745D01*
X164476Y491700D01*
X163766Y490990D01*
X156391Y487935D01*
X148409Y487935D01*
X141034Y490990D01*
X135390Y496634D01*
X132335Y504009D01*
X132335Y511991D01*
X135390Y519366D01*
X141034Y525010D01*
X143695Y526112D01*
X143769Y526156D01*
X143847Y526191D01*
X143890Y526228D01*
X143939Y526257D01*
X143998Y526319D01*
X144064Y526375D01*
X144096Y526422D01*
X144135Y526463D01*
X144174Y526540D01*
X144222Y526611D01*
X144239Y526665D01*
X144265Y526716D01*
X144281Y526800D01*
X144307Y526882D01*
X144309Y526939D01*
X144320Y526995D01*
X144312Y527080D01*
X144315Y527166D01*
X144300Y527221D01*
X144295Y527278D01*
X144265Y527358D01*
X144243Y527441D01*
X144214Y527490D01*
X144193Y527543D01*
X144142Y527612D01*
X144098Y527686D01*
X144056Y527725D01*
X144022Y527770D01*
X143953Y527821D01*
X143890Y527880D01*
X143840Y527906D01*
X143794Y527940D01*
X143714Y527971D01*
X143637Y528010D01*
X143588Y528018D01*
X143528Y528041D01*
X143383Y528052D01*
X143306Y528065D01*
X95938Y528065D01*
X95909Y528061D01*
X95880Y528064D01*
X95769Y528041D01*
X95657Y528025D01*
X95630Y528013D01*
X95601Y528008D01*
X95501Y527956D01*
X95398Y527909D01*
X95375Y527890D01*
X95349Y527877D01*
X95267Y527799D01*
X95181Y527726D01*
X95164Y527701D01*
X95143Y527681D01*
X95086Y527583D01*
X95023Y527489D01*
X95014Y527461D01*
X94999Y527436D01*
X94971Y527326D01*
X94937Y527218D01*
X94936Y527188D01*
X94929Y527160D01*
X94933Y527047D01*
X94930Y526934D01*
X94937Y526905D01*
X94938Y526876D01*
X94973Y526768D01*
X95002Y526659D01*
X95017Y526633D01*
X95026Y526605D01*
X95071Y526542D01*
X95147Y526414D01*
X95193Y526371D01*
X95221Y526332D01*
X98298Y523255D01*
X100077Y518960D01*
X100077Y514312D01*
X98298Y510017D01*
X95011Y506730D01*
X90716Y504951D01*
X78448Y504951D01*
X74153Y506730D01*
X70866Y510017D01*
X69087Y514312D01*
X69087Y518960D01*
X70866Y523255D01*
X73943Y526332D01*
X73961Y526356D01*
X73983Y526375D01*
X74046Y526469D01*
X74114Y526559D01*
X74125Y526587D01*
X74141Y526611D01*
X74175Y526719D01*
X74216Y526825D01*
X74218Y526854D01*
X74227Y526882D01*
X74230Y526996D01*
X74239Y527108D01*
X74233Y527137D01*
X74234Y527166D01*
X74205Y527276D01*
X74183Y527387D01*
X74170Y527413D01*
X74162Y527441D01*
X74104Y527539D01*
X74052Y527639D01*
X74032Y527661D01*
X74017Y527686D01*
X73934Y527763D01*
X73856Y527845D01*
X73831Y527860D01*
X73810Y527880D01*
X73709Y527932D01*
X73611Y527989D01*
X73583Y527996D01*
X73557Y528010D01*
X73479Y528023D01*
X73336Y528059D01*
X73273Y528057D01*
X73226Y528065D01*
X30914Y528065D01*
X30885Y528061D01*
X30856Y528064D01*
X30745Y528041D01*
X30633Y528025D01*
X30606Y528013D01*
X30577Y528008D01*
X30477Y527956D01*
X30374Y527909D01*
X30351Y527890D01*
X30325Y527877D01*
X30243Y527799D01*
X30157Y527726D01*
X30140Y527701D01*
X30119Y527681D01*
X30062Y527583D01*
X29999Y527489D01*
X29990Y527461D01*
X29975Y527436D01*
X29947Y527326D01*
X29913Y527218D01*
X29912Y527188D01*
X29905Y527160D01*
X29909Y527047D01*
X29906Y526934D01*
X29913Y526905D01*
X29914Y526876D01*
X29949Y526768D01*
X29978Y526659D01*
X29993Y526633D01*
X30002Y526605D01*
X30047Y526542D01*
X30123Y526414D01*
X30169Y526371D01*
X30197Y526332D01*
X33274Y523255D01*
X35053Y518960D01*
X35053Y514312D01*
X33274Y510017D01*
X29987Y506730D01*
X25692Y504951D01*
X13424Y504951D01*
X9129Y506730D01*
X7068Y508791D01*
X7044Y508809D01*
X7025Y508831D01*
X6931Y508894D01*
X6841Y508962D01*
X6813Y508973D01*
X6789Y508989D01*
X6681Y509023D01*
X6575Y509064D01*
X6546Y509066D01*
X6518Y509075D01*
X6404Y509078D01*
X6292Y509087D01*
X6263Y509081D01*
X6234Y509082D01*
X6124Y509053D01*
X6013Y509031D01*
X5987Y509018D01*
X5959Y509010D01*
X5861Y508952D01*
X5761Y508900D01*
X5739Y508880D01*
X5714Y508865D01*
X5637Y508782D01*
X5555Y508704D01*
X5540Y508679D01*
X5520Y508658D01*
X5468Y508557D01*
X5411Y508459D01*
X5404Y508431D01*
X5390Y508405D01*
X5377Y508327D01*
X5341Y508184D01*
X5343Y508121D01*
X5335Y508074D01*
X5335Y477502D01*
X5350Y477395D01*
X5358Y477286D01*
X5370Y477255D01*
X5375Y477221D01*
X5419Y477122D01*
X5457Y477020D01*
X5477Y476993D01*
X5491Y476962D01*
X5561Y476879D01*
X5626Y476791D01*
X5653Y476770D01*
X5675Y476745D01*
X5765Y476684D01*
X5851Y476618D01*
X5883Y476606D01*
X5911Y476587D01*
X6015Y476554D01*
X6116Y476515D01*
X6150Y476511D01*
X6182Y476501D01*
X6291Y476498D01*
X6399Y476488D01*
X6432Y476495D01*
X6466Y476494D01*
X6572Y476521D01*
X6678Y476542D01*
X6709Y476557D01*
X6741Y476566D01*
X6835Y476621D01*
X6932Y476670D01*
X6954Y476692D01*
X6986Y476711D01*
X7136Y476871D01*
X7171Y476906D01*
X7998Y478043D01*
X9129Y479174D01*
X10423Y480114D01*
X11848Y480840D01*
X13369Y481335D01*
X14948Y481585D01*
X17527Y481585D01*
X17527Y473455D01*
X6350Y473455D01*
X6292Y473447D01*
X6234Y473449D01*
X6152Y473427D01*
X6069Y473415D01*
X6015Y473391D01*
X5959Y473377D01*
X5886Y473334D01*
X5809Y473299D01*
X5764Y473261D01*
X5714Y473231D01*
X5656Y473170D01*
X5592Y473115D01*
X5560Y473067D01*
X5520Y473024D01*
X5481Y472949D01*
X5435Y472879D01*
X5417Y472823D01*
X5390Y472771D01*
X5379Y472703D01*
X5349Y472608D01*
X5346Y472508D01*
X5335Y472440D01*
X5335Y470408D01*
X5343Y470350D01*
X5341Y470292D01*
X5363Y470210D01*
X5375Y470127D01*
X5399Y470073D01*
X5413Y470017D01*
X5456Y469944D01*
X5491Y469867D01*
X5529Y469822D01*
X5559Y469772D01*
X5620Y469714D01*
X5675Y469650D01*
X5723Y469618D01*
X5766Y469578D01*
X5841Y469539D01*
X5911Y469493D01*
X5967Y469475D01*
X6019Y469448D01*
X6087Y469437D01*
X6182Y469407D01*
X6282Y469404D01*
X6350Y469393D01*
X18542Y469393D01*
X18600Y469401D01*
X18658Y469399D01*
X18740Y469421D01*
X18823Y469433D01*
X18877Y469457D01*
X18933Y469471D01*
X19006Y469514D01*
X19083Y469549D01*
X19127Y469587D01*
X19178Y469617D01*
X19235Y469678D01*
X19300Y469733D01*
X19332Y469781D01*
X19372Y469824D01*
X19411Y469899D01*
X19457Y469969D01*
X19475Y470025D01*
X19502Y470077D01*
X19513Y470145D01*
X19543Y470240D01*
X19546Y470340D01*
X19557Y470408D01*
X19557Y471425D01*
X19559Y471425D01*
X19559Y470408D01*
X19567Y470350D01*
X19566Y470292D01*
X19587Y470210D01*
X19599Y470127D01*
X19623Y470073D01*
X19637Y470017D01*
X19680Y469944D01*
X19715Y469867D01*
X19753Y469822D01*
X19783Y469772D01*
X19844Y469714D01*
X19899Y469650D01*
X19947Y469618D01*
X19990Y469578D01*
X20065Y469539D01*
X20135Y469493D01*
X20191Y469475D01*
X20243Y469448D01*
X20311Y469437D01*
X20406Y469407D01*
X20506Y469404D01*
X20574Y469393D01*
X33334Y469393D01*
X33279Y469045D01*
X32784Y467524D01*
X32058Y466099D01*
X31118Y464805D01*
X30581Y464268D01*
X30564Y464244D01*
X30541Y464226D01*
X30479Y464131D01*
X30410Y464041D01*
X30400Y464013D01*
X30384Y463989D01*
X30350Y463881D01*
X30309Y463775D01*
X30307Y463746D01*
X30298Y463718D01*
X30295Y463605D01*
X30286Y463492D01*
X30291Y463463D01*
X30291Y463434D01*
X30319Y463324D01*
X30342Y463213D01*
X30355Y463187D01*
X30362Y463159D01*
X30420Y463061D01*
X30473Y462961D01*
X30493Y462939D01*
X30508Y462914D01*
X30590Y462837D01*
X30668Y462755D01*
X30694Y462740D01*
X30715Y462720D01*
X30816Y462668D01*
X30914Y462611D01*
X30942Y462604D01*
X30968Y462590D01*
X31046Y462577D01*
X31189Y462541D01*
X31252Y462543D01*
X31299Y462535D01*
X72841Y462535D01*
X72870Y462539D01*
X72899Y462536D01*
X73010Y462559D01*
X73122Y462575D01*
X73149Y462587D01*
X73178Y462592D01*
X73278Y462645D01*
X73382Y462691D01*
X73404Y462710D01*
X73430Y462723D01*
X73512Y462801D01*
X73599Y462875D01*
X73615Y462899D01*
X73636Y462919D01*
X73693Y463017D01*
X73756Y463111D01*
X73765Y463139D01*
X73780Y463164D01*
X73808Y463274D01*
X73842Y463382D01*
X73843Y463412D01*
X73850Y463440D01*
X73846Y463553D01*
X73849Y463666D01*
X73842Y463695D01*
X73841Y463724D01*
X73806Y463832D01*
X73778Y463941D01*
X73763Y463967D01*
X73754Y463995D01*
X73708Y464059D01*
X73632Y464186D01*
X73587Y464229D01*
X73559Y464268D01*
X73022Y464805D01*
X72082Y466099D01*
X71356Y467524D01*
X70861Y469045D01*
X70806Y469393D01*
X83566Y469393D01*
X83624Y469401D01*
X83682Y469399D01*
X83764Y469421D01*
X83847Y469433D01*
X83901Y469457D01*
X83957Y469471D01*
X84030Y469514D01*
X84107Y469549D01*
X84151Y469587D01*
X84202Y469617D01*
X84259Y469678D01*
X84324Y469733D01*
X84356Y469781D01*
X84396Y469824D01*
X84435Y469899D01*
X84481Y469969D01*
X84499Y470025D01*
X84526Y470077D01*
X84537Y470145D01*
X84567Y470240D01*
X84570Y470340D01*
X84581Y470408D01*
X84581Y471425D01*
X84583Y471425D01*
X84583Y470408D01*
X84591Y470350D01*
X84590Y470292D01*
X84611Y470210D01*
X84623Y470127D01*
X84647Y470073D01*
X84661Y470017D01*
X84704Y469944D01*
X84739Y469867D01*
X84777Y469822D01*
X84807Y469772D01*
X84868Y469714D01*
X84923Y469650D01*
X84971Y469618D01*
X85014Y469578D01*
X85089Y469539D01*
X85159Y469493D01*
X85215Y469475D01*
X85267Y469448D01*
X85335Y469437D01*
X85430Y469407D01*
X85530Y469404D01*
X85598Y469393D01*
X98358Y469393D01*
X98303Y469045D01*
X97808Y467524D01*
X97082Y466099D01*
X96142Y464805D01*
X95605Y464268D01*
X95588Y464244D01*
X95565Y464226D01*
X95503Y464131D01*
X95434Y464041D01*
X95424Y464013D01*
X95408Y463989D01*
X95374Y463881D01*
X95333Y463775D01*
X95331Y463746D01*
X95322Y463718D01*
X95319Y463605D01*
X95310Y463492D01*
X95315Y463463D01*
X95315Y463434D01*
X95343Y463324D01*
X95366Y463213D01*
X95379Y463187D01*
X95386Y463159D01*
X95444Y463061D01*
X95497Y462961D01*
X95517Y462939D01*
X95532Y462914D01*
X95614Y462837D01*
X95692Y462755D01*
X95718Y462740D01*
X95739Y462720D01*
X95840Y462668D01*
X95938Y462611D01*
X95966Y462604D01*
X95992Y462590D01*
X96070Y462577D01*
X96213Y462541D01*
X96276Y462543D01*
X96323Y462535D01*
X104395Y462535D01*
X104395Y447544D01*
X104407Y447458D01*
X104410Y447370D01*
X104427Y447317D01*
X104435Y447263D01*
X104470Y447183D01*
X104497Y447100D01*
X104525Y447060D01*
X104551Y447003D01*
X104647Y446890D01*
X104692Y446826D01*
X105445Y446074D01*
X105445Y422706D01*
X104692Y421954D01*
X104640Y421884D01*
X104580Y421820D01*
X104554Y421771D01*
X104521Y421727D01*
X104490Y421645D01*
X104450Y421567D01*
X104442Y421519D01*
X104420Y421461D01*
X104408Y421313D01*
X104395Y421236D01*
X104395Y413512D01*
X104403Y413454D01*
X104401Y413396D01*
X104423Y413314D01*
X104435Y413230D01*
X104459Y413177D01*
X104473Y413121D01*
X104516Y413048D01*
X104551Y412971D01*
X104589Y412926D01*
X104619Y412876D01*
X104680Y412818D01*
X104735Y412754D01*
X104783Y412722D01*
X104826Y412682D01*
X104901Y412643D01*
X104971Y412596D01*
X105027Y412579D01*
X105079Y412552D01*
X105147Y412541D01*
X105242Y412511D01*
X105342Y412508D01*
X105410Y412497D01*
X107044Y412497D01*
X107130Y412509D01*
X107218Y412512D01*
X107270Y412529D01*
X107325Y412537D01*
X107405Y412572D01*
X107488Y412599D01*
X107527Y412627D01*
X107584Y412653D01*
X107698Y412749D01*
X107761Y412794D01*
X109120Y414153D01*
X112481Y415545D01*
X135169Y415545D01*
X138530Y414153D01*
X141103Y411580D01*
X142495Y408219D01*
X142495Y404581D01*
X141103Y401220D01*
X138530Y398647D01*
X135169Y397255D01*
X120548Y397255D01*
X120519Y397251D01*
X120490Y397254D01*
X120379Y397231D01*
X120266Y397215D01*
X120240Y397203D01*
X120211Y397198D01*
X120110Y397146D01*
X120007Y397099D01*
X119984Y397080D01*
X119959Y397067D01*
X119876Y396989D01*
X119790Y396916D01*
X119774Y396891D01*
X119752Y396871D01*
X119695Y396773D01*
X119632Y396679D01*
X119623Y396651D01*
X119609Y396626D01*
X119581Y396516D01*
X119547Y396408D01*
X119546Y396378D01*
X119539Y396350D01*
X119542Y396237D01*
X119539Y396124D01*
X119547Y396095D01*
X119548Y396066D01*
X119582Y395958D01*
X119611Y395849D01*
X119626Y395823D01*
X119635Y395795D01*
X119681Y395732D01*
X119756Y395604D01*
X119788Y395575D01*
X119790Y395570D01*
X119806Y395555D01*
X119830Y395522D01*
X123279Y392074D01*
X123987Y390364D01*
X124045Y390265D01*
X124098Y390164D01*
X124117Y390143D01*
X124131Y390120D01*
X124214Y390041D01*
X124294Y389957D01*
X124318Y389943D01*
X124338Y389924D01*
X124440Y389872D01*
X124539Y389814D01*
X124566Y389807D01*
X124590Y389794D01*
X124703Y389772D01*
X124814Y389744D01*
X124842Y389744D01*
X124869Y389739D01*
X124984Y389749D01*
X125099Y389753D01*
X125125Y389761D01*
X125153Y389764D01*
X125260Y389805D01*
X125369Y389840D01*
X125389Y389855D01*
X125418Y389866D01*
X125631Y390027D01*
X125642Y390035D01*
X125644Y390037D01*
X125645Y390037D01*
X127022Y391415D01*
X128779Y391415D01*
X128779Y383286D01*
X128787Y383228D01*
X128785Y383170D01*
X128807Y383088D01*
X128819Y383005D01*
X128843Y382951D01*
X128857Y382895D01*
X128900Y382822D01*
X128935Y382745D01*
X128973Y382701D01*
X129003Y382650D01*
X129064Y382593D01*
X129119Y382528D01*
X129167Y382496D01*
X129210Y382456D01*
X129285Y382417D01*
X129355Y382371D01*
X129411Y382353D01*
X129463Y382326D01*
X129531Y382315D01*
X129626Y382285D01*
X129726Y382282D01*
X129794Y382271D01*
X130811Y382271D01*
X130811Y381254D01*
X130819Y381196D01*
X130818Y381138D01*
X130839Y381056D01*
X130851Y380973D01*
X130875Y380919D01*
X130889Y380863D01*
X130932Y380790D01*
X130967Y380713D01*
X131005Y380668D01*
X131035Y380618D01*
X131096Y380560D01*
X131151Y380496D01*
X131199Y380464D01*
X131242Y380424D01*
X131317Y380385D01*
X131387Y380339D01*
X131443Y380321D01*
X131495Y380294D01*
X131563Y380283D01*
X131658Y380253D01*
X131758Y380250D01*
X131826Y380239D01*
X140056Y380239D01*
X140143Y380251D01*
X140230Y380254D01*
X140283Y380271D01*
X140338Y380279D01*
X140417Y380314D01*
X140501Y380341D01*
X140540Y380369D01*
X140597Y380395D01*
X140710Y380491D01*
X140774Y380536D01*
X161174Y400936D01*
X161209Y400982D01*
X161251Y401023D01*
X161294Y401096D01*
X161345Y401163D01*
X161365Y401218D01*
X161395Y401268D01*
X161416Y401350D01*
X161446Y401429D01*
X161451Y401487D01*
X161465Y401544D01*
X161462Y401628D01*
X161469Y401712D01*
X161458Y401769D01*
X161456Y401828D01*
X161430Y401908D01*
X161414Y401991D01*
X161387Y402043D01*
X161369Y402098D01*
X161328Y402154D01*
X161283Y402243D01*
X161214Y402315D01*
X161174Y402372D01*
X149315Y414230D01*
X147827Y415718D01*
X147827Y425490D01*
X147819Y425548D01*
X147821Y425606D01*
X147799Y425688D01*
X147787Y425772D01*
X147764Y425825D01*
X147749Y425881D01*
X147706Y425954D01*
X147671Y426031D01*
X147633Y426076D01*
X147604Y426126D01*
X147542Y426184D01*
X147488Y426248D01*
X147439Y426280D01*
X147396Y426320D01*
X147321Y426359D01*
X147251Y426406D01*
X147195Y426423D01*
X147143Y426450D01*
X147075Y426461D01*
X146980Y426491D01*
X146880Y426494D01*
X146812Y426505D01*
X139754Y426505D01*
X139667Y426493D01*
X139580Y426490D01*
X139527Y426473D01*
X139472Y426465D01*
X139392Y426430D01*
X139309Y426403D01*
X139270Y426375D01*
X139213Y426349D01*
X139100Y426253D01*
X139036Y426208D01*
X135229Y422401D01*
X126391Y422401D01*
X120141Y428651D01*
X120141Y437489D01*
X126391Y443739D01*
X135229Y443739D01*
X139036Y439932D01*
X139106Y439880D01*
X139169Y439820D01*
X139219Y439794D01*
X139263Y439761D01*
X139345Y439730D01*
X139423Y439690D01*
X139470Y439682D01*
X139529Y439660D01*
X139676Y439648D01*
X139754Y439635D01*
X153130Y439635D01*
X153216Y439647D01*
X153304Y439650D01*
X153356Y439667D01*
X153411Y439675D01*
X153491Y439710D01*
X153574Y439737D01*
X153613Y439765D01*
X153670Y439791D01*
X153784Y439887D01*
X153847Y439932D01*
X161500Y447585D01*
X162988Y449073D01*
X239602Y449073D01*
X254763Y433912D01*
X254763Y415718D01*
X238332Y399287D01*
X188620Y399287D01*
X188533Y399275D01*
X188446Y399272D01*
X188393Y399255D01*
X188338Y399247D01*
X188259Y399212D01*
X188175Y399185D01*
X188136Y399157D01*
X188079Y399131D01*
X187966Y399035D01*
X187902Y398990D01*
X184854Y395942D01*
X184836Y395918D01*
X184814Y395899D01*
X184751Y395805D01*
X184683Y395715D01*
X184673Y395687D01*
X184656Y395663D01*
X184622Y395555D01*
X184582Y395449D01*
X184579Y395420D01*
X184571Y395392D01*
X184568Y395278D01*
X184558Y395166D01*
X184564Y395137D01*
X184563Y395108D01*
X184592Y394998D01*
X184614Y394887D01*
X184628Y394861D01*
X184635Y394833D01*
X184693Y394735D01*
X184745Y394635D01*
X184765Y394613D01*
X184780Y394588D01*
X184863Y394511D01*
X184941Y394429D01*
X184966Y394414D01*
X184988Y394394D01*
X185088Y394342D01*
X185186Y394285D01*
X185215Y394278D01*
X185241Y394264D01*
X185318Y394251D01*
X185462Y394215D01*
X185524Y394217D01*
X185572Y394209D01*
X187299Y394209D01*
X193549Y387959D01*
X193549Y379121D01*
X193084Y378656D01*
X193052Y378614D01*
X193044Y378607D01*
X193027Y378582D01*
X192972Y378523D01*
X192946Y378473D01*
X192913Y378429D01*
X192897Y378386D01*
X192886Y378370D01*
X192874Y378332D01*
X192842Y378269D01*
X192834Y378222D01*
X192812Y378163D01*
X192809Y378125D01*
X192801Y378099D01*
X192798Y378008D01*
X192787Y377938D01*
X192787Y372081D01*
X192791Y372052D01*
X192788Y372023D01*
X192811Y371912D01*
X192827Y371800D01*
X192839Y371773D01*
X192844Y371744D01*
X192896Y371644D01*
X192943Y371540D01*
X192962Y371518D01*
X192975Y371492D01*
X193053Y371410D01*
X193126Y371323D01*
X193151Y371307D01*
X193171Y371286D01*
X193269Y371228D01*
X193363Y371166D01*
X193391Y371157D01*
X193416Y371142D01*
X193526Y371114D01*
X193634Y371080D01*
X193663Y371079D01*
X193692Y371072D01*
X193805Y371075D01*
X193918Y371073D01*
X193947Y371080D01*
X193976Y371081D01*
X194084Y371116D01*
X194193Y371144D01*
X194219Y371159D01*
X194247Y371168D01*
X194310Y371214D01*
X194438Y371290D01*
X194481Y371335D01*
X194520Y371363D01*
X194531Y371375D01*
X204249Y371375D01*
X205022Y370601D01*
X205069Y370566D01*
X205109Y370524D01*
X205182Y370481D01*
X205249Y370430D01*
X205304Y370410D01*
X205354Y370380D01*
X205436Y370359D01*
X205515Y370329D01*
X205573Y370324D01*
X205630Y370310D01*
X205714Y370313D01*
X205798Y370306D01*
X205856Y370317D01*
X205914Y370319D01*
X205994Y370345D01*
X206077Y370361D01*
X206129Y370388D01*
X206185Y370406D01*
X206241Y370447D01*
X206329Y370492D01*
X206402Y370561D01*
X206458Y370601D01*
X207231Y371375D01*
X216949Y371375D01*
X218823Y369501D01*
X218877Y369460D01*
X218925Y369411D01*
X218990Y369375D01*
X219050Y369330D01*
X219114Y369305D01*
X219173Y369272D01*
X219246Y369255D01*
X219316Y369228D01*
X219384Y369223D01*
X219450Y369207D01*
X219525Y369211D01*
X219599Y369205D01*
X219666Y369218D01*
X219734Y369222D01*
X219793Y369244D01*
X219878Y369261D01*
X219979Y369313D01*
X220048Y369339D01*
X220634Y369678D01*
X221281Y369851D01*
X223203Y369851D01*
X223203Y360262D01*
X223211Y360204D01*
X223210Y360145D01*
X223231Y360064D01*
X223243Y359980D01*
X223267Y359927D01*
X223282Y359870D01*
X223325Y359798D01*
X223359Y359721D01*
X223397Y359676D01*
X223427Y359626D01*
X223488Y359568D01*
X223543Y359504D01*
X223592Y359471D01*
X223634Y359431D01*
X223709Y359393D01*
X223780Y359346D01*
X223835Y359329D01*
X223887Y359302D01*
X223955Y359291D01*
X224051Y359260D01*
X224150Y359258D01*
X224218Y359246D01*
X224346Y359246D01*
X224346Y359118D01*
X224355Y359061D01*
X224353Y359002D01*
X224374Y358920D01*
X224386Y358837D01*
X224410Y358784D01*
X224425Y358727D01*
X224468Y358655D01*
X224503Y358578D01*
X224540Y358533D01*
X224570Y358483D01*
X224632Y358425D01*
X224686Y358361D01*
X224735Y358328D01*
X224778Y358288D01*
X224853Y358250D01*
X224923Y358203D01*
X224979Y358185D01*
X225031Y358159D01*
X225099Y358147D01*
X225194Y358117D01*
X225294Y358115D01*
X225362Y358103D01*
X230506Y358103D01*
X230506Y351736D01*
X230455Y351545D01*
X230449Y351496D01*
X230434Y351450D01*
X230432Y351356D01*
X230420Y351263D01*
X230428Y351214D01*
X230427Y351166D01*
X230450Y351075D01*
X230465Y350982D01*
X230486Y350938D01*
X230499Y350891D01*
X230546Y350810D01*
X230587Y350725D01*
X230619Y350688D01*
X230644Y350646D01*
X230712Y350582D01*
X230774Y350511D01*
X230815Y350485D01*
X230851Y350452D01*
X230935Y350409D01*
X231014Y350358D01*
X231061Y350344D01*
X231104Y350322D01*
X231177Y350310D01*
X231287Y350278D01*
X231373Y350277D01*
X231435Y350267D01*
X237084Y350267D01*
X237171Y350279D01*
X237258Y350282D01*
X237311Y350299D01*
X237366Y350307D01*
X237445Y350342D01*
X237529Y350369D01*
X237568Y350397D01*
X237625Y350423D01*
X237738Y350519D01*
X237802Y350564D01*
X238252Y351014D01*
X238287Y351061D01*
X238330Y351101D01*
X238372Y351174D01*
X238423Y351241D01*
X238444Y351296D01*
X238473Y351347D01*
X238494Y351428D01*
X238524Y351507D01*
X238529Y351565D01*
X238544Y351622D01*
X238541Y351706D01*
X238548Y351790D01*
X238536Y351848D01*
X238534Y351906D01*
X238509Y351986D01*
X238492Y352069D01*
X238465Y352121D01*
X238447Y352177D01*
X238407Y352233D01*
X238361Y352321D01*
X238292Y352394D01*
X238252Y352450D01*
X236981Y353721D01*
X236981Y362559D01*
X243231Y368809D01*
X252069Y368809D01*
X258319Y362559D01*
X258319Y353721D01*
X251985Y347387D01*
X251929Y347369D01*
X251890Y347341D01*
X251833Y347315D01*
X251720Y347219D01*
X251656Y347174D01*
X250961Y346479D01*
X248862Y344380D01*
X248844Y344356D01*
X248822Y344337D01*
X248759Y344243D01*
X248691Y344153D01*
X248681Y344125D01*
X248664Y344101D01*
X248630Y343993D01*
X248590Y343887D01*
X248587Y343858D01*
X248579Y343830D01*
X248576Y343716D01*
X248566Y343604D01*
X248572Y343575D01*
X248571Y343546D01*
X248600Y343436D01*
X248622Y343325D01*
X248636Y343299D01*
X248643Y343271D01*
X248701Y343173D01*
X248753Y343073D01*
X248773Y343051D01*
X248788Y343026D01*
X248871Y342949D01*
X248949Y342867D01*
X248974Y342852D01*
X248996Y342832D01*
X249096Y342780D01*
X249194Y342723D01*
X249223Y342716D01*
X249249Y342702D01*
X249326Y342689D01*
X249470Y342653D01*
X249532Y342655D01*
X249580Y342647D01*
X258674Y342647D01*
X258761Y342659D01*
X258848Y342662D01*
X258901Y342679D01*
X258956Y342687D01*
X259035Y342722D01*
X259119Y342749D01*
X259158Y342777D01*
X259215Y342803D01*
X259328Y342899D01*
X259392Y342944D01*
X266192Y349744D01*
X266227Y349791D01*
X266270Y349831D01*
X266312Y349904D01*
X266363Y349971D01*
X266384Y350026D01*
X266413Y350076D01*
X266434Y350158D01*
X266464Y350237D01*
X266469Y350295D01*
X266484Y350352D01*
X266481Y350436D01*
X266488Y350520D01*
X266476Y350578D01*
X266474Y350636D01*
X266449Y350716D01*
X266432Y350799D01*
X266405Y350851D01*
X266387Y350907D01*
X266347Y350963D01*
X266301Y351051D01*
X266232Y351124D01*
X266192Y351180D01*
X263651Y353721D01*
X263651Y362559D01*
X269901Y368809D01*
X278739Y368809D01*
X284989Y362559D01*
X284989Y353721D01*
X280714Y349446D01*
X280662Y349376D01*
X280602Y349313D01*
X280576Y349263D01*
X280543Y349219D01*
X280512Y349137D01*
X280472Y349059D01*
X280464Y349012D01*
X280442Y348953D01*
X280430Y348806D01*
X280417Y348728D01*
X280417Y348037D01*
X279489Y345796D01*
X265074Y331381D01*
X262833Y330453D01*
X212147Y330453D01*
X209906Y331381D01*
X194221Y347066D01*
X193745Y348216D01*
X193687Y348316D01*
X193634Y348417D01*
X193615Y348437D01*
X193601Y348461D01*
X193517Y348540D01*
X193438Y348623D01*
X193414Y348637D01*
X193394Y348656D01*
X193292Y348709D01*
X193193Y348767D01*
X193166Y348774D01*
X193141Y348787D01*
X193028Y348809D01*
X192917Y348837D01*
X192890Y348836D01*
X192862Y348842D01*
X192748Y348832D01*
X192633Y348828D01*
X192607Y348820D01*
X192579Y348817D01*
X192472Y348776D01*
X192363Y348741D01*
X192342Y348726D01*
X192314Y348715D01*
X192101Y348554D01*
X192089Y348546D01*
X192087Y348544D01*
X191549Y348005D01*
X181831Y348005D01*
X181291Y348546D01*
X181199Y348615D01*
X181111Y348689D01*
X181086Y348700D01*
X181064Y348717D01*
X180956Y348758D01*
X180851Y348804D01*
X180824Y348808D01*
X180798Y348818D01*
X180684Y348827D01*
X180570Y348843D01*
X180542Y348839D01*
X180515Y348842D01*
X180402Y348819D01*
X180288Y348803D01*
X180263Y348791D01*
X180236Y348786D01*
X180134Y348733D01*
X180029Y348685D01*
X180008Y348667D01*
X179984Y348655D01*
X179900Y348576D01*
X179813Y348501D01*
X179800Y348480D01*
X179777Y348459D01*
X179643Y348229D01*
X179635Y348216D01*
X179159Y347066D01*
X164744Y332651D01*
X162503Y331723D01*
X125787Y331723D01*
X123546Y332651D01*
X114211Y341986D01*
X113283Y344227D01*
X113283Y360274D01*
X113271Y360361D01*
X113268Y360448D01*
X113251Y360501D01*
X113243Y360556D01*
X113208Y360635D01*
X113181Y360719D01*
X113153Y360758D01*
X113127Y360815D01*
X113031Y360928D01*
X112986Y360992D01*
X106128Y367850D01*
X106104Y367868D01*
X106086Y367890D01*
X105991Y367953D01*
X105901Y368021D01*
X105873Y368031D01*
X105849Y368048D01*
X105741Y368082D01*
X105635Y368122D01*
X105606Y368125D01*
X105578Y368133D01*
X105464Y368136D01*
X105352Y368146D01*
X105323Y368140D01*
X105294Y368141D01*
X105184Y368112D01*
X105073Y368090D01*
X105047Y368076D01*
X105019Y368069D01*
X104921Y368011D01*
X104821Y367959D01*
X104799Y367939D01*
X104774Y367924D01*
X104697Y367841D01*
X104615Y367763D01*
X104600Y367738D01*
X104580Y367716D01*
X104528Y367615D01*
X104471Y367518D01*
X104464Y367489D01*
X104450Y367463D01*
X104437Y367386D01*
X104401Y367242D01*
X104403Y367180D01*
X104395Y367132D01*
X104395Y358544D01*
X104407Y358458D01*
X104410Y358370D01*
X104427Y358317D01*
X104435Y358263D01*
X104470Y358183D01*
X104497Y358100D01*
X104525Y358060D01*
X104551Y358003D01*
X104647Y357890D01*
X104692Y357826D01*
X105445Y357074D01*
X105445Y333706D01*
X104692Y332954D01*
X104678Y332934D01*
X104662Y332921D01*
X104631Y332874D01*
X104580Y332820D01*
X104554Y332771D01*
X104521Y332727D01*
X104507Y332688D01*
X104504Y332684D01*
X104498Y332667D01*
X104490Y332645D01*
X104450Y332567D01*
X104442Y332519D01*
X104420Y332461D01*
X104408Y332313D01*
X104395Y332236D01*
X104395Y328675D01*
X6350Y328675D01*
X6292Y328667D01*
X6234Y328669D01*
X6152Y328647D01*
X6069Y328635D01*
X6015Y328612D01*
X5959Y328597D01*
X5886Y328554D01*
X5809Y328519D01*
X5764Y328481D01*
X5714Y328452D01*
X5656Y328390D01*
X5592Y328336D01*
X5560Y328287D01*
X5520Y328244D01*
X5481Y328169D01*
X5435Y328099D01*
X5417Y328043D01*
X5390Y327991D01*
X5379Y327923D01*
X5349Y327828D01*
X5346Y327728D01*
X5335Y327660D01*
X5335Y10000D01*
X5343Y9944D01*
X5340Y9900D01*
X5410Y9188D01*
X5477Y8912D01*
X5481Y8906D01*
X5482Y8899D01*
X6027Y7584D01*
X6043Y7557D01*
X6052Y7528D01*
X6098Y7464D01*
X6172Y7339D01*
X6219Y7294D01*
X6247Y7254D01*
X7254Y6247D01*
X7279Y6229D01*
X7299Y6205D01*
X7366Y6164D01*
X7481Y6076D01*
X7542Y6053D01*
X7584Y6027D01*
X8899Y5482D01*
X9175Y5411D01*
X9182Y5411D01*
X9188Y5410D01*
X9900Y5340D01*
X9956Y5342D01*
X10000Y5335D01*
X130606Y5335D01*
X130691Y5347D01*
G37*
G36*
X650456Y5343D02*
X650456Y5343D01*
X650500Y5340D01*
X651212Y5410D01*
X651488Y5477D01*
X651494Y5481D01*
X651501Y5482D01*
X652816Y6027D01*
X652843Y6043D01*
X652872Y6052D01*
X652936Y6098D01*
X653061Y6172D01*
X653106Y6219D01*
X653146Y6247D01*
X654153Y7254D01*
X654171Y7279D01*
X654195Y7299D01*
X654236Y7366D01*
X654324Y7481D01*
X654347Y7542D01*
X654373Y7584D01*
X654918Y8899D01*
X654989Y9175D01*
X654989Y9182D01*
X654990Y9188D01*
X655060Y9900D01*
X655058Y9957D01*
X655065Y10000D01*
X655065Y26461D01*
X655877Y28422D01*
X657521Y30065D01*
X680168Y52712D01*
X680220Y52782D01*
X680280Y52846D01*
X680306Y52895D01*
X680339Y52940D01*
X680370Y53021D01*
X680410Y53099D01*
X680418Y53147D01*
X680440Y53205D01*
X680452Y53353D01*
X680465Y53430D01*
X680465Y67106D01*
X680453Y67191D01*
X680451Y67277D01*
X680433Y67331D01*
X680425Y67388D01*
X680390Y67466D01*
X680364Y67548D01*
X680332Y67595D01*
X680309Y67647D01*
X680254Y67713D01*
X680206Y67784D01*
X680162Y67821D01*
X680126Y67864D01*
X680054Y67912D01*
X679988Y67967D01*
X679936Y67990D01*
X679889Y68022D01*
X679807Y68048D01*
X679728Y68082D01*
X679672Y68090D01*
X679618Y68107D01*
X679532Y68110D01*
X679447Y68121D01*
X679391Y68113D01*
X679334Y68115D01*
X679251Y68093D01*
X679166Y68081D01*
X679114Y68057D01*
X679059Y68043D01*
X678985Y67999D01*
X678906Y67964D01*
X678863Y67927D01*
X678814Y67898D01*
X678755Y67835D01*
X678690Y67779D01*
X678664Y67737D01*
X678620Y67690D01*
X678554Y67561D01*
X678512Y67495D01*
X677410Y64834D01*
X671766Y59190D01*
X664391Y56135D01*
X656409Y56135D01*
X649034Y59190D01*
X643390Y64834D01*
X640335Y72209D01*
X640335Y80191D01*
X640908Y81573D01*
X640929Y81656D01*
X640960Y81737D01*
X640965Y81793D01*
X640979Y81848D01*
X640976Y81934D01*
X640983Y82020D01*
X640972Y82076D01*
X640971Y82133D01*
X640944Y82214D01*
X640927Y82299D01*
X640901Y82349D01*
X640884Y82403D01*
X640836Y82475D01*
X640796Y82551D01*
X640757Y82592D01*
X640726Y82640D01*
X640660Y82695D01*
X640601Y82757D01*
X640552Y82786D01*
X640508Y82823D01*
X640430Y82857D01*
X640355Y82901D01*
X640300Y82915D01*
X640248Y82938D01*
X640163Y82950D01*
X640080Y82971D01*
X640023Y82969D01*
X639967Y82977D01*
X639882Y82965D01*
X639796Y82962D01*
X639742Y82944D01*
X639685Y82936D01*
X639607Y82901D01*
X639525Y82874D01*
X639485Y82846D01*
X639426Y82819D01*
X639316Y82725D01*
X639252Y82680D01*
X638791Y82219D01*
X634683Y80517D01*
X630237Y80517D01*
X626129Y82219D01*
X622985Y85363D01*
X621283Y89471D01*
X621283Y101029D01*
X622985Y105137D01*
X626129Y108281D01*
X630237Y109983D01*
X634683Y109983D01*
X638791Y108281D01*
X641935Y105137D01*
X643637Y101029D01*
X643637Y90264D01*
X643641Y90234D01*
X643638Y90205D01*
X643661Y90094D01*
X643677Y89982D01*
X643689Y89955D01*
X643694Y89927D01*
X643746Y89826D01*
X643793Y89723D01*
X643812Y89700D01*
X643825Y89674D01*
X643903Y89592D01*
X643976Y89506D01*
X644001Y89489D01*
X644021Y89468D01*
X644119Y89411D01*
X644213Y89348D01*
X644241Y89339D01*
X644266Y89324D01*
X644376Y89297D01*
X644484Y89262D01*
X644514Y89262D01*
X644542Y89254D01*
X644655Y89258D01*
X644768Y89255D01*
X644797Y89262D01*
X644826Y89263D01*
X644934Y89298D01*
X645043Y89327D01*
X645069Y89342D01*
X645097Y89351D01*
X645160Y89396D01*
X645288Y89472D01*
X645331Y89518D01*
X645370Y89546D01*
X649034Y93210D01*
X656409Y96265D01*
X664391Y96265D01*
X671766Y93210D01*
X677410Y87566D01*
X678512Y84905D01*
X678556Y84831D01*
X678591Y84753D01*
X678628Y84710D01*
X678657Y84661D01*
X678719Y84602D01*
X678775Y84536D01*
X678822Y84504D01*
X678863Y84465D01*
X678940Y84426D01*
X679011Y84378D01*
X679065Y84361D01*
X679116Y84335D01*
X679200Y84319D01*
X679282Y84293D01*
X679339Y84291D01*
X679395Y84280D01*
X679480Y84288D01*
X679566Y84285D01*
X679621Y84300D01*
X679678Y84305D01*
X679758Y84335D01*
X679841Y84357D01*
X679890Y84386D01*
X679943Y84407D01*
X680012Y84458D01*
X680086Y84502D01*
X680125Y84544D01*
X680170Y84578D01*
X680221Y84647D01*
X680280Y84710D01*
X680306Y84760D01*
X680340Y84806D01*
X680371Y84886D01*
X680410Y84963D01*
X680418Y85012D01*
X680441Y85072D01*
X680452Y85217D01*
X680465Y85294D01*
X680465Y346506D01*
X680458Y346557D01*
X680459Y346575D01*
X680453Y346596D01*
X680451Y346677D01*
X680433Y346731D01*
X680425Y346788D01*
X680390Y346866D01*
X680364Y346948D01*
X680332Y346995D01*
X680309Y347047D01*
X680254Y347113D01*
X680206Y347184D01*
X680162Y347221D01*
X680126Y347264D01*
X680054Y347312D01*
X679988Y347367D01*
X679936Y347390D01*
X679889Y347422D01*
X679807Y347448D01*
X679728Y347482D01*
X679672Y347490D01*
X679618Y347507D01*
X679532Y347510D01*
X679447Y347521D01*
X679391Y347513D01*
X679334Y347515D01*
X679251Y347493D01*
X679166Y347481D01*
X679114Y347457D01*
X679059Y347443D01*
X678985Y347399D01*
X678906Y347364D01*
X678863Y347327D01*
X678814Y347298D01*
X678755Y347235D01*
X678690Y347179D01*
X678664Y347137D01*
X678620Y347090D01*
X678554Y346961D01*
X678512Y346895D01*
X677410Y344234D01*
X673012Y339836D01*
X672960Y339766D01*
X672900Y339703D01*
X672874Y339653D01*
X672841Y339609D01*
X672810Y339527D01*
X672770Y339449D01*
X672762Y339402D01*
X672740Y339343D01*
X672728Y339196D01*
X672715Y339118D01*
X672715Y320266D01*
X670666Y318218D01*
X670631Y318171D01*
X670589Y318131D01*
X670546Y318058D01*
X670495Y317991D01*
X670475Y317936D01*
X670445Y317886D01*
X670424Y317804D01*
X670394Y317725D01*
X670389Y317667D01*
X670375Y317610D01*
X670378Y317526D01*
X670371Y317442D01*
X670382Y317384D01*
X670384Y317326D01*
X670410Y317246D01*
X670426Y317163D01*
X670453Y317111D01*
X670471Y317055D01*
X670512Y316999D01*
X670557Y316911D01*
X670626Y316838D01*
X670666Y316782D01*
X672715Y314734D01*
X672715Y294866D01*
X670296Y292448D01*
X670278Y292445D01*
X670225Y292422D01*
X670169Y292407D01*
X670096Y292364D01*
X670019Y292329D01*
X669974Y292291D01*
X669924Y292262D01*
X669866Y292200D01*
X669802Y292146D01*
X669770Y292097D01*
X669730Y292054D01*
X669691Y291979D01*
X669644Y291909D01*
X669627Y291853D01*
X669600Y291801D01*
X669589Y291733D01*
X669559Y291638D01*
X669556Y291538D01*
X669545Y291470D01*
X669545Y284844D01*
X669557Y284758D01*
X669560Y284670D01*
X669577Y284618D01*
X669585Y284563D01*
X669620Y284483D01*
X669647Y284400D01*
X669675Y284361D01*
X669701Y284303D01*
X669797Y284190D01*
X669842Y284126D01*
X672215Y281754D01*
X672215Y271966D01*
X665126Y264878D01*
X665091Y264831D01*
X665049Y264791D01*
X665006Y264718D01*
X664956Y264651D01*
X664935Y264596D01*
X664905Y264546D01*
X664884Y264464D01*
X664854Y264385D01*
X664849Y264327D01*
X664835Y264270D01*
X664838Y264186D01*
X664831Y264102D01*
X664842Y264044D01*
X664844Y263986D01*
X664870Y263906D01*
X664887Y263823D01*
X664914Y263771D01*
X664932Y263715D01*
X664972Y263659D01*
X665018Y263571D01*
X665086Y263498D01*
X665126Y263442D01*
X672215Y256354D01*
X672215Y246566D01*
X665294Y239645D01*
X655501Y239645D01*
X655487Y239662D01*
X655393Y239724D01*
X655303Y239792D01*
X655275Y239803D01*
X655251Y239819D01*
X655143Y239853D01*
X655037Y239894D01*
X655008Y239896D01*
X654980Y239905D01*
X654867Y239908D01*
X654754Y239917D01*
X654725Y239912D01*
X654696Y239912D01*
X654586Y239884D01*
X654475Y239861D01*
X654449Y239848D01*
X654421Y239840D01*
X654323Y239783D01*
X654223Y239730D01*
X654201Y239710D01*
X654176Y239695D01*
X654099Y239613D01*
X654017Y239535D01*
X654002Y239509D01*
X653982Y239488D01*
X653930Y239387D01*
X653873Y239289D01*
X653866Y239261D01*
X653852Y239235D01*
X653839Y239158D01*
X653803Y239014D01*
X653805Y238951D01*
X653797Y238904D01*
X653797Y236461D01*
X653801Y236432D01*
X653798Y236403D01*
X653821Y236292D01*
X653837Y236180D01*
X653849Y236153D01*
X653854Y236124D01*
X653907Y236023D01*
X653953Y235920D01*
X653972Y235898D01*
X653985Y235872D01*
X654063Y235790D01*
X654136Y235703D01*
X654161Y235687D01*
X654181Y235666D01*
X654279Y235608D01*
X654373Y235546D01*
X654401Y235537D01*
X654426Y235522D01*
X654536Y235494D01*
X654644Y235460D01*
X654674Y235459D01*
X654702Y235452D01*
X654815Y235455D01*
X654928Y235452D01*
X654957Y235460D01*
X654986Y235461D01*
X655094Y235496D01*
X655203Y235524D01*
X655229Y235539D01*
X655257Y235548D01*
X655321Y235594D01*
X655448Y235670D01*
X655491Y235715D01*
X655530Y235743D01*
X656137Y236351D01*
X658369Y236351D01*
X658369Y227076D01*
X658377Y227018D01*
X658375Y226960D01*
X658397Y226878D01*
X658409Y226795D01*
X658433Y226741D01*
X658447Y226685D01*
X658490Y226612D01*
X658525Y226535D01*
X658563Y226491D01*
X658593Y226440D01*
X658654Y226383D01*
X658709Y226318D01*
X658757Y226286D01*
X658800Y226246D01*
X658875Y226207D01*
X658945Y226161D01*
X659001Y226143D01*
X659053Y226116D01*
X659121Y226105D01*
X659216Y226075D01*
X659316Y226072D01*
X659384Y226061D01*
X660401Y226061D01*
X660401Y226059D01*
X659384Y226059D01*
X659326Y226051D01*
X659268Y226052D01*
X659186Y226031D01*
X659103Y226019D01*
X659049Y225995D01*
X658993Y225981D01*
X658920Y225938D01*
X658843Y225903D01*
X658798Y225865D01*
X658748Y225835D01*
X658690Y225774D01*
X658626Y225719D01*
X658594Y225671D01*
X658554Y225628D01*
X658515Y225553D01*
X658469Y225483D01*
X658451Y225427D01*
X658424Y225375D01*
X658413Y225307D01*
X658383Y225212D01*
X658380Y225112D01*
X658369Y225044D01*
X658369Y215769D01*
X656137Y215769D01*
X655130Y216777D01*
X655038Y216846D01*
X654950Y216920D01*
X654925Y216931D01*
X654903Y216948D01*
X654795Y216989D01*
X654690Y217035D01*
X654663Y217039D01*
X654637Y217049D01*
X654522Y217059D01*
X654409Y217074D01*
X654381Y217070D01*
X654354Y217073D01*
X654241Y217050D01*
X654127Y217034D01*
X654102Y217022D01*
X654075Y217017D01*
X653973Y216964D01*
X653868Y216917D01*
X653847Y216899D01*
X653822Y216886D01*
X653739Y216807D01*
X653652Y216732D01*
X653639Y216711D01*
X653616Y216690D01*
X653482Y216461D01*
X653474Y216448D01*
X652869Y214986D01*
X651011Y213129D01*
X650944Y213062D01*
X650926Y213038D01*
X650904Y213019D01*
X650841Y212925D01*
X650773Y212835D01*
X650763Y212807D01*
X650746Y212783D01*
X650712Y212675D01*
X650672Y212569D01*
X650669Y212540D01*
X650661Y212512D01*
X650658Y212398D01*
X650648Y212286D01*
X650654Y212257D01*
X650653Y212228D01*
X650682Y212118D01*
X650704Y212007D01*
X650718Y211981D01*
X650725Y211953D01*
X650783Y211855D01*
X650835Y211755D01*
X650855Y211733D01*
X650870Y211708D01*
X650953Y211631D01*
X651031Y211549D01*
X651056Y211534D01*
X651078Y211514D01*
X651178Y211462D01*
X651276Y211405D01*
X651305Y211398D01*
X651331Y211384D01*
X651408Y211371D01*
X651552Y211335D01*
X651614Y211337D01*
X651662Y211329D01*
X652119Y211329D01*
X658369Y205079D01*
X658369Y196241D01*
X652653Y190525D01*
X652618Y190478D01*
X652575Y190438D01*
X652533Y190365D01*
X652482Y190298D01*
X652461Y190243D01*
X652432Y190193D01*
X652411Y190111D01*
X652381Y190032D01*
X652376Y189974D01*
X652361Y189917D01*
X652364Y189833D01*
X652357Y189749D01*
X652369Y189692D01*
X652371Y189633D01*
X652396Y189553D01*
X652413Y189470D01*
X652440Y189418D01*
X652458Y189363D01*
X652498Y189306D01*
X652544Y189218D01*
X652613Y189145D01*
X652653Y189089D01*
X657314Y184429D01*
X658242Y182188D01*
X658242Y159442D01*
X657314Y157201D01*
X655456Y155344D01*
X621261Y121149D01*
X619404Y119291D01*
X617163Y118363D01*
X592226Y118363D01*
X592139Y118351D01*
X592052Y118348D01*
X591999Y118331D01*
X591944Y118323D01*
X591865Y118288D01*
X591781Y118261D01*
X591742Y118233D01*
X591685Y118207D01*
X591572Y118111D01*
X591508Y118066D01*
X584633Y111191D01*
X584565Y111100D01*
X584490Y111012D01*
X584479Y110986D01*
X584463Y110964D01*
X584422Y110857D01*
X584375Y110752D01*
X584371Y110724D01*
X584361Y110699D01*
X584352Y110584D01*
X584336Y110470D01*
X584340Y110443D01*
X584338Y110415D01*
X584360Y110303D01*
X584377Y110189D01*
X584388Y110164D01*
X584394Y110136D01*
X584447Y110034D01*
X584494Y109930D01*
X584512Y109909D01*
X584525Y109884D01*
X584604Y109801D01*
X584678Y109713D01*
X584699Y109700D01*
X584720Y109678D01*
X584950Y109543D01*
X584963Y109536D01*
X587991Y108281D01*
X591135Y105137D01*
X592837Y101029D01*
X592837Y89471D01*
X591135Y85363D01*
X587991Y82219D01*
X583883Y80517D01*
X579437Y80517D01*
X575329Y82219D01*
X572185Y85363D01*
X570483Y89471D01*
X570483Y101029D01*
X572185Y105137D01*
X573518Y106470D01*
X573536Y106494D01*
X573558Y106513D01*
X573621Y106607D01*
X573689Y106697D01*
X573699Y106725D01*
X573715Y106749D01*
X573750Y106857D01*
X573790Y106963D01*
X573792Y106992D01*
X573801Y107020D01*
X573804Y107134D01*
X573814Y107246D01*
X573808Y107275D01*
X573809Y107304D01*
X573780Y107414D01*
X573758Y107525D01*
X573744Y107551D01*
X573737Y107579D01*
X573679Y107677D01*
X573627Y107777D01*
X573606Y107799D01*
X573591Y107824D01*
X573509Y107901D01*
X573431Y107983D01*
X573406Y107998D01*
X573384Y108018D01*
X573283Y108070D01*
X573186Y108127D01*
X573157Y108134D01*
X573131Y108148D01*
X573054Y108161D01*
X572910Y108197D01*
X572848Y108195D01*
X572800Y108203D01*
X565120Y108203D01*
X565091Y108199D01*
X565062Y108202D01*
X564951Y108179D01*
X564839Y108163D01*
X564812Y108151D01*
X564783Y108146D01*
X564682Y108093D01*
X564579Y108047D01*
X564557Y108028D01*
X564531Y108015D01*
X564449Y107937D01*
X564362Y107864D01*
X564346Y107839D01*
X564325Y107819D01*
X564267Y107721D01*
X564205Y107627D01*
X564196Y107599D01*
X564181Y107574D01*
X564153Y107464D01*
X564119Y107356D01*
X564118Y107326D01*
X564111Y107298D01*
X564114Y107185D01*
X564111Y107072D01*
X564119Y107043D01*
X564120Y107014D01*
X564155Y106906D01*
X564183Y106797D01*
X564198Y106771D01*
X564207Y106743D01*
X564253Y106679D01*
X564329Y106552D01*
X564374Y106509D01*
X564402Y106470D01*
X565735Y105137D01*
X567437Y101029D01*
X567437Y89471D01*
X565735Y85363D01*
X562591Y82219D01*
X558483Y80517D01*
X554037Y80517D01*
X549929Y82219D01*
X546785Y85363D01*
X545083Y89471D01*
X545083Y101029D01*
X546785Y105137D01*
X548118Y106470D01*
X548136Y106494D01*
X548158Y106513D01*
X548221Y106607D01*
X548289Y106697D01*
X548299Y106725D01*
X548315Y106749D01*
X548350Y106857D01*
X548390Y106963D01*
X548392Y106992D01*
X548401Y107020D01*
X548404Y107134D01*
X548414Y107246D01*
X548408Y107275D01*
X548409Y107304D01*
X548380Y107414D01*
X548358Y107525D01*
X548344Y107551D01*
X548337Y107579D01*
X548279Y107677D01*
X548227Y107777D01*
X548206Y107799D01*
X548191Y107824D01*
X548109Y107901D01*
X548031Y107983D01*
X548006Y107998D01*
X547984Y108018D01*
X547883Y108070D01*
X547786Y108127D01*
X547757Y108134D01*
X547731Y108148D01*
X547654Y108161D01*
X547510Y108197D01*
X547448Y108195D01*
X547400Y108203D01*
X539720Y108203D01*
X539691Y108199D01*
X539662Y108202D01*
X539551Y108179D01*
X539439Y108163D01*
X539412Y108151D01*
X539383Y108146D01*
X539282Y108093D01*
X539179Y108047D01*
X539157Y108028D01*
X539131Y108015D01*
X539049Y107937D01*
X538962Y107864D01*
X538946Y107839D01*
X538925Y107819D01*
X538867Y107721D01*
X538805Y107627D01*
X538796Y107599D01*
X538781Y107574D01*
X538753Y107464D01*
X538719Y107356D01*
X538718Y107326D01*
X538711Y107298D01*
X538714Y107185D01*
X538711Y107072D01*
X538719Y107043D01*
X538720Y107014D01*
X538755Y106906D01*
X538783Y106797D01*
X538798Y106771D01*
X538807Y106743D01*
X538853Y106679D01*
X538929Y106552D01*
X538974Y106509D01*
X539002Y106470D01*
X540335Y105137D01*
X542037Y101029D01*
X542037Y89471D01*
X540335Y85363D01*
X537191Y82219D01*
X533083Y80517D01*
X528637Y80517D01*
X524529Y82219D01*
X521385Y85363D01*
X519683Y89471D01*
X519683Y101029D01*
X521385Y105137D01*
X522718Y106470D01*
X522736Y106494D01*
X522758Y106513D01*
X522821Y106607D01*
X522889Y106697D01*
X522899Y106725D01*
X522915Y106749D01*
X522950Y106857D01*
X522990Y106963D01*
X522992Y106992D01*
X523001Y107020D01*
X523004Y107134D01*
X523014Y107246D01*
X523008Y107275D01*
X523009Y107304D01*
X522980Y107414D01*
X522958Y107525D01*
X522944Y107551D01*
X522937Y107579D01*
X522879Y107677D01*
X522827Y107777D01*
X522806Y107799D01*
X522791Y107824D01*
X522709Y107901D01*
X522631Y107983D01*
X522606Y107998D01*
X522584Y108018D01*
X522483Y108070D01*
X522386Y108127D01*
X522357Y108134D01*
X522331Y108148D01*
X522254Y108161D01*
X522110Y108197D01*
X522048Y108195D01*
X522000Y108203D01*
X514320Y108203D01*
X514291Y108199D01*
X514262Y108202D01*
X514151Y108179D01*
X514039Y108163D01*
X514012Y108151D01*
X513983Y108146D01*
X513882Y108093D01*
X513779Y108047D01*
X513757Y108028D01*
X513731Y108015D01*
X513649Y107937D01*
X513562Y107864D01*
X513546Y107839D01*
X513525Y107819D01*
X513467Y107721D01*
X513405Y107627D01*
X513396Y107599D01*
X513381Y107574D01*
X513353Y107464D01*
X513319Y107356D01*
X513318Y107326D01*
X513311Y107298D01*
X513314Y107185D01*
X513311Y107072D01*
X513319Y107043D01*
X513320Y107014D01*
X513355Y106906D01*
X513383Y106797D01*
X513398Y106771D01*
X513407Y106743D01*
X513453Y106679D01*
X513529Y106552D01*
X513574Y106509D01*
X513602Y106470D01*
X514935Y105137D01*
X516637Y101029D01*
X516637Y89471D01*
X514935Y85363D01*
X511791Y82219D01*
X507683Y80517D01*
X503237Y80517D01*
X499129Y82219D01*
X495985Y85363D01*
X494283Y89471D01*
X494283Y101029D01*
X495985Y105137D01*
X497318Y106470D01*
X497336Y106494D01*
X497358Y106513D01*
X497421Y106607D01*
X497489Y106697D01*
X497499Y106725D01*
X497515Y106749D01*
X497550Y106857D01*
X497590Y106963D01*
X497592Y106992D01*
X497601Y107020D01*
X497604Y107134D01*
X497614Y107246D01*
X497608Y107275D01*
X497609Y107304D01*
X497580Y107414D01*
X497558Y107525D01*
X497544Y107551D01*
X497537Y107579D01*
X497479Y107677D01*
X497427Y107777D01*
X497406Y107799D01*
X497391Y107824D01*
X497309Y107901D01*
X497231Y107983D01*
X497206Y107998D01*
X497184Y108018D01*
X497083Y108070D01*
X496986Y108127D01*
X496957Y108134D01*
X496931Y108148D01*
X496854Y108161D01*
X496710Y108197D01*
X496648Y108195D01*
X496600Y108203D01*
X486673Y108203D01*
X486565Y108188D01*
X486456Y108180D01*
X486425Y108168D01*
X486391Y108163D01*
X486292Y108119D01*
X486190Y108081D01*
X486163Y108061D01*
X486132Y108047D01*
X486049Y107977D01*
X485961Y107912D01*
X485940Y107885D01*
X485915Y107864D01*
X485854Y107773D01*
X485788Y107687D01*
X485776Y107655D01*
X485757Y107627D01*
X485724Y107523D01*
X485685Y107422D01*
X485682Y107388D01*
X485671Y107356D01*
X485669Y107247D01*
X485659Y107139D01*
X485665Y107106D01*
X485664Y107072D01*
X485691Y106966D01*
X485712Y106860D01*
X485727Y106829D01*
X485736Y106797D01*
X485791Y106703D01*
X485841Y106606D01*
X485862Y106585D01*
X485881Y106552D01*
X486041Y106402D01*
X486076Y106367D01*
X486348Y106169D01*
X487423Y105094D01*
X488316Y103865D01*
X489006Y102511D01*
X489475Y101066D01*
X489713Y99566D01*
X489713Y97281D01*
X481076Y97281D01*
X481018Y97273D01*
X480960Y97275D01*
X480878Y97253D01*
X480795Y97241D01*
X480741Y97217D01*
X480685Y97203D01*
X480612Y97160D01*
X480535Y97125D01*
X480491Y97087D01*
X480440Y97057D01*
X480383Y96996D01*
X480318Y96941D01*
X480286Y96893D01*
X480246Y96850D01*
X480207Y96775D01*
X480161Y96705D01*
X480143Y96649D01*
X480116Y96597D01*
X480105Y96529D01*
X480075Y96434D01*
X480072Y96334D01*
X480061Y96266D01*
X480061Y95249D01*
X480059Y95249D01*
X480059Y96266D01*
X480051Y96324D01*
X480052Y96382D01*
X480031Y96464D01*
X480019Y96547D01*
X479995Y96601D01*
X479981Y96657D01*
X479938Y96730D01*
X479903Y96807D01*
X479865Y96852D01*
X479835Y96902D01*
X479774Y96960D01*
X479719Y97024D01*
X479671Y97056D01*
X479628Y97096D01*
X479553Y97135D01*
X479483Y97181D01*
X479427Y97199D01*
X479375Y97226D01*
X479307Y97237D01*
X479212Y97267D01*
X479112Y97270D01*
X479044Y97281D01*
X470407Y97281D01*
X470407Y99566D01*
X470645Y101066D01*
X471114Y102511D01*
X471804Y103865D01*
X472697Y105094D01*
X473772Y106169D01*
X474044Y106367D01*
X474122Y106442D01*
X474205Y106513D01*
X474224Y106541D01*
X474248Y106564D01*
X474303Y106659D01*
X474363Y106749D01*
X474373Y106781D01*
X474390Y106811D01*
X474416Y106917D01*
X474449Y107020D01*
X474450Y107054D01*
X474458Y107087D01*
X474453Y107196D01*
X474456Y107304D01*
X474447Y107337D01*
X474446Y107371D01*
X474412Y107474D01*
X474384Y107579D01*
X474367Y107609D01*
X474356Y107641D01*
X474294Y107730D01*
X474239Y107824D01*
X474214Y107847D01*
X474195Y107875D01*
X474111Y107944D01*
X474032Y108018D01*
X474001Y108034D01*
X473975Y108055D01*
X473875Y108098D01*
X473778Y108148D01*
X473749Y108153D01*
X473714Y108168D01*
X473497Y108195D01*
X473447Y108203D01*
X463520Y108203D01*
X463491Y108199D01*
X463462Y108202D01*
X463351Y108179D01*
X463239Y108163D01*
X463212Y108151D01*
X463183Y108146D01*
X463082Y108093D01*
X462979Y108047D01*
X462957Y108028D01*
X462931Y108015D01*
X462849Y107937D01*
X462762Y107864D01*
X462746Y107839D01*
X462725Y107819D01*
X462667Y107721D01*
X462605Y107627D01*
X462596Y107599D01*
X462581Y107574D01*
X462553Y107464D01*
X462519Y107356D01*
X462518Y107326D01*
X462511Y107298D01*
X462514Y107185D01*
X462511Y107072D01*
X462519Y107043D01*
X462520Y107014D01*
X462555Y106906D01*
X462583Y106797D01*
X462598Y106771D01*
X462607Y106743D01*
X462653Y106679D01*
X462729Y106552D01*
X462774Y106509D01*
X462802Y106470D01*
X464135Y105137D01*
X465837Y101029D01*
X465837Y95990D01*
X465849Y95903D01*
X465852Y95815D01*
X465869Y95763D01*
X465877Y95708D01*
X465912Y95628D01*
X465939Y95545D01*
X465967Y95506D01*
X465993Y95449D01*
X466089Y95336D01*
X466134Y95272D01*
X466631Y94775D01*
X467869Y91787D01*
X467869Y75960D01*
X467881Y75873D01*
X467884Y75786D01*
X467901Y75733D01*
X467909Y75678D01*
X467944Y75598D01*
X467971Y75515D01*
X467999Y75476D01*
X468025Y75419D01*
X468121Y75305D01*
X468166Y75242D01*
X470409Y72999D01*
X470409Y64161D01*
X464159Y57911D01*
X455321Y57911D01*
X449663Y63569D01*
X449616Y63604D01*
X449576Y63647D01*
X449503Y63689D01*
X449436Y63740D01*
X449381Y63761D01*
X449331Y63791D01*
X449249Y63811D01*
X449170Y63841D01*
X449112Y63846D01*
X449055Y63861D01*
X448971Y63858D01*
X448887Y63865D01*
X448829Y63853D01*
X448771Y63852D01*
X448691Y63826D01*
X448608Y63809D01*
X448556Y63782D01*
X448500Y63764D01*
X448444Y63724D01*
X448356Y63678D01*
X448283Y63609D01*
X448227Y63569D01*
X442569Y57911D01*
X433731Y57911D01*
X427481Y64161D01*
X427481Y72999D01*
X433877Y79395D01*
X433928Y79463D01*
X433987Y79526D01*
X434013Y79576D01*
X434048Y79622D01*
X434078Y79702D01*
X434118Y79778D01*
X434129Y79834D01*
X434149Y79887D01*
X434156Y79973D01*
X434173Y80057D01*
X434168Y80114D01*
X434172Y80171D01*
X434156Y80255D01*
X434148Y80341D01*
X434128Y80394D01*
X434117Y80449D01*
X434077Y80526D01*
X434046Y80606D01*
X434012Y80651D01*
X433986Y80702D01*
X433926Y80764D01*
X433874Y80833D01*
X433829Y80867D01*
X433790Y80908D01*
X433716Y80951D01*
X433647Y81003D01*
X433594Y81023D01*
X433544Y81052D01*
X433461Y81073D01*
X433381Y81103D01*
X433324Y81108D01*
X433269Y81122D01*
X433183Y81119D01*
X433097Y81126D01*
X433049Y81115D01*
X432985Y81113D01*
X432847Y81068D01*
X432770Y81050D01*
X431483Y80517D01*
X427037Y80517D01*
X422929Y82219D01*
X419785Y85363D01*
X418083Y89471D01*
X418083Y101029D01*
X419785Y105137D01*
X421118Y106470D01*
X421136Y106494D01*
X421158Y106513D01*
X421221Y106607D01*
X421289Y106697D01*
X421299Y106725D01*
X421315Y106749D01*
X421350Y106857D01*
X421390Y106963D01*
X421392Y106992D01*
X421401Y107020D01*
X421404Y107134D01*
X421414Y107246D01*
X421408Y107275D01*
X421409Y107304D01*
X421380Y107414D01*
X421358Y107525D01*
X421344Y107551D01*
X421337Y107579D01*
X421279Y107677D01*
X421227Y107777D01*
X421206Y107799D01*
X421191Y107824D01*
X421109Y107901D01*
X421031Y107983D01*
X421006Y107998D01*
X420984Y108018D01*
X420883Y108070D01*
X420786Y108127D01*
X420757Y108134D01*
X420731Y108148D01*
X420654Y108161D01*
X420510Y108197D01*
X420448Y108195D01*
X420400Y108203D01*
X412720Y108203D01*
X412691Y108199D01*
X412662Y108202D01*
X412551Y108179D01*
X412439Y108163D01*
X412412Y108151D01*
X412383Y108146D01*
X412282Y108093D01*
X412179Y108047D01*
X412157Y108028D01*
X412131Y108015D01*
X412049Y107937D01*
X411962Y107864D01*
X411946Y107839D01*
X411925Y107819D01*
X411867Y107721D01*
X411805Y107627D01*
X411796Y107599D01*
X411781Y107574D01*
X411753Y107464D01*
X411719Y107356D01*
X411718Y107326D01*
X411711Y107298D01*
X411714Y107185D01*
X411711Y107072D01*
X411719Y107043D01*
X411720Y107014D01*
X411755Y106906D01*
X411783Y106797D01*
X411798Y106771D01*
X411807Y106743D01*
X411853Y106679D01*
X411929Y106552D01*
X411974Y106509D01*
X412002Y106470D01*
X413335Y105137D01*
X415037Y101029D01*
X415037Y89471D01*
X413335Y85363D01*
X410191Y82219D01*
X406083Y80517D01*
X401637Y80517D01*
X397529Y82219D01*
X394385Y85363D01*
X392683Y89471D01*
X392683Y101029D01*
X394385Y105137D01*
X395718Y106470D01*
X395736Y106494D01*
X395758Y106513D01*
X395821Y106607D01*
X395889Y106697D01*
X395899Y106725D01*
X395915Y106749D01*
X395950Y106857D01*
X395990Y106963D01*
X395992Y106992D01*
X396001Y107020D01*
X396004Y107134D01*
X396014Y107246D01*
X396008Y107275D01*
X396009Y107304D01*
X395980Y107414D01*
X395958Y107525D01*
X395944Y107551D01*
X395937Y107579D01*
X395879Y107677D01*
X395827Y107777D01*
X395806Y107799D01*
X395791Y107824D01*
X395709Y107901D01*
X395631Y107983D01*
X395606Y107998D01*
X395584Y108018D01*
X395483Y108070D01*
X395386Y108127D01*
X395357Y108134D01*
X395331Y108148D01*
X395254Y108161D01*
X395110Y108197D01*
X395048Y108195D01*
X395000Y108203D01*
X387320Y108203D01*
X387291Y108199D01*
X387262Y108202D01*
X387151Y108179D01*
X387039Y108163D01*
X387012Y108151D01*
X386983Y108146D01*
X386882Y108093D01*
X386779Y108047D01*
X386757Y108028D01*
X386731Y108015D01*
X386649Y107937D01*
X386562Y107864D01*
X386546Y107839D01*
X386525Y107819D01*
X386467Y107721D01*
X386405Y107627D01*
X386396Y107599D01*
X386381Y107574D01*
X386353Y107464D01*
X386319Y107356D01*
X386318Y107326D01*
X386311Y107298D01*
X386314Y107185D01*
X386311Y107072D01*
X386319Y107043D01*
X386320Y107014D01*
X386355Y106906D01*
X386383Y106797D01*
X386398Y106771D01*
X386407Y106743D01*
X386453Y106679D01*
X386529Y106552D01*
X386574Y106509D01*
X386602Y106470D01*
X387935Y105137D01*
X389637Y101029D01*
X389637Y89471D01*
X387935Y85363D01*
X384791Y82219D01*
X380683Y80517D01*
X376237Y80517D01*
X372129Y82219D01*
X368985Y85363D01*
X367283Y89471D01*
X367283Y101029D01*
X368985Y105137D01*
X370318Y106470D01*
X370336Y106494D01*
X370358Y106513D01*
X370421Y106607D01*
X370489Y106697D01*
X370499Y106725D01*
X370515Y106749D01*
X370550Y106857D01*
X370590Y106963D01*
X370592Y106992D01*
X370601Y107020D01*
X370604Y107134D01*
X370614Y107246D01*
X370608Y107275D01*
X370609Y107304D01*
X370580Y107414D01*
X370558Y107525D01*
X370544Y107551D01*
X370537Y107579D01*
X370479Y107677D01*
X370427Y107777D01*
X370406Y107799D01*
X370391Y107824D01*
X370309Y107901D01*
X370231Y107983D01*
X370206Y107998D01*
X370184Y108018D01*
X370083Y108070D01*
X369986Y108127D01*
X369957Y108134D01*
X369931Y108148D01*
X369854Y108161D01*
X369710Y108197D01*
X369648Y108195D01*
X369600Y108203D01*
X364896Y108203D01*
X364809Y108191D01*
X364722Y108188D01*
X364669Y108171D01*
X364614Y108163D01*
X364535Y108128D01*
X364451Y108101D01*
X364412Y108073D01*
X364355Y108047D01*
X364242Y107951D01*
X364178Y107906D01*
X362685Y106413D01*
X362684Y106412D01*
X362683Y106411D01*
X362598Y106297D01*
X362514Y106186D01*
X362514Y106184D01*
X362513Y106183D01*
X362463Y106053D01*
X362413Y105920D01*
X362413Y105919D01*
X362412Y105917D01*
X362400Y105769D01*
X362389Y105637D01*
X362390Y105635D01*
X362390Y105634D01*
X362393Y105618D01*
X362445Y105358D01*
X362459Y105331D01*
X362465Y105307D01*
X364237Y101029D01*
X364237Y89471D01*
X362535Y85363D01*
X359391Y82219D01*
X355283Y80517D01*
X350837Y80517D01*
X346729Y82219D01*
X343585Y85363D01*
X341883Y89471D01*
X341883Y101029D01*
X343084Y103929D01*
X343113Y104040D01*
X343148Y104150D01*
X343148Y104177D01*
X343155Y104204D01*
X343152Y104319D01*
X343155Y104434D01*
X343148Y104461D01*
X343147Y104488D01*
X343112Y104598D01*
X343083Y104709D01*
X343069Y104733D01*
X343061Y104759D01*
X342997Y104855D01*
X342938Y104953D01*
X342918Y104972D01*
X342902Y104995D01*
X342814Y105069D01*
X342731Y105148D01*
X342706Y105160D01*
X342685Y105178D01*
X342580Y105225D01*
X342477Y105277D01*
X342453Y105281D01*
X342425Y105294D01*
X342161Y105330D01*
X342146Y105333D01*
X338574Y105333D01*
X338460Y105317D01*
X338345Y105307D01*
X338320Y105297D01*
X338292Y105293D01*
X338187Y105246D01*
X338080Y105205D01*
X338058Y105188D01*
X338033Y105177D01*
X337945Y105102D01*
X337853Y105033D01*
X337837Y105011D01*
X337816Y104993D01*
X337752Y104897D01*
X337683Y104805D01*
X337673Y104779D01*
X337658Y104756D01*
X337623Y104647D01*
X337583Y104539D01*
X337581Y104512D01*
X337572Y104485D01*
X337569Y104371D01*
X337560Y104256D01*
X337566Y104232D01*
X337565Y104201D01*
X337632Y103944D01*
X337636Y103929D01*
X338837Y101029D01*
X338837Y89471D01*
X337135Y85363D01*
X333991Y82219D01*
X329883Y80517D01*
X325437Y80517D01*
X321329Y82219D01*
X318185Y85363D01*
X316483Y89471D01*
X316483Y101029D01*
X317684Y103929D01*
X317713Y104040D01*
X317748Y104150D01*
X317748Y104177D01*
X317755Y104204D01*
X317752Y104319D01*
X317755Y104434D01*
X317748Y104461D01*
X317747Y104488D01*
X317712Y104598D01*
X317683Y104709D01*
X317669Y104733D01*
X317661Y104759D01*
X317597Y104855D01*
X317538Y104953D01*
X317518Y104972D01*
X317502Y104995D01*
X317414Y105069D01*
X317331Y105148D01*
X317306Y105160D01*
X317285Y105178D01*
X317180Y105225D01*
X317077Y105277D01*
X317053Y105281D01*
X317025Y105294D01*
X316761Y105330D01*
X316746Y105333D01*
X313174Y105333D01*
X313060Y105317D01*
X312945Y105307D01*
X312920Y105297D01*
X312892Y105293D01*
X312787Y105246D01*
X312680Y105205D01*
X312658Y105188D01*
X312633Y105177D01*
X312545Y105102D01*
X312453Y105033D01*
X312437Y105011D01*
X312416Y104993D01*
X312352Y104897D01*
X312283Y104805D01*
X312273Y104779D01*
X312258Y104756D01*
X312223Y104647D01*
X312183Y104539D01*
X312181Y104512D01*
X312172Y104485D01*
X312169Y104371D01*
X312160Y104256D01*
X312166Y104232D01*
X312165Y104201D01*
X312232Y103944D01*
X312236Y103929D01*
X313437Y101029D01*
X313437Y89471D01*
X311735Y85363D01*
X308591Y82219D01*
X304483Y80517D01*
X300037Y80517D01*
X295929Y82219D01*
X292785Y85363D01*
X291083Y89471D01*
X291083Y101029D01*
X292284Y103929D01*
X292313Y104040D01*
X292348Y104150D01*
X292348Y104177D01*
X292355Y104204D01*
X292352Y104319D01*
X292355Y104434D01*
X292348Y104461D01*
X292347Y104488D01*
X292312Y104598D01*
X292283Y104709D01*
X292269Y104733D01*
X292261Y104759D01*
X292197Y104855D01*
X292138Y104953D01*
X292118Y104972D01*
X292102Y104995D01*
X292014Y105069D01*
X291931Y105148D01*
X291906Y105160D01*
X291885Y105178D01*
X291780Y105225D01*
X291677Y105277D01*
X291653Y105281D01*
X291625Y105294D01*
X291361Y105330D01*
X291346Y105333D01*
X289948Y105333D01*
X287707Y106261D01*
X285849Y108119D01*
X256451Y137516D01*
X255523Y139757D01*
X255523Y150368D01*
X255515Y150426D01*
X255517Y150484D01*
X255495Y150566D01*
X255483Y150650D01*
X255460Y150703D01*
X255445Y150759D01*
X255402Y150832D01*
X255367Y150909D01*
X255329Y150954D01*
X255300Y151004D01*
X255238Y151062D01*
X255184Y151126D01*
X255135Y151158D01*
X255092Y151198D01*
X255017Y151237D01*
X254947Y151284D01*
X254891Y151301D01*
X254839Y151328D01*
X254771Y151339D01*
X254676Y151369D01*
X254576Y151372D01*
X254508Y151383D01*
X238086Y151383D01*
X238057Y151379D01*
X238028Y151382D01*
X237917Y151359D01*
X237804Y151343D01*
X237778Y151331D01*
X237749Y151326D01*
X237648Y151274D01*
X237545Y151227D01*
X237523Y151208D01*
X237497Y151195D01*
X237415Y151117D01*
X237328Y151044D01*
X237312Y151019D01*
X237291Y150999D01*
X237233Y150901D01*
X237170Y150807D01*
X237162Y150779D01*
X237147Y150754D01*
X237119Y150644D01*
X237085Y150536D01*
X237084Y150506D01*
X237077Y150478D01*
X237080Y150365D01*
X237077Y150252D01*
X237085Y150223D01*
X237086Y150194D01*
X237121Y150086D01*
X237149Y149977D01*
X237164Y149951D01*
X237173Y149923D01*
X237219Y149860D01*
X237294Y149732D01*
X237340Y149689D01*
X237368Y149650D01*
X242952Y144067D01*
X242952Y141731D01*
X233426Y141731D01*
X233368Y141723D01*
X233310Y141725D01*
X233228Y141703D01*
X233145Y141691D01*
X233091Y141667D01*
X233035Y141653D01*
X232962Y141610D01*
X232885Y141575D01*
X232841Y141537D01*
X232790Y141507D01*
X232733Y141446D01*
X232668Y141391D01*
X232636Y141343D01*
X232596Y141300D01*
X232557Y141225D01*
X232511Y141155D01*
X232493Y141099D01*
X232466Y141047D01*
X232455Y140979D01*
X232425Y140884D01*
X232422Y140784D01*
X232411Y140716D01*
X232411Y139699D01*
X232409Y139699D01*
X232409Y140716D01*
X232401Y140774D01*
X232402Y140832D01*
X232381Y140914D01*
X232369Y140997D01*
X232345Y141051D01*
X232331Y141107D01*
X232288Y141180D01*
X232253Y141257D01*
X232215Y141302D01*
X232185Y141352D01*
X232124Y141410D01*
X232069Y141474D01*
X232021Y141506D01*
X231978Y141546D01*
X231903Y141585D01*
X231833Y141631D01*
X231777Y141649D01*
X231725Y141676D01*
X231657Y141687D01*
X231562Y141717D01*
X231462Y141720D01*
X231394Y141731D01*
X221868Y141731D01*
X221868Y144067D01*
X227452Y149650D01*
X227470Y149674D01*
X227492Y149693D01*
X227555Y149787D01*
X227623Y149877D01*
X227633Y149905D01*
X227650Y149929D01*
X227684Y150037D01*
X227724Y150143D01*
X227726Y150172D01*
X227735Y150200D01*
X227738Y150314D01*
X227748Y150426D01*
X227742Y150455D01*
X227743Y150484D01*
X227714Y150594D01*
X227692Y150705D01*
X227678Y150731D01*
X227671Y150759D01*
X227613Y150857D01*
X227561Y150957D01*
X227541Y150979D01*
X227526Y151004D01*
X227443Y151081D01*
X227365Y151163D01*
X227340Y151178D01*
X227318Y151198D01*
X227217Y151250D01*
X227120Y151307D01*
X227091Y151314D01*
X227065Y151328D01*
X226988Y151341D01*
X226844Y151377D01*
X226782Y151375D01*
X226734Y151383D01*
X214630Y151383D01*
X214572Y151375D01*
X214514Y151377D01*
X214432Y151355D01*
X214348Y151343D01*
X214295Y151320D01*
X214239Y151305D01*
X214166Y151262D01*
X214089Y151227D01*
X214044Y151189D01*
X213994Y151160D01*
X213936Y151098D01*
X213872Y151044D01*
X213840Y150995D01*
X213800Y150952D01*
X213761Y150877D01*
X213714Y150807D01*
X213697Y150751D01*
X213670Y150699D01*
X213659Y150631D01*
X213629Y150536D01*
X213626Y150436D01*
X213615Y150368D01*
X213615Y131208D01*
X213623Y131153D01*
X213621Y131109D01*
X213628Y131083D01*
X213630Y131034D01*
X213647Y130982D01*
X213655Y130927D01*
X213689Y130849D01*
X213693Y130834D01*
X213696Y130830D01*
X213717Y130764D01*
X213745Y130725D01*
X213771Y130667D01*
X213867Y130554D01*
X213912Y130490D01*
X220661Y123742D01*
X220730Y123690D01*
X220794Y123630D01*
X220844Y123604D01*
X220888Y123571D01*
X220969Y123540D01*
X221047Y123500D01*
X221095Y123492D01*
X221153Y123470D01*
X221301Y123458D01*
X221378Y123445D01*
X224071Y123445D01*
X224157Y123457D01*
X224245Y123460D01*
X224297Y123477D01*
X224352Y123485D01*
X224432Y123520D01*
X224515Y123547D01*
X224554Y123575D01*
X224612Y123601D01*
X224725Y123697D01*
X224789Y123742D01*
X225575Y124529D01*
X230010Y126366D01*
X234810Y126366D01*
X239245Y124529D01*
X242639Y121135D01*
X244476Y116700D01*
X244476Y111900D01*
X242639Y107465D01*
X239245Y104071D01*
X234810Y102234D01*
X230010Y102234D01*
X225575Y104071D01*
X224789Y104858D01*
X224719Y104910D01*
X224655Y104970D01*
X224605Y104996D01*
X224561Y105029D01*
X224480Y105060D01*
X224402Y105100D01*
X224354Y105108D01*
X224296Y105130D01*
X224148Y105142D01*
X224071Y105155D01*
X215351Y105155D01*
X211990Y106547D01*
X200980Y117558D01*
X200910Y117610D01*
X200846Y117670D01*
X200797Y117696D01*
X200752Y117729D01*
X200671Y117760D01*
X200593Y117800D01*
X200545Y117808D01*
X200487Y117830D01*
X200339Y117842D01*
X200262Y117855D01*
X149311Y117855D01*
X145950Y119247D01*
X134487Y130710D01*
X133095Y134071D01*
X133095Y141842D01*
X133083Y141928D01*
X133080Y142016D01*
X133063Y142068D01*
X133055Y142123D01*
X133020Y142203D01*
X132993Y142286D01*
X132965Y142325D01*
X132939Y142382D01*
X132843Y142496D01*
X132798Y142559D01*
X121985Y153372D01*
X121916Y153424D01*
X121852Y153484D01*
X121802Y153510D01*
X121758Y153543D01*
X121677Y153574D01*
X121599Y153614D01*
X121551Y153622D01*
X121493Y153644D01*
X121345Y153656D01*
X121268Y153669D01*
X109546Y153669D01*
X109460Y153657D01*
X109372Y153654D01*
X109320Y153637D01*
X109265Y153629D01*
X109185Y153594D01*
X109102Y153567D01*
X109062Y153539D01*
X109005Y153513D01*
X108892Y153417D01*
X108828Y153372D01*
X106477Y151021D01*
X106447Y150981D01*
X106411Y150948D01*
X106362Y150868D01*
X106306Y150793D01*
X106288Y150747D01*
X106263Y150705D01*
X106238Y150615D01*
X106205Y150528D01*
X106201Y150479D01*
X106188Y150431D01*
X106189Y150338D01*
X106181Y150244D01*
X106191Y150196D01*
X106192Y150147D01*
X106219Y150057D01*
X106237Y149966D01*
X106260Y149922D01*
X106274Y149875D01*
X106325Y149796D01*
X106368Y149713D01*
X106402Y149678D01*
X106429Y149636D01*
X106481Y149593D01*
X106495Y149575D01*
X107062Y149007D01*
X107397Y148428D01*
X107570Y147781D01*
X107570Y141985D01*
X96012Y141985D01*
X95954Y141977D01*
X95896Y141978D01*
X95814Y141957D01*
X95731Y141945D01*
X95677Y141921D01*
X95621Y141907D01*
X95548Y141864D01*
X95471Y141829D01*
X95427Y141791D01*
X95376Y141761D01*
X95319Y141700D01*
X95254Y141645D01*
X95222Y141597D01*
X95182Y141554D01*
X95143Y141479D01*
X95097Y141409D01*
X95079Y141353D01*
X95052Y141301D01*
X95041Y141233D01*
X95011Y141138D01*
X95008Y141038D01*
X94997Y140970D01*
X94997Y139953D01*
X93980Y139953D01*
X93922Y139945D01*
X93864Y139946D01*
X93782Y139925D01*
X93699Y139913D01*
X93645Y139889D01*
X93589Y139875D01*
X93516Y139832D01*
X93439Y139797D01*
X93394Y139759D01*
X93344Y139729D01*
X93286Y139668D01*
X93222Y139613D01*
X93190Y139565D01*
X93150Y139522D01*
X93111Y139447D01*
X93065Y139377D01*
X93047Y139321D01*
X93020Y139269D01*
X93009Y139201D01*
X92979Y139106D01*
X92976Y139006D01*
X92965Y138938D01*
X92965Y129920D01*
X87393Y129920D01*
X87364Y129916D01*
X87335Y129919D01*
X87224Y129896D01*
X87112Y129880D01*
X87085Y129868D01*
X87056Y129863D01*
X86956Y129810D01*
X86852Y129764D01*
X86830Y129745D01*
X86804Y129732D01*
X86722Y129654D01*
X86635Y129581D01*
X86619Y129556D01*
X86598Y129536D01*
X86541Y129438D01*
X86478Y129344D01*
X86469Y129316D01*
X86454Y129291D01*
X86426Y129181D01*
X86392Y129073D01*
X86391Y129043D01*
X86384Y129015D01*
X86388Y128902D01*
X86385Y128789D01*
X86392Y128760D01*
X86393Y128731D01*
X86428Y128623D01*
X86457Y128514D01*
X86472Y128488D01*
X86481Y128460D01*
X86526Y128396D01*
X86602Y128269D01*
X86647Y128226D01*
X86675Y128187D01*
X87311Y127552D01*
X87380Y127499D01*
X87444Y127440D01*
X87493Y127414D01*
X87538Y127381D01*
X87620Y127350D01*
X87697Y127310D01*
X87745Y127302D01*
X87803Y127280D01*
X87951Y127268D01*
X88028Y127255D01*
X122596Y127255D01*
X125957Y125863D01*
X163963Y87857D01*
X165355Y84496D01*
X165355Y73674D01*
X165367Y73587D01*
X165370Y73500D01*
X165387Y73447D01*
X165395Y73392D01*
X165430Y73312D01*
X165457Y73229D01*
X165485Y73190D01*
X165511Y73133D01*
X165607Y73019D01*
X165652Y72956D01*
X168149Y70459D01*
X168149Y61621D01*
X163318Y56790D01*
X163308Y56777D01*
X163303Y56773D01*
X163288Y56750D01*
X163283Y56744D01*
X163241Y56703D01*
X163198Y56630D01*
X163147Y56563D01*
X163126Y56508D01*
X163097Y56458D01*
X163076Y56376D01*
X163046Y56297D01*
X163041Y56239D01*
X163027Y56182D01*
X163029Y56098D01*
X163022Y56014D01*
X163034Y55957D01*
X163036Y55898D01*
X163062Y55818D01*
X163078Y55735D01*
X163105Y55683D01*
X163123Y55628D01*
X163163Y55572D01*
X163209Y55483D01*
X163278Y55411D01*
X163318Y55354D01*
X180854Y37819D01*
X180879Y37800D01*
X180899Y37776D01*
X180966Y37735D01*
X181081Y37648D01*
X181141Y37625D01*
X181183Y37599D01*
X184917Y36052D01*
X188452Y32517D01*
X190365Y27899D01*
X190365Y22901D01*
X188452Y18283D01*
X184917Y14748D01*
X180299Y12835D01*
X175301Y12835D01*
X170683Y14748D01*
X167148Y18283D01*
X165235Y22901D01*
X165235Y27152D01*
X165223Y27238D01*
X165220Y27326D01*
X165203Y27378D01*
X165195Y27433D01*
X165160Y27513D01*
X165133Y27596D01*
X165105Y27635D01*
X165079Y27692D01*
X164983Y27806D01*
X164938Y27869D01*
X160792Y32016D01*
X160723Y32067D01*
X160661Y32126D01*
X160610Y32152D01*
X160565Y32187D01*
X160484Y32217D01*
X160408Y32256D01*
X160352Y32267D01*
X160299Y32288D01*
X160213Y32295D01*
X160129Y32311D01*
X160072Y32307D01*
X160016Y32311D01*
X159931Y32294D01*
X159846Y32287D01*
X159793Y32267D01*
X159737Y32255D01*
X159661Y32216D01*
X159580Y32185D01*
X159535Y32151D01*
X159485Y32124D01*
X159422Y32065D01*
X159354Y32013D01*
X159320Y31968D01*
X159278Y31929D01*
X159235Y31854D01*
X159184Y31786D01*
X159163Y31732D01*
X159135Y31683D01*
X159114Y31600D01*
X159083Y31520D01*
X159079Y31463D01*
X159065Y31408D01*
X159067Y31322D01*
X159060Y31236D01*
X159072Y31188D01*
X159074Y31124D01*
X159118Y30986D01*
X159136Y30909D01*
X159765Y29391D01*
X159765Y21409D01*
X156710Y14034D01*
X151066Y8390D01*
X148405Y7288D01*
X148331Y7244D01*
X148253Y7209D01*
X148210Y7172D01*
X148161Y7143D01*
X148102Y7081D01*
X148036Y7026D01*
X148004Y6978D01*
X147965Y6937D01*
X147926Y6860D01*
X147878Y6789D01*
X147861Y6735D01*
X147835Y6684D01*
X147819Y6600D01*
X147793Y6518D01*
X147791Y6461D01*
X147780Y6405D01*
X147788Y6320D01*
X147785Y6234D01*
X147800Y6179D01*
X147805Y6122D01*
X147835Y6042D01*
X147857Y5959D01*
X147886Y5910D01*
X147907Y5857D01*
X147959Y5788D01*
X148002Y5714D01*
X148044Y5675D01*
X148078Y5630D01*
X148147Y5578D01*
X148210Y5520D01*
X148260Y5494D01*
X148306Y5460D01*
X148386Y5429D01*
X148463Y5390D01*
X148512Y5382D01*
X148572Y5359D01*
X148717Y5348D01*
X148794Y5335D01*
X650400Y5335D01*
X650456Y5343D01*
G37*
%LPC*%
G36*
X302577Y10667D02*
X302577Y10667D01*
X298469Y12369D01*
X295325Y15513D01*
X293623Y19621D01*
X293623Y31179D01*
X295325Y35287D01*
X295358Y35320D01*
X295410Y35390D01*
X295470Y35454D01*
X295496Y35503D01*
X295529Y35547D01*
X295560Y35629D01*
X295600Y35707D01*
X295608Y35755D01*
X295630Y35813D01*
X295642Y35961D01*
X295655Y36038D01*
X295655Y37379D01*
X297047Y40740D01*
X301310Y45002D01*
X301327Y45026D01*
X301350Y45045D01*
X301412Y45139D01*
X301480Y45229D01*
X301491Y45257D01*
X301507Y45281D01*
X301541Y45389D01*
X301582Y45495D01*
X301584Y45524D01*
X301593Y45552D01*
X301596Y45666D01*
X301605Y45778D01*
X301599Y45807D01*
X301600Y45836D01*
X301572Y45946D01*
X301549Y46057D01*
X301536Y46083D01*
X301528Y46111D01*
X301471Y46209D01*
X301418Y46309D01*
X301398Y46331D01*
X301383Y46356D01*
X301301Y46433D01*
X301223Y46515D01*
X301197Y46530D01*
X301176Y46550D01*
X301075Y46602D01*
X300977Y46659D01*
X300949Y46666D01*
X300923Y46680D01*
X300845Y46693D01*
X300702Y46729D01*
X300639Y46727D01*
X300592Y46735D01*
X242019Y46735D01*
X241933Y46723D01*
X241845Y46720D01*
X241793Y46703D01*
X241738Y46695D01*
X241658Y46660D01*
X241575Y46633D01*
X241535Y46605D01*
X241478Y46579D01*
X241365Y46483D01*
X241301Y46438D01*
X239245Y44381D01*
X234810Y42544D01*
X230010Y42544D01*
X225575Y44381D01*
X222181Y47775D01*
X220344Y52210D01*
X220344Y57010D01*
X222181Y61445D01*
X225575Y64839D01*
X230010Y66676D01*
X234810Y66676D01*
X238609Y65102D01*
X238639Y65094D01*
X238667Y65080D01*
X238744Y65067D01*
X238885Y65031D01*
X238949Y65033D01*
X238998Y65025D01*
X376469Y65025D01*
X376801Y64887D01*
X376912Y64858D01*
X377022Y64824D01*
X377050Y64823D01*
X377077Y64816D01*
X377191Y64819D01*
X377306Y64816D01*
X377333Y64823D01*
X377361Y64824D01*
X377470Y64859D01*
X377581Y64888D01*
X377605Y64902D01*
X377632Y64911D01*
X377727Y64975D01*
X377826Y65033D01*
X377845Y65054D01*
X377868Y65069D01*
X377942Y65157D01*
X378020Y65241D01*
X378033Y65265D01*
X378051Y65287D01*
X378098Y65392D01*
X378150Y65494D01*
X378154Y65518D01*
X378166Y65546D01*
X378203Y65810D01*
X378205Y65825D01*
X378205Y66549D01*
X385319Y66549D01*
X385319Y58564D01*
X385331Y58478D01*
X385334Y58390D01*
X385351Y58338D01*
X385359Y58283D01*
X385394Y58203D01*
X385421Y58120D01*
X385449Y58081D01*
X385475Y58023D01*
X385571Y57910D01*
X385616Y57847D01*
X390841Y52622D01*
X390910Y52570D01*
X390974Y52510D01*
X391024Y52484D01*
X391068Y52451D01*
X391149Y52420D01*
X391227Y52380D01*
X391275Y52372D01*
X391333Y52350D01*
X391481Y52338D01*
X391558Y52325D01*
X417109Y52325D01*
X420470Y50933D01*
X423043Y48360D01*
X424435Y44999D01*
X424435Y41361D01*
X423043Y38000D01*
X420470Y35427D01*
X417109Y34035D01*
X416297Y34035D01*
X416222Y34025D01*
X416147Y34024D01*
X416082Y34005D01*
X416015Y33995D01*
X415946Y33965D01*
X415874Y33943D01*
X415817Y33907D01*
X415756Y33879D01*
X415698Y33831D01*
X415635Y33790D01*
X415590Y33739D01*
X415539Y33696D01*
X415497Y33633D01*
X415447Y33576D01*
X415418Y33515D01*
X415381Y33459D01*
X415358Y33387D01*
X415326Y33319D01*
X415316Y33252D01*
X415295Y33188D01*
X415293Y33113D01*
X415281Y33038D01*
X415290Y32981D01*
X415288Y32904D01*
X415320Y32783D01*
X415331Y32706D01*
X415815Y31216D01*
X416053Y29716D01*
X416053Y27431D01*
X407416Y27431D01*
X407358Y27423D01*
X407300Y27425D01*
X407218Y27403D01*
X407135Y27391D01*
X407081Y27367D01*
X407025Y27353D01*
X406952Y27310D01*
X406875Y27275D01*
X406831Y27237D01*
X406780Y27207D01*
X406723Y27146D01*
X406658Y27091D01*
X406626Y27043D01*
X406586Y27000D01*
X406547Y26925D01*
X406501Y26855D01*
X406483Y26799D01*
X406456Y26747D01*
X406445Y26679D01*
X406415Y26584D01*
X406412Y26484D01*
X406401Y26416D01*
X406401Y25399D01*
X406399Y25399D01*
X406399Y26416D01*
X406391Y26474D01*
X406392Y26532D01*
X406371Y26614D01*
X406359Y26697D01*
X406335Y26751D01*
X406321Y26807D01*
X406278Y26880D01*
X406243Y26957D01*
X406205Y27002D01*
X406175Y27052D01*
X406114Y27110D01*
X406059Y27174D01*
X406011Y27206D01*
X405968Y27246D01*
X405893Y27285D01*
X405823Y27331D01*
X405767Y27349D01*
X405715Y27376D01*
X405647Y27387D01*
X405552Y27417D01*
X405452Y27420D01*
X405384Y27431D01*
X396747Y27431D01*
X396747Y29716D01*
X396985Y31216D01*
X397469Y32706D01*
X397482Y32780D01*
X397505Y32852D01*
X397506Y32920D01*
X397518Y32986D01*
X397510Y33061D01*
X397512Y33136D01*
X397495Y33202D01*
X397488Y33269D01*
X397459Y33339D01*
X397440Y33411D01*
X397406Y33469D01*
X397380Y33532D01*
X397333Y33591D01*
X397295Y33656D01*
X397246Y33702D01*
X397204Y33755D01*
X397143Y33799D01*
X397088Y33850D01*
X397027Y33881D01*
X396973Y33920D01*
X396902Y33946D01*
X396835Y33980D01*
X396778Y33989D01*
X396704Y34015D01*
X396579Y34023D01*
X396503Y34035D01*
X392513Y34035D01*
X392399Y34019D01*
X392285Y34009D01*
X392259Y33999D01*
X392232Y33995D01*
X392127Y33948D01*
X392020Y33907D01*
X391998Y33891D01*
X391972Y33879D01*
X391885Y33805D01*
X391793Y33736D01*
X391776Y33713D01*
X391755Y33696D01*
X391692Y33600D01*
X391623Y33508D01*
X391613Y33482D01*
X391598Y33459D01*
X391563Y33349D01*
X391522Y33242D01*
X391520Y33214D01*
X391512Y33188D01*
X391509Y33073D01*
X391500Y32959D01*
X391505Y32934D01*
X391505Y32904D01*
X391572Y32647D01*
X391575Y32631D01*
X392177Y31179D01*
X392177Y19621D01*
X390475Y15513D01*
X387331Y12369D01*
X383223Y10667D01*
X378777Y10667D01*
X374669Y12369D01*
X371525Y15513D01*
X369823Y19621D01*
X369823Y28304D01*
X369811Y28390D01*
X369808Y28478D01*
X369791Y28530D01*
X369783Y28585D01*
X369748Y28665D01*
X369721Y28748D01*
X369693Y28787D01*
X369667Y28844D01*
X369571Y28958D01*
X369526Y29021D01*
X368510Y30038D01*
X368486Y30055D01*
X368467Y30078D01*
X368373Y30140D01*
X368283Y30208D01*
X368255Y30219D01*
X368231Y30235D01*
X368123Y30269D01*
X368017Y30310D01*
X367988Y30312D01*
X367960Y30321D01*
X367846Y30324D01*
X367734Y30333D01*
X367705Y30327D01*
X367676Y30328D01*
X367566Y30300D01*
X367455Y30277D01*
X367429Y30264D01*
X367401Y30256D01*
X367303Y30199D01*
X367203Y30146D01*
X367181Y30126D01*
X367156Y30111D01*
X367079Y30029D01*
X366997Y29951D01*
X366982Y29925D01*
X366962Y29904D01*
X366910Y29803D01*
X366853Y29705D01*
X366846Y29677D01*
X366832Y29651D01*
X366819Y29573D01*
X366783Y29430D01*
X366785Y29367D01*
X366777Y29320D01*
X366777Y19621D01*
X365075Y15513D01*
X361931Y12369D01*
X357823Y10667D01*
X353377Y10667D01*
X349269Y12369D01*
X346125Y15513D01*
X344423Y19621D01*
X344423Y31179D01*
X345025Y32631D01*
X345053Y32743D01*
X345088Y32852D01*
X345089Y32880D01*
X345096Y32907D01*
X345093Y33021D01*
X345095Y33136D01*
X345088Y33163D01*
X345088Y33191D01*
X345053Y33300D01*
X345024Y33411D01*
X345009Y33435D01*
X345001Y33462D01*
X344937Y33557D01*
X344878Y33656D01*
X344858Y33675D01*
X344843Y33698D01*
X344755Y33772D01*
X344671Y33850D01*
X344646Y33863D01*
X344625Y33881D01*
X344520Y33927D01*
X344418Y33980D01*
X344393Y33984D01*
X344365Y33996D01*
X344102Y34033D01*
X344087Y34035D01*
X341713Y34035D01*
X341599Y34019D01*
X341485Y34009D01*
X341459Y33999D01*
X341432Y33995D01*
X341327Y33948D01*
X341220Y33907D01*
X341198Y33891D01*
X341172Y33879D01*
X341085Y33805D01*
X340993Y33736D01*
X340976Y33713D01*
X340955Y33696D01*
X340892Y33600D01*
X340823Y33508D01*
X340813Y33482D01*
X340798Y33459D01*
X340763Y33349D01*
X340722Y33242D01*
X340720Y33214D01*
X340712Y33188D01*
X340709Y33073D01*
X340700Y32959D01*
X340705Y32934D01*
X340705Y32904D01*
X340772Y32647D01*
X340775Y32631D01*
X341377Y31179D01*
X341377Y19621D01*
X339675Y15513D01*
X336531Y12369D01*
X332423Y10667D01*
X327977Y10667D01*
X323869Y12369D01*
X320725Y15513D01*
X319023Y19621D01*
X319023Y31179D01*
X319625Y32631D01*
X319653Y32743D01*
X319688Y32852D01*
X319689Y32880D01*
X319696Y32907D01*
X319693Y33021D01*
X319695Y33136D01*
X319688Y33163D01*
X319688Y33191D01*
X319653Y33300D01*
X319624Y33411D01*
X319609Y33435D01*
X319601Y33462D01*
X319537Y33557D01*
X319478Y33656D01*
X319458Y33675D01*
X319443Y33698D01*
X319355Y33772D01*
X319271Y33850D01*
X319246Y33863D01*
X319225Y33881D01*
X319120Y33927D01*
X319018Y33980D01*
X318993Y33984D01*
X318965Y33996D01*
X318702Y34033D01*
X318687Y34035D01*
X316628Y34035D01*
X316542Y34023D01*
X316454Y34020D01*
X316402Y34003D01*
X316347Y33995D01*
X316267Y33960D01*
X316184Y33933D01*
X316145Y33905D01*
X316088Y33879D01*
X315974Y33783D01*
X315911Y33738D01*
X315688Y33515D01*
X315687Y33514D01*
X315685Y33513D01*
X315599Y33398D01*
X315517Y33288D01*
X315516Y33286D01*
X315515Y33285D01*
X315465Y33151D01*
X315415Y33022D01*
X315415Y33021D01*
X315415Y33019D01*
X315403Y32875D01*
X315392Y32739D01*
X315392Y32737D01*
X315392Y32736D01*
X315396Y32720D01*
X315448Y32460D01*
X315462Y32433D01*
X315468Y32409D01*
X315977Y31179D01*
X315977Y19621D01*
X314275Y15513D01*
X311131Y12369D01*
X307023Y10667D01*
X302577Y10667D01*
G37*
%LPD*%
G36*
X445029Y162308D02*
X445029Y162308D01*
X445041Y162307D01*
X445169Y162328D01*
X445298Y162347D01*
X445309Y162352D01*
X445322Y162354D01*
X445439Y162410D01*
X445558Y162463D01*
X445567Y162471D01*
X445578Y162476D01*
X445675Y162562D01*
X445775Y162646D01*
X445781Y162657D01*
X445791Y162665D01*
X445860Y162775D01*
X445932Y162883D01*
X445936Y162895D01*
X445942Y162905D01*
X445979Y163030D01*
X446018Y163154D01*
X446018Y163167D01*
X446022Y163178D01*
X446022Y163308D01*
X446025Y163438D01*
X446022Y163450D01*
X446022Y163463D01*
X446003Y163523D01*
X445953Y163713D01*
X445931Y163750D01*
X445921Y163783D01*
X445714Y164189D01*
X445245Y165634D01*
X445007Y167134D01*
X445007Y169419D01*
X453644Y169419D01*
X453702Y169427D01*
X453760Y169425D01*
X453842Y169447D01*
X453925Y169459D01*
X453979Y169483D01*
X454035Y169497D01*
X454108Y169540D01*
X454185Y169575D01*
X454229Y169613D01*
X454280Y169643D01*
X454337Y169704D01*
X454402Y169759D01*
X454434Y169807D01*
X454474Y169850D01*
X454513Y169925D01*
X454559Y169995D01*
X454577Y170051D01*
X454604Y170103D01*
X454615Y170171D01*
X454645Y170266D01*
X454648Y170366D01*
X454659Y170434D01*
X454659Y171451D01*
X454661Y171451D01*
X454661Y170434D01*
X454669Y170376D01*
X454668Y170318D01*
X454689Y170236D01*
X454701Y170153D01*
X454725Y170099D01*
X454739Y170043D01*
X454782Y169970D01*
X454817Y169893D01*
X454855Y169848D01*
X454885Y169798D01*
X454946Y169740D01*
X455001Y169676D01*
X455049Y169644D01*
X455092Y169604D01*
X455167Y169565D01*
X455237Y169519D01*
X455293Y169501D01*
X455345Y169474D01*
X455413Y169463D01*
X455508Y169433D01*
X455608Y169430D01*
X455676Y169419D01*
X464313Y169419D01*
X464313Y167134D01*
X464075Y165634D01*
X463606Y164189D01*
X463399Y163783D01*
X463395Y163771D01*
X463388Y163761D01*
X463349Y163637D01*
X463306Y163514D01*
X463306Y163502D01*
X463302Y163490D01*
X463299Y163360D01*
X463292Y163230D01*
X463295Y163218D01*
X463295Y163206D01*
X463328Y163080D01*
X463357Y162953D01*
X463364Y162943D01*
X463367Y162931D01*
X463433Y162819D01*
X463497Y162706D01*
X463506Y162697D01*
X463512Y162686D01*
X463606Y162597D01*
X463699Y162506D01*
X463710Y162500D01*
X463719Y162492D01*
X463835Y162433D01*
X463949Y162371D01*
X463961Y162368D01*
X463972Y162362D01*
X464035Y162352D01*
X464227Y162310D01*
X464269Y162312D01*
X464303Y162307D01*
X468757Y162307D01*
X468871Y162323D01*
X468985Y162333D01*
X469011Y162343D01*
X469039Y162347D01*
X469144Y162394D01*
X469251Y162435D01*
X469273Y162451D01*
X469298Y162463D01*
X469386Y162537D01*
X469477Y162606D01*
X469494Y162629D01*
X469515Y162646D01*
X469579Y162742D01*
X469648Y162834D01*
X469657Y162860D01*
X469673Y162883D01*
X469707Y162993D01*
X469748Y163100D01*
X469750Y163128D01*
X469759Y163154D01*
X469762Y163269D01*
X469771Y163383D01*
X469765Y163408D01*
X469766Y163438D01*
X469699Y163695D01*
X469695Y163711D01*
X468883Y165671D01*
X468883Y177229D01*
X470585Y181337D01*
X473729Y184481D01*
X475846Y185358D01*
X475873Y185374D01*
X475902Y185383D01*
X475966Y185429D01*
X476091Y185503D01*
X476135Y185550D01*
X476176Y185578D01*
X477840Y187242D01*
X477857Y187266D01*
X477880Y187285D01*
X477942Y187379D01*
X478010Y187469D01*
X478021Y187497D01*
X478037Y187521D01*
X478071Y187629D01*
X478112Y187735D01*
X478114Y187764D01*
X478123Y187792D01*
X478126Y187906D01*
X478135Y188018D01*
X478129Y188047D01*
X478130Y188076D01*
X478102Y188186D01*
X478079Y188297D01*
X478066Y188323D01*
X478058Y188351D01*
X478001Y188449D01*
X477948Y188549D01*
X477928Y188571D01*
X477913Y188596D01*
X477831Y188673D01*
X477753Y188755D01*
X477727Y188770D01*
X477706Y188790D01*
X477605Y188842D01*
X477507Y188899D01*
X477479Y188906D01*
X477453Y188920D01*
X477375Y188933D01*
X477232Y188969D01*
X477169Y188967D01*
X477122Y188975D01*
X476272Y188975D01*
X470915Y194332D01*
X470915Y196089D01*
X479044Y196089D01*
X479102Y196097D01*
X479160Y196095D01*
X479242Y196117D01*
X479325Y196129D01*
X479379Y196153D01*
X479435Y196167D01*
X479508Y196210D01*
X479585Y196245D01*
X479629Y196283D01*
X479680Y196313D01*
X479737Y196374D01*
X479802Y196429D01*
X479834Y196477D01*
X479874Y196520D01*
X479913Y196595D01*
X479959Y196665D01*
X479977Y196721D01*
X480004Y196773D01*
X480015Y196841D01*
X480045Y196936D01*
X480048Y197036D01*
X480059Y197104D01*
X480059Y198121D01*
X481076Y198121D01*
X481134Y198129D01*
X481192Y198128D01*
X481274Y198149D01*
X481357Y198161D01*
X481411Y198185D01*
X481467Y198199D01*
X481540Y198242D01*
X481617Y198277D01*
X481662Y198315D01*
X481712Y198345D01*
X481770Y198406D01*
X481834Y198461D01*
X481866Y198509D01*
X481906Y198552D01*
X481945Y198627D01*
X481991Y198697D01*
X482009Y198753D01*
X482036Y198805D01*
X482047Y198873D01*
X482077Y198968D01*
X482080Y199068D01*
X482091Y199136D01*
X482091Y207265D01*
X483848Y207265D01*
X486962Y204150D01*
X486986Y204133D01*
X487005Y204110D01*
X487099Y204048D01*
X487189Y203980D01*
X487217Y203969D01*
X487241Y203953D01*
X487349Y203919D01*
X487455Y203878D01*
X487484Y203876D01*
X487512Y203867D01*
X487626Y203864D01*
X487738Y203855D01*
X487767Y203861D01*
X487796Y203860D01*
X487906Y203888D01*
X488017Y203911D01*
X488043Y203924D01*
X488071Y203932D01*
X488169Y203989D01*
X488269Y204042D01*
X488291Y204062D01*
X488316Y204077D01*
X488393Y204159D01*
X488475Y204237D01*
X488490Y204263D01*
X488510Y204284D01*
X488562Y204385D01*
X488619Y204483D01*
X488626Y204511D01*
X488640Y204537D01*
X488653Y204615D01*
X488689Y204758D01*
X488687Y204821D01*
X488695Y204868D01*
X488695Y224069D01*
X490087Y227430D01*
X500700Y238042D01*
X500717Y238066D01*
X500740Y238085D01*
X500802Y238179D01*
X500870Y238269D01*
X500881Y238297D01*
X500897Y238321D01*
X500931Y238429D01*
X500972Y238535D01*
X500974Y238564D01*
X500983Y238592D01*
X500986Y238706D01*
X500995Y238818D01*
X500989Y238847D01*
X500990Y238876D01*
X500962Y238986D01*
X500939Y239097D01*
X500926Y239123D01*
X500918Y239151D01*
X500861Y239249D01*
X500808Y239349D01*
X500788Y239371D01*
X500773Y239396D01*
X500691Y239473D01*
X500613Y239555D01*
X500587Y239570D01*
X500566Y239590D01*
X500465Y239642D01*
X500367Y239699D01*
X500339Y239706D01*
X500313Y239720D01*
X500235Y239733D01*
X500092Y239769D01*
X500029Y239767D01*
X499982Y239775D01*
X499871Y239775D01*
X499871Y246889D01*
X506985Y246889D01*
X506985Y246778D01*
X506989Y246749D01*
X506986Y246720D01*
X507009Y246609D01*
X507025Y246497D01*
X507037Y246470D01*
X507042Y246441D01*
X507094Y246341D01*
X507141Y246237D01*
X507160Y246215D01*
X507173Y246189D01*
X507251Y246107D01*
X507324Y246020D01*
X507349Y246004D01*
X507369Y245983D01*
X507467Y245926D01*
X507561Y245863D01*
X507589Y245854D01*
X507614Y245839D01*
X507724Y245811D01*
X507832Y245777D01*
X507862Y245776D01*
X507890Y245769D01*
X508003Y245773D01*
X508116Y245770D01*
X508145Y245777D01*
X508174Y245778D01*
X508282Y245813D01*
X508391Y245842D01*
X508417Y245857D01*
X508445Y245866D01*
X508508Y245911D01*
X508636Y245987D01*
X508679Y246032D01*
X508718Y246060D01*
X524453Y261796D01*
X524474Y261814D01*
X524523Y261842D01*
X524582Y261905D01*
X524648Y261961D01*
X524679Y262008D01*
X524718Y262049D01*
X524758Y262126D01*
X524805Y262197D01*
X524822Y262251D01*
X524849Y262302D01*
X524865Y262386D01*
X524891Y262468D01*
X524893Y262525D01*
X524904Y262581D01*
X524896Y262666D01*
X524898Y262752D01*
X524884Y262807D01*
X524879Y262864D01*
X524848Y262944D01*
X524827Y263027D01*
X524798Y263076D01*
X524777Y263129D01*
X524725Y263198D01*
X524681Y263272D01*
X524640Y263311D01*
X524606Y263356D01*
X524537Y263407D01*
X524474Y263466D01*
X524423Y263492D01*
X524378Y263526D01*
X524298Y263557D01*
X524221Y263596D01*
X524172Y263604D01*
X524112Y263627D01*
X523967Y263638D01*
X523890Y263651D01*
X518821Y263651D01*
X515846Y266626D01*
X515845Y266627D01*
X515844Y266628D01*
X515730Y266713D01*
X515619Y266797D01*
X515617Y266798D01*
X515616Y266799D01*
X515484Y266848D01*
X515353Y266898D01*
X515352Y266898D01*
X515350Y266899D01*
X515206Y266910D01*
X515070Y266922D01*
X515068Y266921D01*
X515067Y266922D01*
X515051Y266918D01*
X514791Y266866D01*
X514764Y266852D01*
X514740Y266846D01*
X512000Y265711D01*
X509080Y265711D01*
X506383Y266829D01*
X504319Y268893D01*
X503201Y271590D01*
X503201Y274510D01*
X504366Y277322D01*
X504374Y277352D01*
X504388Y277379D01*
X504401Y277457D01*
X504437Y277597D01*
X504435Y277661D01*
X504443Y277710D01*
X504443Y281883D01*
X505371Y284124D01*
X507229Y285981D01*
X512000Y290752D01*
X512018Y290776D01*
X512040Y290795D01*
X512103Y290889D01*
X512171Y290979D01*
X512181Y291007D01*
X512198Y291031D01*
X512232Y291139D01*
X512272Y291245D01*
X512275Y291274D01*
X512283Y291302D01*
X512286Y291416D01*
X512296Y291528D01*
X512290Y291557D01*
X512291Y291586D01*
X512262Y291696D01*
X512240Y291807D01*
X512226Y291833D01*
X512219Y291861D01*
X512161Y291959D01*
X512109Y292059D01*
X512089Y292081D01*
X512074Y292106D01*
X511991Y292183D01*
X511913Y292265D01*
X511888Y292280D01*
X511866Y292300D01*
X511766Y292352D01*
X511668Y292409D01*
X511639Y292416D01*
X511613Y292430D01*
X511536Y292443D01*
X511392Y292479D01*
X511330Y292477D01*
X511282Y292485D01*
X501685Y292485D01*
X501683Y292485D01*
X501682Y292485D01*
X501541Y292465D01*
X501403Y292445D01*
X501402Y292445D01*
X501400Y292445D01*
X501270Y292386D01*
X501144Y292329D01*
X501143Y292328D01*
X501141Y292327D01*
X501035Y292237D01*
X500927Y292146D01*
X500926Y292144D01*
X500925Y292143D01*
X500917Y292130D01*
X500769Y291909D01*
X500760Y291880D01*
X500747Y291859D01*
X500469Y291186D01*
X470179Y260896D01*
X467938Y259968D01*
X416331Y259968D01*
X416244Y259956D01*
X416157Y259953D01*
X416104Y259936D01*
X416049Y259928D01*
X415970Y259893D01*
X415886Y259866D01*
X415847Y259838D01*
X415790Y259812D01*
X415677Y259716D01*
X415613Y259671D01*
X404564Y248622D01*
X404546Y248598D01*
X404524Y248579D01*
X404461Y248485D01*
X404393Y248395D01*
X404383Y248367D01*
X404366Y248343D01*
X404332Y248235D01*
X404292Y248129D01*
X404289Y248100D01*
X404281Y248072D01*
X404278Y247958D01*
X404268Y247846D01*
X404274Y247817D01*
X404273Y247788D01*
X404302Y247678D01*
X404324Y247567D01*
X404338Y247541D01*
X404345Y247513D01*
X404403Y247415D01*
X404455Y247315D01*
X404475Y247293D01*
X404490Y247268D01*
X404573Y247191D01*
X404651Y247109D01*
X404676Y247094D01*
X404698Y247074D01*
X404798Y247022D01*
X404896Y246965D01*
X404925Y246958D01*
X404951Y246944D01*
X405028Y246931D01*
X405172Y246895D01*
X405234Y246897D01*
X405282Y246889D01*
X408522Y246889D01*
X412443Y245264D01*
X415444Y242263D01*
X417069Y238342D01*
X417069Y234098D01*
X415444Y230177D01*
X412794Y227526D01*
X412742Y227456D01*
X412682Y227393D01*
X412656Y227343D01*
X412623Y227299D01*
X412592Y227217D01*
X412552Y227139D01*
X412544Y227092D01*
X412522Y227033D01*
X412510Y226886D01*
X412497Y226808D01*
X412497Y209804D01*
X412505Y209746D01*
X412503Y209688D01*
X412525Y209606D01*
X412537Y209522D01*
X412560Y209469D01*
X412575Y209413D01*
X412618Y209340D01*
X412653Y209263D01*
X412691Y209218D01*
X412720Y209168D01*
X412782Y209110D01*
X412836Y209046D01*
X412885Y209014D01*
X412928Y208974D01*
X413003Y208935D01*
X413073Y208888D01*
X413129Y208871D01*
X413181Y208844D01*
X413249Y208833D01*
X413344Y208803D01*
X413444Y208800D01*
X413512Y208789D01*
X414629Y208789D01*
X419017Y204401D01*
X419064Y204366D01*
X419104Y204323D01*
X419177Y204281D01*
X419244Y204230D01*
X419299Y204209D01*
X419349Y204179D01*
X419431Y204159D01*
X419510Y204129D01*
X419568Y204124D01*
X419625Y204109D01*
X419709Y204112D01*
X419793Y204105D01*
X419851Y204117D01*
X419909Y204118D01*
X419989Y204144D01*
X420072Y204161D01*
X420124Y204188D01*
X420180Y204206D01*
X420236Y204246D01*
X420324Y204292D01*
X420397Y204361D01*
X420453Y204401D01*
X422866Y206814D01*
X422918Y206884D01*
X422978Y206947D01*
X423004Y206997D01*
X423037Y207041D01*
X423068Y207123D01*
X423108Y207201D01*
X423116Y207248D01*
X423138Y207307D01*
X423150Y207454D01*
X423163Y207532D01*
X423163Y212033D01*
X424091Y214274D01*
X443694Y233876D01*
X443746Y233946D01*
X443806Y234010D01*
X443832Y234059D01*
X443865Y234103D01*
X443896Y234185D01*
X443936Y234263D01*
X443944Y234310D01*
X443966Y234369D01*
X443978Y234517D01*
X443991Y234594D01*
X443991Y238342D01*
X445616Y242263D01*
X448617Y245264D01*
X452538Y246889D01*
X456782Y246889D01*
X460703Y245264D01*
X463704Y242263D01*
X465329Y238342D01*
X465329Y234098D01*
X463704Y230177D01*
X460703Y227176D01*
X456782Y225551D01*
X453034Y225551D01*
X452947Y225539D01*
X452860Y225536D01*
X452807Y225519D01*
X452752Y225511D01*
X452673Y225476D01*
X452589Y225449D01*
X452550Y225421D01*
X452493Y225395D01*
X452380Y225299D01*
X452316Y225254D01*
X435654Y208592D01*
X435602Y208522D01*
X435542Y208458D01*
X435516Y208409D01*
X435483Y208365D01*
X435452Y208283D01*
X435412Y208205D01*
X435404Y208158D01*
X435382Y208099D01*
X435370Y207951D01*
X435357Y207874D01*
X435357Y207532D01*
X435369Y207445D01*
X435372Y207358D01*
X435389Y207305D01*
X435397Y207250D01*
X435432Y207170D01*
X435459Y207087D01*
X435487Y207048D01*
X435513Y206991D01*
X435609Y206877D01*
X435654Y206814D01*
X439929Y202539D01*
X439929Y193701D01*
X435654Y189426D01*
X435602Y189356D01*
X435542Y189293D01*
X435516Y189243D01*
X435483Y189199D01*
X435452Y189117D01*
X435412Y189039D01*
X435404Y188992D01*
X435382Y188933D01*
X435370Y188786D01*
X435357Y188708D01*
X435357Y185136D01*
X435369Y185049D01*
X435372Y184962D01*
X435389Y184909D01*
X435397Y184855D01*
X435432Y184775D01*
X435459Y184692D01*
X435487Y184652D01*
X435513Y184595D01*
X435609Y184482D01*
X435654Y184418D01*
X438735Y181337D01*
X440437Y177229D01*
X440437Y165671D01*
X439625Y163711D01*
X439596Y163599D01*
X439561Y163490D01*
X439561Y163462D01*
X439554Y163435D01*
X439557Y163321D01*
X439554Y163206D01*
X439561Y163179D01*
X439562Y163151D01*
X439597Y163042D01*
X439626Y162931D01*
X439640Y162907D01*
X439649Y162880D01*
X439713Y162785D01*
X439771Y162686D01*
X439791Y162667D01*
X439807Y162644D01*
X439895Y162570D01*
X439979Y162492D01*
X440003Y162479D01*
X440024Y162461D01*
X440129Y162415D01*
X440232Y162362D01*
X440256Y162358D01*
X440284Y162346D01*
X440548Y162309D01*
X440563Y162307D01*
X445017Y162307D01*
X445029Y162308D01*
G37*
G36*
X592771Y161049D02*
X592771Y161049D01*
X592858Y161052D01*
X592911Y161069D01*
X592966Y161077D01*
X593045Y161112D01*
X593129Y161139D01*
X593168Y161167D01*
X593225Y161193D01*
X593338Y161289D01*
X593402Y161334D01*
X595947Y163879D01*
X595948Y163880D01*
X595949Y163881D01*
X596034Y163995D01*
X596118Y164106D01*
X596119Y164108D01*
X596119Y164109D01*
X596169Y164239D01*
X596219Y164372D01*
X596219Y164374D01*
X596220Y164375D01*
X596231Y164513D01*
X596243Y164655D01*
X596242Y164657D01*
X596243Y164658D01*
X596239Y164673D01*
X596187Y164934D01*
X596173Y164961D01*
X596167Y164986D01*
X595883Y165671D01*
X595883Y177229D01*
X597585Y181337D01*
X600729Y184481D01*
X604837Y186183D01*
X608838Y186183D01*
X608896Y186191D01*
X608954Y186189D01*
X609036Y186211D01*
X609120Y186223D01*
X609173Y186246D01*
X609229Y186261D01*
X609302Y186304D01*
X609379Y186339D01*
X609424Y186377D01*
X609474Y186406D01*
X609532Y186468D01*
X609596Y186522D01*
X609628Y186571D01*
X609668Y186614D01*
X609707Y186689D01*
X609754Y186759D01*
X609771Y186815D01*
X609798Y186867D01*
X609809Y186935D01*
X609839Y187030D01*
X609842Y187130D01*
X609853Y187198D01*
X609853Y219708D01*
X609837Y219822D01*
X609827Y219936D01*
X609817Y219962D01*
X609813Y219990D01*
X609766Y220095D01*
X609725Y220202D01*
X609709Y220224D01*
X609697Y220249D01*
X609623Y220337D01*
X609554Y220428D01*
X609531Y220445D01*
X609514Y220466D01*
X609418Y220530D01*
X609326Y220599D01*
X609300Y220608D01*
X609277Y220624D01*
X609167Y220658D01*
X609060Y220699D01*
X609032Y220701D01*
X609006Y220710D01*
X608891Y220713D01*
X608777Y220722D01*
X608752Y220716D01*
X608722Y220717D01*
X608465Y220650D01*
X608449Y220646D01*
X605574Y219455D01*
X600926Y219455D01*
X596631Y221234D01*
X593344Y224521D01*
X591565Y228816D01*
X591565Y241084D01*
X592546Y243451D01*
X592574Y243563D01*
X592609Y243672D01*
X592610Y243700D01*
X592617Y243727D01*
X592613Y243841D01*
X592616Y243956D01*
X592609Y243983D01*
X592609Y244011D01*
X592574Y244120D01*
X592545Y244231D01*
X592530Y244255D01*
X592522Y244282D01*
X592458Y244377D01*
X592399Y244476D01*
X592379Y244495D01*
X592364Y244518D01*
X592276Y244592D01*
X592192Y244670D01*
X592167Y244683D01*
X592146Y244701D01*
X592041Y244747D01*
X591939Y244800D01*
X591914Y244804D01*
X591886Y244816D01*
X591623Y244853D01*
X591608Y244855D01*
X589492Y244855D01*
X589378Y244839D01*
X589264Y244829D01*
X589238Y244819D01*
X589211Y244815D01*
X589106Y244768D01*
X588999Y244727D01*
X588977Y244711D01*
X588951Y244699D01*
X588864Y244625D01*
X588772Y244556D01*
X588755Y244533D01*
X588734Y244516D01*
X588671Y244420D01*
X588602Y244328D01*
X588592Y244302D01*
X588577Y244279D01*
X588542Y244169D01*
X588501Y244062D01*
X588499Y244034D01*
X588491Y244008D01*
X588488Y243893D01*
X588479Y243779D01*
X588484Y243754D01*
X588484Y243724D01*
X588551Y243467D01*
X588554Y243451D01*
X589535Y241084D01*
X589535Y228816D01*
X587756Y224521D01*
X584469Y221234D01*
X580174Y219455D01*
X575526Y219455D01*
X571231Y221234D01*
X567944Y224521D01*
X566165Y228816D01*
X566165Y241084D01*
X567146Y243451D01*
X567174Y243563D01*
X567209Y243672D01*
X567210Y243700D01*
X567217Y243727D01*
X567213Y243841D01*
X567216Y243956D01*
X567209Y243983D01*
X567209Y244011D01*
X567174Y244120D01*
X567145Y244231D01*
X567130Y244255D01*
X567122Y244282D01*
X567058Y244377D01*
X566999Y244476D01*
X566979Y244495D01*
X566964Y244518D01*
X566876Y244592D01*
X566792Y244670D01*
X566767Y244683D01*
X566746Y244701D01*
X566641Y244747D01*
X566539Y244800D01*
X566514Y244804D01*
X566486Y244816D01*
X566223Y244853D01*
X566208Y244855D01*
X533798Y244855D01*
X533712Y244843D01*
X533624Y244840D01*
X533572Y244823D01*
X533517Y244815D01*
X533437Y244780D01*
X533354Y244753D01*
X533315Y244725D01*
X533258Y244699D01*
X533144Y244603D01*
X533081Y244558D01*
X507282Y218759D01*
X507230Y218690D01*
X507170Y218626D01*
X507144Y218576D01*
X507111Y218532D01*
X507080Y218451D01*
X507040Y218373D01*
X507032Y218325D01*
X507010Y218267D01*
X506998Y218119D01*
X506985Y218042D01*
X506985Y204484D01*
X506997Y204397D01*
X507000Y204310D01*
X507017Y204257D01*
X507025Y204202D01*
X507060Y204122D01*
X507087Y204039D01*
X507115Y204000D01*
X507141Y203943D01*
X507237Y203830D01*
X507282Y203766D01*
X508509Y202539D01*
X508509Y193701D01*
X506905Y192098D01*
X506887Y192073D01*
X506863Y192053D01*
X506822Y191986D01*
X506735Y191870D01*
X506712Y191810D01*
X506685Y191768D01*
X505593Y189130D01*
X504378Y187916D01*
X504361Y187892D01*
X504338Y187873D01*
X504276Y187779D01*
X504208Y187689D01*
X504197Y187661D01*
X504181Y187637D01*
X504147Y187529D01*
X504106Y187423D01*
X504104Y187394D01*
X504095Y187366D01*
X504092Y187252D01*
X504083Y187140D01*
X504089Y187111D01*
X504088Y187082D01*
X504116Y186972D01*
X504139Y186861D01*
X504152Y186835D01*
X504160Y186807D01*
X504217Y186709D01*
X504270Y186609D01*
X504290Y186587D01*
X504305Y186562D01*
X504387Y186485D01*
X504465Y186403D01*
X504491Y186388D01*
X504512Y186368D01*
X504613Y186316D01*
X504711Y186259D01*
X504739Y186252D01*
X504765Y186238D01*
X504843Y186225D01*
X504986Y186189D01*
X505049Y186191D01*
X505096Y186183D01*
X507683Y186183D01*
X511791Y184481D01*
X514935Y181337D01*
X516637Y177229D01*
X516637Y165671D01*
X515825Y163711D01*
X515796Y163599D01*
X515761Y163490D01*
X515761Y163462D01*
X515754Y163435D01*
X515757Y163321D01*
X515754Y163206D01*
X515761Y163179D01*
X515762Y163151D01*
X515797Y163042D01*
X515826Y162931D01*
X515840Y162907D01*
X515849Y162880D01*
X515913Y162785D01*
X515971Y162686D01*
X515991Y162667D01*
X516007Y162644D01*
X516095Y162570D01*
X516179Y162492D01*
X516203Y162479D01*
X516224Y162461D01*
X516329Y162415D01*
X516432Y162362D01*
X516456Y162358D01*
X516484Y162346D01*
X516748Y162309D01*
X516763Y162307D01*
X519557Y162307D01*
X519671Y162323D01*
X519785Y162333D01*
X519811Y162343D01*
X519839Y162347D01*
X519944Y162394D01*
X520051Y162435D01*
X520073Y162451D01*
X520098Y162463D01*
X520186Y162537D01*
X520277Y162606D01*
X520294Y162629D01*
X520315Y162646D01*
X520379Y162742D01*
X520448Y162834D01*
X520457Y162860D01*
X520473Y162883D01*
X520507Y162993D01*
X520548Y163100D01*
X520550Y163128D01*
X520559Y163154D01*
X520562Y163269D01*
X520571Y163383D01*
X520565Y163408D01*
X520566Y163438D01*
X520499Y163695D01*
X520495Y163711D01*
X519683Y165671D01*
X519683Y177229D01*
X521385Y181337D01*
X524529Y184481D01*
X528637Y186183D01*
X533083Y186183D01*
X537191Y184481D01*
X540335Y181337D01*
X542037Y177229D01*
X542037Y165671D01*
X541225Y163711D01*
X541196Y163599D01*
X541161Y163490D01*
X541161Y163462D01*
X541154Y163435D01*
X541157Y163321D01*
X541154Y163206D01*
X541161Y163179D01*
X541162Y163151D01*
X541197Y163042D01*
X541226Y162931D01*
X541240Y162907D01*
X541249Y162880D01*
X541313Y162785D01*
X541371Y162686D01*
X541391Y162667D01*
X541407Y162644D01*
X541495Y162570D01*
X541579Y162492D01*
X541603Y162479D01*
X541624Y162461D01*
X541729Y162415D01*
X541832Y162362D01*
X541856Y162358D01*
X541884Y162346D01*
X542148Y162309D01*
X542163Y162307D01*
X544957Y162307D01*
X545071Y162323D01*
X545185Y162333D01*
X545211Y162343D01*
X545239Y162347D01*
X545344Y162394D01*
X545451Y162435D01*
X545473Y162451D01*
X545498Y162463D01*
X545586Y162537D01*
X545677Y162606D01*
X545694Y162629D01*
X545715Y162646D01*
X545779Y162742D01*
X545848Y162834D01*
X545857Y162860D01*
X545873Y162883D01*
X545907Y162993D01*
X545948Y163100D01*
X545950Y163128D01*
X545959Y163154D01*
X545962Y163269D01*
X545971Y163383D01*
X545965Y163408D01*
X545966Y163438D01*
X545899Y163695D01*
X545895Y163711D01*
X545083Y165671D01*
X545083Y177229D01*
X546785Y181337D01*
X549929Y184481D01*
X554037Y186183D01*
X558483Y186183D01*
X562591Y184481D01*
X565735Y181337D01*
X567437Y177229D01*
X567437Y169570D01*
X567441Y169541D01*
X567438Y169512D01*
X567461Y169401D01*
X567477Y169288D01*
X567489Y169262D01*
X567494Y169233D01*
X567546Y169132D01*
X567593Y169029D01*
X567612Y169006D01*
X567625Y168981D01*
X567703Y168898D01*
X567776Y168812D01*
X567801Y168796D01*
X567821Y168774D01*
X567919Y168717D01*
X568013Y168654D01*
X568041Y168645D01*
X568066Y168631D01*
X568176Y168603D01*
X568284Y168569D01*
X568314Y168568D01*
X568342Y168561D01*
X568455Y168564D01*
X568568Y168561D01*
X568597Y168569D01*
X568626Y168570D01*
X568734Y168604D01*
X568843Y168633D01*
X568869Y168648D01*
X568897Y168657D01*
X568960Y168703D01*
X569088Y168778D01*
X569131Y168824D01*
X569170Y168852D01*
X570186Y169868D01*
X570238Y169938D01*
X570298Y170002D01*
X570324Y170051D01*
X570357Y170095D01*
X570388Y170177D01*
X570428Y170255D01*
X570436Y170302D01*
X570458Y170361D01*
X570470Y170509D01*
X570483Y170586D01*
X570483Y177229D01*
X572185Y181337D01*
X575329Y184481D01*
X579437Y186183D01*
X583883Y186183D01*
X587991Y184481D01*
X591135Y181337D01*
X592837Y177229D01*
X592837Y165671D01*
X591499Y162441D01*
X591470Y162329D01*
X591435Y162220D01*
X591435Y162192D01*
X591428Y162165D01*
X591431Y162051D01*
X591428Y161936D01*
X591435Y161909D01*
X591436Y161881D01*
X591471Y161772D01*
X591500Y161661D01*
X591514Y161637D01*
X591523Y161610D01*
X591587Y161515D01*
X591645Y161416D01*
X591665Y161397D01*
X591681Y161374D01*
X591769Y161300D01*
X591852Y161222D01*
X591877Y161209D01*
X591898Y161191D01*
X592003Y161145D01*
X592106Y161092D01*
X592130Y161088D01*
X592158Y161076D01*
X592422Y161039D01*
X592437Y161037D01*
X592684Y161037D01*
X592771Y161049D01*
G37*
%LPC*%
G36*
X152875Y253110D02*
X152875Y253110D01*
X150494Y255491D01*
X150494Y266901D01*
X150482Y266987D01*
X150479Y267075D01*
X150462Y267127D01*
X150454Y267182D01*
X150419Y267262D01*
X150392Y267345D01*
X150364Y267384D01*
X150338Y267441D01*
X150242Y267555D01*
X150197Y267618D01*
X145795Y272020D01*
X145795Y281700D01*
X152640Y288545D01*
X162154Y288545D01*
X162241Y288557D01*
X162328Y288560D01*
X162381Y288577D01*
X162436Y288585D01*
X162515Y288620D01*
X162599Y288647D01*
X162638Y288675D01*
X162695Y288701D01*
X162808Y288797D01*
X162872Y288842D01*
X166402Y292372D01*
X166420Y292396D01*
X166442Y292415D01*
X166505Y292509D01*
X166573Y292599D01*
X166583Y292627D01*
X166600Y292651D01*
X166634Y292759D01*
X166674Y292865D01*
X166677Y292894D01*
X166685Y292922D01*
X166688Y293036D01*
X166698Y293148D01*
X166692Y293177D01*
X166693Y293206D01*
X166664Y293316D01*
X166642Y293427D01*
X166628Y293453D01*
X166621Y293481D01*
X166563Y293579D01*
X166511Y293679D01*
X166491Y293701D01*
X166476Y293726D01*
X166393Y293803D01*
X166315Y293885D01*
X166290Y293900D01*
X166268Y293920D01*
X166168Y293972D01*
X166070Y294029D01*
X166041Y294036D01*
X166015Y294050D01*
X165938Y294063D01*
X165794Y294099D01*
X165732Y294097D01*
X165684Y294105D01*
X156431Y294105D01*
X155658Y294879D01*
X155611Y294914D01*
X155571Y294956D01*
X155498Y294999D01*
X155431Y295050D01*
X155376Y295070D01*
X155326Y295100D01*
X155244Y295121D01*
X155165Y295151D01*
X155107Y295156D01*
X155050Y295170D01*
X154966Y295167D01*
X154882Y295174D01*
X154824Y295163D01*
X154766Y295161D01*
X154686Y295135D01*
X154603Y295119D01*
X154551Y295092D01*
X154495Y295074D01*
X154439Y295034D01*
X154351Y294988D01*
X154278Y294919D01*
X154222Y294879D01*
X153449Y294105D01*
X143731Y294105D01*
X142958Y294879D01*
X142911Y294914D01*
X142871Y294956D01*
X142798Y294999D01*
X142731Y295050D01*
X142676Y295070D01*
X142626Y295100D01*
X142544Y295121D01*
X142465Y295151D01*
X142407Y295156D01*
X142350Y295170D01*
X142266Y295167D01*
X142182Y295174D01*
X142124Y295163D01*
X142066Y295161D01*
X141986Y295135D01*
X141903Y295119D01*
X141851Y295092D01*
X141795Y295074D01*
X141739Y295033D01*
X141651Y294988D01*
X141578Y294919D01*
X141522Y294879D01*
X140749Y294105D01*
X131031Y294105D01*
X128650Y296486D01*
X128650Y315094D01*
X131031Y317475D01*
X140749Y317475D01*
X141522Y316701D01*
X141569Y316666D01*
X141609Y316624D01*
X141682Y316581D01*
X141749Y316530D01*
X141804Y316510D01*
X141854Y316480D01*
X141936Y316459D01*
X142015Y316429D01*
X142073Y316424D01*
X142130Y316410D01*
X142214Y316413D01*
X142298Y316406D01*
X142356Y316417D01*
X142414Y316419D01*
X142494Y316445D01*
X142577Y316461D01*
X142629Y316488D01*
X142685Y316506D01*
X142741Y316546D01*
X142829Y316592D01*
X142902Y316661D01*
X142958Y316701D01*
X143731Y317475D01*
X153449Y317475D01*
X154222Y316701D01*
X154269Y316666D01*
X154309Y316624D01*
X154382Y316581D01*
X154449Y316530D01*
X154504Y316510D01*
X154554Y316480D01*
X154636Y316459D01*
X154715Y316429D01*
X154773Y316424D01*
X154830Y316410D01*
X154914Y316413D01*
X154998Y316406D01*
X155056Y316417D01*
X155114Y316419D01*
X155194Y316445D01*
X155277Y316461D01*
X155329Y316488D01*
X155385Y316506D01*
X155441Y316547D01*
X155529Y316592D01*
X155602Y316661D01*
X155658Y316701D01*
X156431Y317475D01*
X166149Y317475D01*
X166922Y316701D01*
X166969Y316666D01*
X167009Y316624D01*
X167082Y316581D01*
X167149Y316530D01*
X167204Y316510D01*
X167254Y316480D01*
X167336Y316459D01*
X167415Y316429D01*
X167473Y316424D01*
X167530Y316410D01*
X167614Y316413D01*
X167698Y316406D01*
X167756Y316417D01*
X167814Y316419D01*
X167894Y316445D01*
X167977Y316461D01*
X168029Y316488D01*
X168085Y316506D01*
X168141Y316546D01*
X168229Y316592D01*
X168302Y316661D01*
X168358Y316701D01*
X169131Y317475D01*
X178849Y317475D01*
X179389Y316934D01*
X179481Y316865D01*
X179569Y316791D01*
X179594Y316780D01*
X179616Y316763D01*
X179724Y316722D01*
X179829Y316676D01*
X179856Y316672D01*
X179882Y316662D01*
X179996Y316653D01*
X180110Y316637D01*
X180138Y316641D01*
X180165Y316638D01*
X180278Y316661D01*
X180392Y316677D01*
X180417Y316689D01*
X180444Y316694D01*
X180546Y316747D01*
X180651Y316795D01*
X180672Y316813D01*
X180696Y316825D01*
X180780Y316904D01*
X180867Y316979D01*
X180880Y317000D01*
X180903Y317021D01*
X181037Y317251D01*
X181045Y317264D01*
X181521Y318414D01*
X183379Y320271D01*
X185189Y322081D01*
X187046Y323939D01*
X189287Y324867D01*
X267913Y324867D01*
X270154Y323939D01*
X272011Y322081D01*
X279563Y314529D01*
X279588Y314510D01*
X279608Y314487D01*
X279675Y314445D01*
X279791Y314358D01*
X279851Y314335D01*
X279893Y314309D01*
X282159Y313370D01*
X284160Y311369D01*
X285243Y308755D01*
X285243Y305925D01*
X284160Y303311D01*
X282159Y301310D01*
X279545Y300227D01*
X276715Y300227D01*
X274101Y301310D01*
X272100Y303311D01*
X271161Y305577D01*
X271146Y305604D01*
X271136Y305633D01*
X271091Y305697D01*
X271017Y305822D01*
X270970Y305866D01*
X270941Y305907D01*
X264472Y312376D01*
X264402Y312428D01*
X264338Y312488D01*
X264289Y312514D01*
X264245Y312547D01*
X264163Y312578D01*
X264085Y312618D01*
X264038Y312626D01*
X263979Y312648D01*
X263831Y312660D01*
X263754Y312673D01*
X233045Y312673D01*
X232987Y312665D01*
X232929Y312667D01*
X232847Y312645D01*
X232763Y312633D01*
X232710Y312610D01*
X232654Y312595D01*
X232581Y312552D01*
X232504Y312517D01*
X232459Y312479D01*
X232409Y312450D01*
X232351Y312388D01*
X232287Y312334D01*
X232255Y312285D01*
X232215Y312242D01*
X232176Y312167D01*
X232129Y312097D01*
X232112Y312041D01*
X232085Y311989D01*
X232074Y311921D01*
X232044Y311826D01*
X232041Y311726D01*
X232030Y311658D01*
X232030Y296486D01*
X230588Y295045D01*
X230570Y295020D01*
X230546Y295000D01*
X230505Y294934D01*
X230417Y294818D01*
X230394Y294758D01*
X230368Y294716D01*
X229959Y293726D01*
X223164Y286931D01*
X220923Y286003D01*
X177698Y286003D01*
X177611Y285991D01*
X177524Y285988D01*
X177471Y285971D01*
X177416Y285963D01*
X177337Y285928D01*
X177253Y285901D01*
X177214Y285873D01*
X177157Y285847D01*
X177044Y285751D01*
X176980Y285706D01*
X169462Y278188D01*
X169410Y278118D01*
X169350Y278054D01*
X169324Y278005D01*
X169291Y277961D01*
X169260Y277879D01*
X169220Y277801D01*
X169212Y277754D01*
X169190Y277695D01*
X169182Y277600D01*
X169179Y277590D01*
X169178Y277547D01*
X169165Y277470D01*
X169165Y272020D01*
X166413Y269269D01*
X166378Y269222D01*
X166336Y269182D01*
X166293Y269109D01*
X166243Y269042D01*
X166222Y268987D01*
X166192Y268936D01*
X166171Y268855D01*
X166141Y268776D01*
X166136Y268718D01*
X166122Y268661D01*
X166125Y268576D01*
X166118Y268493D01*
X166129Y268435D01*
X166131Y268377D01*
X166157Y268296D01*
X166174Y268214D01*
X166201Y268162D01*
X166219Y268106D01*
X166259Y268050D01*
X166305Y267962D01*
X166373Y267889D01*
X166413Y267833D01*
X166498Y267749D01*
X166498Y255491D01*
X164117Y253110D01*
X152875Y253110D01*
G37*
%LPD*%
%LPC*%
G36*
X20287Y139445D02*
X20287Y139445D01*
X17906Y141826D01*
X17906Y183294D01*
X20287Y185675D01*
X43721Y185675D01*
X46102Y183294D01*
X46102Y141826D01*
X43721Y139445D01*
X20287Y139445D01*
G37*
%LPD*%
%LPC*%
G36*
X20287Y253745D02*
X20287Y253745D01*
X17906Y256126D01*
X17906Y297594D01*
X20287Y299975D01*
X43721Y299975D01*
X46102Y297594D01*
X46102Y256126D01*
X43721Y253745D01*
X20287Y253745D01*
G37*
%LPD*%
%LPC*%
G36*
X277177Y10667D02*
X277177Y10667D01*
X273069Y12369D01*
X269925Y15513D01*
X268223Y19621D01*
X268223Y21801D01*
X268211Y21886D01*
X268209Y21972D01*
X268191Y22026D01*
X268183Y22082D01*
X268148Y22161D01*
X268122Y22243D01*
X268090Y22290D01*
X268067Y22342D01*
X268012Y22407D01*
X267964Y22479D01*
X267920Y22515D01*
X267884Y22559D01*
X267812Y22606D01*
X267746Y22662D01*
X267694Y22685D01*
X267647Y22716D01*
X267565Y22742D01*
X267486Y22777D01*
X267430Y22785D01*
X267376Y22802D01*
X267290Y22804D01*
X267205Y22816D01*
X267149Y22808D01*
X267092Y22809D01*
X267009Y22788D01*
X266924Y22775D01*
X266872Y22752D01*
X266817Y22738D01*
X266743Y22694D01*
X266664Y22658D01*
X266621Y22621D01*
X266572Y22592D01*
X266513Y22530D01*
X266448Y22474D01*
X266422Y22432D01*
X266378Y22385D01*
X266312Y22256D01*
X266270Y22189D01*
X264652Y18283D01*
X261117Y14748D01*
X256499Y12835D01*
X251501Y12835D01*
X246883Y14748D01*
X243348Y18283D01*
X241435Y22901D01*
X241435Y27899D01*
X243348Y32517D01*
X246883Y36052D01*
X251501Y37965D01*
X256499Y37965D01*
X261117Y36052D01*
X264652Y32517D01*
X266270Y28611D01*
X266314Y28537D01*
X266349Y28458D01*
X266386Y28415D01*
X266415Y28366D01*
X266477Y28307D01*
X266533Y28241D01*
X266580Y28210D01*
X266621Y28171D01*
X266698Y28131D01*
X266769Y28084D01*
X266823Y28067D01*
X266874Y28040D01*
X266958Y28024D01*
X267040Y27998D01*
X267097Y27996D01*
X267153Y27985D01*
X267238Y27993D01*
X267324Y27991D01*
X267379Y28005D01*
X267436Y28010D01*
X267516Y28041D01*
X267599Y28062D01*
X267648Y28091D01*
X267701Y28112D01*
X267770Y28164D01*
X267844Y28208D01*
X267883Y28249D01*
X267928Y28284D01*
X267979Y28352D01*
X268038Y28415D01*
X268064Y28466D01*
X268098Y28511D01*
X268129Y28592D01*
X268168Y28668D01*
X268176Y28717D01*
X268199Y28777D01*
X268210Y28922D01*
X268223Y28999D01*
X268223Y31179D01*
X269925Y35287D01*
X273069Y38431D01*
X277177Y40133D01*
X281623Y40133D01*
X285731Y38431D01*
X288875Y35287D01*
X290577Y31179D01*
X290577Y19621D01*
X288875Y15513D01*
X285731Y12369D01*
X281623Y10667D01*
X277177Y10667D01*
G37*
%LPD*%
G36*
X108516Y212353D02*
X108516Y212353D01*
X108574Y212351D01*
X108656Y212373D01*
X108740Y212385D01*
X108793Y212408D01*
X108849Y212423D01*
X108922Y212466D01*
X108999Y212501D01*
X109044Y212539D01*
X109094Y212568D01*
X109152Y212630D01*
X109216Y212684D01*
X109248Y212733D01*
X109288Y212776D01*
X109327Y212851D01*
X109374Y212921D01*
X109391Y212977D01*
X109418Y213029D01*
X109429Y213097D01*
X109459Y213192D01*
X109462Y213292D01*
X109473Y213360D01*
X109473Y245819D01*
X109472Y245829D01*
X109473Y245839D01*
X109452Y245970D01*
X109433Y246101D01*
X109429Y246109D01*
X109428Y246119D01*
X109371Y246239D01*
X109317Y246360D01*
X109311Y246367D01*
X109307Y246376D01*
X109219Y246476D01*
X109134Y246577D01*
X109125Y246582D01*
X109119Y246590D01*
X109008Y246661D01*
X108897Y246735D01*
X108887Y246738D01*
X108879Y246743D01*
X108753Y246780D01*
X108626Y246820D01*
X108616Y246821D01*
X108607Y246823D01*
X108474Y246824D01*
X108342Y246828D01*
X108332Y246825D01*
X108322Y246825D01*
X108194Y246789D01*
X108067Y246756D01*
X108058Y246751D01*
X108049Y246748D01*
X107935Y246678D01*
X107822Y246611D01*
X107815Y246603D01*
X107807Y246598D01*
X107718Y246500D01*
X107628Y246403D01*
X107623Y246395D01*
X107617Y246387D01*
X107593Y246336D01*
X107498Y246150D01*
X107492Y246115D01*
X107477Y246082D01*
X107397Y245780D01*
X107062Y245201D01*
X106589Y244728D01*
X106010Y244393D01*
X105363Y244220D01*
X97027Y244220D01*
X97027Y253238D01*
X97019Y253296D01*
X97020Y253354D01*
X96999Y253436D01*
X96987Y253519D01*
X96963Y253573D01*
X96949Y253629D01*
X96906Y253702D01*
X96871Y253779D01*
X96833Y253823D01*
X96803Y253874D01*
X96742Y253931D01*
X96687Y253996D01*
X96639Y254028D01*
X96596Y254068D01*
X96521Y254107D01*
X96451Y254153D01*
X96395Y254171D01*
X96343Y254198D01*
X96275Y254209D01*
X96180Y254239D01*
X96080Y254242D01*
X96012Y254253D01*
X93980Y254253D01*
X93922Y254245D01*
X93864Y254246D01*
X93782Y254225D01*
X93699Y254213D01*
X93645Y254189D01*
X93589Y254175D01*
X93516Y254132D01*
X93439Y254097D01*
X93394Y254059D01*
X93344Y254029D01*
X93286Y253968D01*
X93222Y253913D01*
X93190Y253865D01*
X93150Y253822D01*
X93111Y253747D01*
X93065Y253677D01*
X93047Y253621D01*
X93020Y253569D01*
X93009Y253501D01*
X92979Y253406D01*
X92976Y253306D01*
X92965Y253238D01*
X92965Y244220D01*
X85090Y244220D01*
X85032Y244212D01*
X84974Y244214D01*
X84892Y244192D01*
X84808Y244180D01*
X84755Y244157D01*
X84699Y244142D01*
X84626Y244099D01*
X84549Y244064D01*
X84504Y244026D01*
X84454Y243997D01*
X84396Y243935D01*
X84332Y243881D01*
X84300Y243832D01*
X84260Y243789D01*
X84221Y243714D01*
X84174Y243644D01*
X84157Y243588D01*
X84130Y243536D01*
X84119Y243468D01*
X84089Y243373D01*
X84086Y243273D01*
X84075Y243205D01*
X84075Y216298D01*
X84087Y216212D01*
X84090Y216124D01*
X84107Y216072D01*
X84115Y216017D01*
X84150Y215937D01*
X84177Y215854D01*
X84205Y215815D01*
X84231Y215758D01*
X84327Y215644D01*
X84372Y215581D01*
X87311Y212642D01*
X87380Y212590D01*
X87444Y212530D01*
X87494Y212504D01*
X87538Y212471D01*
X87619Y212440D01*
X87697Y212400D01*
X87745Y212392D01*
X87803Y212370D01*
X87951Y212358D01*
X88028Y212345D01*
X108458Y212345D01*
X108516Y212353D01*
G37*
G36*
X361246Y418723D02*
X361246Y418723D01*
X361304Y418721D01*
X361386Y418743D01*
X361470Y418755D01*
X361523Y418778D01*
X361579Y418793D01*
X361652Y418836D01*
X361729Y418871D01*
X361774Y418909D01*
X361824Y418938D01*
X361882Y419000D01*
X361946Y419054D01*
X361978Y419103D01*
X362018Y419146D01*
X362057Y419221D01*
X362104Y419291D01*
X362121Y419347D01*
X362148Y419399D01*
X362159Y419467D01*
X362189Y419562D01*
X362192Y419662D01*
X362203Y419730D01*
X362203Y456692D01*
X362195Y456750D01*
X362197Y456808D01*
X362175Y456890D01*
X362163Y456974D01*
X362140Y457027D01*
X362125Y457083D01*
X362082Y457156D01*
X362047Y457233D01*
X362009Y457278D01*
X361980Y457328D01*
X361918Y457386D01*
X361864Y457450D01*
X361815Y457482D01*
X361772Y457522D01*
X361697Y457561D01*
X361627Y457608D01*
X361571Y457625D01*
X361519Y457652D01*
X361451Y457663D01*
X361356Y457693D01*
X361256Y457696D01*
X361188Y457707D01*
X347472Y457707D01*
X347414Y457699D01*
X347356Y457701D01*
X347274Y457679D01*
X347190Y457667D01*
X347137Y457644D01*
X347081Y457629D01*
X347008Y457586D01*
X346931Y457551D01*
X346886Y457513D01*
X346836Y457484D01*
X346778Y457422D01*
X346714Y457368D01*
X346682Y457319D01*
X346642Y457276D01*
X346603Y457201D01*
X346556Y457131D01*
X346539Y457075D01*
X346512Y457023D01*
X346501Y456955D01*
X346471Y456860D01*
X346468Y456760D01*
X346457Y456692D01*
X346457Y419730D01*
X346465Y419672D01*
X346463Y419614D01*
X346485Y419532D01*
X346497Y419448D01*
X346520Y419395D01*
X346535Y419339D01*
X346578Y419266D01*
X346613Y419189D01*
X346651Y419144D01*
X346680Y419094D01*
X346742Y419036D01*
X346796Y418972D01*
X346845Y418940D01*
X346888Y418900D01*
X346963Y418861D01*
X347033Y418814D01*
X347089Y418797D01*
X347141Y418770D01*
X347209Y418759D01*
X347304Y418729D01*
X347404Y418726D01*
X347472Y418715D01*
X361188Y418715D01*
X361246Y418723D01*
G37*
%LPC*%
G36*
X632777Y10667D02*
X632777Y10667D01*
X628669Y12369D01*
X625525Y15513D01*
X623823Y19621D01*
X623823Y31179D01*
X625525Y35287D01*
X628669Y38431D01*
X632777Y40133D01*
X637223Y40133D01*
X641331Y38431D01*
X644475Y35287D01*
X646177Y31179D01*
X646177Y19621D01*
X644475Y15513D01*
X641331Y12369D01*
X637223Y10667D01*
X632777Y10667D01*
G37*
%LPD*%
%LPC*%
G36*
X581977Y10667D02*
X581977Y10667D01*
X577869Y12369D01*
X574725Y15513D01*
X573023Y19621D01*
X573023Y31179D01*
X574725Y35287D01*
X577869Y38431D01*
X581977Y40133D01*
X586423Y40133D01*
X590531Y38431D01*
X593675Y35287D01*
X595377Y31179D01*
X595377Y19621D01*
X593675Y15513D01*
X590531Y12369D01*
X586423Y10667D01*
X581977Y10667D01*
G37*
%LPD*%
%LPC*%
G36*
X556577Y10667D02*
X556577Y10667D01*
X552469Y12369D01*
X549325Y15513D01*
X547623Y19621D01*
X547623Y31179D01*
X549325Y35287D01*
X552469Y38431D01*
X556577Y40133D01*
X561023Y40133D01*
X565131Y38431D01*
X568275Y35287D01*
X569977Y31179D01*
X569977Y19621D01*
X568275Y15513D01*
X565131Y12369D01*
X561023Y10667D01*
X556577Y10667D01*
G37*
%LPD*%
%LPC*%
G36*
X531177Y10667D02*
X531177Y10667D01*
X527069Y12369D01*
X523925Y15513D01*
X522223Y19621D01*
X522223Y31179D01*
X523925Y35287D01*
X527069Y38431D01*
X531177Y40133D01*
X535623Y40133D01*
X539731Y38431D01*
X542875Y35287D01*
X544577Y31179D01*
X544577Y19621D01*
X542875Y15513D01*
X539731Y12369D01*
X535623Y10667D01*
X531177Y10667D01*
G37*
%LPD*%
%LPC*%
G36*
X505777Y10667D02*
X505777Y10667D01*
X501669Y12369D01*
X498525Y15513D01*
X496823Y19621D01*
X496823Y31179D01*
X498525Y35287D01*
X501669Y38431D01*
X505777Y40133D01*
X510223Y40133D01*
X514331Y38431D01*
X517475Y35287D01*
X519177Y31179D01*
X519177Y19621D01*
X517475Y15513D01*
X514331Y12369D01*
X510223Y10667D01*
X505777Y10667D01*
G37*
%LPD*%
%LPC*%
G36*
X604837Y80517D02*
X604837Y80517D01*
X600729Y82219D01*
X597585Y85363D01*
X595883Y89471D01*
X595883Y101029D01*
X597585Y105137D01*
X600729Y108281D01*
X604837Y109983D01*
X609283Y109983D01*
X613391Y108281D01*
X616535Y105137D01*
X618237Y101029D01*
X618237Y89471D01*
X616535Y85363D01*
X613391Y82219D01*
X609283Y80517D01*
X604837Y80517D01*
G37*
%LPD*%
%LPC*%
G36*
X607377Y10667D02*
X607377Y10667D01*
X603269Y12369D01*
X600125Y15513D01*
X598423Y19621D01*
X598423Y31179D01*
X600125Y35287D01*
X603269Y38431D01*
X607377Y40133D01*
X611823Y40133D01*
X615931Y38431D01*
X619075Y35287D01*
X620777Y31179D01*
X620777Y19621D01*
X619075Y15513D01*
X615931Y12369D01*
X611823Y10667D01*
X607377Y10667D01*
G37*
%LPD*%
%LPC*%
G36*
X454977Y10667D02*
X454977Y10667D01*
X450869Y12369D01*
X447725Y15513D01*
X446023Y19621D01*
X446023Y31179D01*
X447725Y35287D01*
X450869Y38431D01*
X454977Y40133D01*
X459423Y40133D01*
X463531Y38431D01*
X466675Y35287D01*
X468377Y31179D01*
X468377Y19621D01*
X466675Y15513D01*
X463531Y12369D01*
X459423Y10667D01*
X454977Y10667D01*
G37*
%LPD*%
%LPC*%
G36*
X243231Y271271D02*
X243231Y271271D01*
X236981Y277521D01*
X236981Y286359D01*
X243231Y292609D01*
X252069Y292609D01*
X258319Y286359D01*
X258319Y277521D01*
X252069Y271271D01*
X243231Y271271D01*
G37*
%LPD*%
G36*
X360484Y198129D02*
X360484Y198129D01*
X360542Y198128D01*
X360624Y198149D01*
X360707Y198161D01*
X360761Y198185D01*
X360817Y198199D01*
X360890Y198242D01*
X360967Y198277D01*
X361012Y198315D01*
X361062Y198345D01*
X361120Y198406D01*
X361184Y198461D01*
X361216Y198509D01*
X361256Y198552D01*
X361295Y198627D01*
X361341Y198697D01*
X361359Y198753D01*
X361386Y198805D01*
X361397Y198873D01*
X361427Y198968D01*
X361430Y199068D01*
X361441Y199136D01*
X361441Y207265D01*
X363198Y207265D01*
X365550Y204912D01*
X365574Y204895D01*
X365593Y204872D01*
X365687Y204810D01*
X365777Y204742D01*
X365805Y204731D01*
X365829Y204715D01*
X365937Y204681D01*
X366043Y204640D01*
X366072Y204638D01*
X366100Y204629D01*
X366214Y204626D01*
X366326Y204617D01*
X366355Y204623D01*
X366384Y204622D01*
X366494Y204650D01*
X366605Y204673D01*
X366631Y204686D01*
X366659Y204694D01*
X366757Y204751D01*
X366857Y204804D01*
X366879Y204824D01*
X366904Y204839D01*
X366981Y204921D01*
X367063Y204999D01*
X367078Y205025D01*
X367098Y205046D01*
X367150Y205147D01*
X367207Y205245D01*
X367214Y205273D01*
X367228Y205299D01*
X367241Y205377D01*
X367277Y205520D01*
X367275Y205583D01*
X367283Y205630D01*
X367283Y230480D01*
X367279Y230509D01*
X367282Y230538D01*
X367259Y230649D01*
X367243Y230762D01*
X367231Y230788D01*
X367226Y230817D01*
X367174Y230918D01*
X367127Y231021D01*
X367108Y231044D01*
X367095Y231069D01*
X367017Y231152D01*
X366944Y231238D01*
X366919Y231254D01*
X366899Y231276D01*
X366801Y231333D01*
X366707Y231396D01*
X366679Y231405D01*
X366654Y231419D01*
X366544Y231447D01*
X366436Y231481D01*
X366406Y231482D01*
X366378Y231489D01*
X366265Y231486D01*
X366152Y231489D01*
X366123Y231481D01*
X366094Y231480D01*
X365986Y231446D01*
X365877Y231417D01*
X365851Y231402D01*
X365823Y231393D01*
X365760Y231347D01*
X365632Y231272D01*
X365589Y231226D01*
X365550Y231198D01*
X351834Y217482D01*
X351782Y217412D01*
X351722Y217348D01*
X351696Y217299D01*
X351663Y217255D01*
X351632Y217173D01*
X351592Y217095D01*
X351584Y217048D01*
X351562Y216989D01*
X351550Y216841D01*
X351537Y216764D01*
X351537Y205630D01*
X351541Y205601D01*
X351538Y205572D01*
X351561Y205461D01*
X351577Y205349D01*
X351589Y205322D01*
X351594Y205293D01*
X351647Y205193D01*
X351693Y205089D01*
X351712Y205067D01*
X351725Y205041D01*
X351803Y204959D01*
X351876Y204872D01*
X351901Y204856D01*
X351921Y204835D01*
X352019Y204778D01*
X352113Y204715D01*
X352141Y204706D01*
X352166Y204691D01*
X352276Y204663D01*
X352384Y204629D01*
X352414Y204628D01*
X352442Y204621D01*
X352555Y204625D01*
X352668Y204622D01*
X352697Y204629D01*
X352726Y204630D01*
X352834Y204665D01*
X352943Y204694D01*
X352969Y204709D01*
X352997Y204718D01*
X353060Y204763D01*
X353188Y204839D01*
X353231Y204884D01*
X353270Y204912D01*
X355622Y207265D01*
X357379Y207265D01*
X357379Y199136D01*
X357387Y199078D01*
X357385Y199020D01*
X357407Y198938D01*
X357419Y198855D01*
X357443Y198801D01*
X357457Y198745D01*
X357500Y198672D01*
X357535Y198595D01*
X357573Y198551D01*
X357603Y198500D01*
X357664Y198443D01*
X357719Y198378D01*
X357767Y198346D01*
X357810Y198306D01*
X357885Y198267D01*
X357955Y198221D01*
X358011Y198203D01*
X358063Y198176D01*
X358131Y198165D01*
X358226Y198135D01*
X358326Y198132D01*
X358394Y198121D01*
X360426Y198121D01*
X360484Y198129D01*
G37*
%LPC*%
G36*
X57911Y84581D02*
X57911Y84581D01*
X57911Y105925D01*
X58817Y105782D01*
X60694Y105172D01*
X62453Y104276D01*
X64050Y103115D01*
X65445Y101720D01*
X66606Y100123D01*
X67502Y98364D01*
X68112Y96487D01*
X68421Y94537D01*
X68421Y84581D01*
X57911Y84581D01*
G37*
%LPD*%
%LPC*%
G36*
X88391Y35051D02*
X88391Y35051D01*
X88391Y45561D01*
X98347Y45561D01*
X100297Y45252D01*
X102174Y44642D01*
X103933Y43746D01*
X105530Y42585D01*
X106925Y41190D01*
X108086Y39593D01*
X108982Y37834D01*
X109592Y35957D01*
X109735Y35051D01*
X88391Y35051D01*
G37*
%LPD*%
%LPC*%
G36*
X57911Y80519D02*
X57911Y80519D01*
X68421Y80519D01*
X68421Y70563D01*
X68112Y68613D01*
X67502Y66736D01*
X66606Y64977D01*
X65445Y63380D01*
X64050Y61985D01*
X62453Y60824D01*
X60694Y59928D01*
X58817Y59318D01*
X57911Y59175D01*
X57911Y80519D01*
G37*
%LPD*%
%LPC*%
G36*
X62985Y35051D02*
X62985Y35051D01*
X63128Y35957D01*
X63738Y37834D01*
X64634Y39593D01*
X65795Y41190D01*
X67190Y42585D01*
X68787Y43746D01*
X70546Y44642D01*
X72423Y45252D01*
X74373Y45561D01*
X84329Y45561D01*
X84329Y35051D01*
X62985Y35051D01*
G37*
%LPD*%
%LPC*%
G36*
X43339Y84581D02*
X43339Y84581D01*
X43339Y94537D01*
X43648Y96487D01*
X44258Y98364D01*
X45154Y100123D01*
X46315Y101720D01*
X47710Y103115D01*
X49307Y104276D01*
X51066Y105172D01*
X52943Y105782D01*
X53849Y105925D01*
X53849Y84581D01*
X43339Y84581D01*
G37*
%LPD*%
%LPC*%
G36*
X88391Y20479D02*
X88391Y20479D01*
X88391Y30989D01*
X109735Y30989D01*
X109592Y30083D01*
X108982Y28206D01*
X108086Y26447D01*
X106925Y24850D01*
X105530Y23455D01*
X103933Y22294D01*
X102174Y21398D01*
X100297Y20788D01*
X98347Y20479D01*
X88391Y20479D01*
G37*
%LPD*%
%LPC*%
G36*
X74373Y20479D02*
X74373Y20479D01*
X72423Y20788D01*
X70546Y21398D01*
X68787Y22294D01*
X67190Y23455D01*
X65795Y24850D01*
X64634Y26447D01*
X63738Y28206D01*
X63128Y30083D01*
X62985Y30989D01*
X84329Y30989D01*
X84329Y20479D01*
X74373Y20479D01*
G37*
%LPD*%
%LPC*%
G36*
X52943Y59318D02*
X52943Y59318D01*
X51066Y59928D01*
X49307Y60824D01*
X47710Y61985D01*
X46315Y63380D01*
X45154Y64977D01*
X44258Y66736D01*
X43648Y68613D01*
X43339Y70563D01*
X43339Y80519D01*
X53849Y80519D01*
X53849Y59175D01*
X52943Y59318D01*
G37*
%LPD*%
G36*
X319293Y248671D02*
X319293Y248671D01*
X319323Y248668D01*
X319434Y248691D01*
X319546Y248707D01*
X319573Y248719D01*
X319601Y248724D01*
X319702Y248776D01*
X319805Y248823D01*
X319828Y248842D01*
X319854Y248855D01*
X319936Y248933D01*
X320022Y249006D01*
X320039Y249031D01*
X320060Y249051D01*
X320117Y249149D01*
X320180Y249243D01*
X320189Y249271D01*
X320204Y249296D01*
X320231Y249406D01*
X320266Y249514D01*
X320266Y249544D01*
X320274Y249572D01*
X320270Y249685D01*
X320273Y249798D01*
X320266Y249827D01*
X320265Y249856D01*
X320230Y249964D01*
X320201Y250073D01*
X320186Y250099D01*
X320177Y250127D01*
X320132Y250190D01*
X320056Y250318D01*
X320010Y250361D01*
X319982Y250400D01*
X315721Y254661D01*
X315721Y259853D01*
X315704Y259973D01*
X315692Y260093D01*
X315684Y260114D01*
X315681Y260135D01*
X315632Y260245D01*
X315587Y260358D01*
X315575Y260373D01*
X315565Y260394D01*
X315382Y260611D01*
X315377Y260614D01*
X315375Y260617D01*
X313096Y262611D01*
X312858Y262767D01*
X312833Y262774D01*
X312816Y262785D01*
X312776Y262801D01*
X312086Y263491D01*
X312056Y263514D01*
X312037Y263538D01*
X311819Y263729D01*
X311704Y263804D01*
X311589Y263880D01*
X311584Y263882D01*
X311581Y263884D01*
X311449Y263925D01*
X311318Y263966D01*
X311313Y263966D01*
X311309Y263968D01*
X311170Y263970D01*
X311034Y263973D01*
X311029Y263972D01*
X311024Y263972D01*
X310890Y263936D01*
X310759Y263902D01*
X310755Y263899D01*
X310750Y263898D01*
X310631Y263826D01*
X310514Y263756D01*
X310511Y263753D01*
X310507Y263751D01*
X310414Y263649D01*
X310320Y263549D01*
X310318Y263545D01*
X310314Y263541D01*
X310253Y263419D01*
X310190Y263296D01*
X310190Y263292D01*
X310187Y263287D01*
X310136Y263008D01*
X310138Y262984D01*
X310135Y262965D01*
X310135Y261111D01*
X302006Y261111D01*
X301948Y261103D01*
X301890Y261105D01*
X301808Y261083D01*
X301725Y261071D01*
X301671Y261047D01*
X301615Y261033D01*
X301542Y260990D01*
X301465Y260955D01*
X301421Y260917D01*
X301370Y260887D01*
X301313Y260826D01*
X301248Y260771D01*
X301216Y260723D01*
X301176Y260680D01*
X301137Y260605D01*
X301091Y260535D01*
X301073Y260479D01*
X301046Y260427D01*
X301035Y260359D01*
X301005Y260264D01*
X301002Y260164D01*
X300991Y260096D01*
X300991Y258064D01*
X300998Y258017D01*
X300998Y258016D01*
X300998Y258014D01*
X300999Y258006D01*
X300998Y257948D01*
X301019Y257866D01*
X301031Y257783D01*
X301055Y257729D01*
X301069Y257673D01*
X301112Y257600D01*
X301147Y257523D01*
X301185Y257478D01*
X301215Y257428D01*
X301276Y257370D01*
X301331Y257306D01*
X301379Y257274D01*
X301422Y257234D01*
X301497Y257195D01*
X301567Y257149D01*
X301623Y257131D01*
X301675Y257104D01*
X301743Y257093D01*
X301838Y257063D01*
X301938Y257060D01*
X302006Y257049D01*
X310135Y257049D01*
X310135Y255292D01*
X305242Y250400D01*
X305225Y250376D01*
X305202Y250357D01*
X305140Y250263D01*
X305072Y250173D01*
X305061Y250145D01*
X305045Y250121D01*
X305011Y250013D01*
X304970Y249907D01*
X304968Y249878D01*
X304959Y249850D01*
X304956Y249736D01*
X304947Y249624D01*
X304953Y249595D01*
X304952Y249566D01*
X304980Y249456D01*
X305003Y249345D01*
X305016Y249319D01*
X305024Y249291D01*
X305081Y249193D01*
X305134Y249093D01*
X305154Y249071D01*
X305169Y249046D01*
X305251Y248969D01*
X305329Y248887D01*
X305355Y248872D01*
X305376Y248852D01*
X305477Y248800D01*
X305575Y248743D01*
X305603Y248736D01*
X305629Y248722D01*
X305707Y248709D01*
X305850Y248673D01*
X305913Y248675D01*
X305960Y248667D01*
X319264Y248667D01*
X319293Y248671D01*
G37*
G36*
X145375Y156363D02*
X145375Y156363D01*
X145404Y156362D01*
X145514Y156390D01*
X145625Y156413D01*
X145651Y156426D01*
X145679Y156434D01*
X145777Y156491D01*
X145877Y156544D01*
X145899Y156564D01*
X145924Y156579D01*
X146001Y156661D01*
X146083Y156739D01*
X146098Y156765D01*
X146118Y156786D01*
X146170Y156887D01*
X146227Y156985D01*
X146234Y157013D01*
X146248Y157039D01*
X146261Y157117D01*
X146297Y157260D01*
X146295Y157323D01*
X146303Y157370D01*
X146303Y170312D01*
X146298Y170351D01*
X146300Y170390D01*
X146278Y170491D01*
X146263Y170593D01*
X146247Y170629D01*
X146239Y170667D01*
X146190Y170758D01*
X146147Y170853D01*
X146122Y170883D01*
X146103Y170917D01*
X146030Y170991D01*
X145964Y171070D01*
X145931Y171091D01*
X145904Y171119D01*
X145813Y171170D01*
X145727Y171227D01*
X145690Y171239D01*
X145656Y171258D01*
X145555Y171282D01*
X145456Y171313D01*
X145417Y171314D01*
X145379Y171323D01*
X145275Y171318D01*
X145172Y171320D01*
X145134Y171311D01*
X145095Y171309D01*
X145022Y171281D01*
X144897Y171249D01*
X144833Y171211D01*
X144780Y171191D01*
X144731Y171162D01*
X144084Y170989D01*
X134249Y170989D01*
X134249Y176046D01*
X134241Y176104D01*
X134243Y176162D01*
X134221Y176244D01*
X134209Y176327D01*
X134186Y176381D01*
X134171Y176437D01*
X134128Y176510D01*
X134093Y176587D01*
X134055Y176631D01*
X134026Y176682D01*
X133964Y176739D01*
X133910Y176804D01*
X133861Y176836D01*
X133818Y176876D01*
X133743Y176915D01*
X133673Y176961D01*
X133617Y176979D01*
X133565Y177006D01*
X133497Y177017D01*
X133402Y177047D01*
X133302Y177050D01*
X133234Y177061D01*
X132266Y177061D01*
X132208Y177053D01*
X132150Y177054D01*
X132068Y177033D01*
X131984Y177021D01*
X131931Y176997D01*
X131875Y176983D01*
X131802Y176939D01*
X131725Y176905D01*
X131680Y176867D01*
X131630Y176837D01*
X131572Y176776D01*
X131508Y176721D01*
X131476Y176673D01*
X131436Y176630D01*
X131397Y176555D01*
X131350Y176485D01*
X131333Y176429D01*
X131306Y176377D01*
X131295Y176309D01*
X131265Y176214D01*
X131262Y176114D01*
X131251Y176046D01*
X131251Y170392D01*
X131263Y170306D01*
X131266Y170218D01*
X131283Y170166D01*
X131291Y170111D01*
X131326Y170031D01*
X131353Y169948D01*
X131381Y169909D01*
X131407Y169852D01*
X131503Y169738D01*
X131548Y169675D01*
X144570Y156652D01*
X144594Y156635D01*
X144613Y156612D01*
X144707Y156550D01*
X144797Y156482D01*
X144825Y156471D01*
X144849Y156455D01*
X144957Y156421D01*
X145063Y156380D01*
X145092Y156378D01*
X145120Y156369D01*
X145234Y156366D01*
X145346Y156357D01*
X145375Y156363D01*
G37*
%LPC*%
G36*
X97027Y137923D02*
X97027Y137923D01*
X107570Y137923D01*
X107570Y132127D01*
X107397Y131480D01*
X107062Y130901D01*
X106589Y130428D01*
X106010Y130093D01*
X105363Y129920D01*
X97027Y129920D01*
X97027Y137923D01*
G37*
%LPD*%
%LPC*%
G36*
X21589Y473455D02*
X21589Y473455D01*
X21589Y481585D01*
X24168Y481585D01*
X25747Y481335D01*
X27268Y480840D01*
X28693Y480114D01*
X29987Y479174D01*
X31118Y478043D01*
X32058Y476749D01*
X32784Y475324D01*
X33279Y473803D01*
X33334Y473455D01*
X21589Y473455D01*
G37*
%LPD*%
%LPC*%
G36*
X86613Y473455D02*
X86613Y473455D01*
X86613Y481585D01*
X89192Y481585D01*
X90771Y481335D01*
X92292Y480840D01*
X93717Y480114D01*
X95011Y479174D01*
X96142Y478043D01*
X97082Y476749D01*
X97808Y475324D01*
X98303Y473803D01*
X98358Y473455D01*
X86613Y473455D01*
G37*
%LPD*%
%LPC*%
G36*
X70806Y473455D02*
X70806Y473455D01*
X70861Y473803D01*
X71356Y475324D01*
X72082Y476749D01*
X73022Y478043D01*
X74153Y479174D01*
X75447Y480114D01*
X76872Y480840D01*
X78393Y481335D01*
X79972Y481585D01*
X82551Y481585D01*
X82551Y473455D01*
X70806Y473455D01*
G37*
%LPD*%
%LPC*%
G36*
X261781Y494279D02*
X261781Y494279D01*
X260260Y494774D01*
X258835Y495500D01*
X257541Y496440D01*
X256410Y497571D01*
X255470Y498865D01*
X254744Y500290D01*
X254249Y501811D01*
X253999Y503390D01*
X253999Y505969D01*
X262129Y505969D01*
X262129Y494224D01*
X261781Y494279D01*
G37*
%LPD*%
%LPC*%
G36*
X456691Y173481D02*
X456691Y173481D01*
X456691Y184457D01*
X456920Y184421D01*
X458365Y183952D01*
X459719Y183262D01*
X460948Y182369D01*
X462023Y181294D01*
X462916Y180065D01*
X463606Y178711D01*
X464075Y177266D01*
X464313Y175766D01*
X464313Y173481D01*
X456691Y173481D01*
G37*
%LPD*%
%LPC*%
G36*
X433831Y27431D02*
X433831Y27431D01*
X433831Y38407D01*
X434060Y38371D01*
X435505Y37902D01*
X436859Y37212D01*
X438088Y36319D01*
X439163Y35244D01*
X440056Y34015D01*
X440746Y32661D01*
X441215Y31216D01*
X441453Y29716D01*
X441453Y27431D01*
X433831Y27431D01*
G37*
%LPD*%
%LPC*%
G36*
X408431Y23369D02*
X408431Y23369D01*
X416053Y23369D01*
X416053Y21084D01*
X415815Y19584D01*
X415346Y18139D01*
X414656Y16785D01*
X413763Y15556D01*
X412688Y14481D01*
X411459Y13588D01*
X410105Y12898D01*
X408660Y12429D01*
X408431Y12393D01*
X408431Y23369D01*
G37*
%LPD*%
%LPC*%
G36*
X433831Y23369D02*
X433831Y23369D01*
X441453Y23369D01*
X441453Y21084D01*
X441215Y19584D01*
X440746Y18139D01*
X440056Y16785D01*
X439163Y15556D01*
X438088Y14481D01*
X436859Y13588D01*
X435505Y12898D01*
X434060Y12429D01*
X433831Y12393D01*
X433831Y23369D01*
G37*
%LPD*%
%LPC*%
G36*
X482091Y93219D02*
X482091Y93219D01*
X489713Y93219D01*
X489713Y90934D01*
X489475Y89434D01*
X489006Y87989D01*
X488316Y86635D01*
X487423Y85406D01*
X486348Y84331D01*
X485119Y83438D01*
X483765Y82748D01*
X482320Y82279D01*
X482091Y82243D01*
X482091Y93219D01*
G37*
%LPD*%
%LPC*%
G36*
X445007Y173481D02*
X445007Y173481D01*
X445007Y175766D01*
X445245Y177266D01*
X445714Y178711D01*
X446404Y180065D01*
X447297Y181294D01*
X448372Y182369D01*
X449601Y183262D01*
X450955Y183952D01*
X452400Y184421D01*
X452629Y184457D01*
X452629Y173481D01*
X445007Y173481D01*
G37*
%LPD*%
%LPC*%
G36*
X422147Y27431D02*
X422147Y27431D01*
X422147Y29716D01*
X422385Y31216D01*
X422854Y32661D01*
X423544Y34015D01*
X424437Y35244D01*
X425512Y36319D01*
X426741Y37212D01*
X428095Y37902D01*
X429540Y38371D01*
X429769Y38407D01*
X429769Y27431D01*
X422147Y27431D01*
G37*
%LPD*%
%LPC*%
G36*
X404140Y12429D02*
X404140Y12429D01*
X402695Y12898D01*
X401341Y13588D01*
X400112Y14481D01*
X399037Y15556D01*
X398144Y16785D01*
X397454Y18139D01*
X396985Y19584D01*
X396747Y21084D01*
X396747Y23369D01*
X404369Y23369D01*
X404369Y12393D01*
X404140Y12429D01*
G37*
%LPD*%
%LPC*%
G36*
X429540Y12429D02*
X429540Y12429D01*
X428095Y12898D01*
X426741Y13588D01*
X425512Y14481D01*
X424437Y15556D01*
X423544Y16785D01*
X422854Y18139D01*
X422385Y19584D01*
X422147Y21084D01*
X422147Y23369D01*
X429769Y23369D01*
X429769Y12393D01*
X429540Y12429D01*
G37*
%LPD*%
%LPC*%
G36*
X477800Y82279D02*
X477800Y82279D01*
X476355Y82748D01*
X475001Y83438D01*
X473772Y84331D01*
X472697Y85406D01*
X471804Y86635D01*
X471114Y87989D01*
X470645Y89434D01*
X470407Y90934D01*
X470407Y93219D01*
X478029Y93219D01*
X478029Y82243D01*
X477800Y82279D01*
G37*
%LPD*%
%LPC*%
G36*
X234441Y82041D02*
X234441Y82041D01*
X234441Y90552D01*
X236777Y90552D01*
X242952Y84377D01*
X242952Y82041D01*
X234441Y82041D01*
G37*
%LPD*%
%LPC*%
G36*
X234441Y201421D02*
X234441Y201421D01*
X234441Y209932D01*
X236777Y209932D01*
X242952Y203757D01*
X242952Y201421D01*
X234441Y201421D01*
G37*
%LPD*%
%LPC*%
G36*
X234441Y69468D02*
X234441Y69468D01*
X234441Y77979D01*
X242952Y77979D01*
X242952Y75643D01*
X236777Y69468D01*
X234441Y69468D01*
G37*
%LPD*%
%LPC*%
G36*
X221868Y82041D02*
X221868Y82041D01*
X221868Y84377D01*
X228043Y90552D01*
X230379Y90552D01*
X230379Y82041D01*
X221868Y82041D01*
G37*
%LPD*%
%LPC*%
G36*
X221868Y201421D02*
X221868Y201421D01*
X221868Y203757D01*
X228043Y209932D01*
X230379Y209932D01*
X230379Y201421D01*
X221868Y201421D01*
G37*
%LPD*%
%LPC*%
G36*
X234441Y129158D02*
X234441Y129158D01*
X234441Y137669D01*
X242952Y137669D01*
X242952Y135333D01*
X236777Y129158D01*
X234441Y129158D01*
G37*
%LPD*%
%LPC*%
G36*
X234441Y188848D02*
X234441Y188848D01*
X234441Y197359D01*
X242952Y197359D01*
X242952Y195023D01*
X236777Y188848D01*
X234441Y188848D01*
G37*
%LPD*%
%LPC*%
G36*
X228043Y129158D02*
X228043Y129158D01*
X221868Y135333D01*
X221868Y137669D01*
X230379Y137669D01*
X230379Y129158D01*
X228043Y129158D01*
G37*
%LPD*%
%LPC*%
G36*
X228043Y188848D02*
X228043Y188848D01*
X221868Y195023D01*
X221868Y197359D01*
X230379Y197359D01*
X230379Y188848D01*
X228043Y188848D01*
G37*
%LPD*%
%LPC*%
G36*
X228043Y69468D02*
X228043Y69468D01*
X221868Y75643D01*
X221868Y77979D01*
X230379Y77979D01*
X230379Y69468D01*
X228043Y69468D01*
G37*
%LPD*%
%LPC*%
G36*
X662431Y228091D02*
X662431Y228091D01*
X662431Y236351D01*
X664663Y236351D01*
X670691Y230323D01*
X670691Y228091D01*
X662431Y228091D01*
G37*
%LPD*%
%LPC*%
G36*
X662431Y224029D02*
X662431Y224029D01*
X670691Y224029D01*
X670691Y221797D01*
X664663Y215769D01*
X662431Y215769D01*
X662431Y224029D01*
G37*
%LPD*%
%LPC*%
G36*
X512571Y70611D02*
X512571Y70611D01*
X512571Y77725D01*
X514328Y77725D01*
X519685Y72368D01*
X519685Y70611D01*
X512571Y70611D01*
G37*
%LPD*%
%LPC*%
G36*
X189991Y68071D02*
X189991Y68071D01*
X189991Y75185D01*
X191748Y75185D01*
X197105Y69828D01*
X197105Y68071D01*
X189991Y68071D01*
G37*
%LPD*%
%LPC*%
G36*
X499871Y250951D02*
X499871Y250951D01*
X499871Y258065D01*
X501628Y258065D01*
X506985Y252708D01*
X506985Y250951D01*
X499871Y250951D01*
G37*
%LPD*%
%LPC*%
G36*
X132841Y384301D02*
X132841Y384301D01*
X132841Y391415D01*
X134598Y391415D01*
X139955Y386058D01*
X139955Y384301D01*
X132841Y384301D01*
G37*
%LPD*%
%LPC*%
G36*
X235711Y385571D02*
X235711Y385571D01*
X235711Y392685D01*
X237468Y392685D01*
X242825Y387328D01*
X242825Y385571D01*
X235711Y385571D01*
G37*
%LPD*%
%LPC*%
G36*
X389381Y70611D02*
X389381Y70611D01*
X389381Y77725D01*
X391138Y77725D01*
X396495Y72368D01*
X396495Y70611D01*
X389381Y70611D01*
G37*
%LPD*%
%LPC*%
G36*
X573531Y202691D02*
X573531Y202691D01*
X573531Y209805D01*
X575288Y209805D01*
X580645Y204448D01*
X580645Y202691D01*
X573531Y202691D01*
G37*
%LPD*%
%LPC*%
G36*
X525271Y200151D02*
X525271Y200151D01*
X525271Y207265D01*
X527028Y207265D01*
X532385Y201908D01*
X532385Y200151D01*
X525271Y200151D01*
G37*
%LPD*%
%LPC*%
G36*
X562355Y202691D02*
X562355Y202691D01*
X562355Y204448D01*
X567712Y209805D01*
X569469Y209805D01*
X569469Y202691D01*
X562355Y202691D01*
G37*
%LPD*%
%LPC*%
G36*
X501395Y70611D02*
X501395Y70611D01*
X501395Y72368D01*
X506752Y77725D01*
X508509Y77725D01*
X508509Y70611D01*
X501395Y70611D01*
G37*
%LPD*%
%LPC*%
G36*
X470915Y200151D02*
X470915Y200151D01*
X470915Y201908D01*
X476272Y207265D01*
X478029Y207265D01*
X478029Y200151D01*
X470915Y200151D01*
G37*
%LPD*%
%LPC*%
G36*
X378205Y70611D02*
X378205Y70611D01*
X378205Y72368D01*
X383562Y77725D01*
X385319Y77725D01*
X385319Y70611D01*
X378205Y70611D01*
G37*
%LPD*%
%LPC*%
G36*
X224535Y385571D02*
X224535Y385571D01*
X224535Y387328D01*
X229892Y392685D01*
X231649Y392685D01*
X231649Y385571D01*
X224535Y385571D01*
G37*
%LPD*%
%LPC*%
G36*
X235711Y374395D02*
X235711Y374395D01*
X235711Y381509D01*
X242825Y381509D01*
X242825Y379752D01*
X237468Y374395D01*
X235711Y374395D01*
G37*
%LPD*%
%LPC*%
G36*
X263905Y399541D02*
X263905Y399541D01*
X263905Y401298D01*
X269262Y406655D01*
X271019Y406655D01*
X271019Y399541D01*
X263905Y399541D01*
G37*
%LPD*%
%LPC*%
G36*
X488695Y250951D02*
X488695Y250951D01*
X488695Y252708D01*
X494052Y258065D01*
X495809Y258065D01*
X495809Y250951D01*
X488695Y250951D01*
G37*
%LPD*%
%LPC*%
G36*
X514095Y200151D02*
X514095Y200151D01*
X514095Y201908D01*
X519452Y207265D01*
X521209Y207265D01*
X521209Y200151D01*
X514095Y200151D01*
G37*
%LPD*%
%LPC*%
G36*
X189991Y56895D02*
X189991Y56895D01*
X189991Y64009D01*
X197105Y64009D01*
X197105Y62252D01*
X191748Y56895D01*
X189991Y56895D01*
G37*
%LPD*%
%LPC*%
G36*
X389381Y59435D02*
X389381Y59435D01*
X389381Y66549D01*
X396495Y66549D01*
X396495Y64792D01*
X391138Y59435D01*
X389381Y59435D01*
G37*
%LPD*%
%LPC*%
G36*
X512571Y59435D02*
X512571Y59435D01*
X512571Y66549D01*
X519685Y66549D01*
X519685Y64792D01*
X514328Y59435D01*
X512571Y59435D01*
G37*
%LPD*%
%LPC*%
G36*
X573531Y191515D02*
X573531Y191515D01*
X573531Y198629D01*
X580645Y198629D01*
X580645Y196872D01*
X575288Y191515D01*
X573531Y191515D01*
G37*
%LPD*%
%LPC*%
G36*
X525271Y188975D02*
X525271Y188975D01*
X525271Y196089D01*
X532385Y196089D01*
X532385Y194332D01*
X527028Y188975D01*
X525271Y188975D01*
G37*
%LPD*%
%LPC*%
G36*
X178815Y68071D02*
X178815Y68071D01*
X178815Y69828D01*
X184172Y75185D01*
X185929Y75185D01*
X185929Y68071D01*
X178815Y68071D01*
G37*
%LPD*%
%LPC*%
G36*
X519452Y188975D02*
X519452Y188975D01*
X514095Y194332D01*
X514095Y196089D01*
X521209Y196089D01*
X521209Y188975D01*
X519452Y188975D01*
G37*
%LPD*%
%LPC*%
G36*
X494052Y239775D02*
X494052Y239775D01*
X488695Y245132D01*
X488695Y246889D01*
X495809Y246889D01*
X495809Y239775D01*
X494052Y239775D01*
G37*
%LPD*%
%LPC*%
G36*
X184172Y56895D02*
X184172Y56895D01*
X178815Y62252D01*
X178815Y64009D01*
X185929Y64009D01*
X185929Y56895D01*
X184172Y56895D01*
G37*
%LPD*%
%LPC*%
G36*
X269262Y388365D02*
X269262Y388365D01*
X263905Y393722D01*
X263905Y395479D01*
X271019Y395479D01*
X271019Y388365D01*
X269262Y388365D01*
G37*
%LPD*%
%LPC*%
G36*
X567712Y191515D02*
X567712Y191515D01*
X562355Y196872D01*
X562355Y198629D01*
X569469Y198629D01*
X569469Y191515D01*
X567712Y191515D01*
G37*
%LPD*%
%LPC*%
G36*
X229892Y374395D02*
X229892Y374395D01*
X224535Y379752D01*
X224535Y381509D01*
X231649Y381509D01*
X231649Y374395D01*
X229892Y374395D01*
G37*
%LPD*%
%LPC*%
G36*
X506752Y59435D02*
X506752Y59435D01*
X501395Y64792D01*
X501395Y66549D01*
X508509Y66549D01*
X508509Y59435D01*
X506752Y59435D01*
G37*
%LPD*%
%LPC*%
G36*
X226377Y361277D02*
X226377Y361277D01*
X226377Y369851D01*
X228299Y369851D01*
X228946Y369678D01*
X229525Y369343D01*
X229998Y368870D01*
X230333Y368291D01*
X230506Y367644D01*
X230506Y361277D01*
X226377Y361277D01*
G37*
%LPD*%
%LPC*%
G36*
X431799Y25399D02*
X431799Y25399D01*
X431799Y25401D01*
X431801Y25401D01*
X431801Y25399D01*
X431799Y25399D01*
G37*
%LPD*%
%LPC*%
G36*
X571499Y200659D02*
X571499Y200659D01*
X571499Y200661D01*
X571501Y200661D01*
X571501Y200659D01*
X571499Y200659D01*
G37*
%LPD*%
%LPC*%
G36*
X232409Y199389D02*
X232409Y199389D01*
X232409Y199391D01*
X232411Y199391D01*
X232411Y199389D01*
X232409Y199389D01*
G37*
%LPD*%
%LPC*%
G36*
X232409Y80009D02*
X232409Y80009D01*
X232409Y80011D01*
X232411Y80011D01*
X232411Y80009D01*
X232409Y80009D01*
G37*
%LPD*%
%LPC*%
G36*
X523239Y198119D02*
X523239Y198119D01*
X523239Y198121D01*
X523241Y198121D01*
X523241Y198119D01*
X523239Y198119D01*
G37*
%LPD*%
%LPC*%
G36*
X233679Y383539D02*
X233679Y383539D01*
X233679Y383541D01*
X233681Y383541D01*
X233681Y383539D01*
X233679Y383539D01*
G37*
%LPD*%
%LPC*%
G36*
X497839Y248919D02*
X497839Y248919D01*
X497839Y248921D01*
X497841Y248921D01*
X497841Y248919D01*
X497839Y248919D01*
G37*
%LPD*%
%LPC*%
G36*
X187959Y66039D02*
X187959Y66039D01*
X187959Y66041D01*
X187961Y66041D01*
X187961Y66039D01*
X187959Y66039D01*
G37*
%LPD*%
%LPC*%
G36*
X387349Y68579D02*
X387349Y68579D01*
X387349Y68581D01*
X387351Y68581D01*
X387351Y68579D01*
X387349Y68579D01*
G37*
%LPD*%
%LPC*%
G36*
X510539Y68579D02*
X510539Y68579D01*
X510539Y68581D01*
X510541Y68581D01*
X510541Y68579D01*
X510539Y68579D01*
G37*
%LPD*%
%LPC*%
G36*
X86359Y33019D02*
X86359Y33019D01*
X86359Y33021D01*
X86361Y33021D01*
X86361Y33019D01*
X86359Y33019D01*
G37*
%LPD*%
%LPC*%
G36*
X55879Y82549D02*
X55879Y82549D01*
X55879Y82551D01*
X55881Y82551D01*
X55881Y82549D01*
X55879Y82549D01*
G37*
%LPD*%
D10*
X632460Y175006D02*
X632460Y167894D01*
X607060Y167894D02*
X607060Y175006D01*
X581660Y175006D02*
X581660Y167894D01*
X556260Y167894D02*
X556260Y175006D01*
X530860Y175006D02*
X530860Y167894D01*
X505460Y167894D02*
X505460Y175006D01*
X480060Y175006D02*
X480060Y167894D01*
X454660Y167894D02*
X454660Y175006D01*
X429260Y175006D02*
X429260Y167894D01*
X403860Y167894D02*
X403860Y175006D01*
X378460Y175006D02*
X378460Y167894D01*
X353060Y167894D02*
X353060Y175006D01*
X327660Y175006D02*
X327660Y167894D01*
X302260Y167894D02*
X302260Y175006D01*
X302260Y98806D02*
X302260Y91694D01*
X327660Y91694D02*
X327660Y98806D01*
X353060Y98806D02*
X353060Y91694D01*
X378460Y91694D02*
X378460Y98806D01*
X403860Y98806D02*
X403860Y91694D01*
X429260Y91694D02*
X429260Y98806D01*
X454660Y98806D02*
X454660Y91694D01*
X480060Y91694D02*
X480060Y98806D01*
X505460Y98806D02*
X505460Y91694D01*
X530860Y91694D02*
X530860Y98806D01*
X556260Y98806D02*
X556260Y91694D01*
X581660Y91694D02*
X581660Y98806D01*
X607060Y98806D02*
X607060Y91694D01*
X632460Y91694D02*
X632460Y98806D01*
D11*
X635000Y276860D03*
X660400Y276860D03*
X635000Y251460D03*
X660400Y251460D03*
X635000Y226060D03*
X660400Y226060D03*
D10*
X635000Y504444D02*
X635000Y511556D01*
X609600Y511556D02*
X609600Y504444D01*
X584200Y504444D02*
X584200Y511556D01*
X558800Y511556D02*
X558800Y504444D01*
X533400Y504444D02*
X533400Y511556D01*
X508000Y511556D02*
X508000Y504444D01*
X482600Y504444D02*
X482600Y511556D01*
X457200Y511556D02*
X457200Y504444D01*
D12*
X416560Y504190D02*
X416560Y511810D01*
X391160Y511810D02*
X391160Y504190D01*
X365760Y504190D02*
X365760Y511810D01*
X340360Y511810D02*
X340360Y504190D01*
X314960Y504190D02*
X314960Y511810D01*
X289560Y511810D02*
X289560Y504190D01*
X264160Y504190D02*
X264160Y511810D01*
X238760Y511810D02*
X238760Y504190D01*
X213360Y504190D02*
X213360Y511810D01*
X187960Y511810D02*
X187960Y504190D01*
D10*
X508000Y28956D02*
X508000Y21844D01*
X533400Y21844D02*
X533400Y28956D01*
X558800Y28956D02*
X558800Y21844D01*
X584200Y21844D02*
X584200Y28956D01*
X609600Y28956D02*
X609600Y21844D01*
X635000Y21844D02*
X635000Y28956D01*
D13*
X232410Y80010D03*
D14*
X232410Y54610D03*
D13*
X232410Y139700D03*
D14*
X232410Y114300D03*
D15*
X326390Y259080D03*
X300990Y259080D03*
X326390Y306070D03*
X300990Y306070D03*
X326390Y353060D03*
X300990Y353060D03*
X510540Y68580D03*
X459740Y68580D03*
D16*
X182880Y383540D03*
X233680Y383540D03*
D15*
X326390Y210820D03*
X300990Y210820D03*
D17*
X148844Y241300D03*
X168148Y241300D03*
X158496Y261620D03*
D18*
X497840Y248920D03*
X497840Y198120D03*
D16*
X544830Y274320D03*
X595630Y274320D03*
X387350Y68580D03*
X438150Y68580D03*
D12*
X23368Y516636D02*
X15748Y516636D01*
X15748Y471424D02*
X23368Y471424D01*
X80772Y516636D02*
X88392Y516636D01*
X88392Y471424D02*
X80772Y471424D01*
D10*
X279400Y28956D02*
X279400Y21844D01*
X304800Y21844D02*
X304800Y28956D01*
X330200Y28956D02*
X330200Y21844D01*
X355600Y21844D02*
X355600Y28956D01*
X381000Y28956D02*
X381000Y21844D01*
X406400Y21844D02*
X406400Y28956D01*
X431800Y28956D02*
X431800Y21844D01*
X457200Y21844D02*
X457200Y28956D01*
D19*
X132750Y201930D03*
X184750Y201930D03*
X132750Y214630D03*
X132750Y189230D03*
X132750Y176530D03*
X184750Y214630D03*
X184750Y189230D03*
X184750Y176530D03*
D20*
X94996Y139954D03*
X94996Y162814D03*
X94996Y185674D03*
D21*
X32004Y162560D03*
D20*
X94996Y254254D03*
X94996Y277114D03*
X94996Y299974D03*
D21*
X32004Y276860D03*
D22*
X25880Y345390D03*
X25880Y434390D03*
D23*
X84880Y345390D03*
X84880Y434390D03*
D24*
X85880Y405890D03*
X85880Y397890D03*
X85880Y389890D03*
X85880Y381890D03*
X85880Y373890D03*
D25*
X454660Y236220D03*
X406400Y236220D03*
D26*
X212090Y359690D03*
X186690Y305790D03*
X224790Y359690D03*
X199390Y359690D03*
X186690Y359690D03*
X199390Y305790D03*
X173990Y305790D03*
X161290Y305790D03*
X161290Y359690D03*
X135890Y305790D03*
X173990Y359690D03*
X148590Y359690D03*
X148590Y305790D03*
X135890Y359690D03*
X212090Y305790D03*
X224790Y305790D03*
D16*
X359410Y198120D03*
X410210Y198120D03*
D15*
X480060Y198120D03*
X429260Y198120D03*
D25*
X177800Y424180D03*
X226060Y424180D03*
D12*
X603250Y238760D02*
X603250Y231140D01*
X577850Y231140D02*
X577850Y238760D01*
D27*
X254000Y25400D03*
X177800Y25400D03*
D13*
X232410Y199390D03*
D14*
X232410Y173990D03*
D18*
X157480Y142240D03*
X157480Y66040D03*
D28*
X187960Y66040D03*
X187960Y142240D03*
D16*
X205740Y255270D03*
X281940Y255270D03*
D15*
X281940Y228600D03*
X205740Y228600D03*
D18*
X273050Y448310D03*
X273050Y397510D03*
X130810Y433070D03*
X130810Y382270D03*
D28*
X302260Y383540D03*
X302260Y459740D03*
X327660Y383540D03*
X327660Y459740D03*
D18*
X247650Y358140D03*
X247650Y281940D03*
X274320Y358140D03*
X274320Y281940D03*
X523240Y274320D03*
X523240Y198120D03*
D29*
X157480Y276860D03*
X182880Y233680D03*
X134620Y233680D03*
D30*
X55880Y93550D02*
X55880Y71550D01*
X118110Y69050D02*
X118110Y96050D01*
X97360Y33020D02*
X75360Y33020D01*
D15*
X647700Y200660D03*
X571500Y200660D03*
D31*
X175768Y233680D02*
X168148Y241300D01*
X175768Y233680D02*
X182880Y233680D01*
D32*
X114300Y162814D02*
X94996Y162814D01*
X114300Y162814D02*
X125476Y162814D01*
X142240Y146050D01*
X151130Y127000D02*
X204470Y127000D01*
X151130Y127000D02*
X142240Y135890D01*
X142240Y146050D01*
D31*
X182880Y216500D02*
X182880Y233680D01*
X182880Y216500D02*
X184750Y214630D01*
D32*
X204470Y151130D02*
X204470Y127000D01*
X204470Y151130D02*
X196850Y158750D01*
X173990Y158750D01*
X163830Y168910D01*
X163830Y220980D01*
X171450Y228600D01*
X177800Y228600D01*
X182880Y233680D01*
X85344Y299974D02*
X74930Y289560D01*
X74930Y212090D01*
X83820Y203200D01*
X106680Y203200D01*
X114300Y195580D01*
X114300Y162814D01*
X427990Y93980D02*
X429260Y95250D01*
D31*
X205740Y255270D02*
X204470Y255270D01*
X182880Y233680D01*
D32*
X217170Y114300D02*
X232410Y114300D01*
X217170Y114300D02*
X204470Y127000D01*
X94996Y299974D02*
X85344Y299974D01*
X480060Y176530D02*
X480060Y171450D01*
X497840Y194310D02*
X497840Y198120D01*
X497840Y194310D02*
X480060Y176530D01*
D33*
X660400Y304800D03*
X635000Y304800D03*
D32*
X304800Y35560D02*
X304800Y25400D01*
X304800Y35560D02*
X312420Y43180D01*
X368300Y43180D01*
X381000Y30480D02*
X381000Y25400D01*
X381000Y30480D02*
X368300Y43180D01*
X497840Y198120D02*
X497840Y222250D01*
X635000Y304800D02*
X660400Y304800D01*
X660400Y288290D01*
X660400Y276860D01*
D34*
X660400Y288290D02*
X658492Y290198D01*
X621030Y281940D02*
X621030Y278130D01*
X636270Y290198D02*
X658492Y290198D01*
X636270Y290198D02*
X629288Y290198D01*
X621030Y281940D01*
D32*
X603250Y261620D02*
X595630Y254000D01*
D34*
X603250Y261620D02*
X619760Y278130D01*
X621030Y278130D01*
D32*
X529590Y254000D02*
X497840Y222250D01*
X529590Y254000D02*
X595630Y254000D01*
D34*
X635000Y291468D02*
X636270Y290198D01*
X635000Y291468D02*
X635000Y304800D01*
D31*
X109220Y360680D02*
X102870Y367030D01*
D35*
X109220Y360680D03*
X109220Y353060D03*
D31*
X109220Y345440D01*
D35*
X109220Y345440D03*
X109220Y337820D03*
D31*
X109220Y344170D01*
D32*
X111506Y139954D02*
X94996Y139954D01*
X111506Y139954D02*
X111760Y137160D01*
D35*
X111760Y137160D03*
X121920Y137160D03*
D32*
X111760Y147320D01*
D35*
X111760Y147320D03*
X121920Y147320D03*
D32*
X111760Y147320D01*
D35*
X140970Y166370D03*
X90170Y236220D03*
X102870Y236220D03*
X90170Y223520D03*
X102870Y223520D03*
X33020Y218440D03*
X34290Y316230D03*
X200660Y274320D03*
X247650Y302260D03*
X187960Y334010D03*
X139700Y323850D03*
X124460Y248920D03*
X232410Y241300D03*
X151130Y195580D03*
D31*
X101980Y381890D02*
X85880Y381890D01*
X101980Y381890D02*
X102870Y381000D01*
X102870Y373380D01*
X102870Y367030D01*
X102360Y373890D02*
X85880Y373890D01*
X102360Y373890D02*
X102870Y373380D01*
X109220Y360680D02*
X109220Y353060D01*
D33*
X355600Y457200D03*
X355600Y431800D03*
D36*
X420370Y58420D03*
X482600Y24130D03*
X596900Y59690D03*
X621030Y59690D03*
X619760Y113030D03*
X342900Y72390D03*
D31*
X276860Y516890D02*
X269240Y524510D01*
X251460Y524510D01*
X240030Y513080D01*
X240030Y509270D01*
X238760Y508000D01*
D34*
X459740Y90170D02*
X459740Y68580D01*
X459740Y90170D02*
X454660Y95250D01*
D36*
X276860Y468630D03*
D31*
X276860Y516890D01*
X632460Y171450D02*
X632460Y165100D01*
X582647Y139700D02*
X573899Y130951D01*
X582647Y139700D02*
X607060Y139700D01*
X632460Y165100D01*
D36*
X391160Y130810D03*
D31*
X391301Y130951D02*
X573899Y130951D01*
X391301Y130951D02*
X391160Y130810D01*
X199390Y350520D02*
X199390Y359690D01*
X199390Y350520D02*
X213360Y336550D01*
X261620Y336550D01*
X274320Y349250D01*
X274320Y358140D01*
X261620Y251460D02*
X261620Y157480D01*
X288290Y499110D02*
X287020Y500380D01*
X287020Y505460D01*
X289560Y508000D01*
X288290Y381000D02*
X313690Y355600D01*
X288290Y381000D02*
X288290Y499110D01*
X313690Y303530D02*
X261620Y251460D01*
X313690Y303530D02*
X313690Y355600D01*
X635000Y251460D02*
X647700Y238760D01*
X647700Y218440D01*
X195580Y176530D02*
X184750Y176530D01*
X195580Y176530D02*
X214630Y157480D01*
X261620Y157480D01*
X261620Y140970D01*
X291161Y111429D01*
X579120Y114300D02*
X589280Y124460D01*
X615950Y124460D02*
X652145Y160655D01*
X615950Y124460D02*
X589280Y124460D01*
X402590Y114300D02*
X402590Y96520D01*
X403860Y95250D01*
X402590Y114300D02*
X579120Y114300D01*
X402590Y114300D02*
X361950Y114300D01*
X359079Y111429D01*
X291161Y111429D01*
X652145Y160655D02*
X652145Y180975D01*
X636270Y196850D01*
X636270Y207010D01*
X647700Y218440D01*
X326390Y259080D02*
X316230Y267970D01*
X281940Y256540D02*
X281940Y255270D01*
X281940Y256540D02*
X295910Y270510D01*
X313690Y270510D01*
X316230Y267970D01*
D32*
X119380Y82550D02*
X151130Y50800D01*
X154940Y50800D01*
X177800Y27940D01*
X177800Y25400D01*
X119380Y82550D02*
X118110Y82550D01*
X110236Y277114D02*
X94996Y277114D01*
X110236Y277114D02*
X110490Y276860D01*
D35*
X110490Y276860D03*
X119380Y276860D03*
D32*
X110490Y276860D01*
D31*
X121920Y201930D02*
X132750Y201930D01*
X121920Y201930D02*
X115570Y208280D01*
X115570Y266700D01*
X115570Y273050D01*
X119380Y276860D01*
D32*
X110490Y276860D02*
X110490Y266700D01*
D36*
X110490Y266700D03*
X119380Y266700D03*
D32*
X115570Y266700D01*
D31*
X632460Y276860D02*
X635000Y276860D01*
X632460Y276860D02*
X615950Y260350D01*
X615950Y186690D02*
X619760Y182880D01*
X340360Y468630D02*
X314960Y494030D01*
X314960Y508000D01*
X340360Y368300D02*
X346710Y361950D01*
X346710Y254000D01*
X307340Y234950D02*
X278130Y205740D01*
X340360Y368300D02*
X340360Y468630D01*
X278130Y205740D02*
X278130Y144780D01*
X297180Y125730D01*
X334010Y125730D01*
X347980Y139700D01*
X377190Y139700D01*
D36*
X377190Y139700D03*
D31*
X602589Y147320D02*
X619760Y164491D01*
X602589Y147320D02*
X579120Y147320D01*
X619760Y164491D02*
X619760Y182880D01*
X571500Y139700D02*
X377190Y139700D01*
X571500Y139700D02*
X579120Y147320D01*
X346710Y254000D02*
X327660Y234950D01*
X307340Y234950D01*
X615950Y260350D02*
X615950Y186690D01*
X660400Y251460D02*
X647700Y264160D01*
X628650Y264160D02*
X622300Y257810D01*
X622300Y220980D01*
X279400Y242570D02*
X269240Y232410D01*
X279400Y242570D02*
X325120Y242570D01*
X337820Y255270D01*
X337820Y358140D01*
X314960Y381000D01*
X314960Y480060D01*
X302260Y492760D01*
X302260Y516185D01*
X340360Y510540D02*
X340360Y508000D01*
X310331Y524256D02*
X302260Y516185D01*
X310331Y524256D02*
X326644Y524256D01*
X340360Y510540D01*
X269240Y232410D02*
X269240Y143510D01*
X293370Y119380D01*
X353060Y119380D01*
D36*
X353060Y119380D03*
D31*
X575310Y121920D02*
X585470Y132080D01*
X612749Y132080D02*
X645160Y164491D01*
X612749Y132080D02*
X585470Y132080D01*
X575310Y121920D02*
X355600Y121920D01*
X353060Y119380D01*
X645160Y164491D02*
X645160Y178409D01*
X629589Y193979D01*
X629589Y213691D01*
X622300Y220980D01*
X628650Y264160D02*
X647700Y264160D01*
X368300Y505460D02*
X365760Y508000D01*
X368300Y505460D02*
X368300Y369570D01*
X293370Y193040D02*
X284480Y184150D01*
X355600Y252730D02*
X355600Y356870D01*
X368300Y369570D01*
X284480Y184150D02*
X284480Y148590D01*
X299720Y133350D01*
X327660Y133350D01*
D36*
X327660Y133350D03*
D31*
X299720Y193040D02*
X293370Y193040D01*
X313690Y207010D02*
X313690Y215900D01*
X325120Y227330D01*
X330200Y227330D02*
X355600Y252730D01*
X313690Y207010D02*
X299720Y193040D01*
X325120Y227330D02*
X330200Y227330D01*
X266700Y318770D02*
X190500Y318770D01*
X186690Y314960D01*
X186690Y305790D01*
X266700Y318770D02*
X278130Y307340D01*
D35*
X278130Y307340D03*
D31*
X148844Y241300D02*
X141224Y233680D01*
X134620Y233680D01*
X134620Y216500D01*
X132750Y214630D01*
X157480Y142240D02*
X187960Y142240D01*
X143510Y189230D02*
X132750Y189230D01*
X143510Y189230D02*
X152400Y180340D01*
X152400Y147320D01*
X157480Y142240D01*
X224790Y297180D02*
X224790Y305790D01*
X158496Y275844D02*
X158496Y261620D01*
X158496Y275844D02*
X157480Y276860D01*
X85880Y405890D02*
X86390Y406400D01*
X114300Y406400D01*
D32*
X115570Y406400D01*
D35*
X133350Y406400D03*
D32*
X124460Y406400D02*
X115570Y406400D01*
X124460Y406400D02*
X133350Y406400D01*
D35*
X124460Y406400D03*
X115570Y406400D03*
D31*
X174752Y292100D02*
X158496Y275844D01*
X174752Y292100D02*
X219710Y292100D01*
X224790Y297180D01*
X148590Y359690D02*
X148590Y368300D01*
X204470Y424180D01*
X226060Y424180D01*
X135890Y367030D02*
X135890Y359690D01*
X135890Y367030D02*
X177800Y408940D01*
D37*
X168910Y433070D02*
X130810Y433070D01*
X168910Y433070D02*
X177800Y424180D01*
D31*
X177800Y408940D01*
X505460Y95250D02*
X506730Y95250D01*
X556260Y27940D02*
X558800Y25400D01*
X581660Y27940D02*
X584200Y25400D01*
X213360Y491490D02*
X213360Y508000D01*
X213360Y491490D02*
X223520Y481330D01*
D36*
X223520Y481330D03*
D31*
X632460Y95250D02*
X636270Y99060D01*
X571500Y481330D02*
X584200Y494030D01*
X584200Y508000D01*
X556260Y176530D02*
X556260Y171450D01*
D36*
X563880Y285750D03*
D31*
X571500Y293370D01*
X571500Y481330D01*
X596900Y480060D02*
X609600Y492760D01*
X581660Y179070D02*
X581660Y171450D01*
X609600Y492760D02*
X609600Y508000D01*
X581660Y171450D02*
X580390Y171450D01*
X565150Y156210D01*
D36*
X340360Y156210D03*
D31*
X565150Y156210D01*
D36*
X581660Y288290D03*
D31*
X585470Y292100D01*
X594360Y292100D01*
X596900Y294640D01*
X596900Y480060D01*
X635000Y494030D02*
X635000Y508000D01*
X635000Y494030D02*
X622300Y481330D01*
X607060Y171450D02*
X604520Y171450D01*
D36*
X318770Y148590D03*
D31*
X575310Y154940D02*
X595630Y154940D01*
X607060Y166370D01*
X607060Y171450D01*
X568960Y148590D02*
X318770Y148590D01*
X568960Y148590D02*
X575310Y154940D01*
D36*
X605790Y281940D03*
D31*
X605790Y283210D01*
X610870Y283210D01*
X622300Y294640D02*
X622300Y481330D01*
X622300Y294640D02*
X610870Y283210D01*
X546100Y481330D02*
X558800Y494030D01*
X558800Y508000D01*
X546100Y481330D02*
X546100Y293370D01*
D36*
X534670Y264160D03*
D31*
X549910Y264160D01*
X554990Y269240D01*
X554990Y284480D01*
X546100Y293370D01*
X520700Y290830D02*
X520700Y481330D01*
X533400Y494030D01*
X533400Y508000D01*
X520700Y290830D02*
X510540Y280670D01*
D36*
X510540Y273050D03*
D31*
X510540Y280670D01*
X495300Y294640D02*
X495300Y481330D01*
X508000Y494030D01*
X508000Y508000D01*
X394970Y187960D02*
X378460Y171450D01*
X394970Y187960D02*
X394970Y247650D01*
X466725Y266065D02*
X495300Y294640D01*
X413385Y266065D02*
X394970Y247650D01*
X413385Y266065D02*
X466725Y266065D01*
X469900Y294640D02*
X469900Y480060D01*
X482600Y492760D01*
X482600Y508000D01*
X353060Y173990D02*
X353060Y171450D01*
X353060Y173990D02*
X353060Y175260D01*
X387350Y251460D02*
X410210Y274320D01*
X449580Y274320D01*
X387350Y251460D02*
X387350Y200377D01*
X449580Y274320D02*
X469900Y294640D01*
X360963Y173990D02*
X353060Y173990D01*
X360963Y173990D02*
X387350Y200377D01*
X444500Y294640D02*
X444500Y482600D01*
X457200Y495300D01*
X457200Y508000D01*
X330200Y171450D02*
X327660Y171450D01*
X330200Y171450D02*
X330200Y172720D01*
X379730Y242570D02*
X379730Y255270D01*
X407670Y283210D01*
X433070Y283210D01*
X444500Y294640D01*
X343204Y186994D02*
X327660Y171450D01*
X363524Y186994D02*
X373380Y196850D01*
X373380Y236220D01*
X379730Y242570D01*
X363524Y186994D02*
X343204Y186994D01*
X306070Y171450D02*
X302260Y171450D01*
X419100Y290830D02*
X419100Y505460D01*
X416560Y508000D01*
X322580Y187960D02*
X306070Y171450D01*
X322580Y187960D02*
X334010Y187960D01*
X345440Y199390D01*
X372110Y246380D02*
X372110Y259080D01*
X403860Y290830D01*
X419100Y290830D01*
X345440Y219710D02*
X345440Y199390D01*
X345440Y219710D02*
X372110Y246380D01*
X393700Y505460D02*
X391160Y508000D01*
X302260Y95250D02*
X300990Y95250D01*
X393700Y293370D02*
X393700Y505460D01*
X364490Y264160D02*
X364490Y250190D01*
X297180Y186690D02*
X290830Y180340D01*
X297180Y186690D02*
X311150Y186690D01*
X320040Y195580D01*
X330200Y195580D01*
X337820Y203200D01*
X364490Y264160D02*
X393700Y293370D01*
X290830Y152400D02*
X302260Y140970D01*
D36*
X302260Y140970D03*
D31*
X290830Y152400D02*
X290830Y180340D01*
X337820Y223520D02*
X364490Y250190D01*
X337820Y223520D02*
X337820Y203200D01*
X198120Y189230D02*
X184750Y189230D01*
X198120Y189230D02*
X199390Y190500D01*
X199390Y201930D01*
X184750Y201930D01*
X205740Y208280D02*
X205740Y228600D01*
X205740Y208280D02*
X199390Y201930D01*
X161290Y350520D02*
X161290Y359690D01*
X161290Y350520D02*
X156210Y345440D01*
X130810Y345440D01*
X127000Y349250D01*
X127000Y367030D01*
X118110Y375920D01*
X118110Y388620D01*
X109220Y397510D01*
X86260Y397510D01*
X85880Y397890D01*
X85880Y389890D02*
X105410Y389890D01*
X110490Y384810D01*
X110490Y372110D01*
X119380Y363220D01*
X119380Y345440D01*
X127000Y337820D01*
X161290Y337820D01*
X173990Y350520D01*
X173990Y359690D01*
X186690Y359690D02*
X186690Y379730D01*
X182880Y383540D01*
X403860Y171450D02*
X410210Y177800D01*
X410210Y198120D01*
X406400Y201930D01*
X406400Y236220D01*
X429260Y195580D02*
X429260Y171450D01*
X429260Y195580D02*
X429260Y198120D01*
X429260Y210820D01*
X454660Y236220D01*
X429260Y198120D02*
X429260Y198120D01*
D33*
X381000Y431800D03*
X406400Y431800D03*
X431800Y431800D03*
X457200Y431800D03*
X482600Y431800D03*
X508000Y431800D03*
X533400Y431800D03*
X558800Y431800D03*
X584200Y431800D03*
X406400Y457200D03*
X431800Y457200D03*
X457200Y457200D03*
X482600Y457200D03*
X508000Y457200D03*
X533400Y457200D03*
X558800Y457200D03*
X584200Y457200D03*
X355600Y406400D03*
X381000Y406400D03*
X406400Y406400D03*
X431800Y406400D03*
X457200Y406400D03*
X482600Y406400D03*
X508000Y406400D03*
X533400Y406400D03*
X558800Y406400D03*
X584200Y406400D03*
X609600Y406400D03*
X635000Y406400D03*
X355600Y381000D03*
X381000Y381000D03*
X406400Y381000D03*
X431800Y381000D03*
X457200Y381000D03*
X482600Y381000D03*
X508000Y381000D03*
X533400Y381000D03*
X558800Y381000D03*
X584200Y381000D03*
X609600Y381000D03*
X635000Y381000D03*
X381000Y355600D03*
X406400Y355600D03*
X431800Y355600D03*
X457200Y355600D03*
X482600Y355600D03*
X508000Y355600D03*
X533400Y355600D03*
X558800Y355600D03*
X584200Y355600D03*
X609600Y355600D03*
X635000Y355600D03*
X381000Y330200D03*
X406400Y330200D03*
X431800Y330200D03*
X457200Y330200D03*
X482600Y330200D03*
X508000Y330200D03*
X533400Y330200D03*
X558800Y330200D03*
X584200Y330200D03*
X609600Y330200D03*
X635000Y330200D03*
X381000Y304800D03*
X406400Y304800D03*
X431800Y304800D03*
X457200Y304800D03*
X482600Y304800D03*
X508000Y304800D03*
X533400Y304800D03*
X558800Y304800D03*
X584200Y304800D03*
X609600Y304800D03*
X660400Y330200D03*
X381000Y457200D03*
X609600Y431800D03*
X635000Y431800D03*
X660400Y381000D03*
D31*
X212090Y359690D02*
X212090Y351790D01*
X219710Y344170D01*
X240030Y344170D01*
X247650Y351790D01*
X247650Y358140D01*
D32*
X94996Y185674D02*
X81534Y185674D01*
X73660Y177800D01*
X73660Y128270D01*
X83820Y118110D01*
X120777Y118110D01*
X156210Y82677D01*
X156210Y67310D01*
X157480Y66040D01*
X232410Y54610D02*
X233680Y55880D01*
X374650Y55880D02*
X387350Y43180D01*
X374650Y55880D02*
X233680Y55880D01*
D36*
X407670Y43180D03*
D32*
X400050Y43180D02*
X387350Y43180D01*
D36*
X400050Y43180D03*
D32*
X407670Y43180D02*
X415290Y43180D01*
D36*
X415290Y43180D03*
D32*
X414020Y43180D01*
X407670Y43180D02*
X400050Y43180D01*
M02*
