G75*
%MOIN*%
%OFA0B0*%
%FSLAX25Y25*%
%IPPOS*%
%LPD*%
%AMOC8*
5,1,8,0,0,1.08239X$1,22.5*
%
%ADD10C,0.01000*%
%ADD11C,0.00000*%
%ADD12C,0.05600*%
%ADD13OC8,0.06102*%
%ADD14C,0.06000*%
%ADD15OC8,0.06300*%
%ADD16C,0.06300*%
%ADD17OC8,0.05200*%
%ADD18C,0.05200*%
%ADD19C,0.06693*%
%ADD20OC8,0.06000*%
%ADD21C,0.08000*%
%ADD22C,0.04000*%
%ADD23C,0.01600*%
%ADD24C,0.02400*%
%ADD25C,0.00800*%
%ADD26R,0.06496X0.06496*%
D10*
X0009770Y0009437D02*
X0009770Y0211563D01*
X0009772Y0211687D01*
X0009778Y0211810D01*
X0009787Y0211934D01*
X0009801Y0212056D01*
X0009818Y0212179D01*
X0009840Y0212301D01*
X0009865Y0212422D01*
X0009894Y0212542D01*
X0009926Y0212661D01*
X0009963Y0212780D01*
X0010003Y0212897D01*
X0010046Y0213012D01*
X0010094Y0213127D01*
X0010145Y0213239D01*
X0010199Y0213350D01*
X0010257Y0213460D01*
X0010318Y0213567D01*
X0010383Y0213673D01*
X0010451Y0213776D01*
X0010522Y0213877D01*
X0010596Y0213976D01*
X0010673Y0214073D01*
X0010754Y0214167D01*
X0010837Y0214258D01*
X0010923Y0214347D01*
X0011012Y0214433D01*
X0011103Y0214516D01*
X0011197Y0214597D01*
X0011294Y0214674D01*
X0011393Y0214748D01*
X0011494Y0214819D01*
X0011597Y0214887D01*
X0011703Y0214952D01*
X0011810Y0215013D01*
X0011920Y0215071D01*
X0012031Y0215125D01*
X0012143Y0215176D01*
X0012258Y0215224D01*
X0012373Y0215267D01*
X0012490Y0215307D01*
X0012609Y0215344D01*
X0012728Y0215376D01*
X0012848Y0215405D01*
X0012969Y0215430D01*
X0013091Y0215452D01*
X0013214Y0215469D01*
X0013336Y0215483D01*
X0013460Y0215492D01*
X0013583Y0215498D01*
X0013707Y0215500D01*
X0263770Y0215500D01*
X0269770Y0209500D01*
X0269770Y0164500D01*
X0279770Y0154500D01*
X0279770Y0025500D01*
X0269770Y0015500D01*
X0269770Y0009437D01*
X0269768Y0009313D01*
X0269762Y0009190D01*
X0269753Y0009066D01*
X0269739Y0008944D01*
X0269722Y0008821D01*
X0269700Y0008699D01*
X0269675Y0008578D01*
X0269646Y0008458D01*
X0269614Y0008339D01*
X0269577Y0008220D01*
X0269537Y0008103D01*
X0269494Y0007988D01*
X0269446Y0007873D01*
X0269395Y0007761D01*
X0269341Y0007650D01*
X0269283Y0007540D01*
X0269222Y0007433D01*
X0269157Y0007327D01*
X0269089Y0007224D01*
X0269018Y0007123D01*
X0268944Y0007024D01*
X0268867Y0006927D01*
X0268786Y0006833D01*
X0268703Y0006742D01*
X0268617Y0006653D01*
X0268528Y0006567D01*
X0268437Y0006484D01*
X0268343Y0006403D01*
X0268246Y0006326D01*
X0268147Y0006252D01*
X0268046Y0006181D01*
X0267943Y0006113D01*
X0267837Y0006048D01*
X0267730Y0005987D01*
X0267620Y0005929D01*
X0267509Y0005875D01*
X0267397Y0005824D01*
X0267282Y0005776D01*
X0267167Y0005733D01*
X0267050Y0005693D01*
X0266931Y0005656D01*
X0266812Y0005624D01*
X0266692Y0005595D01*
X0266571Y0005570D01*
X0266449Y0005548D01*
X0266326Y0005531D01*
X0266204Y0005517D01*
X0266080Y0005508D01*
X0265957Y0005502D01*
X0265833Y0005500D01*
X0013707Y0005500D01*
X0013583Y0005502D01*
X0013460Y0005508D01*
X0013336Y0005517D01*
X0013214Y0005531D01*
X0013091Y0005548D01*
X0012969Y0005570D01*
X0012848Y0005595D01*
X0012728Y0005624D01*
X0012609Y0005656D01*
X0012490Y0005693D01*
X0012373Y0005733D01*
X0012258Y0005776D01*
X0012143Y0005824D01*
X0012031Y0005875D01*
X0011920Y0005929D01*
X0011810Y0005987D01*
X0011703Y0006048D01*
X0011597Y0006113D01*
X0011494Y0006181D01*
X0011393Y0006252D01*
X0011294Y0006326D01*
X0011197Y0006403D01*
X0011103Y0006484D01*
X0011012Y0006567D01*
X0010923Y0006653D01*
X0010837Y0006742D01*
X0010754Y0006833D01*
X0010673Y0006927D01*
X0010596Y0007024D01*
X0010522Y0007123D01*
X0010451Y0007224D01*
X0010383Y0007327D01*
X0010318Y0007433D01*
X0010257Y0007540D01*
X0010199Y0007650D01*
X0010145Y0007761D01*
X0010094Y0007873D01*
X0010046Y0007988D01*
X0010003Y0008103D01*
X0009963Y0008220D01*
X0009926Y0008339D01*
X0009894Y0008458D01*
X0009865Y0008578D01*
X0009840Y0008699D01*
X0009818Y0008821D01*
X0009801Y0008944D01*
X0009787Y0009066D01*
X0009778Y0009190D01*
X0009772Y0009313D01*
X0009770Y0009437D01*
D11*
X0058471Y0015500D02*
X0058473Y0015658D01*
X0058479Y0015816D01*
X0058489Y0015974D01*
X0058503Y0016132D01*
X0058521Y0016289D01*
X0058542Y0016446D01*
X0058568Y0016602D01*
X0058598Y0016758D01*
X0058631Y0016913D01*
X0058669Y0017066D01*
X0058710Y0017219D01*
X0058755Y0017371D01*
X0058804Y0017522D01*
X0058857Y0017671D01*
X0058913Y0017819D01*
X0058973Y0017965D01*
X0059037Y0018110D01*
X0059105Y0018253D01*
X0059176Y0018395D01*
X0059250Y0018535D01*
X0059328Y0018672D01*
X0059410Y0018808D01*
X0059494Y0018942D01*
X0059583Y0019073D01*
X0059674Y0019202D01*
X0059769Y0019329D01*
X0059866Y0019454D01*
X0059967Y0019576D01*
X0060071Y0019695D01*
X0060178Y0019812D01*
X0060288Y0019926D01*
X0060401Y0020037D01*
X0060516Y0020146D01*
X0060634Y0020251D01*
X0060755Y0020353D01*
X0060878Y0020453D01*
X0061004Y0020549D01*
X0061132Y0020642D01*
X0061262Y0020732D01*
X0061395Y0020818D01*
X0061530Y0020902D01*
X0061666Y0020981D01*
X0061805Y0021058D01*
X0061946Y0021130D01*
X0062088Y0021200D01*
X0062232Y0021265D01*
X0062378Y0021327D01*
X0062525Y0021385D01*
X0062674Y0021440D01*
X0062824Y0021491D01*
X0062975Y0021538D01*
X0063127Y0021581D01*
X0063280Y0021620D01*
X0063435Y0021656D01*
X0063590Y0021687D01*
X0063746Y0021715D01*
X0063902Y0021739D01*
X0064059Y0021759D01*
X0064217Y0021775D01*
X0064374Y0021787D01*
X0064533Y0021795D01*
X0064691Y0021799D01*
X0064849Y0021799D01*
X0065007Y0021795D01*
X0065166Y0021787D01*
X0065323Y0021775D01*
X0065481Y0021759D01*
X0065638Y0021739D01*
X0065794Y0021715D01*
X0065950Y0021687D01*
X0066105Y0021656D01*
X0066260Y0021620D01*
X0066413Y0021581D01*
X0066565Y0021538D01*
X0066716Y0021491D01*
X0066866Y0021440D01*
X0067015Y0021385D01*
X0067162Y0021327D01*
X0067308Y0021265D01*
X0067452Y0021200D01*
X0067594Y0021130D01*
X0067735Y0021058D01*
X0067874Y0020981D01*
X0068010Y0020902D01*
X0068145Y0020818D01*
X0068278Y0020732D01*
X0068408Y0020642D01*
X0068536Y0020549D01*
X0068662Y0020453D01*
X0068785Y0020353D01*
X0068906Y0020251D01*
X0069024Y0020146D01*
X0069139Y0020037D01*
X0069252Y0019926D01*
X0069362Y0019812D01*
X0069469Y0019695D01*
X0069573Y0019576D01*
X0069674Y0019454D01*
X0069771Y0019329D01*
X0069866Y0019202D01*
X0069957Y0019073D01*
X0070046Y0018942D01*
X0070130Y0018808D01*
X0070212Y0018672D01*
X0070290Y0018535D01*
X0070364Y0018395D01*
X0070435Y0018253D01*
X0070503Y0018110D01*
X0070567Y0017965D01*
X0070627Y0017819D01*
X0070683Y0017671D01*
X0070736Y0017522D01*
X0070785Y0017371D01*
X0070830Y0017219D01*
X0070871Y0017066D01*
X0070909Y0016913D01*
X0070942Y0016758D01*
X0070972Y0016602D01*
X0070998Y0016446D01*
X0071019Y0016289D01*
X0071037Y0016132D01*
X0071051Y0015974D01*
X0071061Y0015816D01*
X0071067Y0015658D01*
X0071069Y0015500D01*
X0071067Y0015342D01*
X0071061Y0015184D01*
X0071051Y0015026D01*
X0071037Y0014868D01*
X0071019Y0014711D01*
X0070998Y0014554D01*
X0070972Y0014398D01*
X0070942Y0014242D01*
X0070909Y0014087D01*
X0070871Y0013934D01*
X0070830Y0013781D01*
X0070785Y0013629D01*
X0070736Y0013478D01*
X0070683Y0013329D01*
X0070627Y0013181D01*
X0070567Y0013035D01*
X0070503Y0012890D01*
X0070435Y0012747D01*
X0070364Y0012605D01*
X0070290Y0012465D01*
X0070212Y0012328D01*
X0070130Y0012192D01*
X0070046Y0012058D01*
X0069957Y0011927D01*
X0069866Y0011798D01*
X0069771Y0011671D01*
X0069674Y0011546D01*
X0069573Y0011424D01*
X0069469Y0011305D01*
X0069362Y0011188D01*
X0069252Y0011074D01*
X0069139Y0010963D01*
X0069024Y0010854D01*
X0068906Y0010749D01*
X0068785Y0010647D01*
X0068662Y0010547D01*
X0068536Y0010451D01*
X0068408Y0010358D01*
X0068278Y0010268D01*
X0068145Y0010182D01*
X0068010Y0010098D01*
X0067874Y0010019D01*
X0067735Y0009942D01*
X0067594Y0009870D01*
X0067452Y0009800D01*
X0067308Y0009735D01*
X0067162Y0009673D01*
X0067015Y0009615D01*
X0066866Y0009560D01*
X0066716Y0009509D01*
X0066565Y0009462D01*
X0066413Y0009419D01*
X0066260Y0009380D01*
X0066105Y0009344D01*
X0065950Y0009313D01*
X0065794Y0009285D01*
X0065638Y0009261D01*
X0065481Y0009241D01*
X0065323Y0009225D01*
X0065166Y0009213D01*
X0065007Y0009205D01*
X0064849Y0009201D01*
X0064691Y0009201D01*
X0064533Y0009205D01*
X0064374Y0009213D01*
X0064217Y0009225D01*
X0064059Y0009241D01*
X0063902Y0009261D01*
X0063746Y0009285D01*
X0063590Y0009313D01*
X0063435Y0009344D01*
X0063280Y0009380D01*
X0063127Y0009419D01*
X0062975Y0009462D01*
X0062824Y0009509D01*
X0062674Y0009560D01*
X0062525Y0009615D01*
X0062378Y0009673D01*
X0062232Y0009735D01*
X0062088Y0009800D01*
X0061946Y0009870D01*
X0061805Y0009942D01*
X0061666Y0010019D01*
X0061530Y0010098D01*
X0061395Y0010182D01*
X0061262Y0010268D01*
X0061132Y0010358D01*
X0061004Y0010451D01*
X0060878Y0010547D01*
X0060755Y0010647D01*
X0060634Y0010749D01*
X0060516Y0010854D01*
X0060401Y0010963D01*
X0060288Y0011074D01*
X0060178Y0011188D01*
X0060071Y0011305D01*
X0059967Y0011424D01*
X0059866Y0011546D01*
X0059769Y0011671D01*
X0059674Y0011798D01*
X0059583Y0011927D01*
X0059494Y0012058D01*
X0059410Y0012192D01*
X0059328Y0012328D01*
X0059250Y0012465D01*
X0059176Y0012605D01*
X0059105Y0012747D01*
X0059037Y0012890D01*
X0058973Y0013035D01*
X0058913Y0013181D01*
X0058857Y0013329D01*
X0058804Y0013478D01*
X0058755Y0013629D01*
X0058710Y0013781D01*
X0058669Y0013934D01*
X0058631Y0014087D01*
X0058598Y0014242D01*
X0058568Y0014398D01*
X0058542Y0014554D01*
X0058521Y0014711D01*
X0058503Y0014868D01*
X0058489Y0015026D01*
X0058479Y0015184D01*
X0058473Y0015342D01*
X0058471Y0015500D01*
X0029998Y0150339D02*
X0030000Y0150423D01*
X0030006Y0150506D01*
X0030016Y0150589D01*
X0030030Y0150672D01*
X0030047Y0150754D01*
X0030069Y0150835D01*
X0030094Y0150914D01*
X0030123Y0150993D01*
X0030156Y0151070D01*
X0030192Y0151145D01*
X0030232Y0151219D01*
X0030275Y0151291D01*
X0030322Y0151360D01*
X0030372Y0151427D01*
X0030425Y0151492D01*
X0030481Y0151554D01*
X0030539Y0151614D01*
X0030601Y0151671D01*
X0030665Y0151724D01*
X0030732Y0151775D01*
X0030801Y0151822D01*
X0030872Y0151867D01*
X0030945Y0151907D01*
X0031020Y0151944D01*
X0031097Y0151978D01*
X0031175Y0152008D01*
X0031254Y0152034D01*
X0031335Y0152057D01*
X0031417Y0152075D01*
X0031499Y0152090D01*
X0031582Y0152101D01*
X0031665Y0152108D01*
X0031749Y0152111D01*
X0031833Y0152110D01*
X0031916Y0152105D01*
X0032000Y0152096D01*
X0032082Y0152083D01*
X0032164Y0152067D01*
X0032245Y0152046D01*
X0032326Y0152022D01*
X0032404Y0151994D01*
X0032482Y0151962D01*
X0032558Y0151926D01*
X0032632Y0151887D01*
X0032704Y0151845D01*
X0032774Y0151799D01*
X0032842Y0151750D01*
X0032907Y0151698D01*
X0032970Y0151643D01*
X0033030Y0151585D01*
X0033088Y0151524D01*
X0033142Y0151460D01*
X0033194Y0151394D01*
X0033242Y0151326D01*
X0033287Y0151255D01*
X0033328Y0151182D01*
X0033367Y0151108D01*
X0033401Y0151032D01*
X0033432Y0150954D01*
X0033459Y0150875D01*
X0033483Y0150794D01*
X0033502Y0150713D01*
X0033518Y0150631D01*
X0033530Y0150548D01*
X0033538Y0150464D01*
X0033542Y0150381D01*
X0033542Y0150297D01*
X0033538Y0150214D01*
X0033530Y0150130D01*
X0033518Y0150047D01*
X0033502Y0149965D01*
X0033483Y0149884D01*
X0033459Y0149803D01*
X0033432Y0149724D01*
X0033401Y0149646D01*
X0033367Y0149570D01*
X0033328Y0149496D01*
X0033287Y0149423D01*
X0033242Y0149352D01*
X0033194Y0149284D01*
X0033142Y0149218D01*
X0033088Y0149154D01*
X0033030Y0149093D01*
X0032970Y0149035D01*
X0032907Y0148980D01*
X0032842Y0148928D01*
X0032774Y0148879D01*
X0032704Y0148833D01*
X0032632Y0148791D01*
X0032558Y0148752D01*
X0032482Y0148716D01*
X0032404Y0148684D01*
X0032326Y0148656D01*
X0032245Y0148632D01*
X0032164Y0148611D01*
X0032082Y0148595D01*
X0032000Y0148582D01*
X0031916Y0148573D01*
X0031833Y0148568D01*
X0031749Y0148567D01*
X0031665Y0148570D01*
X0031582Y0148577D01*
X0031499Y0148588D01*
X0031417Y0148603D01*
X0031335Y0148621D01*
X0031254Y0148644D01*
X0031175Y0148670D01*
X0031097Y0148700D01*
X0031020Y0148734D01*
X0030945Y0148771D01*
X0030872Y0148811D01*
X0030801Y0148856D01*
X0030732Y0148903D01*
X0030665Y0148954D01*
X0030601Y0149007D01*
X0030539Y0149064D01*
X0030481Y0149124D01*
X0030425Y0149186D01*
X0030372Y0149251D01*
X0030322Y0149318D01*
X0030275Y0149387D01*
X0030232Y0149459D01*
X0030192Y0149533D01*
X0030156Y0149608D01*
X0030123Y0149685D01*
X0030094Y0149764D01*
X0030069Y0149843D01*
X0030047Y0149924D01*
X0030030Y0150006D01*
X0030016Y0150089D01*
X0030006Y0150172D01*
X0030000Y0150255D01*
X0029998Y0150339D01*
X0029998Y0167661D02*
X0030000Y0167745D01*
X0030006Y0167828D01*
X0030016Y0167911D01*
X0030030Y0167994D01*
X0030047Y0168076D01*
X0030069Y0168157D01*
X0030094Y0168236D01*
X0030123Y0168315D01*
X0030156Y0168392D01*
X0030192Y0168467D01*
X0030232Y0168541D01*
X0030275Y0168613D01*
X0030322Y0168682D01*
X0030372Y0168749D01*
X0030425Y0168814D01*
X0030481Y0168876D01*
X0030539Y0168936D01*
X0030601Y0168993D01*
X0030665Y0169046D01*
X0030732Y0169097D01*
X0030801Y0169144D01*
X0030872Y0169189D01*
X0030945Y0169229D01*
X0031020Y0169266D01*
X0031097Y0169300D01*
X0031175Y0169330D01*
X0031254Y0169356D01*
X0031335Y0169379D01*
X0031417Y0169397D01*
X0031499Y0169412D01*
X0031582Y0169423D01*
X0031665Y0169430D01*
X0031749Y0169433D01*
X0031833Y0169432D01*
X0031916Y0169427D01*
X0032000Y0169418D01*
X0032082Y0169405D01*
X0032164Y0169389D01*
X0032245Y0169368D01*
X0032326Y0169344D01*
X0032404Y0169316D01*
X0032482Y0169284D01*
X0032558Y0169248D01*
X0032632Y0169209D01*
X0032704Y0169167D01*
X0032774Y0169121D01*
X0032842Y0169072D01*
X0032907Y0169020D01*
X0032970Y0168965D01*
X0033030Y0168907D01*
X0033088Y0168846D01*
X0033142Y0168782D01*
X0033194Y0168716D01*
X0033242Y0168648D01*
X0033287Y0168577D01*
X0033328Y0168504D01*
X0033367Y0168430D01*
X0033401Y0168354D01*
X0033432Y0168276D01*
X0033459Y0168197D01*
X0033483Y0168116D01*
X0033502Y0168035D01*
X0033518Y0167953D01*
X0033530Y0167870D01*
X0033538Y0167786D01*
X0033542Y0167703D01*
X0033542Y0167619D01*
X0033538Y0167536D01*
X0033530Y0167452D01*
X0033518Y0167369D01*
X0033502Y0167287D01*
X0033483Y0167206D01*
X0033459Y0167125D01*
X0033432Y0167046D01*
X0033401Y0166968D01*
X0033367Y0166892D01*
X0033328Y0166818D01*
X0033287Y0166745D01*
X0033242Y0166674D01*
X0033194Y0166606D01*
X0033142Y0166540D01*
X0033088Y0166476D01*
X0033030Y0166415D01*
X0032970Y0166357D01*
X0032907Y0166302D01*
X0032842Y0166250D01*
X0032774Y0166201D01*
X0032704Y0166155D01*
X0032632Y0166113D01*
X0032558Y0166074D01*
X0032482Y0166038D01*
X0032404Y0166006D01*
X0032326Y0165978D01*
X0032245Y0165954D01*
X0032164Y0165933D01*
X0032082Y0165917D01*
X0032000Y0165904D01*
X0031916Y0165895D01*
X0031833Y0165890D01*
X0031749Y0165889D01*
X0031665Y0165892D01*
X0031582Y0165899D01*
X0031499Y0165910D01*
X0031417Y0165925D01*
X0031335Y0165943D01*
X0031254Y0165966D01*
X0031175Y0165992D01*
X0031097Y0166022D01*
X0031020Y0166056D01*
X0030945Y0166093D01*
X0030872Y0166133D01*
X0030801Y0166178D01*
X0030732Y0166225D01*
X0030665Y0166276D01*
X0030601Y0166329D01*
X0030539Y0166386D01*
X0030481Y0166446D01*
X0030425Y0166508D01*
X0030372Y0166573D01*
X0030322Y0166640D01*
X0030275Y0166709D01*
X0030232Y0166781D01*
X0030192Y0166855D01*
X0030156Y0166930D01*
X0030123Y0167007D01*
X0030094Y0167086D01*
X0030069Y0167165D01*
X0030047Y0167246D01*
X0030030Y0167328D01*
X0030016Y0167411D01*
X0030006Y0167494D01*
X0030000Y0167577D01*
X0029998Y0167661D01*
X0063471Y0205500D02*
X0063473Y0205658D01*
X0063479Y0205816D01*
X0063489Y0205974D01*
X0063503Y0206132D01*
X0063521Y0206289D01*
X0063542Y0206446D01*
X0063568Y0206602D01*
X0063598Y0206758D01*
X0063631Y0206913D01*
X0063669Y0207066D01*
X0063710Y0207219D01*
X0063755Y0207371D01*
X0063804Y0207522D01*
X0063857Y0207671D01*
X0063913Y0207819D01*
X0063973Y0207965D01*
X0064037Y0208110D01*
X0064105Y0208253D01*
X0064176Y0208395D01*
X0064250Y0208535D01*
X0064328Y0208672D01*
X0064410Y0208808D01*
X0064494Y0208942D01*
X0064583Y0209073D01*
X0064674Y0209202D01*
X0064769Y0209329D01*
X0064866Y0209454D01*
X0064967Y0209576D01*
X0065071Y0209695D01*
X0065178Y0209812D01*
X0065288Y0209926D01*
X0065401Y0210037D01*
X0065516Y0210146D01*
X0065634Y0210251D01*
X0065755Y0210353D01*
X0065878Y0210453D01*
X0066004Y0210549D01*
X0066132Y0210642D01*
X0066262Y0210732D01*
X0066395Y0210818D01*
X0066530Y0210902D01*
X0066666Y0210981D01*
X0066805Y0211058D01*
X0066946Y0211130D01*
X0067088Y0211200D01*
X0067232Y0211265D01*
X0067378Y0211327D01*
X0067525Y0211385D01*
X0067674Y0211440D01*
X0067824Y0211491D01*
X0067975Y0211538D01*
X0068127Y0211581D01*
X0068280Y0211620D01*
X0068435Y0211656D01*
X0068590Y0211687D01*
X0068746Y0211715D01*
X0068902Y0211739D01*
X0069059Y0211759D01*
X0069217Y0211775D01*
X0069374Y0211787D01*
X0069533Y0211795D01*
X0069691Y0211799D01*
X0069849Y0211799D01*
X0070007Y0211795D01*
X0070166Y0211787D01*
X0070323Y0211775D01*
X0070481Y0211759D01*
X0070638Y0211739D01*
X0070794Y0211715D01*
X0070950Y0211687D01*
X0071105Y0211656D01*
X0071260Y0211620D01*
X0071413Y0211581D01*
X0071565Y0211538D01*
X0071716Y0211491D01*
X0071866Y0211440D01*
X0072015Y0211385D01*
X0072162Y0211327D01*
X0072308Y0211265D01*
X0072452Y0211200D01*
X0072594Y0211130D01*
X0072735Y0211058D01*
X0072874Y0210981D01*
X0073010Y0210902D01*
X0073145Y0210818D01*
X0073278Y0210732D01*
X0073408Y0210642D01*
X0073536Y0210549D01*
X0073662Y0210453D01*
X0073785Y0210353D01*
X0073906Y0210251D01*
X0074024Y0210146D01*
X0074139Y0210037D01*
X0074252Y0209926D01*
X0074362Y0209812D01*
X0074469Y0209695D01*
X0074573Y0209576D01*
X0074674Y0209454D01*
X0074771Y0209329D01*
X0074866Y0209202D01*
X0074957Y0209073D01*
X0075046Y0208942D01*
X0075130Y0208808D01*
X0075212Y0208672D01*
X0075290Y0208535D01*
X0075364Y0208395D01*
X0075435Y0208253D01*
X0075503Y0208110D01*
X0075567Y0207965D01*
X0075627Y0207819D01*
X0075683Y0207671D01*
X0075736Y0207522D01*
X0075785Y0207371D01*
X0075830Y0207219D01*
X0075871Y0207066D01*
X0075909Y0206913D01*
X0075942Y0206758D01*
X0075972Y0206602D01*
X0075998Y0206446D01*
X0076019Y0206289D01*
X0076037Y0206132D01*
X0076051Y0205974D01*
X0076061Y0205816D01*
X0076067Y0205658D01*
X0076069Y0205500D01*
X0076067Y0205342D01*
X0076061Y0205184D01*
X0076051Y0205026D01*
X0076037Y0204868D01*
X0076019Y0204711D01*
X0075998Y0204554D01*
X0075972Y0204398D01*
X0075942Y0204242D01*
X0075909Y0204087D01*
X0075871Y0203934D01*
X0075830Y0203781D01*
X0075785Y0203629D01*
X0075736Y0203478D01*
X0075683Y0203329D01*
X0075627Y0203181D01*
X0075567Y0203035D01*
X0075503Y0202890D01*
X0075435Y0202747D01*
X0075364Y0202605D01*
X0075290Y0202465D01*
X0075212Y0202328D01*
X0075130Y0202192D01*
X0075046Y0202058D01*
X0074957Y0201927D01*
X0074866Y0201798D01*
X0074771Y0201671D01*
X0074674Y0201546D01*
X0074573Y0201424D01*
X0074469Y0201305D01*
X0074362Y0201188D01*
X0074252Y0201074D01*
X0074139Y0200963D01*
X0074024Y0200854D01*
X0073906Y0200749D01*
X0073785Y0200647D01*
X0073662Y0200547D01*
X0073536Y0200451D01*
X0073408Y0200358D01*
X0073278Y0200268D01*
X0073145Y0200182D01*
X0073010Y0200098D01*
X0072874Y0200019D01*
X0072735Y0199942D01*
X0072594Y0199870D01*
X0072452Y0199800D01*
X0072308Y0199735D01*
X0072162Y0199673D01*
X0072015Y0199615D01*
X0071866Y0199560D01*
X0071716Y0199509D01*
X0071565Y0199462D01*
X0071413Y0199419D01*
X0071260Y0199380D01*
X0071105Y0199344D01*
X0070950Y0199313D01*
X0070794Y0199285D01*
X0070638Y0199261D01*
X0070481Y0199241D01*
X0070323Y0199225D01*
X0070166Y0199213D01*
X0070007Y0199205D01*
X0069849Y0199201D01*
X0069691Y0199201D01*
X0069533Y0199205D01*
X0069374Y0199213D01*
X0069217Y0199225D01*
X0069059Y0199241D01*
X0068902Y0199261D01*
X0068746Y0199285D01*
X0068590Y0199313D01*
X0068435Y0199344D01*
X0068280Y0199380D01*
X0068127Y0199419D01*
X0067975Y0199462D01*
X0067824Y0199509D01*
X0067674Y0199560D01*
X0067525Y0199615D01*
X0067378Y0199673D01*
X0067232Y0199735D01*
X0067088Y0199800D01*
X0066946Y0199870D01*
X0066805Y0199942D01*
X0066666Y0200019D01*
X0066530Y0200098D01*
X0066395Y0200182D01*
X0066262Y0200268D01*
X0066132Y0200358D01*
X0066004Y0200451D01*
X0065878Y0200547D01*
X0065755Y0200647D01*
X0065634Y0200749D01*
X0065516Y0200854D01*
X0065401Y0200963D01*
X0065288Y0201074D01*
X0065178Y0201188D01*
X0065071Y0201305D01*
X0064967Y0201424D01*
X0064866Y0201546D01*
X0064769Y0201671D01*
X0064674Y0201798D01*
X0064583Y0201927D01*
X0064494Y0202058D01*
X0064410Y0202192D01*
X0064328Y0202328D01*
X0064250Y0202465D01*
X0064176Y0202605D01*
X0064105Y0202747D01*
X0064037Y0202890D01*
X0063973Y0203035D01*
X0063913Y0203181D01*
X0063857Y0203329D01*
X0063804Y0203478D01*
X0063755Y0203629D01*
X0063710Y0203781D01*
X0063669Y0203934D01*
X0063631Y0204087D01*
X0063598Y0204242D01*
X0063568Y0204398D01*
X0063542Y0204554D01*
X0063521Y0204711D01*
X0063503Y0204868D01*
X0063489Y0205026D01*
X0063479Y0205184D01*
X0063473Y0205342D01*
X0063471Y0205500D01*
X0263471Y0145500D02*
X0263473Y0145658D01*
X0263479Y0145816D01*
X0263489Y0145974D01*
X0263503Y0146132D01*
X0263521Y0146289D01*
X0263542Y0146446D01*
X0263568Y0146602D01*
X0263598Y0146758D01*
X0263631Y0146913D01*
X0263669Y0147066D01*
X0263710Y0147219D01*
X0263755Y0147371D01*
X0263804Y0147522D01*
X0263857Y0147671D01*
X0263913Y0147819D01*
X0263973Y0147965D01*
X0264037Y0148110D01*
X0264105Y0148253D01*
X0264176Y0148395D01*
X0264250Y0148535D01*
X0264328Y0148672D01*
X0264410Y0148808D01*
X0264494Y0148942D01*
X0264583Y0149073D01*
X0264674Y0149202D01*
X0264769Y0149329D01*
X0264866Y0149454D01*
X0264967Y0149576D01*
X0265071Y0149695D01*
X0265178Y0149812D01*
X0265288Y0149926D01*
X0265401Y0150037D01*
X0265516Y0150146D01*
X0265634Y0150251D01*
X0265755Y0150353D01*
X0265878Y0150453D01*
X0266004Y0150549D01*
X0266132Y0150642D01*
X0266262Y0150732D01*
X0266395Y0150818D01*
X0266530Y0150902D01*
X0266666Y0150981D01*
X0266805Y0151058D01*
X0266946Y0151130D01*
X0267088Y0151200D01*
X0267232Y0151265D01*
X0267378Y0151327D01*
X0267525Y0151385D01*
X0267674Y0151440D01*
X0267824Y0151491D01*
X0267975Y0151538D01*
X0268127Y0151581D01*
X0268280Y0151620D01*
X0268435Y0151656D01*
X0268590Y0151687D01*
X0268746Y0151715D01*
X0268902Y0151739D01*
X0269059Y0151759D01*
X0269217Y0151775D01*
X0269374Y0151787D01*
X0269533Y0151795D01*
X0269691Y0151799D01*
X0269849Y0151799D01*
X0270007Y0151795D01*
X0270166Y0151787D01*
X0270323Y0151775D01*
X0270481Y0151759D01*
X0270638Y0151739D01*
X0270794Y0151715D01*
X0270950Y0151687D01*
X0271105Y0151656D01*
X0271260Y0151620D01*
X0271413Y0151581D01*
X0271565Y0151538D01*
X0271716Y0151491D01*
X0271866Y0151440D01*
X0272015Y0151385D01*
X0272162Y0151327D01*
X0272308Y0151265D01*
X0272452Y0151200D01*
X0272594Y0151130D01*
X0272735Y0151058D01*
X0272874Y0150981D01*
X0273010Y0150902D01*
X0273145Y0150818D01*
X0273278Y0150732D01*
X0273408Y0150642D01*
X0273536Y0150549D01*
X0273662Y0150453D01*
X0273785Y0150353D01*
X0273906Y0150251D01*
X0274024Y0150146D01*
X0274139Y0150037D01*
X0274252Y0149926D01*
X0274362Y0149812D01*
X0274469Y0149695D01*
X0274573Y0149576D01*
X0274674Y0149454D01*
X0274771Y0149329D01*
X0274866Y0149202D01*
X0274957Y0149073D01*
X0275046Y0148942D01*
X0275130Y0148808D01*
X0275212Y0148672D01*
X0275290Y0148535D01*
X0275364Y0148395D01*
X0275435Y0148253D01*
X0275503Y0148110D01*
X0275567Y0147965D01*
X0275627Y0147819D01*
X0275683Y0147671D01*
X0275736Y0147522D01*
X0275785Y0147371D01*
X0275830Y0147219D01*
X0275871Y0147066D01*
X0275909Y0146913D01*
X0275942Y0146758D01*
X0275972Y0146602D01*
X0275998Y0146446D01*
X0276019Y0146289D01*
X0276037Y0146132D01*
X0276051Y0145974D01*
X0276061Y0145816D01*
X0276067Y0145658D01*
X0276069Y0145500D01*
X0276067Y0145342D01*
X0276061Y0145184D01*
X0276051Y0145026D01*
X0276037Y0144868D01*
X0276019Y0144711D01*
X0275998Y0144554D01*
X0275972Y0144398D01*
X0275942Y0144242D01*
X0275909Y0144087D01*
X0275871Y0143934D01*
X0275830Y0143781D01*
X0275785Y0143629D01*
X0275736Y0143478D01*
X0275683Y0143329D01*
X0275627Y0143181D01*
X0275567Y0143035D01*
X0275503Y0142890D01*
X0275435Y0142747D01*
X0275364Y0142605D01*
X0275290Y0142465D01*
X0275212Y0142328D01*
X0275130Y0142192D01*
X0275046Y0142058D01*
X0274957Y0141927D01*
X0274866Y0141798D01*
X0274771Y0141671D01*
X0274674Y0141546D01*
X0274573Y0141424D01*
X0274469Y0141305D01*
X0274362Y0141188D01*
X0274252Y0141074D01*
X0274139Y0140963D01*
X0274024Y0140854D01*
X0273906Y0140749D01*
X0273785Y0140647D01*
X0273662Y0140547D01*
X0273536Y0140451D01*
X0273408Y0140358D01*
X0273278Y0140268D01*
X0273145Y0140182D01*
X0273010Y0140098D01*
X0272874Y0140019D01*
X0272735Y0139942D01*
X0272594Y0139870D01*
X0272452Y0139800D01*
X0272308Y0139735D01*
X0272162Y0139673D01*
X0272015Y0139615D01*
X0271866Y0139560D01*
X0271716Y0139509D01*
X0271565Y0139462D01*
X0271413Y0139419D01*
X0271260Y0139380D01*
X0271105Y0139344D01*
X0270950Y0139313D01*
X0270794Y0139285D01*
X0270638Y0139261D01*
X0270481Y0139241D01*
X0270323Y0139225D01*
X0270166Y0139213D01*
X0270007Y0139205D01*
X0269849Y0139201D01*
X0269691Y0139201D01*
X0269533Y0139205D01*
X0269374Y0139213D01*
X0269217Y0139225D01*
X0269059Y0139241D01*
X0268902Y0139261D01*
X0268746Y0139285D01*
X0268590Y0139313D01*
X0268435Y0139344D01*
X0268280Y0139380D01*
X0268127Y0139419D01*
X0267975Y0139462D01*
X0267824Y0139509D01*
X0267674Y0139560D01*
X0267525Y0139615D01*
X0267378Y0139673D01*
X0267232Y0139735D01*
X0267088Y0139800D01*
X0266946Y0139870D01*
X0266805Y0139942D01*
X0266666Y0140019D01*
X0266530Y0140098D01*
X0266395Y0140182D01*
X0266262Y0140268D01*
X0266132Y0140358D01*
X0266004Y0140451D01*
X0265878Y0140547D01*
X0265755Y0140647D01*
X0265634Y0140749D01*
X0265516Y0140854D01*
X0265401Y0140963D01*
X0265288Y0141074D01*
X0265178Y0141188D01*
X0265071Y0141305D01*
X0264967Y0141424D01*
X0264866Y0141546D01*
X0264769Y0141671D01*
X0264674Y0141798D01*
X0264583Y0141927D01*
X0264494Y0142058D01*
X0264410Y0142192D01*
X0264328Y0142328D01*
X0264250Y0142465D01*
X0264176Y0142605D01*
X0264105Y0142747D01*
X0264037Y0142890D01*
X0263973Y0143035D01*
X0263913Y0143181D01*
X0263857Y0143329D01*
X0263804Y0143478D01*
X0263755Y0143629D01*
X0263710Y0143781D01*
X0263669Y0143934D01*
X0263631Y0144087D01*
X0263598Y0144242D01*
X0263568Y0144398D01*
X0263542Y0144554D01*
X0263521Y0144711D01*
X0263503Y0144868D01*
X0263489Y0145026D01*
X0263479Y0145184D01*
X0263473Y0145342D01*
X0263471Y0145500D01*
X0263471Y0035500D02*
X0263473Y0035658D01*
X0263479Y0035816D01*
X0263489Y0035974D01*
X0263503Y0036132D01*
X0263521Y0036289D01*
X0263542Y0036446D01*
X0263568Y0036602D01*
X0263598Y0036758D01*
X0263631Y0036913D01*
X0263669Y0037066D01*
X0263710Y0037219D01*
X0263755Y0037371D01*
X0263804Y0037522D01*
X0263857Y0037671D01*
X0263913Y0037819D01*
X0263973Y0037965D01*
X0264037Y0038110D01*
X0264105Y0038253D01*
X0264176Y0038395D01*
X0264250Y0038535D01*
X0264328Y0038672D01*
X0264410Y0038808D01*
X0264494Y0038942D01*
X0264583Y0039073D01*
X0264674Y0039202D01*
X0264769Y0039329D01*
X0264866Y0039454D01*
X0264967Y0039576D01*
X0265071Y0039695D01*
X0265178Y0039812D01*
X0265288Y0039926D01*
X0265401Y0040037D01*
X0265516Y0040146D01*
X0265634Y0040251D01*
X0265755Y0040353D01*
X0265878Y0040453D01*
X0266004Y0040549D01*
X0266132Y0040642D01*
X0266262Y0040732D01*
X0266395Y0040818D01*
X0266530Y0040902D01*
X0266666Y0040981D01*
X0266805Y0041058D01*
X0266946Y0041130D01*
X0267088Y0041200D01*
X0267232Y0041265D01*
X0267378Y0041327D01*
X0267525Y0041385D01*
X0267674Y0041440D01*
X0267824Y0041491D01*
X0267975Y0041538D01*
X0268127Y0041581D01*
X0268280Y0041620D01*
X0268435Y0041656D01*
X0268590Y0041687D01*
X0268746Y0041715D01*
X0268902Y0041739D01*
X0269059Y0041759D01*
X0269217Y0041775D01*
X0269374Y0041787D01*
X0269533Y0041795D01*
X0269691Y0041799D01*
X0269849Y0041799D01*
X0270007Y0041795D01*
X0270166Y0041787D01*
X0270323Y0041775D01*
X0270481Y0041759D01*
X0270638Y0041739D01*
X0270794Y0041715D01*
X0270950Y0041687D01*
X0271105Y0041656D01*
X0271260Y0041620D01*
X0271413Y0041581D01*
X0271565Y0041538D01*
X0271716Y0041491D01*
X0271866Y0041440D01*
X0272015Y0041385D01*
X0272162Y0041327D01*
X0272308Y0041265D01*
X0272452Y0041200D01*
X0272594Y0041130D01*
X0272735Y0041058D01*
X0272874Y0040981D01*
X0273010Y0040902D01*
X0273145Y0040818D01*
X0273278Y0040732D01*
X0273408Y0040642D01*
X0273536Y0040549D01*
X0273662Y0040453D01*
X0273785Y0040353D01*
X0273906Y0040251D01*
X0274024Y0040146D01*
X0274139Y0040037D01*
X0274252Y0039926D01*
X0274362Y0039812D01*
X0274469Y0039695D01*
X0274573Y0039576D01*
X0274674Y0039454D01*
X0274771Y0039329D01*
X0274866Y0039202D01*
X0274957Y0039073D01*
X0275046Y0038942D01*
X0275130Y0038808D01*
X0275212Y0038672D01*
X0275290Y0038535D01*
X0275364Y0038395D01*
X0275435Y0038253D01*
X0275503Y0038110D01*
X0275567Y0037965D01*
X0275627Y0037819D01*
X0275683Y0037671D01*
X0275736Y0037522D01*
X0275785Y0037371D01*
X0275830Y0037219D01*
X0275871Y0037066D01*
X0275909Y0036913D01*
X0275942Y0036758D01*
X0275972Y0036602D01*
X0275998Y0036446D01*
X0276019Y0036289D01*
X0276037Y0036132D01*
X0276051Y0035974D01*
X0276061Y0035816D01*
X0276067Y0035658D01*
X0276069Y0035500D01*
X0276067Y0035342D01*
X0276061Y0035184D01*
X0276051Y0035026D01*
X0276037Y0034868D01*
X0276019Y0034711D01*
X0275998Y0034554D01*
X0275972Y0034398D01*
X0275942Y0034242D01*
X0275909Y0034087D01*
X0275871Y0033934D01*
X0275830Y0033781D01*
X0275785Y0033629D01*
X0275736Y0033478D01*
X0275683Y0033329D01*
X0275627Y0033181D01*
X0275567Y0033035D01*
X0275503Y0032890D01*
X0275435Y0032747D01*
X0275364Y0032605D01*
X0275290Y0032465D01*
X0275212Y0032328D01*
X0275130Y0032192D01*
X0275046Y0032058D01*
X0274957Y0031927D01*
X0274866Y0031798D01*
X0274771Y0031671D01*
X0274674Y0031546D01*
X0274573Y0031424D01*
X0274469Y0031305D01*
X0274362Y0031188D01*
X0274252Y0031074D01*
X0274139Y0030963D01*
X0274024Y0030854D01*
X0273906Y0030749D01*
X0273785Y0030647D01*
X0273662Y0030547D01*
X0273536Y0030451D01*
X0273408Y0030358D01*
X0273278Y0030268D01*
X0273145Y0030182D01*
X0273010Y0030098D01*
X0272874Y0030019D01*
X0272735Y0029942D01*
X0272594Y0029870D01*
X0272452Y0029800D01*
X0272308Y0029735D01*
X0272162Y0029673D01*
X0272015Y0029615D01*
X0271866Y0029560D01*
X0271716Y0029509D01*
X0271565Y0029462D01*
X0271413Y0029419D01*
X0271260Y0029380D01*
X0271105Y0029344D01*
X0270950Y0029313D01*
X0270794Y0029285D01*
X0270638Y0029261D01*
X0270481Y0029241D01*
X0270323Y0029225D01*
X0270166Y0029213D01*
X0270007Y0029205D01*
X0269849Y0029201D01*
X0269691Y0029201D01*
X0269533Y0029205D01*
X0269374Y0029213D01*
X0269217Y0029225D01*
X0269059Y0029241D01*
X0268902Y0029261D01*
X0268746Y0029285D01*
X0268590Y0029313D01*
X0268435Y0029344D01*
X0268280Y0029380D01*
X0268127Y0029419D01*
X0267975Y0029462D01*
X0267824Y0029509D01*
X0267674Y0029560D01*
X0267525Y0029615D01*
X0267378Y0029673D01*
X0267232Y0029735D01*
X0267088Y0029800D01*
X0266946Y0029870D01*
X0266805Y0029942D01*
X0266666Y0030019D01*
X0266530Y0030098D01*
X0266395Y0030182D01*
X0266262Y0030268D01*
X0266132Y0030358D01*
X0266004Y0030451D01*
X0265878Y0030547D01*
X0265755Y0030647D01*
X0265634Y0030749D01*
X0265516Y0030854D01*
X0265401Y0030963D01*
X0265288Y0031074D01*
X0265178Y0031188D01*
X0265071Y0031305D01*
X0264967Y0031424D01*
X0264866Y0031546D01*
X0264769Y0031671D01*
X0264674Y0031798D01*
X0264583Y0031927D01*
X0264494Y0032058D01*
X0264410Y0032192D01*
X0264328Y0032328D01*
X0264250Y0032465D01*
X0264176Y0032605D01*
X0264105Y0032747D01*
X0264037Y0032890D01*
X0263973Y0033035D01*
X0263913Y0033181D01*
X0263857Y0033329D01*
X0263804Y0033478D01*
X0263755Y0033629D01*
X0263710Y0033781D01*
X0263669Y0033934D01*
X0263631Y0034087D01*
X0263598Y0034242D01*
X0263568Y0034398D01*
X0263542Y0034554D01*
X0263521Y0034711D01*
X0263503Y0034868D01*
X0263489Y0035026D01*
X0263479Y0035184D01*
X0263473Y0035342D01*
X0263471Y0035500D01*
D12*
X0258770Y0041600D02*
X0258770Y0044400D01*
X0248770Y0044400D02*
X0248770Y0041600D01*
X0238770Y0041600D02*
X0238770Y0044400D01*
X0228770Y0044400D02*
X0228770Y0041600D01*
X0218770Y0041600D02*
X0218770Y0044400D01*
X0208770Y0044400D02*
X0208770Y0041600D01*
X0198770Y0041600D02*
X0198770Y0044400D01*
X0188770Y0044400D02*
X0188770Y0041600D01*
X0178770Y0041600D02*
X0178770Y0044400D01*
X0168770Y0044400D02*
X0168770Y0041600D01*
X0158770Y0041600D02*
X0158770Y0044400D01*
X0148770Y0044400D02*
X0148770Y0041600D01*
X0138770Y0041600D02*
X0138770Y0044400D01*
X0128770Y0044400D02*
X0128770Y0041600D01*
X0129770Y0016900D02*
X0129770Y0014100D01*
X0139770Y0014100D02*
X0139770Y0016900D01*
X0149770Y0016900D02*
X0149770Y0014100D01*
X0159770Y0014100D02*
X0159770Y0016900D01*
X0169770Y0016900D02*
X0169770Y0014100D01*
X0179770Y0014100D02*
X0179770Y0016900D01*
X0189770Y0016900D02*
X0189770Y0014100D01*
X0209770Y0014100D02*
X0209770Y0016900D01*
X0219770Y0016900D02*
X0219770Y0014100D01*
X0229770Y0014100D02*
X0229770Y0016900D01*
X0239770Y0016900D02*
X0239770Y0014100D01*
X0249770Y0014100D02*
X0249770Y0016900D01*
X0259770Y0016900D02*
X0259770Y0014100D01*
X0258770Y0071600D02*
X0258770Y0074400D01*
X0248770Y0074400D02*
X0248770Y0071600D01*
X0238770Y0071600D02*
X0238770Y0074400D01*
X0228770Y0074400D02*
X0228770Y0071600D01*
X0218770Y0071600D02*
X0218770Y0074400D01*
X0208770Y0074400D02*
X0208770Y0071600D01*
X0198770Y0071600D02*
X0198770Y0074400D01*
X0188770Y0074400D02*
X0188770Y0071600D01*
X0178770Y0071600D02*
X0178770Y0074400D01*
X0168770Y0074400D02*
X0168770Y0071600D01*
X0158770Y0071600D02*
X0158770Y0074400D01*
X0148770Y0074400D02*
X0148770Y0071600D01*
X0138770Y0071600D02*
X0138770Y0074400D01*
X0128770Y0074400D02*
X0128770Y0071600D01*
X0119770Y0016900D02*
X0119770Y0014100D01*
X0189770Y0204100D02*
X0189770Y0206900D01*
X0199770Y0206900D02*
X0199770Y0204100D01*
X0209770Y0204100D02*
X0209770Y0206900D01*
X0219770Y0206900D02*
X0219770Y0204100D01*
X0229770Y0204100D02*
X0229770Y0206900D01*
X0239770Y0206900D02*
X0239770Y0204100D01*
X0249770Y0204100D02*
X0249770Y0206900D01*
X0259770Y0206900D02*
X0259770Y0204100D01*
D13*
X0258770Y0105500D03*
X0268770Y0105500D03*
X0268770Y0095500D03*
X0258770Y0095500D03*
X0258770Y0085500D03*
X0268770Y0085500D03*
D14*
X0239770Y0084000D02*
X0239770Y0087000D01*
X0229770Y0087000D02*
X0229770Y0084000D01*
X0173770Y0204000D02*
X0173770Y0207000D01*
X0163770Y0207000D02*
X0163770Y0204000D01*
X0153770Y0204000D02*
X0153770Y0207000D01*
X0143770Y0207000D02*
X0143770Y0204000D01*
X0133770Y0204000D02*
X0133770Y0207000D01*
X0123770Y0207000D02*
X0123770Y0204000D01*
X0113770Y0204000D02*
X0113770Y0207000D01*
X0103770Y0207000D02*
X0103770Y0204000D01*
X0093770Y0204000D02*
X0093770Y0207000D01*
X0083770Y0207000D02*
X0083770Y0204000D01*
X0044570Y0208900D02*
X0041570Y0208900D01*
X0041570Y0191100D02*
X0044570Y0191100D01*
X0018970Y0191100D02*
X0015970Y0191100D01*
X0015970Y0208900D02*
X0018970Y0208900D01*
D15*
X0101270Y0084000D03*
X0101270Y0060500D03*
X0101270Y0037000D03*
D16*
X0101270Y0027000D03*
X0101270Y0050500D03*
X0101270Y0074000D03*
D17*
X0083770Y0061500D03*
X0071770Y0061500D03*
X0071770Y0031500D03*
X0083770Y0031500D03*
X0128270Y0088500D03*
X0120770Y0095500D03*
X0120770Y0106000D03*
X0128270Y0107500D03*
X0138270Y0107500D03*
X0138270Y0126000D03*
X0128270Y0126000D03*
X0117770Y0116500D03*
X0107270Y0116500D03*
X0090770Y0106000D03*
X0090770Y0095500D03*
X0138270Y0088500D03*
X0154270Y0084000D03*
X0174270Y0084000D03*
X0183770Y0084000D03*
X0203770Y0084000D03*
X0203770Y0092500D03*
X0215770Y0084000D03*
X0203770Y0112500D03*
X0215770Y0114000D03*
X0223270Y0114000D03*
X0243270Y0114000D03*
X0210770Y0032500D03*
X0190770Y0032500D03*
X0182770Y0032500D03*
X0162770Y0032500D03*
X0138270Y0144500D03*
X0128270Y0144500D03*
X0117770Y0146500D03*
X0107270Y0146500D03*
X0101770Y0156500D03*
X0117270Y0162000D03*
X0128270Y0156500D03*
X0138770Y0156500D03*
X0117270Y0182000D03*
X0128270Y0186500D03*
X0138770Y0186500D03*
X0081770Y0156500D03*
X0061270Y0156000D03*
X0061270Y0176000D03*
D18*
X0079770Y0172500D03*
X0098770Y0172500D03*
X0164770Y0100000D03*
X0183770Y0100000D03*
D19*
X0107270Y0015500D03*
X0077270Y0015500D03*
D20*
X0081770Y0097500D03*
X0062770Y0097500D03*
X0071770Y0114500D03*
D21*
X0056270Y0040000D02*
X0056270Y0036000D01*
X0045770Y0018500D02*
X0041770Y0018500D01*
X0031770Y0036000D02*
X0031770Y0040000D01*
D22*
X0053770Y0059500D02*
X0057770Y0059500D01*
X0057770Y0063500D01*
X0053770Y0063500D02*
X0057770Y0059500D01*
X0096270Y0074000D02*
X0101270Y0074000D01*
X0105770Y0074000D01*
X0118770Y0061000D01*
X0118770Y0043000D01*
X0126270Y0035500D01*
X0152270Y0035500D01*
X0156770Y0031000D01*
X0156770Y0022500D01*
X0149770Y0015500D01*
X0159770Y0015500D02*
X0162770Y0018500D01*
X0162770Y0024500D01*
X0163270Y0024000D01*
X0253770Y0024000D01*
X0253770Y0026500D01*
X0253770Y0023500D01*
X0262270Y0050500D02*
X0265270Y0050500D01*
X0265270Y0060500D01*
X0274770Y0070000D01*
X0274770Y0099500D01*
X0268770Y0105500D01*
X0198770Y0073000D02*
X0198770Y0068500D01*
X0178770Y0048500D01*
X0178770Y0043000D01*
X0162770Y0032500D02*
X0162770Y0024500D01*
X0148770Y0027500D02*
X0146270Y0027500D01*
X0129770Y0027500D01*
X0129770Y0015500D01*
X0129770Y0027500D02*
X0122270Y0027500D01*
X0110270Y0039500D01*
X0110270Y0041500D01*
X0101270Y0050500D01*
X0096270Y0074000D02*
X0056770Y0113500D01*
X0056770Y0114500D01*
X0053270Y0114500D01*
X0071770Y0114500D02*
X0071770Y0156000D01*
X0062270Y0165500D01*
X0058770Y0165500D01*
X0055270Y0165500D01*
X0054770Y0165500D01*
D23*
X0052770Y0147500D02*
X0052770Y0144500D01*
X0052770Y0141500D02*
X0052770Y0138500D01*
X0095270Y0143000D02*
X0095270Y0110500D01*
X0090770Y0106000D01*
X0107270Y0116500D02*
X0108270Y0115500D01*
X0109770Y0115500D01*
X0112770Y0112500D01*
X0112770Y0074000D01*
X0126270Y0060500D01*
X0128770Y0060500D01*
X0128770Y0065500D02*
X0125270Y0065500D01*
X0115770Y0075000D01*
X0115770Y0114500D01*
X0117770Y0116500D01*
X0119270Y0126500D02*
X0128770Y0117000D01*
X0212770Y0117000D01*
X0215770Y0114000D01*
X0223270Y0114000D01*
X0228770Y0120000D02*
X0231270Y0117500D01*
X0228770Y0120000D02*
X0135770Y0120000D01*
X0133270Y0122500D01*
X0133270Y0130500D01*
X0130270Y0133500D01*
X0138270Y0138000D02*
X0142770Y0142500D01*
X0142770Y0152500D01*
X0138770Y0156500D01*
X0128270Y0163500D02*
X0117270Y0152500D01*
X0104770Y0152500D01*
X0095270Y0143000D01*
X0107270Y0146500D02*
X0127770Y0126000D01*
X0128270Y0126000D01*
X0138270Y0126000D02*
X0138270Y0138000D01*
X0128270Y0144500D02*
X0125770Y0146500D01*
X0117770Y0146500D01*
X0128270Y0163500D02*
X0128270Y0186500D01*
X0138770Y0186500D01*
X0118770Y0191500D02*
X0233770Y0191500D01*
X0234770Y0190500D01*
X0234770Y0099500D01*
X0224770Y0089500D01*
X0224770Y0078000D01*
X0223770Y0077000D01*
X0223770Y0069500D01*
X0213270Y0059000D01*
X0200770Y0059000D01*
X0189270Y0047500D01*
X0189270Y0043500D01*
X0188770Y0043000D01*
X0178770Y0073000D02*
X0178770Y0095000D01*
X0183770Y0100000D01*
X0191270Y0100000D01*
X0203770Y0112500D01*
X0229770Y0085500D02*
X0229770Y0081500D01*
X0233770Y0077500D01*
X0233770Y0069000D01*
X0236770Y0066000D01*
X0255270Y0066000D01*
X0258770Y0069500D01*
X0258770Y0073000D01*
X0263770Y0069500D02*
X0248770Y0054500D01*
X0248770Y0043000D01*
X0258770Y0043000D02*
X0258770Y0060000D01*
X0266770Y0068000D01*
X0266770Y0079500D01*
X0263770Y0082500D01*
X0263770Y0088000D01*
X0261270Y0090500D01*
X0256270Y0090500D01*
X0253770Y0093000D01*
X0253770Y0113500D01*
X0254770Y0114500D01*
X0254770Y0191500D01*
X0247770Y0198500D01*
X0086770Y0198500D01*
X0083770Y0201500D01*
X0083770Y0205500D01*
X0097770Y0195000D02*
X0240270Y0195000D01*
X0244770Y0190500D01*
X0244770Y0119500D01*
X0250770Y0113500D01*
X0250770Y0086000D01*
X0257270Y0079500D01*
X0261770Y0079500D01*
X0263770Y0077500D01*
X0263770Y0069500D01*
X0270270Y0076500D02*
X0270270Y0084000D01*
X0268770Y0085500D01*
X0168770Y0084500D02*
X0168770Y0073000D01*
X0168270Y0084000D02*
X0168770Y0084500D01*
X0168770Y0096000D01*
X0164770Y0100000D01*
X0168270Y0084000D02*
X0154270Y0084000D01*
X0138270Y0088500D02*
X0131270Y0095500D01*
X0120770Y0095500D01*
X0107270Y0066000D02*
X0107270Y0065500D01*
X0114270Y0058500D01*
X0114270Y0041500D01*
X0124270Y0031500D01*
X0150270Y0031500D01*
X0152770Y0029000D01*
X0152770Y0025500D01*
X0150270Y0023000D01*
X0143770Y0023000D01*
X0139770Y0019000D01*
X0139770Y0015500D01*
X0098770Y0172500D02*
X0108270Y0182000D01*
X0117270Y0182000D01*
D24*
X0118770Y0191500D03*
X0097770Y0195000D03*
X0077770Y0193000D03*
X0062270Y0165500D03*
X0058770Y0165500D03*
X0055270Y0165500D03*
X0052770Y0147500D03*
X0052770Y0144500D03*
X0052770Y0141500D03*
X0052770Y0138500D03*
X0064770Y0133000D03*
X0086270Y0136500D03*
X0107270Y0124500D03*
X0119270Y0126500D03*
X0130270Y0133500D03*
X0101270Y0100500D03*
X0088770Y0113500D03*
X0058770Y0103500D03*
X0050270Y0098500D03*
X0045270Y0098500D03*
X0045270Y0093500D03*
X0050270Y0093500D03*
X0069270Y0082500D03*
X0065270Y0071000D03*
X0057770Y0063500D03*
X0053770Y0063500D03*
X0053770Y0059500D03*
X0057770Y0059500D03*
X0022770Y0091500D03*
X0053270Y0114500D03*
X0056770Y0114500D03*
X0023270Y0130000D03*
X0107270Y0066000D03*
X0128770Y0065500D03*
X0128770Y0060500D03*
X0146270Y0027500D03*
X0149270Y0027500D03*
X0243770Y0049500D03*
X0262270Y0050500D03*
X0265270Y0050500D03*
X0273270Y0050500D03*
X0270270Y0073500D03*
X0270270Y0076500D03*
X0231270Y0117500D03*
X0253770Y0026500D03*
X0253770Y0023500D03*
D25*
X0256598Y0020672D02*
X0256753Y0020672D01*
X0257051Y0020969D02*
X0255700Y0019619D01*
X0254970Y0017855D01*
X0254970Y0013145D01*
X0255700Y0011381D01*
X0257051Y0010031D01*
X0258815Y0009300D01*
X0260724Y0009300D01*
X0262489Y0010031D01*
X0263839Y0011381D01*
X0264570Y0013145D01*
X0264570Y0017855D01*
X0263839Y0019619D01*
X0262489Y0020969D01*
X0260724Y0021700D01*
X0258815Y0021700D01*
X0257051Y0020969D01*
X0257161Y0021234D02*
X0257770Y0022704D01*
X0257770Y0027296D01*
X0257161Y0028766D01*
X0256035Y0029891D01*
X0254565Y0030500D01*
X0252974Y0030500D01*
X0251504Y0029891D01*
X0250379Y0028766D01*
X0250061Y0028000D01*
X0192775Y0028000D01*
X0195370Y0030595D01*
X0195370Y0034405D01*
X0192675Y0037100D01*
X0190449Y0037100D01*
X0191489Y0037531D01*
X0192839Y0038881D01*
X0193570Y0040645D01*
X0193570Y0045355D01*
X0192842Y0047112D01*
X0201929Y0056200D01*
X0213827Y0056200D01*
X0214856Y0056626D01*
X0215643Y0057414D01*
X0225905Y0067676D01*
X0226051Y0067531D01*
X0227815Y0066800D01*
X0229724Y0066800D01*
X0231368Y0067481D01*
X0231396Y0067414D01*
X0234396Y0064414D01*
X0235184Y0063626D01*
X0236213Y0063200D01*
X0253510Y0063200D01*
X0247184Y0056874D01*
X0246396Y0056086D01*
X0245970Y0055057D01*
X0245970Y0048388D01*
X0244700Y0047119D01*
X0243970Y0045355D01*
X0243970Y0040645D01*
X0244700Y0038881D01*
X0246051Y0037531D01*
X0247815Y0036800D01*
X0249724Y0036800D01*
X0251489Y0037531D01*
X0252839Y0038881D01*
X0253570Y0040645D01*
X0253570Y0045355D01*
X0252839Y0047119D01*
X0251570Y0048388D01*
X0251570Y0053340D01*
X0255970Y0057740D01*
X0255970Y0048388D01*
X0254700Y0047119D01*
X0253970Y0045355D01*
X0253970Y0040645D01*
X0254700Y0038881D01*
X0256051Y0037531D01*
X0257815Y0036800D01*
X0259724Y0036800D01*
X0261489Y0037531D01*
X0261726Y0037768D01*
X0261470Y0037151D01*
X0261470Y0033849D01*
X0262734Y0030799D01*
X0265069Y0028464D01*
X0268119Y0027201D01*
X0271420Y0027201D01*
X0274471Y0028464D01*
X0276805Y0030799D01*
X0277270Y0031920D01*
X0277270Y0026536D01*
X0268354Y0017619D01*
X0267650Y0016916D01*
X0267270Y0015997D01*
X0267270Y0009437D01*
X0267242Y0009157D01*
X0267027Y0008639D01*
X0266631Y0008242D01*
X0266113Y0008028D01*
X0265833Y0008000D01*
X0068350Y0008000D01*
X0069471Y0008464D01*
X0071805Y0010799D01*
X0072618Y0012760D01*
X0072737Y0012471D01*
X0074241Y0010967D01*
X0076206Y0010154D01*
X0078333Y0010154D01*
X0080298Y0010967D01*
X0081802Y0012471D01*
X0082616Y0014437D01*
X0082616Y0016563D01*
X0081802Y0018529D01*
X0080298Y0020032D01*
X0078333Y0020846D01*
X0076206Y0020846D01*
X0074241Y0020032D01*
X0072737Y0018529D01*
X0072618Y0018240D01*
X0071805Y0020201D01*
X0069471Y0022536D01*
X0066420Y0023799D01*
X0063119Y0023799D01*
X0060069Y0022536D01*
X0057734Y0020201D01*
X0056470Y0017151D01*
X0056470Y0013849D01*
X0057734Y0010799D01*
X0060069Y0008464D01*
X0061189Y0008000D01*
X0013707Y0008000D01*
X0013426Y0008028D01*
X0013112Y0008158D01*
X0012428Y0008842D01*
X0012297Y0009157D01*
X0012270Y0009437D01*
X0012270Y0188707D01*
X0012614Y0188234D01*
X0013103Y0187744D01*
X0013664Y0187337D01*
X0014281Y0187022D01*
X0014939Y0186808D01*
X0015623Y0186700D01*
X0017070Y0186700D01*
X0017070Y0190700D01*
X0017870Y0190700D01*
X0017870Y0191500D01*
X0023361Y0191500D01*
X0023261Y0192130D01*
X0023047Y0192789D01*
X0022733Y0193406D01*
X0022326Y0193966D01*
X0021836Y0194456D01*
X0021276Y0194863D01*
X0020659Y0195178D01*
X0020000Y0195392D01*
X0019316Y0195500D01*
X0017870Y0195500D01*
X0017870Y0191500D01*
X0017070Y0191500D01*
X0017070Y0195500D01*
X0015623Y0195500D01*
X0014939Y0195392D01*
X0014281Y0195178D01*
X0013664Y0194863D01*
X0013103Y0194456D01*
X0012614Y0193966D01*
X0012270Y0193493D01*
X0012270Y0205529D01*
X0013137Y0204661D01*
X0014975Y0203900D01*
X0019964Y0203900D01*
X0021802Y0204661D01*
X0023208Y0206068D01*
X0023970Y0207905D01*
X0023970Y0209895D01*
X0023208Y0211732D01*
X0021941Y0213000D01*
X0038599Y0213000D01*
X0037331Y0211732D01*
X0036570Y0209895D01*
X0036570Y0207905D01*
X0037331Y0206068D01*
X0038737Y0204661D01*
X0040575Y0203900D01*
X0045564Y0203900D01*
X0047402Y0204661D01*
X0048808Y0206068D01*
X0049570Y0207905D01*
X0049570Y0209895D01*
X0048808Y0211732D01*
X0047541Y0213000D01*
X0066189Y0213000D01*
X0065069Y0212536D01*
X0062734Y0210201D01*
X0061470Y0207151D01*
X0061470Y0203849D01*
X0062734Y0200799D01*
X0065069Y0198464D01*
X0068119Y0197201D01*
X0071420Y0197201D01*
X0074471Y0198464D01*
X0074807Y0198800D01*
X0082510Y0198800D01*
X0085184Y0196126D01*
X0086213Y0195700D01*
X0094596Y0195700D01*
X0094570Y0195637D01*
X0094570Y0194363D01*
X0095057Y0193187D01*
X0095957Y0192287D01*
X0097133Y0191800D01*
X0098406Y0191800D01*
X0099372Y0192200D01*
X0109373Y0192200D01*
X0110570Y0191003D01*
X0111273Y0190300D01*
X0115803Y0190300D01*
X0116057Y0189687D01*
X0116957Y0188787D01*
X0118133Y0188300D01*
X0119406Y0188300D01*
X0120372Y0188700D01*
X0123873Y0188700D01*
X0123918Y0188654D01*
X0123670Y0188405D01*
X0123670Y0184595D01*
X0125470Y0182795D01*
X0125470Y0164660D01*
X0121270Y0160460D01*
X0121270Y0161600D01*
X0117670Y0161600D01*
X0117670Y0162400D01*
X0121270Y0162400D01*
X0121270Y0163657D01*
X0118927Y0166000D01*
X0117670Y0166000D01*
X0117670Y0162400D01*
X0116870Y0162400D01*
X0116870Y0166000D01*
X0115613Y0166000D01*
X0113270Y0163657D01*
X0113270Y0162400D01*
X0116870Y0162400D01*
X0116870Y0161600D01*
X0117670Y0161600D01*
X0117670Y0158000D01*
X0118810Y0158000D01*
X0116110Y0155300D01*
X0105770Y0155300D01*
X0105770Y0156100D01*
X0102170Y0156100D01*
X0102170Y0156900D01*
X0105770Y0156900D01*
X0105770Y0158157D01*
X0103427Y0160500D01*
X0102170Y0160500D01*
X0102170Y0156900D01*
X0101370Y0156900D01*
X0101370Y0160500D01*
X0100113Y0160500D01*
X0097770Y0158157D01*
X0097770Y0156900D01*
X0101370Y0156900D01*
X0101370Y0156100D01*
X0097770Y0156100D01*
X0097770Y0154843D01*
X0100113Y0152500D01*
X0100810Y0152500D01*
X0092896Y0144586D01*
X0092470Y0143557D01*
X0092470Y0111660D01*
X0091410Y0110600D01*
X0088864Y0110600D01*
X0086170Y0107905D01*
X0086170Y0104095D01*
X0088864Y0101400D01*
X0092675Y0101400D01*
X0095370Y0104095D01*
X0095370Y0106640D01*
X0096856Y0108126D01*
X0097643Y0108914D01*
X0098070Y0109943D01*
X0098070Y0141840D01*
X0102670Y0146440D01*
X0102670Y0144595D01*
X0105364Y0141900D01*
X0107910Y0141900D01*
X0120254Y0129556D01*
X0119906Y0129700D01*
X0118633Y0129700D01*
X0117457Y0129213D01*
X0116557Y0128313D01*
X0116070Y0127137D01*
X0116070Y0125863D01*
X0116557Y0124687D01*
X0117457Y0123787D01*
X0118423Y0123387D01*
X0127184Y0114626D01*
X0128213Y0114200D01*
X0199170Y0114200D01*
X0199170Y0111860D01*
X0190110Y0102800D01*
X0187475Y0102800D01*
X0186375Y0103900D01*
X0184685Y0104600D01*
X0182855Y0104600D01*
X0181164Y0103900D01*
X0179870Y0102606D01*
X0179170Y0100915D01*
X0179170Y0099360D01*
X0176396Y0096586D01*
X0175970Y0095557D01*
X0175970Y0087957D01*
X0175927Y0088000D01*
X0174670Y0088000D01*
X0174670Y0084400D01*
X0173870Y0084400D01*
X0173870Y0088000D01*
X0172613Y0088000D01*
X0171570Y0086957D01*
X0171570Y0096557D01*
X0171143Y0097586D01*
X0169370Y0099360D01*
X0169370Y0100915D01*
X0168669Y0102606D01*
X0167375Y0103900D01*
X0165685Y0104600D01*
X0163855Y0104600D01*
X0162164Y0103900D01*
X0160870Y0102606D01*
X0160170Y0100915D01*
X0160170Y0099085D01*
X0160870Y0097394D01*
X0162164Y0096100D01*
X0163855Y0095400D01*
X0165410Y0095400D01*
X0165970Y0094840D01*
X0165970Y0086800D01*
X0157975Y0086800D01*
X0156175Y0088600D01*
X0152364Y0088600D01*
X0149670Y0085905D01*
X0149670Y0082095D01*
X0152364Y0079400D01*
X0156175Y0079400D01*
X0157975Y0081200D01*
X0165970Y0081200D01*
X0165970Y0078388D01*
X0164700Y0077119D01*
X0163970Y0075355D01*
X0163970Y0070645D01*
X0164700Y0068881D01*
X0166051Y0067531D01*
X0167815Y0066800D01*
X0169724Y0066800D01*
X0171489Y0067531D01*
X0172839Y0068881D01*
X0173570Y0070645D01*
X0173570Y0075355D01*
X0172839Y0077119D01*
X0171570Y0078388D01*
X0171570Y0081043D01*
X0172613Y0080000D01*
X0173870Y0080000D01*
X0173870Y0083600D01*
X0174670Y0083600D01*
X0174670Y0080000D01*
X0175927Y0080000D01*
X0175970Y0080043D01*
X0175970Y0078388D01*
X0174700Y0077119D01*
X0173970Y0075355D01*
X0173970Y0070645D01*
X0174700Y0068881D01*
X0176051Y0067531D01*
X0177815Y0066800D01*
X0179724Y0066800D01*
X0181489Y0067531D01*
X0182839Y0068881D01*
X0183570Y0070645D01*
X0183570Y0075355D01*
X0182839Y0077119D01*
X0181570Y0078388D01*
X0181570Y0080543D01*
X0182113Y0080000D01*
X0183370Y0080000D01*
X0183370Y0083600D01*
X0184170Y0083600D01*
X0184170Y0084400D01*
X0187770Y0084400D01*
X0187770Y0085657D01*
X0185427Y0088000D01*
X0184170Y0088000D01*
X0184170Y0084400D01*
X0183370Y0084400D01*
X0183370Y0088000D01*
X0182113Y0088000D01*
X0181570Y0087457D01*
X0181570Y0093840D01*
X0183129Y0095400D01*
X0184685Y0095400D01*
X0186375Y0096100D01*
X0187475Y0097200D01*
X0191827Y0097200D01*
X0192856Y0097626D01*
X0203129Y0107900D01*
X0205675Y0107900D01*
X0208370Y0110595D01*
X0208370Y0114200D01*
X0211170Y0114200D01*
X0211170Y0112095D01*
X0213864Y0109400D01*
X0217675Y0109400D01*
X0219475Y0111200D01*
X0219564Y0111200D01*
X0221364Y0109400D01*
X0225175Y0109400D01*
X0227870Y0112095D01*
X0227870Y0115905D01*
X0226575Y0117200D01*
X0227610Y0117200D01*
X0228157Y0116653D01*
X0228557Y0115687D01*
X0229457Y0114787D01*
X0230633Y0114300D01*
X0231906Y0114300D01*
X0231970Y0114326D01*
X0231970Y0100660D01*
X0223184Y0091874D01*
X0222396Y0091086D01*
X0221970Y0090057D01*
X0221970Y0079160D01*
X0221396Y0078586D01*
X0221368Y0078519D01*
X0219724Y0079200D01*
X0217815Y0079200D01*
X0216051Y0078469D01*
X0214700Y0077119D01*
X0213970Y0075355D01*
X0213970Y0070645D01*
X0214700Y0068881D01*
X0216051Y0067531D01*
X0217316Y0067006D01*
X0212110Y0061800D01*
X0200213Y0061800D01*
X0199184Y0061374D01*
X0198396Y0060586D01*
X0186896Y0049086D01*
X0186763Y0048764D01*
X0186051Y0048469D01*
X0184700Y0047119D01*
X0183970Y0045355D01*
X0183970Y0040645D01*
X0184700Y0038881D01*
X0186051Y0037531D01*
X0187815Y0036800D01*
X0188564Y0036800D01*
X0186345Y0034581D01*
X0184427Y0036500D01*
X0183170Y0036500D01*
X0183170Y0032900D01*
X0182370Y0032900D01*
X0182370Y0036500D01*
X0181113Y0036500D01*
X0178770Y0034157D01*
X0178770Y0032900D01*
X0182370Y0032900D01*
X0182370Y0032100D01*
X0183170Y0032100D01*
X0183170Y0028500D01*
X0184427Y0028500D01*
X0186345Y0030419D01*
X0188764Y0028000D01*
X0166770Y0028000D01*
X0166770Y0029995D01*
X0167370Y0030595D01*
X0167370Y0034405D01*
X0164675Y0037100D01*
X0160864Y0037100D01*
X0158595Y0034831D01*
X0154535Y0038891D01*
X0153091Y0039489D01*
X0153570Y0040645D01*
X0153570Y0045355D01*
X0152839Y0047119D01*
X0151489Y0048469D01*
X0149724Y0049200D01*
X0147815Y0049200D01*
X0146051Y0048469D01*
X0144700Y0047119D01*
X0143970Y0045355D01*
X0143970Y0040645D01*
X0144444Y0039500D01*
X0143095Y0039500D01*
X0143570Y0040645D01*
X0143570Y0045355D01*
X0142839Y0047119D01*
X0141489Y0048469D01*
X0139724Y0049200D01*
X0137815Y0049200D01*
X0136051Y0048469D01*
X0134700Y0047119D01*
X0133970Y0045355D01*
X0133970Y0040645D01*
X0134444Y0039500D01*
X0133095Y0039500D01*
X0133570Y0040645D01*
X0133570Y0045355D01*
X0132839Y0047119D01*
X0131489Y0048469D01*
X0129724Y0049200D01*
X0127815Y0049200D01*
X0126051Y0048469D01*
X0124700Y0047119D01*
X0123970Y0045355D01*
X0123970Y0043457D01*
X0122770Y0044657D01*
X0122770Y0060040D01*
X0123896Y0058914D01*
X0124684Y0058126D01*
X0125713Y0057700D01*
X0127167Y0057700D01*
X0128133Y0057300D01*
X0129406Y0057300D01*
X0130582Y0057787D01*
X0131483Y0058687D01*
X0131970Y0059863D01*
X0131970Y0061137D01*
X0131483Y0062313D01*
X0130795Y0063000D01*
X0131483Y0063687D01*
X0131970Y0064863D01*
X0131970Y0066137D01*
X0131483Y0067313D01*
X0131330Y0067465D01*
X0131489Y0067531D01*
X0132839Y0068881D01*
X0133570Y0070645D01*
X0133570Y0075355D01*
X0132839Y0077119D01*
X0131489Y0078469D01*
X0129724Y0079200D01*
X0127815Y0079200D01*
X0126051Y0078469D01*
X0124700Y0077119D01*
X0123970Y0075355D01*
X0123970Y0070760D01*
X0118570Y0076160D01*
X0118570Y0091195D01*
X0118864Y0090900D01*
X0122675Y0090900D01*
X0124475Y0092700D01*
X0130110Y0092700D01*
X0133670Y0089140D01*
X0133670Y0086595D01*
X0136364Y0083900D01*
X0140175Y0083900D01*
X0142870Y0086595D01*
X0142870Y0090405D01*
X0140175Y0093100D01*
X0137629Y0093100D01*
X0132856Y0097874D01*
X0131827Y0098300D01*
X0124475Y0098300D01*
X0122675Y0100100D01*
X0118864Y0100100D01*
X0118570Y0099805D01*
X0118570Y0101695D01*
X0118864Y0101400D01*
X0122675Y0101400D01*
X0125370Y0104095D01*
X0125370Y0104743D01*
X0126613Y0103500D01*
X0127870Y0103500D01*
X0127870Y0107100D01*
X0128670Y0107100D01*
X0128670Y0107900D01*
X0132270Y0107900D01*
X0132270Y0109157D01*
X0129927Y0111500D01*
X0128670Y0111500D01*
X0128670Y0107900D01*
X0127870Y0107900D01*
X0127870Y0111500D01*
X0126613Y0111500D01*
X0124270Y0109157D01*
X0124270Y0109005D01*
X0122675Y0110600D01*
X0118864Y0110600D01*
X0118570Y0110305D01*
X0118570Y0111900D01*
X0119675Y0111900D01*
X0122370Y0114595D01*
X0122370Y0118405D01*
X0119675Y0121100D01*
X0115864Y0121100D01*
X0113170Y0118405D01*
X0113170Y0116060D01*
X0112143Y0117086D01*
X0111870Y0117360D01*
X0111870Y0118405D01*
X0109175Y0121100D01*
X0105364Y0121100D01*
X0102670Y0118405D01*
X0102670Y0114595D01*
X0105364Y0111900D01*
X0109175Y0111900D01*
X0109292Y0112017D01*
X0109970Y0111340D01*
X0109970Y0075457D01*
X0108035Y0077391D01*
X0106565Y0078000D01*
X0104553Y0078000D01*
X0104187Y0078366D01*
X0102294Y0079150D01*
X0100245Y0079150D01*
X0098352Y0078366D01*
X0097986Y0078000D01*
X0097927Y0078000D01*
X0083427Y0092500D01*
X0083841Y0092500D01*
X0086170Y0094829D01*
X0086170Y0093595D01*
X0088864Y0090900D01*
X0092675Y0090900D01*
X0095370Y0093595D01*
X0095370Y0097405D01*
X0092675Y0100100D01*
X0088864Y0100100D01*
X0086770Y0098005D01*
X0086770Y0099571D01*
X0083841Y0102500D01*
X0079699Y0102500D01*
X0076770Y0099571D01*
X0076770Y0099157D01*
X0060770Y0115157D01*
X0060770Y0115296D01*
X0060161Y0116766D01*
X0059035Y0117891D01*
X0057565Y0118500D01*
X0052474Y0118500D01*
X0051004Y0117891D01*
X0049879Y0116766D01*
X0049270Y0115296D01*
X0049270Y0113704D01*
X0049879Y0112234D01*
X0051004Y0111109D01*
X0052474Y0110500D01*
X0054113Y0110500D01*
X0054504Y0110109D01*
X0062113Y0102500D01*
X0060699Y0102500D01*
X0057770Y0099571D01*
X0057770Y0095429D01*
X0060699Y0092500D01*
X0064841Y0092500D01*
X0067770Y0095429D01*
X0067770Y0096843D01*
X0094004Y0070609D01*
X0095474Y0070000D01*
X0097986Y0070000D01*
X0098352Y0069634D01*
X0100245Y0068850D01*
X0102294Y0068850D01*
X0104187Y0069634D01*
X0104333Y0069780D01*
X0105429Y0068684D01*
X0104557Y0067813D01*
X0104070Y0066637D01*
X0104070Y0065363D01*
X0104557Y0064187D01*
X0105457Y0063287D01*
X0105569Y0063241D01*
X0111470Y0057340D01*
X0111470Y0045957D01*
X0106420Y0051007D01*
X0106420Y0051524D01*
X0105636Y0053417D01*
X0104187Y0054866D01*
X0102294Y0055650D01*
X0100245Y0055650D01*
X0098352Y0054866D01*
X0096904Y0053417D01*
X0096120Y0051524D01*
X0096120Y0049476D01*
X0096904Y0047583D01*
X0098352Y0046134D01*
X0100245Y0045350D01*
X0100763Y0045350D01*
X0106270Y0039843D01*
X0106270Y0038704D01*
X0106879Y0037234D01*
X0120004Y0024109D01*
X0121474Y0023500D01*
X0125770Y0023500D01*
X0125770Y0019688D01*
X0125700Y0019619D01*
X0124970Y0017855D01*
X0124970Y0013145D01*
X0125700Y0011381D01*
X0127051Y0010031D01*
X0128815Y0009300D01*
X0130724Y0009300D01*
X0132489Y0010031D01*
X0133839Y0011381D01*
X0134570Y0013145D01*
X0134570Y0017855D01*
X0133839Y0019619D01*
X0133770Y0019688D01*
X0133770Y0023500D01*
X0140310Y0023500D01*
X0138294Y0021484D01*
X0137051Y0020969D01*
X0135700Y0019619D01*
X0134970Y0017855D01*
X0134970Y0013145D01*
X0135700Y0011381D01*
X0137051Y0010031D01*
X0138815Y0009300D01*
X0140724Y0009300D01*
X0142489Y0010031D01*
X0143839Y0011381D01*
X0144570Y0013145D01*
X0144570Y0017855D01*
X0143988Y0019259D01*
X0144929Y0020200D01*
X0146281Y0020200D01*
X0145700Y0019619D01*
X0144970Y0017855D01*
X0144970Y0013145D01*
X0145700Y0011381D01*
X0147051Y0010031D01*
X0148815Y0009300D01*
X0150724Y0009300D01*
X0152489Y0010031D01*
X0153839Y0011381D01*
X0154570Y0013145D01*
X0154570Y0014643D01*
X0154970Y0015043D01*
X0154970Y0013145D01*
X0155700Y0011381D01*
X0157051Y0010031D01*
X0158815Y0009300D01*
X0160724Y0009300D01*
X0162489Y0010031D01*
X0163839Y0011381D01*
X0164570Y0013145D01*
X0164570Y0014643D01*
X0165827Y0015900D01*
X0169370Y0015900D01*
X0169370Y0015100D01*
X0170170Y0015100D01*
X0170170Y0015900D01*
X0173970Y0015900D01*
X0173970Y0017231D01*
X0173866Y0017884D01*
X0173662Y0018512D01*
X0173362Y0019101D01*
X0172973Y0019636D01*
X0172609Y0020000D01*
X0176930Y0020000D01*
X0176566Y0019636D01*
X0176178Y0019101D01*
X0175877Y0018512D01*
X0175673Y0017884D01*
X0175570Y0017231D01*
X0175570Y0015900D01*
X0179370Y0015900D01*
X0179370Y0015100D01*
X0180170Y0015100D01*
X0180170Y0015900D01*
X0183970Y0015900D01*
X0183970Y0017231D01*
X0183866Y0017884D01*
X0183662Y0018512D01*
X0183362Y0019101D01*
X0182973Y0019636D01*
X0182609Y0020000D01*
X0186081Y0020000D01*
X0185700Y0019619D01*
X0184970Y0017855D01*
X0184970Y0013145D01*
X0185700Y0011381D01*
X0187051Y0010031D01*
X0188815Y0009300D01*
X0190724Y0009300D01*
X0192489Y0010031D01*
X0193839Y0011381D01*
X0194570Y0013145D01*
X0194570Y0017855D01*
X0193839Y0019619D01*
X0193458Y0020000D01*
X0206081Y0020000D01*
X0205700Y0019619D01*
X0204970Y0017855D01*
X0204970Y0013145D01*
X0205700Y0011381D01*
X0207051Y0010031D01*
X0208815Y0009300D01*
X0210724Y0009300D01*
X0212489Y0010031D01*
X0213839Y0011381D01*
X0214570Y0013145D01*
X0214570Y0017855D01*
X0213839Y0019619D01*
X0213458Y0020000D01*
X0216081Y0020000D01*
X0215700Y0019619D01*
X0214970Y0017855D01*
X0214970Y0013145D01*
X0215700Y0011381D01*
X0217051Y0010031D01*
X0218815Y0009300D01*
X0220724Y0009300D01*
X0222489Y0010031D01*
X0223839Y0011381D01*
X0224570Y0013145D01*
X0224570Y0017855D01*
X0223839Y0019619D01*
X0223458Y0020000D01*
X0226081Y0020000D01*
X0225700Y0019619D01*
X0224970Y0017855D01*
X0224970Y0013145D01*
X0225700Y0011381D01*
X0227051Y0010031D01*
X0228815Y0009300D01*
X0230724Y0009300D01*
X0232489Y0010031D01*
X0233839Y0011381D01*
X0234570Y0013145D01*
X0234570Y0017855D01*
X0233839Y0019619D01*
X0233458Y0020000D01*
X0236081Y0020000D01*
X0235700Y0019619D01*
X0234970Y0017855D01*
X0234970Y0013145D01*
X0235700Y0011381D01*
X0237051Y0010031D01*
X0238815Y0009300D01*
X0240724Y0009300D01*
X0242489Y0010031D01*
X0243839Y0011381D01*
X0244570Y0013145D01*
X0244570Y0017855D01*
X0243839Y0019619D01*
X0243458Y0020000D01*
X0246081Y0020000D01*
X0245700Y0019619D01*
X0244970Y0017855D01*
X0244970Y0013145D01*
X0245700Y0011381D01*
X0247051Y0010031D01*
X0248815Y0009300D01*
X0250724Y0009300D01*
X0252489Y0010031D01*
X0253839Y0011381D01*
X0254570Y0013145D01*
X0254570Y0017855D01*
X0253888Y0019500D01*
X0254565Y0019500D01*
X0256035Y0020109D01*
X0257161Y0021234D01*
X0257258Y0021470D02*
X0258260Y0021470D01*
X0257589Y0022269D02*
X0273003Y0022269D01*
X0273801Y0023067D02*
X0257770Y0023067D01*
X0257770Y0023866D02*
X0274600Y0023866D01*
X0275398Y0024664D02*
X0257770Y0024664D01*
X0257770Y0025463D02*
X0276197Y0025463D01*
X0276995Y0026261D02*
X0257770Y0026261D01*
X0257770Y0027060D02*
X0277270Y0027060D01*
X0277270Y0027858D02*
X0273008Y0027858D01*
X0274663Y0028657D02*
X0277270Y0028657D01*
X0277270Y0029455D02*
X0275462Y0029455D01*
X0276260Y0030254D02*
X0277270Y0030254D01*
X0277270Y0031052D02*
X0276910Y0031052D01*
X0277241Y0031851D02*
X0277270Y0031851D01*
X0277270Y0039080D02*
X0276805Y0040201D01*
X0274471Y0042536D01*
X0271420Y0043799D01*
X0268119Y0043799D01*
X0265069Y0042536D01*
X0263570Y0041037D01*
X0263570Y0045355D01*
X0263095Y0046500D01*
X0266065Y0046500D01*
X0267535Y0047109D01*
X0268661Y0048234D01*
X0269270Y0049704D01*
X0269270Y0058843D01*
X0277035Y0066609D01*
X0277035Y0066609D01*
X0277270Y0066843D01*
X0277270Y0039080D01*
X0277270Y0039836D02*
X0276957Y0039836D01*
X0277270Y0040634D02*
X0276372Y0040634D01*
X0275574Y0041433D02*
X0277270Y0041433D01*
X0277270Y0042232D02*
X0274775Y0042232D01*
X0273277Y0043030D02*
X0277270Y0043030D01*
X0277270Y0043829D02*
X0263570Y0043829D01*
X0263570Y0044627D02*
X0277270Y0044627D01*
X0277270Y0045426D02*
X0263540Y0045426D01*
X0263210Y0046224D02*
X0277270Y0046224D01*
X0277270Y0047023D02*
X0267327Y0047023D01*
X0268248Y0047821D02*
X0277270Y0047821D01*
X0277270Y0048620D02*
X0268820Y0048620D01*
X0269151Y0049418D02*
X0277270Y0049418D01*
X0277270Y0050217D02*
X0269270Y0050217D01*
X0269270Y0051015D02*
X0277270Y0051015D01*
X0277270Y0051814D02*
X0269270Y0051814D01*
X0269270Y0052612D02*
X0277270Y0052612D01*
X0277270Y0053411D02*
X0269270Y0053411D01*
X0269270Y0054209D02*
X0277270Y0054209D01*
X0277270Y0055008D02*
X0269270Y0055008D01*
X0269270Y0055806D02*
X0277270Y0055806D01*
X0277270Y0056605D02*
X0269270Y0056605D01*
X0269270Y0057403D02*
X0277270Y0057403D01*
X0277270Y0058202D02*
X0269270Y0058202D01*
X0269427Y0059000D02*
X0277270Y0059000D01*
X0277270Y0059799D02*
X0270225Y0059799D01*
X0271024Y0060597D02*
X0277270Y0060597D01*
X0277270Y0061396D02*
X0271822Y0061396D01*
X0272621Y0062194D02*
X0277270Y0062194D01*
X0277270Y0062993D02*
X0273419Y0062993D01*
X0274218Y0063791D02*
X0277270Y0063791D01*
X0277270Y0064590D02*
X0275016Y0064590D01*
X0275815Y0065388D02*
X0277270Y0065388D01*
X0277270Y0066187D02*
X0276613Y0066187D01*
X0270091Y0070978D02*
X0269570Y0070978D01*
X0269570Y0070457D02*
X0269570Y0080057D01*
X0269143Y0081086D01*
X0268370Y0081860D01*
X0268370Y0085100D01*
X0269170Y0085100D01*
X0269170Y0081049D01*
X0270613Y0081049D01*
X0270770Y0081205D01*
X0270770Y0071657D01*
X0269570Y0070457D01*
X0269570Y0071776D02*
X0270770Y0071776D01*
X0270770Y0072575D02*
X0269570Y0072575D01*
X0269570Y0073373D02*
X0270770Y0073373D01*
X0270770Y0074172D02*
X0269570Y0074172D01*
X0269570Y0074970D02*
X0270770Y0074970D01*
X0270770Y0075769D02*
X0269570Y0075769D01*
X0269570Y0076568D02*
X0270770Y0076568D01*
X0270770Y0077366D02*
X0269570Y0077366D01*
X0269570Y0078165D02*
X0270770Y0078165D01*
X0270770Y0078963D02*
X0269570Y0078963D01*
X0269570Y0079762D02*
X0270770Y0079762D01*
X0270770Y0080560D02*
X0269361Y0080560D01*
X0269170Y0081359D02*
X0268871Y0081359D01*
X0269170Y0082157D02*
X0268370Y0082157D01*
X0268370Y0082956D02*
X0269170Y0082956D01*
X0269170Y0083754D02*
X0268370Y0083754D01*
X0268370Y0084553D02*
X0269170Y0084553D01*
X0253303Y0062993D02*
X0221222Y0062993D01*
X0220424Y0062194D02*
X0252504Y0062194D01*
X0251706Y0061396D02*
X0219625Y0061396D01*
X0218827Y0060597D02*
X0250907Y0060597D01*
X0250109Y0059799D02*
X0218028Y0059799D01*
X0217230Y0059000D02*
X0249310Y0059000D01*
X0248512Y0058202D02*
X0216431Y0058202D01*
X0215633Y0057403D02*
X0247713Y0057403D01*
X0246915Y0056605D02*
X0214804Y0056605D01*
X0212504Y0062194D02*
X0198121Y0062194D01*
X0197322Y0061396D02*
X0199237Y0061396D01*
X0198407Y0060597D02*
X0196524Y0060597D01*
X0195725Y0059799D02*
X0197609Y0059799D01*
X0196810Y0059000D02*
X0194927Y0059000D01*
X0194128Y0058202D02*
X0196012Y0058202D01*
X0195213Y0057403D02*
X0193330Y0057403D01*
X0192531Y0056605D02*
X0194415Y0056605D01*
X0193616Y0055806D02*
X0191733Y0055806D01*
X0190934Y0055008D02*
X0192818Y0055008D01*
X0192019Y0054209D02*
X0190136Y0054209D01*
X0189337Y0053411D02*
X0191221Y0053411D01*
X0190422Y0052612D02*
X0188539Y0052612D01*
X0187740Y0051814D02*
X0189624Y0051814D01*
X0188825Y0051015D02*
X0186942Y0051015D01*
X0186143Y0050217D02*
X0188027Y0050217D01*
X0187228Y0049418D02*
X0185345Y0049418D01*
X0184546Y0048620D02*
X0186414Y0048620D01*
X0185403Y0047821D02*
X0183748Y0047821D01*
X0182949Y0047023D02*
X0184661Y0047023D01*
X0184330Y0046224D02*
X0183210Y0046224D01*
X0182899Y0046973D02*
X0183570Y0045355D01*
X0183570Y0040645D01*
X0182839Y0038881D01*
X0181489Y0037531D01*
X0179724Y0036800D01*
X0177815Y0036800D01*
X0176051Y0037531D01*
X0174700Y0038881D01*
X0173970Y0040645D01*
X0173970Y0045355D01*
X0174700Y0047119D01*
X0174770Y0047188D01*
X0174770Y0049296D01*
X0175379Y0050766D01*
X0176504Y0051891D01*
X0194347Y0069734D01*
X0193970Y0070645D01*
X0193970Y0075355D01*
X0194700Y0077119D01*
X0196051Y0078469D01*
X0197815Y0079200D01*
X0199724Y0079200D01*
X0201489Y0078469D01*
X0202839Y0077119D01*
X0203570Y0075355D01*
X0203570Y0070645D01*
X0202839Y0068881D01*
X0202770Y0068812D01*
X0202770Y0067704D01*
X0202161Y0066234D01*
X0182899Y0046973D01*
X0183540Y0045426D02*
X0183999Y0045426D01*
X0183970Y0044627D02*
X0183570Y0044627D01*
X0183570Y0043829D02*
X0183970Y0043829D01*
X0183970Y0043030D02*
X0183570Y0043030D01*
X0183570Y0042232D02*
X0183970Y0042232D01*
X0183970Y0041433D02*
X0183570Y0041433D01*
X0183565Y0040634D02*
X0183974Y0040634D01*
X0184305Y0039836D02*
X0183234Y0039836D01*
X0182904Y0039037D02*
X0184636Y0039037D01*
X0185342Y0038239D02*
X0182197Y0038239D01*
X0181271Y0037440D02*
X0186269Y0037440D01*
X0185083Y0035843D02*
X0187608Y0035843D01*
X0186809Y0035045D02*
X0185882Y0035045D01*
X0183170Y0035045D02*
X0182370Y0035045D01*
X0182370Y0035843D02*
X0183170Y0035843D01*
X0183170Y0034246D02*
X0182370Y0034246D01*
X0182370Y0033448D02*
X0183170Y0033448D01*
X0182370Y0032649D02*
X0167370Y0032649D01*
X0167370Y0031851D02*
X0178770Y0031851D01*
X0178770Y0032100D02*
X0178770Y0030843D01*
X0181113Y0028500D01*
X0182370Y0028500D01*
X0182370Y0032100D01*
X0178770Y0032100D01*
X0178770Y0031052D02*
X0167370Y0031052D01*
X0167029Y0030254D02*
X0179359Y0030254D01*
X0180157Y0029455D02*
X0166770Y0029455D01*
X0166770Y0028657D02*
X0180956Y0028657D01*
X0182370Y0028657D02*
X0183170Y0028657D01*
X0183170Y0029455D02*
X0182370Y0029455D01*
X0182370Y0030254D02*
X0183170Y0030254D01*
X0183170Y0031052D02*
X0182370Y0031052D01*
X0182370Y0031851D02*
X0183170Y0031851D01*
X0185382Y0029455D02*
X0187309Y0029455D01*
X0188107Y0028657D02*
X0184583Y0028657D01*
X0186180Y0030254D02*
X0186510Y0030254D01*
X0193432Y0028657D02*
X0208956Y0028657D01*
X0209113Y0028500D02*
X0210370Y0028500D01*
X0210370Y0032100D01*
X0211170Y0032100D01*
X0211170Y0032900D01*
X0214770Y0032900D01*
X0214770Y0034157D01*
X0212427Y0036500D01*
X0211170Y0036500D01*
X0211170Y0032900D01*
X0210370Y0032900D01*
X0210370Y0036500D01*
X0209113Y0036500D01*
X0206770Y0034157D01*
X0206770Y0032900D01*
X0210370Y0032900D01*
X0210370Y0032100D01*
X0206770Y0032100D01*
X0206770Y0030843D01*
X0209113Y0028500D01*
X0210370Y0028657D02*
X0211170Y0028657D01*
X0211170Y0028500D02*
X0212427Y0028500D01*
X0214770Y0030843D01*
X0214770Y0032100D01*
X0211170Y0032100D01*
X0211170Y0028500D01*
X0211170Y0029455D02*
X0210370Y0029455D01*
X0210370Y0030254D02*
X0211170Y0030254D01*
X0211170Y0031052D02*
X0210370Y0031052D01*
X0210370Y0031851D02*
X0211170Y0031851D01*
X0211170Y0032649D02*
X0261967Y0032649D01*
X0262298Y0031851D02*
X0214770Y0031851D01*
X0214770Y0031052D02*
X0262629Y0031052D01*
X0263279Y0030254D02*
X0255160Y0030254D01*
X0256471Y0029455D02*
X0264077Y0029455D01*
X0264876Y0028657D02*
X0257206Y0028657D01*
X0257537Y0027858D02*
X0266531Y0027858D01*
X0261637Y0033448D02*
X0214770Y0033448D01*
X0214680Y0034246D02*
X0261470Y0034246D01*
X0261470Y0035045D02*
X0213882Y0035045D01*
X0213083Y0035843D02*
X0261470Y0035843D01*
X0261470Y0036642D02*
X0193133Y0036642D01*
X0193932Y0035843D02*
X0208456Y0035843D01*
X0207658Y0035045D02*
X0194730Y0035045D01*
X0195370Y0034246D02*
X0206859Y0034246D01*
X0206770Y0033448D02*
X0195370Y0033448D01*
X0195370Y0032649D02*
X0210370Y0032649D01*
X0210370Y0033448D02*
X0211170Y0033448D01*
X0211170Y0034246D02*
X0210370Y0034246D01*
X0210370Y0035045D02*
X0211170Y0035045D01*
X0211170Y0035843D02*
X0210370Y0035843D01*
X0209724Y0036800D02*
X0211489Y0037531D01*
X0212839Y0038881D01*
X0213570Y0040645D01*
X0213570Y0045355D01*
X0212839Y0047119D01*
X0211489Y0048469D01*
X0209724Y0049200D01*
X0207815Y0049200D01*
X0206051Y0048469D01*
X0204700Y0047119D01*
X0203970Y0045355D01*
X0203970Y0040645D01*
X0204700Y0038881D01*
X0206051Y0037531D01*
X0207815Y0036800D01*
X0209724Y0036800D01*
X0211271Y0037440D02*
X0216269Y0037440D01*
X0216051Y0037531D02*
X0217815Y0036800D01*
X0219724Y0036800D01*
X0221489Y0037531D01*
X0222839Y0038881D01*
X0223570Y0040645D01*
X0223570Y0045355D01*
X0222839Y0047119D01*
X0221489Y0048469D01*
X0219724Y0049200D01*
X0217815Y0049200D01*
X0216051Y0048469D01*
X0214700Y0047119D01*
X0213970Y0045355D01*
X0213970Y0040645D01*
X0214700Y0038881D01*
X0216051Y0037531D01*
X0215342Y0038239D02*
X0212197Y0038239D01*
X0212904Y0039037D02*
X0214636Y0039037D01*
X0214305Y0039836D02*
X0213234Y0039836D01*
X0213565Y0040634D02*
X0213974Y0040634D01*
X0213970Y0041433D02*
X0213570Y0041433D01*
X0213570Y0042232D02*
X0213970Y0042232D01*
X0213970Y0043030D02*
X0213570Y0043030D01*
X0213570Y0043829D02*
X0213970Y0043829D01*
X0213970Y0044627D02*
X0213570Y0044627D01*
X0213540Y0045426D02*
X0213999Y0045426D01*
X0214330Y0046224D02*
X0213210Y0046224D01*
X0212879Y0047023D02*
X0214661Y0047023D01*
X0215403Y0047821D02*
X0212137Y0047821D01*
X0211126Y0048620D02*
X0216414Y0048620D01*
X0221126Y0048620D02*
X0226414Y0048620D01*
X0226051Y0048469D02*
X0224700Y0047119D01*
X0223970Y0045355D01*
X0223970Y0040645D01*
X0224700Y0038881D01*
X0226051Y0037531D01*
X0227815Y0036800D01*
X0229724Y0036800D01*
X0231489Y0037531D01*
X0232839Y0038881D01*
X0233570Y0040645D01*
X0233570Y0045355D01*
X0232839Y0047119D01*
X0231489Y0048469D01*
X0229724Y0049200D01*
X0227815Y0049200D01*
X0226051Y0048469D01*
X0225403Y0047821D02*
X0222137Y0047821D01*
X0222879Y0047023D02*
X0224661Y0047023D01*
X0224330Y0046224D02*
X0223210Y0046224D01*
X0223540Y0045426D02*
X0223999Y0045426D01*
X0223970Y0044627D02*
X0223570Y0044627D01*
X0223570Y0043829D02*
X0223970Y0043829D01*
X0223970Y0043030D02*
X0223570Y0043030D01*
X0223570Y0042232D02*
X0223970Y0042232D01*
X0223970Y0041433D02*
X0223570Y0041433D01*
X0223565Y0040634D02*
X0223974Y0040634D01*
X0224305Y0039836D02*
X0223234Y0039836D01*
X0222904Y0039037D02*
X0224636Y0039037D01*
X0225342Y0038239D02*
X0222197Y0038239D01*
X0221271Y0037440D02*
X0226269Y0037440D01*
X0231271Y0037440D02*
X0236269Y0037440D01*
X0236051Y0037531D02*
X0237815Y0036800D01*
X0239724Y0036800D01*
X0241489Y0037531D01*
X0242839Y0038881D01*
X0243570Y0040645D01*
X0243570Y0045355D01*
X0242839Y0047119D01*
X0241489Y0048469D01*
X0239724Y0049200D01*
X0237815Y0049200D01*
X0236051Y0048469D01*
X0234700Y0047119D01*
X0233970Y0045355D01*
X0233970Y0040645D01*
X0234700Y0038881D01*
X0236051Y0037531D01*
X0235342Y0038239D02*
X0232197Y0038239D01*
X0232904Y0039037D02*
X0234636Y0039037D01*
X0234305Y0039836D02*
X0233234Y0039836D01*
X0233565Y0040634D02*
X0233974Y0040634D01*
X0233970Y0041433D02*
X0233570Y0041433D01*
X0233570Y0042232D02*
X0233970Y0042232D01*
X0233970Y0043030D02*
X0233570Y0043030D01*
X0233570Y0043829D02*
X0233970Y0043829D01*
X0233970Y0044627D02*
X0233570Y0044627D01*
X0233540Y0045426D02*
X0233999Y0045426D01*
X0234330Y0046224D02*
X0233210Y0046224D01*
X0232879Y0047023D02*
X0234661Y0047023D01*
X0235403Y0047821D02*
X0232137Y0047821D01*
X0231126Y0048620D02*
X0236414Y0048620D01*
X0241126Y0048620D02*
X0245970Y0048620D01*
X0245970Y0049418D02*
X0195148Y0049418D01*
X0195946Y0050217D02*
X0245970Y0050217D01*
X0245970Y0051015D02*
X0196745Y0051015D01*
X0197543Y0051814D02*
X0245970Y0051814D01*
X0245970Y0052612D02*
X0198342Y0052612D01*
X0199140Y0053411D02*
X0245970Y0053411D01*
X0245970Y0054209D02*
X0199939Y0054209D01*
X0200737Y0055008D02*
X0245970Y0055008D01*
X0246280Y0055806D02*
X0201536Y0055806D01*
X0198919Y0062993D02*
X0213303Y0062993D01*
X0214101Y0063791D02*
X0199718Y0063791D01*
X0200516Y0064590D02*
X0214900Y0064590D01*
X0215698Y0065388D02*
X0201315Y0065388D01*
X0202113Y0066187D02*
X0216497Y0066187D01*
X0217295Y0066985D02*
X0210172Y0066985D01*
X0209724Y0066800D02*
X0211489Y0067531D01*
X0212839Y0068881D01*
X0213570Y0070645D01*
X0213570Y0075355D01*
X0212839Y0077119D01*
X0211489Y0078469D01*
X0209724Y0079200D01*
X0207815Y0079200D01*
X0206051Y0078469D01*
X0204700Y0077119D01*
X0203970Y0075355D01*
X0203970Y0070645D01*
X0204700Y0068881D01*
X0206051Y0067531D01*
X0207815Y0066800D01*
X0209724Y0066800D01*
X0211742Y0067784D02*
X0215798Y0067784D01*
X0214999Y0068582D02*
X0212540Y0068582D01*
X0213046Y0069381D02*
X0214493Y0069381D01*
X0214163Y0070179D02*
X0213377Y0070179D01*
X0213570Y0070978D02*
X0213970Y0070978D01*
X0213970Y0071776D02*
X0213570Y0071776D01*
X0213570Y0072575D02*
X0213970Y0072575D01*
X0213970Y0073373D02*
X0213570Y0073373D01*
X0213570Y0074172D02*
X0213970Y0074172D01*
X0213970Y0074970D02*
X0213570Y0074970D01*
X0213398Y0075769D02*
X0214141Y0075769D01*
X0214472Y0076568D02*
X0213067Y0076568D01*
X0212592Y0077366D02*
X0214947Y0077366D01*
X0215746Y0078165D02*
X0211793Y0078165D01*
X0210297Y0078963D02*
X0217243Y0078963D01*
X0217427Y0080000D02*
X0219770Y0082343D01*
X0219770Y0083600D01*
X0216170Y0083600D01*
X0216170Y0084400D01*
X0219770Y0084400D01*
X0219770Y0085657D01*
X0217427Y0088000D01*
X0216170Y0088000D01*
X0216170Y0084400D01*
X0215370Y0084400D01*
X0215370Y0088000D01*
X0214113Y0088000D01*
X0211770Y0085657D01*
X0211770Y0084400D01*
X0215370Y0084400D01*
X0215370Y0083600D01*
X0216170Y0083600D01*
X0216170Y0080000D01*
X0217427Y0080000D01*
X0217987Y0080560D02*
X0221970Y0080560D01*
X0221970Y0079762D02*
X0206037Y0079762D01*
X0205675Y0079400D02*
X0208370Y0082095D01*
X0208370Y0085905D01*
X0205675Y0088600D01*
X0205527Y0088600D01*
X0207770Y0090843D01*
X0207770Y0092100D01*
X0204170Y0092100D01*
X0204170Y0092900D01*
X0207770Y0092900D01*
X0207770Y0094157D01*
X0205427Y0096500D01*
X0204170Y0096500D01*
X0204170Y0092900D01*
X0203370Y0092900D01*
X0203370Y0096500D01*
X0202113Y0096500D01*
X0199770Y0094157D01*
X0199770Y0092900D01*
X0203370Y0092900D01*
X0203370Y0092100D01*
X0199770Y0092100D01*
X0199770Y0090843D01*
X0202013Y0088600D01*
X0201864Y0088600D01*
X0199170Y0085905D01*
X0199170Y0082095D01*
X0201864Y0079400D01*
X0205675Y0079400D01*
X0205746Y0078165D02*
X0201793Y0078165D01*
X0202592Y0077366D02*
X0204947Y0077366D01*
X0204472Y0076568D02*
X0203067Y0076568D01*
X0203398Y0075769D02*
X0204141Y0075769D01*
X0203970Y0074970D02*
X0203570Y0074970D01*
X0203570Y0074172D02*
X0203970Y0074172D01*
X0203970Y0073373D02*
X0203570Y0073373D01*
X0203570Y0072575D02*
X0203970Y0072575D01*
X0203970Y0071776D02*
X0203570Y0071776D01*
X0203570Y0070978D02*
X0203970Y0070978D01*
X0204163Y0070179D02*
X0203377Y0070179D01*
X0203046Y0069381D02*
X0204493Y0069381D01*
X0204999Y0068582D02*
X0202770Y0068582D01*
X0202770Y0067784D02*
X0205798Y0067784D01*
X0207367Y0066985D02*
X0202472Y0066985D01*
X0194163Y0070179D02*
X0192724Y0070179D01*
X0192662Y0069988D02*
X0192866Y0070616D01*
X0192970Y0071269D01*
X0192970Y0072600D01*
X0189170Y0072600D01*
X0189170Y0073400D01*
X0192970Y0073400D01*
X0192970Y0074731D01*
X0192866Y0075384D01*
X0192662Y0076012D01*
X0192362Y0076601D01*
X0191973Y0077136D01*
X0191506Y0077604D01*
X0190971Y0077992D01*
X0190382Y0078292D01*
X0189753Y0078497D01*
X0189170Y0078589D01*
X0189170Y0073400D01*
X0188370Y0073400D01*
X0188370Y0078589D01*
X0187786Y0078497D01*
X0187157Y0078292D01*
X0186568Y0077992D01*
X0186034Y0077604D01*
X0185566Y0077136D01*
X0185178Y0076601D01*
X0184877Y0076012D01*
X0184673Y0075384D01*
X0184570Y0074731D01*
X0184570Y0073400D01*
X0188370Y0073400D01*
X0188370Y0072600D01*
X0189170Y0072600D01*
X0189170Y0067411D01*
X0189753Y0067503D01*
X0190382Y0067708D01*
X0190971Y0068008D01*
X0191506Y0068396D01*
X0191973Y0068864D01*
X0192362Y0069399D01*
X0192662Y0069988D01*
X0192349Y0069381D02*
X0193994Y0069381D01*
X0193195Y0068582D02*
X0191692Y0068582D01*
X0192397Y0067784D02*
X0190531Y0067784D01*
X0191598Y0066985D02*
X0180172Y0066985D01*
X0181742Y0067784D02*
X0187008Y0067784D01*
X0187157Y0067708D02*
X0187786Y0067503D01*
X0188370Y0067411D01*
X0188370Y0072600D01*
X0184570Y0072600D01*
X0184570Y0071269D01*
X0184673Y0070616D01*
X0184877Y0069988D01*
X0185178Y0069399D01*
X0185566Y0068864D01*
X0186034Y0068396D01*
X0186568Y0068008D01*
X0187157Y0067708D01*
X0188370Y0067784D02*
X0189170Y0067784D01*
X0189170Y0068582D02*
X0188370Y0068582D01*
X0188370Y0069381D02*
X0189170Y0069381D01*
X0189170Y0070179D02*
X0188370Y0070179D01*
X0188370Y0070978D02*
X0189170Y0070978D01*
X0189170Y0071776D02*
X0188370Y0071776D01*
X0188370Y0072575D02*
X0189170Y0072575D01*
X0189170Y0073373D02*
X0193970Y0073373D01*
X0193970Y0072575D02*
X0192970Y0072575D01*
X0192970Y0071776D02*
X0193970Y0071776D01*
X0193970Y0070978D02*
X0192923Y0070978D01*
X0192970Y0074172D02*
X0193970Y0074172D01*
X0193970Y0074970D02*
X0192932Y0074970D01*
X0192741Y0075769D02*
X0194141Y0075769D01*
X0194472Y0076568D02*
X0192379Y0076568D01*
X0191743Y0077366D02*
X0194947Y0077366D01*
X0195746Y0078165D02*
X0190633Y0078165D01*
X0189170Y0078165D02*
X0188370Y0078165D01*
X0188370Y0077366D02*
X0189170Y0077366D01*
X0189170Y0076568D02*
X0188370Y0076568D01*
X0188370Y0075769D02*
X0189170Y0075769D01*
X0189170Y0074970D02*
X0188370Y0074970D01*
X0188370Y0074172D02*
X0189170Y0074172D01*
X0188370Y0073373D02*
X0183570Y0073373D01*
X0183570Y0072575D02*
X0184570Y0072575D01*
X0184570Y0071776D02*
X0183570Y0071776D01*
X0183570Y0070978D02*
X0184616Y0070978D01*
X0184815Y0070179D02*
X0183377Y0070179D01*
X0183046Y0069381D02*
X0185190Y0069381D01*
X0185848Y0068582D02*
X0182540Y0068582D01*
X0177367Y0066985D02*
X0170172Y0066985D01*
X0171742Y0067784D02*
X0175798Y0067784D01*
X0174999Y0068582D02*
X0172540Y0068582D01*
X0173046Y0069381D02*
X0174493Y0069381D01*
X0174163Y0070179D02*
X0173377Y0070179D01*
X0173570Y0070978D02*
X0173970Y0070978D01*
X0173970Y0071776D02*
X0173570Y0071776D01*
X0173570Y0072575D02*
X0173970Y0072575D01*
X0173970Y0073373D02*
X0173570Y0073373D01*
X0173570Y0074172D02*
X0173970Y0074172D01*
X0173970Y0074970D02*
X0173570Y0074970D01*
X0173398Y0075769D02*
X0174141Y0075769D01*
X0174472Y0076568D02*
X0173067Y0076568D01*
X0172592Y0077366D02*
X0174948Y0077366D01*
X0175746Y0078165D02*
X0171793Y0078165D01*
X0171570Y0078963D02*
X0175970Y0078963D01*
X0175970Y0079762D02*
X0171570Y0079762D01*
X0171570Y0080560D02*
X0172053Y0080560D01*
X0173870Y0080560D02*
X0174670Y0080560D01*
X0174670Y0081359D02*
X0173870Y0081359D01*
X0173870Y0082157D02*
X0174670Y0082157D01*
X0174670Y0082956D02*
X0173870Y0082956D01*
X0173870Y0084553D02*
X0174670Y0084553D01*
X0174670Y0085351D02*
X0173870Y0085351D01*
X0173870Y0086150D02*
X0174670Y0086150D01*
X0174670Y0086948D02*
X0173870Y0086948D01*
X0173870Y0087747D02*
X0174670Y0087747D01*
X0175970Y0088545D02*
X0171570Y0088545D01*
X0171570Y0087747D02*
X0172360Y0087747D01*
X0171570Y0089344D02*
X0175970Y0089344D01*
X0175970Y0090142D02*
X0171570Y0090142D01*
X0171570Y0090941D02*
X0175970Y0090941D01*
X0175970Y0091739D02*
X0171570Y0091739D01*
X0171570Y0092538D02*
X0175970Y0092538D01*
X0175970Y0093336D02*
X0171570Y0093336D01*
X0171570Y0094135D02*
X0175970Y0094135D01*
X0175970Y0094933D02*
X0171570Y0094933D01*
X0171570Y0095732D02*
X0176042Y0095732D01*
X0176373Y0096530D02*
X0171570Y0096530D01*
X0171250Y0097329D02*
X0177139Y0097329D01*
X0177937Y0098127D02*
X0170602Y0098127D01*
X0169804Y0098926D02*
X0178736Y0098926D01*
X0179170Y0099724D02*
X0169370Y0099724D01*
X0169370Y0100523D02*
X0179170Y0100523D01*
X0179338Y0101321D02*
X0169201Y0101321D01*
X0168871Y0102120D02*
X0179669Y0102120D01*
X0180183Y0102918D02*
X0168357Y0102918D01*
X0167558Y0103717D02*
X0180981Y0103717D01*
X0182650Y0104515D02*
X0165889Y0104515D01*
X0163650Y0104515D02*
X0141790Y0104515D01*
X0140992Y0103717D02*
X0161981Y0103717D01*
X0161183Y0102918D02*
X0140193Y0102918D01*
X0140175Y0102900D02*
X0142870Y0105595D01*
X0142870Y0109405D01*
X0140175Y0112100D01*
X0136364Y0112100D01*
X0133670Y0109405D01*
X0133670Y0105595D01*
X0136364Y0102900D01*
X0140175Y0102900D01*
X0142589Y0105314D02*
X0192624Y0105314D01*
X0193422Y0106112D02*
X0142870Y0106112D01*
X0142870Y0106911D02*
X0194221Y0106911D01*
X0195019Y0107709D02*
X0142870Y0107709D01*
X0142870Y0108508D02*
X0195818Y0108508D01*
X0196616Y0109306D02*
X0142870Y0109306D01*
X0142170Y0110105D02*
X0197415Y0110105D01*
X0198213Y0110903D02*
X0141372Y0110903D01*
X0140573Y0111702D02*
X0199012Y0111702D01*
X0199170Y0112501D02*
X0120276Y0112501D01*
X0121074Y0113299D02*
X0199170Y0113299D01*
X0199170Y0114098D02*
X0121873Y0114098D01*
X0122370Y0114896D02*
X0126914Y0114896D01*
X0126115Y0115695D02*
X0122370Y0115695D01*
X0122370Y0116493D02*
X0125317Y0116493D01*
X0124518Y0117292D02*
X0122370Y0117292D01*
X0122370Y0118090D02*
X0123720Y0118090D01*
X0122921Y0118889D02*
X0121886Y0118889D01*
X0122123Y0119687D02*
X0121088Y0119687D01*
X0121324Y0120486D02*
X0120289Y0120486D01*
X0120526Y0121284D02*
X0098070Y0121284D01*
X0098070Y0120486D02*
X0104750Y0120486D01*
X0103951Y0119687D02*
X0098070Y0119687D01*
X0098070Y0118889D02*
X0103153Y0118889D01*
X0102670Y0118090D02*
X0098070Y0118090D01*
X0098070Y0117292D02*
X0102670Y0117292D01*
X0102670Y0116493D02*
X0098070Y0116493D01*
X0098070Y0115695D02*
X0102670Y0115695D01*
X0102670Y0114896D02*
X0098070Y0114896D01*
X0098070Y0114098D02*
X0103167Y0114098D01*
X0103965Y0113299D02*
X0098070Y0113299D01*
X0098070Y0112501D02*
X0104764Y0112501D01*
X0109608Y0111702D02*
X0098070Y0111702D01*
X0098070Y0110903D02*
X0109970Y0110903D01*
X0109970Y0110105D02*
X0098070Y0110105D01*
X0097806Y0109306D02*
X0109970Y0109306D01*
X0109970Y0108508D02*
X0097237Y0108508D01*
X0096439Y0107709D02*
X0109970Y0107709D01*
X0109970Y0106911D02*
X0095640Y0106911D01*
X0095370Y0106112D02*
X0109970Y0106112D01*
X0109970Y0105314D02*
X0095370Y0105314D01*
X0095370Y0104515D02*
X0109970Y0104515D01*
X0109970Y0103717D02*
X0094992Y0103717D01*
X0094193Y0102918D02*
X0109970Y0102918D01*
X0109970Y0102120D02*
X0093395Y0102120D01*
X0093051Y0099724D02*
X0109970Y0099724D01*
X0109970Y0098926D02*
X0093849Y0098926D01*
X0094648Y0098127D02*
X0109970Y0098127D01*
X0109970Y0097329D02*
X0095370Y0097329D01*
X0095370Y0096530D02*
X0109970Y0096530D01*
X0109970Y0095732D02*
X0095370Y0095732D01*
X0095370Y0094933D02*
X0109970Y0094933D01*
X0109970Y0094135D02*
X0095370Y0094135D01*
X0095111Y0093336D02*
X0109970Y0093336D01*
X0109970Y0092538D02*
X0094313Y0092538D01*
X0093514Y0091739D02*
X0109970Y0091739D01*
X0109970Y0090941D02*
X0092716Y0090941D01*
X0088824Y0090941D02*
X0084986Y0090941D01*
X0084187Y0091739D02*
X0088025Y0091739D01*
X0087227Y0092538D02*
X0083878Y0092538D01*
X0084677Y0093336D02*
X0086428Y0093336D01*
X0086170Y0094135D02*
X0085475Y0094135D01*
X0085784Y0090142D02*
X0109970Y0090142D01*
X0109970Y0089344D02*
X0086583Y0089344D01*
X0087381Y0088545D02*
X0099380Y0088545D01*
X0099385Y0088550D02*
X0096720Y0085885D01*
X0096720Y0084400D01*
X0100870Y0084400D01*
X0100870Y0088550D01*
X0099385Y0088550D01*
X0098582Y0087747D02*
X0088180Y0087747D01*
X0088978Y0086948D02*
X0097783Y0086948D01*
X0096985Y0086150D02*
X0089777Y0086150D01*
X0090575Y0085351D02*
X0096720Y0085351D01*
X0096720Y0084553D02*
X0091374Y0084553D01*
X0092172Y0083754D02*
X0100870Y0083754D01*
X0100870Y0083600D02*
X0096720Y0083600D01*
X0096720Y0082115D01*
X0099385Y0079450D01*
X0100870Y0079450D01*
X0100870Y0083600D01*
X0101670Y0083600D01*
X0101670Y0084400D01*
X0105820Y0084400D01*
X0105820Y0085885D01*
X0103154Y0088550D01*
X0101670Y0088550D01*
X0101670Y0084400D01*
X0100870Y0084400D01*
X0100870Y0083600D01*
X0100870Y0082956D02*
X0101670Y0082956D01*
X0101670Y0083600D02*
X0101670Y0079450D01*
X0103154Y0079450D01*
X0105820Y0082115D01*
X0105820Y0083600D01*
X0101670Y0083600D01*
X0101670Y0083754D02*
X0109970Y0083754D01*
X0109970Y0082956D02*
X0105820Y0082956D01*
X0105820Y0082157D02*
X0109970Y0082157D01*
X0109970Y0081359D02*
X0105063Y0081359D01*
X0104264Y0080560D02*
X0109970Y0080560D01*
X0109970Y0079762D02*
X0103466Y0079762D01*
X0102745Y0078963D02*
X0109970Y0078963D01*
X0109970Y0078165D02*
X0104388Y0078165D01*
X0101670Y0079762D02*
X0100870Y0079762D01*
X0100870Y0080560D02*
X0101670Y0080560D01*
X0101670Y0081359D02*
X0100870Y0081359D01*
X0100870Y0082157D02*
X0101670Y0082157D01*
X0099073Y0079762D02*
X0096165Y0079762D01*
X0095366Y0080560D02*
X0098275Y0080560D01*
X0097476Y0081359D02*
X0094568Y0081359D01*
X0093769Y0082157D02*
X0096720Y0082157D01*
X0096720Y0082956D02*
X0092971Y0082956D01*
X0096963Y0078963D02*
X0099794Y0078963D01*
X0098151Y0078165D02*
X0097762Y0078165D01*
X0091239Y0073373D02*
X0012270Y0073373D01*
X0012270Y0072575D02*
X0092038Y0072575D01*
X0092836Y0071776D02*
X0012270Y0071776D01*
X0012270Y0070978D02*
X0093635Y0070978D01*
X0095041Y0070179D02*
X0012270Y0070179D01*
X0012270Y0069381D02*
X0098964Y0069381D01*
X0103576Y0069381D02*
X0104732Y0069381D01*
X0105327Y0068582D02*
X0012270Y0068582D01*
X0012270Y0067784D02*
X0104545Y0067784D01*
X0104214Y0066985D02*
X0012270Y0066985D01*
X0012270Y0066187D02*
X0104070Y0066187D01*
X0104070Y0065388D02*
X0086387Y0065388D01*
X0085675Y0066100D02*
X0081864Y0066100D01*
X0079170Y0063405D01*
X0079170Y0059595D01*
X0081864Y0056900D01*
X0085675Y0056900D01*
X0088370Y0059595D01*
X0088370Y0063405D01*
X0085675Y0066100D01*
X0087185Y0064590D02*
X0098925Y0064590D01*
X0099385Y0065050D02*
X0096720Y0062385D01*
X0096720Y0060900D01*
X0100870Y0060900D01*
X0100870Y0065050D01*
X0099385Y0065050D01*
X0100870Y0064590D02*
X0101670Y0064590D01*
X0101670Y0065050D02*
X0101670Y0060900D01*
X0105820Y0060900D01*
X0105820Y0062385D01*
X0103154Y0065050D01*
X0101670Y0065050D01*
X0101670Y0063791D02*
X0100870Y0063791D01*
X0100870Y0062993D02*
X0101670Y0062993D01*
X0101670Y0062194D02*
X0100870Y0062194D01*
X0100870Y0061396D02*
X0101670Y0061396D01*
X0101670Y0060900D02*
X0100870Y0060900D01*
X0100870Y0060100D01*
X0101670Y0060100D01*
X0101670Y0060900D01*
X0101670Y0060597D02*
X0108213Y0060597D01*
X0109011Y0059799D02*
X0105820Y0059799D01*
X0105820Y0060100D02*
X0105820Y0058615D01*
X0103154Y0055950D01*
X0101670Y0055950D01*
X0101670Y0060100D01*
X0105820Y0060100D01*
X0105820Y0059000D02*
X0109810Y0059000D01*
X0110608Y0058202D02*
X0105406Y0058202D01*
X0104608Y0057403D02*
X0111407Y0057403D01*
X0111470Y0056605D02*
X0103809Y0056605D01*
X0103845Y0055008D02*
X0111470Y0055008D01*
X0111470Y0055806D02*
X0012270Y0055806D01*
X0012270Y0055008D02*
X0098695Y0055008D01*
X0099385Y0055950D02*
X0096720Y0058615D01*
X0096720Y0060100D01*
X0100870Y0060100D01*
X0100870Y0055950D01*
X0099385Y0055950D01*
X0098730Y0056605D02*
X0012270Y0056605D01*
X0012270Y0057403D02*
X0069361Y0057403D01*
X0069864Y0056900D02*
X0073675Y0056900D01*
X0076370Y0059595D01*
X0076370Y0063405D01*
X0073675Y0066100D01*
X0069864Y0066100D01*
X0067170Y0063405D01*
X0067170Y0059595D01*
X0069864Y0056900D01*
X0068563Y0058202D02*
X0012270Y0058202D01*
X0012270Y0059000D02*
X0067764Y0059000D01*
X0067170Y0059799D02*
X0012270Y0059799D01*
X0012270Y0060597D02*
X0067170Y0060597D01*
X0067170Y0061396D02*
X0012270Y0061396D01*
X0012270Y0062194D02*
X0067170Y0062194D01*
X0067170Y0062993D02*
X0012270Y0062993D01*
X0012270Y0063791D02*
X0067556Y0063791D01*
X0068354Y0064590D02*
X0012270Y0064590D01*
X0012270Y0065388D02*
X0069153Y0065388D01*
X0074387Y0065388D02*
X0081153Y0065388D01*
X0080354Y0064590D02*
X0075185Y0064590D01*
X0075984Y0063791D02*
X0079556Y0063791D01*
X0079170Y0062993D02*
X0076370Y0062993D01*
X0076370Y0062194D02*
X0079170Y0062194D01*
X0079170Y0061396D02*
X0076370Y0061396D01*
X0076370Y0060597D02*
X0079170Y0060597D01*
X0079170Y0059799D02*
X0076370Y0059799D01*
X0075775Y0059000D02*
X0079764Y0059000D01*
X0080563Y0058202D02*
X0074977Y0058202D01*
X0074178Y0057403D02*
X0081361Y0057403D01*
X0086178Y0057403D02*
X0097932Y0057403D01*
X0097133Y0058202D02*
X0086977Y0058202D01*
X0087775Y0059000D02*
X0096720Y0059000D01*
X0096720Y0059799D02*
X0088370Y0059799D01*
X0088370Y0060597D02*
X0100870Y0060597D01*
X0100870Y0059799D02*
X0101670Y0059799D01*
X0101670Y0059000D02*
X0100870Y0059000D01*
X0100870Y0058202D02*
X0101670Y0058202D01*
X0101670Y0057403D02*
X0100870Y0057403D01*
X0100870Y0056605D02*
X0101670Y0056605D01*
X0104844Y0054209D02*
X0111470Y0054209D01*
X0111470Y0053411D02*
X0105638Y0053411D01*
X0105969Y0052612D02*
X0111470Y0052612D01*
X0111470Y0051814D02*
X0106300Y0051814D01*
X0106420Y0051015D02*
X0111470Y0051015D01*
X0111470Y0050217D02*
X0107210Y0050217D01*
X0108008Y0049418D02*
X0111470Y0049418D01*
X0111470Y0048620D02*
X0108807Y0048620D01*
X0109605Y0047821D02*
X0111470Y0047821D01*
X0111470Y0047023D02*
X0110404Y0047023D01*
X0111202Y0046224D02*
X0111470Y0046224D01*
X0105478Y0040634D02*
X0104070Y0040634D01*
X0104680Y0041433D02*
X0103271Y0041433D01*
X0103154Y0041550D02*
X0101670Y0041550D01*
X0101670Y0037400D01*
X0105820Y0037400D01*
X0105820Y0038885D01*
X0103154Y0041550D01*
X0103881Y0042232D02*
X0061840Y0042232D01*
X0061509Y0043030D02*
X0103083Y0043030D01*
X0102284Y0043829D02*
X0060926Y0043829D01*
X0061356Y0043399D02*
X0059668Y0045087D01*
X0057463Y0046000D01*
X0055076Y0046000D01*
X0052871Y0045087D01*
X0051183Y0043399D01*
X0050270Y0041193D01*
X0050270Y0034807D01*
X0051183Y0032601D01*
X0052871Y0030913D01*
X0055076Y0030000D01*
X0057463Y0030000D01*
X0059668Y0030913D01*
X0061356Y0032601D01*
X0062270Y0034807D01*
X0062270Y0041193D01*
X0061356Y0043399D01*
X0060128Y0044627D02*
X0101486Y0044627D01*
X0100063Y0045426D02*
X0058850Y0045426D01*
X0053689Y0045426D02*
X0012270Y0045426D01*
X0012270Y0046224D02*
X0098262Y0046224D01*
X0097464Y0047023D02*
X0012270Y0047023D01*
X0012270Y0047821D02*
X0096805Y0047821D01*
X0096474Y0048620D02*
X0012270Y0048620D01*
X0012270Y0049418D02*
X0096143Y0049418D01*
X0096120Y0050217D02*
X0012270Y0050217D01*
X0012270Y0051015D02*
X0096120Y0051015D01*
X0096240Y0051814D02*
X0012270Y0051814D01*
X0012270Y0052612D02*
X0096570Y0052612D01*
X0096901Y0053411D02*
X0012270Y0053411D01*
X0012270Y0054209D02*
X0097696Y0054209D01*
X0096720Y0061396D02*
X0088370Y0061396D01*
X0088370Y0062194D02*
X0096720Y0062194D01*
X0097328Y0062993D02*
X0088370Y0062993D01*
X0087984Y0063791D02*
X0098126Y0063791D01*
X0103614Y0064590D02*
X0104390Y0064590D01*
X0104413Y0063791D02*
X0104953Y0063791D01*
X0105212Y0062993D02*
X0105817Y0062993D01*
X0105820Y0062194D02*
X0106616Y0062194D01*
X0105820Y0061396D02*
X0107414Y0061396D01*
X0122770Y0059799D02*
X0123011Y0059799D01*
X0122770Y0059000D02*
X0123810Y0059000D01*
X0124608Y0058202D02*
X0122770Y0058202D01*
X0122770Y0057403D02*
X0127884Y0057403D01*
X0129655Y0057403D02*
X0182016Y0057403D01*
X0181218Y0056605D02*
X0122770Y0056605D01*
X0122770Y0055806D02*
X0180419Y0055806D01*
X0179621Y0055008D02*
X0122770Y0055008D01*
X0122770Y0054209D02*
X0178822Y0054209D01*
X0178024Y0053411D02*
X0122770Y0053411D01*
X0122770Y0052612D02*
X0177225Y0052612D01*
X0176426Y0051814D02*
X0122770Y0051814D01*
X0122770Y0051015D02*
X0175628Y0051015D01*
X0175151Y0050217D02*
X0122770Y0050217D01*
X0122770Y0049418D02*
X0174820Y0049418D01*
X0174770Y0048620D02*
X0171126Y0048620D01*
X0171489Y0048469D02*
X0169724Y0049200D01*
X0167815Y0049200D01*
X0166051Y0048469D01*
X0164700Y0047119D01*
X0163970Y0045355D01*
X0163970Y0040645D01*
X0164700Y0038881D01*
X0166051Y0037531D01*
X0167815Y0036800D01*
X0169724Y0036800D01*
X0171489Y0037531D01*
X0172839Y0038881D01*
X0173570Y0040645D01*
X0173570Y0045355D01*
X0172839Y0047119D01*
X0171489Y0048469D01*
X0172137Y0047821D02*
X0174770Y0047821D01*
X0174661Y0047023D02*
X0172879Y0047023D01*
X0173210Y0046224D02*
X0174330Y0046224D01*
X0173999Y0045426D02*
X0173540Y0045426D01*
X0173570Y0044627D02*
X0173970Y0044627D01*
X0173970Y0043829D02*
X0173570Y0043829D01*
X0173570Y0043030D02*
X0173970Y0043030D01*
X0173970Y0042232D02*
X0173570Y0042232D01*
X0173570Y0041433D02*
X0173970Y0041433D01*
X0173974Y0040634D02*
X0173565Y0040634D01*
X0173234Y0039836D02*
X0174305Y0039836D01*
X0174636Y0039037D02*
X0172904Y0039037D01*
X0172197Y0038239D02*
X0175342Y0038239D01*
X0176269Y0037440D02*
X0171271Y0037440D01*
X0166269Y0037440D02*
X0161271Y0037440D01*
X0161489Y0037531D02*
X0162839Y0038881D01*
X0163570Y0040645D01*
X0163570Y0045355D01*
X0162839Y0047119D01*
X0161489Y0048469D01*
X0159724Y0049200D01*
X0157815Y0049200D01*
X0156051Y0048469D01*
X0154700Y0047119D01*
X0153970Y0045355D01*
X0153970Y0040645D01*
X0154700Y0038881D01*
X0156051Y0037531D01*
X0157815Y0036800D01*
X0159724Y0036800D01*
X0161489Y0037531D01*
X0162197Y0038239D02*
X0165342Y0038239D01*
X0164636Y0039037D02*
X0162904Y0039037D01*
X0163234Y0039836D02*
X0164305Y0039836D01*
X0163974Y0040634D02*
X0163565Y0040634D01*
X0163570Y0041433D02*
X0163970Y0041433D01*
X0163970Y0042232D02*
X0163570Y0042232D01*
X0163570Y0043030D02*
X0163970Y0043030D01*
X0163970Y0043829D02*
X0163570Y0043829D01*
X0163570Y0044627D02*
X0163970Y0044627D01*
X0163999Y0045426D02*
X0163540Y0045426D01*
X0163210Y0046224D02*
X0164330Y0046224D01*
X0164661Y0047023D02*
X0162879Y0047023D01*
X0162137Y0047821D02*
X0165403Y0047821D01*
X0166414Y0048620D02*
X0161126Y0048620D01*
X0156414Y0048620D02*
X0151126Y0048620D01*
X0152137Y0047821D02*
X0155403Y0047821D01*
X0154661Y0047023D02*
X0152879Y0047023D01*
X0153210Y0046224D02*
X0154330Y0046224D01*
X0153999Y0045426D02*
X0153540Y0045426D01*
X0153570Y0044627D02*
X0153970Y0044627D01*
X0153970Y0043829D02*
X0153570Y0043829D01*
X0153570Y0043030D02*
X0153970Y0043030D01*
X0153970Y0042232D02*
X0153570Y0042232D01*
X0153570Y0041433D02*
X0153970Y0041433D01*
X0153974Y0040634D02*
X0153565Y0040634D01*
X0153234Y0039836D02*
X0154305Y0039836D01*
X0154182Y0039037D02*
X0154636Y0039037D01*
X0155188Y0038239D02*
X0155342Y0038239D01*
X0155986Y0037440D02*
X0156269Y0037440D01*
X0156785Y0036642D02*
X0160406Y0036642D01*
X0159608Y0035843D02*
X0157583Y0035843D01*
X0158382Y0035045D02*
X0158809Y0035045D01*
X0165133Y0036642D02*
X0188406Y0036642D01*
X0191271Y0037440D02*
X0198184Y0037440D01*
X0198370Y0037440D02*
X0199170Y0037440D01*
X0199170Y0037411D02*
X0199753Y0037503D01*
X0200382Y0037708D01*
X0200971Y0038008D01*
X0201506Y0038396D01*
X0201973Y0038864D01*
X0202362Y0039399D01*
X0202662Y0039988D01*
X0202866Y0040616D01*
X0202970Y0041269D01*
X0202970Y0042600D01*
X0199170Y0042600D01*
X0199170Y0043400D01*
X0202970Y0043400D01*
X0202970Y0044731D01*
X0202866Y0045384D01*
X0202662Y0046012D01*
X0202362Y0046601D01*
X0201973Y0047136D01*
X0201506Y0047604D01*
X0200971Y0047992D01*
X0200382Y0048292D01*
X0199753Y0048497D01*
X0199170Y0048589D01*
X0199170Y0043400D01*
X0198370Y0043400D01*
X0198370Y0048589D01*
X0197786Y0048497D01*
X0197157Y0048292D01*
X0196568Y0047992D01*
X0196034Y0047604D01*
X0195566Y0047136D01*
X0195178Y0046601D01*
X0194877Y0046012D01*
X0194673Y0045384D01*
X0194570Y0044731D01*
X0194570Y0043400D01*
X0198370Y0043400D01*
X0198370Y0042600D01*
X0199170Y0042600D01*
X0199170Y0037411D01*
X0199356Y0037440D02*
X0206269Y0037440D01*
X0205342Y0038239D02*
X0201289Y0038239D01*
X0202099Y0039037D02*
X0204636Y0039037D01*
X0204305Y0039836D02*
X0202585Y0039836D01*
X0202869Y0040634D02*
X0203974Y0040634D01*
X0203970Y0041433D02*
X0202970Y0041433D01*
X0202970Y0042232D02*
X0203970Y0042232D01*
X0203970Y0043030D02*
X0199170Y0043030D01*
X0199170Y0042232D02*
X0198370Y0042232D01*
X0198370Y0042600D02*
X0198370Y0037411D01*
X0197786Y0037503D01*
X0197157Y0037708D01*
X0196568Y0038008D01*
X0196034Y0038396D01*
X0195566Y0038864D01*
X0195178Y0039399D01*
X0194877Y0039988D01*
X0194673Y0040616D01*
X0194570Y0041269D01*
X0194570Y0042600D01*
X0198370Y0042600D01*
X0198370Y0043030D02*
X0193570Y0043030D01*
X0193570Y0042232D02*
X0194570Y0042232D01*
X0194570Y0041433D02*
X0193570Y0041433D01*
X0193565Y0040634D02*
X0194670Y0040634D01*
X0194955Y0039836D02*
X0193234Y0039836D01*
X0192904Y0039037D02*
X0195440Y0039037D01*
X0196250Y0038239D02*
X0192197Y0038239D01*
X0193570Y0043829D02*
X0194570Y0043829D01*
X0194570Y0044627D02*
X0193570Y0044627D01*
X0193540Y0045426D02*
X0194687Y0045426D01*
X0194985Y0046224D02*
X0193210Y0046224D01*
X0192879Y0047023D02*
X0195484Y0047023D01*
X0196333Y0047821D02*
X0193551Y0047821D01*
X0194349Y0048620D02*
X0206414Y0048620D01*
X0205403Y0047821D02*
X0201206Y0047821D01*
X0202056Y0047023D02*
X0204661Y0047023D01*
X0204330Y0046224D02*
X0202554Y0046224D01*
X0202853Y0045426D02*
X0203999Y0045426D01*
X0203970Y0044627D02*
X0202970Y0044627D01*
X0202970Y0043829D02*
X0203970Y0043829D01*
X0199170Y0043829D02*
X0198370Y0043829D01*
X0198370Y0044627D02*
X0199170Y0044627D01*
X0199170Y0045426D02*
X0198370Y0045426D01*
X0198370Y0046224D02*
X0199170Y0046224D01*
X0199170Y0047023D02*
X0198370Y0047023D01*
X0198370Y0047821D02*
X0199170Y0047821D01*
X0199170Y0041433D02*
X0198370Y0041433D01*
X0198370Y0040634D02*
X0199170Y0040634D01*
X0199170Y0039836D02*
X0198370Y0039836D01*
X0198370Y0039037D02*
X0199170Y0039037D01*
X0199170Y0038239D02*
X0198370Y0038239D01*
X0195370Y0031851D02*
X0206770Y0031851D01*
X0206770Y0031052D02*
X0195370Y0031052D01*
X0195029Y0030254D02*
X0207359Y0030254D01*
X0208157Y0029455D02*
X0194230Y0029455D01*
X0193585Y0019873D02*
X0205955Y0019873D01*
X0205475Y0019075D02*
X0194064Y0019075D01*
X0194395Y0018276D02*
X0205144Y0018276D01*
X0204970Y0017478D02*
X0194570Y0017478D01*
X0194570Y0016679D02*
X0204970Y0016679D01*
X0204970Y0015881D02*
X0194570Y0015881D01*
X0194570Y0015082D02*
X0204970Y0015082D01*
X0204970Y0014284D02*
X0194570Y0014284D01*
X0194570Y0013485D02*
X0204970Y0013485D01*
X0205160Y0012687D02*
X0194380Y0012687D01*
X0194049Y0011888D02*
X0205490Y0011888D01*
X0205992Y0011090D02*
X0193547Y0011090D01*
X0192749Y0010291D02*
X0206790Y0010291D01*
X0208350Y0009493D02*
X0191189Y0009493D01*
X0188350Y0009493D02*
X0161189Y0009493D01*
X0162749Y0010291D02*
X0167994Y0010291D01*
X0168157Y0010208D02*
X0168786Y0010003D01*
X0169370Y0009911D01*
X0169370Y0015100D01*
X0165570Y0015100D01*
X0165570Y0013769D01*
X0165673Y0013116D01*
X0165877Y0012488D01*
X0166178Y0011899D01*
X0166566Y0011364D01*
X0167034Y0010896D01*
X0167568Y0010508D01*
X0168157Y0010208D01*
X0169370Y0010291D02*
X0170170Y0010291D01*
X0170170Y0009911D02*
X0170753Y0010003D01*
X0171382Y0010208D01*
X0171971Y0010508D01*
X0172506Y0010896D01*
X0172973Y0011364D01*
X0173362Y0011899D01*
X0173662Y0012488D01*
X0173866Y0013116D01*
X0173970Y0013769D01*
X0173970Y0015100D01*
X0170170Y0015100D01*
X0170170Y0009911D01*
X0170170Y0011090D02*
X0169370Y0011090D01*
X0169370Y0011888D02*
X0170170Y0011888D01*
X0170170Y0012687D02*
X0169370Y0012687D01*
X0169370Y0013485D02*
X0170170Y0013485D01*
X0170170Y0014284D02*
X0169370Y0014284D01*
X0169370Y0015082D02*
X0170170Y0015082D01*
X0170170Y0015881D02*
X0179370Y0015881D01*
X0179370Y0015100D02*
X0175570Y0015100D01*
X0175570Y0013769D01*
X0175673Y0013116D01*
X0175877Y0012488D01*
X0176178Y0011899D01*
X0176566Y0011364D01*
X0177034Y0010896D01*
X0177568Y0010508D01*
X0178157Y0010208D01*
X0178786Y0010003D01*
X0179370Y0009911D01*
X0179370Y0015100D01*
X0179370Y0015082D02*
X0180170Y0015082D01*
X0180170Y0015100D02*
X0180170Y0009911D01*
X0180753Y0010003D01*
X0181382Y0010208D01*
X0181971Y0010508D01*
X0182506Y0010896D01*
X0182973Y0011364D01*
X0183362Y0011899D01*
X0183662Y0012488D01*
X0183866Y0013116D01*
X0183970Y0013769D01*
X0183970Y0015100D01*
X0180170Y0015100D01*
X0180170Y0015881D02*
X0184970Y0015881D01*
X0184970Y0016679D02*
X0183970Y0016679D01*
X0183931Y0017478D02*
X0184970Y0017478D01*
X0185144Y0018276D02*
X0183739Y0018276D01*
X0183375Y0019075D02*
X0185475Y0019075D01*
X0185955Y0019873D02*
X0182736Y0019873D01*
X0183970Y0015082D02*
X0184970Y0015082D01*
X0184970Y0014284D02*
X0183970Y0014284D01*
X0183925Y0013485D02*
X0184970Y0013485D01*
X0185160Y0012687D02*
X0183727Y0012687D01*
X0183354Y0011888D02*
X0185490Y0011888D01*
X0185992Y0011090D02*
X0182699Y0011090D01*
X0181546Y0010291D02*
X0186790Y0010291D01*
X0180170Y0010291D02*
X0179370Y0010291D01*
X0179370Y0011090D02*
X0180170Y0011090D01*
X0180170Y0011888D02*
X0179370Y0011888D01*
X0179370Y0012687D02*
X0180170Y0012687D01*
X0180170Y0013485D02*
X0179370Y0013485D01*
X0179370Y0014284D02*
X0180170Y0014284D01*
X0177994Y0010291D02*
X0171546Y0010291D01*
X0172699Y0011090D02*
X0176840Y0011090D01*
X0176185Y0011888D02*
X0173354Y0011888D01*
X0173727Y0012687D02*
X0175813Y0012687D01*
X0175615Y0013485D02*
X0173925Y0013485D01*
X0173970Y0014284D02*
X0175570Y0014284D01*
X0175570Y0015082D02*
X0173970Y0015082D01*
X0173970Y0016679D02*
X0175570Y0016679D01*
X0175609Y0017478D02*
X0173931Y0017478D01*
X0173739Y0018276D02*
X0175801Y0018276D01*
X0176164Y0019075D02*
X0173375Y0019075D01*
X0172736Y0019873D02*
X0176803Y0019873D01*
X0169370Y0015881D02*
X0165807Y0015881D01*
X0165570Y0015082D02*
X0165009Y0015082D01*
X0164570Y0014284D02*
X0165570Y0014284D01*
X0165615Y0013485D02*
X0164570Y0013485D01*
X0164380Y0012687D02*
X0165813Y0012687D01*
X0166185Y0011888D02*
X0164049Y0011888D01*
X0163547Y0011090D02*
X0166840Y0011090D01*
X0158350Y0009493D02*
X0151189Y0009493D01*
X0152749Y0010291D02*
X0156790Y0010291D01*
X0155992Y0011090D02*
X0153547Y0011090D01*
X0154049Y0011888D02*
X0155490Y0011888D01*
X0155160Y0012687D02*
X0154380Y0012687D01*
X0154570Y0013485D02*
X0154970Y0013485D01*
X0154970Y0014284D02*
X0154570Y0014284D01*
X0148350Y0009493D02*
X0141189Y0009493D01*
X0142749Y0010291D02*
X0146790Y0010291D01*
X0145992Y0011090D02*
X0143547Y0011090D01*
X0144049Y0011888D02*
X0145490Y0011888D01*
X0145160Y0012687D02*
X0144380Y0012687D01*
X0144570Y0013485D02*
X0144970Y0013485D01*
X0144970Y0014284D02*
X0144570Y0014284D01*
X0144570Y0015082D02*
X0144970Y0015082D01*
X0144970Y0015881D02*
X0144570Y0015881D01*
X0144570Y0016679D02*
X0144970Y0016679D01*
X0144970Y0017478D02*
X0144570Y0017478D01*
X0144395Y0018276D02*
X0145144Y0018276D01*
X0145475Y0019075D02*
X0144064Y0019075D01*
X0144603Y0019873D02*
X0145955Y0019873D01*
X0139877Y0023067D02*
X0133770Y0023067D01*
X0133770Y0022269D02*
X0139079Y0022269D01*
X0138260Y0021470D02*
X0133770Y0021470D01*
X0133770Y0020672D02*
X0136753Y0020672D01*
X0135955Y0019873D02*
X0133770Y0019873D01*
X0134064Y0019075D02*
X0135475Y0019075D01*
X0135144Y0018276D02*
X0134395Y0018276D01*
X0134570Y0017478D02*
X0134970Y0017478D01*
X0134970Y0016679D02*
X0134570Y0016679D01*
X0134570Y0015881D02*
X0134970Y0015881D01*
X0134970Y0015082D02*
X0134570Y0015082D01*
X0134570Y0014284D02*
X0134970Y0014284D01*
X0134970Y0013485D02*
X0134570Y0013485D01*
X0134380Y0012687D02*
X0135160Y0012687D01*
X0135490Y0011888D02*
X0134049Y0011888D01*
X0133547Y0011090D02*
X0135992Y0011090D01*
X0136790Y0010291D02*
X0132749Y0010291D01*
X0131189Y0009493D02*
X0138350Y0009493D01*
X0128350Y0009493D02*
X0121189Y0009493D01*
X0120724Y0009300D02*
X0122489Y0010031D01*
X0123839Y0011381D01*
X0124570Y0013145D01*
X0124570Y0017855D01*
X0123839Y0019619D01*
X0122489Y0020969D01*
X0120724Y0021700D01*
X0118815Y0021700D01*
X0117051Y0020969D01*
X0115700Y0019619D01*
X0114970Y0017855D01*
X0114970Y0013145D01*
X0115700Y0011381D01*
X0117051Y0010031D01*
X0118815Y0009300D01*
X0120724Y0009300D01*
X0122749Y0010291D02*
X0126790Y0010291D01*
X0125992Y0011090D02*
X0123547Y0011090D01*
X0124049Y0011888D02*
X0125490Y0011888D01*
X0125160Y0012687D02*
X0124380Y0012687D01*
X0124570Y0013485D02*
X0124970Y0013485D01*
X0124970Y0014284D02*
X0124570Y0014284D01*
X0124570Y0015082D02*
X0124970Y0015082D01*
X0124970Y0015881D02*
X0124570Y0015881D01*
X0124570Y0016679D02*
X0124970Y0016679D01*
X0124970Y0017478D02*
X0124570Y0017478D01*
X0124395Y0018276D02*
X0125144Y0018276D01*
X0125475Y0019075D02*
X0124064Y0019075D01*
X0123585Y0019873D02*
X0125770Y0019873D01*
X0125770Y0020672D02*
X0122786Y0020672D01*
X0121279Y0021470D02*
X0125770Y0021470D01*
X0125770Y0022269D02*
X0103305Y0022269D01*
X0104187Y0022634D02*
X0102294Y0021850D01*
X0100245Y0021850D01*
X0098352Y0022634D01*
X0096904Y0024083D01*
X0096120Y0025976D01*
X0096120Y0028024D01*
X0096904Y0029917D01*
X0098352Y0031366D01*
X0100245Y0032150D01*
X0102294Y0032150D01*
X0104187Y0031366D01*
X0105636Y0029917D01*
X0106420Y0028024D01*
X0106420Y0025976D01*
X0105636Y0024083D01*
X0104187Y0022634D01*
X0104620Y0023067D02*
X0125770Y0023067D01*
X0120591Y0023866D02*
X0105419Y0023866D01*
X0105877Y0024664D02*
X0119449Y0024664D01*
X0118650Y0025463D02*
X0106207Y0025463D01*
X0106420Y0026261D02*
X0117852Y0026261D01*
X0117053Y0027060D02*
X0106420Y0027060D01*
X0106420Y0027858D02*
X0116255Y0027858D01*
X0115456Y0028657D02*
X0106158Y0028657D01*
X0105827Y0029455D02*
X0114657Y0029455D01*
X0113859Y0030254D02*
X0105299Y0030254D01*
X0104501Y0031052D02*
X0113060Y0031052D01*
X0112262Y0031851D02*
X0103016Y0031851D01*
X0103154Y0032450D02*
X0105820Y0035115D01*
X0105820Y0036600D01*
X0101670Y0036600D01*
X0101670Y0037400D01*
X0100870Y0037400D01*
X0100870Y0041550D01*
X0099385Y0041550D01*
X0096720Y0038885D01*
X0096720Y0037400D01*
X0100870Y0037400D01*
X0100870Y0036600D01*
X0101670Y0036600D01*
X0101670Y0032450D01*
X0103154Y0032450D01*
X0103354Y0032649D02*
X0111463Y0032649D01*
X0110665Y0033448D02*
X0104152Y0033448D01*
X0104951Y0034246D02*
X0109866Y0034246D01*
X0109068Y0035045D02*
X0105749Y0035045D01*
X0105820Y0035843D02*
X0108269Y0035843D01*
X0107471Y0036642D02*
X0101670Y0036642D01*
X0101670Y0037440D02*
X0100870Y0037440D01*
X0100870Y0036642D02*
X0062270Y0036642D01*
X0062270Y0037440D02*
X0096720Y0037440D01*
X0096720Y0038239D02*
X0062270Y0038239D01*
X0062270Y0039037D02*
X0096873Y0039037D01*
X0097671Y0039836D02*
X0062270Y0039836D01*
X0062270Y0040634D02*
X0098470Y0040634D01*
X0099268Y0041433D02*
X0062170Y0041433D01*
X0062270Y0035843D02*
X0069608Y0035843D01*
X0069864Y0036100D02*
X0067170Y0033405D01*
X0067170Y0029595D01*
X0069864Y0026900D01*
X0073675Y0026900D01*
X0076370Y0029595D01*
X0076370Y0033405D01*
X0073675Y0036100D01*
X0069864Y0036100D01*
X0068809Y0035045D02*
X0062270Y0035045D01*
X0062038Y0034246D02*
X0068011Y0034246D01*
X0067212Y0033448D02*
X0061707Y0033448D01*
X0061376Y0032649D02*
X0067170Y0032649D01*
X0067170Y0031851D02*
X0060606Y0031851D01*
X0059807Y0031052D02*
X0067170Y0031052D01*
X0067170Y0030254D02*
X0058076Y0030254D01*
X0054463Y0030254D02*
X0012270Y0030254D01*
X0012270Y0031052D02*
X0029585Y0031052D01*
X0029697Y0030996D02*
X0030505Y0030733D01*
X0031345Y0030600D01*
X0031370Y0030600D01*
X0031370Y0037600D01*
X0032170Y0037600D01*
X0032170Y0038400D01*
X0037170Y0038400D01*
X0037170Y0040425D01*
X0037037Y0041265D01*
X0036774Y0042073D01*
X0036388Y0042830D01*
X0035889Y0043518D01*
X0035288Y0044119D01*
X0034600Y0044618D01*
X0033843Y0045004D01*
X0033034Y0045267D01*
X0032195Y0045400D01*
X0032170Y0045400D01*
X0032170Y0038400D01*
X0031370Y0038400D01*
X0031370Y0045400D01*
X0031345Y0045400D01*
X0030505Y0045267D01*
X0029697Y0045004D01*
X0028939Y0044618D01*
X0028252Y0044119D01*
X0027651Y0043518D01*
X0027151Y0042830D01*
X0026765Y0042073D01*
X0026503Y0041265D01*
X0026370Y0040425D01*
X0026370Y0038400D01*
X0031370Y0038400D01*
X0031370Y0037600D01*
X0026370Y0037600D01*
X0026370Y0035575D01*
X0026503Y0034735D01*
X0026765Y0033927D01*
X0027151Y0033170D01*
X0027651Y0032482D01*
X0028252Y0031881D01*
X0028939Y0031382D01*
X0029697Y0030996D01*
X0028293Y0031851D02*
X0012270Y0031851D01*
X0012270Y0032649D02*
X0027529Y0032649D01*
X0027009Y0033448D02*
X0012270Y0033448D01*
X0012270Y0034246D02*
X0026662Y0034246D01*
X0026454Y0035045D02*
X0012270Y0035045D01*
X0012270Y0035843D02*
X0026370Y0035843D01*
X0026370Y0036642D02*
X0012270Y0036642D01*
X0012270Y0037440D02*
X0026370Y0037440D01*
X0026370Y0039037D02*
X0012270Y0039037D01*
X0012270Y0038239D02*
X0031370Y0038239D01*
X0031370Y0039037D02*
X0032170Y0039037D01*
X0032170Y0038239D02*
X0050270Y0038239D01*
X0050270Y0039037D02*
X0037170Y0039037D01*
X0037170Y0039836D02*
X0050270Y0039836D01*
X0050270Y0040634D02*
X0037137Y0040634D01*
X0036982Y0041433D02*
X0050369Y0041433D01*
X0050700Y0042232D02*
X0036693Y0042232D01*
X0036243Y0043030D02*
X0051030Y0043030D01*
X0051613Y0043829D02*
X0035578Y0043829D01*
X0034583Y0044627D02*
X0052411Y0044627D01*
X0050270Y0037440D02*
X0037170Y0037440D01*
X0037170Y0037600D02*
X0032170Y0037600D01*
X0032170Y0030600D01*
X0032195Y0030600D01*
X0033034Y0030733D01*
X0033843Y0030996D01*
X0034600Y0031382D01*
X0035288Y0031881D01*
X0035889Y0032482D01*
X0036388Y0033170D01*
X0036774Y0033927D01*
X0037037Y0034735D01*
X0037170Y0035575D01*
X0037170Y0037600D01*
X0037170Y0036642D02*
X0050270Y0036642D01*
X0050270Y0035843D02*
X0037170Y0035843D01*
X0037086Y0035045D02*
X0050270Y0035045D01*
X0050502Y0034246D02*
X0036878Y0034246D01*
X0036530Y0033448D02*
X0050832Y0033448D01*
X0051163Y0032649D02*
X0036010Y0032649D01*
X0035246Y0031851D02*
X0051934Y0031851D01*
X0052732Y0031052D02*
X0033954Y0031052D01*
X0032170Y0031052D02*
X0031370Y0031052D01*
X0031370Y0031851D02*
X0032170Y0031851D01*
X0032170Y0032649D02*
X0031370Y0032649D01*
X0031370Y0033448D02*
X0032170Y0033448D01*
X0032170Y0034246D02*
X0031370Y0034246D01*
X0031370Y0035045D02*
X0032170Y0035045D01*
X0032170Y0035843D02*
X0031370Y0035843D01*
X0031370Y0036642D02*
X0032170Y0036642D01*
X0032170Y0037440D02*
X0031370Y0037440D01*
X0031370Y0039836D02*
X0032170Y0039836D01*
X0032170Y0040634D02*
X0031370Y0040634D01*
X0031370Y0041433D02*
X0032170Y0041433D01*
X0032170Y0042232D02*
X0031370Y0042232D01*
X0031370Y0043030D02*
X0032170Y0043030D01*
X0032170Y0043829D02*
X0031370Y0043829D01*
X0031370Y0044627D02*
X0032170Y0044627D01*
X0028956Y0044627D02*
X0012270Y0044627D01*
X0012270Y0043829D02*
X0027961Y0043829D01*
X0027296Y0043030D02*
X0012270Y0043030D01*
X0012270Y0042232D02*
X0026846Y0042232D01*
X0026557Y0041433D02*
X0012270Y0041433D01*
X0012270Y0040634D02*
X0026403Y0040634D01*
X0026370Y0039836D02*
X0012270Y0039836D01*
X0012270Y0029455D02*
X0067309Y0029455D01*
X0068107Y0028657D02*
X0012270Y0028657D01*
X0012270Y0027858D02*
X0068906Y0027858D01*
X0069704Y0027060D02*
X0012270Y0027060D01*
X0012270Y0026261D02*
X0096120Y0026261D01*
X0096120Y0027060D02*
X0073835Y0027060D01*
X0074633Y0027858D02*
X0081755Y0027858D01*
X0082113Y0027500D02*
X0079770Y0029843D01*
X0079770Y0031100D01*
X0083370Y0031100D01*
X0084170Y0031100D01*
X0084170Y0031900D01*
X0087770Y0031900D01*
X0087770Y0033157D01*
X0085427Y0035500D01*
X0084170Y0035500D01*
X0084170Y0031900D01*
X0083370Y0031900D01*
X0083370Y0035500D01*
X0082113Y0035500D01*
X0079770Y0033157D01*
X0079770Y0031900D01*
X0083370Y0031900D01*
X0083370Y0031100D01*
X0083370Y0027500D01*
X0082113Y0027500D01*
X0083370Y0027858D02*
X0084170Y0027858D01*
X0084170Y0027500D02*
X0085427Y0027500D01*
X0087770Y0029843D01*
X0087770Y0031100D01*
X0084170Y0031100D01*
X0084170Y0027500D01*
X0084170Y0028657D02*
X0083370Y0028657D01*
X0083370Y0029455D02*
X0084170Y0029455D01*
X0084170Y0030254D02*
X0083370Y0030254D01*
X0083370Y0031052D02*
X0084170Y0031052D01*
X0084170Y0031851D02*
X0099523Y0031851D01*
X0099385Y0032450D02*
X0096720Y0035115D01*
X0096720Y0036600D01*
X0100870Y0036600D01*
X0100870Y0032450D01*
X0099385Y0032450D01*
X0099186Y0032649D02*
X0087770Y0032649D01*
X0087479Y0033448D02*
X0098387Y0033448D01*
X0097589Y0034246D02*
X0086680Y0034246D01*
X0085882Y0035045D02*
X0096790Y0035045D01*
X0096720Y0035843D02*
X0073932Y0035843D01*
X0074730Y0035045D02*
X0081658Y0035045D01*
X0080859Y0034246D02*
X0075529Y0034246D01*
X0076327Y0033448D02*
X0080061Y0033448D01*
X0079770Y0032649D02*
X0076370Y0032649D01*
X0076370Y0031851D02*
X0083370Y0031851D01*
X0083370Y0032649D02*
X0084170Y0032649D01*
X0084170Y0033448D02*
X0083370Y0033448D01*
X0083370Y0034246D02*
X0084170Y0034246D01*
X0084170Y0035045D02*
X0083370Y0035045D01*
X0079770Y0031052D02*
X0076370Y0031052D01*
X0076370Y0030254D02*
X0079770Y0030254D01*
X0080157Y0029455D02*
X0076230Y0029455D01*
X0075432Y0028657D02*
X0080956Y0028657D01*
X0085785Y0027858D02*
X0096120Y0027858D01*
X0096382Y0028657D02*
X0086583Y0028657D01*
X0087382Y0029455D02*
X0096712Y0029455D01*
X0097240Y0030254D02*
X0087770Y0030254D01*
X0087770Y0031052D02*
X0098039Y0031052D01*
X0100870Y0032649D02*
X0101670Y0032649D01*
X0101670Y0033448D02*
X0100870Y0033448D01*
X0100870Y0034246D02*
X0101670Y0034246D01*
X0101670Y0035045D02*
X0100870Y0035045D01*
X0100870Y0035843D02*
X0101670Y0035843D01*
X0101670Y0038239D02*
X0100870Y0038239D01*
X0100870Y0039037D02*
X0101670Y0039037D01*
X0101670Y0039836D02*
X0100870Y0039836D01*
X0100870Y0040634D02*
X0101670Y0040634D01*
X0101670Y0041433D02*
X0100870Y0041433D01*
X0104868Y0039836D02*
X0106270Y0039836D01*
X0106270Y0039037D02*
X0105667Y0039037D01*
X0105820Y0038239D02*
X0106462Y0038239D01*
X0106793Y0037440D02*
X0105820Y0037440D01*
X0096332Y0025463D02*
X0012270Y0025463D01*
X0012270Y0024664D02*
X0096663Y0024664D01*
X0097121Y0023866D02*
X0046411Y0023866D01*
X0046195Y0023900D02*
X0044170Y0023900D01*
X0044170Y0018900D01*
X0051170Y0018900D01*
X0051170Y0018925D01*
X0051037Y0019765D01*
X0050774Y0020573D01*
X0050388Y0021330D01*
X0049889Y0022018D01*
X0049288Y0022619D01*
X0048600Y0023118D01*
X0047843Y0023504D01*
X0047034Y0023767D01*
X0046195Y0023900D01*
X0044170Y0023866D02*
X0043370Y0023866D01*
X0043370Y0023900D02*
X0041345Y0023900D01*
X0040505Y0023767D01*
X0039697Y0023504D01*
X0038939Y0023118D01*
X0038252Y0022619D01*
X0037651Y0022018D01*
X0037151Y0021330D01*
X0036765Y0020573D01*
X0036503Y0019765D01*
X0036370Y0018925D01*
X0036370Y0018900D01*
X0043370Y0018900D01*
X0043370Y0023900D01*
X0043370Y0023067D02*
X0044170Y0023067D01*
X0044170Y0022269D02*
X0043370Y0022269D01*
X0043370Y0021470D02*
X0044170Y0021470D01*
X0044170Y0020672D02*
X0043370Y0020672D01*
X0043370Y0019873D02*
X0044170Y0019873D01*
X0044170Y0019075D02*
X0043370Y0019075D01*
X0043370Y0018900D02*
X0044170Y0018900D01*
X0044170Y0018100D01*
X0051170Y0018100D01*
X0051170Y0018075D01*
X0051037Y0017235D01*
X0050774Y0016427D01*
X0050388Y0015670D01*
X0049889Y0014982D01*
X0049288Y0014381D01*
X0048600Y0013882D01*
X0047843Y0013496D01*
X0047034Y0013233D01*
X0046195Y0013100D01*
X0044170Y0013100D01*
X0044170Y0018100D01*
X0043370Y0018100D01*
X0043370Y0013100D01*
X0041345Y0013100D01*
X0040505Y0013233D01*
X0039697Y0013496D01*
X0038939Y0013882D01*
X0038252Y0014381D01*
X0037651Y0014982D01*
X0037151Y0015670D01*
X0036765Y0016427D01*
X0036503Y0017235D01*
X0036370Y0018075D01*
X0036370Y0018100D01*
X0043370Y0018100D01*
X0043370Y0018900D01*
X0043370Y0018276D02*
X0012270Y0018276D01*
X0012270Y0017478D02*
X0036464Y0017478D01*
X0036683Y0016679D02*
X0012270Y0016679D01*
X0012270Y0015881D02*
X0037044Y0015881D01*
X0037578Y0015082D02*
X0012270Y0015082D01*
X0012270Y0014284D02*
X0038386Y0014284D01*
X0039729Y0013485D02*
X0012270Y0013485D01*
X0012270Y0012687D02*
X0056952Y0012687D01*
X0056621Y0013485D02*
X0047810Y0013485D01*
X0049153Y0014284D02*
X0056470Y0014284D01*
X0056470Y0015082D02*
X0049961Y0015082D01*
X0050496Y0015881D02*
X0056470Y0015881D01*
X0056470Y0016679D02*
X0050856Y0016679D01*
X0051075Y0017478D02*
X0056606Y0017478D01*
X0056937Y0018276D02*
X0044170Y0018276D01*
X0044170Y0017478D02*
X0043370Y0017478D01*
X0043370Y0016679D02*
X0044170Y0016679D01*
X0044170Y0015881D02*
X0043370Y0015881D01*
X0043370Y0015082D02*
X0044170Y0015082D01*
X0044170Y0014284D02*
X0043370Y0014284D01*
X0043370Y0013485D02*
X0044170Y0013485D01*
X0051146Y0019075D02*
X0057267Y0019075D01*
X0057598Y0019873D02*
X0051001Y0019873D01*
X0050724Y0020672D02*
X0058205Y0020672D01*
X0059003Y0021470D02*
X0050286Y0021470D01*
X0049638Y0022269D02*
X0059802Y0022269D01*
X0061352Y0023067D02*
X0048670Y0023067D01*
X0041129Y0023866D02*
X0012270Y0023866D01*
X0012270Y0023067D02*
X0038869Y0023067D01*
X0037902Y0022269D02*
X0012270Y0022269D01*
X0012270Y0021470D02*
X0037253Y0021470D01*
X0036816Y0020672D02*
X0012270Y0020672D01*
X0012270Y0019873D02*
X0036538Y0019873D01*
X0036393Y0019075D02*
X0012270Y0019075D01*
X0012270Y0011888D02*
X0057283Y0011888D01*
X0057614Y0011090D02*
X0012270Y0011090D01*
X0012270Y0010291D02*
X0058242Y0010291D01*
X0059040Y0009493D02*
X0012270Y0009493D01*
X0012576Y0008694D02*
X0059839Y0008694D01*
X0069701Y0008694D02*
X0267050Y0008694D01*
X0267270Y0009493D02*
X0261189Y0009493D01*
X0262749Y0010291D02*
X0267270Y0010291D01*
X0267270Y0011090D02*
X0263547Y0011090D01*
X0264049Y0011888D02*
X0267270Y0011888D01*
X0267270Y0012687D02*
X0264380Y0012687D01*
X0264570Y0013485D02*
X0267270Y0013485D01*
X0267270Y0014284D02*
X0264570Y0014284D01*
X0264570Y0015082D02*
X0267270Y0015082D01*
X0267270Y0015881D02*
X0264570Y0015881D01*
X0264570Y0016679D02*
X0267552Y0016679D01*
X0268212Y0017478D02*
X0264570Y0017478D01*
X0264395Y0018276D02*
X0269010Y0018276D01*
X0268354Y0017619D02*
X0268354Y0017619D01*
X0269809Y0019075D02*
X0264064Y0019075D01*
X0263585Y0019873D02*
X0270607Y0019873D01*
X0271406Y0020672D02*
X0262786Y0020672D01*
X0261279Y0021470D02*
X0272204Y0021470D01*
X0258350Y0009493D02*
X0251189Y0009493D01*
X0252749Y0010291D02*
X0256790Y0010291D01*
X0255992Y0011090D02*
X0253547Y0011090D01*
X0254049Y0011888D02*
X0255490Y0011888D01*
X0255160Y0012687D02*
X0254380Y0012687D01*
X0254570Y0013485D02*
X0254970Y0013485D01*
X0254970Y0014284D02*
X0254570Y0014284D01*
X0254570Y0015082D02*
X0254970Y0015082D01*
X0254970Y0015881D02*
X0254570Y0015881D01*
X0254570Y0016679D02*
X0254970Y0016679D01*
X0254970Y0017478D02*
X0254570Y0017478D01*
X0254395Y0018276D02*
X0255144Y0018276D01*
X0255475Y0019075D02*
X0254064Y0019075D01*
X0255466Y0019873D02*
X0255955Y0019873D01*
X0245955Y0019873D02*
X0243585Y0019873D01*
X0244064Y0019075D02*
X0245475Y0019075D01*
X0245144Y0018276D02*
X0244395Y0018276D01*
X0244570Y0017478D02*
X0244970Y0017478D01*
X0244970Y0016679D02*
X0244570Y0016679D01*
X0244570Y0015881D02*
X0244970Y0015881D01*
X0244970Y0015082D02*
X0244570Y0015082D01*
X0244570Y0014284D02*
X0244970Y0014284D01*
X0244970Y0013485D02*
X0244570Y0013485D01*
X0244380Y0012687D02*
X0245160Y0012687D01*
X0245490Y0011888D02*
X0244049Y0011888D01*
X0243547Y0011090D02*
X0245992Y0011090D01*
X0246790Y0010291D02*
X0242749Y0010291D01*
X0241189Y0009493D02*
X0248350Y0009493D01*
X0238350Y0009493D02*
X0231189Y0009493D01*
X0232749Y0010291D02*
X0236790Y0010291D01*
X0235992Y0011090D02*
X0233547Y0011090D01*
X0234049Y0011888D02*
X0235490Y0011888D01*
X0235160Y0012687D02*
X0234380Y0012687D01*
X0234570Y0013485D02*
X0234970Y0013485D01*
X0234970Y0014284D02*
X0234570Y0014284D01*
X0234570Y0015082D02*
X0234970Y0015082D01*
X0234970Y0015881D02*
X0234570Y0015881D01*
X0234570Y0016679D02*
X0234970Y0016679D01*
X0234970Y0017478D02*
X0234570Y0017478D01*
X0234395Y0018276D02*
X0235144Y0018276D01*
X0235475Y0019075D02*
X0234064Y0019075D01*
X0233585Y0019873D02*
X0235955Y0019873D01*
X0225955Y0019873D02*
X0223585Y0019873D01*
X0224064Y0019075D02*
X0225475Y0019075D01*
X0225144Y0018276D02*
X0224395Y0018276D01*
X0224570Y0017478D02*
X0224970Y0017478D01*
X0224970Y0016679D02*
X0224570Y0016679D01*
X0224570Y0015881D02*
X0224970Y0015881D01*
X0224970Y0015082D02*
X0224570Y0015082D01*
X0224570Y0014284D02*
X0224970Y0014284D01*
X0224970Y0013485D02*
X0224570Y0013485D01*
X0224380Y0012687D02*
X0225160Y0012687D01*
X0225490Y0011888D02*
X0224049Y0011888D01*
X0223547Y0011090D02*
X0225992Y0011090D01*
X0226790Y0010291D02*
X0222749Y0010291D01*
X0221189Y0009493D02*
X0228350Y0009493D01*
X0218350Y0009493D02*
X0211189Y0009493D01*
X0212749Y0010291D02*
X0216790Y0010291D01*
X0215992Y0011090D02*
X0213547Y0011090D01*
X0214049Y0011888D02*
X0215490Y0011888D01*
X0215160Y0012687D02*
X0214380Y0012687D01*
X0214570Y0013485D02*
X0214970Y0013485D01*
X0214970Y0014284D02*
X0214570Y0014284D01*
X0214570Y0015082D02*
X0214970Y0015082D01*
X0214970Y0015881D02*
X0214570Y0015881D01*
X0214570Y0016679D02*
X0214970Y0016679D01*
X0214970Y0017478D02*
X0214570Y0017478D01*
X0214395Y0018276D02*
X0215144Y0018276D01*
X0215475Y0019075D02*
X0214064Y0019075D01*
X0213585Y0019873D02*
X0215955Y0019873D01*
X0212583Y0028657D02*
X0250334Y0028657D01*
X0251068Y0029455D02*
X0213382Y0029455D01*
X0214180Y0030254D02*
X0252380Y0030254D01*
X0251271Y0037440D02*
X0256269Y0037440D01*
X0255342Y0038239D02*
X0252197Y0038239D01*
X0252904Y0039037D02*
X0254636Y0039037D01*
X0254305Y0039836D02*
X0253234Y0039836D01*
X0253565Y0040634D02*
X0253974Y0040634D01*
X0253970Y0041433D02*
X0253570Y0041433D01*
X0253570Y0042232D02*
X0253970Y0042232D01*
X0253970Y0043030D02*
X0253570Y0043030D01*
X0253570Y0043829D02*
X0253970Y0043829D01*
X0253970Y0044627D02*
X0253570Y0044627D01*
X0253540Y0045426D02*
X0253999Y0045426D01*
X0254330Y0046224D02*
X0253210Y0046224D01*
X0252879Y0047023D02*
X0254661Y0047023D01*
X0255403Y0047821D02*
X0252137Y0047821D01*
X0251570Y0048620D02*
X0255970Y0048620D01*
X0255970Y0049418D02*
X0251570Y0049418D01*
X0251570Y0050217D02*
X0255970Y0050217D01*
X0255970Y0051015D02*
X0251570Y0051015D01*
X0251570Y0051814D02*
X0255970Y0051814D01*
X0255970Y0052612D02*
X0251570Y0052612D01*
X0251640Y0053411D02*
X0255970Y0053411D01*
X0255970Y0054209D02*
X0252439Y0054209D01*
X0253237Y0055008D02*
X0255970Y0055008D01*
X0255970Y0055806D02*
X0254036Y0055806D01*
X0254834Y0056605D02*
X0255970Y0056605D01*
X0255970Y0057403D02*
X0255633Y0057403D01*
X0245403Y0047821D02*
X0242137Y0047821D01*
X0242879Y0047023D02*
X0244661Y0047023D01*
X0244330Y0046224D02*
X0243210Y0046224D01*
X0243540Y0045426D02*
X0243999Y0045426D01*
X0243970Y0044627D02*
X0243570Y0044627D01*
X0243570Y0043829D02*
X0243970Y0043829D01*
X0243970Y0043030D02*
X0243570Y0043030D01*
X0243570Y0042232D02*
X0243970Y0042232D01*
X0243970Y0041433D02*
X0243570Y0041433D01*
X0243565Y0040634D02*
X0243974Y0040634D01*
X0244305Y0039836D02*
X0243234Y0039836D01*
X0242904Y0039037D02*
X0244636Y0039037D01*
X0245342Y0038239D02*
X0242197Y0038239D01*
X0241271Y0037440D02*
X0246269Y0037440D01*
X0261271Y0037440D02*
X0261590Y0037440D01*
X0263570Y0041433D02*
X0263966Y0041433D01*
X0263570Y0042232D02*
X0264764Y0042232D01*
X0263570Y0043030D02*
X0266262Y0043030D01*
X0235019Y0063791D02*
X0222021Y0063791D01*
X0222819Y0064590D02*
X0234220Y0064590D01*
X0233422Y0065388D02*
X0223618Y0065388D01*
X0224416Y0066187D02*
X0232623Y0066187D01*
X0231825Y0066985D02*
X0230172Y0066985D01*
X0227367Y0066985D02*
X0225215Y0066985D01*
X0221773Y0078963D02*
X0220296Y0078963D01*
X0218785Y0081359D02*
X0221970Y0081359D01*
X0221970Y0082157D02*
X0219584Y0082157D01*
X0219770Y0082956D02*
X0221970Y0082956D01*
X0221970Y0083754D02*
X0216170Y0083754D01*
X0216170Y0082956D02*
X0215370Y0082956D01*
X0215370Y0083600D02*
X0215370Y0080000D01*
X0214113Y0080000D01*
X0211770Y0082343D01*
X0211770Y0083600D01*
X0215370Y0083600D01*
X0215370Y0083754D02*
X0208370Y0083754D01*
X0208370Y0082956D02*
X0211770Y0082956D01*
X0211956Y0082157D02*
X0208370Y0082157D01*
X0207634Y0081359D02*
X0212754Y0081359D01*
X0213553Y0080560D02*
X0206835Y0080560D01*
X0207243Y0078963D02*
X0200297Y0078963D01*
X0201503Y0079762D02*
X0181570Y0079762D01*
X0181570Y0078963D02*
X0197243Y0078963D01*
X0199906Y0081359D02*
X0186785Y0081359D01*
X0187584Y0082157D02*
X0199170Y0082157D01*
X0199170Y0082956D02*
X0187770Y0082956D01*
X0187770Y0082343D02*
X0187770Y0083600D01*
X0184170Y0083600D01*
X0184170Y0080000D01*
X0185427Y0080000D01*
X0187770Y0082343D01*
X0187770Y0084553D02*
X0199170Y0084553D01*
X0199170Y0085351D02*
X0187770Y0085351D01*
X0187277Y0086150D02*
X0199414Y0086150D01*
X0200212Y0086948D02*
X0186478Y0086948D01*
X0185680Y0087747D02*
X0201011Y0087747D01*
X0201809Y0088545D02*
X0181570Y0088545D01*
X0181570Y0087747D02*
X0181860Y0087747D01*
X0183370Y0087747D02*
X0184170Y0087747D01*
X0184170Y0086948D02*
X0183370Y0086948D01*
X0183370Y0086150D02*
X0184170Y0086150D01*
X0184170Y0085351D02*
X0183370Y0085351D01*
X0183370Y0084553D02*
X0184170Y0084553D01*
X0184170Y0083754D02*
X0199170Y0083754D01*
X0200704Y0080560D02*
X0185987Y0080560D01*
X0184170Y0080560D02*
X0183370Y0080560D01*
X0183370Y0081359D02*
X0184170Y0081359D01*
X0184170Y0082157D02*
X0183370Y0082157D01*
X0183370Y0082956D02*
X0184170Y0082956D01*
X0181793Y0078165D02*
X0186907Y0078165D01*
X0185796Y0077366D02*
X0182592Y0077366D01*
X0183067Y0076568D02*
X0185160Y0076568D01*
X0184798Y0075769D02*
X0183398Y0075769D01*
X0183570Y0074970D02*
X0184608Y0074970D01*
X0184570Y0074172D02*
X0183570Y0074172D01*
X0190800Y0066187D02*
X0131949Y0066187D01*
X0131970Y0065388D02*
X0190001Y0065388D01*
X0189203Y0064590D02*
X0131856Y0064590D01*
X0131526Y0063791D02*
X0188404Y0063791D01*
X0187606Y0062993D02*
X0130802Y0062993D01*
X0131532Y0062194D02*
X0186807Y0062194D01*
X0186009Y0061396D02*
X0131862Y0061396D01*
X0131970Y0060597D02*
X0185210Y0060597D01*
X0184412Y0059799D02*
X0131943Y0059799D01*
X0131612Y0059000D02*
X0183613Y0059000D01*
X0182815Y0058202D02*
X0130997Y0058202D01*
X0131618Y0066985D02*
X0137367Y0066985D01*
X0137815Y0066800D02*
X0139724Y0066800D01*
X0141489Y0067531D01*
X0142839Y0068881D01*
X0143570Y0070645D01*
X0143570Y0075355D01*
X0142839Y0077119D01*
X0141489Y0078469D01*
X0139724Y0079200D01*
X0137815Y0079200D01*
X0136051Y0078469D01*
X0134700Y0077119D01*
X0133970Y0075355D01*
X0133970Y0070645D01*
X0134700Y0068881D01*
X0136051Y0067531D01*
X0137815Y0066800D01*
X0135798Y0067784D02*
X0131742Y0067784D01*
X0132540Y0068582D02*
X0134999Y0068582D01*
X0134493Y0069381D02*
X0133046Y0069381D01*
X0133377Y0070179D02*
X0134163Y0070179D01*
X0133970Y0070978D02*
X0133570Y0070978D01*
X0133570Y0071776D02*
X0133970Y0071776D01*
X0133970Y0072575D02*
X0133570Y0072575D01*
X0133570Y0073373D02*
X0133970Y0073373D01*
X0133970Y0074172D02*
X0133570Y0074172D01*
X0133570Y0074970D02*
X0133970Y0074970D01*
X0134141Y0075769D02*
X0133398Y0075769D01*
X0133067Y0076568D02*
X0134472Y0076568D01*
X0134947Y0077366D02*
X0132592Y0077366D01*
X0131793Y0078165D02*
X0135746Y0078165D01*
X0137243Y0078963D02*
X0130297Y0078963D01*
X0127243Y0078963D02*
X0118570Y0078963D01*
X0118570Y0078165D02*
X0125746Y0078165D01*
X0124947Y0077366D02*
X0118570Y0077366D01*
X0118570Y0076568D02*
X0124472Y0076568D01*
X0124141Y0075769D02*
X0118960Y0075769D01*
X0119759Y0074970D02*
X0123970Y0074970D01*
X0123970Y0074172D02*
X0120557Y0074172D01*
X0121356Y0073373D02*
X0123970Y0073373D01*
X0123970Y0072575D02*
X0122155Y0072575D01*
X0122953Y0071776D02*
X0123970Y0071776D01*
X0123970Y0070978D02*
X0123752Y0070978D01*
X0118570Y0079762D02*
X0152003Y0079762D01*
X0151204Y0080560D02*
X0118570Y0080560D01*
X0118570Y0081359D02*
X0150406Y0081359D01*
X0149670Y0082157D02*
X0118570Y0082157D01*
X0118570Y0082956D02*
X0149670Y0082956D01*
X0149670Y0083754D02*
X0118570Y0083754D01*
X0118570Y0084553D02*
X0126560Y0084553D01*
X0126613Y0084500D02*
X0124270Y0086843D01*
X0124270Y0088100D01*
X0127870Y0088100D01*
X0128670Y0088100D01*
X0128670Y0088900D01*
X0132270Y0088900D01*
X0132270Y0090157D01*
X0129927Y0092500D01*
X0128670Y0092500D01*
X0128670Y0088900D01*
X0127870Y0088900D01*
X0127870Y0092500D01*
X0126613Y0092500D01*
X0124270Y0090157D01*
X0124270Y0088900D01*
X0127870Y0088900D01*
X0127870Y0088100D01*
X0127870Y0084500D01*
X0126613Y0084500D01*
X0125762Y0085351D02*
X0118570Y0085351D01*
X0118570Y0086150D02*
X0124963Y0086150D01*
X0124270Y0086948D02*
X0118570Y0086948D01*
X0118570Y0087747D02*
X0124270Y0087747D01*
X0124270Y0089344D02*
X0118570Y0089344D01*
X0118570Y0090142D02*
X0124270Y0090142D01*
X0125054Y0090941D02*
X0122716Y0090941D01*
X0123514Y0091739D02*
X0125852Y0091739D01*
X0124313Y0092538D02*
X0130272Y0092538D01*
X0130687Y0091739D02*
X0131071Y0091739D01*
X0131486Y0090941D02*
X0131869Y0090941D01*
X0132270Y0090142D02*
X0132668Y0090142D01*
X0132270Y0089344D02*
X0133466Y0089344D01*
X0133670Y0088545D02*
X0128670Y0088545D01*
X0128670Y0088100D02*
X0132270Y0088100D01*
X0132270Y0086843D01*
X0129927Y0084500D01*
X0128670Y0084500D01*
X0128670Y0088100D01*
X0128670Y0087747D02*
X0127870Y0087747D01*
X0127870Y0088545D02*
X0118570Y0088545D01*
X0118570Y0090941D02*
X0118824Y0090941D01*
X0127870Y0090941D02*
X0128670Y0090941D01*
X0128670Y0091739D02*
X0127870Y0091739D01*
X0127870Y0090142D02*
X0128670Y0090142D01*
X0128670Y0089344D02*
X0127870Y0089344D01*
X0127870Y0086948D02*
X0128670Y0086948D01*
X0128670Y0086150D02*
X0127870Y0086150D01*
X0127870Y0085351D02*
X0128670Y0085351D01*
X0128670Y0084553D02*
X0127870Y0084553D01*
X0129979Y0084553D02*
X0135712Y0084553D01*
X0134913Y0085351D02*
X0130778Y0085351D01*
X0131576Y0086150D02*
X0134115Y0086150D01*
X0133670Y0086948D02*
X0132270Y0086948D01*
X0132270Y0087747D02*
X0133670Y0087747D01*
X0137393Y0093336D02*
X0165970Y0093336D01*
X0165970Y0092538D02*
X0140737Y0092538D01*
X0141536Y0091739D02*
X0165970Y0091739D01*
X0165970Y0090941D02*
X0142334Y0090941D01*
X0142870Y0090142D02*
X0165970Y0090142D01*
X0165970Y0089344D02*
X0142870Y0089344D01*
X0142870Y0088545D02*
X0152309Y0088545D01*
X0151511Y0087747D02*
X0142870Y0087747D01*
X0142870Y0086948D02*
X0150712Y0086948D01*
X0149914Y0086150D02*
X0142425Y0086150D01*
X0141626Y0085351D02*
X0149670Y0085351D01*
X0149670Y0084553D02*
X0140828Y0084553D01*
X0140297Y0078963D02*
X0147243Y0078963D01*
X0147815Y0079200D02*
X0146051Y0078469D01*
X0144700Y0077119D01*
X0143970Y0075355D01*
X0143970Y0070645D01*
X0144700Y0068881D01*
X0146051Y0067531D01*
X0147815Y0066800D01*
X0149724Y0066800D01*
X0151489Y0067531D01*
X0152839Y0068881D01*
X0153570Y0070645D01*
X0153570Y0075355D01*
X0152839Y0077119D01*
X0151489Y0078469D01*
X0149724Y0079200D01*
X0147815Y0079200D01*
X0145746Y0078165D02*
X0141793Y0078165D01*
X0142592Y0077366D02*
X0144947Y0077366D01*
X0144472Y0076568D02*
X0143067Y0076568D01*
X0143398Y0075769D02*
X0144141Y0075769D01*
X0143970Y0074970D02*
X0143570Y0074970D01*
X0143570Y0074172D02*
X0143970Y0074172D01*
X0143970Y0073373D02*
X0143570Y0073373D01*
X0143570Y0072575D02*
X0143970Y0072575D01*
X0143970Y0071776D02*
X0143570Y0071776D01*
X0143570Y0070978D02*
X0143970Y0070978D01*
X0144163Y0070179D02*
X0143377Y0070179D01*
X0143046Y0069381D02*
X0144493Y0069381D01*
X0144999Y0068582D02*
X0142540Y0068582D01*
X0141742Y0067784D02*
X0145798Y0067784D01*
X0147367Y0066985D02*
X0140172Y0066985D01*
X0150172Y0066985D02*
X0157367Y0066985D01*
X0157815Y0066800D02*
X0156051Y0067531D01*
X0154700Y0068881D01*
X0153970Y0070645D01*
X0153970Y0075355D01*
X0154700Y0077119D01*
X0156051Y0078469D01*
X0157815Y0079200D01*
X0159724Y0079200D01*
X0161489Y0078469D01*
X0162839Y0077119D01*
X0163570Y0075355D01*
X0163570Y0070645D01*
X0162839Y0068881D01*
X0161489Y0067531D01*
X0159724Y0066800D01*
X0157815Y0066800D01*
X0155798Y0067784D02*
X0151742Y0067784D01*
X0152540Y0068582D02*
X0154999Y0068582D01*
X0154493Y0069381D02*
X0153046Y0069381D01*
X0153377Y0070179D02*
X0154163Y0070179D01*
X0153970Y0070978D02*
X0153570Y0070978D01*
X0153570Y0071776D02*
X0153970Y0071776D01*
X0153970Y0072575D02*
X0153570Y0072575D01*
X0153570Y0073373D02*
X0153970Y0073373D01*
X0153970Y0074172D02*
X0153570Y0074172D01*
X0153570Y0074970D02*
X0153970Y0074970D01*
X0154141Y0075769D02*
X0153398Y0075769D01*
X0153067Y0076568D02*
X0154472Y0076568D01*
X0154947Y0077366D02*
X0152592Y0077366D01*
X0151793Y0078165D02*
X0155746Y0078165D01*
X0157243Y0078963D02*
X0150297Y0078963D01*
X0156537Y0079762D02*
X0165970Y0079762D01*
X0165970Y0080560D02*
X0157335Y0080560D01*
X0160297Y0078963D02*
X0165970Y0078963D01*
X0165746Y0078165D02*
X0161793Y0078165D01*
X0162592Y0077366D02*
X0164948Y0077366D01*
X0164472Y0076568D02*
X0163067Y0076568D01*
X0163398Y0075769D02*
X0164141Y0075769D01*
X0163970Y0074970D02*
X0163570Y0074970D01*
X0163570Y0074172D02*
X0163970Y0074172D01*
X0163970Y0073373D02*
X0163570Y0073373D01*
X0163570Y0072575D02*
X0163970Y0072575D01*
X0163970Y0071776D02*
X0163570Y0071776D01*
X0163570Y0070978D02*
X0163970Y0070978D01*
X0164163Y0070179D02*
X0163377Y0070179D01*
X0163046Y0069381D02*
X0164493Y0069381D01*
X0164999Y0068582D02*
X0162540Y0068582D01*
X0161742Y0067784D02*
X0165798Y0067784D01*
X0167367Y0066985D02*
X0160172Y0066985D01*
X0157827Y0086948D02*
X0165970Y0086948D01*
X0165970Y0087747D02*
X0157028Y0087747D01*
X0156230Y0088545D02*
X0165970Y0088545D01*
X0165970Y0094135D02*
X0136595Y0094135D01*
X0135796Y0094933D02*
X0165877Y0094933D01*
X0163054Y0095732D02*
X0134998Y0095732D01*
X0134199Y0096530D02*
X0161734Y0096530D01*
X0160935Y0097329D02*
X0133401Y0097329D01*
X0132244Y0098127D02*
X0160566Y0098127D01*
X0160236Y0098926D02*
X0123849Y0098926D01*
X0123051Y0099724D02*
X0160170Y0099724D01*
X0160170Y0100523D02*
X0118570Y0100523D01*
X0118570Y0101321D02*
X0160338Y0101321D01*
X0160669Y0102120D02*
X0123395Y0102120D01*
X0124193Y0102918D02*
X0136346Y0102918D01*
X0135547Y0103717D02*
X0130143Y0103717D01*
X0129927Y0103500D02*
X0132270Y0105843D01*
X0132270Y0107100D01*
X0128670Y0107100D01*
X0128670Y0103500D01*
X0129927Y0103500D01*
X0128670Y0103717D02*
X0127870Y0103717D01*
X0127870Y0104515D02*
X0128670Y0104515D01*
X0128670Y0105314D02*
X0127870Y0105314D01*
X0127870Y0106112D02*
X0128670Y0106112D01*
X0128670Y0106911D02*
X0127870Y0106911D01*
X0128670Y0107709D02*
X0133670Y0107709D01*
X0133670Y0106911D02*
X0132270Y0106911D01*
X0132270Y0106112D02*
X0133670Y0106112D01*
X0133950Y0105314D02*
X0131740Y0105314D01*
X0130942Y0104515D02*
X0134749Y0104515D01*
X0133670Y0108508D02*
X0132270Y0108508D01*
X0132120Y0109306D02*
X0133670Y0109306D01*
X0134369Y0110105D02*
X0131322Y0110105D01*
X0130523Y0110903D02*
X0135168Y0110903D01*
X0135966Y0111702D02*
X0118570Y0111702D01*
X0118570Y0110903D02*
X0126016Y0110903D01*
X0125218Y0110105D02*
X0123170Y0110105D01*
X0123969Y0109306D02*
X0124419Y0109306D01*
X0127870Y0109306D02*
X0128670Y0109306D01*
X0128670Y0108508D02*
X0127870Y0108508D01*
X0127870Y0110105D02*
X0128670Y0110105D01*
X0128670Y0110903D02*
X0127870Y0110903D01*
X0125597Y0104515D02*
X0125370Y0104515D01*
X0124992Y0103717D02*
X0126396Y0103717D01*
X0109970Y0101321D02*
X0085019Y0101321D01*
X0084221Y0102120D02*
X0088144Y0102120D01*
X0087346Y0102918D02*
X0073008Y0102918D01*
X0073807Y0102120D02*
X0079319Y0102120D01*
X0078520Y0101321D02*
X0074605Y0101321D01*
X0075404Y0100523D02*
X0077721Y0100523D01*
X0076923Y0099724D02*
X0076202Y0099724D01*
X0072210Y0103717D02*
X0086547Y0103717D01*
X0086170Y0104515D02*
X0071411Y0104515D01*
X0070613Y0105314D02*
X0086170Y0105314D01*
X0086170Y0106112D02*
X0069814Y0106112D01*
X0069016Y0106911D02*
X0086170Y0106911D01*
X0086170Y0107709D02*
X0068217Y0107709D01*
X0067419Y0108508D02*
X0086772Y0108508D01*
X0087571Y0109306D02*
X0066620Y0109306D01*
X0065822Y0110105D02*
X0069094Y0110105D01*
X0069699Y0109500D02*
X0073841Y0109500D01*
X0076770Y0112429D01*
X0076770Y0116571D01*
X0075770Y0117571D01*
X0075770Y0156796D01*
X0075161Y0158266D01*
X0064535Y0168891D01*
X0063065Y0169500D01*
X0061474Y0169500D01*
X0059565Y0169500D01*
X0053974Y0169500D01*
X0052504Y0168891D01*
X0051379Y0167766D01*
X0050770Y0166296D01*
X0050770Y0164704D01*
X0051379Y0163234D01*
X0052504Y0162109D01*
X0053974Y0161500D01*
X0060613Y0161500D01*
X0062113Y0160000D01*
X0061670Y0160000D01*
X0061670Y0156400D01*
X0065270Y0156400D01*
X0065270Y0156843D01*
X0067770Y0154343D01*
X0067770Y0117571D01*
X0066770Y0116571D01*
X0066770Y0112429D01*
X0069699Y0109500D01*
X0068295Y0110903D02*
X0065023Y0110903D01*
X0064225Y0111702D02*
X0067497Y0111702D01*
X0066770Y0112501D02*
X0063426Y0112501D01*
X0062627Y0113299D02*
X0066770Y0113299D01*
X0066770Y0114098D02*
X0061829Y0114098D01*
X0061030Y0114896D02*
X0066770Y0114896D01*
X0066770Y0115695D02*
X0060604Y0115695D01*
X0060274Y0116493D02*
X0066770Y0116493D01*
X0067490Y0117292D02*
X0059635Y0117292D01*
X0058555Y0118090D02*
X0067770Y0118090D01*
X0067770Y0118889D02*
X0012270Y0118889D01*
X0012270Y0119687D02*
X0067770Y0119687D01*
X0067770Y0120486D02*
X0012270Y0120486D01*
X0012270Y0121284D02*
X0067770Y0121284D01*
X0067770Y0122083D02*
X0012270Y0122083D01*
X0012270Y0122881D02*
X0067770Y0122881D01*
X0067770Y0123680D02*
X0012270Y0123680D01*
X0012270Y0124478D02*
X0067770Y0124478D01*
X0067770Y0125277D02*
X0012270Y0125277D01*
X0012270Y0126075D02*
X0067770Y0126075D01*
X0067770Y0126874D02*
X0012270Y0126874D01*
X0012270Y0127672D02*
X0067770Y0127672D01*
X0067770Y0128471D02*
X0012270Y0128471D01*
X0012270Y0129269D02*
X0067770Y0129269D01*
X0067770Y0130068D02*
X0012270Y0130068D01*
X0012270Y0130866D02*
X0067770Y0130866D01*
X0067770Y0131665D02*
X0012270Y0131665D01*
X0012270Y0132463D02*
X0067770Y0132463D01*
X0067770Y0133262D02*
X0012270Y0133262D01*
X0012270Y0134060D02*
X0067770Y0134060D01*
X0067770Y0134859D02*
X0012270Y0134859D01*
X0012270Y0135657D02*
X0067770Y0135657D01*
X0067770Y0136456D02*
X0012270Y0136456D01*
X0012270Y0137254D02*
X0067770Y0137254D01*
X0067770Y0138053D02*
X0012270Y0138053D01*
X0012270Y0138851D02*
X0067770Y0138851D01*
X0067770Y0139650D02*
X0012270Y0139650D01*
X0012270Y0140448D02*
X0067770Y0140448D01*
X0067770Y0141247D02*
X0012270Y0141247D01*
X0012270Y0142045D02*
X0067770Y0142045D01*
X0067770Y0142844D02*
X0012270Y0142844D01*
X0012270Y0143642D02*
X0067770Y0143642D01*
X0067770Y0144441D02*
X0012270Y0144441D01*
X0012270Y0145239D02*
X0067770Y0145239D01*
X0067770Y0146038D02*
X0012270Y0146038D01*
X0012270Y0146837D02*
X0030369Y0146837D01*
X0031019Y0146567D02*
X0029633Y0147141D01*
X0028572Y0148202D01*
X0027998Y0149588D01*
X0027998Y0151089D01*
X0028572Y0152475D01*
X0029633Y0153536D01*
X0031019Y0154110D01*
X0032520Y0154110D01*
X0033906Y0153536D01*
X0034967Y0152475D01*
X0035541Y0151089D01*
X0035541Y0149588D01*
X0034967Y0148202D01*
X0033906Y0147141D01*
X0032520Y0146567D01*
X0031019Y0146567D01*
X0029139Y0147635D02*
X0012270Y0147635D01*
X0012270Y0148434D02*
X0028476Y0148434D01*
X0028146Y0149232D02*
X0012270Y0149232D01*
X0012270Y0150031D02*
X0027998Y0150031D01*
X0027998Y0150829D02*
X0012270Y0150829D01*
X0012270Y0151628D02*
X0028221Y0151628D01*
X0028552Y0152426D02*
X0012270Y0152426D01*
X0012270Y0153225D02*
X0029322Y0153225D01*
X0030809Y0154023D02*
X0012270Y0154023D01*
X0012270Y0154822D02*
X0057270Y0154822D01*
X0057270Y0154343D02*
X0059613Y0152000D01*
X0060870Y0152000D01*
X0060870Y0155600D01*
X0061670Y0155600D01*
X0061670Y0156400D01*
X0060870Y0156400D01*
X0060870Y0160000D01*
X0059613Y0160000D01*
X0057270Y0157657D01*
X0057270Y0156400D01*
X0060870Y0156400D01*
X0060870Y0155600D01*
X0057270Y0155600D01*
X0057270Y0154343D01*
X0057590Y0154023D02*
X0032730Y0154023D01*
X0034218Y0153225D02*
X0058388Y0153225D01*
X0059187Y0152426D02*
X0034987Y0152426D01*
X0035318Y0151628D02*
X0067770Y0151628D01*
X0067770Y0152426D02*
X0063353Y0152426D01*
X0062927Y0152000D02*
X0065270Y0154343D01*
X0065270Y0155600D01*
X0061670Y0155600D01*
X0061670Y0152000D01*
X0062927Y0152000D01*
X0061670Y0152426D02*
X0060870Y0152426D01*
X0060870Y0153225D02*
X0061670Y0153225D01*
X0061670Y0154023D02*
X0060870Y0154023D01*
X0060870Y0154822D02*
X0061670Y0154822D01*
X0061670Y0155620D02*
X0066493Y0155620D01*
X0067291Y0154822D02*
X0065270Y0154822D01*
X0064950Y0154023D02*
X0067770Y0154023D01*
X0067770Y0153225D02*
X0064151Y0153225D01*
X0065270Y0156419D02*
X0065694Y0156419D01*
X0061670Y0156419D02*
X0060870Y0156419D01*
X0060870Y0157217D02*
X0061670Y0157217D01*
X0061670Y0158016D02*
X0060870Y0158016D01*
X0060870Y0158814D02*
X0061670Y0158814D01*
X0061670Y0159613D02*
X0060870Y0159613D01*
X0061702Y0160411D02*
X0012270Y0160411D01*
X0012270Y0159613D02*
X0059226Y0159613D01*
X0058427Y0158814D02*
X0012270Y0158814D01*
X0012270Y0158016D02*
X0057629Y0158016D01*
X0057270Y0157217D02*
X0012270Y0157217D01*
X0012270Y0156419D02*
X0057270Y0156419D01*
X0060870Y0155620D02*
X0012270Y0155620D01*
X0012270Y0161210D02*
X0060903Y0161210D01*
X0067426Y0166001D02*
X0125470Y0166001D01*
X0125470Y0166799D02*
X0066627Y0166799D01*
X0065829Y0167598D02*
X0125470Y0167598D01*
X0125470Y0168396D02*
X0100883Y0168396D01*
X0101375Y0168600D02*
X0099685Y0167900D01*
X0097855Y0167900D01*
X0096164Y0168600D01*
X0094870Y0169894D01*
X0094170Y0171585D01*
X0094170Y0173415D01*
X0094870Y0175106D01*
X0096164Y0176400D01*
X0097855Y0177100D01*
X0099410Y0177100D01*
X0105896Y0183586D01*
X0106684Y0184374D01*
X0107713Y0184800D01*
X0113564Y0184800D01*
X0115364Y0186600D01*
X0119175Y0186600D01*
X0121870Y0183905D01*
X0121870Y0180095D01*
X0119175Y0177400D01*
X0115364Y0177400D01*
X0113564Y0179200D01*
X0109429Y0179200D01*
X0103370Y0173140D01*
X0103370Y0171585D01*
X0102669Y0169894D01*
X0101375Y0168600D01*
X0101970Y0169195D02*
X0125470Y0169195D01*
X0125470Y0169993D02*
X0102710Y0169993D01*
X0103041Y0170792D02*
X0125470Y0170792D01*
X0125470Y0171590D02*
X0103370Y0171590D01*
X0103370Y0172389D02*
X0125470Y0172389D01*
X0125470Y0173187D02*
X0103417Y0173187D01*
X0104215Y0173986D02*
X0125470Y0173986D01*
X0125470Y0174784D02*
X0105014Y0174784D01*
X0105812Y0175583D02*
X0125470Y0175583D01*
X0125470Y0176381D02*
X0106611Y0176381D01*
X0107409Y0177180D02*
X0125470Y0177180D01*
X0125470Y0177978D02*
X0119754Y0177978D01*
X0120552Y0178777D02*
X0125470Y0178777D01*
X0125470Y0179575D02*
X0121351Y0179575D01*
X0121870Y0180374D02*
X0125470Y0180374D01*
X0125470Y0181172D02*
X0121870Y0181172D01*
X0121870Y0181971D02*
X0125470Y0181971D01*
X0125470Y0182770D02*
X0121870Y0182770D01*
X0121870Y0183568D02*
X0124696Y0183568D01*
X0123898Y0184367D02*
X0121409Y0184367D01*
X0120610Y0185165D02*
X0123670Y0185165D01*
X0123670Y0185964D02*
X0119811Y0185964D01*
X0119549Y0188359D02*
X0123670Y0188359D01*
X0123670Y0187561D02*
X0047184Y0187561D01*
X0047436Y0187744D02*
X0047926Y0188234D01*
X0048333Y0188794D01*
X0048647Y0189411D01*
X0048861Y0190070D01*
X0048961Y0190700D01*
X0043470Y0190700D01*
X0043470Y0191500D01*
X0048961Y0191500D01*
X0048861Y0192130D01*
X0048647Y0192789D01*
X0048333Y0193406D01*
X0047926Y0193966D01*
X0047436Y0194456D01*
X0046876Y0194863D01*
X0046259Y0195178D01*
X0045600Y0195392D01*
X0044916Y0195500D01*
X0043470Y0195500D01*
X0043470Y0191500D01*
X0042670Y0191500D01*
X0042670Y0195500D01*
X0041223Y0195500D01*
X0040539Y0195392D01*
X0039881Y0195178D01*
X0039264Y0194863D01*
X0038703Y0194456D01*
X0038214Y0193966D01*
X0037806Y0193406D01*
X0037492Y0192789D01*
X0037278Y0192130D01*
X0037178Y0191500D01*
X0042670Y0191500D01*
X0042670Y0190700D01*
X0043470Y0190700D01*
X0043470Y0186700D01*
X0044916Y0186700D01*
X0045600Y0186808D01*
X0046259Y0187022D01*
X0046876Y0187337D01*
X0047436Y0187744D01*
X0048017Y0188359D02*
X0117990Y0188359D01*
X0116587Y0189158D02*
X0048518Y0189158D01*
X0048824Y0189956D02*
X0115946Y0189956D01*
X0114728Y0185964D02*
X0012270Y0185964D01*
X0012270Y0186762D02*
X0015231Y0186762D01*
X0017070Y0186762D02*
X0017870Y0186762D01*
X0017870Y0186700D02*
X0019316Y0186700D01*
X0020000Y0186808D01*
X0020659Y0187022D01*
X0021276Y0187337D01*
X0021836Y0187744D01*
X0022326Y0188234D01*
X0022733Y0188794D01*
X0023047Y0189411D01*
X0023261Y0190070D01*
X0023361Y0190700D01*
X0017870Y0190700D01*
X0017870Y0186700D01*
X0017870Y0187561D02*
X0017070Y0187561D01*
X0017070Y0188359D02*
X0017870Y0188359D01*
X0017870Y0189158D02*
X0017070Y0189158D01*
X0017070Y0189956D02*
X0017870Y0189956D01*
X0017870Y0190755D02*
X0042670Y0190755D01*
X0042670Y0190700D02*
X0037178Y0190700D01*
X0037278Y0190070D01*
X0037492Y0189411D01*
X0037806Y0188794D01*
X0038214Y0188234D01*
X0038703Y0187744D01*
X0039264Y0187337D01*
X0039881Y0187022D01*
X0040539Y0186808D01*
X0041223Y0186700D01*
X0042670Y0186700D01*
X0042670Y0190700D01*
X0042670Y0189956D02*
X0043470Y0189956D01*
X0043470Y0189158D02*
X0042670Y0189158D01*
X0042670Y0188359D02*
X0043470Y0188359D01*
X0043470Y0187561D02*
X0042670Y0187561D01*
X0042670Y0186762D02*
X0043470Y0186762D01*
X0045308Y0186762D02*
X0123670Y0186762D01*
X0113929Y0185165D02*
X0012270Y0185165D01*
X0012270Y0184367D02*
X0106676Y0184367D01*
X0105878Y0183568D02*
X0012270Y0183568D01*
X0012270Y0182770D02*
X0105079Y0182770D01*
X0104281Y0181971D02*
X0012270Y0181971D01*
X0012270Y0181172D02*
X0103482Y0181172D01*
X0102684Y0180374D02*
X0063401Y0180374D01*
X0063175Y0180600D02*
X0059364Y0180600D01*
X0056670Y0177905D01*
X0056670Y0174095D01*
X0059364Y0171400D01*
X0063175Y0171400D01*
X0065870Y0174095D01*
X0065870Y0177905D01*
X0063175Y0180600D01*
X0064200Y0179575D02*
X0101885Y0179575D01*
X0101087Y0178777D02*
X0064998Y0178777D01*
X0065797Y0177978D02*
X0100288Y0177978D01*
X0099490Y0177180D02*
X0065870Y0177180D01*
X0065870Y0176381D02*
X0077146Y0176381D01*
X0077164Y0176400D02*
X0075870Y0175106D01*
X0075170Y0173415D01*
X0075170Y0171585D01*
X0075870Y0169894D01*
X0077164Y0168600D01*
X0078855Y0167900D01*
X0080685Y0167900D01*
X0082375Y0168600D01*
X0083669Y0169894D01*
X0084370Y0171585D01*
X0084370Y0173415D01*
X0083669Y0175106D01*
X0082375Y0176400D01*
X0080685Y0177100D01*
X0078855Y0177100D01*
X0077164Y0176400D01*
X0076347Y0175583D02*
X0065870Y0175583D01*
X0065870Y0174784D02*
X0075737Y0174784D01*
X0075406Y0173986D02*
X0065761Y0173986D01*
X0064962Y0173187D02*
X0075170Y0173187D01*
X0075170Y0172389D02*
X0064164Y0172389D01*
X0063365Y0171590D02*
X0075170Y0171590D01*
X0075498Y0170792D02*
X0033973Y0170792D01*
X0033906Y0170859D02*
X0032520Y0171433D01*
X0031019Y0171433D01*
X0029633Y0170859D01*
X0028572Y0169798D01*
X0027998Y0168412D01*
X0027998Y0166911D01*
X0028572Y0165525D01*
X0029633Y0164464D01*
X0031019Y0163890D01*
X0032520Y0163890D01*
X0033906Y0164464D01*
X0034967Y0165525D01*
X0035541Y0166911D01*
X0035541Y0168412D01*
X0034967Y0169798D01*
X0033906Y0170859D01*
X0034772Y0169993D02*
X0075829Y0169993D01*
X0076569Y0169195D02*
X0063802Y0169195D01*
X0065030Y0168396D02*
X0077656Y0168396D01*
X0081883Y0168396D02*
X0096656Y0168396D01*
X0095569Y0169195D02*
X0082970Y0169195D01*
X0083710Y0169993D02*
X0094829Y0169993D01*
X0094498Y0170792D02*
X0084041Y0170792D01*
X0084370Y0171590D02*
X0094170Y0171590D01*
X0094170Y0172389D02*
X0084370Y0172389D01*
X0084370Y0173187D02*
X0094170Y0173187D01*
X0094406Y0173986D02*
X0084133Y0173986D01*
X0083802Y0174784D02*
X0094737Y0174784D01*
X0095347Y0175583D02*
X0083192Y0175583D01*
X0082394Y0176381D02*
X0096146Y0176381D01*
X0108208Y0177978D02*
X0114786Y0177978D01*
X0113987Y0178777D02*
X0109006Y0178777D01*
X0110818Y0190755D02*
X0043470Y0190755D01*
X0043470Y0191553D02*
X0042670Y0191553D01*
X0042670Y0192352D02*
X0043470Y0192352D01*
X0043470Y0193150D02*
X0042670Y0193150D01*
X0042670Y0193949D02*
X0043470Y0193949D01*
X0043470Y0194747D02*
X0042670Y0194747D01*
X0047035Y0194747D02*
X0094570Y0194747D01*
X0094570Y0195546D02*
X0012270Y0195546D01*
X0012270Y0196344D02*
X0084966Y0196344D01*
X0084167Y0197143D02*
X0012270Y0197143D01*
X0012270Y0197941D02*
X0066331Y0197941D01*
X0064793Y0198740D02*
X0012270Y0198740D01*
X0012270Y0199538D02*
X0063995Y0199538D01*
X0063196Y0200337D02*
X0012270Y0200337D01*
X0012270Y0201135D02*
X0062595Y0201135D01*
X0062264Y0201934D02*
X0012270Y0201934D01*
X0012270Y0202732D02*
X0061933Y0202732D01*
X0061602Y0203531D02*
X0012270Y0203531D01*
X0012270Y0204329D02*
X0013939Y0204329D01*
X0012671Y0205128D02*
X0012270Y0205128D01*
X0021001Y0204329D02*
X0039539Y0204329D01*
X0038271Y0205128D02*
X0022269Y0205128D01*
X0023067Y0205926D02*
X0037472Y0205926D01*
X0037059Y0206725D02*
X0023481Y0206725D01*
X0023811Y0207523D02*
X0036728Y0207523D01*
X0036570Y0208322D02*
X0023970Y0208322D01*
X0023970Y0209120D02*
X0036570Y0209120D01*
X0036580Y0209919D02*
X0023960Y0209919D01*
X0023629Y0210717D02*
X0036911Y0210717D01*
X0037241Y0211516D02*
X0023298Y0211516D01*
X0022626Y0212314D02*
X0037913Y0212314D01*
X0048226Y0212314D02*
X0064847Y0212314D01*
X0064049Y0211516D02*
X0048898Y0211516D01*
X0049229Y0210717D02*
X0063250Y0210717D01*
X0062617Y0209919D02*
X0049560Y0209919D01*
X0049570Y0209120D02*
X0062286Y0209120D01*
X0061956Y0208322D02*
X0049570Y0208322D01*
X0049411Y0207523D02*
X0061625Y0207523D01*
X0061470Y0206725D02*
X0049081Y0206725D01*
X0048667Y0205926D02*
X0061470Y0205926D01*
X0061470Y0205128D02*
X0047869Y0205128D01*
X0046601Y0204329D02*
X0061470Y0204329D01*
X0047939Y0193949D02*
X0094741Y0193949D01*
X0095094Y0193150D02*
X0048463Y0193150D01*
X0048789Y0192352D02*
X0095893Y0192352D01*
X0083369Y0197941D02*
X0073208Y0197941D01*
X0074746Y0198740D02*
X0082570Y0198740D01*
X0059138Y0180374D02*
X0012270Y0180374D01*
X0012270Y0179575D02*
X0058340Y0179575D01*
X0057541Y0178777D02*
X0012270Y0178777D01*
X0012270Y0177978D02*
X0056743Y0177978D01*
X0056670Y0177180D02*
X0012270Y0177180D01*
X0012270Y0176381D02*
X0056670Y0176381D01*
X0056670Y0175583D02*
X0012270Y0175583D01*
X0012270Y0174784D02*
X0056670Y0174784D01*
X0056778Y0173986D02*
X0012270Y0173986D01*
X0012270Y0173187D02*
X0057577Y0173187D01*
X0058375Y0172389D02*
X0012270Y0172389D01*
X0012270Y0171590D02*
X0059174Y0171590D01*
X0053237Y0169195D02*
X0035217Y0169195D01*
X0035541Y0168396D02*
X0052009Y0168396D01*
X0051309Y0167598D02*
X0035541Y0167598D01*
X0035495Y0166799D02*
X0050978Y0166799D01*
X0050770Y0166001D02*
X0035164Y0166001D01*
X0034644Y0165202D02*
X0050770Y0165202D01*
X0050894Y0164404D02*
X0033761Y0164404D01*
X0029779Y0164404D02*
X0012270Y0164404D01*
X0012270Y0165202D02*
X0028895Y0165202D01*
X0028375Y0166001D02*
X0012270Y0166001D01*
X0012270Y0166799D02*
X0028044Y0166799D01*
X0027998Y0167598D02*
X0012270Y0167598D01*
X0012270Y0168396D02*
X0027998Y0168396D01*
X0028322Y0169195D02*
X0012270Y0169195D01*
X0012270Y0169993D02*
X0028768Y0169993D01*
X0029566Y0170792D02*
X0012270Y0170792D01*
X0012270Y0163605D02*
X0051225Y0163605D01*
X0051806Y0162807D02*
X0012270Y0162807D01*
X0012270Y0162008D02*
X0052747Y0162008D01*
X0068224Y0165202D02*
X0114815Y0165202D01*
X0114017Y0164404D02*
X0069023Y0164404D01*
X0069821Y0163605D02*
X0113270Y0163605D01*
X0113270Y0162807D02*
X0070620Y0162807D01*
X0071418Y0162008D02*
X0116870Y0162008D01*
X0116870Y0161600D02*
X0113270Y0161600D01*
X0113270Y0160343D01*
X0115613Y0158000D01*
X0116870Y0158000D01*
X0116870Y0161600D01*
X0116870Y0161210D02*
X0117670Y0161210D01*
X0117670Y0162008D02*
X0122818Y0162008D01*
X0122020Y0161210D02*
X0121270Y0161210D01*
X0121270Y0162807D02*
X0123617Y0162807D01*
X0124415Y0163605D02*
X0121270Y0163605D01*
X0120523Y0164404D02*
X0125214Y0164404D01*
X0125470Y0165202D02*
X0119724Y0165202D01*
X0117670Y0165202D02*
X0116870Y0165202D01*
X0116870Y0164404D02*
X0117670Y0164404D01*
X0117670Y0163605D02*
X0116870Y0163605D01*
X0116870Y0162807D02*
X0117670Y0162807D01*
X0117670Y0160411D02*
X0116870Y0160411D01*
X0116870Y0159613D02*
X0117670Y0159613D01*
X0117670Y0158814D02*
X0116870Y0158814D01*
X0116870Y0158016D02*
X0117670Y0158016D01*
X0118027Y0157217D02*
X0105770Y0157217D01*
X0105770Y0158016D02*
X0115597Y0158016D01*
X0114799Y0158814D02*
X0105112Y0158814D01*
X0104314Y0159613D02*
X0114000Y0159613D01*
X0113270Y0160411D02*
X0103515Y0160411D01*
X0102170Y0160411D02*
X0101370Y0160411D01*
X0101370Y0159613D02*
X0102170Y0159613D01*
X0102170Y0158814D02*
X0101370Y0158814D01*
X0101370Y0158016D02*
X0102170Y0158016D01*
X0102170Y0157217D02*
X0101370Y0157217D01*
X0101370Y0156419D02*
X0086370Y0156419D01*
X0086370Y0157217D02*
X0097770Y0157217D01*
X0097770Y0158016D02*
X0086370Y0158016D01*
X0086370Y0158405D02*
X0083675Y0161100D01*
X0079864Y0161100D01*
X0077170Y0158405D01*
X0077170Y0154595D01*
X0079864Y0151900D01*
X0083675Y0151900D01*
X0086370Y0154595D01*
X0086370Y0158405D01*
X0085961Y0158814D02*
X0098427Y0158814D01*
X0099226Y0159613D02*
X0085162Y0159613D01*
X0084364Y0160411D02*
X0100024Y0160411D01*
X0102170Y0156419D02*
X0117229Y0156419D01*
X0116430Y0155620D02*
X0105770Y0155620D01*
X0100736Y0152426D02*
X0084201Y0152426D01*
X0085000Y0153225D02*
X0099388Y0153225D01*
X0098590Y0154023D02*
X0085798Y0154023D01*
X0086370Y0154822D02*
X0097791Y0154822D01*
X0097770Y0155620D02*
X0086370Y0155620D01*
X0079338Y0152426D02*
X0075770Y0152426D01*
X0075770Y0151628D02*
X0099937Y0151628D01*
X0099139Y0150829D02*
X0075770Y0150829D01*
X0075770Y0150031D02*
X0098340Y0150031D01*
X0097542Y0149232D02*
X0075770Y0149232D01*
X0075770Y0148434D02*
X0096743Y0148434D01*
X0095945Y0147635D02*
X0075770Y0147635D01*
X0075770Y0146837D02*
X0095146Y0146837D01*
X0094348Y0146038D02*
X0075770Y0146038D01*
X0075770Y0145239D02*
X0093549Y0145239D01*
X0092836Y0144441D02*
X0075770Y0144441D01*
X0075770Y0143642D02*
X0092505Y0143642D01*
X0092470Y0142844D02*
X0075770Y0142844D01*
X0075770Y0142045D02*
X0092470Y0142045D01*
X0092470Y0141247D02*
X0075770Y0141247D01*
X0075770Y0140448D02*
X0092470Y0140448D01*
X0092470Y0139650D02*
X0075770Y0139650D01*
X0075770Y0138851D02*
X0092470Y0138851D01*
X0092470Y0138053D02*
X0075770Y0138053D01*
X0075770Y0137254D02*
X0092470Y0137254D01*
X0092470Y0136456D02*
X0075770Y0136456D01*
X0075770Y0135657D02*
X0092470Y0135657D01*
X0092470Y0134859D02*
X0075770Y0134859D01*
X0075770Y0134060D02*
X0092470Y0134060D01*
X0092470Y0133262D02*
X0075770Y0133262D01*
X0075770Y0132463D02*
X0092470Y0132463D01*
X0092470Y0131665D02*
X0075770Y0131665D01*
X0075770Y0130866D02*
X0092470Y0130866D01*
X0092470Y0130068D02*
X0075770Y0130068D01*
X0075770Y0129269D02*
X0092470Y0129269D01*
X0092470Y0128471D02*
X0075770Y0128471D01*
X0075770Y0127672D02*
X0092470Y0127672D01*
X0092470Y0126874D02*
X0075770Y0126874D01*
X0075770Y0126075D02*
X0092470Y0126075D01*
X0092470Y0125277D02*
X0075770Y0125277D01*
X0075770Y0124478D02*
X0092470Y0124478D01*
X0092470Y0123680D02*
X0075770Y0123680D01*
X0075770Y0122881D02*
X0092470Y0122881D01*
X0092470Y0122083D02*
X0075770Y0122083D01*
X0075770Y0121284D02*
X0092470Y0121284D01*
X0092470Y0120486D02*
X0075770Y0120486D01*
X0075770Y0119687D02*
X0092470Y0119687D01*
X0092470Y0118889D02*
X0075770Y0118889D01*
X0075770Y0118090D02*
X0092470Y0118090D01*
X0092470Y0117292D02*
X0076049Y0117292D01*
X0076770Y0116493D02*
X0092470Y0116493D01*
X0092470Y0115695D02*
X0076770Y0115695D01*
X0076770Y0114896D02*
X0092470Y0114896D01*
X0092470Y0114098D02*
X0076770Y0114098D01*
X0076770Y0113299D02*
X0092470Y0113299D01*
X0092470Y0112501D02*
X0076770Y0112501D01*
X0076043Y0111702D02*
X0092470Y0111702D01*
X0091713Y0110903D02*
X0075244Y0110903D01*
X0074446Y0110105D02*
X0088369Y0110105D01*
X0085818Y0100523D02*
X0109970Y0100523D01*
X0109970Y0088545D02*
X0103159Y0088545D01*
X0103958Y0087747D02*
X0109970Y0087747D01*
X0109970Y0086948D02*
X0104756Y0086948D01*
X0105555Y0086150D02*
X0109970Y0086150D01*
X0109970Y0085351D02*
X0105820Y0085351D01*
X0105820Y0084553D02*
X0109970Y0084553D01*
X0101670Y0084553D02*
X0100870Y0084553D01*
X0100870Y0085351D02*
X0101670Y0085351D01*
X0101670Y0086150D02*
X0100870Y0086150D01*
X0100870Y0086948D02*
X0101670Y0086948D01*
X0101670Y0087747D02*
X0100870Y0087747D01*
X0100870Y0088545D02*
X0101670Y0088545D01*
X0108061Y0077366D02*
X0109970Y0077366D01*
X0109970Y0076568D02*
X0108859Y0076568D01*
X0109658Y0075769D02*
X0109970Y0075769D01*
X0090441Y0074172D02*
X0012270Y0074172D01*
X0012270Y0074970D02*
X0089642Y0074970D01*
X0088844Y0075769D02*
X0012270Y0075769D01*
X0012270Y0076568D02*
X0088045Y0076568D01*
X0087247Y0077366D02*
X0012270Y0077366D01*
X0012270Y0078165D02*
X0086448Y0078165D01*
X0085650Y0078963D02*
X0012270Y0078963D01*
X0012270Y0079762D02*
X0084851Y0079762D01*
X0084053Y0080560D02*
X0012270Y0080560D01*
X0012270Y0081359D02*
X0083254Y0081359D01*
X0082456Y0082157D02*
X0012270Y0082157D01*
X0012270Y0082956D02*
X0081657Y0082956D01*
X0080859Y0083754D02*
X0012270Y0083754D01*
X0012270Y0084553D02*
X0080060Y0084553D01*
X0079262Y0085351D02*
X0012270Y0085351D01*
X0012270Y0086150D02*
X0078463Y0086150D01*
X0077665Y0086948D02*
X0012270Y0086948D01*
X0012270Y0087747D02*
X0076866Y0087747D01*
X0076068Y0088545D02*
X0012270Y0088545D01*
X0012270Y0089344D02*
X0075269Y0089344D01*
X0074471Y0090142D02*
X0012270Y0090142D01*
X0012270Y0090941D02*
X0073672Y0090941D01*
X0072874Y0091739D02*
X0012270Y0091739D01*
X0012270Y0092538D02*
X0060661Y0092538D01*
X0059862Y0093336D02*
X0012270Y0093336D01*
X0012270Y0094135D02*
X0059064Y0094135D01*
X0058265Y0094933D02*
X0012270Y0094933D01*
X0012270Y0095732D02*
X0057770Y0095732D01*
X0057770Y0096530D02*
X0012270Y0096530D01*
X0012270Y0097329D02*
X0057770Y0097329D01*
X0057770Y0098127D02*
X0012270Y0098127D01*
X0012270Y0098926D02*
X0057770Y0098926D01*
X0057923Y0099724D02*
X0012270Y0099724D01*
X0012270Y0100523D02*
X0058721Y0100523D01*
X0059520Y0101321D02*
X0012270Y0101321D01*
X0012270Y0102120D02*
X0060319Y0102120D01*
X0061694Y0102918D02*
X0012270Y0102918D01*
X0012270Y0103717D02*
X0060896Y0103717D01*
X0060097Y0104515D02*
X0012270Y0104515D01*
X0012270Y0105314D02*
X0059299Y0105314D01*
X0058500Y0106112D02*
X0012270Y0106112D01*
X0012270Y0106911D02*
X0057702Y0106911D01*
X0056903Y0107709D02*
X0012270Y0107709D01*
X0012270Y0108508D02*
X0056105Y0108508D01*
X0055306Y0109306D02*
X0012270Y0109306D01*
X0012270Y0110105D02*
X0054508Y0110105D01*
X0051500Y0110903D02*
X0012270Y0110903D01*
X0012270Y0111702D02*
X0050411Y0111702D01*
X0049768Y0112501D02*
X0012270Y0112501D01*
X0012270Y0113299D02*
X0049438Y0113299D01*
X0049270Y0114098D02*
X0012270Y0114098D01*
X0012270Y0114896D02*
X0049270Y0114896D01*
X0049435Y0115695D02*
X0012270Y0115695D01*
X0012270Y0116493D02*
X0049766Y0116493D01*
X0050404Y0117292D02*
X0012270Y0117292D01*
X0012270Y0118090D02*
X0051484Y0118090D01*
X0067770Y0096530D02*
X0068083Y0096530D01*
X0067770Y0095732D02*
X0068881Y0095732D01*
X0069680Y0094933D02*
X0067274Y0094933D01*
X0066475Y0094135D02*
X0070478Y0094135D01*
X0071277Y0093336D02*
X0065677Y0093336D01*
X0064878Y0092538D02*
X0072075Y0092538D01*
X0086770Y0098127D02*
X0086892Y0098127D01*
X0086770Y0098926D02*
X0087690Y0098926D01*
X0088489Y0099724D02*
X0086616Y0099724D01*
X0111938Y0117292D02*
X0113170Y0117292D01*
X0113170Y0118090D02*
X0111870Y0118090D01*
X0111386Y0118889D02*
X0113653Y0118889D01*
X0114451Y0119687D02*
X0110588Y0119687D01*
X0109789Y0120486D02*
X0115250Y0120486D01*
X0117717Y0123680D02*
X0098070Y0123680D01*
X0098070Y0124478D02*
X0116766Y0124478D01*
X0116313Y0125277D02*
X0098070Y0125277D01*
X0098070Y0126075D02*
X0116070Y0126075D01*
X0116070Y0126874D02*
X0098070Y0126874D01*
X0098070Y0127672D02*
X0116292Y0127672D01*
X0116715Y0128471D02*
X0098070Y0128471D01*
X0098070Y0129269D02*
X0117593Y0129269D01*
X0118944Y0130866D02*
X0098070Y0130866D01*
X0098070Y0130068D02*
X0119742Y0130068D01*
X0118145Y0131665D02*
X0098070Y0131665D01*
X0098070Y0132463D02*
X0117347Y0132463D01*
X0116548Y0133262D02*
X0098070Y0133262D01*
X0098070Y0134060D02*
X0115750Y0134060D01*
X0114951Y0134859D02*
X0098070Y0134859D01*
X0098070Y0135657D02*
X0114153Y0135657D01*
X0113354Y0136456D02*
X0098070Y0136456D01*
X0098070Y0137254D02*
X0112556Y0137254D01*
X0111757Y0138053D02*
X0098070Y0138053D01*
X0098070Y0138851D02*
X0110959Y0138851D01*
X0110160Y0139650D02*
X0098070Y0139650D01*
X0098070Y0140448D02*
X0109361Y0140448D01*
X0108563Y0141247D02*
X0098070Y0141247D01*
X0098275Y0142045D02*
X0105219Y0142045D01*
X0104420Y0142844D02*
X0099073Y0142844D01*
X0099872Y0143642D02*
X0103622Y0143642D01*
X0102823Y0144441D02*
X0100670Y0144441D01*
X0101469Y0145239D02*
X0102670Y0145239D01*
X0102670Y0146038D02*
X0102267Y0146038D01*
X0113270Y0161210D02*
X0072217Y0161210D01*
X0073015Y0160411D02*
X0079176Y0160411D01*
X0078377Y0159613D02*
X0073814Y0159613D01*
X0074612Y0158814D02*
X0077578Y0158814D01*
X0077170Y0158016D02*
X0075264Y0158016D01*
X0075595Y0157217D02*
X0077170Y0157217D01*
X0077170Y0156419D02*
X0075770Y0156419D01*
X0075770Y0155620D02*
X0077170Y0155620D01*
X0077170Y0154822D02*
X0075770Y0154822D01*
X0075770Y0154023D02*
X0077741Y0154023D01*
X0078540Y0153225D02*
X0075770Y0153225D01*
X0067770Y0150829D02*
X0035541Y0150829D01*
X0035541Y0150031D02*
X0067770Y0150031D01*
X0067770Y0149232D02*
X0035394Y0149232D01*
X0035063Y0148434D02*
X0067770Y0148434D01*
X0067770Y0147635D02*
X0034400Y0147635D01*
X0033171Y0146837D02*
X0067770Y0146837D01*
X0098070Y0122881D02*
X0118929Y0122881D01*
X0119727Y0122083D02*
X0098070Y0122083D01*
X0112736Y0116493D02*
X0113170Y0116493D01*
X0181570Y0093336D02*
X0199770Y0093336D01*
X0199770Y0094135D02*
X0181864Y0094135D01*
X0182663Y0094933D02*
X0200546Y0094933D01*
X0201345Y0095732D02*
X0185486Y0095732D01*
X0186805Y0096530D02*
X0227840Y0096530D01*
X0227042Y0095732D02*
X0206195Y0095732D01*
X0206993Y0094933D02*
X0226243Y0094933D01*
X0225445Y0094135D02*
X0207770Y0094135D01*
X0207770Y0093336D02*
X0224646Y0093336D01*
X0223848Y0092538D02*
X0204170Y0092538D01*
X0204170Y0093336D02*
X0203370Y0093336D01*
X0203370Y0092538D02*
X0181570Y0092538D01*
X0181570Y0091739D02*
X0199770Y0091739D01*
X0199770Y0090941D02*
X0181570Y0090941D01*
X0181570Y0090142D02*
X0200471Y0090142D01*
X0201269Y0089344D02*
X0181570Y0089344D01*
X0192138Y0097329D02*
X0228639Y0097329D01*
X0229437Y0098127D02*
X0193357Y0098127D01*
X0194155Y0098926D02*
X0230236Y0098926D01*
X0231034Y0099724D02*
X0194954Y0099724D01*
X0195752Y0100523D02*
X0231833Y0100523D01*
X0231970Y0101321D02*
X0196551Y0101321D01*
X0197349Y0102120D02*
X0231970Y0102120D01*
X0231970Y0102918D02*
X0198148Y0102918D01*
X0198946Y0103717D02*
X0231970Y0103717D01*
X0231970Y0104515D02*
X0199745Y0104515D01*
X0200543Y0105314D02*
X0231970Y0105314D01*
X0231970Y0106112D02*
X0201342Y0106112D01*
X0202140Y0106911D02*
X0231970Y0106911D01*
X0231970Y0107709D02*
X0202939Y0107709D01*
X0206283Y0108508D02*
X0231970Y0108508D01*
X0231970Y0109306D02*
X0207082Y0109306D01*
X0207880Y0110105D02*
X0213159Y0110105D01*
X0212361Y0110903D02*
X0208370Y0110903D01*
X0208370Y0111702D02*
X0211562Y0111702D01*
X0211170Y0112501D02*
X0208370Y0112501D01*
X0208370Y0113299D02*
X0211170Y0113299D01*
X0211170Y0114098D02*
X0208370Y0114098D01*
X0218380Y0110105D02*
X0220659Y0110105D01*
X0219861Y0110903D02*
X0219179Y0110903D01*
X0225880Y0110105D02*
X0231970Y0110105D01*
X0231970Y0110903D02*
X0226679Y0110903D01*
X0227477Y0111702D02*
X0231970Y0111702D01*
X0231970Y0112501D02*
X0227870Y0112501D01*
X0227870Y0113299D02*
X0231970Y0113299D01*
X0231970Y0114098D02*
X0227870Y0114098D01*
X0227870Y0114896D02*
X0229348Y0114896D01*
X0228554Y0115695D02*
X0227870Y0115695D01*
X0228223Y0116493D02*
X0227282Y0116493D01*
X0204170Y0095732D02*
X0203370Y0095732D01*
X0203370Y0094933D02*
X0204170Y0094933D01*
X0204170Y0094135D02*
X0203370Y0094135D01*
X0207770Y0091739D02*
X0223049Y0091739D01*
X0222336Y0090941D02*
X0207770Y0090941D01*
X0207069Y0090142D02*
X0222005Y0090142D01*
X0221970Y0089344D02*
X0206270Y0089344D01*
X0205730Y0088545D02*
X0221970Y0088545D01*
X0221970Y0087747D02*
X0217680Y0087747D01*
X0218478Y0086948D02*
X0221970Y0086948D01*
X0221970Y0086150D02*
X0219277Y0086150D01*
X0219770Y0085351D02*
X0221970Y0085351D01*
X0221970Y0084553D02*
X0219770Y0084553D01*
X0216170Y0084553D02*
X0215370Y0084553D01*
X0215370Y0085351D02*
X0216170Y0085351D01*
X0216170Y0086150D02*
X0215370Y0086150D01*
X0215370Y0086948D02*
X0216170Y0086948D01*
X0216170Y0087747D02*
X0215370Y0087747D01*
X0213860Y0087747D02*
X0206528Y0087747D01*
X0207327Y0086948D02*
X0213061Y0086948D01*
X0212262Y0086150D02*
X0208125Y0086150D01*
X0208370Y0085351D02*
X0211770Y0085351D01*
X0211770Y0084553D02*
X0208370Y0084553D01*
X0215370Y0082157D02*
X0216170Y0082157D01*
X0216170Y0081359D02*
X0215370Y0081359D01*
X0215370Y0080560D02*
X0216170Y0080560D01*
X0191027Y0103717D02*
X0186558Y0103717D01*
X0187357Y0102918D02*
X0190228Y0102918D01*
X0191825Y0104515D02*
X0184889Y0104515D01*
X0146414Y0048620D02*
X0141126Y0048620D01*
X0142137Y0047821D02*
X0145403Y0047821D01*
X0144661Y0047023D02*
X0142879Y0047023D01*
X0143210Y0046224D02*
X0144330Y0046224D01*
X0143999Y0045426D02*
X0143540Y0045426D01*
X0143570Y0044627D02*
X0143970Y0044627D01*
X0143970Y0043829D02*
X0143570Y0043829D01*
X0143570Y0043030D02*
X0143970Y0043030D01*
X0143970Y0042232D02*
X0143570Y0042232D01*
X0143570Y0041433D02*
X0143970Y0041433D01*
X0143974Y0040634D02*
X0143565Y0040634D01*
X0143234Y0039836D02*
X0144305Y0039836D01*
X0134305Y0039836D02*
X0133234Y0039836D01*
X0133565Y0040634D02*
X0133974Y0040634D01*
X0133970Y0041433D02*
X0133570Y0041433D01*
X0133570Y0042232D02*
X0133970Y0042232D01*
X0133970Y0043030D02*
X0133570Y0043030D01*
X0133570Y0043829D02*
X0133970Y0043829D01*
X0133970Y0044627D02*
X0133570Y0044627D01*
X0133540Y0045426D02*
X0133999Y0045426D01*
X0134330Y0046224D02*
X0133210Y0046224D01*
X0132879Y0047023D02*
X0134661Y0047023D01*
X0135403Y0047821D02*
X0132137Y0047821D01*
X0131126Y0048620D02*
X0136414Y0048620D01*
X0126414Y0048620D02*
X0122770Y0048620D01*
X0122770Y0047821D02*
X0125403Y0047821D01*
X0124661Y0047023D02*
X0122770Y0047023D01*
X0122770Y0046224D02*
X0124330Y0046224D01*
X0123999Y0045426D02*
X0122770Y0045426D01*
X0122799Y0044627D02*
X0123970Y0044627D01*
X0123970Y0043829D02*
X0123598Y0043829D01*
X0099234Y0022269D02*
X0069738Y0022269D01*
X0070536Y0021470D02*
X0118260Y0021470D01*
X0116753Y0020672D02*
X0108755Y0020672D01*
X0108333Y0020846D02*
X0106206Y0020846D01*
X0104241Y0020032D01*
X0102737Y0018529D01*
X0101923Y0016563D01*
X0101923Y0014437D01*
X0102737Y0012471D01*
X0104241Y0010967D01*
X0106206Y0010154D01*
X0108333Y0010154D01*
X0110298Y0010967D01*
X0111802Y0012471D01*
X0112616Y0014437D01*
X0112616Y0016563D01*
X0111802Y0018529D01*
X0110298Y0020032D01*
X0108333Y0020846D01*
X0110457Y0019873D02*
X0115955Y0019873D01*
X0115475Y0019075D02*
X0111256Y0019075D01*
X0111907Y0018276D02*
X0115144Y0018276D01*
X0114970Y0017478D02*
X0112237Y0017478D01*
X0112568Y0016679D02*
X0114970Y0016679D01*
X0114970Y0015881D02*
X0112616Y0015881D01*
X0112616Y0015082D02*
X0114970Y0015082D01*
X0114970Y0014284D02*
X0112553Y0014284D01*
X0112222Y0013485D02*
X0114970Y0013485D01*
X0115160Y0012687D02*
X0111891Y0012687D01*
X0111219Y0011888D02*
X0115490Y0011888D01*
X0115992Y0011090D02*
X0110420Y0011090D01*
X0108665Y0010291D02*
X0116790Y0010291D01*
X0118350Y0009493D02*
X0070499Y0009493D01*
X0071298Y0010291D02*
X0075874Y0010291D01*
X0074119Y0011090D02*
X0071926Y0011090D01*
X0072257Y0011888D02*
X0073321Y0011888D01*
X0072648Y0012687D02*
X0072587Y0012687D01*
X0078665Y0010291D02*
X0105874Y0010291D01*
X0104119Y0011090D02*
X0080420Y0011090D01*
X0081219Y0011888D02*
X0103321Y0011888D01*
X0102648Y0012687D02*
X0081891Y0012687D01*
X0082222Y0013485D02*
X0102317Y0013485D01*
X0101987Y0014284D02*
X0082553Y0014284D01*
X0082616Y0015082D02*
X0101923Y0015082D01*
X0101923Y0015881D02*
X0082616Y0015881D01*
X0082568Y0016679D02*
X0101971Y0016679D01*
X0102302Y0017478D02*
X0082237Y0017478D01*
X0081907Y0018276D02*
X0102633Y0018276D01*
X0103283Y0019075D02*
X0081256Y0019075D01*
X0080457Y0019873D02*
X0104082Y0019873D01*
X0105784Y0020672D02*
X0078755Y0020672D01*
X0075784Y0020672D02*
X0071335Y0020672D01*
X0071941Y0019873D02*
X0074082Y0019873D01*
X0073283Y0019075D02*
X0072272Y0019075D01*
X0072603Y0018276D02*
X0072633Y0018276D01*
X0068188Y0023067D02*
X0097919Y0023067D01*
X0165932Y0035843D02*
X0180456Y0035843D01*
X0179658Y0035045D02*
X0166730Y0035045D01*
X0167370Y0034246D02*
X0178859Y0034246D01*
X0178770Y0033448D02*
X0167370Y0033448D01*
X0040831Y0186762D02*
X0019708Y0186762D01*
X0021584Y0187561D02*
X0038956Y0187561D01*
X0038122Y0188359D02*
X0022417Y0188359D01*
X0022918Y0189158D02*
X0037621Y0189158D01*
X0037315Y0189956D02*
X0023224Y0189956D01*
X0023353Y0191553D02*
X0037187Y0191553D01*
X0037350Y0192352D02*
X0023189Y0192352D01*
X0022863Y0193150D02*
X0037676Y0193150D01*
X0038201Y0193949D02*
X0022339Y0193949D01*
X0021435Y0194747D02*
X0039104Y0194747D01*
X0048953Y0191553D02*
X0110019Y0191553D01*
X0017870Y0191553D02*
X0017070Y0191553D01*
X0017070Y0191500D02*
X0017070Y0190700D01*
X0012270Y0190700D01*
X0012270Y0191500D01*
X0017070Y0191500D01*
X0017070Y0190755D02*
X0012270Y0190755D01*
X0012270Y0188359D02*
X0012522Y0188359D01*
X0012270Y0187561D02*
X0013356Y0187561D01*
X0017070Y0192352D02*
X0017870Y0192352D01*
X0017870Y0193150D02*
X0017070Y0193150D01*
X0017070Y0193949D02*
X0017870Y0193949D01*
X0017870Y0194747D02*
X0017070Y0194747D01*
X0013504Y0194747D02*
X0012270Y0194747D01*
X0012270Y0193949D02*
X0012601Y0193949D01*
D26*
X0149770Y0185500D03*
X0159770Y0185500D03*
X0169770Y0185500D03*
X0179770Y0185500D03*
X0189770Y0185500D03*
X0199770Y0185500D03*
X0209770Y0185500D03*
X0219770Y0185500D03*
X0229770Y0185500D03*
X0239770Y0185500D03*
X0239770Y0175500D03*
X0249770Y0175500D03*
X0259770Y0175500D03*
X0259770Y0165500D03*
X0249770Y0165500D03*
X0239770Y0165500D03*
X0229770Y0165500D03*
X0219770Y0165500D03*
X0219770Y0175500D03*
X0229770Y0175500D03*
X0209770Y0175500D03*
X0199770Y0175500D03*
X0199770Y0165500D03*
X0209770Y0165500D03*
X0209770Y0155500D03*
X0199770Y0155500D03*
X0199770Y0145500D03*
X0209770Y0145500D03*
X0219770Y0145500D03*
X0229770Y0145500D03*
X0239770Y0145500D03*
X0249770Y0145500D03*
X0259770Y0145500D03*
X0259770Y0155500D03*
X0269770Y0155500D03*
X0249770Y0155500D03*
X0239770Y0155500D03*
X0229770Y0155500D03*
X0219770Y0155500D03*
X0219770Y0135500D03*
X0229770Y0135500D03*
X0239770Y0135500D03*
X0249770Y0135500D03*
X0259770Y0135500D03*
X0269770Y0135500D03*
X0269770Y0125500D03*
X0259770Y0125500D03*
X0249770Y0125500D03*
X0239770Y0125500D03*
X0229770Y0125500D03*
X0219770Y0125500D03*
X0209770Y0125500D03*
X0199770Y0125500D03*
X0199770Y0135500D03*
X0209770Y0135500D03*
X0189770Y0135500D03*
X0189770Y0125500D03*
X0179770Y0125500D03*
X0169770Y0125500D03*
X0169770Y0135500D03*
X0179770Y0135500D03*
X0179770Y0145500D03*
X0169770Y0145500D03*
X0169770Y0155500D03*
X0179770Y0155500D03*
X0189770Y0155500D03*
X0189770Y0145500D03*
X0189770Y0165500D03*
X0189770Y0175500D03*
X0179770Y0175500D03*
X0169770Y0175500D03*
X0169770Y0165500D03*
X0179770Y0165500D03*
X0159770Y0165500D03*
X0149770Y0165500D03*
X0149770Y0175500D03*
X0159770Y0175500D03*
X0159770Y0155500D03*
X0149770Y0155500D03*
X0159770Y0145500D03*
X0159770Y0135500D03*
X0159770Y0125500D03*
M02*
