M48
;GenerationSoftware,Autodesk,EAGLE,9.2.2*%
;CreationDate,2019-02-25T04:26:38Z*%
FMAT,2
ICI,OFF
METRIC,TZ,000.000
T9C0.350
T7C0.850
T6C0.900
T5C0.950
T3C1.100
T2C3.200
%
G90
M71
T2
X13970Y2540
X15240Y50800
X66040Y7620
X66040Y35560
T3
X40640Y35560
X43180Y38100
X45720Y38100
X48260Y38100
X50800Y38100
X53340Y38100
X55880Y38100
X58420Y38100
X60960Y38100
X63500Y38100
X38100Y35560
X35560Y38100
X43180Y35560
X45720Y35560
X48260Y35560
X50800Y35560
X53340Y35560
X40640Y38100
X38100Y38100
X60960Y35560
X63500Y40640
X60960Y40640
X58420Y40640
X55880Y40640
X53340Y40640
X50800Y40640
X48260Y40640
X45720Y40640
X43180Y40640
X40640Y40640
X38100Y40640
X35560Y40640
X58420Y45720
X40640Y30480
X17780Y2540
X25400Y2540
X66040Y38100
X63500Y43180
X60960Y43180
X38100Y45720
X66040Y33020
X60960Y30480
X58420Y30480
X55880Y30480
X53340Y30480
X50800Y30480
X48260Y30480
X45720Y30480
X43180Y30480
X55880Y35560
X38100Y30480
X63500Y33020
X60960Y33020
X58420Y33020
X55880Y33020
X53340Y33020
X50800Y33020
X48260Y33020
X45720Y33020
X43180Y33020
X40640Y33020
X38100Y33020
X63500Y35560
X63500Y30480
X58420Y35560
X53340Y45720
X35560Y43180
X35560Y45720
X55880Y45720
X66040Y30480
X38100Y43180
X40640Y43180
X43180Y43180
X45720Y43180
X48260Y43180
X45720Y45720
X50800Y43180
X48260Y45720
X50800Y45720
X43180Y45720
X40640Y45720
X58420Y43180
X55880Y43180
X53340Y43180
X41656Y50800
X21336Y50800
X39116Y50800
X36576Y50800
X34036Y50800
X31496Y50800
X28956Y50800
X26416Y50800
X23876Y50800
X18796Y50800
X1956Y51664
X1956Y47142
X8458Y51664
X8458Y47142
X60325Y23495
X57785Y23495
X15748Y27686
X18288Y23368
X13462Y23368
T5
X66040Y22606
X63500Y22606
X66040Y25146
X66040Y27686
X63500Y27686
X63500Y25146
T6
X5588Y41189
X5588Y36789
T7
X30226Y17145
X42926Y9525
X40386Y9525
X37846Y9525
X35306Y9525
X32766Y9525
X30226Y9525
X45466Y9525
X32766Y17145
X35306Y17145
X37846Y17145
X40386Y17145
X42926Y17145
X45466Y17145
X48006Y17145
X50546Y17145
X48006Y9525
X50546Y9525
X53086Y9525
X55626Y9525
X58166Y9525
X60706Y9525
X63246Y9525
X45720Y50800
X48260Y50800
X50800Y50800
X53340Y50800
X63500Y50800
X60960Y50800
X58420Y50800
X55880Y50800
X53086Y17145
X63500Y2540
X60960Y2540
X58420Y2540
X55880Y2540
X53340Y2540
X50800Y2540
X27940Y2540
X30480Y2540
X33020Y2540
X38100Y2540
X40640Y2540
X43180Y2540
X45720Y2540
X63246Y17145
X60706Y17145
X58166Y17145
X55626Y17145
X35560Y2540
X57150Y20066
X18288Y38354
X23368Y38354
X32639Y21082
X30099Y21082
X49784Y24892
X49784Y19812
X54483Y27432
X40640Y23622
X45466Y23622
X59563Y27432
X38735Y6858
X43815Y6858
X45974Y6858
X20574Y22860
X64770Y20066
X52324Y19812
X52324Y27432
X27432Y28194
X27432Y35814
X24765Y28194
X24765Y35814
X32766Y45974
X32766Y38354
X30226Y45974
X30226Y38354
X13081Y38227
X13081Y43307
X27305Y39751
X27305Y44831
X35941Y19812
X28194Y22860
X28194Y25527
X20574Y25527
X18796Y14224
X18796Y6604
X15748Y6604
X15748Y14224
X23241Y17399
X23241Y19939
X22606Y42418
X17780Y42418
X42926Y19812
X48006Y19812
X41021Y19812
X30099Y35306
X51054Y6858
X23241Y8001
X23241Y5461
X23241Y13970
X23241Y11430
X32639Y25908
X30099Y25908
X32639Y30607
X30099Y30607
X32639Y35306
T9
X34290Y7239
X42037Y5842
X61976Y11303
X62103Y5969
X59690Y5969
X58166Y28829
X31877Y14859
X60579Y28194
X41529Y4318
X40005Y4318
X40767Y4318
X53467Y26416
X51054Y27305
X30226Y14097
X48260Y2413
X39116Y13081
X27686Y46863
X22352Y48133
X11049Y26670
X11938Y26670
X37719Y13970
X56388Y28575
X35306Y11938
X34036Y15621
X32766Y13335
X10287Y22352
X11557Y40640
X3302Y21844
X3429Y31623
X20066Y27432
X24765Y30226
X18796Y33401
X13970Y32385
X12446Y24892
X23241Y24130
X15113Y19558
X12446Y40640
X9017Y22352
X10287Y23622
X9017Y23622
X14097Y16637
X12192Y14732
X11176Y14732
X12192Y13716
X13335Y40640
X27813Y30734
X11176Y13716
X10922Y33782
X10922Y34544
X10922Y35306
X10922Y36068
X11938Y27686
X11049Y27686
M30
