G75*
%MOIN*%
%OFA0B0*%
%FSLAX25Y25*%
%IPPOS*%
%LPD*%
%AMOC8*
5,1,8,0,0,1.08239X$1,22.5*
%
%ADD10C,0.01000*%
%ADD11C,0.00000*%
%ADD12C,0.05600*%
%ADD13OC8,0.06102*%
%ADD14C,0.06000*%
%ADD15OC8,0.06300*%
%ADD16C,0.06300*%
%ADD17OC8,0.05200*%
%ADD18R,0.03100X0.03500*%
%ADD19R,0.08661X0.02362*%
%ADD20R,0.07900X0.05900*%
%ADD21R,0.07900X0.15000*%
%ADD22R,0.09843X0.07874*%
%ADD23R,0.12992X0.07874*%
%ADD24R,0.12205X0.01969*%
%ADD25C,0.05200*%
%ADD26R,0.02500X0.06000*%
%ADD27C,0.06693*%
%ADD28OC8,0.06000*%
%ADD29C,0.08000*%
%ADD30C,0.01600*%
%ADD31C,0.04000*%
%ADD32C,0.02400*%
%ADD33C,0.03000*%
%ADD34C,0.00800*%
%ADD35C,0.01969*%
%ADD36R,0.06496X0.06496*%
D10*
X0009770Y0009437D02*
X0009770Y0211563D01*
X0009772Y0211687D01*
X0009778Y0211810D01*
X0009787Y0211934D01*
X0009801Y0212056D01*
X0009818Y0212179D01*
X0009840Y0212301D01*
X0009865Y0212422D01*
X0009894Y0212542D01*
X0009926Y0212661D01*
X0009963Y0212780D01*
X0010003Y0212897D01*
X0010046Y0213012D01*
X0010094Y0213127D01*
X0010145Y0213239D01*
X0010199Y0213350D01*
X0010257Y0213460D01*
X0010318Y0213567D01*
X0010383Y0213673D01*
X0010451Y0213776D01*
X0010522Y0213877D01*
X0010596Y0213976D01*
X0010673Y0214073D01*
X0010754Y0214167D01*
X0010837Y0214258D01*
X0010923Y0214347D01*
X0011012Y0214433D01*
X0011103Y0214516D01*
X0011197Y0214597D01*
X0011294Y0214674D01*
X0011393Y0214748D01*
X0011494Y0214819D01*
X0011597Y0214887D01*
X0011703Y0214952D01*
X0011810Y0215013D01*
X0011920Y0215071D01*
X0012031Y0215125D01*
X0012143Y0215176D01*
X0012258Y0215224D01*
X0012373Y0215267D01*
X0012490Y0215307D01*
X0012609Y0215344D01*
X0012728Y0215376D01*
X0012848Y0215405D01*
X0012969Y0215430D01*
X0013091Y0215452D01*
X0013214Y0215469D01*
X0013336Y0215483D01*
X0013460Y0215492D01*
X0013583Y0215498D01*
X0013707Y0215500D01*
X0263770Y0215500D01*
X0269770Y0209500D01*
X0269770Y0164500D01*
X0279770Y0154500D01*
X0279770Y0025500D01*
X0269770Y0015500D01*
X0269770Y0009437D01*
X0269768Y0009313D01*
X0269762Y0009190D01*
X0269753Y0009066D01*
X0269739Y0008944D01*
X0269722Y0008821D01*
X0269700Y0008699D01*
X0269675Y0008578D01*
X0269646Y0008458D01*
X0269614Y0008339D01*
X0269577Y0008220D01*
X0269537Y0008103D01*
X0269494Y0007988D01*
X0269446Y0007873D01*
X0269395Y0007761D01*
X0269341Y0007650D01*
X0269283Y0007540D01*
X0269222Y0007433D01*
X0269157Y0007327D01*
X0269089Y0007224D01*
X0269018Y0007123D01*
X0268944Y0007024D01*
X0268867Y0006927D01*
X0268786Y0006833D01*
X0268703Y0006742D01*
X0268617Y0006653D01*
X0268528Y0006567D01*
X0268437Y0006484D01*
X0268343Y0006403D01*
X0268246Y0006326D01*
X0268147Y0006252D01*
X0268046Y0006181D01*
X0267943Y0006113D01*
X0267837Y0006048D01*
X0267730Y0005987D01*
X0267620Y0005929D01*
X0267509Y0005875D01*
X0267397Y0005824D01*
X0267282Y0005776D01*
X0267167Y0005733D01*
X0267050Y0005693D01*
X0266931Y0005656D01*
X0266812Y0005624D01*
X0266692Y0005595D01*
X0266571Y0005570D01*
X0266449Y0005548D01*
X0266326Y0005531D01*
X0266204Y0005517D01*
X0266080Y0005508D01*
X0265957Y0005502D01*
X0265833Y0005500D01*
X0013707Y0005500D01*
X0013583Y0005502D01*
X0013460Y0005508D01*
X0013336Y0005517D01*
X0013214Y0005531D01*
X0013091Y0005548D01*
X0012969Y0005570D01*
X0012848Y0005595D01*
X0012728Y0005624D01*
X0012609Y0005656D01*
X0012490Y0005693D01*
X0012373Y0005733D01*
X0012258Y0005776D01*
X0012143Y0005824D01*
X0012031Y0005875D01*
X0011920Y0005929D01*
X0011810Y0005987D01*
X0011703Y0006048D01*
X0011597Y0006113D01*
X0011494Y0006181D01*
X0011393Y0006252D01*
X0011294Y0006326D01*
X0011197Y0006403D01*
X0011103Y0006484D01*
X0011012Y0006567D01*
X0010923Y0006653D01*
X0010837Y0006742D01*
X0010754Y0006833D01*
X0010673Y0006927D01*
X0010596Y0007024D01*
X0010522Y0007123D01*
X0010451Y0007224D01*
X0010383Y0007327D01*
X0010318Y0007433D01*
X0010257Y0007540D01*
X0010199Y0007650D01*
X0010145Y0007761D01*
X0010094Y0007873D01*
X0010046Y0007988D01*
X0010003Y0008103D01*
X0009963Y0008220D01*
X0009926Y0008339D01*
X0009894Y0008458D01*
X0009865Y0008578D01*
X0009840Y0008699D01*
X0009818Y0008821D01*
X0009801Y0008944D01*
X0009787Y0009066D01*
X0009778Y0009190D01*
X0009772Y0009313D01*
X0009770Y0009437D01*
D11*
X0058471Y0015500D02*
X0058473Y0015658D01*
X0058479Y0015816D01*
X0058489Y0015974D01*
X0058503Y0016132D01*
X0058521Y0016289D01*
X0058542Y0016446D01*
X0058568Y0016602D01*
X0058598Y0016758D01*
X0058631Y0016913D01*
X0058669Y0017066D01*
X0058710Y0017219D01*
X0058755Y0017371D01*
X0058804Y0017522D01*
X0058857Y0017671D01*
X0058913Y0017819D01*
X0058973Y0017965D01*
X0059037Y0018110D01*
X0059105Y0018253D01*
X0059176Y0018395D01*
X0059250Y0018535D01*
X0059328Y0018672D01*
X0059410Y0018808D01*
X0059494Y0018942D01*
X0059583Y0019073D01*
X0059674Y0019202D01*
X0059769Y0019329D01*
X0059866Y0019454D01*
X0059967Y0019576D01*
X0060071Y0019695D01*
X0060178Y0019812D01*
X0060288Y0019926D01*
X0060401Y0020037D01*
X0060516Y0020146D01*
X0060634Y0020251D01*
X0060755Y0020353D01*
X0060878Y0020453D01*
X0061004Y0020549D01*
X0061132Y0020642D01*
X0061262Y0020732D01*
X0061395Y0020818D01*
X0061530Y0020902D01*
X0061666Y0020981D01*
X0061805Y0021058D01*
X0061946Y0021130D01*
X0062088Y0021200D01*
X0062232Y0021265D01*
X0062378Y0021327D01*
X0062525Y0021385D01*
X0062674Y0021440D01*
X0062824Y0021491D01*
X0062975Y0021538D01*
X0063127Y0021581D01*
X0063280Y0021620D01*
X0063435Y0021656D01*
X0063590Y0021687D01*
X0063746Y0021715D01*
X0063902Y0021739D01*
X0064059Y0021759D01*
X0064217Y0021775D01*
X0064374Y0021787D01*
X0064533Y0021795D01*
X0064691Y0021799D01*
X0064849Y0021799D01*
X0065007Y0021795D01*
X0065166Y0021787D01*
X0065323Y0021775D01*
X0065481Y0021759D01*
X0065638Y0021739D01*
X0065794Y0021715D01*
X0065950Y0021687D01*
X0066105Y0021656D01*
X0066260Y0021620D01*
X0066413Y0021581D01*
X0066565Y0021538D01*
X0066716Y0021491D01*
X0066866Y0021440D01*
X0067015Y0021385D01*
X0067162Y0021327D01*
X0067308Y0021265D01*
X0067452Y0021200D01*
X0067594Y0021130D01*
X0067735Y0021058D01*
X0067874Y0020981D01*
X0068010Y0020902D01*
X0068145Y0020818D01*
X0068278Y0020732D01*
X0068408Y0020642D01*
X0068536Y0020549D01*
X0068662Y0020453D01*
X0068785Y0020353D01*
X0068906Y0020251D01*
X0069024Y0020146D01*
X0069139Y0020037D01*
X0069252Y0019926D01*
X0069362Y0019812D01*
X0069469Y0019695D01*
X0069573Y0019576D01*
X0069674Y0019454D01*
X0069771Y0019329D01*
X0069866Y0019202D01*
X0069957Y0019073D01*
X0070046Y0018942D01*
X0070130Y0018808D01*
X0070212Y0018672D01*
X0070290Y0018535D01*
X0070364Y0018395D01*
X0070435Y0018253D01*
X0070503Y0018110D01*
X0070567Y0017965D01*
X0070627Y0017819D01*
X0070683Y0017671D01*
X0070736Y0017522D01*
X0070785Y0017371D01*
X0070830Y0017219D01*
X0070871Y0017066D01*
X0070909Y0016913D01*
X0070942Y0016758D01*
X0070972Y0016602D01*
X0070998Y0016446D01*
X0071019Y0016289D01*
X0071037Y0016132D01*
X0071051Y0015974D01*
X0071061Y0015816D01*
X0071067Y0015658D01*
X0071069Y0015500D01*
X0071067Y0015342D01*
X0071061Y0015184D01*
X0071051Y0015026D01*
X0071037Y0014868D01*
X0071019Y0014711D01*
X0070998Y0014554D01*
X0070972Y0014398D01*
X0070942Y0014242D01*
X0070909Y0014087D01*
X0070871Y0013934D01*
X0070830Y0013781D01*
X0070785Y0013629D01*
X0070736Y0013478D01*
X0070683Y0013329D01*
X0070627Y0013181D01*
X0070567Y0013035D01*
X0070503Y0012890D01*
X0070435Y0012747D01*
X0070364Y0012605D01*
X0070290Y0012465D01*
X0070212Y0012328D01*
X0070130Y0012192D01*
X0070046Y0012058D01*
X0069957Y0011927D01*
X0069866Y0011798D01*
X0069771Y0011671D01*
X0069674Y0011546D01*
X0069573Y0011424D01*
X0069469Y0011305D01*
X0069362Y0011188D01*
X0069252Y0011074D01*
X0069139Y0010963D01*
X0069024Y0010854D01*
X0068906Y0010749D01*
X0068785Y0010647D01*
X0068662Y0010547D01*
X0068536Y0010451D01*
X0068408Y0010358D01*
X0068278Y0010268D01*
X0068145Y0010182D01*
X0068010Y0010098D01*
X0067874Y0010019D01*
X0067735Y0009942D01*
X0067594Y0009870D01*
X0067452Y0009800D01*
X0067308Y0009735D01*
X0067162Y0009673D01*
X0067015Y0009615D01*
X0066866Y0009560D01*
X0066716Y0009509D01*
X0066565Y0009462D01*
X0066413Y0009419D01*
X0066260Y0009380D01*
X0066105Y0009344D01*
X0065950Y0009313D01*
X0065794Y0009285D01*
X0065638Y0009261D01*
X0065481Y0009241D01*
X0065323Y0009225D01*
X0065166Y0009213D01*
X0065007Y0009205D01*
X0064849Y0009201D01*
X0064691Y0009201D01*
X0064533Y0009205D01*
X0064374Y0009213D01*
X0064217Y0009225D01*
X0064059Y0009241D01*
X0063902Y0009261D01*
X0063746Y0009285D01*
X0063590Y0009313D01*
X0063435Y0009344D01*
X0063280Y0009380D01*
X0063127Y0009419D01*
X0062975Y0009462D01*
X0062824Y0009509D01*
X0062674Y0009560D01*
X0062525Y0009615D01*
X0062378Y0009673D01*
X0062232Y0009735D01*
X0062088Y0009800D01*
X0061946Y0009870D01*
X0061805Y0009942D01*
X0061666Y0010019D01*
X0061530Y0010098D01*
X0061395Y0010182D01*
X0061262Y0010268D01*
X0061132Y0010358D01*
X0061004Y0010451D01*
X0060878Y0010547D01*
X0060755Y0010647D01*
X0060634Y0010749D01*
X0060516Y0010854D01*
X0060401Y0010963D01*
X0060288Y0011074D01*
X0060178Y0011188D01*
X0060071Y0011305D01*
X0059967Y0011424D01*
X0059866Y0011546D01*
X0059769Y0011671D01*
X0059674Y0011798D01*
X0059583Y0011927D01*
X0059494Y0012058D01*
X0059410Y0012192D01*
X0059328Y0012328D01*
X0059250Y0012465D01*
X0059176Y0012605D01*
X0059105Y0012747D01*
X0059037Y0012890D01*
X0058973Y0013035D01*
X0058913Y0013181D01*
X0058857Y0013329D01*
X0058804Y0013478D01*
X0058755Y0013629D01*
X0058710Y0013781D01*
X0058669Y0013934D01*
X0058631Y0014087D01*
X0058598Y0014242D01*
X0058568Y0014398D01*
X0058542Y0014554D01*
X0058521Y0014711D01*
X0058503Y0014868D01*
X0058489Y0015026D01*
X0058479Y0015184D01*
X0058473Y0015342D01*
X0058471Y0015500D01*
X0029998Y0150339D02*
X0030000Y0150423D01*
X0030006Y0150506D01*
X0030016Y0150589D01*
X0030030Y0150672D01*
X0030047Y0150754D01*
X0030069Y0150835D01*
X0030094Y0150914D01*
X0030123Y0150993D01*
X0030156Y0151070D01*
X0030192Y0151145D01*
X0030232Y0151219D01*
X0030275Y0151291D01*
X0030322Y0151360D01*
X0030372Y0151427D01*
X0030425Y0151492D01*
X0030481Y0151554D01*
X0030539Y0151614D01*
X0030601Y0151671D01*
X0030665Y0151724D01*
X0030732Y0151775D01*
X0030801Y0151822D01*
X0030872Y0151867D01*
X0030945Y0151907D01*
X0031020Y0151944D01*
X0031097Y0151978D01*
X0031175Y0152008D01*
X0031254Y0152034D01*
X0031335Y0152057D01*
X0031417Y0152075D01*
X0031499Y0152090D01*
X0031582Y0152101D01*
X0031665Y0152108D01*
X0031749Y0152111D01*
X0031833Y0152110D01*
X0031916Y0152105D01*
X0032000Y0152096D01*
X0032082Y0152083D01*
X0032164Y0152067D01*
X0032245Y0152046D01*
X0032326Y0152022D01*
X0032404Y0151994D01*
X0032482Y0151962D01*
X0032558Y0151926D01*
X0032632Y0151887D01*
X0032704Y0151845D01*
X0032774Y0151799D01*
X0032842Y0151750D01*
X0032907Y0151698D01*
X0032970Y0151643D01*
X0033030Y0151585D01*
X0033088Y0151524D01*
X0033142Y0151460D01*
X0033194Y0151394D01*
X0033242Y0151326D01*
X0033287Y0151255D01*
X0033328Y0151182D01*
X0033367Y0151108D01*
X0033401Y0151032D01*
X0033432Y0150954D01*
X0033459Y0150875D01*
X0033483Y0150794D01*
X0033502Y0150713D01*
X0033518Y0150631D01*
X0033530Y0150548D01*
X0033538Y0150464D01*
X0033542Y0150381D01*
X0033542Y0150297D01*
X0033538Y0150214D01*
X0033530Y0150130D01*
X0033518Y0150047D01*
X0033502Y0149965D01*
X0033483Y0149884D01*
X0033459Y0149803D01*
X0033432Y0149724D01*
X0033401Y0149646D01*
X0033367Y0149570D01*
X0033328Y0149496D01*
X0033287Y0149423D01*
X0033242Y0149352D01*
X0033194Y0149284D01*
X0033142Y0149218D01*
X0033088Y0149154D01*
X0033030Y0149093D01*
X0032970Y0149035D01*
X0032907Y0148980D01*
X0032842Y0148928D01*
X0032774Y0148879D01*
X0032704Y0148833D01*
X0032632Y0148791D01*
X0032558Y0148752D01*
X0032482Y0148716D01*
X0032404Y0148684D01*
X0032326Y0148656D01*
X0032245Y0148632D01*
X0032164Y0148611D01*
X0032082Y0148595D01*
X0032000Y0148582D01*
X0031916Y0148573D01*
X0031833Y0148568D01*
X0031749Y0148567D01*
X0031665Y0148570D01*
X0031582Y0148577D01*
X0031499Y0148588D01*
X0031417Y0148603D01*
X0031335Y0148621D01*
X0031254Y0148644D01*
X0031175Y0148670D01*
X0031097Y0148700D01*
X0031020Y0148734D01*
X0030945Y0148771D01*
X0030872Y0148811D01*
X0030801Y0148856D01*
X0030732Y0148903D01*
X0030665Y0148954D01*
X0030601Y0149007D01*
X0030539Y0149064D01*
X0030481Y0149124D01*
X0030425Y0149186D01*
X0030372Y0149251D01*
X0030322Y0149318D01*
X0030275Y0149387D01*
X0030232Y0149459D01*
X0030192Y0149533D01*
X0030156Y0149608D01*
X0030123Y0149685D01*
X0030094Y0149764D01*
X0030069Y0149843D01*
X0030047Y0149924D01*
X0030030Y0150006D01*
X0030016Y0150089D01*
X0030006Y0150172D01*
X0030000Y0150255D01*
X0029998Y0150339D01*
X0029998Y0167661D02*
X0030000Y0167745D01*
X0030006Y0167828D01*
X0030016Y0167911D01*
X0030030Y0167994D01*
X0030047Y0168076D01*
X0030069Y0168157D01*
X0030094Y0168236D01*
X0030123Y0168315D01*
X0030156Y0168392D01*
X0030192Y0168467D01*
X0030232Y0168541D01*
X0030275Y0168613D01*
X0030322Y0168682D01*
X0030372Y0168749D01*
X0030425Y0168814D01*
X0030481Y0168876D01*
X0030539Y0168936D01*
X0030601Y0168993D01*
X0030665Y0169046D01*
X0030732Y0169097D01*
X0030801Y0169144D01*
X0030872Y0169189D01*
X0030945Y0169229D01*
X0031020Y0169266D01*
X0031097Y0169300D01*
X0031175Y0169330D01*
X0031254Y0169356D01*
X0031335Y0169379D01*
X0031417Y0169397D01*
X0031499Y0169412D01*
X0031582Y0169423D01*
X0031665Y0169430D01*
X0031749Y0169433D01*
X0031833Y0169432D01*
X0031916Y0169427D01*
X0032000Y0169418D01*
X0032082Y0169405D01*
X0032164Y0169389D01*
X0032245Y0169368D01*
X0032326Y0169344D01*
X0032404Y0169316D01*
X0032482Y0169284D01*
X0032558Y0169248D01*
X0032632Y0169209D01*
X0032704Y0169167D01*
X0032774Y0169121D01*
X0032842Y0169072D01*
X0032907Y0169020D01*
X0032970Y0168965D01*
X0033030Y0168907D01*
X0033088Y0168846D01*
X0033142Y0168782D01*
X0033194Y0168716D01*
X0033242Y0168648D01*
X0033287Y0168577D01*
X0033328Y0168504D01*
X0033367Y0168430D01*
X0033401Y0168354D01*
X0033432Y0168276D01*
X0033459Y0168197D01*
X0033483Y0168116D01*
X0033502Y0168035D01*
X0033518Y0167953D01*
X0033530Y0167870D01*
X0033538Y0167786D01*
X0033542Y0167703D01*
X0033542Y0167619D01*
X0033538Y0167536D01*
X0033530Y0167452D01*
X0033518Y0167369D01*
X0033502Y0167287D01*
X0033483Y0167206D01*
X0033459Y0167125D01*
X0033432Y0167046D01*
X0033401Y0166968D01*
X0033367Y0166892D01*
X0033328Y0166818D01*
X0033287Y0166745D01*
X0033242Y0166674D01*
X0033194Y0166606D01*
X0033142Y0166540D01*
X0033088Y0166476D01*
X0033030Y0166415D01*
X0032970Y0166357D01*
X0032907Y0166302D01*
X0032842Y0166250D01*
X0032774Y0166201D01*
X0032704Y0166155D01*
X0032632Y0166113D01*
X0032558Y0166074D01*
X0032482Y0166038D01*
X0032404Y0166006D01*
X0032326Y0165978D01*
X0032245Y0165954D01*
X0032164Y0165933D01*
X0032082Y0165917D01*
X0032000Y0165904D01*
X0031916Y0165895D01*
X0031833Y0165890D01*
X0031749Y0165889D01*
X0031665Y0165892D01*
X0031582Y0165899D01*
X0031499Y0165910D01*
X0031417Y0165925D01*
X0031335Y0165943D01*
X0031254Y0165966D01*
X0031175Y0165992D01*
X0031097Y0166022D01*
X0031020Y0166056D01*
X0030945Y0166093D01*
X0030872Y0166133D01*
X0030801Y0166178D01*
X0030732Y0166225D01*
X0030665Y0166276D01*
X0030601Y0166329D01*
X0030539Y0166386D01*
X0030481Y0166446D01*
X0030425Y0166508D01*
X0030372Y0166573D01*
X0030322Y0166640D01*
X0030275Y0166709D01*
X0030232Y0166781D01*
X0030192Y0166855D01*
X0030156Y0166930D01*
X0030123Y0167007D01*
X0030094Y0167086D01*
X0030069Y0167165D01*
X0030047Y0167246D01*
X0030030Y0167328D01*
X0030016Y0167411D01*
X0030006Y0167494D01*
X0030000Y0167577D01*
X0029998Y0167661D01*
X0063471Y0205500D02*
X0063473Y0205658D01*
X0063479Y0205816D01*
X0063489Y0205974D01*
X0063503Y0206132D01*
X0063521Y0206289D01*
X0063542Y0206446D01*
X0063568Y0206602D01*
X0063598Y0206758D01*
X0063631Y0206913D01*
X0063669Y0207066D01*
X0063710Y0207219D01*
X0063755Y0207371D01*
X0063804Y0207522D01*
X0063857Y0207671D01*
X0063913Y0207819D01*
X0063973Y0207965D01*
X0064037Y0208110D01*
X0064105Y0208253D01*
X0064176Y0208395D01*
X0064250Y0208535D01*
X0064328Y0208672D01*
X0064410Y0208808D01*
X0064494Y0208942D01*
X0064583Y0209073D01*
X0064674Y0209202D01*
X0064769Y0209329D01*
X0064866Y0209454D01*
X0064967Y0209576D01*
X0065071Y0209695D01*
X0065178Y0209812D01*
X0065288Y0209926D01*
X0065401Y0210037D01*
X0065516Y0210146D01*
X0065634Y0210251D01*
X0065755Y0210353D01*
X0065878Y0210453D01*
X0066004Y0210549D01*
X0066132Y0210642D01*
X0066262Y0210732D01*
X0066395Y0210818D01*
X0066530Y0210902D01*
X0066666Y0210981D01*
X0066805Y0211058D01*
X0066946Y0211130D01*
X0067088Y0211200D01*
X0067232Y0211265D01*
X0067378Y0211327D01*
X0067525Y0211385D01*
X0067674Y0211440D01*
X0067824Y0211491D01*
X0067975Y0211538D01*
X0068127Y0211581D01*
X0068280Y0211620D01*
X0068435Y0211656D01*
X0068590Y0211687D01*
X0068746Y0211715D01*
X0068902Y0211739D01*
X0069059Y0211759D01*
X0069217Y0211775D01*
X0069374Y0211787D01*
X0069533Y0211795D01*
X0069691Y0211799D01*
X0069849Y0211799D01*
X0070007Y0211795D01*
X0070166Y0211787D01*
X0070323Y0211775D01*
X0070481Y0211759D01*
X0070638Y0211739D01*
X0070794Y0211715D01*
X0070950Y0211687D01*
X0071105Y0211656D01*
X0071260Y0211620D01*
X0071413Y0211581D01*
X0071565Y0211538D01*
X0071716Y0211491D01*
X0071866Y0211440D01*
X0072015Y0211385D01*
X0072162Y0211327D01*
X0072308Y0211265D01*
X0072452Y0211200D01*
X0072594Y0211130D01*
X0072735Y0211058D01*
X0072874Y0210981D01*
X0073010Y0210902D01*
X0073145Y0210818D01*
X0073278Y0210732D01*
X0073408Y0210642D01*
X0073536Y0210549D01*
X0073662Y0210453D01*
X0073785Y0210353D01*
X0073906Y0210251D01*
X0074024Y0210146D01*
X0074139Y0210037D01*
X0074252Y0209926D01*
X0074362Y0209812D01*
X0074469Y0209695D01*
X0074573Y0209576D01*
X0074674Y0209454D01*
X0074771Y0209329D01*
X0074866Y0209202D01*
X0074957Y0209073D01*
X0075046Y0208942D01*
X0075130Y0208808D01*
X0075212Y0208672D01*
X0075290Y0208535D01*
X0075364Y0208395D01*
X0075435Y0208253D01*
X0075503Y0208110D01*
X0075567Y0207965D01*
X0075627Y0207819D01*
X0075683Y0207671D01*
X0075736Y0207522D01*
X0075785Y0207371D01*
X0075830Y0207219D01*
X0075871Y0207066D01*
X0075909Y0206913D01*
X0075942Y0206758D01*
X0075972Y0206602D01*
X0075998Y0206446D01*
X0076019Y0206289D01*
X0076037Y0206132D01*
X0076051Y0205974D01*
X0076061Y0205816D01*
X0076067Y0205658D01*
X0076069Y0205500D01*
X0076067Y0205342D01*
X0076061Y0205184D01*
X0076051Y0205026D01*
X0076037Y0204868D01*
X0076019Y0204711D01*
X0075998Y0204554D01*
X0075972Y0204398D01*
X0075942Y0204242D01*
X0075909Y0204087D01*
X0075871Y0203934D01*
X0075830Y0203781D01*
X0075785Y0203629D01*
X0075736Y0203478D01*
X0075683Y0203329D01*
X0075627Y0203181D01*
X0075567Y0203035D01*
X0075503Y0202890D01*
X0075435Y0202747D01*
X0075364Y0202605D01*
X0075290Y0202465D01*
X0075212Y0202328D01*
X0075130Y0202192D01*
X0075046Y0202058D01*
X0074957Y0201927D01*
X0074866Y0201798D01*
X0074771Y0201671D01*
X0074674Y0201546D01*
X0074573Y0201424D01*
X0074469Y0201305D01*
X0074362Y0201188D01*
X0074252Y0201074D01*
X0074139Y0200963D01*
X0074024Y0200854D01*
X0073906Y0200749D01*
X0073785Y0200647D01*
X0073662Y0200547D01*
X0073536Y0200451D01*
X0073408Y0200358D01*
X0073278Y0200268D01*
X0073145Y0200182D01*
X0073010Y0200098D01*
X0072874Y0200019D01*
X0072735Y0199942D01*
X0072594Y0199870D01*
X0072452Y0199800D01*
X0072308Y0199735D01*
X0072162Y0199673D01*
X0072015Y0199615D01*
X0071866Y0199560D01*
X0071716Y0199509D01*
X0071565Y0199462D01*
X0071413Y0199419D01*
X0071260Y0199380D01*
X0071105Y0199344D01*
X0070950Y0199313D01*
X0070794Y0199285D01*
X0070638Y0199261D01*
X0070481Y0199241D01*
X0070323Y0199225D01*
X0070166Y0199213D01*
X0070007Y0199205D01*
X0069849Y0199201D01*
X0069691Y0199201D01*
X0069533Y0199205D01*
X0069374Y0199213D01*
X0069217Y0199225D01*
X0069059Y0199241D01*
X0068902Y0199261D01*
X0068746Y0199285D01*
X0068590Y0199313D01*
X0068435Y0199344D01*
X0068280Y0199380D01*
X0068127Y0199419D01*
X0067975Y0199462D01*
X0067824Y0199509D01*
X0067674Y0199560D01*
X0067525Y0199615D01*
X0067378Y0199673D01*
X0067232Y0199735D01*
X0067088Y0199800D01*
X0066946Y0199870D01*
X0066805Y0199942D01*
X0066666Y0200019D01*
X0066530Y0200098D01*
X0066395Y0200182D01*
X0066262Y0200268D01*
X0066132Y0200358D01*
X0066004Y0200451D01*
X0065878Y0200547D01*
X0065755Y0200647D01*
X0065634Y0200749D01*
X0065516Y0200854D01*
X0065401Y0200963D01*
X0065288Y0201074D01*
X0065178Y0201188D01*
X0065071Y0201305D01*
X0064967Y0201424D01*
X0064866Y0201546D01*
X0064769Y0201671D01*
X0064674Y0201798D01*
X0064583Y0201927D01*
X0064494Y0202058D01*
X0064410Y0202192D01*
X0064328Y0202328D01*
X0064250Y0202465D01*
X0064176Y0202605D01*
X0064105Y0202747D01*
X0064037Y0202890D01*
X0063973Y0203035D01*
X0063913Y0203181D01*
X0063857Y0203329D01*
X0063804Y0203478D01*
X0063755Y0203629D01*
X0063710Y0203781D01*
X0063669Y0203934D01*
X0063631Y0204087D01*
X0063598Y0204242D01*
X0063568Y0204398D01*
X0063542Y0204554D01*
X0063521Y0204711D01*
X0063503Y0204868D01*
X0063489Y0205026D01*
X0063479Y0205184D01*
X0063473Y0205342D01*
X0063471Y0205500D01*
X0263471Y0145500D02*
X0263473Y0145658D01*
X0263479Y0145816D01*
X0263489Y0145974D01*
X0263503Y0146132D01*
X0263521Y0146289D01*
X0263542Y0146446D01*
X0263568Y0146602D01*
X0263598Y0146758D01*
X0263631Y0146913D01*
X0263669Y0147066D01*
X0263710Y0147219D01*
X0263755Y0147371D01*
X0263804Y0147522D01*
X0263857Y0147671D01*
X0263913Y0147819D01*
X0263973Y0147965D01*
X0264037Y0148110D01*
X0264105Y0148253D01*
X0264176Y0148395D01*
X0264250Y0148535D01*
X0264328Y0148672D01*
X0264410Y0148808D01*
X0264494Y0148942D01*
X0264583Y0149073D01*
X0264674Y0149202D01*
X0264769Y0149329D01*
X0264866Y0149454D01*
X0264967Y0149576D01*
X0265071Y0149695D01*
X0265178Y0149812D01*
X0265288Y0149926D01*
X0265401Y0150037D01*
X0265516Y0150146D01*
X0265634Y0150251D01*
X0265755Y0150353D01*
X0265878Y0150453D01*
X0266004Y0150549D01*
X0266132Y0150642D01*
X0266262Y0150732D01*
X0266395Y0150818D01*
X0266530Y0150902D01*
X0266666Y0150981D01*
X0266805Y0151058D01*
X0266946Y0151130D01*
X0267088Y0151200D01*
X0267232Y0151265D01*
X0267378Y0151327D01*
X0267525Y0151385D01*
X0267674Y0151440D01*
X0267824Y0151491D01*
X0267975Y0151538D01*
X0268127Y0151581D01*
X0268280Y0151620D01*
X0268435Y0151656D01*
X0268590Y0151687D01*
X0268746Y0151715D01*
X0268902Y0151739D01*
X0269059Y0151759D01*
X0269217Y0151775D01*
X0269374Y0151787D01*
X0269533Y0151795D01*
X0269691Y0151799D01*
X0269849Y0151799D01*
X0270007Y0151795D01*
X0270166Y0151787D01*
X0270323Y0151775D01*
X0270481Y0151759D01*
X0270638Y0151739D01*
X0270794Y0151715D01*
X0270950Y0151687D01*
X0271105Y0151656D01*
X0271260Y0151620D01*
X0271413Y0151581D01*
X0271565Y0151538D01*
X0271716Y0151491D01*
X0271866Y0151440D01*
X0272015Y0151385D01*
X0272162Y0151327D01*
X0272308Y0151265D01*
X0272452Y0151200D01*
X0272594Y0151130D01*
X0272735Y0151058D01*
X0272874Y0150981D01*
X0273010Y0150902D01*
X0273145Y0150818D01*
X0273278Y0150732D01*
X0273408Y0150642D01*
X0273536Y0150549D01*
X0273662Y0150453D01*
X0273785Y0150353D01*
X0273906Y0150251D01*
X0274024Y0150146D01*
X0274139Y0150037D01*
X0274252Y0149926D01*
X0274362Y0149812D01*
X0274469Y0149695D01*
X0274573Y0149576D01*
X0274674Y0149454D01*
X0274771Y0149329D01*
X0274866Y0149202D01*
X0274957Y0149073D01*
X0275046Y0148942D01*
X0275130Y0148808D01*
X0275212Y0148672D01*
X0275290Y0148535D01*
X0275364Y0148395D01*
X0275435Y0148253D01*
X0275503Y0148110D01*
X0275567Y0147965D01*
X0275627Y0147819D01*
X0275683Y0147671D01*
X0275736Y0147522D01*
X0275785Y0147371D01*
X0275830Y0147219D01*
X0275871Y0147066D01*
X0275909Y0146913D01*
X0275942Y0146758D01*
X0275972Y0146602D01*
X0275998Y0146446D01*
X0276019Y0146289D01*
X0276037Y0146132D01*
X0276051Y0145974D01*
X0276061Y0145816D01*
X0276067Y0145658D01*
X0276069Y0145500D01*
X0276067Y0145342D01*
X0276061Y0145184D01*
X0276051Y0145026D01*
X0276037Y0144868D01*
X0276019Y0144711D01*
X0275998Y0144554D01*
X0275972Y0144398D01*
X0275942Y0144242D01*
X0275909Y0144087D01*
X0275871Y0143934D01*
X0275830Y0143781D01*
X0275785Y0143629D01*
X0275736Y0143478D01*
X0275683Y0143329D01*
X0275627Y0143181D01*
X0275567Y0143035D01*
X0275503Y0142890D01*
X0275435Y0142747D01*
X0275364Y0142605D01*
X0275290Y0142465D01*
X0275212Y0142328D01*
X0275130Y0142192D01*
X0275046Y0142058D01*
X0274957Y0141927D01*
X0274866Y0141798D01*
X0274771Y0141671D01*
X0274674Y0141546D01*
X0274573Y0141424D01*
X0274469Y0141305D01*
X0274362Y0141188D01*
X0274252Y0141074D01*
X0274139Y0140963D01*
X0274024Y0140854D01*
X0273906Y0140749D01*
X0273785Y0140647D01*
X0273662Y0140547D01*
X0273536Y0140451D01*
X0273408Y0140358D01*
X0273278Y0140268D01*
X0273145Y0140182D01*
X0273010Y0140098D01*
X0272874Y0140019D01*
X0272735Y0139942D01*
X0272594Y0139870D01*
X0272452Y0139800D01*
X0272308Y0139735D01*
X0272162Y0139673D01*
X0272015Y0139615D01*
X0271866Y0139560D01*
X0271716Y0139509D01*
X0271565Y0139462D01*
X0271413Y0139419D01*
X0271260Y0139380D01*
X0271105Y0139344D01*
X0270950Y0139313D01*
X0270794Y0139285D01*
X0270638Y0139261D01*
X0270481Y0139241D01*
X0270323Y0139225D01*
X0270166Y0139213D01*
X0270007Y0139205D01*
X0269849Y0139201D01*
X0269691Y0139201D01*
X0269533Y0139205D01*
X0269374Y0139213D01*
X0269217Y0139225D01*
X0269059Y0139241D01*
X0268902Y0139261D01*
X0268746Y0139285D01*
X0268590Y0139313D01*
X0268435Y0139344D01*
X0268280Y0139380D01*
X0268127Y0139419D01*
X0267975Y0139462D01*
X0267824Y0139509D01*
X0267674Y0139560D01*
X0267525Y0139615D01*
X0267378Y0139673D01*
X0267232Y0139735D01*
X0267088Y0139800D01*
X0266946Y0139870D01*
X0266805Y0139942D01*
X0266666Y0140019D01*
X0266530Y0140098D01*
X0266395Y0140182D01*
X0266262Y0140268D01*
X0266132Y0140358D01*
X0266004Y0140451D01*
X0265878Y0140547D01*
X0265755Y0140647D01*
X0265634Y0140749D01*
X0265516Y0140854D01*
X0265401Y0140963D01*
X0265288Y0141074D01*
X0265178Y0141188D01*
X0265071Y0141305D01*
X0264967Y0141424D01*
X0264866Y0141546D01*
X0264769Y0141671D01*
X0264674Y0141798D01*
X0264583Y0141927D01*
X0264494Y0142058D01*
X0264410Y0142192D01*
X0264328Y0142328D01*
X0264250Y0142465D01*
X0264176Y0142605D01*
X0264105Y0142747D01*
X0264037Y0142890D01*
X0263973Y0143035D01*
X0263913Y0143181D01*
X0263857Y0143329D01*
X0263804Y0143478D01*
X0263755Y0143629D01*
X0263710Y0143781D01*
X0263669Y0143934D01*
X0263631Y0144087D01*
X0263598Y0144242D01*
X0263568Y0144398D01*
X0263542Y0144554D01*
X0263521Y0144711D01*
X0263503Y0144868D01*
X0263489Y0145026D01*
X0263479Y0145184D01*
X0263473Y0145342D01*
X0263471Y0145500D01*
X0263471Y0035500D02*
X0263473Y0035658D01*
X0263479Y0035816D01*
X0263489Y0035974D01*
X0263503Y0036132D01*
X0263521Y0036289D01*
X0263542Y0036446D01*
X0263568Y0036602D01*
X0263598Y0036758D01*
X0263631Y0036913D01*
X0263669Y0037066D01*
X0263710Y0037219D01*
X0263755Y0037371D01*
X0263804Y0037522D01*
X0263857Y0037671D01*
X0263913Y0037819D01*
X0263973Y0037965D01*
X0264037Y0038110D01*
X0264105Y0038253D01*
X0264176Y0038395D01*
X0264250Y0038535D01*
X0264328Y0038672D01*
X0264410Y0038808D01*
X0264494Y0038942D01*
X0264583Y0039073D01*
X0264674Y0039202D01*
X0264769Y0039329D01*
X0264866Y0039454D01*
X0264967Y0039576D01*
X0265071Y0039695D01*
X0265178Y0039812D01*
X0265288Y0039926D01*
X0265401Y0040037D01*
X0265516Y0040146D01*
X0265634Y0040251D01*
X0265755Y0040353D01*
X0265878Y0040453D01*
X0266004Y0040549D01*
X0266132Y0040642D01*
X0266262Y0040732D01*
X0266395Y0040818D01*
X0266530Y0040902D01*
X0266666Y0040981D01*
X0266805Y0041058D01*
X0266946Y0041130D01*
X0267088Y0041200D01*
X0267232Y0041265D01*
X0267378Y0041327D01*
X0267525Y0041385D01*
X0267674Y0041440D01*
X0267824Y0041491D01*
X0267975Y0041538D01*
X0268127Y0041581D01*
X0268280Y0041620D01*
X0268435Y0041656D01*
X0268590Y0041687D01*
X0268746Y0041715D01*
X0268902Y0041739D01*
X0269059Y0041759D01*
X0269217Y0041775D01*
X0269374Y0041787D01*
X0269533Y0041795D01*
X0269691Y0041799D01*
X0269849Y0041799D01*
X0270007Y0041795D01*
X0270166Y0041787D01*
X0270323Y0041775D01*
X0270481Y0041759D01*
X0270638Y0041739D01*
X0270794Y0041715D01*
X0270950Y0041687D01*
X0271105Y0041656D01*
X0271260Y0041620D01*
X0271413Y0041581D01*
X0271565Y0041538D01*
X0271716Y0041491D01*
X0271866Y0041440D01*
X0272015Y0041385D01*
X0272162Y0041327D01*
X0272308Y0041265D01*
X0272452Y0041200D01*
X0272594Y0041130D01*
X0272735Y0041058D01*
X0272874Y0040981D01*
X0273010Y0040902D01*
X0273145Y0040818D01*
X0273278Y0040732D01*
X0273408Y0040642D01*
X0273536Y0040549D01*
X0273662Y0040453D01*
X0273785Y0040353D01*
X0273906Y0040251D01*
X0274024Y0040146D01*
X0274139Y0040037D01*
X0274252Y0039926D01*
X0274362Y0039812D01*
X0274469Y0039695D01*
X0274573Y0039576D01*
X0274674Y0039454D01*
X0274771Y0039329D01*
X0274866Y0039202D01*
X0274957Y0039073D01*
X0275046Y0038942D01*
X0275130Y0038808D01*
X0275212Y0038672D01*
X0275290Y0038535D01*
X0275364Y0038395D01*
X0275435Y0038253D01*
X0275503Y0038110D01*
X0275567Y0037965D01*
X0275627Y0037819D01*
X0275683Y0037671D01*
X0275736Y0037522D01*
X0275785Y0037371D01*
X0275830Y0037219D01*
X0275871Y0037066D01*
X0275909Y0036913D01*
X0275942Y0036758D01*
X0275972Y0036602D01*
X0275998Y0036446D01*
X0276019Y0036289D01*
X0276037Y0036132D01*
X0276051Y0035974D01*
X0276061Y0035816D01*
X0276067Y0035658D01*
X0276069Y0035500D01*
X0276067Y0035342D01*
X0276061Y0035184D01*
X0276051Y0035026D01*
X0276037Y0034868D01*
X0276019Y0034711D01*
X0275998Y0034554D01*
X0275972Y0034398D01*
X0275942Y0034242D01*
X0275909Y0034087D01*
X0275871Y0033934D01*
X0275830Y0033781D01*
X0275785Y0033629D01*
X0275736Y0033478D01*
X0275683Y0033329D01*
X0275627Y0033181D01*
X0275567Y0033035D01*
X0275503Y0032890D01*
X0275435Y0032747D01*
X0275364Y0032605D01*
X0275290Y0032465D01*
X0275212Y0032328D01*
X0275130Y0032192D01*
X0275046Y0032058D01*
X0274957Y0031927D01*
X0274866Y0031798D01*
X0274771Y0031671D01*
X0274674Y0031546D01*
X0274573Y0031424D01*
X0274469Y0031305D01*
X0274362Y0031188D01*
X0274252Y0031074D01*
X0274139Y0030963D01*
X0274024Y0030854D01*
X0273906Y0030749D01*
X0273785Y0030647D01*
X0273662Y0030547D01*
X0273536Y0030451D01*
X0273408Y0030358D01*
X0273278Y0030268D01*
X0273145Y0030182D01*
X0273010Y0030098D01*
X0272874Y0030019D01*
X0272735Y0029942D01*
X0272594Y0029870D01*
X0272452Y0029800D01*
X0272308Y0029735D01*
X0272162Y0029673D01*
X0272015Y0029615D01*
X0271866Y0029560D01*
X0271716Y0029509D01*
X0271565Y0029462D01*
X0271413Y0029419D01*
X0271260Y0029380D01*
X0271105Y0029344D01*
X0270950Y0029313D01*
X0270794Y0029285D01*
X0270638Y0029261D01*
X0270481Y0029241D01*
X0270323Y0029225D01*
X0270166Y0029213D01*
X0270007Y0029205D01*
X0269849Y0029201D01*
X0269691Y0029201D01*
X0269533Y0029205D01*
X0269374Y0029213D01*
X0269217Y0029225D01*
X0269059Y0029241D01*
X0268902Y0029261D01*
X0268746Y0029285D01*
X0268590Y0029313D01*
X0268435Y0029344D01*
X0268280Y0029380D01*
X0268127Y0029419D01*
X0267975Y0029462D01*
X0267824Y0029509D01*
X0267674Y0029560D01*
X0267525Y0029615D01*
X0267378Y0029673D01*
X0267232Y0029735D01*
X0267088Y0029800D01*
X0266946Y0029870D01*
X0266805Y0029942D01*
X0266666Y0030019D01*
X0266530Y0030098D01*
X0266395Y0030182D01*
X0266262Y0030268D01*
X0266132Y0030358D01*
X0266004Y0030451D01*
X0265878Y0030547D01*
X0265755Y0030647D01*
X0265634Y0030749D01*
X0265516Y0030854D01*
X0265401Y0030963D01*
X0265288Y0031074D01*
X0265178Y0031188D01*
X0265071Y0031305D01*
X0264967Y0031424D01*
X0264866Y0031546D01*
X0264769Y0031671D01*
X0264674Y0031798D01*
X0264583Y0031927D01*
X0264494Y0032058D01*
X0264410Y0032192D01*
X0264328Y0032328D01*
X0264250Y0032465D01*
X0264176Y0032605D01*
X0264105Y0032747D01*
X0264037Y0032890D01*
X0263973Y0033035D01*
X0263913Y0033181D01*
X0263857Y0033329D01*
X0263804Y0033478D01*
X0263755Y0033629D01*
X0263710Y0033781D01*
X0263669Y0033934D01*
X0263631Y0034087D01*
X0263598Y0034242D01*
X0263568Y0034398D01*
X0263542Y0034554D01*
X0263521Y0034711D01*
X0263503Y0034868D01*
X0263489Y0035026D01*
X0263479Y0035184D01*
X0263473Y0035342D01*
X0263471Y0035500D01*
D12*
X0258770Y0041600D02*
X0258770Y0044400D01*
X0248770Y0044400D02*
X0248770Y0041600D01*
X0238770Y0041600D02*
X0238770Y0044400D01*
X0228770Y0044400D02*
X0228770Y0041600D01*
X0218770Y0041600D02*
X0218770Y0044400D01*
X0208770Y0044400D02*
X0208770Y0041600D01*
X0198770Y0041600D02*
X0198770Y0044400D01*
X0188770Y0044400D02*
X0188770Y0041600D01*
X0178770Y0041600D02*
X0178770Y0044400D01*
X0168770Y0044400D02*
X0168770Y0041600D01*
X0158770Y0041600D02*
X0158770Y0044400D01*
X0148770Y0044400D02*
X0148770Y0041600D01*
X0138770Y0041600D02*
X0138770Y0044400D01*
X0128770Y0044400D02*
X0128770Y0041600D01*
X0129770Y0016900D02*
X0129770Y0014100D01*
X0139770Y0014100D02*
X0139770Y0016900D01*
X0149770Y0016900D02*
X0149770Y0014100D01*
X0159770Y0014100D02*
X0159770Y0016900D01*
X0169770Y0016900D02*
X0169770Y0014100D01*
X0179770Y0014100D02*
X0179770Y0016900D01*
X0189770Y0016900D02*
X0189770Y0014100D01*
X0209770Y0014100D02*
X0209770Y0016900D01*
X0219770Y0016900D02*
X0219770Y0014100D01*
X0229770Y0014100D02*
X0229770Y0016900D01*
X0239770Y0016900D02*
X0239770Y0014100D01*
X0249770Y0014100D02*
X0249770Y0016900D01*
X0259770Y0016900D02*
X0259770Y0014100D01*
X0258770Y0071600D02*
X0258770Y0074400D01*
X0248770Y0074400D02*
X0248770Y0071600D01*
X0238770Y0071600D02*
X0238770Y0074400D01*
X0228770Y0074400D02*
X0228770Y0071600D01*
X0218770Y0071600D02*
X0218770Y0074400D01*
X0208770Y0074400D02*
X0208770Y0071600D01*
X0198770Y0071600D02*
X0198770Y0074400D01*
X0188770Y0074400D02*
X0188770Y0071600D01*
X0178770Y0071600D02*
X0178770Y0074400D01*
X0168770Y0074400D02*
X0168770Y0071600D01*
X0158770Y0071600D02*
X0158770Y0074400D01*
X0148770Y0074400D02*
X0148770Y0071600D01*
X0138770Y0071600D02*
X0138770Y0074400D01*
X0128770Y0074400D02*
X0128770Y0071600D01*
X0119770Y0016900D02*
X0119770Y0014100D01*
X0189770Y0204100D02*
X0189770Y0206900D01*
X0199770Y0206900D02*
X0199770Y0204100D01*
X0209770Y0204100D02*
X0209770Y0206900D01*
X0219770Y0206900D02*
X0219770Y0204100D01*
X0229770Y0204100D02*
X0229770Y0206900D01*
X0239770Y0206900D02*
X0239770Y0204100D01*
X0249770Y0204100D02*
X0249770Y0206900D01*
X0259770Y0206900D02*
X0259770Y0204100D01*
D13*
X0258770Y0105500D03*
X0268770Y0105500D03*
X0268770Y0095500D03*
X0258770Y0095500D03*
X0258770Y0085500D03*
X0268770Y0085500D03*
D14*
X0239770Y0084000D02*
X0239770Y0087000D01*
X0229770Y0087000D02*
X0229770Y0084000D01*
X0173770Y0204000D02*
X0173770Y0207000D01*
X0163770Y0207000D02*
X0163770Y0204000D01*
X0153770Y0204000D02*
X0153770Y0207000D01*
X0143770Y0207000D02*
X0143770Y0204000D01*
X0133770Y0204000D02*
X0133770Y0207000D01*
X0123770Y0207000D02*
X0123770Y0204000D01*
X0113770Y0204000D02*
X0113770Y0207000D01*
X0103770Y0207000D02*
X0103770Y0204000D01*
X0093770Y0204000D02*
X0093770Y0207000D01*
X0083770Y0207000D02*
X0083770Y0204000D01*
X0044570Y0208900D02*
X0041570Y0208900D01*
X0041570Y0191100D02*
X0044570Y0191100D01*
X0018970Y0191100D02*
X0015970Y0191100D01*
X0015970Y0208900D02*
X0018970Y0208900D01*
D15*
X0101270Y0084000D03*
X0101270Y0060500D03*
X0101270Y0037000D03*
D16*
X0101270Y0027000D03*
X0101270Y0050500D03*
X0101270Y0074000D03*
D17*
X0083770Y0061500D03*
X0071770Y0061500D03*
X0071770Y0031500D03*
X0083770Y0031500D03*
X0128270Y0088500D03*
X0120770Y0095500D03*
X0120770Y0106000D03*
X0128270Y0107500D03*
X0138270Y0107500D03*
X0138270Y0126000D03*
X0128270Y0126000D03*
X0117770Y0116500D03*
X0107270Y0116500D03*
X0090770Y0106000D03*
X0090770Y0095500D03*
X0138270Y0088500D03*
X0154270Y0084000D03*
X0174270Y0084000D03*
X0183770Y0084000D03*
X0203770Y0084000D03*
X0203770Y0092500D03*
X0215770Y0084000D03*
X0203770Y0112500D03*
X0215770Y0114000D03*
X0223270Y0114000D03*
X0243270Y0114000D03*
X0210770Y0032500D03*
X0190770Y0032500D03*
X0182770Y0032500D03*
X0162770Y0032500D03*
X0138270Y0144500D03*
X0128270Y0144500D03*
X0117770Y0146500D03*
X0107270Y0146500D03*
X0101770Y0156500D03*
X0117270Y0162000D03*
X0128270Y0156500D03*
X0138770Y0156500D03*
X0117270Y0182000D03*
X0128270Y0186500D03*
X0138770Y0186500D03*
X0081770Y0156500D03*
X0061270Y0156000D03*
X0061270Y0176000D03*
D18*
X0072170Y0108500D03*
X0075970Y0100500D03*
X0068370Y0100500D03*
D19*
X0062033Y0090000D03*
X0062033Y0085000D03*
X0062033Y0080000D03*
X0062033Y0075000D03*
X0082506Y0075000D03*
X0082506Y0080000D03*
X0082506Y0085000D03*
X0082506Y0090000D03*
D20*
X0047170Y0078600D03*
X0047170Y0069600D03*
X0047170Y0060600D03*
X0047170Y0105600D03*
X0047170Y0114600D03*
X0047170Y0123600D03*
D21*
X0022370Y0114500D03*
X0022370Y0069500D03*
D22*
X0019959Y0141480D03*
X0019959Y0176520D03*
D23*
X0043187Y0176520D03*
X0043187Y0141480D03*
D24*
X0043581Y0152701D03*
X0043581Y0155850D03*
X0043581Y0159000D03*
X0043581Y0162150D03*
X0043581Y0165299D03*
D25*
X0079770Y0172500D03*
X0098770Y0172500D03*
X0164770Y0100000D03*
X0183770Y0100000D03*
D26*
X0098270Y0125890D03*
X0093270Y0125890D03*
X0088270Y0125890D03*
X0083270Y0125890D03*
X0078270Y0125890D03*
X0073270Y0125890D03*
X0068270Y0125890D03*
X0063270Y0125890D03*
X0063270Y0147110D03*
X0068270Y0147110D03*
X0073270Y0147110D03*
X0078270Y0147110D03*
X0083270Y0147110D03*
X0088270Y0147110D03*
X0093270Y0147110D03*
X0098270Y0147110D03*
D27*
X0107270Y0015500D03*
X0077270Y0015500D03*
D28*
X0081770Y0097500D03*
X0062770Y0097500D03*
X0071770Y0114500D03*
D29*
X0056270Y0040000D02*
X0056270Y0036000D01*
X0045770Y0018500D02*
X0041770Y0018500D01*
X0031770Y0036000D02*
X0031770Y0040000D01*
D30*
X0069770Y0063500D02*
X0071770Y0061500D01*
X0083770Y0061500D01*
X0069770Y0063500D02*
X0069770Y0076500D01*
X0066270Y0080000D01*
X0062033Y0080000D01*
X0062033Y0085000D02*
X0057770Y0085000D01*
X0055270Y0087500D01*
X0055270Y0113000D01*
X0056770Y0114500D01*
X0054270Y0113500D02*
X0053270Y0114500D01*
X0068370Y0100500D02*
X0065370Y0097500D01*
X0062770Y0097500D01*
X0062770Y0090736D01*
X0062033Y0090000D01*
X0075970Y0100500D02*
X0078970Y0097500D01*
X0081770Y0097500D01*
X0090270Y0106000D01*
X0090770Y0106000D01*
X0081770Y0097500D02*
X0081770Y0090736D01*
X0082506Y0090000D01*
X0082506Y0085000D02*
X0088270Y0085000D01*
X0090770Y0087500D01*
X0090770Y0095500D01*
X0088270Y0085000D02*
X0088270Y0080500D01*
X0087770Y0080000D01*
X0082506Y0080000D01*
X0082506Y0075000D02*
X0092770Y0075000D01*
X0100770Y0067000D01*
X0101770Y0067000D01*
X0106270Y0062500D01*
X0110770Y0062500D01*
X0110770Y0082500D01*
X0112770Y0084500D01*
X0112770Y0106500D01*
X0116770Y0110500D01*
X0119770Y0110500D01*
X0133270Y0124000D01*
X0133270Y0145500D01*
X0128770Y0150000D01*
X0126270Y0150000D01*
X0123270Y0153000D01*
X0123270Y0202000D01*
X0122770Y0202500D01*
X0122770Y0204500D01*
X0123770Y0205500D01*
X0118770Y0209000D02*
X0116270Y0211500D01*
X0108270Y0211500D01*
X0104270Y0207500D01*
X0104270Y0206000D01*
X0103770Y0205500D01*
X0093770Y0205500D02*
X0093770Y0199000D01*
X0097770Y0195000D01*
X0099270Y0180000D02*
X0081770Y0180000D01*
X0052870Y0208900D01*
X0043070Y0208900D01*
X0017470Y0208900D01*
X0043781Y0165500D02*
X0054770Y0165500D01*
X0052770Y0162000D02*
X0043730Y0162000D01*
X0043581Y0162150D01*
X0043581Y0159000D02*
X0051270Y0159000D01*
X0053270Y0157000D01*
X0053270Y0152000D01*
X0056770Y0148500D01*
X0056770Y0141500D01*
X0059770Y0138500D01*
X0073270Y0138500D01*
X0078270Y0143500D01*
X0078270Y0147110D01*
X0073270Y0147110D02*
X0073270Y0143500D01*
X0071270Y0141500D01*
X0061270Y0141500D01*
X0059770Y0143000D01*
X0059770Y0150000D01*
X0056270Y0153500D01*
X0056270Y0158500D01*
X0052770Y0162000D01*
X0049919Y0155850D02*
X0050270Y0155500D01*
X0050270Y0152500D01*
X0050069Y0152701D01*
X0043581Y0152701D01*
X0043581Y0155850D02*
X0049919Y0155850D01*
X0050270Y0152500D02*
X0050270Y0150000D01*
X0052770Y0147500D01*
X0052770Y0144500D01*
X0052770Y0141500D01*
X0052770Y0141000D02*
X0052770Y0138500D01*
X0063270Y0147110D02*
X0063270Y0150000D01*
X0079770Y0166500D01*
X0079770Y0172500D01*
X0090270Y0172500D02*
X0098770Y0172500D01*
X0099270Y0180000D02*
X0112270Y0167000D01*
X0112270Y0159500D01*
X0124270Y0147500D01*
X0124270Y0133000D01*
X0124770Y0133500D01*
X0130270Y0133500D01*
X0124270Y0133000D02*
X0124270Y0126000D01*
X0119770Y0121500D01*
X0115770Y0121500D01*
X0112770Y0118500D01*
X0112770Y0111000D01*
X0109770Y0108000D01*
X0109770Y0086000D01*
X0107770Y0084000D01*
X0107770Y0066500D01*
X0107270Y0066000D01*
X0110770Y0062500D02*
X0110770Y0038500D01*
X0121770Y0027500D01*
X0141270Y0027500D01*
X0145770Y0032000D01*
X0155770Y0032000D01*
X0161270Y0037500D01*
X0167270Y0037500D01*
X0168770Y0039000D01*
X0168770Y0043000D01*
X0168770Y0047500D01*
X0172770Y0051500D01*
X0199770Y0051500D01*
X0202770Y0054500D01*
X0241270Y0054500D01*
X0246770Y0060000D01*
X0252270Y0060000D01*
X0254770Y0062500D01*
X0261270Y0062500D01*
X0266770Y0068000D01*
X0266770Y0078000D01*
X0269270Y0080500D01*
X0271270Y0080500D01*
X0273770Y0083000D01*
X0273770Y0088000D01*
X0271270Y0090500D01*
X0265770Y0090500D01*
X0260770Y0095500D01*
X0258770Y0095500D01*
X0256270Y0090500D02*
X0261270Y0090500D01*
X0263770Y0088000D01*
X0263770Y0069500D01*
X0261270Y0067000D01*
X0255270Y0067000D01*
X0251270Y0063000D01*
X0245770Y0063000D01*
X0240270Y0057500D01*
X0200770Y0057500D01*
X0197770Y0054500D01*
X0165270Y0054500D01*
X0158770Y0048000D01*
X0158770Y0043000D01*
X0158770Y0039000D01*
X0154770Y0035000D01*
X0144270Y0035000D01*
X0139770Y0030500D01*
X0122770Y0030500D01*
X0113770Y0039500D01*
X0113770Y0081000D01*
X0115770Y0083000D01*
X0115770Y0098000D01*
X0119270Y0101500D01*
X0141270Y0101500D01*
X0143770Y0104000D01*
X0143770Y0146500D01*
X0140270Y0150000D01*
X0138270Y0150000D01*
X0133770Y0154500D01*
X0133770Y0205500D01*
X0143770Y0205500D02*
X0143770Y0151000D01*
X0147770Y0147000D01*
X0147770Y0103500D01*
X0142770Y0098500D01*
X0130770Y0098500D01*
X0121270Y0089000D01*
X0121270Y0084000D01*
X0116770Y0079500D01*
X0116770Y0040500D01*
X0123770Y0033500D01*
X0138270Y0033500D01*
X0142770Y0038000D01*
X0147270Y0038000D01*
X0148770Y0039500D01*
X0148770Y0043000D01*
X0148770Y0048000D01*
X0158270Y0057500D01*
X0195770Y0057500D01*
X0198770Y0060500D01*
X0239270Y0060500D01*
X0244770Y0066000D01*
X0249770Y0066000D01*
X0253770Y0070000D01*
X0253770Y0078000D01*
X0250770Y0081000D01*
X0250770Y0105000D01*
X0256770Y0111000D01*
X0260770Y0111000D01*
X0263770Y0108000D01*
X0263770Y0100500D01*
X0268770Y0095500D01*
X0256270Y0090500D02*
X0253770Y0093000D01*
X0253770Y0100500D01*
X0258770Y0105500D01*
X0254770Y0113500D02*
X0247770Y0106500D01*
X0247770Y0074000D01*
X0248770Y0073000D01*
X0247770Y0073000D01*
X0238270Y0063500D01*
X0196770Y0063500D01*
X0193770Y0060500D01*
X0128770Y0060500D01*
X0130770Y0063500D02*
X0128770Y0065500D01*
X0130770Y0063500D02*
X0192270Y0063500D01*
X0195270Y0066500D01*
X0231770Y0066500D01*
X0238270Y0073000D01*
X0238770Y0073000D01*
X0238770Y0076000D01*
X0244770Y0082000D01*
X0244770Y0108000D01*
X0248270Y0111500D01*
X0248270Y0116000D01*
X0244770Y0119500D01*
X0244770Y0194500D01*
X0249770Y0199500D01*
X0249770Y0205500D01*
X0239770Y0205500D02*
X0239770Y0200000D01*
X0234770Y0195000D01*
X0234770Y0081000D01*
X0228770Y0075000D01*
X0228770Y0073000D01*
X0224770Y0079000D02*
X0218770Y0073000D01*
X0224770Y0079000D02*
X0224770Y0108500D01*
X0227770Y0111500D01*
X0227770Y0116000D01*
X0224770Y0119000D01*
X0224770Y0195000D01*
X0229770Y0200000D01*
X0229770Y0205500D01*
X0219770Y0205500D02*
X0219770Y0200000D01*
X0214770Y0195000D01*
X0214770Y0120000D01*
X0208770Y0114000D01*
X0208770Y0073000D01*
X0196770Y0082000D02*
X0193770Y0079000D01*
X0193770Y0070000D01*
X0190270Y0066500D01*
X0160270Y0066500D01*
X0158770Y0068000D01*
X0158770Y0073000D01*
X0153270Y0079000D02*
X0185770Y0079000D01*
X0192770Y0086000D01*
X0192770Y0117500D01*
X0194770Y0119500D01*
X0194770Y0194500D01*
X0199770Y0199500D01*
X0199770Y0205500D01*
X0209770Y0205500D02*
X0209770Y0200000D01*
X0204770Y0195000D01*
X0204770Y0120500D01*
X0196770Y0112500D01*
X0196770Y0082000D01*
X0229770Y0085500D02*
X0229770Y0108000D01*
X0231270Y0109500D01*
X0231270Y0117500D01*
X0239770Y0110500D02*
X0243270Y0114000D01*
X0239770Y0110500D02*
X0239770Y0085500D01*
X0258770Y0085500D02*
X0258770Y0073000D01*
X0258770Y0043000D02*
X0258770Y0016500D01*
X0259770Y0015500D01*
X0249770Y0015500D02*
X0248770Y0016500D01*
X0248770Y0043000D01*
X0238770Y0043000D02*
X0238770Y0016500D01*
X0239770Y0015500D01*
X0229770Y0015500D02*
X0228770Y0016500D01*
X0228770Y0043000D01*
X0218770Y0043000D02*
X0218770Y0016500D01*
X0219770Y0015500D01*
X0215770Y0021500D02*
X0209770Y0015500D01*
X0215770Y0021500D02*
X0215770Y0036500D01*
X0209270Y0043000D01*
X0208770Y0043000D01*
X0158770Y0043000D02*
X0158770Y0041500D01*
X0148770Y0042500D02*
X0148770Y0043000D01*
X0138770Y0043000D02*
X0138770Y0039000D01*
X0136270Y0036500D01*
X0124770Y0036500D01*
X0119770Y0041500D01*
X0119770Y0077000D01*
X0124270Y0081500D01*
X0130770Y0081500D01*
X0133270Y0084000D01*
X0133270Y0090000D01*
X0138770Y0095500D01*
X0144270Y0095500D01*
X0150770Y0102000D01*
X0150770Y0147000D01*
X0154770Y0151000D01*
X0154770Y0204500D01*
X0153770Y0205500D01*
X0163770Y0205500D02*
X0164770Y0204500D01*
X0164770Y0121000D01*
X0153770Y0110000D01*
X0153770Y0100500D01*
X0142770Y0089500D01*
X0142770Y0085500D01*
X0139770Y0082500D01*
X0135770Y0082500D01*
X0132270Y0079000D01*
X0125770Y0079000D01*
X0122770Y0076000D01*
X0122770Y0048500D01*
X0128270Y0043000D01*
X0128770Y0043000D01*
X0146270Y0027500D02*
X0146770Y0027500D01*
X0148770Y0073000D02*
X0148770Y0074500D01*
X0153270Y0079000D01*
X0149270Y0083000D02*
X0149270Y0086000D01*
X0159770Y0096500D01*
X0159770Y0106500D01*
X0170270Y0117000D01*
X0180770Y0117000D01*
X0184770Y0121000D01*
X0184770Y0195500D01*
X0189770Y0200500D01*
X0189770Y0205500D01*
X0174770Y0204500D02*
X0173770Y0205500D01*
X0174770Y0204500D02*
X0174770Y0120000D01*
X0168770Y0120000D01*
X0156770Y0108000D01*
X0156770Y0098500D01*
X0145770Y0087500D01*
X0145770Y0084000D01*
X0141270Y0079500D01*
X0136770Y0079500D01*
X0130270Y0073000D01*
X0128770Y0073000D01*
X0138770Y0073000D02*
X0139770Y0073000D01*
X0139770Y0073500D01*
X0149270Y0083000D01*
X0138270Y0107500D02*
X0134270Y0111000D01*
X0133270Y0112000D01*
X0126270Y0112000D01*
X0120770Y0106500D01*
X0120770Y0106000D01*
X0098270Y0122500D02*
X0096270Y0120500D01*
X0078570Y0120500D01*
X0072170Y0114100D01*
X0071770Y0114500D01*
X0072170Y0114100D02*
X0072170Y0108500D01*
X0083270Y0125890D02*
X0083270Y0129500D01*
X0084770Y0131000D01*
X0114770Y0131000D01*
X0119270Y0126500D01*
X0107270Y0142500D02*
X0102770Y0138000D01*
X0092770Y0138000D01*
X0088270Y0142500D01*
X0088270Y0147110D01*
X0093270Y0147110D02*
X0093270Y0144000D01*
X0095770Y0141500D01*
X0100270Y0141500D01*
X0102770Y0144000D01*
X0102770Y0148500D01*
X0105270Y0151000D01*
X0113270Y0151000D01*
X0117770Y0146500D01*
X0107270Y0146500D02*
X0107270Y0142500D01*
X0128270Y0155000D02*
X0139270Y0144000D01*
X0138270Y0144500D01*
X0128270Y0155000D02*
X0128270Y0156500D01*
X0090270Y0172500D02*
X0068270Y0150500D01*
X0068270Y0147110D01*
X0083270Y0147110D02*
X0083270Y0155000D01*
X0081770Y0156500D01*
X0098270Y0125890D02*
X0098270Y0122500D01*
X0043781Y0165500D02*
X0043581Y0165299D01*
X0118770Y0191500D02*
X0118770Y0209000D01*
X0254770Y0195000D02*
X0254770Y0113500D01*
X0254770Y0195000D02*
X0259770Y0200000D01*
X0259770Y0205500D01*
D31*
X0203770Y0084000D02*
X0203770Y0082000D01*
X0198770Y0077000D01*
X0198770Y0073000D01*
X0188770Y0043000D02*
X0190770Y0041000D01*
X0190770Y0032500D01*
X0186270Y0022500D02*
X0189770Y0019000D01*
X0189770Y0015500D01*
X0186270Y0022500D02*
X0114270Y0022500D01*
X0107270Y0015500D01*
X0101770Y0015500D01*
X0101770Y0026500D01*
X0101270Y0027000D01*
X0101770Y0015500D02*
X0089270Y0015500D01*
X0073270Y0031500D01*
X0071770Y0031500D01*
X0071770Y0039000D01*
X0059770Y0051000D01*
X0043270Y0051000D01*
X0038770Y0055500D01*
X0038770Y0076000D01*
X0041270Y0078500D01*
X0047070Y0078500D01*
X0047170Y0078600D01*
X0042770Y0085500D02*
X0051770Y0085500D01*
X0054770Y0082500D01*
X0054770Y0069600D01*
X0059170Y0069600D01*
X0065770Y0063000D01*
X0065770Y0059000D01*
X0069270Y0055500D01*
X0090270Y0055500D01*
X0095270Y0050500D01*
X0101270Y0050500D01*
X0090270Y0055500D02*
X0090270Y0065000D01*
X0087270Y0068000D01*
X0078270Y0068000D01*
X0074270Y0072000D01*
X0074270Y0092500D01*
X0077270Y0095500D01*
X0079770Y0095500D01*
X0081770Y0097500D01*
X0057270Y0114500D02*
X0056770Y0114500D01*
X0053270Y0114500D01*
X0053170Y0114600D01*
X0047170Y0114600D01*
X0039270Y0119500D02*
X0039270Y0089000D01*
X0042770Y0085500D01*
X0047170Y0069600D02*
X0054770Y0069600D01*
X0053770Y0063500D02*
X0057770Y0063500D01*
X0057770Y0059500D02*
X0053770Y0063500D01*
X0053670Y0060600D02*
X0053770Y0059500D01*
X0053670Y0060600D02*
X0047170Y0060600D01*
X0056270Y0038000D02*
X0056770Y0038000D01*
X0069270Y0025500D01*
X0070770Y0025500D01*
X0077270Y0019000D01*
X0077270Y0015500D01*
X0146770Y0027500D02*
X0149270Y0027500D01*
X0157770Y0027500D01*
X0162770Y0032500D01*
X0171270Y0032500D01*
X0178270Y0039500D01*
X0178270Y0042500D01*
X0178770Y0043000D01*
X0253770Y0038500D02*
X0253770Y0026500D01*
X0253770Y0023500D01*
X0253770Y0048000D02*
X0256270Y0050500D01*
X0262270Y0050500D01*
X0265270Y0050500D01*
X0062270Y0165500D02*
X0058770Y0165500D01*
X0055270Y0165500D01*
X0054770Y0165500D01*
X0047170Y0123600D02*
X0043370Y0123600D01*
X0039270Y0119500D01*
D32*
X0053270Y0114500D03*
X0056770Y0114500D03*
X0058770Y0103500D03*
X0050270Y0098500D03*
X0045270Y0098500D03*
X0045270Y0093500D03*
X0050270Y0093500D03*
X0069270Y0082500D03*
X0065270Y0071000D03*
X0057770Y0063500D03*
X0053770Y0063500D03*
X0053770Y0059500D03*
X0057770Y0059500D03*
X0022770Y0091500D03*
X0023270Y0130000D03*
X0052770Y0138500D03*
X0052770Y0141500D03*
X0052770Y0144500D03*
X0052770Y0147500D03*
X0064770Y0133000D03*
X0086270Y0136500D03*
X0107270Y0124500D03*
X0119270Y0126500D03*
X0130270Y0133500D03*
X0101270Y0100500D03*
X0088770Y0113500D03*
X0107270Y0066000D03*
X0128770Y0065500D03*
X0128770Y0060500D03*
X0146270Y0027500D03*
X0149270Y0027500D03*
X0243770Y0049500D03*
X0262270Y0050500D03*
X0265270Y0050500D03*
X0273270Y0050500D03*
X0270270Y0073500D03*
X0270270Y0076500D03*
X0231270Y0117500D03*
X0118770Y0191500D03*
X0097770Y0195000D03*
X0077770Y0193000D03*
X0062270Y0165500D03*
X0058770Y0165500D03*
X0055270Y0165500D03*
X0253770Y0026500D03*
X0253770Y0023500D03*
D33*
X0253770Y0038500D02*
X0253770Y0048000D01*
D34*
X0251128Y0051015D02*
X0203245Y0051015D01*
X0203929Y0051700D02*
X0241827Y0051700D01*
X0242856Y0052126D01*
X0247929Y0057200D01*
X0252827Y0057200D01*
X0253856Y0057626D01*
X0254643Y0058414D01*
X0255929Y0059700D01*
X0261827Y0059700D01*
X0262856Y0060126D01*
X0268356Y0065626D01*
X0269143Y0066414D01*
X0269570Y0067443D01*
X0269570Y0076840D01*
X0270429Y0077700D01*
X0271827Y0077700D01*
X0272856Y0078126D01*
X0275356Y0080626D01*
X0275651Y0080922D01*
X0275773Y0080800D01*
X0277270Y0080800D01*
X0277270Y0039080D01*
X0276805Y0040201D01*
X0274471Y0042536D01*
X0271420Y0043799D01*
X0268119Y0043799D01*
X0265069Y0042536D01*
X0263570Y0041037D01*
X0263570Y0045355D01*
X0263095Y0046500D01*
X0266065Y0046500D01*
X0267535Y0047109D01*
X0268661Y0048234D01*
X0269270Y0049704D01*
X0269270Y0051296D01*
X0268661Y0052766D01*
X0267535Y0053891D01*
X0266065Y0054500D01*
X0255474Y0054500D01*
X0254004Y0053891D01*
X0250379Y0050266D01*
X0249906Y0049125D01*
X0249724Y0049200D01*
X0247815Y0049200D01*
X0246051Y0048469D01*
X0244700Y0047119D01*
X0243970Y0045355D01*
X0243970Y0040645D01*
X0244700Y0038881D01*
X0245970Y0037612D01*
X0245970Y0019888D01*
X0245700Y0019619D01*
X0244970Y0017855D01*
X0244970Y0013145D01*
X0245700Y0011381D01*
X0247051Y0010031D01*
X0248815Y0009300D01*
X0250724Y0009300D01*
X0252489Y0010031D01*
X0253839Y0011381D01*
X0254570Y0013145D01*
X0254570Y0017855D01*
X0253888Y0019500D01*
X0254565Y0019500D01*
X0255970Y0020082D01*
X0255970Y0019888D01*
X0255700Y0019619D01*
X0254970Y0017855D01*
X0254970Y0013145D01*
X0255700Y0011381D01*
X0257051Y0010031D01*
X0258815Y0009300D01*
X0260724Y0009300D01*
X0262489Y0010031D01*
X0263839Y0011381D01*
X0264570Y0013145D01*
X0264570Y0017855D01*
X0263839Y0019619D01*
X0262489Y0020969D01*
X0261570Y0021350D01*
X0261570Y0033610D01*
X0262734Y0030799D01*
X0265069Y0028464D01*
X0268119Y0027201D01*
X0271420Y0027201D01*
X0274471Y0028464D01*
X0276805Y0030799D01*
X0277270Y0031920D01*
X0277270Y0026536D01*
X0268354Y0017619D01*
X0267650Y0016916D01*
X0267270Y0015997D01*
X0267270Y0009437D01*
X0267242Y0009157D01*
X0267027Y0008639D01*
X0266631Y0008242D01*
X0266113Y0008028D01*
X0265833Y0008000D01*
X0068350Y0008000D01*
X0069471Y0008464D01*
X0071805Y0010799D01*
X0072618Y0012760D01*
X0072737Y0012471D01*
X0074241Y0010967D01*
X0076206Y0010154D01*
X0078333Y0010154D01*
X0080298Y0010967D01*
X0081802Y0012471D01*
X0082616Y0014437D01*
X0082616Y0016497D01*
X0085879Y0013234D01*
X0087004Y0012109D01*
X0088474Y0011500D01*
X0103709Y0011500D01*
X0104241Y0010967D01*
X0106206Y0010154D01*
X0108333Y0010154D01*
X0110298Y0010967D01*
X0111802Y0012471D01*
X0112616Y0014437D01*
X0112616Y0015190D01*
X0114970Y0017543D01*
X0114970Y0013145D01*
X0115700Y0011381D01*
X0117051Y0010031D01*
X0118815Y0009300D01*
X0120724Y0009300D01*
X0122489Y0010031D01*
X0123839Y0011381D01*
X0124570Y0013145D01*
X0124570Y0017855D01*
X0124302Y0018500D01*
X0125237Y0018500D01*
X0124970Y0017855D01*
X0124970Y0013145D01*
X0125700Y0011381D01*
X0127051Y0010031D01*
X0128815Y0009300D01*
X0130724Y0009300D01*
X0132489Y0010031D01*
X0133839Y0011381D01*
X0134570Y0013145D01*
X0134570Y0017855D01*
X0134302Y0018500D01*
X0135237Y0018500D01*
X0134970Y0017855D01*
X0134970Y0013145D01*
X0135700Y0011381D01*
X0137051Y0010031D01*
X0138815Y0009300D01*
X0140724Y0009300D01*
X0142489Y0010031D01*
X0143839Y0011381D01*
X0144570Y0013145D01*
X0144570Y0017855D01*
X0144302Y0018500D01*
X0145237Y0018500D01*
X0144970Y0017855D01*
X0144970Y0013145D01*
X0145700Y0011381D01*
X0147051Y0010031D01*
X0148815Y0009300D01*
X0150724Y0009300D01*
X0152489Y0010031D01*
X0153839Y0011381D01*
X0154570Y0013145D01*
X0154570Y0017855D01*
X0154302Y0018500D01*
X0155237Y0018500D01*
X0154970Y0017855D01*
X0154970Y0013145D01*
X0155700Y0011381D01*
X0157051Y0010031D01*
X0158815Y0009300D01*
X0160724Y0009300D01*
X0162489Y0010031D01*
X0163839Y0011381D01*
X0164570Y0013145D01*
X0164570Y0017855D01*
X0164302Y0018500D01*
X0165873Y0018500D01*
X0165673Y0017884D01*
X0165570Y0017231D01*
X0165570Y0015900D01*
X0169370Y0015900D01*
X0169370Y0015100D01*
X0170170Y0015100D01*
X0170170Y0015900D01*
X0173970Y0015900D01*
X0173970Y0017231D01*
X0173866Y0017884D01*
X0173666Y0018500D01*
X0175873Y0018500D01*
X0175673Y0017884D01*
X0175570Y0017231D01*
X0175570Y0015900D01*
X0179370Y0015900D01*
X0179370Y0015100D01*
X0180170Y0015100D01*
X0180170Y0015900D01*
X0183970Y0015900D01*
X0183970Y0017231D01*
X0183866Y0017884D01*
X0183666Y0018500D01*
X0184613Y0018500D01*
X0185054Y0018059D01*
X0184970Y0017855D01*
X0184970Y0013145D01*
X0185700Y0011381D01*
X0187051Y0010031D01*
X0188815Y0009300D01*
X0190724Y0009300D01*
X0192489Y0010031D01*
X0193839Y0011381D01*
X0194570Y0013145D01*
X0194570Y0017855D01*
X0193839Y0019619D01*
X0193770Y0019688D01*
X0193770Y0019796D01*
X0193161Y0021266D01*
X0192035Y0022391D01*
X0188535Y0025891D01*
X0187065Y0026500D01*
X0162427Y0026500D01*
X0163827Y0027900D01*
X0164675Y0027900D01*
X0165275Y0028500D01*
X0172065Y0028500D01*
X0173535Y0029109D01*
X0180535Y0036109D01*
X0181661Y0037234D01*
X0181992Y0038034D01*
X0182839Y0038881D01*
X0183570Y0040645D01*
X0183570Y0045355D01*
X0182839Y0047119D01*
X0181489Y0048469D01*
X0180932Y0048700D01*
X0186608Y0048700D01*
X0186051Y0048469D01*
X0184700Y0047119D01*
X0183970Y0045355D01*
X0183970Y0040645D01*
X0184700Y0038881D01*
X0186051Y0037531D01*
X0186770Y0037233D01*
X0186770Y0035005D01*
X0186345Y0034581D01*
X0184427Y0036500D01*
X0183170Y0036500D01*
X0183170Y0032900D01*
X0182370Y0032900D01*
X0182370Y0036500D01*
X0181113Y0036500D01*
X0178770Y0034157D01*
X0178770Y0032900D01*
X0182370Y0032900D01*
X0182370Y0032100D01*
X0183170Y0032100D01*
X0183170Y0028500D01*
X0184427Y0028500D01*
X0186345Y0030419D01*
X0188864Y0027900D01*
X0192675Y0027900D01*
X0195370Y0030595D01*
X0195370Y0034405D01*
X0194770Y0035005D01*
X0194770Y0040319D01*
X0194877Y0039988D01*
X0195178Y0039399D01*
X0195566Y0038864D01*
X0196034Y0038396D01*
X0196568Y0038008D01*
X0197157Y0037708D01*
X0197786Y0037503D01*
X0198370Y0037411D01*
X0198370Y0042600D01*
X0199170Y0042600D01*
X0199170Y0043400D01*
X0202970Y0043400D01*
X0202970Y0044731D01*
X0202866Y0045384D01*
X0202662Y0046012D01*
X0202362Y0046601D01*
X0201973Y0047136D01*
X0201506Y0047604D01*
X0200971Y0047992D01*
X0200382Y0048292D01*
X0199753Y0048497D01*
X0199170Y0048589D01*
X0199170Y0043400D01*
X0198370Y0043400D01*
X0198370Y0048589D01*
X0197786Y0048497D01*
X0197157Y0048292D01*
X0196568Y0047992D01*
X0196034Y0047604D01*
X0195566Y0047136D01*
X0195178Y0046601D01*
X0194877Y0046012D01*
X0194673Y0045384D01*
X0194570Y0044731D01*
X0194570Y0043400D01*
X0198370Y0043400D01*
X0198370Y0042600D01*
X0194570Y0042600D01*
X0194570Y0042278D01*
X0194161Y0043266D01*
X0193570Y0043857D01*
X0193570Y0045355D01*
X0192839Y0047119D01*
X0191489Y0048469D01*
X0190932Y0048700D01*
X0200327Y0048700D01*
X0201356Y0049126D01*
X0203929Y0051700D01*
X0202446Y0050217D02*
X0250358Y0050217D01*
X0250028Y0049418D02*
X0201648Y0049418D01*
X0201206Y0047821D02*
X0205403Y0047821D01*
X0206051Y0048469D02*
X0204700Y0047119D01*
X0203970Y0045355D01*
X0203970Y0040645D01*
X0204700Y0038881D01*
X0206051Y0037531D01*
X0207815Y0036800D01*
X0209724Y0036800D01*
X0210987Y0037323D01*
X0211810Y0036500D01*
X0211170Y0036500D01*
X0211170Y0032900D01*
X0210370Y0032900D01*
X0210370Y0036500D01*
X0209113Y0036500D01*
X0206770Y0034157D01*
X0206770Y0032900D01*
X0210370Y0032900D01*
X0210370Y0032100D01*
X0211170Y0032100D01*
X0211170Y0028500D01*
X0212427Y0028500D01*
X0212970Y0029043D01*
X0212970Y0022660D01*
X0211633Y0021323D01*
X0210724Y0021700D01*
X0208815Y0021700D01*
X0207051Y0020969D01*
X0205700Y0019619D01*
X0204970Y0017855D01*
X0204970Y0013145D01*
X0205700Y0011381D01*
X0207051Y0010031D01*
X0208815Y0009300D01*
X0210724Y0009300D01*
X0212489Y0010031D01*
X0213839Y0011381D01*
X0214570Y0013145D01*
X0214570Y0016340D01*
X0214970Y0016740D01*
X0214970Y0013145D01*
X0215700Y0011381D01*
X0217051Y0010031D01*
X0218815Y0009300D01*
X0220724Y0009300D01*
X0222489Y0010031D01*
X0223839Y0011381D01*
X0224570Y0013145D01*
X0224570Y0017855D01*
X0223839Y0019619D01*
X0222489Y0020969D01*
X0221570Y0021350D01*
X0221570Y0037612D01*
X0222839Y0038881D01*
X0223570Y0040645D01*
X0223570Y0045355D01*
X0222839Y0047119D01*
X0221489Y0048469D01*
X0219724Y0049200D01*
X0217815Y0049200D01*
X0216051Y0048469D01*
X0214700Y0047119D01*
X0213970Y0045355D01*
X0213970Y0042260D01*
X0213570Y0042660D01*
X0213570Y0045355D01*
X0212839Y0047119D01*
X0211489Y0048469D01*
X0209724Y0049200D01*
X0207815Y0049200D01*
X0206051Y0048469D01*
X0206414Y0048620D02*
X0191126Y0048620D01*
X0192137Y0047821D02*
X0196333Y0047821D01*
X0195484Y0047023D02*
X0192879Y0047023D01*
X0193210Y0046224D02*
X0194985Y0046224D01*
X0194687Y0045426D02*
X0193540Y0045426D01*
X0193570Y0044627D02*
X0194570Y0044627D01*
X0194570Y0043829D02*
X0193598Y0043829D01*
X0194258Y0043030D02*
X0198370Y0043030D01*
X0198370Y0042232D02*
X0199170Y0042232D01*
X0199170Y0042600D02*
X0199170Y0037411D01*
X0199753Y0037503D01*
X0200382Y0037708D01*
X0200971Y0038008D01*
X0201506Y0038396D01*
X0201973Y0038864D01*
X0202362Y0039399D01*
X0202662Y0039988D01*
X0202866Y0040616D01*
X0202970Y0041269D01*
X0202970Y0042600D01*
X0199170Y0042600D01*
X0199170Y0043030D02*
X0203970Y0043030D01*
X0203970Y0042232D02*
X0202970Y0042232D01*
X0202970Y0041433D02*
X0203970Y0041433D01*
X0203974Y0040634D02*
X0202869Y0040634D01*
X0202585Y0039836D02*
X0204305Y0039836D01*
X0204636Y0039037D02*
X0202099Y0039037D01*
X0201289Y0038239D02*
X0205342Y0038239D01*
X0206269Y0037440D02*
X0199356Y0037440D01*
X0199170Y0037440D02*
X0198370Y0037440D01*
X0198184Y0037440D02*
X0194770Y0037440D01*
X0194770Y0036642D02*
X0211668Y0036642D01*
X0211170Y0035843D02*
X0210370Y0035843D01*
X0210370Y0035045D02*
X0211170Y0035045D01*
X0211170Y0034246D02*
X0210370Y0034246D01*
X0210370Y0033448D02*
X0211170Y0033448D01*
X0210370Y0032649D02*
X0195370Y0032649D01*
X0195370Y0031851D02*
X0206770Y0031851D01*
X0206770Y0032100D02*
X0206770Y0030843D01*
X0209113Y0028500D01*
X0210370Y0028500D01*
X0210370Y0032100D01*
X0206770Y0032100D01*
X0206770Y0031052D02*
X0195370Y0031052D01*
X0195029Y0030254D02*
X0207359Y0030254D01*
X0208157Y0029455D02*
X0194230Y0029455D01*
X0193432Y0028657D02*
X0208956Y0028657D01*
X0210370Y0028657D02*
X0211170Y0028657D01*
X0211170Y0029455D02*
X0210370Y0029455D01*
X0210370Y0030254D02*
X0211170Y0030254D01*
X0211170Y0031052D02*
X0210370Y0031052D01*
X0210370Y0031851D02*
X0211170Y0031851D01*
X0212583Y0028657D02*
X0212970Y0028657D01*
X0212970Y0027858D02*
X0163785Y0027858D01*
X0162986Y0027060D02*
X0212970Y0027060D01*
X0212970Y0026261D02*
X0187642Y0026261D01*
X0188964Y0025463D02*
X0212970Y0025463D01*
X0212970Y0024664D02*
X0189762Y0024664D01*
X0190561Y0023866D02*
X0212970Y0023866D01*
X0212970Y0023067D02*
X0191359Y0023067D01*
X0192158Y0022269D02*
X0212579Y0022269D01*
X0211780Y0021470D02*
X0211279Y0021470D01*
X0208260Y0021470D02*
X0192956Y0021470D01*
X0193407Y0020672D02*
X0206753Y0020672D01*
X0205955Y0019873D02*
X0193738Y0019873D01*
X0194064Y0019075D02*
X0205475Y0019075D01*
X0205144Y0018276D02*
X0194395Y0018276D01*
X0194570Y0017478D02*
X0204970Y0017478D01*
X0204970Y0016679D02*
X0194570Y0016679D01*
X0194570Y0015881D02*
X0204970Y0015881D01*
X0204970Y0015082D02*
X0194570Y0015082D01*
X0194570Y0014284D02*
X0204970Y0014284D01*
X0204970Y0013485D02*
X0194570Y0013485D01*
X0194380Y0012687D02*
X0205160Y0012687D01*
X0205490Y0011888D02*
X0194049Y0011888D01*
X0193547Y0011090D02*
X0205992Y0011090D01*
X0206790Y0010291D02*
X0192749Y0010291D01*
X0191189Y0009493D02*
X0208350Y0009493D01*
X0211189Y0009493D02*
X0218350Y0009493D01*
X0216790Y0010291D02*
X0212749Y0010291D01*
X0213547Y0011090D02*
X0215992Y0011090D01*
X0215490Y0011888D02*
X0214049Y0011888D01*
X0214380Y0012687D02*
X0215160Y0012687D01*
X0214970Y0013485D02*
X0214570Y0013485D01*
X0214570Y0014284D02*
X0214970Y0014284D01*
X0214970Y0015082D02*
X0214570Y0015082D01*
X0214570Y0015881D02*
X0214970Y0015881D01*
X0214970Y0016679D02*
X0214909Y0016679D01*
X0221570Y0021470D02*
X0225970Y0021470D01*
X0225970Y0020672D02*
X0222786Y0020672D01*
X0223585Y0019873D02*
X0225955Y0019873D01*
X0225970Y0019888D02*
X0225700Y0019619D01*
X0224970Y0017855D01*
X0224970Y0013145D01*
X0225700Y0011381D01*
X0227051Y0010031D01*
X0228815Y0009300D01*
X0230724Y0009300D01*
X0232489Y0010031D01*
X0233839Y0011381D01*
X0234570Y0013145D01*
X0234570Y0017855D01*
X0233839Y0019619D01*
X0232489Y0020969D01*
X0231570Y0021350D01*
X0231570Y0037612D01*
X0232839Y0038881D01*
X0233570Y0040645D01*
X0233570Y0045355D01*
X0232839Y0047119D01*
X0231489Y0048469D01*
X0229724Y0049200D01*
X0227815Y0049200D01*
X0226051Y0048469D01*
X0224700Y0047119D01*
X0223970Y0045355D01*
X0223970Y0040645D01*
X0224700Y0038881D01*
X0225970Y0037612D01*
X0225970Y0019888D01*
X0225475Y0019075D02*
X0224064Y0019075D01*
X0224395Y0018276D02*
X0225144Y0018276D01*
X0224970Y0017478D02*
X0224570Y0017478D01*
X0224570Y0016679D02*
X0224970Y0016679D01*
X0224970Y0015881D02*
X0224570Y0015881D01*
X0224570Y0015082D02*
X0224970Y0015082D01*
X0224970Y0014284D02*
X0224570Y0014284D01*
X0224570Y0013485D02*
X0224970Y0013485D01*
X0225160Y0012687D02*
X0224380Y0012687D01*
X0224049Y0011888D02*
X0225490Y0011888D01*
X0225992Y0011090D02*
X0223547Y0011090D01*
X0222749Y0010291D02*
X0226790Y0010291D01*
X0228350Y0009493D02*
X0221189Y0009493D01*
X0231189Y0009493D02*
X0238350Y0009493D01*
X0238815Y0009300D02*
X0240724Y0009300D01*
X0242489Y0010031D01*
X0243839Y0011381D01*
X0244570Y0013145D01*
X0244570Y0017855D01*
X0243839Y0019619D01*
X0242489Y0020969D01*
X0241570Y0021350D01*
X0241570Y0037612D01*
X0242839Y0038881D01*
X0243570Y0040645D01*
X0243570Y0045355D01*
X0242839Y0047119D01*
X0241489Y0048469D01*
X0239724Y0049200D01*
X0237815Y0049200D01*
X0236051Y0048469D01*
X0234700Y0047119D01*
X0233970Y0045355D01*
X0233970Y0040645D01*
X0234700Y0038881D01*
X0235970Y0037612D01*
X0235970Y0019888D01*
X0235700Y0019619D01*
X0234970Y0017855D01*
X0234970Y0013145D01*
X0235700Y0011381D01*
X0237051Y0010031D01*
X0238815Y0009300D01*
X0236790Y0010291D02*
X0232749Y0010291D01*
X0233547Y0011090D02*
X0235992Y0011090D01*
X0235490Y0011888D02*
X0234049Y0011888D01*
X0234380Y0012687D02*
X0235160Y0012687D01*
X0234970Y0013485D02*
X0234570Y0013485D01*
X0234570Y0014284D02*
X0234970Y0014284D01*
X0234970Y0015082D02*
X0234570Y0015082D01*
X0234570Y0015881D02*
X0234970Y0015881D01*
X0234970Y0016679D02*
X0234570Y0016679D01*
X0234570Y0017478D02*
X0234970Y0017478D01*
X0235144Y0018276D02*
X0234395Y0018276D01*
X0234064Y0019075D02*
X0235475Y0019075D01*
X0235955Y0019873D02*
X0233585Y0019873D01*
X0232786Y0020672D02*
X0235970Y0020672D01*
X0235970Y0021470D02*
X0231570Y0021470D01*
X0231570Y0022269D02*
X0235970Y0022269D01*
X0235970Y0023067D02*
X0231570Y0023067D01*
X0231570Y0023866D02*
X0235970Y0023866D01*
X0235970Y0024664D02*
X0231570Y0024664D01*
X0231570Y0025463D02*
X0235970Y0025463D01*
X0235970Y0026261D02*
X0231570Y0026261D01*
X0231570Y0027060D02*
X0235970Y0027060D01*
X0235970Y0027858D02*
X0231570Y0027858D01*
X0231570Y0028657D02*
X0235970Y0028657D01*
X0235970Y0029455D02*
X0231570Y0029455D01*
X0231570Y0030254D02*
X0235970Y0030254D01*
X0235970Y0031052D02*
X0231570Y0031052D01*
X0231570Y0031851D02*
X0235970Y0031851D01*
X0235970Y0032649D02*
X0231570Y0032649D01*
X0231570Y0033448D02*
X0235970Y0033448D01*
X0235970Y0034246D02*
X0231570Y0034246D01*
X0231570Y0035045D02*
X0235970Y0035045D01*
X0235970Y0035843D02*
X0231570Y0035843D01*
X0231570Y0036642D02*
X0235970Y0036642D01*
X0235970Y0037440D02*
X0231570Y0037440D01*
X0232197Y0038239D02*
X0235342Y0038239D01*
X0234636Y0039037D02*
X0232904Y0039037D01*
X0233234Y0039836D02*
X0234305Y0039836D01*
X0233974Y0040634D02*
X0233565Y0040634D01*
X0233570Y0041433D02*
X0233970Y0041433D01*
X0233970Y0042232D02*
X0233570Y0042232D01*
X0233570Y0043030D02*
X0233970Y0043030D01*
X0233970Y0043829D02*
X0233570Y0043829D01*
X0233570Y0044627D02*
X0233970Y0044627D01*
X0233999Y0045426D02*
X0233540Y0045426D01*
X0233210Y0046224D02*
X0234330Y0046224D01*
X0234661Y0047023D02*
X0232879Y0047023D01*
X0232137Y0047821D02*
X0235403Y0047821D01*
X0236414Y0048620D02*
X0231126Y0048620D01*
X0226414Y0048620D02*
X0221126Y0048620D01*
X0222137Y0047821D02*
X0225403Y0047821D01*
X0224661Y0047023D02*
X0222879Y0047023D01*
X0223210Y0046224D02*
X0224330Y0046224D01*
X0223999Y0045426D02*
X0223540Y0045426D01*
X0223570Y0044627D02*
X0223970Y0044627D01*
X0223970Y0043829D02*
X0223570Y0043829D01*
X0223570Y0043030D02*
X0223970Y0043030D01*
X0223970Y0042232D02*
X0223570Y0042232D01*
X0223570Y0041433D02*
X0223970Y0041433D01*
X0223974Y0040634D02*
X0223565Y0040634D01*
X0223234Y0039836D02*
X0224305Y0039836D01*
X0224636Y0039037D02*
X0222904Y0039037D01*
X0222197Y0038239D02*
X0225342Y0038239D01*
X0225970Y0037440D02*
X0221570Y0037440D01*
X0221570Y0036642D02*
X0225970Y0036642D01*
X0225970Y0035843D02*
X0221570Y0035843D01*
X0221570Y0035045D02*
X0225970Y0035045D01*
X0225970Y0034246D02*
X0221570Y0034246D01*
X0221570Y0033448D02*
X0225970Y0033448D01*
X0225970Y0032649D02*
X0221570Y0032649D01*
X0221570Y0031851D02*
X0225970Y0031851D01*
X0225970Y0031052D02*
X0221570Y0031052D01*
X0221570Y0030254D02*
X0225970Y0030254D01*
X0225970Y0029455D02*
X0221570Y0029455D01*
X0221570Y0028657D02*
X0225970Y0028657D01*
X0225970Y0027858D02*
X0221570Y0027858D01*
X0221570Y0027060D02*
X0225970Y0027060D01*
X0225970Y0026261D02*
X0221570Y0026261D01*
X0221570Y0025463D02*
X0225970Y0025463D01*
X0225970Y0024664D02*
X0221570Y0024664D01*
X0221570Y0023866D02*
X0225970Y0023866D01*
X0225970Y0023067D02*
X0221570Y0023067D01*
X0221570Y0022269D02*
X0225970Y0022269D01*
X0241570Y0022269D02*
X0245970Y0022269D01*
X0245970Y0023067D02*
X0241570Y0023067D01*
X0241570Y0023866D02*
X0245970Y0023866D01*
X0245970Y0024664D02*
X0241570Y0024664D01*
X0241570Y0025463D02*
X0245970Y0025463D01*
X0245970Y0026261D02*
X0241570Y0026261D01*
X0241570Y0027060D02*
X0245970Y0027060D01*
X0245970Y0027858D02*
X0241570Y0027858D01*
X0241570Y0028657D02*
X0245970Y0028657D01*
X0245970Y0029455D02*
X0241570Y0029455D01*
X0241570Y0030254D02*
X0245970Y0030254D01*
X0245970Y0031052D02*
X0241570Y0031052D01*
X0241570Y0031851D02*
X0245970Y0031851D01*
X0245970Y0032649D02*
X0241570Y0032649D01*
X0241570Y0033448D02*
X0245970Y0033448D01*
X0245970Y0034246D02*
X0241570Y0034246D01*
X0241570Y0035045D02*
X0245970Y0035045D01*
X0245970Y0035843D02*
X0241570Y0035843D01*
X0241570Y0036642D02*
X0245970Y0036642D01*
X0245970Y0037440D02*
X0241570Y0037440D01*
X0242197Y0038239D02*
X0245342Y0038239D01*
X0244636Y0039037D02*
X0242904Y0039037D01*
X0243234Y0039836D02*
X0244305Y0039836D01*
X0243974Y0040634D02*
X0243565Y0040634D01*
X0243570Y0041433D02*
X0243970Y0041433D01*
X0243970Y0042232D02*
X0243570Y0042232D01*
X0243570Y0043030D02*
X0243970Y0043030D01*
X0243970Y0043829D02*
X0243570Y0043829D01*
X0243570Y0044627D02*
X0243970Y0044627D01*
X0243999Y0045426D02*
X0243540Y0045426D01*
X0243210Y0046224D02*
X0244330Y0046224D01*
X0244661Y0047023D02*
X0242879Y0047023D01*
X0242137Y0047821D02*
X0245403Y0047821D01*
X0246414Y0048620D02*
X0241126Y0048620D01*
X0242101Y0051814D02*
X0251926Y0051814D01*
X0252725Y0052612D02*
X0243342Y0052612D01*
X0244140Y0053411D02*
X0253524Y0053411D01*
X0254772Y0054209D02*
X0244939Y0054209D01*
X0245737Y0055008D02*
X0277270Y0055008D01*
X0277270Y0055806D02*
X0246536Y0055806D01*
X0247334Y0056605D02*
X0277270Y0056605D01*
X0277270Y0057403D02*
X0253317Y0057403D01*
X0254431Y0058202D02*
X0277270Y0058202D01*
X0277270Y0059000D02*
X0255230Y0059000D01*
X0262065Y0059799D02*
X0277270Y0059799D01*
X0277270Y0060597D02*
X0263327Y0060597D01*
X0264125Y0061396D02*
X0277270Y0061396D01*
X0277270Y0062194D02*
X0264924Y0062194D01*
X0265722Y0062993D02*
X0277270Y0062993D01*
X0277270Y0063791D02*
X0266521Y0063791D01*
X0267319Y0064590D02*
X0277270Y0064590D01*
X0277270Y0065388D02*
X0268118Y0065388D01*
X0268916Y0066187D02*
X0277270Y0066187D01*
X0277270Y0066985D02*
X0269380Y0066985D01*
X0269570Y0067784D02*
X0277270Y0067784D01*
X0277270Y0068582D02*
X0269570Y0068582D01*
X0269570Y0069381D02*
X0277270Y0069381D01*
X0277270Y0070179D02*
X0269570Y0070179D01*
X0269570Y0070978D02*
X0277270Y0070978D01*
X0277270Y0071776D02*
X0269570Y0071776D01*
X0269570Y0072575D02*
X0277270Y0072575D01*
X0277270Y0073373D02*
X0269570Y0073373D01*
X0269570Y0074172D02*
X0277270Y0074172D01*
X0277270Y0074970D02*
X0269570Y0074970D01*
X0269570Y0075769D02*
X0277270Y0075769D01*
X0277270Y0076568D02*
X0269570Y0076568D01*
X0270095Y0077366D02*
X0277270Y0077366D01*
X0277270Y0078165D02*
X0272894Y0078165D01*
X0273693Y0078963D02*
X0277270Y0078963D01*
X0277270Y0079762D02*
X0274491Y0079762D01*
X0275290Y0080560D02*
X0277270Y0080560D01*
X0277270Y0054209D02*
X0266767Y0054209D01*
X0268016Y0053411D02*
X0277270Y0053411D01*
X0277270Y0052612D02*
X0268724Y0052612D01*
X0269055Y0051814D02*
X0277270Y0051814D01*
X0277270Y0051015D02*
X0269270Y0051015D01*
X0269270Y0050217D02*
X0277270Y0050217D01*
X0277270Y0049418D02*
X0269151Y0049418D01*
X0268820Y0048620D02*
X0277270Y0048620D01*
X0277270Y0047821D02*
X0268248Y0047821D01*
X0267327Y0047023D02*
X0277270Y0047023D01*
X0277270Y0046224D02*
X0263210Y0046224D01*
X0263540Y0045426D02*
X0277270Y0045426D01*
X0277270Y0044627D02*
X0263570Y0044627D01*
X0263570Y0043829D02*
X0277270Y0043829D01*
X0277270Y0043030D02*
X0273277Y0043030D01*
X0274775Y0042232D02*
X0277270Y0042232D01*
X0277270Y0041433D02*
X0275574Y0041433D01*
X0276372Y0040634D02*
X0277270Y0040634D01*
X0277270Y0039836D02*
X0276957Y0039836D01*
X0277241Y0031851D02*
X0277270Y0031851D01*
X0277270Y0031052D02*
X0276910Y0031052D01*
X0277270Y0030254D02*
X0276260Y0030254D01*
X0275462Y0029455D02*
X0277270Y0029455D01*
X0277270Y0028657D02*
X0274663Y0028657D01*
X0273008Y0027858D02*
X0277270Y0027858D01*
X0277270Y0027060D02*
X0261570Y0027060D01*
X0261570Y0027858D02*
X0266531Y0027858D01*
X0264876Y0028657D02*
X0261570Y0028657D01*
X0261570Y0029455D02*
X0264077Y0029455D01*
X0263279Y0030254D02*
X0261570Y0030254D01*
X0261570Y0031052D02*
X0262629Y0031052D01*
X0262298Y0031851D02*
X0261570Y0031851D01*
X0261570Y0032649D02*
X0261967Y0032649D01*
X0261637Y0033448D02*
X0261570Y0033448D01*
X0263570Y0041433D02*
X0263966Y0041433D01*
X0263570Y0042232D02*
X0264764Y0042232D01*
X0263570Y0043030D02*
X0266262Y0043030D01*
X0261570Y0026261D02*
X0276995Y0026261D01*
X0276197Y0025463D02*
X0261570Y0025463D01*
X0261570Y0024664D02*
X0275398Y0024664D01*
X0274600Y0023866D02*
X0261570Y0023866D01*
X0261570Y0023067D02*
X0273801Y0023067D01*
X0273003Y0022269D02*
X0261570Y0022269D01*
X0261570Y0021470D02*
X0272204Y0021470D01*
X0271406Y0020672D02*
X0262786Y0020672D01*
X0263585Y0019873D02*
X0270607Y0019873D01*
X0269809Y0019075D02*
X0264064Y0019075D01*
X0264395Y0018276D02*
X0269010Y0018276D01*
X0268354Y0017619D02*
X0268354Y0017619D01*
X0268212Y0017478D02*
X0264570Y0017478D01*
X0264570Y0016679D02*
X0267552Y0016679D01*
X0267270Y0015881D02*
X0264570Y0015881D01*
X0264570Y0015082D02*
X0267270Y0015082D01*
X0267270Y0014284D02*
X0264570Y0014284D01*
X0264570Y0013485D02*
X0267270Y0013485D01*
X0267270Y0012687D02*
X0264380Y0012687D01*
X0264049Y0011888D02*
X0267270Y0011888D01*
X0267270Y0011090D02*
X0263547Y0011090D01*
X0262749Y0010291D02*
X0267270Y0010291D01*
X0267270Y0009493D02*
X0261189Y0009493D01*
X0258350Y0009493D02*
X0251189Y0009493D01*
X0252749Y0010291D02*
X0256790Y0010291D01*
X0255992Y0011090D02*
X0253547Y0011090D01*
X0254049Y0011888D02*
X0255490Y0011888D01*
X0255160Y0012687D02*
X0254380Y0012687D01*
X0254570Y0013485D02*
X0254970Y0013485D01*
X0254970Y0014284D02*
X0254570Y0014284D01*
X0254570Y0015082D02*
X0254970Y0015082D01*
X0254970Y0015881D02*
X0254570Y0015881D01*
X0254570Y0016679D02*
X0254970Y0016679D01*
X0254970Y0017478D02*
X0254570Y0017478D01*
X0254395Y0018276D02*
X0255144Y0018276D01*
X0255475Y0019075D02*
X0254064Y0019075D01*
X0255466Y0019873D02*
X0255955Y0019873D01*
X0245955Y0019873D02*
X0243585Y0019873D01*
X0244064Y0019075D02*
X0245475Y0019075D01*
X0245144Y0018276D02*
X0244395Y0018276D01*
X0244570Y0017478D02*
X0244970Y0017478D01*
X0244970Y0016679D02*
X0244570Y0016679D01*
X0244570Y0015881D02*
X0244970Y0015881D01*
X0244970Y0015082D02*
X0244570Y0015082D01*
X0244570Y0014284D02*
X0244970Y0014284D01*
X0244970Y0013485D02*
X0244570Y0013485D01*
X0244380Y0012687D02*
X0245160Y0012687D01*
X0245490Y0011888D02*
X0244049Y0011888D01*
X0243547Y0011090D02*
X0245992Y0011090D01*
X0246790Y0010291D02*
X0242749Y0010291D01*
X0241189Y0009493D02*
X0248350Y0009493D01*
X0245970Y0020672D02*
X0242786Y0020672D01*
X0241570Y0021470D02*
X0245970Y0021470D01*
X0267050Y0008694D02*
X0069701Y0008694D01*
X0070499Y0009493D02*
X0118350Y0009493D01*
X0116790Y0010291D02*
X0108665Y0010291D01*
X0110420Y0011090D02*
X0115992Y0011090D01*
X0115490Y0011888D02*
X0111219Y0011888D01*
X0111891Y0012687D02*
X0115160Y0012687D01*
X0114970Y0013485D02*
X0112222Y0013485D01*
X0112553Y0014284D02*
X0114970Y0014284D01*
X0114970Y0015082D02*
X0112616Y0015082D01*
X0113307Y0015881D02*
X0114970Y0015881D01*
X0114970Y0016679D02*
X0114106Y0016679D01*
X0114904Y0017478D02*
X0114970Y0017478D01*
X0110879Y0024766D02*
X0106959Y0020846D01*
X0106206Y0020846D01*
X0105770Y0020666D01*
X0105770Y0024406D01*
X0106420Y0025976D01*
X0106420Y0028024D01*
X0105636Y0029917D01*
X0104187Y0031366D01*
X0102294Y0032150D01*
X0100245Y0032150D01*
X0098352Y0031366D01*
X0096904Y0029917D01*
X0096120Y0028024D01*
X0096120Y0025976D01*
X0096904Y0024083D01*
X0097770Y0023217D01*
X0097770Y0019500D01*
X0090927Y0019500D01*
X0082927Y0027500D01*
X0083370Y0027500D01*
X0083370Y0031100D01*
X0084170Y0031100D01*
X0084170Y0031900D01*
X0087770Y0031900D01*
X0087770Y0033157D01*
X0085427Y0035500D01*
X0084170Y0035500D01*
X0084170Y0031900D01*
X0083370Y0031900D01*
X0083370Y0035500D01*
X0082113Y0035500D01*
X0079770Y0033157D01*
X0079770Y0031900D01*
X0083370Y0031900D01*
X0083370Y0031100D01*
X0079770Y0031100D01*
X0079770Y0030657D01*
X0076661Y0033766D01*
X0075770Y0034657D01*
X0075770Y0039796D01*
X0075161Y0041266D01*
X0063161Y0053266D01*
X0062035Y0054391D01*
X0060565Y0055000D01*
X0044927Y0055000D01*
X0043677Y0056250D01*
X0046770Y0056250D01*
X0046770Y0060200D01*
X0047570Y0060200D01*
X0047570Y0061000D01*
X0052520Y0061000D01*
X0052520Y0063734D01*
X0052424Y0064090D01*
X0052240Y0064410D01*
X0051979Y0064670D01*
X0051972Y0064674D01*
X0052898Y0065600D01*
X0057513Y0065600D01*
X0061770Y0061343D01*
X0061770Y0058204D01*
X0062379Y0056734D01*
X0063504Y0055609D01*
X0067004Y0052109D01*
X0068474Y0051500D01*
X0088613Y0051500D01*
X0093004Y0047109D01*
X0094474Y0046500D01*
X0097986Y0046500D01*
X0098352Y0046134D01*
X0100245Y0045350D01*
X0102294Y0045350D01*
X0104187Y0046134D01*
X0105636Y0047583D01*
X0106420Y0049476D01*
X0106420Y0051524D01*
X0105636Y0053417D01*
X0104187Y0054866D01*
X0102294Y0055650D01*
X0100245Y0055650D01*
X0098352Y0054866D01*
X0097986Y0054500D01*
X0096927Y0054500D01*
X0094270Y0057157D01*
X0094270Y0065796D01*
X0093661Y0067266D01*
X0090661Y0070266D01*
X0089535Y0071391D01*
X0088065Y0072000D01*
X0087846Y0072000D01*
X0088046Y0072200D01*
X0091610Y0072200D01*
X0098396Y0065414D01*
X0099072Y0064737D01*
X0096720Y0062385D01*
X0096720Y0060900D01*
X0100870Y0060900D01*
X0100870Y0060100D01*
X0101670Y0060100D01*
X0101670Y0055950D01*
X0103154Y0055950D01*
X0105820Y0058615D01*
X0105820Y0059700D01*
X0107970Y0059700D01*
X0107970Y0037943D01*
X0108396Y0036914D01*
X0109184Y0036126D01*
X0118810Y0026500D01*
X0113474Y0026500D01*
X0112004Y0025891D01*
X0110879Y0024766D01*
X0110777Y0024664D02*
X0105877Y0024664D01*
X0105770Y0023866D02*
X0109979Y0023866D01*
X0109180Y0023067D02*
X0105770Y0023067D01*
X0105770Y0022269D02*
X0108382Y0022269D01*
X0107583Y0021470D02*
X0105770Y0021470D01*
X0105770Y0020672D02*
X0105784Y0020672D01*
X0106207Y0025463D02*
X0111576Y0025463D01*
X0112898Y0026261D02*
X0106420Y0026261D01*
X0106420Y0027060D02*
X0118250Y0027060D01*
X0117452Y0027858D02*
X0106420Y0027858D01*
X0106158Y0028657D02*
X0116653Y0028657D01*
X0115855Y0029455D02*
X0105827Y0029455D01*
X0105299Y0030254D02*
X0115056Y0030254D01*
X0114258Y0031052D02*
X0104501Y0031052D01*
X0103016Y0031851D02*
X0113459Y0031851D01*
X0112660Y0032649D02*
X0103354Y0032649D01*
X0103154Y0032450D02*
X0105820Y0035115D01*
X0105820Y0036600D01*
X0101670Y0036600D01*
X0101670Y0037400D01*
X0105820Y0037400D01*
X0105820Y0038885D01*
X0103154Y0041550D01*
X0101670Y0041550D01*
X0101670Y0037400D01*
X0100870Y0037400D01*
X0100870Y0041550D01*
X0099385Y0041550D01*
X0096720Y0038885D01*
X0096720Y0037400D01*
X0100870Y0037400D01*
X0100870Y0036600D01*
X0101670Y0036600D01*
X0101670Y0032450D01*
X0103154Y0032450D01*
X0104152Y0033448D02*
X0111862Y0033448D01*
X0111063Y0034246D02*
X0104951Y0034246D01*
X0105749Y0035045D02*
X0110265Y0035045D01*
X0109466Y0035843D02*
X0105820Y0035843D01*
X0105820Y0037440D02*
X0108178Y0037440D01*
X0107970Y0038239D02*
X0105820Y0038239D01*
X0105667Y0039037D02*
X0107970Y0039037D01*
X0107970Y0039836D02*
X0104868Y0039836D01*
X0104070Y0040634D02*
X0107970Y0040634D01*
X0107970Y0041433D02*
X0103271Y0041433D01*
X0101670Y0041433D02*
X0100870Y0041433D01*
X0100870Y0040634D02*
X0101670Y0040634D01*
X0101670Y0039836D02*
X0100870Y0039836D01*
X0100870Y0039037D02*
X0101670Y0039037D01*
X0101670Y0038239D02*
X0100870Y0038239D01*
X0100870Y0037440D02*
X0101670Y0037440D01*
X0101670Y0036642D02*
X0108668Y0036642D01*
X0107970Y0042232D02*
X0074195Y0042232D01*
X0073396Y0043030D02*
X0107970Y0043030D01*
X0107970Y0043829D02*
X0072598Y0043829D01*
X0071799Y0044627D02*
X0107970Y0044627D01*
X0107970Y0045426D02*
X0102477Y0045426D01*
X0104277Y0046224D02*
X0107970Y0046224D01*
X0107970Y0047023D02*
X0105075Y0047023D01*
X0105734Y0047821D02*
X0107970Y0047821D01*
X0107970Y0048620D02*
X0106065Y0048620D01*
X0106396Y0049418D02*
X0107970Y0049418D01*
X0107970Y0050217D02*
X0106420Y0050217D01*
X0106420Y0051015D02*
X0107970Y0051015D01*
X0107970Y0051814D02*
X0106300Y0051814D01*
X0105969Y0052612D02*
X0107970Y0052612D01*
X0107970Y0053411D02*
X0105638Y0053411D01*
X0104844Y0054209D02*
X0107970Y0054209D01*
X0107970Y0055008D02*
X0103845Y0055008D01*
X0103809Y0056605D02*
X0107970Y0056605D01*
X0107970Y0057403D02*
X0104608Y0057403D01*
X0105406Y0058202D02*
X0107970Y0058202D01*
X0107970Y0059000D02*
X0105820Y0059000D01*
X0107970Y0055806D02*
X0095620Y0055806D01*
X0094822Y0056605D02*
X0098730Y0056605D01*
X0099385Y0055950D02*
X0100870Y0055950D01*
X0100870Y0060100D01*
X0096720Y0060100D01*
X0096720Y0058615D01*
X0099385Y0055950D01*
X0098695Y0055008D02*
X0096419Y0055008D01*
X0097932Y0057403D02*
X0094270Y0057403D01*
X0094270Y0058202D02*
X0097133Y0058202D01*
X0096720Y0059000D02*
X0094270Y0059000D01*
X0094270Y0059799D02*
X0096720Y0059799D01*
X0096720Y0061396D02*
X0094270Y0061396D01*
X0094270Y0062194D02*
X0096720Y0062194D01*
X0097328Y0062993D02*
X0094270Y0062993D01*
X0094270Y0063791D02*
X0098126Y0063791D01*
X0098925Y0064590D02*
X0094270Y0064590D01*
X0094270Y0065388D02*
X0098422Y0065388D01*
X0097623Y0066187D02*
X0094108Y0066187D01*
X0093777Y0066985D02*
X0096825Y0066985D01*
X0096026Y0067784D02*
X0093143Y0067784D01*
X0092344Y0068582D02*
X0095227Y0068582D01*
X0094429Y0069381D02*
X0091546Y0069381D01*
X0090747Y0070179D02*
X0093630Y0070179D01*
X0092832Y0070978D02*
X0089949Y0070978D01*
X0088605Y0071776D02*
X0092033Y0071776D01*
X0095960Y0075769D02*
X0096428Y0075769D01*
X0096291Y0075438D02*
X0096904Y0076917D01*
X0098352Y0078366D01*
X0100245Y0079150D01*
X0102294Y0079150D01*
X0104187Y0078366D01*
X0104970Y0077583D01*
X0104970Y0081265D01*
X0103154Y0079450D01*
X0101670Y0079450D01*
X0101670Y0083600D01*
X0100870Y0083600D01*
X0100870Y0079450D01*
X0099385Y0079450D01*
X0096720Y0082115D01*
X0096720Y0083600D01*
X0100870Y0083600D01*
X0100870Y0084400D01*
X0100870Y0088550D01*
X0099385Y0088550D01*
X0096720Y0085885D01*
X0096720Y0084400D01*
X0100870Y0084400D01*
X0101670Y0084400D01*
X0101670Y0088550D01*
X0103154Y0088550D01*
X0105757Y0085947D01*
X0106184Y0086374D01*
X0106970Y0087160D01*
X0106970Y0108557D01*
X0107396Y0109586D01*
X0109970Y0112160D01*
X0109970Y0112695D01*
X0109175Y0111900D01*
X0105364Y0111900D01*
X0102670Y0114595D01*
X0102670Y0118405D01*
X0105364Y0121100D01*
X0109175Y0121100D01*
X0110335Y0119940D01*
X0110396Y0120086D01*
X0113396Y0123086D01*
X0114184Y0123874D01*
X0115213Y0124300D01*
X0116944Y0124300D01*
X0116557Y0124687D01*
X0116157Y0125653D01*
X0113610Y0128200D01*
X0101520Y0128200D01*
X0101520Y0122061D01*
X0100835Y0121377D01*
X0100643Y0120914D01*
X0097856Y0118126D01*
X0096827Y0117700D01*
X0079729Y0117700D01*
X0076770Y0114740D01*
X0076770Y0112429D01*
X0075569Y0111229D01*
X0075720Y0111078D01*
X0075720Y0105922D01*
X0074548Y0104750D01*
X0069791Y0104750D01*
X0068620Y0105922D01*
X0068620Y0110579D01*
X0066770Y0112429D01*
X0066770Y0116571D01*
X0069699Y0119500D01*
X0073610Y0119500D01*
X0075000Y0120890D01*
X0071191Y0120890D01*
X0070770Y0121311D01*
X0070348Y0120890D01*
X0066191Y0120890D01*
X0065770Y0121311D01*
X0065348Y0120890D01*
X0061191Y0120890D01*
X0060020Y0122061D01*
X0060020Y0129718D01*
X0061191Y0130890D01*
X0065348Y0130890D01*
X0065770Y0130468D01*
X0066191Y0130890D01*
X0070348Y0130890D01*
X0070770Y0130468D01*
X0071191Y0130890D01*
X0075348Y0130890D01*
X0075770Y0130468D01*
X0076191Y0130890D01*
X0080348Y0130890D01*
X0080678Y0130560D01*
X0080896Y0131086D01*
X0081684Y0131874D01*
X0083184Y0133374D01*
X0084213Y0133800D01*
X0115327Y0133800D01*
X0116356Y0133374D01*
X0117143Y0132586D01*
X0117143Y0132586D01*
X0120117Y0129613D01*
X0121082Y0129213D01*
X0121470Y0128825D01*
X0121470Y0143695D01*
X0119675Y0141900D01*
X0115864Y0141900D01*
X0113170Y0144595D01*
X0113170Y0147140D01*
X0112110Y0148200D01*
X0111870Y0148200D01*
X0111870Y0144595D01*
X0110070Y0142795D01*
X0110070Y0141943D01*
X0109643Y0140914D01*
X0108856Y0140126D01*
X0104356Y0135626D01*
X0103327Y0135200D01*
X0092213Y0135200D01*
X0091184Y0135626D01*
X0090396Y0136414D01*
X0085896Y0140914D01*
X0085470Y0141943D01*
X0085470Y0142232D01*
X0085348Y0142110D01*
X0081191Y0142110D01*
X0080861Y0142440D01*
X0080643Y0141914D01*
X0079856Y0141126D01*
X0074856Y0136126D01*
X0073827Y0135700D01*
X0059213Y0135700D01*
X0058184Y0136126D01*
X0057396Y0136914D01*
X0054396Y0139914D01*
X0053970Y0140943D01*
X0053970Y0147340D01*
X0051270Y0150040D01*
X0051270Y0146659D01*
X0051683Y0146246D01*
X0051683Y0136715D01*
X0051270Y0136302D01*
X0051270Y0134500D01*
X0012270Y0134500D01*
X0012270Y0009437D01*
X0012297Y0009157D01*
X0012512Y0008639D01*
X0012908Y0008242D01*
X0013426Y0008028D01*
X0013707Y0008000D01*
X0061189Y0008000D01*
X0060069Y0008464D01*
X0057734Y0010799D01*
X0056470Y0013849D01*
X0056470Y0017151D01*
X0057734Y0020201D01*
X0060069Y0022536D01*
X0063119Y0023799D01*
X0065314Y0023799D01*
X0058630Y0030483D01*
X0057463Y0030000D01*
X0055076Y0030000D01*
X0052871Y0030913D01*
X0051183Y0032601D01*
X0050270Y0034807D01*
X0050270Y0041193D01*
X0051183Y0043399D01*
X0052871Y0045087D01*
X0055076Y0046000D01*
X0057463Y0046000D01*
X0059668Y0045087D01*
X0061356Y0043399D01*
X0062270Y0041193D01*
X0062270Y0038157D01*
X0067170Y0033257D01*
X0067170Y0033405D01*
X0067770Y0034005D01*
X0067770Y0037343D01*
X0058113Y0047000D01*
X0042474Y0047000D01*
X0041004Y0047609D01*
X0036504Y0052109D01*
X0035379Y0053234D01*
X0034770Y0054704D01*
X0034770Y0076796D01*
X0035379Y0078266D01*
X0037879Y0080766D01*
X0039004Y0081891D01*
X0040219Y0082394D01*
X0039379Y0083234D01*
X0035879Y0086734D01*
X0035270Y0088204D01*
X0035270Y0120296D01*
X0035879Y0121766D01*
X0037004Y0122891D01*
X0041104Y0126991D01*
X0041220Y0127039D01*
X0041220Y0127378D01*
X0042391Y0128550D01*
X0051948Y0128550D01*
X0053120Y0127378D01*
X0053120Y0119822D01*
X0052398Y0119100D01*
X0052898Y0118600D01*
X0053965Y0118600D01*
X0054207Y0118500D01*
X0058065Y0118500D01*
X0059535Y0117891D01*
X0060661Y0116766D01*
X0061270Y0115296D01*
X0061270Y0113704D01*
X0060661Y0112234D01*
X0059535Y0111109D01*
X0058070Y0110502D01*
X0058070Y0099871D01*
X0060699Y0102500D01*
X0064820Y0102500D01*
X0064820Y0103078D01*
X0065991Y0104250D01*
X0070748Y0104250D01*
X0071920Y0103078D01*
X0071920Y0097922D01*
X0070748Y0096750D01*
X0068579Y0096750D01*
X0067770Y0095940D01*
X0067770Y0095429D01*
X0065570Y0093229D01*
X0065570Y0093181D01*
X0067193Y0093181D01*
X0068364Y0092010D01*
X0068364Y0087990D01*
X0067874Y0087500D01*
X0068364Y0087010D01*
X0068364Y0082990D01*
X0067874Y0082500D01*
X0068364Y0082010D01*
X0068364Y0081865D01*
X0070270Y0079960D01*
X0070270Y0093296D01*
X0070879Y0094766D01*
X0073227Y0097114D01*
X0072420Y0097922D01*
X0072420Y0103078D01*
X0073591Y0104250D01*
X0078348Y0104250D01*
X0079520Y0103078D01*
X0079520Y0102321D01*
X0079699Y0102500D01*
X0082810Y0102500D01*
X0086170Y0105860D01*
X0086170Y0107905D01*
X0088864Y0110600D01*
X0092675Y0110600D01*
X0095370Y0107905D01*
X0095370Y0104095D01*
X0092675Y0101400D01*
X0089629Y0101400D01*
X0086770Y0098540D01*
X0086770Y0098005D01*
X0088864Y0100100D01*
X0092675Y0100100D01*
X0095370Y0097405D01*
X0095370Y0093595D01*
X0093570Y0091795D01*
X0093570Y0086943D01*
X0093143Y0085914D01*
X0091070Y0083840D01*
X0091070Y0079943D01*
X0090643Y0078914D01*
X0089856Y0078126D01*
X0089529Y0077800D01*
X0093327Y0077800D01*
X0094356Y0077374D01*
X0096291Y0075438D01*
X0096759Y0076568D02*
X0095162Y0076568D01*
X0094363Y0077366D02*
X0097353Y0077366D01*
X0098151Y0078165D02*
X0089894Y0078165D01*
X0090664Y0078963D02*
X0099794Y0078963D01*
X0099073Y0079762D02*
X0090994Y0079762D01*
X0091070Y0080560D02*
X0098275Y0080560D01*
X0097476Y0081359D02*
X0091070Y0081359D01*
X0091070Y0082157D02*
X0096720Y0082157D01*
X0096720Y0082956D02*
X0091070Y0082956D01*
X0091070Y0083754D02*
X0100870Y0083754D01*
X0100870Y0082956D02*
X0101670Y0082956D01*
X0101670Y0082157D02*
X0100870Y0082157D01*
X0100870Y0081359D02*
X0101670Y0081359D01*
X0101670Y0080560D02*
X0100870Y0080560D01*
X0100870Y0079762D02*
X0101670Y0079762D01*
X0102745Y0078963D02*
X0104970Y0078963D01*
X0104970Y0078165D02*
X0104388Y0078165D01*
X0104970Y0079762D02*
X0103466Y0079762D01*
X0104264Y0080560D02*
X0104970Y0080560D01*
X0101670Y0084553D02*
X0100870Y0084553D01*
X0100870Y0085351D02*
X0101670Y0085351D01*
X0101670Y0086150D02*
X0100870Y0086150D01*
X0100870Y0086948D02*
X0101670Y0086948D01*
X0101670Y0087747D02*
X0100870Y0087747D01*
X0100870Y0088545D02*
X0101670Y0088545D01*
X0103159Y0088545D02*
X0106970Y0088545D01*
X0106970Y0087747D02*
X0103958Y0087747D01*
X0104756Y0086948D02*
X0106758Y0086948D01*
X0105960Y0086150D02*
X0105555Y0086150D01*
X0106970Y0089344D02*
X0093570Y0089344D01*
X0093570Y0090142D02*
X0106970Y0090142D01*
X0106970Y0090941D02*
X0093570Y0090941D01*
X0093570Y0091739D02*
X0106970Y0091739D01*
X0106970Y0092538D02*
X0094313Y0092538D01*
X0095111Y0093336D02*
X0106970Y0093336D01*
X0106970Y0094135D02*
X0095370Y0094135D01*
X0095370Y0094933D02*
X0106970Y0094933D01*
X0106970Y0095732D02*
X0095370Y0095732D01*
X0095370Y0096530D02*
X0106970Y0096530D01*
X0106970Y0097329D02*
X0095370Y0097329D01*
X0094648Y0098127D02*
X0106970Y0098127D01*
X0106970Y0098926D02*
X0093849Y0098926D01*
X0093051Y0099724D02*
X0106970Y0099724D01*
X0106970Y0100523D02*
X0088752Y0100523D01*
X0088489Y0099724D02*
X0087954Y0099724D01*
X0087690Y0098926D02*
X0087155Y0098926D01*
X0086892Y0098127D02*
X0086770Y0098127D01*
X0089551Y0101321D02*
X0106970Y0101321D01*
X0106970Y0102120D02*
X0093395Y0102120D01*
X0094193Y0102918D02*
X0106970Y0102918D01*
X0106970Y0103717D02*
X0094992Y0103717D01*
X0095370Y0104515D02*
X0106970Y0104515D01*
X0106970Y0105314D02*
X0095370Y0105314D01*
X0095370Y0106112D02*
X0106970Y0106112D01*
X0106970Y0106911D02*
X0095370Y0106911D01*
X0095370Y0107709D02*
X0106970Y0107709D01*
X0106970Y0108508D02*
X0094767Y0108508D01*
X0093969Y0109306D02*
X0107280Y0109306D01*
X0107915Y0110105D02*
X0093170Y0110105D01*
X0088369Y0110105D02*
X0075720Y0110105D01*
X0075720Y0110903D02*
X0108713Y0110903D01*
X0109512Y0111702D02*
X0076043Y0111702D01*
X0076770Y0112501D02*
X0104764Y0112501D01*
X0103965Y0113299D02*
X0076770Y0113299D01*
X0076770Y0114098D02*
X0103167Y0114098D01*
X0102670Y0114896D02*
X0076926Y0114896D01*
X0077724Y0115695D02*
X0102670Y0115695D01*
X0102670Y0116493D02*
X0078523Y0116493D01*
X0079321Y0117292D02*
X0102670Y0117292D01*
X0102670Y0118090D02*
X0097768Y0118090D01*
X0098618Y0118889D02*
X0103153Y0118889D01*
X0103951Y0119687D02*
X0099417Y0119687D01*
X0100215Y0120486D02*
X0104750Y0120486D01*
X0101520Y0122083D02*
X0112393Y0122083D01*
X0113191Y0122881D02*
X0101520Y0122881D01*
X0101520Y0123680D02*
X0113990Y0123680D01*
X0116313Y0125277D02*
X0101520Y0125277D01*
X0101520Y0126075D02*
X0115735Y0126075D01*
X0114936Y0126874D02*
X0101520Y0126874D01*
X0101520Y0127672D02*
X0114138Y0127672D01*
X0116766Y0124478D02*
X0101520Y0124478D01*
X0100797Y0121284D02*
X0111594Y0121284D01*
X0110796Y0120486D02*
X0109789Y0120486D01*
X0109776Y0112501D02*
X0109970Y0112501D01*
X0128670Y0107900D02*
X0132270Y0107900D01*
X0132270Y0109029D01*
X0132356Y0108954D01*
X0132684Y0108626D01*
X0132773Y0108589D01*
X0133670Y0107804D01*
X0133670Y0105595D01*
X0134964Y0104300D01*
X0130727Y0104300D01*
X0132270Y0105843D01*
X0132270Y0107100D01*
X0128670Y0107100D01*
X0128670Y0107900D01*
X0128670Y0107709D02*
X0133670Y0107709D01*
X0133670Y0106911D02*
X0132270Y0106911D01*
X0132270Y0106112D02*
X0133670Y0106112D01*
X0133950Y0105314D02*
X0131740Y0105314D01*
X0130942Y0104515D02*
X0134749Y0104515D01*
X0132866Y0108508D02*
X0132270Y0108508D01*
X0156573Y0089344D02*
X0189970Y0089344D01*
X0189970Y0090142D02*
X0157372Y0090142D01*
X0158170Y0090941D02*
X0189970Y0090941D01*
X0189970Y0091739D02*
X0158969Y0091739D01*
X0159767Y0092538D02*
X0189970Y0092538D01*
X0189970Y0093336D02*
X0160566Y0093336D01*
X0161356Y0094126D02*
X0162143Y0094914D01*
X0162566Y0095934D01*
X0163855Y0095400D01*
X0165685Y0095400D01*
X0167375Y0096100D01*
X0168669Y0097394D01*
X0169370Y0099085D01*
X0169370Y0100915D01*
X0168669Y0102606D01*
X0167375Y0103900D01*
X0165685Y0104600D01*
X0163855Y0104600D01*
X0162570Y0104068D01*
X0162570Y0105340D01*
X0171429Y0114200D01*
X0181327Y0114200D01*
X0182356Y0114626D01*
X0187143Y0119414D01*
X0187491Y0120252D01*
X0191562Y0120252D01*
X0191184Y0119874D01*
X0191184Y0119874D01*
X0190396Y0119086D01*
X0189970Y0118057D01*
X0189970Y0087160D01*
X0187770Y0084960D01*
X0187770Y0085657D01*
X0185427Y0088000D01*
X0184170Y0088000D01*
X0184170Y0084400D01*
X0183370Y0084400D01*
X0183370Y0088000D01*
X0182113Y0088000D01*
X0179770Y0085657D01*
X0179770Y0084400D01*
X0183370Y0084400D01*
X0183370Y0083600D01*
X0179770Y0083600D01*
X0179770Y0082343D01*
X0180313Y0081800D01*
X0177727Y0081800D01*
X0178270Y0082343D01*
X0178270Y0083600D01*
X0174670Y0083600D01*
X0174670Y0084400D01*
X0178270Y0084400D01*
X0178270Y0085657D01*
X0175927Y0088000D01*
X0174670Y0088000D01*
X0174670Y0084400D01*
X0173870Y0084400D01*
X0173870Y0088000D01*
X0172613Y0088000D01*
X0170270Y0085657D01*
X0170270Y0084400D01*
X0173870Y0084400D01*
X0173870Y0083600D01*
X0170270Y0083600D01*
X0170270Y0082343D01*
X0170813Y0081800D01*
X0158575Y0081800D01*
X0158870Y0082095D01*
X0158870Y0085905D01*
X0156175Y0088600D01*
X0155829Y0088600D01*
X0161356Y0094126D01*
X0161364Y0094135D02*
X0189970Y0094135D01*
X0189970Y0094933D02*
X0162151Y0094933D01*
X0162482Y0095732D02*
X0163054Y0095732D01*
X0166486Y0095732D02*
X0182054Y0095732D01*
X0182855Y0095400D02*
X0181164Y0096100D01*
X0179870Y0097394D01*
X0179170Y0099085D01*
X0179170Y0100915D01*
X0179870Y0102606D01*
X0181164Y0103900D01*
X0182855Y0104600D01*
X0184685Y0104600D01*
X0186375Y0103900D01*
X0187669Y0102606D01*
X0188370Y0100915D01*
X0188370Y0099085D01*
X0187669Y0097394D01*
X0186375Y0096100D01*
X0184685Y0095400D01*
X0182855Y0095400D01*
X0180734Y0096530D02*
X0167805Y0096530D01*
X0168604Y0097329D02*
X0179935Y0097329D01*
X0179566Y0098127D02*
X0168973Y0098127D01*
X0169304Y0098926D02*
X0179236Y0098926D01*
X0179170Y0099724D02*
X0169370Y0099724D01*
X0169370Y0100523D02*
X0179170Y0100523D01*
X0179338Y0101321D02*
X0169201Y0101321D01*
X0168871Y0102120D02*
X0179669Y0102120D01*
X0180183Y0102918D02*
X0168357Y0102918D01*
X0167558Y0103717D02*
X0180981Y0103717D01*
X0182650Y0104515D02*
X0165889Y0104515D01*
X0163650Y0104515D02*
X0162570Y0104515D01*
X0162570Y0105314D02*
X0189970Y0105314D01*
X0189970Y0106112D02*
X0163342Y0106112D01*
X0164140Y0106911D02*
X0189970Y0106911D01*
X0189970Y0107709D02*
X0164939Y0107709D01*
X0165737Y0108508D02*
X0189970Y0108508D01*
X0189970Y0109306D02*
X0166536Y0109306D01*
X0167334Y0110105D02*
X0189970Y0110105D01*
X0189970Y0110903D02*
X0168133Y0110903D01*
X0168931Y0111702D02*
X0189970Y0111702D01*
X0189970Y0112501D02*
X0169730Y0112501D01*
X0170529Y0113299D02*
X0189970Y0113299D01*
X0189970Y0114098D02*
X0171327Y0114098D01*
X0182626Y0114896D02*
X0189970Y0114896D01*
X0189970Y0115695D02*
X0183424Y0115695D01*
X0184223Y0116493D02*
X0189970Y0116493D01*
X0189970Y0117292D02*
X0185021Y0117292D01*
X0185820Y0118090D02*
X0189983Y0118090D01*
X0190314Y0118889D02*
X0186618Y0118889D01*
X0187257Y0119687D02*
X0190997Y0119687D01*
X0199570Y0110195D02*
X0201864Y0107900D01*
X0205675Y0107900D01*
X0205970Y0108195D01*
X0205970Y0095957D01*
X0205427Y0096500D01*
X0204170Y0096500D01*
X0204170Y0092900D01*
X0203370Y0092900D01*
X0203370Y0096500D01*
X0202113Y0096500D01*
X0199770Y0094157D01*
X0199770Y0092900D01*
X0203370Y0092900D01*
X0203370Y0092100D01*
X0199770Y0092100D01*
X0199770Y0090843D01*
X0202013Y0088600D01*
X0201864Y0088600D01*
X0199570Y0086305D01*
X0199570Y0110195D01*
X0199570Y0110105D02*
X0199659Y0110105D01*
X0199570Y0109306D02*
X0200458Y0109306D01*
X0201256Y0108508D02*
X0199570Y0108508D01*
X0199570Y0107709D02*
X0205970Y0107709D01*
X0205970Y0106911D02*
X0199570Y0106911D01*
X0199570Y0106112D02*
X0205970Y0106112D01*
X0205970Y0105314D02*
X0199570Y0105314D01*
X0199570Y0104515D02*
X0205970Y0104515D01*
X0205970Y0103717D02*
X0199570Y0103717D01*
X0199570Y0102918D02*
X0205970Y0102918D01*
X0205970Y0102120D02*
X0199570Y0102120D01*
X0199570Y0101321D02*
X0205970Y0101321D01*
X0205970Y0100523D02*
X0199570Y0100523D01*
X0199570Y0099724D02*
X0205970Y0099724D01*
X0205970Y0098926D02*
X0199570Y0098926D01*
X0199570Y0098127D02*
X0205970Y0098127D01*
X0205970Y0097329D02*
X0199570Y0097329D01*
X0199570Y0096530D02*
X0205970Y0096530D01*
X0204170Y0095732D02*
X0203370Y0095732D01*
X0203370Y0094933D02*
X0204170Y0094933D01*
X0204170Y0094135D02*
X0203370Y0094135D01*
X0203370Y0093336D02*
X0204170Y0093336D01*
X0203370Y0092538D02*
X0199570Y0092538D01*
X0199570Y0093336D02*
X0199770Y0093336D01*
X0199770Y0094135D02*
X0199570Y0094135D01*
X0199570Y0094933D02*
X0200546Y0094933D01*
X0201345Y0095732D02*
X0199570Y0095732D01*
X0199570Y0091739D02*
X0199770Y0091739D01*
X0199770Y0090941D02*
X0199570Y0090941D01*
X0199570Y0090142D02*
X0200471Y0090142D01*
X0201269Y0089344D02*
X0199570Y0089344D01*
X0199570Y0088545D02*
X0201809Y0088545D01*
X0201011Y0087747D02*
X0199570Y0087747D01*
X0199570Y0086948D02*
X0200212Y0086948D01*
X0189970Y0087747D02*
X0185680Y0087747D01*
X0186478Y0086948D02*
X0189758Y0086948D01*
X0188960Y0086150D02*
X0187277Y0086150D01*
X0187770Y0085351D02*
X0188161Y0085351D01*
X0189970Y0088545D02*
X0156230Y0088545D01*
X0157028Y0087747D02*
X0172360Y0087747D01*
X0171561Y0086948D02*
X0157827Y0086948D01*
X0158625Y0086150D02*
X0170762Y0086150D01*
X0170270Y0085351D02*
X0158870Y0085351D01*
X0158870Y0084553D02*
X0170270Y0084553D01*
X0170270Y0082956D02*
X0158870Y0082956D01*
X0158870Y0083754D02*
X0173870Y0083754D01*
X0173870Y0084553D02*
X0174670Y0084553D01*
X0174670Y0085351D02*
X0173870Y0085351D01*
X0173870Y0086150D02*
X0174670Y0086150D01*
X0174670Y0086948D02*
X0173870Y0086948D01*
X0173870Y0087747D02*
X0174670Y0087747D01*
X0176180Y0087747D02*
X0181860Y0087747D01*
X0181061Y0086948D02*
X0176978Y0086948D01*
X0177777Y0086150D02*
X0180262Y0086150D01*
X0179770Y0085351D02*
X0178270Y0085351D01*
X0178270Y0084553D02*
X0179770Y0084553D01*
X0179770Y0082956D02*
X0178270Y0082956D01*
X0178084Y0082157D02*
X0179956Y0082157D01*
X0183370Y0083754D02*
X0174670Y0083754D01*
X0170456Y0082157D02*
X0158870Y0082157D01*
X0183370Y0084553D02*
X0184170Y0084553D01*
X0184170Y0085351D02*
X0183370Y0085351D01*
X0183370Y0086150D02*
X0184170Y0086150D01*
X0184170Y0086948D02*
X0183370Y0086948D01*
X0183370Y0087747D02*
X0184170Y0087747D01*
X0185486Y0095732D02*
X0189970Y0095732D01*
X0189970Y0096530D02*
X0186805Y0096530D01*
X0187604Y0097329D02*
X0189970Y0097329D01*
X0189970Y0098127D02*
X0187973Y0098127D01*
X0188304Y0098926D02*
X0189970Y0098926D01*
X0189970Y0099724D02*
X0188370Y0099724D01*
X0188370Y0100523D02*
X0189970Y0100523D01*
X0189970Y0101321D02*
X0188201Y0101321D01*
X0187871Y0102120D02*
X0189970Y0102120D01*
X0189970Y0102918D02*
X0187357Y0102918D01*
X0186558Y0103717D02*
X0189970Y0103717D01*
X0189970Y0104515D02*
X0184889Y0104515D01*
X0211570Y0104515D02*
X0221970Y0104515D01*
X0221970Y0103717D02*
X0211570Y0103717D01*
X0211570Y0102918D02*
X0221970Y0102918D01*
X0221970Y0102120D02*
X0211570Y0102120D01*
X0211570Y0101321D02*
X0221970Y0101321D01*
X0221970Y0100523D02*
X0211570Y0100523D01*
X0211570Y0099724D02*
X0221970Y0099724D01*
X0221970Y0098926D02*
X0211570Y0098926D01*
X0211570Y0098127D02*
X0221970Y0098127D01*
X0221970Y0097329D02*
X0211570Y0097329D01*
X0211570Y0096530D02*
X0221970Y0096530D01*
X0221970Y0095732D02*
X0211570Y0095732D01*
X0211570Y0094933D02*
X0221970Y0094933D01*
X0221970Y0094135D02*
X0211570Y0094135D01*
X0211570Y0093336D02*
X0221970Y0093336D01*
X0221970Y0092538D02*
X0211570Y0092538D01*
X0211570Y0091739D02*
X0221970Y0091739D01*
X0221970Y0090941D02*
X0211570Y0090941D01*
X0211570Y0090142D02*
X0221970Y0090142D01*
X0221970Y0089344D02*
X0211570Y0089344D01*
X0211570Y0088545D02*
X0221970Y0088545D01*
X0221970Y0087747D02*
X0217680Y0087747D01*
X0217427Y0088000D02*
X0216170Y0088000D01*
X0216170Y0084400D01*
X0219770Y0084400D01*
X0219770Y0085657D01*
X0217427Y0088000D01*
X0216170Y0087747D02*
X0215370Y0087747D01*
X0215370Y0088000D02*
X0214113Y0088000D01*
X0211770Y0085657D01*
X0211770Y0084400D01*
X0215370Y0084400D01*
X0215370Y0088000D01*
X0215370Y0086948D02*
X0216170Y0086948D01*
X0216170Y0086150D02*
X0215370Y0086150D01*
X0215370Y0085351D02*
X0216170Y0085351D01*
X0216170Y0084553D02*
X0215370Y0084553D01*
X0215370Y0084400D02*
X0216170Y0084400D01*
X0216170Y0083600D01*
X0219770Y0083600D01*
X0219770Y0082343D01*
X0217427Y0080000D01*
X0216170Y0080000D01*
X0216170Y0083600D01*
X0215370Y0083600D01*
X0215370Y0080000D01*
X0214113Y0080000D01*
X0211770Y0082343D01*
X0211770Y0083600D01*
X0215370Y0083600D01*
X0215370Y0084400D01*
X0215370Y0083754D02*
X0211570Y0083754D01*
X0211570Y0082956D02*
X0211770Y0082956D01*
X0211956Y0082157D02*
X0211570Y0082157D01*
X0211570Y0081359D02*
X0212754Y0081359D01*
X0213553Y0080560D02*
X0211570Y0080560D01*
X0211570Y0079762D02*
X0221571Y0079762D01*
X0221970Y0080160D02*
X0220633Y0078823D01*
X0219724Y0079200D01*
X0217815Y0079200D01*
X0216051Y0078469D01*
X0214700Y0077119D01*
X0213970Y0075355D01*
X0213970Y0070645D01*
X0214527Y0069300D01*
X0213012Y0069300D01*
X0213570Y0070645D01*
X0213570Y0075355D01*
X0212839Y0077119D01*
X0211570Y0078388D01*
X0211570Y0111695D01*
X0213864Y0109400D01*
X0217675Y0109400D01*
X0219520Y0111245D01*
X0221364Y0109400D01*
X0222112Y0109400D01*
X0221970Y0109057D01*
X0221970Y0080160D01*
X0221970Y0080560D02*
X0217987Y0080560D01*
X0218785Y0081359D02*
X0221970Y0081359D01*
X0221970Y0082157D02*
X0219584Y0082157D01*
X0219770Y0082956D02*
X0221970Y0082956D01*
X0221970Y0083754D02*
X0216170Y0083754D01*
X0216170Y0082956D02*
X0215370Y0082956D01*
X0215370Y0082157D02*
X0216170Y0082157D01*
X0216170Y0081359D02*
X0215370Y0081359D01*
X0215370Y0080560D02*
X0216170Y0080560D01*
X0217243Y0078963D02*
X0211570Y0078963D01*
X0211793Y0078165D02*
X0215746Y0078165D01*
X0214947Y0077366D02*
X0212592Y0077366D01*
X0213067Y0076568D02*
X0214472Y0076568D01*
X0214141Y0075769D02*
X0213398Y0075769D01*
X0213570Y0074970D02*
X0213970Y0074970D01*
X0213970Y0074172D02*
X0213570Y0074172D01*
X0213570Y0073373D02*
X0213970Y0073373D01*
X0213970Y0072575D02*
X0213570Y0072575D01*
X0213570Y0071776D02*
X0213970Y0071776D01*
X0213970Y0070978D02*
X0213570Y0070978D01*
X0213377Y0070179D02*
X0214163Y0070179D01*
X0214493Y0069381D02*
X0213046Y0069381D01*
X0220296Y0078963D02*
X0220773Y0078963D01*
X0219770Y0084553D02*
X0221970Y0084553D01*
X0221970Y0085351D02*
X0219770Y0085351D01*
X0219277Y0086150D02*
X0221970Y0086150D01*
X0221970Y0086948D02*
X0218478Y0086948D01*
X0213860Y0087747D02*
X0211570Y0087747D01*
X0211570Y0086948D02*
X0213061Y0086948D01*
X0212262Y0086150D02*
X0211570Y0086150D01*
X0211570Y0085351D02*
X0211770Y0085351D01*
X0211770Y0084553D02*
X0211570Y0084553D01*
X0189170Y0078440D02*
X0189170Y0073400D01*
X0188370Y0073400D01*
X0188370Y0077640D01*
X0189170Y0078440D01*
X0189170Y0078165D02*
X0188894Y0078165D01*
X0189170Y0077366D02*
X0188370Y0077366D01*
X0188370Y0076568D02*
X0189170Y0076568D01*
X0189170Y0075769D02*
X0188370Y0075769D01*
X0188370Y0074970D02*
X0189170Y0074970D01*
X0189170Y0074172D02*
X0188370Y0074172D01*
X0188370Y0073400D02*
X0188370Y0072600D01*
X0184570Y0072600D01*
X0184570Y0071269D01*
X0184673Y0070616D01*
X0184877Y0069988D01*
X0185178Y0069399D01*
X0185249Y0069300D01*
X0183012Y0069300D01*
X0183570Y0070645D01*
X0183570Y0075355D01*
X0183220Y0076200D01*
X0184973Y0076200D01*
X0184877Y0076012D01*
X0184673Y0075384D01*
X0184570Y0074731D01*
X0184570Y0073400D01*
X0188370Y0073400D01*
X0188370Y0073373D02*
X0183570Y0073373D01*
X0183570Y0072575D02*
X0184570Y0072575D01*
X0184570Y0071776D02*
X0183570Y0071776D01*
X0183570Y0070978D02*
X0184616Y0070978D01*
X0184815Y0070179D02*
X0183377Y0070179D01*
X0183046Y0069381D02*
X0185190Y0069381D01*
X0184570Y0074172D02*
X0183570Y0074172D01*
X0183570Y0074970D02*
X0184608Y0074970D01*
X0184798Y0075769D02*
X0183398Y0075769D01*
X0181126Y0048620D02*
X0186414Y0048620D01*
X0185403Y0047821D02*
X0182137Y0047821D01*
X0182879Y0047023D02*
X0184661Y0047023D01*
X0184330Y0046224D02*
X0183210Y0046224D01*
X0183540Y0045426D02*
X0183999Y0045426D01*
X0183970Y0044627D02*
X0183570Y0044627D01*
X0183570Y0043829D02*
X0183970Y0043829D01*
X0183970Y0043030D02*
X0183570Y0043030D01*
X0183570Y0042232D02*
X0183970Y0042232D01*
X0183970Y0041433D02*
X0183570Y0041433D01*
X0183565Y0040634D02*
X0183974Y0040634D01*
X0184305Y0039836D02*
X0183234Y0039836D01*
X0182904Y0039037D02*
X0184636Y0039037D01*
X0185342Y0038239D02*
X0182197Y0038239D01*
X0181746Y0037440D02*
X0186269Y0037440D01*
X0186770Y0036642D02*
X0181068Y0036642D01*
X0180456Y0035843D02*
X0180270Y0035843D01*
X0179658Y0035045D02*
X0179471Y0035045D01*
X0178859Y0034246D02*
X0178673Y0034246D01*
X0178770Y0033448D02*
X0177874Y0033448D01*
X0177076Y0032649D02*
X0182370Y0032649D01*
X0182370Y0032100D02*
X0178770Y0032100D01*
X0178770Y0030843D01*
X0181113Y0028500D01*
X0182370Y0028500D01*
X0182370Y0032100D01*
X0182370Y0031851D02*
X0183170Y0031851D01*
X0183170Y0031052D02*
X0182370Y0031052D01*
X0182370Y0030254D02*
X0183170Y0030254D01*
X0183170Y0029455D02*
X0182370Y0029455D01*
X0182370Y0028657D02*
X0183170Y0028657D01*
X0184583Y0028657D02*
X0188107Y0028657D01*
X0187309Y0029455D02*
X0185382Y0029455D01*
X0186180Y0030254D02*
X0186510Y0030254D01*
X0183170Y0033448D02*
X0182370Y0033448D01*
X0182370Y0034246D02*
X0183170Y0034246D01*
X0183170Y0035045D02*
X0182370Y0035045D01*
X0182370Y0035843D02*
X0183170Y0035843D01*
X0185083Y0035843D02*
X0186770Y0035843D01*
X0186770Y0035045D02*
X0185882Y0035045D01*
X0180157Y0029455D02*
X0173882Y0029455D01*
X0174680Y0030254D02*
X0179359Y0030254D01*
X0178770Y0031052D02*
X0175479Y0031052D01*
X0176277Y0031851D02*
X0178770Y0031851D01*
X0180956Y0028657D02*
X0172444Y0028657D01*
X0173739Y0018276D02*
X0175801Y0018276D01*
X0175609Y0017478D02*
X0173931Y0017478D01*
X0173970Y0016679D02*
X0175570Y0016679D01*
X0175570Y0015100D02*
X0175570Y0013769D01*
X0175673Y0013116D01*
X0175877Y0012488D01*
X0176178Y0011899D01*
X0176566Y0011364D01*
X0177034Y0010896D01*
X0177568Y0010508D01*
X0178157Y0010208D01*
X0178786Y0010003D01*
X0179370Y0009911D01*
X0179370Y0015100D01*
X0175570Y0015100D01*
X0175570Y0015082D02*
X0173970Y0015082D01*
X0173970Y0015100D02*
X0170170Y0015100D01*
X0170170Y0009911D01*
X0170753Y0010003D01*
X0171382Y0010208D01*
X0171971Y0010508D01*
X0172506Y0010896D01*
X0172973Y0011364D01*
X0173362Y0011899D01*
X0173662Y0012488D01*
X0173866Y0013116D01*
X0173970Y0013769D01*
X0173970Y0015100D01*
X0173970Y0014284D02*
X0175570Y0014284D01*
X0175615Y0013485D02*
X0173925Y0013485D01*
X0173727Y0012687D02*
X0175813Y0012687D01*
X0176185Y0011888D02*
X0173354Y0011888D01*
X0172699Y0011090D02*
X0176840Y0011090D01*
X0177994Y0010291D02*
X0171546Y0010291D01*
X0170170Y0010291D02*
X0169370Y0010291D01*
X0169370Y0009911D02*
X0169370Y0015100D01*
X0165570Y0015100D01*
X0165570Y0013769D01*
X0165673Y0013116D01*
X0165877Y0012488D01*
X0166178Y0011899D01*
X0166566Y0011364D01*
X0167034Y0010896D01*
X0167568Y0010508D01*
X0168157Y0010208D01*
X0168786Y0010003D01*
X0169370Y0009911D01*
X0169370Y0011090D02*
X0170170Y0011090D01*
X0170170Y0011888D02*
X0169370Y0011888D01*
X0169370Y0012687D02*
X0170170Y0012687D01*
X0170170Y0013485D02*
X0169370Y0013485D01*
X0169370Y0014284D02*
X0170170Y0014284D01*
X0170170Y0015082D02*
X0169370Y0015082D01*
X0169370Y0015881D02*
X0164570Y0015881D01*
X0164570Y0016679D02*
X0165570Y0016679D01*
X0165609Y0017478D02*
X0164570Y0017478D01*
X0164395Y0018276D02*
X0165801Y0018276D01*
X0165570Y0015082D02*
X0164570Y0015082D01*
X0164570Y0014284D02*
X0165570Y0014284D01*
X0165615Y0013485D02*
X0164570Y0013485D01*
X0164380Y0012687D02*
X0165813Y0012687D01*
X0166185Y0011888D02*
X0164049Y0011888D01*
X0163547Y0011090D02*
X0166840Y0011090D01*
X0167994Y0010291D02*
X0162749Y0010291D01*
X0161189Y0009493D02*
X0188350Y0009493D01*
X0186790Y0010291D02*
X0181546Y0010291D01*
X0181382Y0010208D02*
X0181971Y0010508D01*
X0182506Y0010896D01*
X0182973Y0011364D01*
X0183362Y0011899D01*
X0183662Y0012488D01*
X0183866Y0013116D01*
X0183970Y0013769D01*
X0183970Y0015100D01*
X0180170Y0015100D01*
X0180170Y0009911D01*
X0180753Y0010003D01*
X0181382Y0010208D01*
X0180170Y0010291D02*
X0179370Y0010291D01*
X0179370Y0011090D02*
X0180170Y0011090D01*
X0180170Y0011888D02*
X0179370Y0011888D01*
X0179370Y0012687D02*
X0180170Y0012687D01*
X0180170Y0013485D02*
X0179370Y0013485D01*
X0179370Y0014284D02*
X0180170Y0014284D01*
X0180170Y0015082D02*
X0179370Y0015082D01*
X0179370Y0015881D02*
X0170170Y0015881D01*
X0180170Y0015881D02*
X0184970Y0015881D01*
X0184970Y0016679D02*
X0183970Y0016679D01*
X0183931Y0017478D02*
X0184970Y0017478D01*
X0184837Y0018276D02*
X0183739Y0018276D01*
X0183970Y0015082D02*
X0184970Y0015082D01*
X0184970Y0014284D02*
X0183970Y0014284D01*
X0183925Y0013485D02*
X0184970Y0013485D01*
X0185160Y0012687D02*
X0183727Y0012687D01*
X0183354Y0011888D02*
X0185490Y0011888D01*
X0185992Y0011090D02*
X0182699Y0011090D01*
X0158350Y0009493D02*
X0151189Y0009493D01*
X0152749Y0010291D02*
X0156790Y0010291D01*
X0155992Y0011090D02*
X0153547Y0011090D01*
X0154049Y0011888D02*
X0155490Y0011888D01*
X0155160Y0012687D02*
X0154380Y0012687D01*
X0154570Y0013485D02*
X0154970Y0013485D01*
X0154970Y0014284D02*
X0154570Y0014284D01*
X0154570Y0015082D02*
X0154970Y0015082D01*
X0154970Y0015881D02*
X0154570Y0015881D01*
X0154570Y0016679D02*
X0154970Y0016679D01*
X0154970Y0017478D02*
X0154570Y0017478D01*
X0154395Y0018276D02*
X0155144Y0018276D01*
X0145144Y0018276D02*
X0144395Y0018276D01*
X0144570Y0017478D02*
X0144970Y0017478D01*
X0144970Y0016679D02*
X0144570Y0016679D01*
X0144570Y0015881D02*
X0144970Y0015881D01*
X0144970Y0015082D02*
X0144570Y0015082D01*
X0144570Y0014284D02*
X0144970Y0014284D01*
X0144970Y0013485D02*
X0144570Y0013485D01*
X0144380Y0012687D02*
X0145160Y0012687D01*
X0145490Y0011888D02*
X0144049Y0011888D01*
X0143547Y0011090D02*
X0145992Y0011090D01*
X0146790Y0010291D02*
X0142749Y0010291D01*
X0141189Y0009493D02*
X0148350Y0009493D01*
X0138350Y0009493D02*
X0131189Y0009493D01*
X0132749Y0010291D02*
X0136790Y0010291D01*
X0135992Y0011090D02*
X0133547Y0011090D01*
X0134049Y0011888D02*
X0135490Y0011888D01*
X0135160Y0012687D02*
X0134380Y0012687D01*
X0134570Y0013485D02*
X0134970Y0013485D01*
X0134970Y0014284D02*
X0134570Y0014284D01*
X0134570Y0015082D02*
X0134970Y0015082D01*
X0134970Y0015881D02*
X0134570Y0015881D01*
X0134570Y0016679D02*
X0134970Y0016679D01*
X0134970Y0017478D02*
X0134570Y0017478D01*
X0134395Y0018276D02*
X0135144Y0018276D01*
X0125144Y0018276D02*
X0124395Y0018276D01*
X0124570Y0017478D02*
X0124970Y0017478D01*
X0124970Y0016679D02*
X0124570Y0016679D01*
X0124570Y0015881D02*
X0124970Y0015881D01*
X0124970Y0015082D02*
X0124570Y0015082D01*
X0124570Y0014284D02*
X0124970Y0014284D01*
X0124970Y0013485D02*
X0124570Y0013485D01*
X0124380Y0012687D02*
X0125160Y0012687D01*
X0125490Y0011888D02*
X0124049Y0011888D01*
X0123547Y0011090D02*
X0125992Y0011090D01*
X0126790Y0010291D02*
X0122749Y0010291D01*
X0121189Y0009493D02*
X0128350Y0009493D01*
X0105874Y0010291D02*
X0078665Y0010291D01*
X0080420Y0011090D02*
X0104119Y0011090D01*
X0097770Y0019873D02*
X0090553Y0019873D01*
X0089755Y0020672D02*
X0097770Y0020672D01*
X0097770Y0021470D02*
X0088956Y0021470D01*
X0088158Y0022269D02*
X0097770Y0022269D01*
X0097770Y0023067D02*
X0087359Y0023067D01*
X0086561Y0023866D02*
X0097121Y0023866D01*
X0096663Y0024664D02*
X0085762Y0024664D01*
X0084964Y0025463D02*
X0096332Y0025463D01*
X0096120Y0026261D02*
X0084165Y0026261D01*
X0083367Y0027060D02*
X0096120Y0027060D01*
X0096120Y0027858D02*
X0085785Y0027858D01*
X0085427Y0027500D02*
X0087770Y0029843D01*
X0087770Y0031100D01*
X0084170Y0031100D01*
X0084170Y0027500D01*
X0085427Y0027500D01*
X0084170Y0027858D02*
X0083370Y0027858D01*
X0083370Y0028657D02*
X0084170Y0028657D01*
X0084170Y0029455D02*
X0083370Y0029455D01*
X0083370Y0030254D02*
X0084170Y0030254D01*
X0084170Y0031052D02*
X0083370Y0031052D01*
X0083370Y0031851D02*
X0078576Y0031851D01*
X0079374Y0031052D02*
X0079770Y0031052D01*
X0079770Y0032649D02*
X0077777Y0032649D01*
X0076979Y0033448D02*
X0080061Y0033448D01*
X0080859Y0034246D02*
X0076180Y0034246D01*
X0076661Y0033766D02*
X0076661Y0033766D01*
X0075770Y0035045D02*
X0081658Y0035045D01*
X0083370Y0035045D02*
X0084170Y0035045D01*
X0084170Y0034246D02*
X0083370Y0034246D01*
X0083370Y0033448D02*
X0084170Y0033448D01*
X0084170Y0032649D02*
X0083370Y0032649D01*
X0084170Y0031851D02*
X0099523Y0031851D01*
X0099385Y0032450D02*
X0096720Y0035115D01*
X0096720Y0036600D01*
X0100870Y0036600D01*
X0100870Y0032450D01*
X0099385Y0032450D01*
X0099186Y0032649D02*
X0087770Y0032649D01*
X0087479Y0033448D02*
X0098387Y0033448D01*
X0097589Y0034246D02*
X0086680Y0034246D01*
X0085882Y0035045D02*
X0096790Y0035045D01*
X0096720Y0035843D02*
X0075770Y0035843D01*
X0075770Y0036642D02*
X0100870Y0036642D01*
X0100870Y0035843D02*
X0101670Y0035843D01*
X0101670Y0035045D02*
X0100870Y0035045D01*
X0100870Y0034246D02*
X0101670Y0034246D01*
X0101670Y0033448D02*
X0100870Y0033448D01*
X0100870Y0032649D02*
X0101670Y0032649D01*
X0098039Y0031052D02*
X0087770Y0031052D01*
X0087770Y0030254D02*
X0097240Y0030254D01*
X0096712Y0029455D02*
X0087382Y0029455D01*
X0086583Y0028657D02*
X0096382Y0028657D01*
X0096720Y0037440D02*
X0075770Y0037440D01*
X0075770Y0038239D02*
X0096720Y0038239D01*
X0096873Y0039037D02*
X0075770Y0039037D01*
X0075753Y0039836D02*
X0097671Y0039836D01*
X0098470Y0040634D02*
X0075422Y0040634D01*
X0074994Y0041433D02*
X0099268Y0041433D01*
X0100063Y0045426D02*
X0071001Y0045426D01*
X0070202Y0046224D02*
X0098262Y0046224D01*
X0093212Y0047023D02*
X0069404Y0047023D01*
X0068605Y0047821D02*
X0092292Y0047821D01*
X0091493Y0048620D02*
X0067807Y0048620D01*
X0067008Y0049418D02*
X0090695Y0049418D01*
X0089896Y0050217D02*
X0066210Y0050217D01*
X0065411Y0051015D02*
X0089098Y0051015D01*
X0100870Y0056605D02*
X0101670Y0056605D01*
X0101670Y0057403D02*
X0100870Y0057403D01*
X0100870Y0058202D02*
X0101670Y0058202D01*
X0101670Y0059000D02*
X0100870Y0059000D01*
X0100870Y0059799D02*
X0101670Y0059799D01*
X0100870Y0060597D02*
X0094270Y0060597D01*
X0067717Y0051814D02*
X0064613Y0051814D01*
X0063814Y0052612D02*
X0066501Y0052612D01*
X0065702Y0053411D02*
X0063016Y0053411D01*
X0063161Y0053266D02*
X0063161Y0053266D01*
X0062217Y0054209D02*
X0064904Y0054209D01*
X0064105Y0055008D02*
X0044919Y0055008D01*
X0044120Y0055806D02*
X0063307Y0055806D01*
X0062508Y0056605D02*
X0052054Y0056605D01*
X0051979Y0056530D02*
X0052240Y0056790D01*
X0052424Y0057110D01*
X0052520Y0057466D01*
X0052520Y0060200D01*
X0047570Y0060200D01*
X0047570Y0056250D01*
X0051304Y0056250D01*
X0051660Y0056345D01*
X0051979Y0056530D01*
X0052503Y0057403D02*
X0062102Y0057403D01*
X0061771Y0058202D02*
X0052520Y0058202D01*
X0052520Y0059000D02*
X0061770Y0059000D01*
X0061770Y0059799D02*
X0052520Y0059799D01*
X0052520Y0061396D02*
X0061717Y0061396D01*
X0061770Y0060597D02*
X0047570Y0060597D01*
X0047570Y0059799D02*
X0046770Y0059799D01*
X0046770Y0059000D02*
X0047570Y0059000D01*
X0047570Y0058202D02*
X0046770Y0058202D01*
X0046770Y0057403D02*
X0047570Y0057403D01*
X0047570Y0056605D02*
X0046770Y0056605D01*
X0052520Y0062194D02*
X0060919Y0062194D01*
X0060120Y0062993D02*
X0052520Y0062993D01*
X0052504Y0063791D02*
X0059321Y0063791D01*
X0058523Y0064590D02*
X0052060Y0064590D01*
X0052686Y0065388D02*
X0057724Y0065388D01*
X0063449Y0070978D02*
X0066970Y0070978D01*
X0066970Y0071776D02*
X0062650Y0071776D01*
X0062224Y0072419D02*
X0066548Y0072419D01*
X0066905Y0072514D01*
X0066970Y0072552D01*
X0066970Y0067457D01*
X0061843Y0072584D01*
X0061843Y0074809D01*
X0062224Y0074809D01*
X0062224Y0072419D01*
X0062224Y0072575D02*
X0061852Y0072575D01*
X0061843Y0073373D02*
X0062224Y0073373D01*
X0062224Y0074172D02*
X0061843Y0074172D01*
X0064247Y0070179D02*
X0066970Y0070179D01*
X0066970Y0069381D02*
X0065046Y0069381D01*
X0065844Y0068582D02*
X0066970Y0068582D01*
X0066970Y0067784D02*
X0066643Y0067784D01*
X0069669Y0080560D02*
X0070270Y0080560D01*
X0070270Y0081359D02*
X0068871Y0081359D01*
X0068217Y0082157D02*
X0070270Y0082157D01*
X0070270Y0082956D02*
X0068329Y0082956D01*
X0068364Y0083754D02*
X0070270Y0083754D01*
X0070270Y0084553D02*
X0068364Y0084553D01*
X0068364Y0085351D02*
X0070270Y0085351D01*
X0070270Y0086150D02*
X0068364Y0086150D01*
X0068364Y0086948D02*
X0070270Y0086948D01*
X0070270Y0087747D02*
X0068120Y0087747D01*
X0068364Y0088545D02*
X0070270Y0088545D01*
X0070270Y0089344D02*
X0068364Y0089344D01*
X0068364Y0090142D02*
X0070270Y0090142D01*
X0070270Y0090941D02*
X0068364Y0090941D01*
X0068364Y0091739D02*
X0070270Y0091739D01*
X0070270Y0092538D02*
X0067836Y0092538D01*
X0066475Y0094135D02*
X0070617Y0094135D01*
X0070287Y0093336D02*
X0065677Y0093336D01*
X0067274Y0094933D02*
X0071046Y0094933D01*
X0071845Y0095732D02*
X0067770Y0095732D01*
X0068360Y0096530D02*
X0072643Y0096530D01*
X0073012Y0097329D02*
X0071327Y0097329D01*
X0071920Y0098127D02*
X0072420Y0098127D01*
X0072420Y0098926D02*
X0071920Y0098926D01*
X0071920Y0099724D02*
X0072420Y0099724D01*
X0072420Y0100523D02*
X0071920Y0100523D01*
X0071920Y0101321D02*
X0072420Y0101321D01*
X0072420Y0102120D02*
X0071920Y0102120D01*
X0071920Y0102918D02*
X0072420Y0102918D01*
X0073058Y0103717D02*
X0071281Y0103717D01*
X0069227Y0105314D02*
X0058070Y0105314D01*
X0058070Y0106112D02*
X0068620Y0106112D01*
X0068620Y0106911D02*
X0058070Y0106911D01*
X0058070Y0107709D02*
X0068620Y0107709D01*
X0068620Y0108508D02*
X0058070Y0108508D01*
X0058070Y0109306D02*
X0068620Y0109306D01*
X0068620Y0110105D02*
X0058070Y0110105D01*
X0059039Y0110903D02*
X0068295Y0110903D01*
X0067497Y0111702D02*
X0060129Y0111702D01*
X0060771Y0112501D02*
X0066770Y0112501D01*
X0066770Y0113299D02*
X0061102Y0113299D01*
X0061270Y0114098D02*
X0066770Y0114098D01*
X0066770Y0114896D02*
X0061270Y0114896D01*
X0061104Y0115695D02*
X0066770Y0115695D01*
X0066770Y0116493D02*
X0060774Y0116493D01*
X0060135Y0117292D02*
X0067490Y0117292D01*
X0068289Y0118090D02*
X0059055Y0118090D01*
X0060797Y0121284D02*
X0053120Y0121284D01*
X0053120Y0120486D02*
X0074596Y0120486D01*
X0073797Y0119687D02*
X0052985Y0119687D01*
X0052609Y0118889D02*
X0069087Y0118889D01*
X0070742Y0121284D02*
X0070797Y0121284D01*
X0065797Y0121284D02*
X0065742Y0121284D01*
X0060020Y0122083D02*
X0053120Y0122083D01*
X0053120Y0122881D02*
X0060020Y0122881D01*
X0060020Y0123680D02*
X0053120Y0123680D01*
X0053120Y0124478D02*
X0060020Y0124478D01*
X0060020Y0125277D02*
X0053120Y0125277D01*
X0053120Y0126075D02*
X0060020Y0126075D01*
X0060020Y0126874D02*
X0053120Y0126874D01*
X0052826Y0127672D02*
X0060020Y0127672D01*
X0060020Y0128471D02*
X0052027Y0128471D01*
X0051270Y0134859D02*
X0121470Y0134859D01*
X0121470Y0135657D02*
X0104387Y0135657D01*
X0105185Y0136456D02*
X0121470Y0136456D01*
X0121470Y0137254D02*
X0105984Y0137254D01*
X0106782Y0138053D02*
X0121470Y0138053D01*
X0121470Y0138851D02*
X0107581Y0138851D01*
X0108379Y0139650D02*
X0121470Y0139650D01*
X0121470Y0140448D02*
X0109178Y0140448D01*
X0109781Y0141247D02*
X0121470Y0141247D01*
X0121470Y0142045D02*
X0119820Y0142045D01*
X0120619Y0142844D02*
X0121470Y0142844D01*
X0121470Y0143642D02*
X0121418Y0143642D01*
X0115719Y0142045D02*
X0110070Y0142045D01*
X0110119Y0142844D02*
X0114920Y0142844D01*
X0114122Y0143642D02*
X0110918Y0143642D01*
X0111716Y0144441D02*
X0113323Y0144441D01*
X0113170Y0145239D02*
X0111870Y0145239D01*
X0111870Y0146038D02*
X0113170Y0146038D01*
X0113170Y0146837D02*
X0111870Y0146837D01*
X0111870Y0147635D02*
X0112675Y0147635D01*
X0114139Y0153670D02*
X0113827Y0153800D01*
X0104727Y0153800D01*
X0105770Y0154843D01*
X0105770Y0156100D01*
X0102170Y0156100D01*
X0102170Y0156900D01*
X0105770Y0156900D01*
X0105770Y0158157D01*
X0103427Y0160500D01*
X0102170Y0160500D01*
X0102170Y0156900D01*
X0101370Y0156900D01*
X0101370Y0160500D01*
X0100113Y0160500D01*
X0097770Y0158157D01*
X0097770Y0156900D01*
X0101370Y0156900D01*
X0101370Y0156100D01*
X0102170Y0156100D01*
X0102170Y0152500D01*
X0102810Y0152500D01*
X0100853Y0150543D01*
X0100824Y0150651D01*
X0100640Y0150970D01*
X0100379Y0151230D01*
X0100060Y0151415D01*
X0099704Y0151510D01*
X0098495Y0151510D01*
X0098495Y0147335D01*
X0098045Y0147335D01*
X0098045Y0151510D01*
X0096835Y0151510D01*
X0096479Y0151415D01*
X0096203Y0151255D01*
X0095348Y0152110D01*
X0091191Y0152110D01*
X0090770Y0151689D01*
X0090348Y0152110D01*
X0086191Y0152110D01*
X0086070Y0151989D01*
X0086070Y0154295D01*
X0086370Y0154595D01*
X0086370Y0158405D01*
X0083675Y0161100D01*
X0082829Y0161100D01*
X0084029Y0162300D01*
X0103767Y0162300D01*
X0104470Y0163003D01*
X0104970Y0163503D01*
X0108388Y0166922D01*
X0109470Y0165840D01*
X0109470Y0158943D01*
X0109896Y0157914D01*
X0114139Y0153670D01*
X0113787Y0154023D02*
X0104950Y0154023D01*
X0105748Y0154822D02*
X0112988Y0154822D01*
X0112190Y0155620D02*
X0105770Y0155620D01*
X0105770Y0157217D02*
X0110593Y0157217D01*
X0109854Y0158016D02*
X0105770Y0158016D01*
X0105112Y0158814D02*
X0109523Y0158814D01*
X0109470Y0159613D02*
X0104314Y0159613D01*
X0103515Y0160411D02*
X0109470Y0160411D01*
X0109470Y0161210D02*
X0082939Y0161210D01*
X0083738Y0162008D02*
X0109470Y0162008D01*
X0109470Y0162807D02*
X0104273Y0162807D01*
X0105072Y0163605D02*
X0109470Y0163605D01*
X0109470Y0164404D02*
X0105870Y0164404D01*
X0106669Y0165202D02*
X0109470Y0165202D01*
X0109309Y0166001D02*
X0107468Y0166001D01*
X0108266Y0166799D02*
X0108511Y0166799D01*
X0112438Y0170792D02*
X0120470Y0170792D01*
X0120470Y0171590D02*
X0111639Y0171590D01*
X0110841Y0172389D02*
X0120470Y0172389D01*
X0120470Y0173187D02*
X0110470Y0173187D01*
X0110470Y0172760D02*
X0110470Y0176497D01*
X0109767Y0177200D01*
X0104267Y0182700D01*
X0100068Y0182700D01*
X0099827Y0182800D01*
X0082929Y0182800D01*
X0068529Y0197201D01*
X0071420Y0197201D01*
X0074471Y0198464D01*
X0074807Y0198800D01*
X0090970Y0198800D01*
X0090970Y0198443D01*
X0091396Y0197414D01*
X0094657Y0194153D01*
X0095057Y0193187D01*
X0095957Y0192287D01*
X0097133Y0191800D01*
X0098406Y0191800D01*
X0099582Y0192287D01*
X0100483Y0193187D01*
X0100970Y0194363D01*
X0100970Y0195637D01*
X0100483Y0196813D01*
X0099582Y0197713D01*
X0098617Y0198113D01*
X0097929Y0198800D01*
X0103767Y0198800D01*
X0103967Y0199000D01*
X0104764Y0199000D01*
X0106602Y0199761D01*
X0108008Y0201168D01*
X0108770Y0203005D01*
X0108770Y0206188D01*
X0109370Y0206175D01*
X0109370Y0205900D01*
X0113370Y0205900D01*
X0113370Y0205100D01*
X0114170Y0205100D01*
X0114170Y0199609D01*
X0114800Y0199708D01*
X0115459Y0199922D01*
X0115970Y0200183D01*
X0115970Y0193102D01*
X0115570Y0192137D01*
X0115570Y0190863D01*
X0116057Y0189687D01*
X0116957Y0188787D01*
X0118133Y0188300D01*
X0119406Y0188300D01*
X0120470Y0188741D01*
X0120470Y0185305D01*
X0119175Y0186600D01*
X0115364Y0186600D01*
X0112670Y0183905D01*
X0112670Y0180095D01*
X0115364Y0177400D01*
X0119175Y0177400D01*
X0120470Y0178695D01*
X0120470Y0164457D01*
X0118927Y0166000D01*
X0117670Y0166000D01*
X0117670Y0162400D01*
X0116870Y0162400D01*
X0116870Y0166000D01*
X0115613Y0166000D01*
X0115070Y0165457D01*
X0115070Y0167557D01*
X0114643Y0168586D01*
X0113856Y0169374D01*
X0110470Y0172760D01*
X0110470Y0173986D02*
X0120470Y0173986D01*
X0120470Y0174784D02*
X0110470Y0174784D01*
X0110470Y0175583D02*
X0120470Y0175583D01*
X0120470Y0176381D02*
X0110470Y0176381D01*
X0109787Y0177180D02*
X0120470Y0177180D01*
X0120470Y0177978D02*
X0119753Y0177978D01*
X0114786Y0177978D02*
X0108988Y0177978D01*
X0108190Y0178777D02*
X0113987Y0178777D01*
X0113189Y0179575D02*
X0107391Y0179575D01*
X0106593Y0180374D02*
X0112670Y0180374D01*
X0112670Y0181172D02*
X0105794Y0181172D01*
X0104996Y0181971D02*
X0112670Y0181971D01*
X0112670Y0182770D02*
X0099900Y0182770D01*
X0099647Y0192352D02*
X0115659Y0192352D01*
X0115570Y0191553D02*
X0074176Y0191553D01*
X0073378Y0192352D02*
X0095893Y0192352D01*
X0095094Y0193150D02*
X0072579Y0193150D01*
X0071781Y0193949D02*
X0094741Y0193949D01*
X0094063Y0194747D02*
X0070982Y0194747D01*
X0070184Y0195546D02*
X0093264Y0195546D01*
X0092466Y0196344D02*
X0069385Y0196344D01*
X0068587Y0197143D02*
X0091667Y0197143D01*
X0091178Y0197941D02*
X0073208Y0197941D01*
X0074746Y0198740D02*
X0090970Y0198740D01*
X0097990Y0198740D02*
X0115970Y0198740D01*
X0115970Y0199538D02*
X0106064Y0199538D01*
X0107178Y0200337D02*
X0111326Y0200337D01*
X0111464Y0200237D02*
X0112081Y0199922D01*
X0112739Y0199708D01*
X0113370Y0199609D01*
X0113370Y0205100D01*
X0109370Y0205100D01*
X0109370Y0203654D01*
X0109478Y0202970D01*
X0109692Y0202311D01*
X0110006Y0201694D01*
X0110414Y0201134D01*
X0110903Y0200644D01*
X0111464Y0200237D01*
X0110412Y0201135D02*
X0107976Y0201135D01*
X0108326Y0201934D02*
X0109884Y0201934D01*
X0109555Y0202732D02*
X0108657Y0202732D01*
X0108770Y0203531D02*
X0109389Y0203531D01*
X0109370Y0204329D02*
X0108770Y0204329D01*
X0108770Y0205128D02*
X0113370Y0205128D01*
X0113370Y0204329D02*
X0114170Y0204329D01*
X0114170Y0203531D02*
X0113370Y0203531D01*
X0113370Y0202732D02*
X0114170Y0202732D01*
X0114170Y0201934D02*
X0113370Y0201934D01*
X0113370Y0201135D02*
X0114170Y0201135D01*
X0114170Y0200337D02*
X0113370Y0200337D01*
X0115970Y0197941D02*
X0099031Y0197941D01*
X0100152Y0197143D02*
X0115970Y0197143D01*
X0115970Y0196344D02*
X0100677Y0196344D01*
X0100970Y0195546D02*
X0115970Y0195546D01*
X0115970Y0194747D02*
X0100970Y0194747D01*
X0100798Y0193949D02*
X0115970Y0193949D01*
X0115970Y0193150D02*
X0100445Y0193150D01*
X0113131Y0184367D02*
X0081363Y0184367D01*
X0080564Y0185165D02*
X0113929Y0185165D01*
X0114728Y0185964D02*
X0079766Y0185964D01*
X0078967Y0186762D02*
X0120470Y0186762D01*
X0120470Y0185964D02*
X0119811Y0185964D01*
X0120470Y0187561D02*
X0078169Y0187561D01*
X0077370Y0188359D02*
X0117990Y0188359D01*
X0119549Y0188359D02*
X0120470Y0188359D01*
X0116587Y0189158D02*
X0076572Y0189158D01*
X0075773Y0189956D02*
X0115946Y0189956D01*
X0115615Y0190755D02*
X0074975Y0190755D01*
X0071048Y0186762D02*
X0051270Y0186762D01*
X0051270Y0185964D02*
X0071846Y0185964D01*
X0072645Y0185165D02*
X0051270Y0185165D01*
X0051270Y0184367D02*
X0073443Y0184367D01*
X0074242Y0183568D02*
X0051270Y0183568D01*
X0051270Y0182770D02*
X0075040Y0182770D01*
X0075110Y0182700D02*
X0073773Y0182700D01*
X0073070Y0181997D01*
X0070057Y0178984D01*
X0064791Y0178984D01*
X0063175Y0180600D01*
X0059364Y0180600D01*
X0056670Y0177905D01*
X0056670Y0174095D01*
X0059364Y0171400D01*
X0063175Y0171400D01*
X0064791Y0173016D01*
X0067570Y0173016D01*
X0067570Y0169003D01*
X0068273Y0168300D01*
X0072941Y0163631D01*
X0064910Y0155600D01*
X0061670Y0155600D01*
X0061670Y0156400D01*
X0065270Y0156400D01*
X0065270Y0157657D01*
X0062927Y0160000D01*
X0061670Y0160000D01*
X0061670Y0156400D01*
X0060870Y0156400D01*
X0060870Y0160000D01*
X0059613Y0160000D01*
X0058953Y0159340D01*
X0058643Y0160086D01*
X0057229Y0161500D01*
X0063065Y0161500D01*
X0064535Y0162109D01*
X0065661Y0163234D01*
X0066270Y0164704D01*
X0066270Y0166296D01*
X0065661Y0167766D01*
X0064535Y0168891D01*
X0063065Y0169500D01*
X0053974Y0169500D01*
X0052504Y0168891D01*
X0051913Y0168300D01*
X0051270Y0168300D01*
X0051270Y0171341D01*
X0051683Y0171754D01*
X0051683Y0181285D01*
X0051270Y0181698D01*
X0051270Y0188000D01*
X0047692Y0188000D01*
X0047926Y0188234D01*
X0048333Y0188794D01*
X0048647Y0189411D01*
X0048861Y0190070D01*
X0048961Y0190700D01*
X0043470Y0190700D01*
X0043470Y0191500D01*
X0048961Y0191500D01*
X0048861Y0192130D01*
X0048647Y0192789D01*
X0048333Y0193406D01*
X0047926Y0193966D01*
X0047436Y0194456D01*
X0046876Y0194863D01*
X0046259Y0195178D01*
X0045600Y0195392D01*
X0044916Y0195500D01*
X0043470Y0195500D01*
X0043470Y0191500D01*
X0042670Y0191500D01*
X0042670Y0195500D01*
X0041223Y0195500D01*
X0040539Y0195392D01*
X0039881Y0195178D01*
X0039264Y0194863D01*
X0038703Y0194456D01*
X0038214Y0193966D01*
X0037806Y0193406D01*
X0037492Y0192789D01*
X0037278Y0192130D01*
X0037178Y0191500D01*
X0042670Y0191500D01*
X0042670Y0190700D01*
X0037178Y0190700D01*
X0037278Y0190070D01*
X0037492Y0189411D01*
X0037806Y0188794D01*
X0038214Y0188234D01*
X0038447Y0188000D01*
X0022092Y0188000D01*
X0022326Y0188234D01*
X0022733Y0188794D01*
X0023047Y0189411D01*
X0023261Y0190070D01*
X0023361Y0190700D01*
X0017870Y0190700D01*
X0017870Y0191500D01*
X0023361Y0191500D01*
X0023261Y0192130D01*
X0023047Y0192789D01*
X0022733Y0193406D01*
X0022326Y0193966D01*
X0021836Y0194456D01*
X0021276Y0194863D01*
X0020659Y0195178D01*
X0020000Y0195392D01*
X0019316Y0195500D01*
X0017870Y0195500D01*
X0017870Y0191500D01*
X0017070Y0191500D01*
X0017070Y0195500D01*
X0015623Y0195500D01*
X0014939Y0195392D01*
X0014281Y0195178D01*
X0013664Y0194863D01*
X0013103Y0194456D01*
X0012614Y0193966D01*
X0012270Y0193493D01*
X0012270Y0205529D01*
X0013137Y0204661D01*
X0014975Y0203900D01*
X0019964Y0203900D01*
X0021802Y0204661D01*
X0023208Y0206068D01*
X0023222Y0206100D01*
X0037318Y0206100D01*
X0037331Y0206068D01*
X0038737Y0204661D01*
X0040575Y0203900D01*
X0045564Y0203900D01*
X0047402Y0204661D01*
X0048808Y0206068D01*
X0048822Y0206100D01*
X0051710Y0206100D01*
X0075110Y0182700D01*
X0073044Y0181971D02*
X0051270Y0181971D01*
X0051683Y0181172D02*
X0072245Y0181172D01*
X0071447Y0180374D02*
X0063401Y0180374D01*
X0064200Y0179575D02*
X0070648Y0179575D01*
X0067570Y0172389D02*
X0064164Y0172389D01*
X0063365Y0171590D02*
X0067570Y0171590D01*
X0067570Y0170792D02*
X0051270Y0170792D01*
X0051270Y0169993D02*
X0067570Y0169993D01*
X0067570Y0169195D02*
X0063802Y0169195D01*
X0065030Y0168396D02*
X0068176Y0168396D01*
X0068975Y0167598D02*
X0065730Y0167598D01*
X0066061Y0166799D02*
X0069773Y0166799D01*
X0070572Y0166001D02*
X0066270Y0166001D01*
X0066270Y0165202D02*
X0071370Y0165202D01*
X0072169Y0164404D02*
X0066145Y0164404D01*
X0065814Y0163605D02*
X0072915Y0163605D01*
X0072117Y0162807D02*
X0065233Y0162807D01*
X0064292Y0162008D02*
X0071318Y0162008D01*
X0070520Y0161210D02*
X0057520Y0161210D01*
X0058318Y0160411D02*
X0069721Y0160411D01*
X0068923Y0159613D02*
X0063314Y0159613D01*
X0064112Y0158814D02*
X0068124Y0158814D01*
X0067326Y0158016D02*
X0064911Y0158016D01*
X0065270Y0157217D02*
X0066527Y0157217D01*
X0065729Y0156419D02*
X0065270Y0156419D01*
X0064930Y0155620D02*
X0061670Y0155620D01*
X0061670Y0156419D02*
X0060870Y0156419D01*
X0060870Y0157217D02*
X0061670Y0157217D01*
X0061670Y0158016D02*
X0060870Y0158016D01*
X0060870Y0158814D02*
X0061670Y0158814D01*
X0061670Y0159613D02*
X0060870Y0159613D01*
X0059226Y0159613D02*
X0058839Y0159613D01*
X0052009Y0168396D02*
X0051270Y0168396D01*
X0051270Y0169195D02*
X0053237Y0169195D01*
X0051519Y0171590D02*
X0059174Y0171590D01*
X0058375Y0172389D02*
X0051683Y0172389D01*
X0051683Y0173187D02*
X0057577Y0173187D01*
X0056778Y0173986D02*
X0051683Y0173986D01*
X0051683Y0174784D02*
X0056670Y0174784D01*
X0056670Y0175583D02*
X0051683Y0175583D01*
X0051683Y0176381D02*
X0056670Y0176381D01*
X0056670Y0177180D02*
X0051683Y0177180D01*
X0051683Y0177978D02*
X0056743Y0177978D01*
X0057541Y0178777D02*
X0051683Y0178777D01*
X0051683Y0179575D02*
X0058340Y0179575D01*
X0059138Y0180374D02*
X0051683Y0180374D01*
X0051270Y0187561D02*
X0070249Y0187561D01*
X0069451Y0188359D02*
X0048017Y0188359D01*
X0048518Y0189158D02*
X0068652Y0189158D01*
X0067854Y0189956D02*
X0048824Y0189956D01*
X0048953Y0191553D02*
X0066257Y0191553D01*
X0067055Y0190755D02*
X0043470Y0190755D01*
X0043470Y0191553D02*
X0042670Y0191553D01*
X0042670Y0190755D02*
X0017870Y0190755D01*
X0017870Y0191553D02*
X0017070Y0191553D01*
X0017070Y0191500D02*
X0017070Y0190700D01*
X0012270Y0190700D01*
X0012270Y0191500D01*
X0017070Y0191500D01*
X0017070Y0190755D02*
X0012270Y0190755D01*
X0012270Y0193949D02*
X0012601Y0193949D01*
X0012270Y0194747D02*
X0013504Y0194747D01*
X0012270Y0195546D02*
X0062264Y0195546D01*
X0061466Y0196344D02*
X0012270Y0196344D01*
X0012270Y0197143D02*
X0060667Y0197143D01*
X0059869Y0197941D02*
X0012270Y0197941D01*
X0012270Y0198740D02*
X0059070Y0198740D01*
X0058272Y0199538D02*
X0012270Y0199538D01*
X0012270Y0200337D02*
X0057473Y0200337D01*
X0056675Y0201135D02*
X0012270Y0201135D01*
X0012270Y0201934D02*
X0055876Y0201934D01*
X0055078Y0202732D02*
X0012270Y0202732D01*
X0012270Y0203531D02*
X0054279Y0203531D01*
X0053481Y0204329D02*
X0046601Y0204329D01*
X0047869Y0205128D02*
X0052682Y0205128D01*
X0051884Y0205926D02*
X0048667Y0205926D01*
X0039539Y0204329D02*
X0021001Y0204329D01*
X0022269Y0205128D02*
X0038271Y0205128D01*
X0037472Y0205926D02*
X0023067Y0205926D01*
X0013939Y0204329D02*
X0012270Y0204329D01*
X0012270Y0205128D02*
X0012671Y0205128D01*
X0017070Y0194747D02*
X0017870Y0194747D01*
X0017870Y0193949D02*
X0017070Y0193949D01*
X0017070Y0193150D02*
X0017870Y0193150D01*
X0017870Y0192352D02*
X0017070Y0192352D01*
X0021435Y0194747D02*
X0039104Y0194747D01*
X0038201Y0193949D02*
X0022339Y0193949D01*
X0022863Y0193150D02*
X0037676Y0193150D01*
X0037350Y0192352D02*
X0023189Y0192352D01*
X0023353Y0191553D02*
X0037187Y0191553D01*
X0037315Y0189956D02*
X0023224Y0189956D01*
X0022918Y0189158D02*
X0037621Y0189158D01*
X0038122Y0188359D02*
X0022417Y0188359D01*
X0042670Y0192352D02*
X0043470Y0192352D01*
X0043470Y0193150D02*
X0042670Y0193150D01*
X0042670Y0193949D02*
X0043470Y0193949D01*
X0043470Y0194747D02*
X0042670Y0194747D01*
X0047035Y0194747D02*
X0063063Y0194747D01*
X0063861Y0193949D02*
X0047939Y0193949D01*
X0048463Y0193150D02*
X0064660Y0193150D01*
X0065458Y0192352D02*
X0048789Y0192352D01*
X0082161Y0183568D02*
X0112670Y0183568D01*
X0113236Y0169993D02*
X0120470Y0169993D01*
X0120470Y0169195D02*
X0114035Y0169195D01*
X0114722Y0168396D02*
X0120470Y0168396D01*
X0120470Y0167598D02*
X0115053Y0167598D01*
X0115070Y0166799D02*
X0120470Y0166799D01*
X0120470Y0166001D02*
X0115070Y0166001D01*
X0116870Y0165202D02*
X0117670Y0165202D01*
X0117670Y0164404D02*
X0116870Y0164404D01*
X0116870Y0163605D02*
X0117670Y0163605D01*
X0117670Y0162807D02*
X0116870Y0162807D01*
X0119724Y0165202D02*
X0120470Y0165202D01*
X0111391Y0156419D02*
X0102170Y0156419D01*
X0102170Y0157217D02*
X0101370Y0157217D01*
X0101370Y0156419D02*
X0086370Y0156419D01*
X0086370Y0157217D02*
X0097770Y0157217D01*
X0097770Y0158016D02*
X0086370Y0158016D01*
X0085961Y0158814D02*
X0098427Y0158814D01*
X0099226Y0159613D02*
X0085162Y0159613D01*
X0084364Y0160411D02*
X0100024Y0160411D01*
X0101370Y0160411D02*
X0102170Y0160411D01*
X0102170Y0159613D02*
X0101370Y0159613D01*
X0101370Y0158814D02*
X0102170Y0158814D01*
X0102170Y0158016D02*
X0101370Y0158016D01*
X0101370Y0156100D02*
X0097770Y0156100D01*
X0097770Y0154843D01*
X0100113Y0152500D01*
X0101370Y0152500D01*
X0101370Y0156100D01*
X0101370Y0155620D02*
X0102170Y0155620D01*
X0102170Y0154822D02*
X0101370Y0154822D01*
X0101370Y0154023D02*
X0102170Y0154023D01*
X0102170Y0153225D02*
X0101370Y0153225D01*
X0102736Y0152426D02*
X0086070Y0152426D01*
X0086070Y0153225D02*
X0099388Y0153225D01*
X0098590Y0154023D02*
X0086070Y0154023D01*
X0086370Y0154822D02*
X0097791Y0154822D01*
X0097770Y0155620D02*
X0086370Y0155620D01*
X0095831Y0151628D02*
X0101937Y0151628D01*
X0101139Y0150829D02*
X0100721Y0150829D01*
X0098495Y0150829D02*
X0098045Y0150829D01*
X0098045Y0150031D02*
X0098495Y0150031D01*
X0098495Y0149232D02*
X0098045Y0149232D01*
X0098045Y0148434D02*
X0098495Y0148434D01*
X0098495Y0147635D02*
X0098045Y0147635D01*
X0088757Y0138053D02*
X0076782Y0138053D01*
X0075984Y0137254D02*
X0089556Y0137254D01*
X0090354Y0136456D02*
X0075185Y0136456D01*
X0077581Y0138851D02*
X0087958Y0138851D01*
X0087160Y0139650D02*
X0078379Y0139650D01*
X0079178Y0140448D02*
X0086361Y0140448D01*
X0085758Y0141247D02*
X0079976Y0141247D01*
X0080698Y0142045D02*
X0085470Y0142045D01*
X0091153Y0135657D02*
X0051270Y0135657D01*
X0051424Y0136456D02*
X0057854Y0136456D01*
X0057056Y0137254D02*
X0051683Y0137254D01*
X0051683Y0138053D02*
X0056257Y0138053D01*
X0055458Y0138851D02*
X0051683Y0138851D01*
X0051683Y0139650D02*
X0054660Y0139650D01*
X0054175Y0140448D02*
X0051683Y0140448D01*
X0051683Y0141247D02*
X0053970Y0141247D01*
X0053970Y0142045D02*
X0051683Y0142045D01*
X0051683Y0142844D02*
X0053970Y0142844D01*
X0053970Y0143642D02*
X0051683Y0143642D01*
X0051683Y0144441D02*
X0053970Y0144441D01*
X0053970Y0145239D02*
X0051683Y0145239D01*
X0051683Y0146038D02*
X0053970Y0146038D01*
X0053970Y0146837D02*
X0051270Y0146837D01*
X0051270Y0147635D02*
X0053675Y0147635D01*
X0052876Y0148434D02*
X0051270Y0148434D01*
X0051270Y0149232D02*
X0052078Y0149232D01*
X0051279Y0150031D02*
X0051270Y0150031D01*
X0061168Y0130866D02*
X0012270Y0130866D01*
X0012270Y0130068D02*
X0060369Y0130068D01*
X0060020Y0129269D02*
X0012270Y0129269D01*
X0012270Y0128471D02*
X0042312Y0128471D01*
X0041513Y0127672D02*
X0012270Y0127672D01*
X0012270Y0126874D02*
X0040987Y0126874D01*
X0040188Y0126075D02*
X0012270Y0126075D01*
X0012270Y0125277D02*
X0039390Y0125277D01*
X0038591Y0124478D02*
X0012270Y0124478D01*
X0012270Y0123680D02*
X0017271Y0123680D01*
X0017591Y0124000D02*
X0016420Y0122828D01*
X0016420Y0106172D01*
X0017591Y0105000D01*
X0027148Y0105000D01*
X0028320Y0106172D01*
X0028320Y0122828D01*
X0027148Y0124000D01*
X0017591Y0124000D01*
X0016472Y0122881D02*
X0012270Y0122881D01*
X0012270Y0122083D02*
X0016420Y0122083D01*
X0016420Y0121284D02*
X0012270Y0121284D01*
X0012270Y0120486D02*
X0016420Y0120486D01*
X0016420Y0119687D02*
X0012270Y0119687D01*
X0012270Y0118889D02*
X0016420Y0118889D01*
X0016420Y0118090D02*
X0012270Y0118090D01*
X0012270Y0117292D02*
X0016420Y0117292D01*
X0016420Y0116493D02*
X0012270Y0116493D01*
X0012270Y0115695D02*
X0016420Y0115695D01*
X0016420Y0114896D02*
X0012270Y0114896D01*
X0012270Y0114098D02*
X0016420Y0114098D01*
X0016420Y0113299D02*
X0012270Y0113299D01*
X0012270Y0112501D02*
X0016420Y0112501D01*
X0016420Y0111702D02*
X0012270Y0111702D01*
X0012270Y0110903D02*
X0016420Y0110903D01*
X0016420Y0110105D02*
X0012270Y0110105D01*
X0012270Y0109306D02*
X0016420Y0109306D01*
X0016420Y0108508D02*
X0012270Y0108508D01*
X0012270Y0107709D02*
X0016420Y0107709D01*
X0016420Y0106911D02*
X0012270Y0106911D01*
X0012270Y0106112D02*
X0016479Y0106112D01*
X0017277Y0105314D02*
X0012270Y0105314D01*
X0012270Y0104515D02*
X0035270Y0104515D01*
X0035270Y0103717D02*
X0012270Y0103717D01*
X0012270Y0102918D02*
X0035270Y0102918D01*
X0035270Y0102120D02*
X0012270Y0102120D01*
X0012270Y0101321D02*
X0035270Y0101321D01*
X0035270Y0100523D02*
X0012270Y0100523D01*
X0012270Y0099724D02*
X0035270Y0099724D01*
X0035270Y0098926D02*
X0012270Y0098926D01*
X0012270Y0098127D02*
X0035270Y0098127D01*
X0035270Y0097329D02*
X0012270Y0097329D01*
X0012270Y0096530D02*
X0035270Y0096530D01*
X0035270Y0095732D02*
X0012270Y0095732D01*
X0012270Y0094933D02*
X0035270Y0094933D01*
X0035270Y0094135D02*
X0012270Y0094135D01*
X0012270Y0093336D02*
X0035270Y0093336D01*
X0035270Y0092538D02*
X0012270Y0092538D01*
X0012270Y0091739D02*
X0035270Y0091739D01*
X0035270Y0090941D02*
X0012270Y0090941D01*
X0012270Y0090142D02*
X0035270Y0090142D01*
X0035270Y0089344D02*
X0012270Y0089344D01*
X0012270Y0088545D02*
X0035270Y0088545D01*
X0035459Y0087747D02*
X0012270Y0087747D01*
X0012270Y0086948D02*
X0035790Y0086948D01*
X0036463Y0086150D02*
X0012270Y0086150D01*
X0012270Y0085351D02*
X0037262Y0085351D01*
X0038060Y0084553D02*
X0012270Y0084553D01*
X0012270Y0083754D02*
X0038859Y0083754D01*
X0039657Y0082956D02*
X0012270Y0082956D01*
X0012270Y0082157D02*
X0039646Y0082157D01*
X0038471Y0081359D02*
X0012270Y0081359D01*
X0012270Y0080560D02*
X0037673Y0080560D01*
X0036874Y0079762D02*
X0012270Y0079762D01*
X0012270Y0078963D02*
X0017554Y0078963D01*
X0017591Y0079000D02*
X0016420Y0077828D01*
X0016420Y0061172D01*
X0017591Y0060000D01*
X0027148Y0060000D01*
X0028320Y0061172D01*
X0028320Y0077828D01*
X0027148Y0079000D01*
X0017591Y0079000D01*
X0016756Y0078165D02*
X0012270Y0078165D01*
X0012270Y0077366D02*
X0016420Y0077366D01*
X0016420Y0076568D02*
X0012270Y0076568D01*
X0012270Y0075769D02*
X0016420Y0075769D01*
X0016420Y0074970D02*
X0012270Y0074970D01*
X0012270Y0074172D02*
X0016420Y0074172D01*
X0016420Y0073373D02*
X0012270Y0073373D01*
X0012270Y0072575D02*
X0016420Y0072575D01*
X0016420Y0071776D02*
X0012270Y0071776D01*
X0012270Y0070978D02*
X0016420Y0070978D01*
X0016420Y0070179D02*
X0012270Y0070179D01*
X0012270Y0069381D02*
X0016420Y0069381D01*
X0016420Y0068582D02*
X0012270Y0068582D01*
X0012270Y0067784D02*
X0016420Y0067784D01*
X0016420Y0066985D02*
X0012270Y0066985D01*
X0012270Y0066187D02*
X0016420Y0066187D01*
X0016420Y0065388D02*
X0012270Y0065388D01*
X0012270Y0064590D02*
X0016420Y0064590D01*
X0016420Y0063791D02*
X0012270Y0063791D01*
X0012270Y0062993D02*
X0016420Y0062993D01*
X0016420Y0062194D02*
X0012270Y0062194D01*
X0012270Y0061396D02*
X0016420Y0061396D01*
X0016994Y0060597D02*
X0012270Y0060597D01*
X0012270Y0059799D02*
X0034770Y0059799D01*
X0034770Y0060597D02*
X0027745Y0060597D01*
X0028320Y0061396D02*
X0034770Y0061396D01*
X0034770Y0062194D02*
X0028320Y0062194D01*
X0028320Y0062993D02*
X0034770Y0062993D01*
X0034770Y0063791D02*
X0028320Y0063791D01*
X0028320Y0064590D02*
X0034770Y0064590D01*
X0034770Y0065388D02*
X0028320Y0065388D01*
X0028320Y0066187D02*
X0034770Y0066187D01*
X0034770Y0066985D02*
X0028320Y0066985D01*
X0028320Y0067784D02*
X0034770Y0067784D01*
X0034770Y0068582D02*
X0028320Y0068582D01*
X0028320Y0069381D02*
X0034770Y0069381D01*
X0034770Y0070179D02*
X0028320Y0070179D01*
X0028320Y0070978D02*
X0034770Y0070978D01*
X0034770Y0071776D02*
X0028320Y0071776D01*
X0028320Y0072575D02*
X0034770Y0072575D01*
X0034770Y0073373D02*
X0028320Y0073373D01*
X0028320Y0074172D02*
X0034770Y0074172D01*
X0034770Y0074970D02*
X0028320Y0074970D01*
X0028320Y0075769D02*
X0034770Y0075769D01*
X0034770Y0076568D02*
X0028320Y0076568D01*
X0028320Y0077366D02*
X0035006Y0077366D01*
X0035337Y0078165D02*
X0027984Y0078165D01*
X0027185Y0078963D02*
X0036076Y0078963D01*
X0044427Y0089500D02*
X0052470Y0089500D01*
X0052470Y0102279D01*
X0052424Y0102110D01*
X0052240Y0101790D01*
X0051979Y0101530D01*
X0051660Y0101345D01*
X0051304Y0101250D01*
X0047570Y0101250D01*
X0047570Y0105200D01*
X0046770Y0105200D01*
X0046770Y0101250D01*
X0043270Y0101250D01*
X0043270Y0090657D01*
X0044427Y0089500D01*
X0043784Y0090142D02*
X0052470Y0090142D01*
X0052470Y0090941D02*
X0043270Y0090941D01*
X0043270Y0091739D02*
X0052470Y0091739D01*
X0052470Y0092538D02*
X0043270Y0092538D01*
X0043270Y0093336D02*
X0052470Y0093336D01*
X0052470Y0094135D02*
X0043270Y0094135D01*
X0043270Y0094933D02*
X0052470Y0094933D01*
X0052470Y0095732D02*
X0043270Y0095732D01*
X0043270Y0096530D02*
X0052470Y0096530D01*
X0052470Y0097329D02*
X0043270Y0097329D01*
X0043270Y0098127D02*
X0052470Y0098127D01*
X0052470Y0098926D02*
X0043270Y0098926D01*
X0043270Y0099724D02*
X0052470Y0099724D01*
X0052470Y0100523D02*
X0043270Y0100523D01*
X0046770Y0101321D02*
X0047570Y0101321D01*
X0047570Y0102120D02*
X0046770Y0102120D01*
X0046770Y0102918D02*
X0047570Y0102918D01*
X0047570Y0103717D02*
X0046770Y0103717D01*
X0046770Y0104515D02*
X0047570Y0104515D01*
X0051570Y0101321D02*
X0052470Y0101321D01*
X0052470Y0102120D02*
X0052427Y0102120D01*
X0058070Y0102120D02*
X0060319Y0102120D01*
X0059520Y0101321D02*
X0058070Y0101321D01*
X0058070Y0100523D02*
X0058721Y0100523D01*
X0058070Y0102918D02*
X0064820Y0102918D01*
X0065458Y0103717D02*
X0058070Y0103717D01*
X0058070Y0104515D02*
X0084825Y0104515D01*
X0084027Y0103717D02*
X0078881Y0103717D01*
X0079520Y0102918D02*
X0083228Y0102918D01*
X0085624Y0105314D02*
X0075112Y0105314D01*
X0075720Y0106112D02*
X0086170Y0106112D01*
X0086170Y0106911D02*
X0075720Y0106911D01*
X0075720Y0107709D02*
X0086170Y0107709D01*
X0086772Y0108508D02*
X0075720Y0108508D01*
X0075720Y0109306D02*
X0087571Y0109306D01*
X0080805Y0130866D02*
X0080372Y0130866D01*
X0081475Y0131665D02*
X0012270Y0131665D01*
X0012270Y0132463D02*
X0082273Y0132463D01*
X0083072Y0133262D02*
X0012270Y0133262D01*
X0012270Y0134060D02*
X0121470Y0134060D01*
X0121470Y0133262D02*
X0116468Y0133262D01*
X0117266Y0132463D02*
X0121470Y0132463D01*
X0121470Y0131665D02*
X0118065Y0131665D01*
X0118863Y0130866D02*
X0121470Y0130866D01*
X0121470Y0130068D02*
X0119662Y0130068D01*
X0120946Y0129269D02*
X0121470Y0129269D01*
X0076168Y0130866D02*
X0075372Y0130866D01*
X0071168Y0130866D02*
X0070372Y0130866D01*
X0066168Y0130866D02*
X0065372Y0130866D01*
X0037793Y0123680D02*
X0027468Y0123680D01*
X0028267Y0122881D02*
X0036994Y0122881D01*
X0036195Y0122083D02*
X0028320Y0122083D01*
X0028320Y0121284D02*
X0035679Y0121284D01*
X0035348Y0120486D02*
X0028320Y0120486D01*
X0028320Y0119687D02*
X0035270Y0119687D01*
X0035270Y0118889D02*
X0028320Y0118889D01*
X0028320Y0118090D02*
X0035270Y0118090D01*
X0035270Y0117292D02*
X0028320Y0117292D01*
X0028320Y0116493D02*
X0035270Y0116493D01*
X0035270Y0115695D02*
X0028320Y0115695D01*
X0028320Y0114896D02*
X0035270Y0114896D01*
X0035270Y0114098D02*
X0028320Y0114098D01*
X0028320Y0113299D02*
X0035270Y0113299D01*
X0035270Y0112501D02*
X0028320Y0112501D01*
X0028320Y0111702D02*
X0035270Y0111702D01*
X0035270Y0110903D02*
X0028320Y0110903D01*
X0028320Y0110105D02*
X0035270Y0110105D01*
X0035270Y0109306D02*
X0028320Y0109306D01*
X0028320Y0108508D02*
X0035270Y0108508D01*
X0035270Y0107709D02*
X0028320Y0107709D01*
X0028320Y0106911D02*
X0035270Y0106911D01*
X0035270Y0106112D02*
X0028261Y0106112D01*
X0027462Y0105314D02*
X0035270Y0105314D01*
X0091782Y0084553D02*
X0096720Y0084553D01*
X0096720Y0085351D02*
X0092581Y0085351D01*
X0093241Y0086150D02*
X0096985Y0086150D01*
X0097783Y0086948D02*
X0093570Y0086948D01*
X0093570Y0087747D02*
X0098582Y0087747D01*
X0099380Y0088545D02*
X0093570Y0088545D01*
X0124070Y0087840D02*
X0124070Y0084300D01*
X0129610Y0084300D01*
X0129810Y0084500D01*
X0128670Y0084500D01*
X0128670Y0088100D01*
X0127870Y0088100D01*
X0127870Y0084500D01*
X0126613Y0084500D01*
X0124270Y0086843D01*
X0124270Y0088040D01*
X0124070Y0087840D01*
X0124070Y0087747D02*
X0124270Y0087747D01*
X0124270Y0086948D02*
X0124070Y0086948D01*
X0124070Y0086150D02*
X0124963Y0086150D01*
X0125762Y0085351D02*
X0124070Y0085351D01*
X0124070Y0084553D02*
X0126560Y0084553D01*
X0127870Y0084553D02*
X0128670Y0084553D01*
X0128670Y0085351D02*
X0127870Y0085351D01*
X0127870Y0086150D02*
X0128670Y0086150D01*
X0128670Y0086948D02*
X0127870Y0086948D01*
X0127870Y0087747D02*
X0128670Y0087747D01*
X0066874Y0038239D02*
X0062270Y0038239D01*
X0062270Y0039037D02*
X0066075Y0039037D01*
X0065277Y0039836D02*
X0062270Y0039836D01*
X0062270Y0040634D02*
X0064478Y0040634D01*
X0063680Y0041433D02*
X0062170Y0041433D01*
X0061840Y0042232D02*
X0062881Y0042232D01*
X0062083Y0043030D02*
X0061509Y0043030D01*
X0061284Y0043829D02*
X0060926Y0043829D01*
X0060486Y0044627D02*
X0060128Y0044627D01*
X0059687Y0045426D02*
X0058850Y0045426D01*
X0058889Y0046224D02*
X0012270Y0046224D01*
X0012270Y0045426D02*
X0053689Y0045426D01*
X0052411Y0044627D02*
X0034583Y0044627D01*
X0034600Y0044618D02*
X0033843Y0045004D01*
X0033034Y0045267D01*
X0032195Y0045400D01*
X0032170Y0045400D01*
X0032170Y0038400D01*
X0037170Y0038400D01*
X0037170Y0040425D01*
X0037037Y0041265D01*
X0036774Y0042073D01*
X0036388Y0042830D01*
X0035889Y0043518D01*
X0035288Y0044119D01*
X0034600Y0044618D01*
X0035578Y0043829D02*
X0051613Y0043829D01*
X0051030Y0043030D02*
X0036243Y0043030D01*
X0036693Y0042232D02*
X0050700Y0042232D01*
X0050369Y0041433D02*
X0036982Y0041433D01*
X0037137Y0040634D02*
X0050270Y0040634D01*
X0050270Y0039836D02*
X0037170Y0039836D01*
X0037170Y0039037D02*
X0050270Y0039037D01*
X0050270Y0038239D02*
X0032170Y0038239D01*
X0032170Y0038400D02*
X0032170Y0037600D01*
X0037170Y0037600D01*
X0037170Y0035575D01*
X0037037Y0034735D01*
X0036774Y0033927D01*
X0036388Y0033170D01*
X0035889Y0032482D01*
X0035288Y0031881D01*
X0034600Y0031382D01*
X0033843Y0030996D01*
X0033034Y0030733D01*
X0032195Y0030600D01*
X0032170Y0030600D01*
X0032170Y0037600D01*
X0031370Y0037600D01*
X0031370Y0030600D01*
X0031345Y0030600D01*
X0030505Y0030733D01*
X0029697Y0030996D01*
X0028939Y0031382D01*
X0028252Y0031881D01*
X0027651Y0032482D01*
X0027151Y0033170D01*
X0026765Y0033927D01*
X0026503Y0034735D01*
X0026370Y0035575D01*
X0026370Y0037600D01*
X0031370Y0037600D01*
X0031370Y0038400D01*
X0031370Y0045400D01*
X0031345Y0045400D01*
X0030505Y0045267D01*
X0029697Y0045004D01*
X0028939Y0044618D01*
X0028252Y0044119D01*
X0027651Y0043518D01*
X0027151Y0042830D01*
X0026765Y0042073D01*
X0026503Y0041265D01*
X0026370Y0040425D01*
X0026370Y0038400D01*
X0031370Y0038400D01*
X0032170Y0038400D01*
X0032170Y0039037D02*
X0031370Y0039037D01*
X0031370Y0038239D02*
X0012270Y0038239D01*
X0012270Y0039037D02*
X0026370Y0039037D01*
X0026370Y0039836D02*
X0012270Y0039836D01*
X0012270Y0040634D02*
X0026403Y0040634D01*
X0026557Y0041433D02*
X0012270Y0041433D01*
X0012270Y0042232D02*
X0026846Y0042232D01*
X0027296Y0043030D02*
X0012270Y0043030D01*
X0012270Y0043829D02*
X0027961Y0043829D01*
X0028956Y0044627D02*
X0012270Y0044627D01*
X0012270Y0047023D02*
X0042419Y0047023D01*
X0040792Y0047821D02*
X0012270Y0047821D01*
X0012270Y0048620D02*
X0039993Y0048620D01*
X0039195Y0049418D02*
X0012270Y0049418D01*
X0012270Y0050217D02*
X0038396Y0050217D01*
X0037598Y0051015D02*
X0012270Y0051015D01*
X0012270Y0051814D02*
X0036799Y0051814D01*
X0036001Y0052612D02*
X0012270Y0052612D01*
X0012270Y0053411D02*
X0035306Y0053411D01*
X0034975Y0054209D02*
X0012270Y0054209D01*
X0012270Y0055008D02*
X0034770Y0055008D01*
X0034770Y0055806D02*
X0012270Y0055806D01*
X0012270Y0056605D02*
X0034770Y0056605D01*
X0034770Y0057403D02*
X0012270Y0057403D01*
X0012270Y0058202D02*
X0034770Y0058202D01*
X0034770Y0059000D02*
X0012270Y0059000D01*
X0031370Y0044627D02*
X0032170Y0044627D01*
X0032170Y0043829D02*
X0031370Y0043829D01*
X0031370Y0043030D02*
X0032170Y0043030D01*
X0032170Y0042232D02*
X0031370Y0042232D01*
X0031370Y0041433D02*
X0032170Y0041433D01*
X0032170Y0040634D02*
X0031370Y0040634D01*
X0031370Y0039836D02*
X0032170Y0039836D01*
X0032170Y0037440D02*
X0031370Y0037440D01*
X0031370Y0036642D02*
X0032170Y0036642D01*
X0032170Y0035843D02*
X0031370Y0035843D01*
X0031370Y0035045D02*
X0032170Y0035045D01*
X0032170Y0034246D02*
X0031370Y0034246D01*
X0031370Y0033448D02*
X0032170Y0033448D01*
X0032170Y0032649D02*
X0031370Y0032649D01*
X0031370Y0031851D02*
X0032170Y0031851D01*
X0032170Y0031052D02*
X0031370Y0031052D01*
X0029585Y0031052D02*
X0012270Y0031052D01*
X0012270Y0030254D02*
X0054463Y0030254D01*
X0052732Y0031052D02*
X0033954Y0031052D01*
X0035246Y0031851D02*
X0051934Y0031851D01*
X0051163Y0032649D02*
X0036010Y0032649D01*
X0036530Y0033448D02*
X0050832Y0033448D01*
X0050502Y0034246D02*
X0036878Y0034246D01*
X0037086Y0035045D02*
X0050270Y0035045D01*
X0050270Y0035843D02*
X0037170Y0035843D01*
X0037170Y0036642D02*
X0050270Y0036642D01*
X0050270Y0037440D02*
X0037170Y0037440D01*
X0028293Y0031851D02*
X0012270Y0031851D01*
X0012270Y0032649D02*
X0027529Y0032649D01*
X0027009Y0033448D02*
X0012270Y0033448D01*
X0012270Y0034246D02*
X0026662Y0034246D01*
X0026454Y0035045D02*
X0012270Y0035045D01*
X0012270Y0035843D02*
X0026370Y0035843D01*
X0026370Y0036642D02*
X0012270Y0036642D01*
X0012270Y0037440D02*
X0026370Y0037440D01*
X0012270Y0029455D02*
X0059657Y0029455D01*
X0058859Y0030254D02*
X0058076Y0030254D01*
X0060456Y0028657D02*
X0012270Y0028657D01*
X0012270Y0027858D02*
X0061255Y0027858D01*
X0062053Y0027060D02*
X0012270Y0027060D01*
X0012270Y0026261D02*
X0062852Y0026261D01*
X0063650Y0025463D02*
X0012270Y0025463D01*
X0012270Y0024664D02*
X0064449Y0024664D01*
X0065247Y0023866D02*
X0046411Y0023866D01*
X0046195Y0023900D02*
X0044170Y0023900D01*
X0044170Y0018900D01*
X0051170Y0018900D01*
X0051170Y0018925D01*
X0051037Y0019765D01*
X0050774Y0020573D01*
X0050388Y0021330D01*
X0049889Y0022018D01*
X0049288Y0022619D01*
X0048600Y0023118D01*
X0047843Y0023504D01*
X0047034Y0023767D01*
X0046195Y0023900D01*
X0044170Y0023866D02*
X0043370Y0023866D01*
X0043370Y0023900D02*
X0041345Y0023900D01*
X0040505Y0023767D01*
X0039697Y0023504D01*
X0038939Y0023118D01*
X0038252Y0022619D01*
X0037651Y0022018D01*
X0037151Y0021330D01*
X0036765Y0020573D01*
X0036503Y0019765D01*
X0036370Y0018925D01*
X0036370Y0018900D01*
X0043370Y0018900D01*
X0043370Y0023900D01*
X0043370Y0023067D02*
X0044170Y0023067D01*
X0044170Y0022269D02*
X0043370Y0022269D01*
X0043370Y0021470D02*
X0044170Y0021470D01*
X0044170Y0020672D02*
X0043370Y0020672D01*
X0043370Y0019873D02*
X0044170Y0019873D01*
X0044170Y0019075D02*
X0043370Y0019075D01*
X0043370Y0018900D02*
X0044170Y0018900D01*
X0044170Y0018100D01*
X0051170Y0018100D01*
X0051170Y0018075D01*
X0051037Y0017235D01*
X0050774Y0016427D01*
X0050388Y0015670D01*
X0049889Y0014982D01*
X0049288Y0014381D01*
X0048600Y0013882D01*
X0047843Y0013496D01*
X0047034Y0013233D01*
X0046195Y0013100D01*
X0044170Y0013100D01*
X0044170Y0018100D01*
X0043370Y0018100D01*
X0043370Y0013100D01*
X0041345Y0013100D01*
X0040505Y0013233D01*
X0039697Y0013496D01*
X0038939Y0013882D01*
X0038252Y0014381D01*
X0037651Y0014982D01*
X0037151Y0015670D01*
X0036765Y0016427D01*
X0036503Y0017235D01*
X0036370Y0018075D01*
X0036370Y0018100D01*
X0043370Y0018100D01*
X0043370Y0018900D01*
X0043370Y0018276D02*
X0012270Y0018276D01*
X0012270Y0017478D02*
X0036464Y0017478D01*
X0036683Y0016679D02*
X0012270Y0016679D01*
X0012270Y0015881D02*
X0037044Y0015881D01*
X0037578Y0015082D02*
X0012270Y0015082D01*
X0012270Y0014284D02*
X0038386Y0014284D01*
X0039729Y0013485D02*
X0012270Y0013485D01*
X0012270Y0012687D02*
X0056952Y0012687D01*
X0056621Y0013485D02*
X0047810Y0013485D01*
X0049153Y0014284D02*
X0056470Y0014284D01*
X0056470Y0015082D02*
X0049961Y0015082D01*
X0050496Y0015881D02*
X0056470Y0015881D01*
X0056470Y0016679D02*
X0050856Y0016679D01*
X0051075Y0017478D02*
X0056606Y0017478D01*
X0056937Y0018276D02*
X0044170Y0018276D01*
X0044170Y0017478D02*
X0043370Y0017478D01*
X0043370Y0016679D02*
X0044170Y0016679D01*
X0044170Y0015881D02*
X0043370Y0015881D01*
X0043370Y0015082D02*
X0044170Y0015082D01*
X0044170Y0014284D02*
X0043370Y0014284D01*
X0043370Y0013485D02*
X0044170Y0013485D01*
X0051146Y0019075D02*
X0057267Y0019075D01*
X0057598Y0019873D02*
X0051001Y0019873D01*
X0050724Y0020672D02*
X0058205Y0020672D01*
X0059003Y0021470D02*
X0050286Y0021470D01*
X0049638Y0022269D02*
X0059802Y0022269D01*
X0061352Y0023067D02*
X0048670Y0023067D01*
X0041129Y0023866D02*
X0012270Y0023866D01*
X0012270Y0023067D02*
X0038869Y0023067D01*
X0037902Y0022269D02*
X0012270Y0022269D01*
X0012270Y0021470D02*
X0037253Y0021470D01*
X0036816Y0020672D02*
X0012270Y0020672D01*
X0012270Y0019873D02*
X0036538Y0019873D01*
X0036393Y0019075D02*
X0012270Y0019075D01*
X0012270Y0011888D02*
X0057283Y0011888D01*
X0057614Y0011090D02*
X0012270Y0011090D01*
X0012270Y0010291D02*
X0058242Y0010291D01*
X0059040Y0009493D02*
X0012270Y0009493D01*
X0012489Y0008694D02*
X0059839Y0008694D01*
X0071298Y0010291D02*
X0075874Y0010291D01*
X0074119Y0011090D02*
X0071926Y0011090D01*
X0072257Y0011888D02*
X0073321Y0011888D01*
X0072648Y0012687D02*
X0072587Y0012687D01*
X0081219Y0011888D02*
X0087537Y0011888D01*
X0086426Y0012687D02*
X0081891Y0012687D01*
X0082222Y0013485D02*
X0085628Y0013485D01*
X0085879Y0013234D02*
X0085879Y0013234D01*
X0084829Y0014284D02*
X0082553Y0014284D01*
X0082616Y0015082D02*
X0084031Y0015082D01*
X0083232Y0015881D02*
X0082616Y0015881D01*
X0067212Y0033448D02*
X0066979Y0033448D01*
X0067770Y0034246D02*
X0066180Y0034246D01*
X0065382Y0035045D02*
X0067770Y0035045D01*
X0067770Y0035843D02*
X0064583Y0035843D01*
X0063785Y0036642D02*
X0067770Y0036642D01*
X0067672Y0037440D02*
X0062986Y0037440D01*
X0194770Y0038239D02*
X0196250Y0038239D01*
X0195440Y0039037D02*
X0194770Y0039037D01*
X0194770Y0039836D02*
X0194955Y0039836D01*
X0198370Y0039836D02*
X0199170Y0039836D01*
X0199170Y0040634D02*
X0198370Y0040634D01*
X0198370Y0041433D02*
X0199170Y0041433D01*
X0199170Y0039037D02*
X0198370Y0039037D01*
X0198370Y0038239D02*
X0199170Y0038239D01*
X0194770Y0035843D02*
X0208456Y0035843D01*
X0207658Y0035045D02*
X0194770Y0035045D01*
X0195370Y0034246D02*
X0206859Y0034246D01*
X0206770Y0033448D02*
X0195370Y0033448D01*
X0198370Y0043829D02*
X0199170Y0043829D01*
X0199170Y0044627D02*
X0198370Y0044627D01*
X0198370Y0045426D02*
X0199170Y0045426D01*
X0199170Y0046224D02*
X0198370Y0046224D01*
X0198370Y0047023D02*
X0199170Y0047023D01*
X0199170Y0047821D02*
X0198370Y0047821D01*
X0202056Y0047023D02*
X0204661Y0047023D01*
X0204330Y0046224D02*
X0202554Y0046224D01*
X0202853Y0045426D02*
X0203999Y0045426D01*
X0203970Y0044627D02*
X0202970Y0044627D01*
X0202970Y0043829D02*
X0203970Y0043829D01*
X0211126Y0048620D02*
X0216414Y0048620D01*
X0215403Y0047821D02*
X0212137Y0047821D01*
X0212879Y0047023D02*
X0214661Y0047023D01*
X0214330Y0046224D02*
X0213210Y0046224D01*
X0213540Y0045426D02*
X0213999Y0045426D01*
X0213970Y0044627D02*
X0213570Y0044627D01*
X0213570Y0043829D02*
X0213970Y0043829D01*
X0213970Y0043030D02*
X0213570Y0043030D01*
X0211570Y0105314D02*
X0221970Y0105314D01*
X0221970Y0106112D02*
X0211570Y0106112D01*
X0211570Y0106911D02*
X0221970Y0106911D01*
X0221970Y0107709D02*
X0211570Y0107709D01*
X0211570Y0108508D02*
X0221970Y0108508D01*
X0222073Y0109306D02*
X0211570Y0109306D01*
X0211570Y0110105D02*
X0213159Y0110105D01*
X0212361Y0110903D02*
X0211570Y0110903D01*
X0218380Y0110105D02*
X0220659Y0110105D01*
X0219861Y0110903D02*
X0219179Y0110903D01*
X0109370Y0205926D02*
X0108770Y0205926D01*
D35*
X0076270Y0176000D02*
X0079770Y0172500D01*
X0076270Y0176000D02*
X0061270Y0176000D01*
D36*
X0149770Y0175500D03*
X0159770Y0175500D03*
X0169770Y0175500D03*
X0179770Y0175500D03*
X0189770Y0175500D03*
X0199770Y0175500D03*
X0209770Y0175500D03*
X0219770Y0175500D03*
X0229770Y0175500D03*
X0239770Y0175500D03*
X0249770Y0175500D03*
X0259770Y0175500D03*
X0259770Y0165500D03*
X0249770Y0165500D03*
X0239770Y0165500D03*
X0229770Y0165500D03*
X0219770Y0165500D03*
X0209770Y0165500D03*
X0199770Y0165500D03*
X0189770Y0165500D03*
X0179770Y0165500D03*
X0169770Y0165500D03*
X0159770Y0165500D03*
X0149770Y0165500D03*
X0149770Y0155500D03*
X0159770Y0155500D03*
X0169770Y0155500D03*
X0179770Y0155500D03*
X0189770Y0155500D03*
X0199770Y0155500D03*
X0209770Y0155500D03*
X0219770Y0155500D03*
X0229770Y0155500D03*
X0239770Y0155500D03*
X0249770Y0155500D03*
X0259770Y0155500D03*
X0269770Y0155500D03*
X0259770Y0145500D03*
X0249770Y0145500D03*
X0239770Y0145500D03*
X0229770Y0145500D03*
X0219770Y0145500D03*
X0209770Y0145500D03*
X0199770Y0145500D03*
X0189770Y0145500D03*
X0179770Y0145500D03*
X0169770Y0145500D03*
X0159770Y0145500D03*
X0159770Y0135500D03*
X0169770Y0135500D03*
X0179770Y0135500D03*
X0189770Y0135500D03*
X0199770Y0135500D03*
X0209770Y0135500D03*
X0219770Y0135500D03*
X0229770Y0135500D03*
X0239770Y0135500D03*
X0249770Y0135500D03*
X0259770Y0135500D03*
X0269770Y0135500D03*
X0269770Y0125500D03*
X0259770Y0125500D03*
X0249770Y0125500D03*
X0239770Y0125500D03*
X0229770Y0125500D03*
X0219770Y0125500D03*
X0209770Y0125500D03*
X0199770Y0125500D03*
X0189770Y0125500D03*
X0179770Y0125500D03*
X0169770Y0125500D03*
X0159770Y0125500D03*
X0159770Y0185500D03*
X0149770Y0185500D03*
X0169770Y0185500D03*
X0179770Y0185500D03*
X0189770Y0185500D03*
X0199770Y0185500D03*
X0209770Y0185500D03*
X0219770Y0185500D03*
X0229770Y0185500D03*
X0239770Y0185500D03*
M02*
