G04 EAGLE Gerber RS-274X export*
G75*
%MOMM*%
%FSLAX34Y34*%
%LPD*%
%INTop Solder Mask*%
%IPPOS*%
%AMOC8*
5,1,8,0,0,1.08239X$1,22.5*%
G01*
%ADD10C,3.301600*%
%ADD11C,1.524000*%
%ADD12P,1.787675X8X292.500000*%
%ADD13C,1.625600*%
%ADD14P,1.842011X8X112.500000*%
%ADD15C,1.701800*%
%ADD16P,1.539592X8X202.500000*%
%ADD17P,1.539592X8X22.500000*%
%ADD18R,0.889000X0.990600*%
%ADD19P,1.539592X8X292.500000*%
%ADD20R,2.301600X0.701600*%
%ADD21R,2.108200X1.600200*%
%ADD22R,2.108200X3.911600*%
%ADD23R,2.601600X2.101600*%
%ADD24R,3.401600X2.101600*%
%ADD25R,3.201600X0.601600*%
%ADD26C,1.001600*%
%ADD27C,1.422400*%
%ADD28R,0.736600X1.625600*%
%ADD29C,1.801600*%
%ADD30P,1.539592X8X112.500000*%
%ADD31P,1.759533X8X22.500000*%
%ADD32C,2.101600*%
%ADD33R,1.751600X1.751600*%


D10*
X660400Y355600D03*
X660400Y76200D03*
X152400Y508000D03*
X139700Y25400D03*
D11*
X632460Y167894D02*
X632460Y175006D01*
X607060Y175006D02*
X607060Y167894D01*
X581660Y167894D02*
X581660Y175006D01*
X556260Y175006D02*
X556260Y167894D01*
X530860Y167894D02*
X530860Y175006D01*
X505460Y175006D02*
X505460Y167894D01*
X480060Y167894D02*
X480060Y175006D01*
X454660Y175006D02*
X454660Y167894D01*
X429260Y167894D02*
X429260Y175006D01*
X403860Y175006D02*
X403860Y167894D01*
X378460Y167894D02*
X378460Y175006D01*
X353060Y175006D02*
X353060Y167894D01*
X327660Y167894D02*
X327660Y175006D01*
X302260Y175006D02*
X302260Y167894D01*
X302260Y98806D02*
X302260Y91694D01*
X327660Y91694D02*
X327660Y98806D01*
X353060Y98806D02*
X353060Y91694D01*
X378460Y91694D02*
X378460Y98806D01*
X403860Y98806D02*
X403860Y91694D01*
X429260Y91694D02*
X429260Y98806D01*
X454660Y98806D02*
X454660Y91694D01*
X480060Y91694D02*
X480060Y98806D01*
X505460Y98806D02*
X505460Y91694D01*
X530860Y91694D02*
X530860Y98806D01*
X556260Y98806D02*
X556260Y91694D01*
X581660Y91694D02*
X581660Y98806D01*
X607060Y98806D02*
X607060Y91694D01*
X632460Y91694D02*
X632460Y98806D01*
D12*
X635000Y276860D03*
X660400Y276860D03*
X635000Y251460D03*
X660400Y251460D03*
X635000Y226060D03*
X660400Y226060D03*
D11*
X635000Y504444D02*
X635000Y511556D01*
X609600Y511556D02*
X609600Y504444D01*
X584200Y504444D02*
X584200Y511556D01*
X558800Y511556D02*
X558800Y504444D01*
X533400Y504444D02*
X533400Y511556D01*
X508000Y511556D02*
X508000Y504444D01*
X482600Y504444D02*
X482600Y511556D01*
X457200Y511556D02*
X457200Y504444D01*
D13*
X416560Y504190D02*
X416560Y511810D01*
X391160Y511810D02*
X391160Y504190D01*
X365760Y504190D02*
X365760Y511810D01*
X340360Y511810D02*
X340360Y504190D01*
X314960Y504190D02*
X314960Y511810D01*
X289560Y511810D02*
X289560Y504190D01*
X264160Y504190D02*
X264160Y511810D01*
X238760Y511810D02*
X238760Y504190D01*
X213360Y504190D02*
X213360Y511810D01*
X187960Y511810D02*
X187960Y504190D01*
D11*
X508000Y28956D02*
X508000Y21844D01*
X533400Y21844D02*
X533400Y28956D01*
X558800Y28956D02*
X558800Y21844D01*
X584200Y21844D02*
X584200Y28956D01*
X609600Y28956D02*
X609600Y21844D01*
X635000Y21844D02*
X635000Y28956D01*
D14*
X232410Y80010D03*
D15*
X232410Y54610D03*
D14*
X232410Y139700D03*
D15*
X232410Y114300D03*
D16*
X326390Y259080D03*
X300990Y259080D03*
X326390Y306070D03*
X300990Y306070D03*
X326390Y353060D03*
X300990Y353060D03*
X510540Y68580D03*
X459740Y68580D03*
D17*
X182880Y383540D03*
X233680Y383540D03*
D16*
X326390Y210820D03*
X300990Y210820D03*
D18*
X148844Y241300D03*
X168148Y241300D03*
X158496Y261620D03*
D19*
X497840Y248920D03*
X497840Y198120D03*
D17*
X544830Y274320D03*
X595630Y274320D03*
X387350Y68580D03*
X438150Y68580D03*
D13*
X23368Y516636D02*
X15748Y516636D01*
X15748Y471424D02*
X23368Y471424D01*
X80772Y516636D02*
X88392Y516636D01*
X88392Y471424D02*
X80772Y471424D01*
D11*
X279400Y28956D02*
X279400Y21844D01*
X304800Y21844D02*
X304800Y28956D01*
X330200Y28956D02*
X330200Y21844D01*
X355600Y21844D02*
X355600Y28956D01*
X381000Y28956D02*
X381000Y21844D01*
X406400Y21844D02*
X406400Y28956D01*
X431800Y28956D02*
X431800Y21844D01*
X457200Y21844D02*
X457200Y28956D01*
D20*
X132750Y201930D03*
X184750Y201930D03*
X132750Y214630D03*
X132750Y189230D03*
X132750Y176530D03*
X184750Y214630D03*
X184750Y189230D03*
X184750Y176530D03*
D21*
X94996Y139954D03*
X94996Y162814D03*
X94996Y185674D03*
D22*
X32004Y162560D03*
D21*
X94996Y254254D03*
X94996Y277114D03*
X94996Y299974D03*
D22*
X32004Y276860D03*
D23*
X25880Y345390D03*
X25880Y434390D03*
D24*
X84880Y345390D03*
X84880Y434390D03*
D25*
X85880Y405890D03*
X85880Y397890D03*
X85880Y389890D03*
X85880Y381890D03*
X85880Y373890D03*
D26*
X55880Y411890D03*
X55880Y367890D03*
D27*
X454660Y236220D03*
X406400Y236220D03*
D28*
X212090Y359690D03*
X186690Y305790D03*
X224790Y359690D03*
X199390Y359690D03*
X186690Y359690D03*
X199390Y305790D03*
X173990Y305790D03*
X161290Y305790D03*
X161290Y359690D03*
X135890Y305790D03*
X173990Y359690D03*
X148590Y359690D03*
X148590Y305790D03*
X135890Y359690D03*
X212090Y305790D03*
X224790Y305790D03*
D17*
X359410Y198120D03*
X410210Y198120D03*
D16*
X480060Y198120D03*
X429260Y198120D03*
D27*
X177800Y424180D03*
X226060Y424180D03*
D13*
X603250Y238760D02*
X603250Y231140D01*
X577850Y231140D02*
X577850Y238760D01*
D29*
X254000Y25400D03*
X177800Y25400D03*
D14*
X232410Y199390D03*
D15*
X232410Y173990D03*
D19*
X157480Y142240D03*
X157480Y66040D03*
D30*
X187960Y66040D03*
X187960Y142240D03*
D17*
X205740Y255270D03*
X281940Y255270D03*
D16*
X281940Y228600D03*
X205740Y228600D03*
D19*
X273050Y448310D03*
X273050Y397510D03*
X130810Y433070D03*
X130810Y382270D03*
D30*
X302260Y383540D03*
X302260Y459740D03*
X327660Y383540D03*
X327660Y459740D03*
D19*
X247650Y358140D03*
X247650Y281940D03*
X274320Y358140D03*
X274320Y281940D03*
X523240Y274320D03*
X523240Y198120D03*
D31*
X157480Y276860D03*
X182880Y233680D03*
X134620Y233680D03*
D32*
X55880Y93550D02*
X55880Y71550D01*
X118110Y69050D02*
X118110Y96050D01*
X97360Y33020D02*
X75360Y33020D01*
D16*
X647700Y200660D03*
X571500Y200660D03*
D33*
X660400Y304800D03*
X635000Y304800D03*
X355600Y457200D03*
X355600Y431800D03*
X381000Y431800D03*
X406400Y431800D03*
X431800Y431800D03*
X457200Y431800D03*
X482600Y431800D03*
X508000Y431800D03*
X533400Y431800D03*
X558800Y431800D03*
X584200Y431800D03*
X406400Y457200D03*
X431800Y457200D03*
X457200Y457200D03*
X482600Y457200D03*
X508000Y457200D03*
X533400Y457200D03*
X558800Y457200D03*
X584200Y457200D03*
X355600Y406400D03*
X381000Y406400D03*
X406400Y406400D03*
X431800Y406400D03*
X457200Y406400D03*
X482600Y406400D03*
X508000Y406400D03*
X533400Y406400D03*
X558800Y406400D03*
X584200Y406400D03*
X609600Y406400D03*
X635000Y406400D03*
X355600Y381000D03*
X381000Y381000D03*
X406400Y381000D03*
X431800Y381000D03*
X457200Y381000D03*
X482600Y381000D03*
X508000Y381000D03*
X533400Y381000D03*
X558800Y381000D03*
X584200Y381000D03*
X609600Y381000D03*
X635000Y381000D03*
X381000Y355600D03*
X406400Y355600D03*
X431800Y355600D03*
X457200Y355600D03*
X482600Y355600D03*
X508000Y355600D03*
X533400Y355600D03*
X558800Y355600D03*
X584200Y355600D03*
X609600Y355600D03*
X635000Y355600D03*
X381000Y330200D03*
X406400Y330200D03*
X431800Y330200D03*
X457200Y330200D03*
X482600Y330200D03*
X508000Y330200D03*
X533400Y330200D03*
X558800Y330200D03*
X584200Y330200D03*
X609600Y330200D03*
X635000Y330200D03*
X381000Y304800D03*
X406400Y304800D03*
X431800Y304800D03*
X457200Y304800D03*
X482600Y304800D03*
X508000Y304800D03*
X533400Y304800D03*
X558800Y304800D03*
X584200Y304800D03*
X609600Y304800D03*
X660400Y330200D03*
X381000Y457200D03*
X609600Y431800D03*
X635000Y431800D03*
X660400Y381000D03*
M02*
