G75*
%MOIN*%
%OFA0B0*%
%FSLAX25Y25*%
%IPPOS*%
%LPD*%
%AMOC8*
5,1,8,0,0,1.08239X$1,22.5*
%
%ADD10C,0.01000*%
%ADD11C,0.00000*%
%ADD12C,0.12998*%
%ADD13C,0.06000*%
%ADD14OC8,0.06502*%
%ADD15C,0.06400*%
%ADD16OC8,0.06700*%
%ADD17C,0.06700*%
%ADD18OC8,0.05600*%
%ADD19R,0.03500X0.03900*%
%ADD20R,0.09061X0.02762*%
%ADD21R,0.08300X0.06300*%
%ADD22R,0.08300X0.15400*%
%ADD23R,0.10243X0.08274*%
%ADD24R,0.13392X0.08274*%
%ADD25R,0.12605X0.02369*%
%ADD26C,0.03943*%
%ADD27C,0.05600*%
%ADD28R,0.02900X0.06400*%
%ADD29C,0.07093*%
%ADD30OC8,0.06400*%
%ADD31C,0.08400*%
%ADD32R,0.06896X0.06896*%
D10*
X0009770Y0009437D02*
X0009770Y0211563D01*
X0009772Y0211687D01*
X0009778Y0211810D01*
X0009787Y0211934D01*
X0009801Y0212056D01*
X0009818Y0212179D01*
X0009840Y0212301D01*
X0009865Y0212422D01*
X0009894Y0212542D01*
X0009926Y0212661D01*
X0009963Y0212780D01*
X0010003Y0212897D01*
X0010046Y0213012D01*
X0010094Y0213127D01*
X0010145Y0213239D01*
X0010199Y0213350D01*
X0010257Y0213460D01*
X0010318Y0213567D01*
X0010383Y0213673D01*
X0010451Y0213776D01*
X0010522Y0213877D01*
X0010596Y0213976D01*
X0010673Y0214073D01*
X0010754Y0214167D01*
X0010837Y0214258D01*
X0010923Y0214347D01*
X0011012Y0214433D01*
X0011103Y0214516D01*
X0011197Y0214597D01*
X0011294Y0214674D01*
X0011393Y0214748D01*
X0011494Y0214819D01*
X0011597Y0214887D01*
X0011703Y0214952D01*
X0011810Y0215013D01*
X0011920Y0215071D01*
X0012031Y0215125D01*
X0012143Y0215176D01*
X0012258Y0215224D01*
X0012373Y0215267D01*
X0012490Y0215307D01*
X0012609Y0215344D01*
X0012728Y0215376D01*
X0012848Y0215405D01*
X0012969Y0215430D01*
X0013091Y0215452D01*
X0013214Y0215469D01*
X0013336Y0215483D01*
X0013460Y0215492D01*
X0013583Y0215498D01*
X0013707Y0215500D01*
X0263770Y0215500D01*
X0269770Y0209500D01*
X0269770Y0164500D01*
X0279770Y0154500D01*
X0279770Y0025500D01*
X0269770Y0015500D01*
X0269770Y0009437D01*
X0269768Y0009313D01*
X0269762Y0009190D01*
X0269753Y0009066D01*
X0269739Y0008944D01*
X0269722Y0008821D01*
X0269700Y0008699D01*
X0269675Y0008578D01*
X0269646Y0008458D01*
X0269614Y0008339D01*
X0269577Y0008220D01*
X0269537Y0008103D01*
X0269494Y0007988D01*
X0269446Y0007873D01*
X0269395Y0007761D01*
X0269341Y0007650D01*
X0269283Y0007540D01*
X0269222Y0007433D01*
X0269157Y0007327D01*
X0269089Y0007224D01*
X0269018Y0007123D01*
X0268944Y0007024D01*
X0268867Y0006927D01*
X0268786Y0006833D01*
X0268703Y0006742D01*
X0268617Y0006653D01*
X0268528Y0006567D01*
X0268437Y0006484D01*
X0268343Y0006403D01*
X0268246Y0006326D01*
X0268147Y0006252D01*
X0268046Y0006181D01*
X0267943Y0006113D01*
X0267837Y0006048D01*
X0267730Y0005987D01*
X0267620Y0005929D01*
X0267509Y0005875D01*
X0267397Y0005824D01*
X0267282Y0005776D01*
X0267167Y0005733D01*
X0267050Y0005693D01*
X0266931Y0005656D01*
X0266812Y0005624D01*
X0266692Y0005595D01*
X0266571Y0005570D01*
X0266449Y0005548D01*
X0266326Y0005531D01*
X0266204Y0005517D01*
X0266080Y0005508D01*
X0265957Y0005502D01*
X0265833Y0005500D01*
X0013707Y0005500D01*
X0013583Y0005502D01*
X0013460Y0005508D01*
X0013336Y0005517D01*
X0013214Y0005531D01*
X0013091Y0005548D01*
X0012969Y0005570D01*
X0012848Y0005595D01*
X0012728Y0005624D01*
X0012609Y0005656D01*
X0012490Y0005693D01*
X0012373Y0005733D01*
X0012258Y0005776D01*
X0012143Y0005824D01*
X0012031Y0005875D01*
X0011920Y0005929D01*
X0011810Y0005987D01*
X0011703Y0006048D01*
X0011597Y0006113D01*
X0011494Y0006181D01*
X0011393Y0006252D01*
X0011294Y0006326D01*
X0011197Y0006403D01*
X0011103Y0006484D01*
X0011012Y0006567D01*
X0010923Y0006653D01*
X0010837Y0006742D01*
X0010754Y0006833D01*
X0010673Y0006927D01*
X0010596Y0007024D01*
X0010522Y0007123D01*
X0010451Y0007224D01*
X0010383Y0007327D01*
X0010318Y0007433D01*
X0010257Y0007540D01*
X0010199Y0007650D01*
X0010145Y0007761D01*
X0010094Y0007873D01*
X0010046Y0007988D01*
X0010003Y0008103D01*
X0009963Y0008220D01*
X0009926Y0008339D01*
X0009894Y0008458D01*
X0009865Y0008578D01*
X0009840Y0008699D01*
X0009818Y0008821D01*
X0009801Y0008944D01*
X0009787Y0009066D01*
X0009778Y0009190D01*
X0009772Y0009313D01*
X0009770Y0009437D01*
D11*
X0058471Y0015500D02*
X0058473Y0015658D01*
X0058479Y0015816D01*
X0058489Y0015974D01*
X0058503Y0016132D01*
X0058521Y0016289D01*
X0058542Y0016446D01*
X0058568Y0016602D01*
X0058598Y0016758D01*
X0058631Y0016913D01*
X0058669Y0017066D01*
X0058710Y0017219D01*
X0058755Y0017371D01*
X0058804Y0017522D01*
X0058857Y0017671D01*
X0058913Y0017819D01*
X0058973Y0017965D01*
X0059037Y0018110D01*
X0059105Y0018253D01*
X0059176Y0018395D01*
X0059250Y0018535D01*
X0059328Y0018672D01*
X0059410Y0018808D01*
X0059494Y0018942D01*
X0059583Y0019073D01*
X0059674Y0019202D01*
X0059769Y0019329D01*
X0059866Y0019454D01*
X0059967Y0019576D01*
X0060071Y0019695D01*
X0060178Y0019812D01*
X0060288Y0019926D01*
X0060401Y0020037D01*
X0060516Y0020146D01*
X0060634Y0020251D01*
X0060755Y0020353D01*
X0060878Y0020453D01*
X0061004Y0020549D01*
X0061132Y0020642D01*
X0061262Y0020732D01*
X0061395Y0020818D01*
X0061530Y0020902D01*
X0061666Y0020981D01*
X0061805Y0021058D01*
X0061946Y0021130D01*
X0062088Y0021200D01*
X0062232Y0021265D01*
X0062378Y0021327D01*
X0062525Y0021385D01*
X0062674Y0021440D01*
X0062824Y0021491D01*
X0062975Y0021538D01*
X0063127Y0021581D01*
X0063280Y0021620D01*
X0063435Y0021656D01*
X0063590Y0021687D01*
X0063746Y0021715D01*
X0063902Y0021739D01*
X0064059Y0021759D01*
X0064217Y0021775D01*
X0064374Y0021787D01*
X0064533Y0021795D01*
X0064691Y0021799D01*
X0064849Y0021799D01*
X0065007Y0021795D01*
X0065166Y0021787D01*
X0065323Y0021775D01*
X0065481Y0021759D01*
X0065638Y0021739D01*
X0065794Y0021715D01*
X0065950Y0021687D01*
X0066105Y0021656D01*
X0066260Y0021620D01*
X0066413Y0021581D01*
X0066565Y0021538D01*
X0066716Y0021491D01*
X0066866Y0021440D01*
X0067015Y0021385D01*
X0067162Y0021327D01*
X0067308Y0021265D01*
X0067452Y0021200D01*
X0067594Y0021130D01*
X0067735Y0021058D01*
X0067874Y0020981D01*
X0068010Y0020902D01*
X0068145Y0020818D01*
X0068278Y0020732D01*
X0068408Y0020642D01*
X0068536Y0020549D01*
X0068662Y0020453D01*
X0068785Y0020353D01*
X0068906Y0020251D01*
X0069024Y0020146D01*
X0069139Y0020037D01*
X0069252Y0019926D01*
X0069362Y0019812D01*
X0069469Y0019695D01*
X0069573Y0019576D01*
X0069674Y0019454D01*
X0069771Y0019329D01*
X0069866Y0019202D01*
X0069957Y0019073D01*
X0070046Y0018942D01*
X0070130Y0018808D01*
X0070212Y0018672D01*
X0070290Y0018535D01*
X0070364Y0018395D01*
X0070435Y0018253D01*
X0070503Y0018110D01*
X0070567Y0017965D01*
X0070627Y0017819D01*
X0070683Y0017671D01*
X0070736Y0017522D01*
X0070785Y0017371D01*
X0070830Y0017219D01*
X0070871Y0017066D01*
X0070909Y0016913D01*
X0070942Y0016758D01*
X0070972Y0016602D01*
X0070998Y0016446D01*
X0071019Y0016289D01*
X0071037Y0016132D01*
X0071051Y0015974D01*
X0071061Y0015816D01*
X0071067Y0015658D01*
X0071069Y0015500D01*
X0071067Y0015342D01*
X0071061Y0015184D01*
X0071051Y0015026D01*
X0071037Y0014868D01*
X0071019Y0014711D01*
X0070998Y0014554D01*
X0070972Y0014398D01*
X0070942Y0014242D01*
X0070909Y0014087D01*
X0070871Y0013934D01*
X0070830Y0013781D01*
X0070785Y0013629D01*
X0070736Y0013478D01*
X0070683Y0013329D01*
X0070627Y0013181D01*
X0070567Y0013035D01*
X0070503Y0012890D01*
X0070435Y0012747D01*
X0070364Y0012605D01*
X0070290Y0012465D01*
X0070212Y0012328D01*
X0070130Y0012192D01*
X0070046Y0012058D01*
X0069957Y0011927D01*
X0069866Y0011798D01*
X0069771Y0011671D01*
X0069674Y0011546D01*
X0069573Y0011424D01*
X0069469Y0011305D01*
X0069362Y0011188D01*
X0069252Y0011074D01*
X0069139Y0010963D01*
X0069024Y0010854D01*
X0068906Y0010749D01*
X0068785Y0010647D01*
X0068662Y0010547D01*
X0068536Y0010451D01*
X0068408Y0010358D01*
X0068278Y0010268D01*
X0068145Y0010182D01*
X0068010Y0010098D01*
X0067874Y0010019D01*
X0067735Y0009942D01*
X0067594Y0009870D01*
X0067452Y0009800D01*
X0067308Y0009735D01*
X0067162Y0009673D01*
X0067015Y0009615D01*
X0066866Y0009560D01*
X0066716Y0009509D01*
X0066565Y0009462D01*
X0066413Y0009419D01*
X0066260Y0009380D01*
X0066105Y0009344D01*
X0065950Y0009313D01*
X0065794Y0009285D01*
X0065638Y0009261D01*
X0065481Y0009241D01*
X0065323Y0009225D01*
X0065166Y0009213D01*
X0065007Y0009205D01*
X0064849Y0009201D01*
X0064691Y0009201D01*
X0064533Y0009205D01*
X0064374Y0009213D01*
X0064217Y0009225D01*
X0064059Y0009241D01*
X0063902Y0009261D01*
X0063746Y0009285D01*
X0063590Y0009313D01*
X0063435Y0009344D01*
X0063280Y0009380D01*
X0063127Y0009419D01*
X0062975Y0009462D01*
X0062824Y0009509D01*
X0062674Y0009560D01*
X0062525Y0009615D01*
X0062378Y0009673D01*
X0062232Y0009735D01*
X0062088Y0009800D01*
X0061946Y0009870D01*
X0061805Y0009942D01*
X0061666Y0010019D01*
X0061530Y0010098D01*
X0061395Y0010182D01*
X0061262Y0010268D01*
X0061132Y0010358D01*
X0061004Y0010451D01*
X0060878Y0010547D01*
X0060755Y0010647D01*
X0060634Y0010749D01*
X0060516Y0010854D01*
X0060401Y0010963D01*
X0060288Y0011074D01*
X0060178Y0011188D01*
X0060071Y0011305D01*
X0059967Y0011424D01*
X0059866Y0011546D01*
X0059769Y0011671D01*
X0059674Y0011798D01*
X0059583Y0011927D01*
X0059494Y0012058D01*
X0059410Y0012192D01*
X0059328Y0012328D01*
X0059250Y0012465D01*
X0059176Y0012605D01*
X0059105Y0012747D01*
X0059037Y0012890D01*
X0058973Y0013035D01*
X0058913Y0013181D01*
X0058857Y0013329D01*
X0058804Y0013478D01*
X0058755Y0013629D01*
X0058710Y0013781D01*
X0058669Y0013934D01*
X0058631Y0014087D01*
X0058598Y0014242D01*
X0058568Y0014398D01*
X0058542Y0014554D01*
X0058521Y0014711D01*
X0058503Y0014868D01*
X0058489Y0015026D01*
X0058479Y0015184D01*
X0058473Y0015342D01*
X0058471Y0015500D01*
X0029998Y0150339D02*
X0030000Y0150423D01*
X0030006Y0150506D01*
X0030016Y0150589D01*
X0030030Y0150672D01*
X0030047Y0150754D01*
X0030069Y0150835D01*
X0030094Y0150914D01*
X0030123Y0150993D01*
X0030156Y0151070D01*
X0030192Y0151145D01*
X0030232Y0151219D01*
X0030275Y0151291D01*
X0030322Y0151360D01*
X0030372Y0151427D01*
X0030425Y0151492D01*
X0030481Y0151554D01*
X0030539Y0151614D01*
X0030601Y0151671D01*
X0030665Y0151724D01*
X0030732Y0151775D01*
X0030801Y0151822D01*
X0030872Y0151867D01*
X0030945Y0151907D01*
X0031020Y0151944D01*
X0031097Y0151978D01*
X0031175Y0152008D01*
X0031254Y0152034D01*
X0031335Y0152057D01*
X0031417Y0152075D01*
X0031499Y0152090D01*
X0031582Y0152101D01*
X0031665Y0152108D01*
X0031749Y0152111D01*
X0031833Y0152110D01*
X0031916Y0152105D01*
X0032000Y0152096D01*
X0032082Y0152083D01*
X0032164Y0152067D01*
X0032245Y0152046D01*
X0032326Y0152022D01*
X0032404Y0151994D01*
X0032482Y0151962D01*
X0032558Y0151926D01*
X0032632Y0151887D01*
X0032704Y0151845D01*
X0032774Y0151799D01*
X0032842Y0151750D01*
X0032907Y0151698D01*
X0032970Y0151643D01*
X0033030Y0151585D01*
X0033088Y0151524D01*
X0033142Y0151460D01*
X0033194Y0151394D01*
X0033242Y0151326D01*
X0033287Y0151255D01*
X0033328Y0151182D01*
X0033367Y0151108D01*
X0033401Y0151032D01*
X0033432Y0150954D01*
X0033459Y0150875D01*
X0033483Y0150794D01*
X0033502Y0150713D01*
X0033518Y0150631D01*
X0033530Y0150548D01*
X0033538Y0150464D01*
X0033542Y0150381D01*
X0033542Y0150297D01*
X0033538Y0150214D01*
X0033530Y0150130D01*
X0033518Y0150047D01*
X0033502Y0149965D01*
X0033483Y0149884D01*
X0033459Y0149803D01*
X0033432Y0149724D01*
X0033401Y0149646D01*
X0033367Y0149570D01*
X0033328Y0149496D01*
X0033287Y0149423D01*
X0033242Y0149352D01*
X0033194Y0149284D01*
X0033142Y0149218D01*
X0033088Y0149154D01*
X0033030Y0149093D01*
X0032970Y0149035D01*
X0032907Y0148980D01*
X0032842Y0148928D01*
X0032774Y0148879D01*
X0032704Y0148833D01*
X0032632Y0148791D01*
X0032558Y0148752D01*
X0032482Y0148716D01*
X0032404Y0148684D01*
X0032326Y0148656D01*
X0032245Y0148632D01*
X0032164Y0148611D01*
X0032082Y0148595D01*
X0032000Y0148582D01*
X0031916Y0148573D01*
X0031833Y0148568D01*
X0031749Y0148567D01*
X0031665Y0148570D01*
X0031582Y0148577D01*
X0031499Y0148588D01*
X0031417Y0148603D01*
X0031335Y0148621D01*
X0031254Y0148644D01*
X0031175Y0148670D01*
X0031097Y0148700D01*
X0031020Y0148734D01*
X0030945Y0148771D01*
X0030872Y0148811D01*
X0030801Y0148856D01*
X0030732Y0148903D01*
X0030665Y0148954D01*
X0030601Y0149007D01*
X0030539Y0149064D01*
X0030481Y0149124D01*
X0030425Y0149186D01*
X0030372Y0149251D01*
X0030322Y0149318D01*
X0030275Y0149387D01*
X0030232Y0149459D01*
X0030192Y0149533D01*
X0030156Y0149608D01*
X0030123Y0149685D01*
X0030094Y0149764D01*
X0030069Y0149843D01*
X0030047Y0149924D01*
X0030030Y0150006D01*
X0030016Y0150089D01*
X0030006Y0150172D01*
X0030000Y0150255D01*
X0029998Y0150339D01*
X0029998Y0167661D02*
X0030000Y0167745D01*
X0030006Y0167828D01*
X0030016Y0167911D01*
X0030030Y0167994D01*
X0030047Y0168076D01*
X0030069Y0168157D01*
X0030094Y0168236D01*
X0030123Y0168315D01*
X0030156Y0168392D01*
X0030192Y0168467D01*
X0030232Y0168541D01*
X0030275Y0168613D01*
X0030322Y0168682D01*
X0030372Y0168749D01*
X0030425Y0168814D01*
X0030481Y0168876D01*
X0030539Y0168936D01*
X0030601Y0168993D01*
X0030665Y0169046D01*
X0030732Y0169097D01*
X0030801Y0169144D01*
X0030872Y0169189D01*
X0030945Y0169229D01*
X0031020Y0169266D01*
X0031097Y0169300D01*
X0031175Y0169330D01*
X0031254Y0169356D01*
X0031335Y0169379D01*
X0031417Y0169397D01*
X0031499Y0169412D01*
X0031582Y0169423D01*
X0031665Y0169430D01*
X0031749Y0169433D01*
X0031833Y0169432D01*
X0031916Y0169427D01*
X0032000Y0169418D01*
X0032082Y0169405D01*
X0032164Y0169389D01*
X0032245Y0169368D01*
X0032326Y0169344D01*
X0032404Y0169316D01*
X0032482Y0169284D01*
X0032558Y0169248D01*
X0032632Y0169209D01*
X0032704Y0169167D01*
X0032774Y0169121D01*
X0032842Y0169072D01*
X0032907Y0169020D01*
X0032970Y0168965D01*
X0033030Y0168907D01*
X0033088Y0168846D01*
X0033142Y0168782D01*
X0033194Y0168716D01*
X0033242Y0168648D01*
X0033287Y0168577D01*
X0033328Y0168504D01*
X0033367Y0168430D01*
X0033401Y0168354D01*
X0033432Y0168276D01*
X0033459Y0168197D01*
X0033483Y0168116D01*
X0033502Y0168035D01*
X0033518Y0167953D01*
X0033530Y0167870D01*
X0033538Y0167786D01*
X0033542Y0167703D01*
X0033542Y0167619D01*
X0033538Y0167536D01*
X0033530Y0167452D01*
X0033518Y0167369D01*
X0033502Y0167287D01*
X0033483Y0167206D01*
X0033459Y0167125D01*
X0033432Y0167046D01*
X0033401Y0166968D01*
X0033367Y0166892D01*
X0033328Y0166818D01*
X0033287Y0166745D01*
X0033242Y0166674D01*
X0033194Y0166606D01*
X0033142Y0166540D01*
X0033088Y0166476D01*
X0033030Y0166415D01*
X0032970Y0166357D01*
X0032907Y0166302D01*
X0032842Y0166250D01*
X0032774Y0166201D01*
X0032704Y0166155D01*
X0032632Y0166113D01*
X0032558Y0166074D01*
X0032482Y0166038D01*
X0032404Y0166006D01*
X0032326Y0165978D01*
X0032245Y0165954D01*
X0032164Y0165933D01*
X0032082Y0165917D01*
X0032000Y0165904D01*
X0031916Y0165895D01*
X0031833Y0165890D01*
X0031749Y0165889D01*
X0031665Y0165892D01*
X0031582Y0165899D01*
X0031499Y0165910D01*
X0031417Y0165925D01*
X0031335Y0165943D01*
X0031254Y0165966D01*
X0031175Y0165992D01*
X0031097Y0166022D01*
X0031020Y0166056D01*
X0030945Y0166093D01*
X0030872Y0166133D01*
X0030801Y0166178D01*
X0030732Y0166225D01*
X0030665Y0166276D01*
X0030601Y0166329D01*
X0030539Y0166386D01*
X0030481Y0166446D01*
X0030425Y0166508D01*
X0030372Y0166573D01*
X0030322Y0166640D01*
X0030275Y0166709D01*
X0030232Y0166781D01*
X0030192Y0166855D01*
X0030156Y0166930D01*
X0030123Y0167007D01*
X0030094Y0167086D01*
X0030069Y0167165D01*
X0030047Y0167246D01*
X0030030Y0167328D01*
X0030016Y0167411D01*
X0030006Y0167494D01*
X0030000Y0167577D01*
X0029998Y0167661D01*
X0063471Y0205500D02*
X0063473Y0205658D01*
X0063479Y0205816D01*
X0063489Y0205974D01*
X0063503Y0206132D01*
X0063521Y0206289D01*
X0063542Y0206446D01*
X0063568Y0206602D01*
X0063598Y0206758D01*
X0063631Y0206913D01*
X0063669Y0207066D01*
X0063710Y0207219D01*
X0063755Y0207371D01*
X0063804Y0207522D01*
X0063857Y0207671D01*
X0063913Y0207819D01*
X0063973Y0207965D01*
X0064037Y0208110D01*
X0064105Y0208253D01*
X0064176Y0208395D01*
X0064250Y0208535D01*
X0064328Y0208672D01*
X0064410Y0208808D01*
X0064494Y0208942D01*
X0064583Y0209073D01*
X0064674Y0209202D01*
X0064769Y0209329D01*
X0064866Y0209454D01*
X0064967Y0209576D01*
X0065071Y0209695D01*
X0065178Y0209812D01*
X0065288Y0209926D01*
X0065401Y0210037D01*
X0065516Y0210146D01*
X0065634Y0210251D01*
X0065755Y0210353D01*
X0065878Y0210453D01*
X0066004Y0210549D01*
X0066132Y0210642D01*
X0066262Y0210732D01*
X0066395Y0210818D01*
X0066530Y0210902D01*
X0066666Y0210981D01*
X0066805Y0211058D01*
X0066946Y0211130D01*
X0067088Y0211200D01*
X0067232Y0211265D01*
X0067378Y0211327D01*
X0067525Y0211385D01*
X0067674Y0211440D01*
X0067824Y0211491D01*
X0067975Y0211538D01*
X0068127Y0211581D01*
X0068280Y0211620D01*
X0068435Y0211656D01*
X0068590Y0211687D01*
X0068746Y0211715D01*
X0068902Y0211739D01*
X0069059Y0211759D01*
X0069217Y0211775D01*
X0069374Y0211787D01*
X0069533Y0211795D01*
X0069691Y0211799D01*
X0069849Y0211799D01*
X0070007Y0211795D01*
X0070166Y0211787D01*
X0070323Y0211775D01*
X0070481Y0211759D01*
X0070638Y0211739D01*
X0070794Y0211715D01*
X0070950Y0211687D01*
X0071105Y0211656D01*
X0071260Y0211620D01*
X0071413Y0211581D01*
X0071565Y0211538D01*
X0071716Y0211491D01*
X0071866Y0211440D01*
X0072015Y0211385D01*
X0072162Y0211327D01*
X0072308Y0211265D01*
X0072452Y0211200D01*
X0072594Y0211130D01*
X0072735Y0211058D01*
X0072874Y0210981D01*
X0073010Y0210902D01*
X0073145Y0210818D01*
X0073278Y0210732D01*
X0073408Y0210642D01*
X0073536Y0210549D01*
X0073662Y0210453D01*
X0073785Y0210353D01*
X0073906Y0210251D01*
X0074024Y0210146D01*
X0074139Y0210037D01*
X0074252Y0209926D01*
X0074362Y0209812D01*
X0074469Y0209695D01*
X0074573Y0209576D01*
X0074674Y0209454D01*
X0074771Y0209329D01*
X0074866Y0209202D01*
X0074957Y0209073D01*
X0075046Y0208942D01*
X0075130Y0208808D01*
X0075212Y0208672D01*
X0075290Y0208535D01*
X0075364Y0208395D01*
X0075435Y0208253D01*
X0075503Y0208110D01*
X0075567Y0207965D01*
X0075627Y0207819D01*
X0075683Y0207671D01*
X0075736Y0207522D01*
X0075785Y0207371D01*
X0075830Y0207219D01*
X0075871Y0207066D01*
X0075909Y0206913D01*
X0075942Y0206758D01*
X0075972Y0206602D01*
X0075998Y0206446D01*
X0076019Y0206289D01*
X0076037Y0206132D01*
X0076051Y0205974D01*
X0076061Y0205816D01*
X0076067Y0205658D01*
X0076069Y0205500D01*
X0076067Y0205342D01*
X0076061Y0205184D01*
X0076051Y0205026D01*
X0076037Y0204868D01*
X0076019Y0204711D01*
X0075998Y0204554D01*
X0075972Y0204398D01*
X0075942Y0204242D01*
X0075909Y0204087D01*
X0075871Y0203934D01*
X0075830Y0203781D01*
X0075785Y0203629D01*
X0075736Y0203478D01*
X0075683Y0203329D01*
X0075627Y0203181D01*
X0075567Y0203035D01*
X0075503Y0202890D01*
X0075435Y0202747D01*
X0075364Y0202605D01*
X0075290Y0202465D01*
X0075212Y0202328D01*
X0075130Y0202192D01*
X0075046Y0202058D01*
X0074957Y0201927D01*
X0074866Y0201798D01*
X0074771Y0201671D01*
X0074674Y0201546D01*
X0074573Y0201424D01*
X0074469Y0201305D01*
X0074362Y0201188D01*
X0074252Y0201074D01*
X0074139Y0200963D01*
X0074024Y0200854D01*
X0073906Y0200749D01*
X0073785Y0200647D01*
X0073662Y0200547D01*
X0073536Y0200451D01*
X0073408Y0200358D01*
X0073278Y0200268D01*
X0073145Y0200182D01*
X0073010Y0200098D01*
X0072874Y0200019D01*
X0072735Y0199942D01*
X0072594Y0199870D01*
X0072452Y0199800D01*
X0072308Y0199735D01*
X0072162Y0199673D01*
X0072015Y0199615D01*
X0071866Y0199560D01*
X0071716Y0199509D01*
X0071565Y0199462D01*
X0071413Y0199419D01*
X0071260Y0199380D01*
X0071105Y0199344D01*
X0070950Y0199313D01*
X0070794Y0199285D01*
X0070638Y0199261D01*
X0070481Y0199241D01*
X0070323Y0199225D01*
X0070166Y0199213D01*
X0070007Y0199205D01*
X0069849Y0199201D01*
X0069691Y0199201D01*
X0069533Y0199205D01*
X0069374Y0199213D01*
X0069217Y0199225D01*
X0069059Y0199241D01*
X0068902Y0199261D01*
X0068746Y0199285D01*
X0068590Y0199313D01*
X0068435Y0199344D01*
X0068280Y0199380D01*
X0068127Y0199419D01*
X0067975Y0199462D01*
X0067824Y0199509D01*
X0067674Y0199560D01*
X0067525Y0199615D01*
X0067378Y0199673D01*
X0067232Y0199735D01*
X0067088Y0199800D01*
X0066946Y0199870D01*
X0066805Y0199942D01*
X0066666Y0200019D01*
X0066530Y0200098D01*
X0066395Y0200182D01*
X0066262Y0200268D01*
X0066132Y0200358D01*
X0066004Y0200451D01*
X0065878Y0200547D01*
X0065755Y0200647D01*
X0065634Y0200749D01*
X0065516Y0200854D01*
X0065401Y0200963D01*
X0065288Y0201074D01*
X0065178Y0201188D01*
X0065071Y0201305D01*
X0064967Y0201424D01*
X0064866Y0201546D01*
X0064769Y0201671D01*
X0064674Y0201798D01*
X0064583Y0201927D01*
X0064494Y0202058D01*
X0064410Y0202192D01*
X0064328Y0202328D01*
X0064250Y0202465D01*
X0064176Y0202605D01*
X0064105Y0202747D01*
X0064037Y0202890D01*
X0063973Y0203035D01*
X0063913Y0203181D01*
X0063857Y0203329D01*
X0063804Y0203478D01*
X0063755Y0203629D01*
X0063710Y0203781D01*
X0063669Y0203934D01*
X0063631Y0204087D01*
X0063598Y0204242D01*
X0063568Y0204398D01*
X0063542Y0204554D01*
X0063521Y0204711D01*
X0063503Y0204868D01*
X0063489Y0205026D01*
X0063479Y0205184D01*
X0063473Y0205342D01*
X0063471Y0205500D01*
X0263471Y0145500D02*
X0263473Y0145658D01*
X0263479Y0145816D01*
X0263489Y0145974D01*
X0263503Y0146132D01*
X0263521Y0146289D01*
X0263542Y0146446D01*
X0263568Y0146602D01*
X0263598Y0146758D01*
X0263631Y0146913D01*
X0263669Y0147066D01*
X0263710Y0147219D01*
X0263755Y0147371D01*
X0263804Y0147522D01*
X0263857Y0147671D01*
X0263913Y0147819D01*
X0263973Y0147965D01*
X0264037Y0148110D01*
X0264105Y0148253D01*
X0264176Y0148395D01*
X0264250Y0148535D01*
X0264328Y0148672D01*
X0264410Y0148808D01*
X0264494Y0148942D01*
X0264583Y0149073D01*
X0264674Y0149202D01*
X0264769Y0149329D01*
X0264866Y0149454D01*
X0264967Y0149576D01*
X0265071Y0149695D01*
X0265178Y0149812D01*
X0265288Y0149926D01*
X0265401Y0150037D01*
X0265516Y0150146D01*
X0265634Y0150251D01*
X0265755Y0150353D01*
X0265878Y0150453D01*
X0266004Y0150549D01*
X0266132Y0150642D01*
X0266262Y0150732D01*
X0266395Y0150818D01*
X0266530Y0150902D01*
X0266666Y0150981D01*
X0266805Y0151058D01*
X0266946Y0151130D01*
X0267088Y0151200D01*
X0267232Y0151265D01*
X0267378Y0151327D01*
X0267525Y0151385D01*
X0267674Y0151440D01*
X0267824Y0151491D01*
X0267975Y0151538D01*
X0268127Y0151581D01*
X0268280Y0151620D01*
X0268435Y0151656D01*
X0268590Y0151687D01*
X0268746Y0151715D01*
X0268902Y0151739D01*
X0269059Y0151759D01*
X0269217Y0151775D01*
X0269374Y0151787D01*
X0269533Y0151795D01*
X0269691Y0151799D01*
X0269849Y0151799D01*
X0270007Y0151795D01*
X0270166Y0151787D01*
X0270323Y0151775D01*
X0270481Y0151759D01*
X0270638Y0151739D01*
X0270794Y0151715D01*
X0270950Y0151687D01*
X0271105Y0151656D01*
X0271260Y0151620D01*
X0271413Y0151581D01*
X0271565Y0151538D01*
X0271716Y0151491D01*
X0271866Y0151440D01*
X0272015Y0151385D01*
X0272162Y0151327D01*
X0272308Y0151265D01*
X0272452Y0151200D01*
X0272594Y0151130D01*
X0272735Y0151058D01*
X0272874Y0150981D01*
X0273010Y0150902D01*
X0273145Y0150818D01*
X0273278Y0150732D01*
X0273408Y0150642D01*
X0273536Y0150549D01*
X0273662Y0150453D01*
X0273785Y0150353D01*
X0273906Y0150251D01*
X0274024Y0150146D01*
X0274139Y0150037D01*
X0274252Y0149926D01*
X0274362Y0149812D01*
X0274469Y0149695D01*
X0274573Y0149576D01*
X0274674Y0149454D01*
X0274771Y0149329D01*
X0274866Y0149202D01*
X0274957Y0149073D01*
X0275046Y0148942D01*
X0275130Y0148808D01*
X0275212Y0148672D01*
X0275290Y0148535D01*
X0275364Y0148395D01*
X0275435Y0148253D01*
X0275503Y0148110D01*
X0275567Y0147965D01*
X0275627Y0147819D01*
X0275683Y0147671D01*
X0275736Y0147522D01*
X0275785Y0147371D01*
X0275830Y0147219D01*
X0275871Y0147066D01*
X0275909Y0146913D01*
X0275942Y0146758D01*
X0275972Y0146602D01*
X0275998Y0146446D01*
X0276019Y0146289D01*
X0276037Y0146132D01*
X0276051Y0145974D01*
X0276061Y0145816D01*
X0276067Y0145658D01*
X0276069Y0145500D01*
X0276067Y0145342D01*
X0276061Y0145184D01*
X0276051Y0145026D01*
X0276037Y0144868D01*
X0276019Y0144711D01*
X0275998Y0144554D01*
X0275972Y0144398D01*
X0275942Y0144242D01*
X0275909Y0144087D01*
X0275871Y0143934D01*
X0275830Y0143781D01*
X0275785Y0143629D01*
X0275736Y0143478D01*
X0275683Y0143329D01*
X0275627Y0143181D01*
X0275567Y0143035D01*
X0275503Y0142890D01*
X0275435Y0142747D01*
X0275364Y0142605D01*
X0275290Y0142465D01*
X0275212Y0142328D01*
X0275130Y0142192D01*
X0275046Y0142058D01*
X0274957Y0141927D01*
X0274866Y0141798D01*
X0274771Y0141671D01*
X0274674Y0141546D01*
X0274573Y0141424D01*
X0274469Y0141305D01*
X0274362Y0141188D01*
X0274252Y0141074D01*
X0274139Y0140963D01*
X0274024Y0140854D01*
X0273906Y0140749D01*
X0273785Y0140647D01*
X0273662Y0140547D01*
X0273536Y0140451D01*
X0273408Y0140358D01*
X0273278Y0140268D01*
X0273145Y0140182D01*
X0273010Y0140098D01*
X0272874Y0140019D01*
X0272735Y0139942D01*
X0272594Y0139870D01*
X0272452Y0139800D01*
X0272308Y0139735D01*
X0272162Y0139673D01*
X0272015Y0139615D01*
X0271866Y0139560D01*
X0271716Y0139509D01*
X0271565Y0139462D01*
X0271413Y0139419D01*
X0271260Y0139380D01*
X0271105Y0139344D01*
X0270950Y0139313D01*
X0270794Y0139285D01*
X0270638Y0139261D01*
X0270481Y0139241D01*
X0270323Y0139225D01*
X0270166Y0139213D01*
X0270007Y0139205D01*
X0269849Y0139201D01*
X0269691Y0139201D01*
X0269533Y0139205D01*
X0269374Y0139213D01*
X0269217Y0139225D01*
X0269059Y0139241D01*
X0268902Y0139261D01*
X0268746Y0139285D01*
X0268590Y0139313D01*
X0268435Y0139344D01*
X0268280Y0139380D01*
X0268127Y0139419D01*
X0267975Y0139462D01*
X0267824Y0139509D01*
X0267674Y0139560D01*
X0267525Y0139615D01*
X0267378Y0139673D01*
X0267232Y0139735D01*
X0267088Y0139800D01*
X0266946Y0139870D01*
X0266805Y0139942D01*
X0266666Y0140019D01*
X0266530Y0140098D01*
X0266395Y0140182D01*
X0266262Y0140268D01*
X0266132Y0140358D01*
X0266004Y0140451D01*
X0265878Y0140547D01*
X0265755Y0140647D01*
X0265634Y0140749D01*
X0265516Y0140854D01*
X0265401Y0140963D01*
X0265288Y0141074D01*
X0265178Y0141188D01*
X0265071Y0141305D01*
X0264967Y0141424D01*
X0264866Y0141546D01*
X0264769Y0141671D01*
X0264674Y0141798D01*
X0264583Y0141927D01*
X0264494Y0142058D01*
X0264410Y0142192D01*
X0264328Y0142328D01*
X0264250Y0142465D01*
X0264176Y0142605D01*
X0264105Y0142747D01*
X0264037Y0142890D01*
X0263973Y0143035D01*
X0263913Y0143181D01*
X0263857Y0143329D01*
X0263804Y0143478D01*
X0263755Y0143629D01*
X0263710Y0143781D01*
X0263669Y0143934D01*
X0263631Y0144087D01*
X0263598Y0144242D01*
X0263568Y0144398D01*
X0263542Y0144554D01*
X0263521Y0144711D01*
X0263503Y0144868D01*
X0263489Y0145026D01*
X0263479Y0145184D01*
X0263473Y0145342D01*
X0263471Y0145500D01*
X0263471Y0035500D02*
X0263473Y0035658D01*
X0263479Y0035816D01*
X0263489Y0035974D01*
X0263503Y0036132D01*
X0263521Y0036289D01*
X0263542Y0036446D01*
X0263568Y0036602D01*
X0263598Y0036758D01*
X0263631Y0036913D01*
X0263669Y0037066D01*
X0263710Y0037219D01*
X0263755Y0037371D01*
X0263804Y0037522D01*
X0263857Y0037671D01*
X0263913Y0037819D01*
X0263973Y0037965D01*
X0264037Y0038110D01*
X0264105Y0038253D01*
X0264176Y0038395D01*
X0264250Y0038535D01*
X0264328Y0038672D01*
X0264410Y0038808D01*
X0264494Y0038942D01*
X0264583Y0039073D01*
X0264674Y0039202D01*
X0264769Y0039329D01*
X0264866Y0039454D01*
X0264967Y0039576D01*
X0265071Y0039695D01*
X0265178Y0039812D01*
X0265288Y0039926D01*
X0265401Y0040037D01*
X0265516Y0040146D01*
X0265634Y0040251D01*
X0265755Y0040353D01*
X0265878Y0040453D01*
X0266004Y0040549D01*
X0266132Y0040642D01*
X0266262Y0040732D01*
X0266395Y0040818D01*
X0266530Y0040902D01*
X0266666Y0040981D01*
X0266805Y0041058D01*
X0266946Y0041130D01*
X0267088Y0041200D01*
X0267232Y0041265D01*
X0267378Y0041327D01*
X0267525Y0041385D01*
X0267674Y0041440D01*
X0267824Y0041491D01*
X0267975Y0041538D01*
X0268127Y0041581D01*
X0268280Y0041620D01*
X0268435Y0041656D01*
X0268590Y0041687D01*
X0268746Y0041715D01*
X0268902Y0041739D01*
X0269059Y0041759D01*
X0269217Y0041775D01*
X0269374Y0041787D01*
X0269533Y0041795D01*
X0269691Y0041799D01*
X0269849Y0041799D01*
X0270007Y0041795D01*
X0270166Y0041787D01*
X0270323Y0041775D01*
X0270481Y0041759D01*
X0270638Y0041739D01*
X0270794Y0041715D01*
X0270950Y0041687D01*
X0271105Y0041656D01*
X0271260Y0041620D01*
X0271413Y0041581D01*
X0271565Y0041538D01*
X0271716Y0041491D01*
X0271866Y0041440D01*
X0272015Y0041385D01*
X0272162Y0041327D01*
X0272308Y0041265D01*
X0272452Y0041200D01*
X0272594Y0041130D01*
X0272735Y0041058D01*
X0272874Y0040981D01*
X0273010Y0040902D01*
X0273145Y0040818D01*
X0273278Y0040732D01*
X0273408Y0040642D01*
X0273536Y0040549D01*
X0273662Y0040453D01*
X0273785Y0040353D01*
X0273906Y0040251D01*
X0274024Y0040146D01*
X0274139Y0040037D01*
X0274252Y0039926D01*
X0274362Y0039812D01*
X0274469Y0039695D01*
X0274573Y0039576D01*
X0274674Y0039454D01*
X0274771Y0039329D01*
X0274866Y0039202D01*
X0274957Y0039073D01*
X0275046Y0038942D01*
X0275130Y0038808D01*
X0275212Y0038672D01*
X0275290Y0038535D01*
X0275364Y0038395D01*
X0275435Y0038253D01*
X0275503Y0038110D01*
X0275567Y0037965D01*
X0275627Y0037819D01*
X0275683Y0037671D01*
X0275736Y0037522D01*
X0275785Y0037371D01*
X0275830Y0037219D01*
X0275871Y0037066D01*
X0275909Y0036913D01*
X0275942Y0036758D01*
X0275972Y0036602D01*
X0275998Y0036446D01*
X0276019Y0036289D01*
X0276037Y0036132D01*
X0276051Y0035974D01*
X0276061Y0035816D01*
X0276067Y0035658D01*
X0276069Y0035500D01*
X0276067Y0035342D01*
X0276061Y0035184D01*
X0276051Y0035026D01*
X0276037Y0034868D01*
X0276019Y0034711D01*
X0275998Y0034554D01*
X0275972Y0034398D01*
X0275942Y0034242D01*
X0275909Y0034087D01*
X0275871Y0033934D01*
X0275830Y0033781D01*
X0275785Y0033629D01*
X0275736Y0033478D01*
X0275683Y0033329D01*
X0275627Y0033181D01*
X0275567Y0033035D01*
X0275503Y0032890D01*
X0275435Y0032747D01*
X0275364Y0032605D01*
X0275290Y0032465D01*
X0275212Y0032328D01*
X0275130Y0032192D01*
X0275046Y0032058D01*
X0274957Y0031927D01*
X0274866Y0031798D01*
X0274771Y0031671D01*
X0274674Y0031546D01*
X0274573Y0031424D01*
X0274469Y0031305D01*
X0274362Y0031188D01*
X0274252Y0031074D01*
X0274139Y0030963D01*
X0274024Y0030854D01*
X0273906Y0030749D01*
X0273785Y0030647D01*
X0273662Y0030547D01*
X0273536Y0030451D01*
X0273408Y0030358D01*
X0273278Y0030268D01*
X0273145Y0030182D01*
X0273010Y0030098D01*
X0272874Y0030019D01*
X0272735Y0029942D01*
X0272594Y0029870D01*
X0272452Y0029800D01*
X0272308Y0029735D01*
X0272162Y0029673D01*
X0272015Y0029615D01*
X0271866Y0029560D01*
X0271716Y0029509D01*
X0271565Y0029462D01*
X0271413Y0029419D01*
X0271260Y0029380D01*
X0271105Y0029344D01*
X0270950Y0029313D01*
X0270794Y0029285D01*
X0270638Y0029261D01*
X0270481Y0029241D01*
X0270323Y0029225D01*
X0270166Y0029213D01*
X0270007Y0029205D01*
X0269849Y0029201D01*
X0269691Y0029201D01*
X0269533Y0029205D01*
X0269374Y0029213D01*
X0269217Y0029225D01*
X0269059Y0029241D01*
X0268902Y0029261D01*
X0268746Y0029285D01*
X0268590Y0029313D01*
X0268435Y0029344D01*
X0268280Y0029380D01*
X0268127Y0029419D01*
X0267975Y0029462D01*
X0267824Y0029509D01*
X0267674Y0029560D01*
X0267525Y0029615D01*
X0267378Y0029673D01*
X0267232Y0029735D01*
X0267088Y0029800D01*
X0266946Y0029870D01*
X0266805Y0029942D01*
X0266666Y0030019D01*
X0266530Y0030098D01*
X0266395Y0030182D01*
X0266262Y0030268D01*
X0266132Y0030358D01*
X0266004Y0030451D01*
X0265878Y0030547D01*
X0265755Y0030647D01*
X0265634Y0030749D01*
X0265516Y0030854D01*
X0265401Y0030963D01*
X0265288Y0031074D01*
X0265178Y0031188D01*
X0265071Y0031305D01*
X0264967Y0031424D01*
X0264866Y0031546D01*
X0264769Y0031671D01*
X0264674Y0031798D01*
X0264583Y0031927D01*
X0264494Y0032058D01*
X0264410Y0032192D01*
X0264328Y0032328D01*
X0264250Y0032465D01*
X0264176Y0032605D01*
X0264105Y0032747D01*
X0264037Y0032890D01*
X0263973Y0033035D01*
X0263913Y0033181D01*
X0263857Y0033329D01*
X0263804Y0033478D01*
X0263755Y0033629D01*
X0263710Y0033781D01*
X0263669Y0033934D01*
X0263631Y0034087D01*
X0263598Y0034242D01*
X0263568Y0034398D01*
X0263542Y0034554D01*
X0263521Y0034711D01*
X0263503Y0034868D01*
X0263489Y0035026D01*
X0263479Y0035184D01*
X0263473Y0035342D01*
X0263471Y0035500D01*
D12*
X0269770Y0035500D03*
X0269770Y0145500D03*
X0069770Y0205500D03*
X0064770Y0015500D03*
D13*
X0119770Y0014100D02*
X0119770Y0016900D01*
X0129770Y0016900D02*
X0129770Y0014100D01*
X0139770Y0014100D02*
X0139770Y0016900D01*
X0149770Y0016900D02*
X0149770Y0014100D01*
X0159770Y0014100D02*
X0159770Y0016900D01*
X0169770Y0016900D02*
X0169770Y0014100D01*
X0179770Y0014100D02*
X0179770Y0016900D01*
X0189770Y0016900D02*
X0189770Y0014100D01*
X0209770Y0014100D02*
X0209770Y0016900D01*
X0219770Y0016900D02*
X0219770Y0014100D01*
X0229770Y0014100D02*
X0229770Y0016900D01*
X0239770Y0016900D02*
X0239770Y0014100D01*
X0249770Y0014100D02*
X0249770Y0016900D01*
X0259770Y0016900D02*
X0259770Y0014100D01*
X0258770Y0041600D02*
X0258770Y0044400D01*
X0248770Y0044400D02*
X0248770Y0041600D01*
X0238770Y0041600D02*
X0238770Y0044400D01*
X0228770Y0044400D02*
X0228770Y0041600D01*
X0218770Y0041600D02*
X0218770Y0044400D01*
X0208770Y0044400D02*
X0208770Y0041600D01*
X0198770Y0041600D02*
X0198770Y0044400D01*
X0188770Y0044400D02*
X0188770Y0041600D01*
X0178770Y0041600D02*
X0178770Y0044400D01*
X0168770Y0044400D02*
X0168770Y0041600D01*
X0158770Y0041600D02*
X0158770Y0044400D01*
X0148770Y0044400D02*
X0148770Y0041600D01*
X0138770Y0041600D02*
X0138770Y0044400D01*
X0128770Y0044400D02*
X0128770Y0041600D01*
X0128770Y0071600D02*
X0128770Y0074400D01*
X0138770Y0074400D02*
X0138770Y0071600D01*
X0148770Y0071600D02*
X0148770Y0074400D01*
X0158770Y0074400D02*
X0158770Y0071600D01*
X0168770Y0071600D02*
X0168770Y0074400D01*
X0178770Y0074400D02*
X0178770Y0071600D01*
X0188770Y0071600D02*
X0188770Y0074400D01*
X0198770Y0074400D02*
X0198770Y0071600D01*
X0208770Y0071600D02*
X0208770Y0074400D01*
X0218770Y0074400D02*
X0218770Y0071600D01*
X0228770Y0071600D02*
X0228770Y0074400D01*
X0238770Y0074400D02*
X0238770Y0071600D01*
X0248770Y0071600D02*
X0248770Y0074400D01*
X0258770Y0074400D02*
X0258770Y0071600D01*
X0259770Y0204100D02*
X0259770Y0206900D01*
X0249770Y0206900D02*
X0249770Y0204100D01*
X0239770Y0204100D02*
X0239770Y0206900D01*
X0229770Y0206900D02*
X0229770Y0204100D01*
X0219770Y0204100D02*
X0219770Y0206900D01*
X0209770Y0206900D02*
X0209770Y0204100D01*
X0199770Y0204100D02*
X0199770Y0206900D01*
X0189770Y0206900D02*
X0189770Y0204100D01*
D14*
X0258770Y0105500D03*
X0268770Y0105500D03*
X0268770Y0095500D03*
X0258770Y0095500D03*
X0258770Y0085500D03*
X0268770Y0085500D03*
D15*
X0239770Y0084000D02*
X0239770Y0087000D01*
X0229770Y0087000D02*
X0229770Y0084000D01*
X0173770Y0204000D02*
X0173770Y0207000D01*
X0163770Y0207000D02*
X0163770Y0204000D01*
X0153770Y0204000D02*
X0153770Y0207000D01*
X0143770Y0207000D02*
X0143770Y0204000D01*
X0133770Y0204000D02*
X0133770Y0207000D01*
X0123770Y0207000D02*
X0123770Y0204000D01*
X0113770Y0204000D02*
X0113770Y0207000D01*
X0103770Y0207000D02*
X0103770Y0204000D01*
X0093770Y0204000D02*
X0093770Y0207000D01*
X0083770Y0207000D02*
X0083770Y0204000D01*
X0044570Y0208900D02*
X0041570Y0208900D01*
X0041570Y0191100D02*
X0044570Y0191100D01*
X0018970Y0191100D02*
X0015970Y0191100D01*
X0015970Y0208900D02*
X0018970Y0208900D01*
D16*
X0101270Y0084000D03*
X0101270Y0060500D03*
X0101270Y0037000D03*
D17*
X0101270Y0027000D03*
X0101270Y0050500D03*
X0101270Y0074000D03*
D18*
X0083770Y0061500D03*
X0071770Y0061500D03*
X0071770Y0031500D03*
X0083770Y0031500D03*
X0128270Y0088500D03*
X0120770Y0095500D03*
X0120770Y0106000D03*
X0128270Y0107500D03*
X0138270Y0107500D03*
X0138270Y0126000D03*
X0128270Y0126000D03*
X0117770Y0116500D03*
X0107270Y0116500D03*
X0090770Y0106000D03*
X0090770Y0095500D03*
X0138270Y0088500D03*
X0154270Y0084000D03*
X0174270Y0084000D03*
X0183770Y0084000D03*
X0203770Y0084000D03*
X0203770Y0092500D03*
X0215770Y0084000D03*
X0203770Y0112500D03*
X0215770Y0114000D03*
X0223270Y0114000D03*
X0243270Y0114000D03*
X0210770Y0032500D03*
X0190770Y0032500D03*
X0182770Y0032500D03*
X0162770Y0032500D03*
X0138270Y0144500D03*
X0128270Y0144500D03*
X0117770Y0146500D03*
X0107270Y0146500D03*
X0101770Y0156500D03*
X0117270Y0162000D03*
X0128270Y0156500D03*
X0138770Y0156500D03*
X0117270Y0182000D03*
X0128270Y0186500D03*
X0138770Y0186500D03*
X0081770Y0156500D03*
X0061270Y0156000D03*
X0061270Y0176000D03*
D19*
X0072170Y0108500D03*
X0075970Y0100500D03*
X0068370Y0100500D03*
D20*
X0062033Y0090000D03*
X0062033Y0085000D03*
X0062033Y0080000D03*
X0062033Y0075000D03*
X0082506Y0075000D03*
X0082506Y0080000D03*
X0082506Y0085000D03*
X0082506Y0090000D03*
D21*
X0047170Y0078600D03*
X0047170Y0069600D03*
X0047170Y0060600D03*
X0047170Y0105600D03*
X0047170Y0114600D03*
X0047170Y0123600D03*
D22*
X0022370Y0114500D03*
X0022370Y0069500D03*
D23*
X0019959Y0141480D03*
X0019959Y0176520D03*
D24*
X0043187Y0176520D03*
X0043187Y0141480D03*
D25*
X0043581Y0152701D03*
X0043581Y0155850D03*
X0043581Y0159000D03*
X0043581Y0162150D03*
X0043581Y0165299D03*
D26*
X0031770Y0167661D03*
X0031770Y0150339D03*
D27*
X0079770Y0172500D03*
X0098770Y0172500D03*
X0164770Y0100000D03*
X0183770Y0100000D03*
D28*
X0098270Y0125890D03*
X0093270Y0125890D03*
X0088270Y0125890D03*
X0083270Y0125890D03*
X0078270Y0125890D03*
X0073270Y0125890D03*
X0068270Y0125890D03*
X0063270Y0125890D03*
X0063270Y0147110D03*
X0068270Y0147110D03*
X0073270Y0147110D03*
X0078270Y0147110D03*
X0083270Y0147110D03*
X0088270Y0147110D03*
X0093270Y0147110D03*
X0098270Y0147110D03*
D29*
X0107270Y0015500D03*
X0077270Y0015500D03*
D30*
X0081770Y0097500D03*
X0062770Y0097500D03*
X0071770Y0114500D03*
D31*
X0056270Y0040000D02*
X0056270Y0036000D01*
X0045770Y0018500D02*
X0041770Y0018500D01*
X0031770Y0036000D02*
X0031770Y0040000D01*
D32*
X0159770Y0125500D03*
X0169770Y0125500D03*
X0179770Y0125500D03*
X0189770Y0125500D03*
X0199770Y0125500D03*
X0209770Y0125500D03*
X0219770Y0125500D03*
X0229770Y0125500D03*
X0239770Y0125500D03*
X0249770Y0125500D03*
X0259770Y0125500D03*
X0269770Y0125500D03*
X0269770Y0135500D03*
X0259770Y0135500D03*
X0249770Y0135500D03*
X0239770Y0135500D03*
X0229770Y0135500D03*
X0219770Y0135500D03*
X0209770Y0135500D03*
X0199770Y0135500D03*
X0189770Y0135500D03*
X0179770Y0135500D03*
X0169770Y0135500D03*
X0159770Y0135500D03*
X0159770Y0145500D03*
X0169770Y0145500D03*
X0179770Y0145500D03*
X0189770Y0145500D03*
X0199770Y0145500D03*
X0209770Y0145500D03*
X0219770Y0145500D03*
X0229770Y0145500D03*
X0239770Y0145500D03*
X0249770Y0145500D03*
X0259770Y0145500D03*
X0259770Y0155500D03*
X0269770Y0155500D03*
X0259770Y0165500D03*
X0259770Y0175500D03*
X0249770Y0175500D03*
X0239770Y0175500D03*
X0239770Y0165500D03*
X0249770Y0165500D03*
X0249770Y0155500D03*
X0239770Y0155500D03*
X0229770Y0155500D03*
X0219770Y0155500D03*
X0209770Y0155500D03*
X0199770Y0155500D03*
X0189770Y0155500D03*
X0179770Y0155500D03*
X0169770Y0155500D03*
X0159770Y0155500D03*
X0149770Y0155500D03*
X0149770Y0165500D03*
X0159770Y0165500D03*
X0169770Y0165500D03*
X0179770Y0165500D03*
X0189770Y0165500D03*
X0199770Y0165500D03*
X0209770Y0165500D03*
X0219770Y0165500D03*
X0229770Y0165500D03*
X0229770Y0175500D03*
X0219770Y0175500D03*
X0209770Y0175500D03*
X0199770Y0175500D03*
X0189770Y0175500D03*
X0179770Y0175500D03*
X0169770Y0175500D03*
X0159770Y0175500D03*
X0149770Y0175500D03*
X0149770Y0185500D03*
X0159770Y0185500D03*
X0169770Y0185500D03*
X0179770Y0185500D03*
X0189770Y0185500D03*
X0199770Y0185500D03*
X0209770Y0185500D03*
X0219770Y0185500D03*
X0229770Y0185500D03*
X0239770Y0185500D03*
M02*
