%
M48
M72
T01C0.01200
T02C0.03543
T03C0.03740
T04C0.04000
T05C0.04331
T06C0.12598
%
T01
X52770Y147500
X52770Y144500
X52770Y141500
X52770Y138500
X64770Y133000
X86270Y136500
X107270Y124500
X119270Y126500
X130270Y133500
X101270Y100500
X88770Y113500
X58770Y103500
X50270Y98500
X45270Y98500
X45270Y93500
X50270Y93500
X69270Y82500
X65270Y71000
X57770Y63500
X53770Y63500
X53770Y59500
X57770Y59500
X22770Y91500
X53270Y114500
X56770Y114500
X23270Y130000
X55270Y165500
X58770Y165500
X62270Y165500
X77770Y193000
X97770Y195000
X118770Y191500
X231270Y117500
X270270Y76500
X270270Y73500
X273270Y50500
X265270Y50500
X262270Y50500
X253770Y26500
X253770Y23500
X243770Y49500
X149270Y27500
X146270Y27500
X128770Y60500
X128770Y65500
X107270Y66000
T02
X61270Y176000
X79770Y172500
X81770Y156500
X101770Y156500
X107270Y146500
X117770Y146500
X128270Y144500
X138270Y144500
X138770Y156500
X128270Y156500
X117270Y162000
X98770Y172500
X117270Y182000
X128270Y186500
X138770Y186500
X61270Y156000
X107270Y116500
X117770Y116500
X128270Y107500
X120770Y106000
X120770Y95500
X128270Y88500
X138270Y88500
X154270Y84000
X164770Y100000
X174270Y84000
X183770Y84000
X183770Y100000
X203770Y92500
X203770Y84000
X215770Y84000
X203770Y112500
X215770Y114000
X223270Y114000
X243270Y114000
X138270Y126000
X128270Y126000
X138270Y107500
X101270Y84000
X101270Y74000
X101270Y60500
X101270Y50500
X101270Y37000
X101270Y27000
X83770Y31500
X71770Y31500
X56270Y38000
X43770Y18500
X31770Y38000
X71770Y61500
X83770Y61500
X90770Y95500
X90770Y106000
X162770Y32500
X182770Y32500
X190770Y32500
X210770Y32500
X189770Y205500
X199770Y205500
X209770Y205500
X219770Y205500
X229770Y205500
X239770Y205500
X249770Y205500
X259770Y205500
X258770Y73000
X248770Y73000
X238770Y73000
X228770Y73000
X218770Y73000
X208770Y73000
X198770Y73000
X188770Y73000
X178770Y73000
X168770Y73000
X158770Y73000
X148770Y73000
X138770Y73000
X128770Y73000
X128770Y43000
X138770Y43000
X148770Y43000
X158770Y43000
X168770Y43000
X178770Y43000
X188770Y43000
X198770Y43000
X208770Y43000
X218770Y43000
X228770Y43000
X238770Y43000
X248770Y43000
X258770Y43000
X259770Y15500
X249770Y15500
X239770Y15500
X229770Y15500
X219770Y15500
X209770Y15500
X189770Y15500
X179770Y15500
X169770Y15500
X159770Y15500
X149770Y15500
X139770Y15500
X129770Y15500
X119770Y15500
X31770Y167661
X31770Y150339
T03
X258770Y105500
X268770Y105500
X268770Y95500
X258770Y95500
X258770Y85500
X268770Y85500
T04
X17470Y208900
X17470Y191100
X43070Y191100
X43070Y208900
X83770Y205500
X93770Y205500
X103770Y205500
X113770Y205500
X123770Y205500
X133770Y205500
X143770Y205500
X153770Y205500
X163770Y205500
X173770Y205500
X239770Y85500
X229770Y85500
X81770Y97500
X62770Y97500
X71770Y114500
T05
X149770Y185500
X159770Y185500
X169770Y185500
X179770Y185500
X189770Y185500
X199770Y185500
X209770Y185500
X219770Y185500
X229770Y185500
X239770Y185500
X239770Y175500
X249770Y175500
X259770Y175500
X259770Y165500
X249770Y165500
X239770Y165500
X229770Y165500
X219770Y165500
X219770Y175500
X229770Y175500
X209770Y175500
X199770Y175500
X199770Y165500
X209770Y165500
X209770Y155500
X199770Y155500
X199770Y145500
X209770Y145500
X219770Y145500
X229770Y145500
X239770Y145500
X249770Y145500
X259770Y145500
X259770Y155500
X269770Y155500
X249770Y155500
X239770Y155500
X229770Y155500
X219770Y155500
X219770Y135500
X229770Y135500
X239770Y135500
X249770Y135500
X259770Y135500
X269770Y135500
X269770Y125500
X259770Y125500
X249770Y125500
X239770Y125500
X229770Y125500
X219770Y125500
X209770Y125500
X199770Y125500
X199770Y135500
X209770Y135500
X189770Y135500
X189770Y125500
X179770Y125500
X169770Y125500
X169770Y135500
X179770Y135500
X179770Y145500
X169770Y145500
X169770Y155500
X179770Y155500
X189770Y155500
X189770Y145500
X189770Y165500
X189770Y175500
X179770Y175500
X169770Y175500
X169770Y165500
X179770Y165500
X159770Y165500
X149770Y165500
X149770Y175500
X159770Y175500
X159770Y155500
X149770Y155500
X159770Y145500
X159770Y135500
X159770Y125500
X107270Y15500
X77270Y15500
T06
X69770Y205500
X269770Y145500
X269770Y35500
X64770Y15500
M30
